<?xml version="1.0" encoding="utf-8"?>
<!-- Generator: Adobe Illustrator 23.1.0, SVG Export Plug-In . SVG Version: 6.00 Build 0)  -->
<svg version="1.1" id="Calque_1" xmlns="http://www.w3.org/2000/svg" xmlns:xlink="http://www.w3.org/1999/xlink" x="0px" y="0px"
	 viewBox="0 0 1039 1466" style="enable-background:new 0 0 1039 1466;" xml:space="preserve">
<style type="text/css">
	.st0{fill:#FFFFFF;}
</style>
<path class="st0" d="M633.38,536c-1.57-47.6-2.71-93.2-4.86-138.76c-0.53-11.17-2.56-22.97-7.02-33.1
	c-7.47-16.96-17.81-32.64-26.32-49.17c-24.76-48.05-61.44-85.98-104.46-117.09c-22.84-16.52-48.39-31.97-79.64-27.46
	c-10.12,1.46-20.3,3.24-30.48,3.42c-56.73,0.95-95.22,33.4-125.56,76.1c-16.09,22.65-20.02,51.48-20.68,79.41
	c-0.36,15.15-3.51,30.02,3.12,45.77c19.59,46.56,36.98,94.05,54.95,140.45c-31.67,7.39-64.07,13.04-95.25,22.64
	c-54.63,16.82-110.12,30.48-147.84,81.57C9.82,673.29-11.39,730.08,5.64,794.99c10.85,41.38,30.09,80.57,45.79,120.65
	c0.56,1.43,3.93,1.52,5.32,2.91c13.88,13.96,31.48,26.06,40.21,42.76c7.23,13.83,6.37,33.38,4.8,49.98
	c-3.12,33.02-11.47,65.62-13.34,98.64c-1.59,28.06-8.67,60.99,25.94,73.15c0,15.3-1.74,28.64,0.51,41.27
	c2.05,11.48,9.21,21.94,12.78,33.27c12.11,38.45,23.29,77.19,35.48,115.61c12.62,39.76,34.07,71.69,78.49,80.24
	c24.3,4.68,48.78,8.83,73.36,11.51c15.46,1.69,31.32,0.95,46.91-0.03c16.33-1.03,31.96-24.97,30.77-45.59
	c-2.13-36.72-4.1-73.44-6.62-110.13c-1.87-27.26-5.03-54.44-6.38-81.71c-0.28-5.74,4.06-16.33,7.55-16.9
	c23.22-3.78,46.79-5.45,72.26-8c3.48,32.93,4.95,64.97,10.66,96.23c7.48,40.96,16.4,82.29,37.81,118.55
	c9.05,15.32,23.09,30.59,42.69,33.13c13.72,1.78,28.12-1.62,42.21-2.83c24.21-2.09,48.76-2.47,72.48-7.1
	c15.19-2.97,28.62-15.18,43.8-17.93c15.45-2.8,15.98-13.81,18.78-23.36c2.41-8.24,1.62-17.65,1.14-26.47
	c-2.07-37.48-4.8-74.92-6.81-112.41c-1.49-27.71-1.13-55.57-3.81-83.15c-1.28-13.17,1.72-18.54,14.08-23.74
	c21.35-8.98,41.94-20.2,61.71-32.33c9.56-5.86,13.61-14.53,0.01-24.04c-4.88-3.41-5.3-15.07-5.04-22.87
	c0.08-2.37,9.04-5.55,14.25-6.42c10.68-1.8,21.63-1.97,32.39-3.39c26.02-3.45,51.96-7.48,78-10.81
	c24.5-3.14,43.91-11.94,52.35-37.94c8.86-27.3,19.98-53.86,29.14-81.06c6.39-18.98,12.14-38.29,16.3-57.86
	c2.82-13.29,0.69-27.66,3.74-40.86c9.12-39.51,23.59-77.94,23.26-119.22c-0.05-5.81-2.38-12.1-5.31-17.23
	c-2.3-4.04-56.02-23.37-61.11-23.48c-0.58-0.01-1.16-0.07-1.73-0.01c-22.69,2.45-45.5,4.16-68.05,7.56
	c-24.53,3.7-48.82,8.97-74.19,13.74c-0.8-5.51-1.32-9.37-1.92-13.22c-6.45-40.88-25.85-75.05-60.7-96.59
	c-24.84-15.35-53.54-24.73-81.04-35.44C666.43,545,647.37,540.31,633.38,536z"/>
<path class="st0" d="M447.27,138.55c16.12-4.76,37.25-9.41,57.1-17.29c21-8.33,36.94-45.72,26.32-65.13
	c-9.24-16.89-24.31-30.61-37.08-45.5c-1.11-1.3-4.23-0.98-6.44-1.21c-27.64-2.82-55.24-7.46-82.92-8.01
	c-53.91-1.08-108.5-5.99-161.08,10.2c-28.24,8.69-56.82,16.11-78.33,41.41c-16.51,19.41-8.24,35.78-2.38,52.33
	c5.05,14.24,18.21,22.71,34.97,23.13c15.46,0.39,30.91,1.58,46.35,2.58c37.53,2.44,75.03,5.69,112.6,7.25
	C384.78,139.49,413.25,138.55,447.27,138.55z"/>
<path d="M633.38,536c13.99,4.32,33.05,9.01,51.18,16.07c27.5,10.71,56.19,20.08,81.04,35.44c34.85,21.54,54.25,55.71,60.7,96.59
	c0.61,3.85,1.12,7.71,1.92,13.22c25.37-4.77,49.66-10.04,74.19-13.74c22.55-3.4,45.35-5.11,68.05-7.56c0.57-0.06,1.15,0,1.73,0.01
	c5.09,0.11,58.81,19.44,61.11,23.48c2.92,5.13,5.26,11.42,5.31,17.23c0.33,41.28-14.13,79.71-23.26,119.22
	c-3.05,13.2-0.91,27.57-3.74,40.86c-4.16,19.56-9.91,38.88-16.3,57.86c-9.16,27.21-20.28,53.77-29.14,81.06
	c-8.44,26-27.85,34.8-52.35,37.94c-26.03,3.33-51.98,7.36-78,10.81c-10.76,1.43-21.71,1.59-32.39,3.39
	c-5.22,0.88-14.18,4.05-14.25,6.42c-0.26,7.8,0.16,19.45,5.04,22.87c13.6,9.51,9.54,18.18-0.01,24.04
	c-19.77,12.13-40.36,23.35-61.71,32.33c-12.36,5.2-15.35,10.56-14.08,23.74c2.67,27.58,2.32,55.44,3.81,83.15
	c2.01,37.48,4.74,74.93,6.81,112.41c0.49,8.83,1.28,18.23-1.14,26.47c-2.79,9.54-3.33,20.56-18.78,23.36
	c-15.18,2.75-28.61,14.96-43.8,17.93c-23.72,4.63-48.27,5.01-72.48,7.1c-14.09,1.22-28.49,4.61-42.21,2.83
	c-19.6-2.54-33.64-17.81-42.69-33.13c-21.41-36.25-30.33-77.58-37.81-118.55c-5.71-31.26-7.17-63.3-10.66-96.23
	c-25.48,2.56-49.04,4.22-72.26,8c-3.48,0.57-7.83,11.16-7.55,16.9c1.35,27.28,4.51,54.46,6.38,81.71
	c2.52,36.69,4.49,73.42,6.62,110.13c1.2,20.62-14.44,44.56-30.77,45.59c-15.59,0.98-31.45,1.72-46.91,0.03
	c-24.58-2.68-49.06-6.83-73.36-11.51c-44.43-8.55-65.87-40.48-78.49-80.24c-12.19-38.42-23.37-77.16-35.48-115.61
	c-3.57-11.33-10.73-21.79-12.78-33.27c-2.25-12.63-0.51-25.97-0.51-41.27c-34.61-12.17-27.53-45.09-25.94-73.15
	c1.87-33.02,10.22-65.63,13.34-98.64c1.57-16.61,2.43-36.16-4.8-49.98c-8.73-16.71-26.33-28.8-40.21-42.76
	c-1.38-1.39-4.76-1.48-5.32-2.91c-15.7-40.08-34.93-79.27-45.79-120.65c-17.03-64.92,4.18-121.7,43.69-175.24
	c37.72-51.09,93.21-64.75,147.84-81.57c31.19-9.6,63.59-15.25,95.25-22.64c-17.97-46.4-35.36-93.89-54.95-140.45
	c-6.63-15.75-3.47-30.62-3.12-45.77c0.65-27.94,4.59-56.77,20.68-79.41c30.33-42.7,68.83-75.14,125.56-76.1
	c10.18-0.17,20.36-1.96,30.48-3.42c31.25-4.51,56.8,10.93,79.64,27.46c43.02,31.11,79.7,69.05,104.46,117.09
	c8.52,16.53,18.85,32.21,26.32,49.17c4.46,10.13,6.5,21.93,7.02,33.1C630.67,442.8,631.81,488.4,633.38,536z M218.47,1011.11
	c3.66-19.86,4.23-36.23,9.85-50.63c10.95-28.1,35.69-44.04,60.44-58.48c16.46-9.6,17.24-10.04,4.44-23.46
	c-11.74-12.31-23.48-24.74-33.95-38.11c-12.11-15.47-22.36-32.39-34.32-47.99c-8.17-10.66-18.25-20.03-10.07-38.69
	c9.12,2.03,20.8,1.71,28.6,7.06c10.86,7.46,19.45,18.63,27.82,29.17c10.2,12.82,18.25,27.41,28.87,39.83
	c15.89,18.59,32.91,36.25,50.12,53.64c4.91,4.96,12.09,7.72,18.36,11.25c14.82,8.33,31.15,14.81,43.9,25.56
	c5.2,4.38,2.68,17.91,3.84,28.84c11.68-3.21,23.8-7.55,36.29-9.77c37.46-6.65,75.09-12.39,112.59-18.83c2-0.34,4.63-3.6,4.99-5.82
	c3.61-22.2,8.09-44.36,9.83-66.73c2.56-32.9,7.34-65.2,26.26-92.8c8.9-12.98,20.7-29.03,34.21-32.75
	c27.14-7.48,56.4-7.02,84.68-10.67c22.86-2.96,45.56-7.15,70.52-11.14c-9.37-15.68-19.95-27.76-24.24-41.77
	c-7.75-25.34-26.77-40.73-47.25-50.5c-34.39-16.41-71.55-27.01-105.65-39.36c-21.28,29.13-28.43,65.64-65.25,81.23
	c-31.82,13.47-63.81,19.48-95.79,7.08c-23.17-8.99-46.8-17.84-65.59-37.34c-18.52-19.23-43.04-32.53-63.01-50.55
	c-16.38-14.78-26.59-18.27-48.44-11.94c-30.77,8.91-61.64,17.92-93.02,24.08c-28.1,5.52-53,15.43-75.87,32.98
	c-35.85,27.51-57.37,63.35-68.62,106.37c-14.33,54.76,5.93,102.27,32.46,147.57c10.62,18.13,25.82,33.93,40.66,49.1
	c9.9,10.12,23.85,16.19,34.24,25.94C172.85,964.55,194.18,986.82,218.47,1011.11z M613.64,1072.15c5.65-1.36,13.21-3.77,20.95-4.93
	c40.16-5.98,80.52-10.78,120.53-17.64c44.72-7.67,89.12-17.17,133.7-25.67c2.53-0.48,5.47,1.47,8.08,1.16
	c23.38-2.71,40.55-4.75,48-32.36c8.44-31.28,20.34-61.74,27.06-93.34c4.43-20.84,14.1-40.57,9.47-64.36
	c-2.81-14.41,9.64-31.18,11.78-47.34c2.25-16.98,2.16-34.74-0.17-51.71c-2.32-16.92-15.91-24.8-32.22-24.99
	c-14.54-0.17-29.18,1.44-43.64,3.32c-28,3.62-55.96,7.58-83.81,12.16c-24.06,3.96-47.89,9.27-71.92,13.43
	c-26.33,4.56-53.67,5.65-78.87,13.62c-19.16,6.06-40.61,16.88-51.94,32.28c-11.13,15.14-11.8,38.55-15.22,58.65
	c-4.27,25.13-15.56,49.71-7.75,76.11c0.15,0.51,0,1.16-0.13,1.71c-4.49,19.71-6.84,40.24-14.05,58.9
	c-9.15,23.68,4.74,47.73-4.4,70.72c-0.78,1.97-0.91,4.21-0.93,4.29C597.24,1061.86,604.99,1066.72,613.64,1072.15z M272.01,327.47
	c4.08,15.17,7.45,30.58,12.42,45.45c6.83,20.43,14.47,40.63,22.51,60.62c10.54,26.23,20.08,53.07,33.14,78.04
	c25.19,48.15,69.71,75.43,116.36,98.32c38.82,19.06,78.55,11.04,99.97-23.4c14.68-23.61,27.01-49.12,30.49-79.98
	c4.71-41.8,0.37-81.77-7.54-121.58c-4-20.11-15.83-39.06-26.14-57.39c-9.26-16.47-19.79-32.75-32.49-46.61
	c-14.39-15.71-30.72-30.21-48.19-42.4c-25.64-17.89-49.81-36.61-86.49-31.61C323.82,215.41,273.52,267.73,272.01,327.47z
	 M755.81,1075.03c-6.21,0-12.43-0.81-18.36,0.14c-27.6,4.43-55.08,9.71-82.71,13.95c-13.53,2.08-28.41-0.34-40.71,4.41
	c-20.65,7.97-37.5,3.37-55.01-7.05c-4.08-2.43-10.29-1.6-15.53-1.68c-5.88-0.09-11.97,1.56-17.63,0.55
	c-14.02-2.5-28.05-5.39-41.69-9.41c-22.38-6.6-44.46-14.21-63.98-20.53c-8.3,7.48-16.36,16.06-25.71,22.87
	c-17.65,12.86-36.98,21.97-59.72,16.69c-17.07-3.96-34.34-7.74-50.75-13.7c-23.97-8.7-48.91-17.1-58.45-44.13
	c-44.66,10.43-64.46-25.15-91.46-48.63c-2.36,40.39-4.04,79.64-7.22,118.77c-1.43,17.6-1,33.83,11,47.09
	c14.85,1.75,29.4,3.14,43.84,5.24c31.39,4.58,62.6,10.75,94.12,13.88c18.3,1.82,37.06-1.23,55.62-1.64
	c27.72-0.62,55.59,0.72,83.15-1.65c30.53-2.62,60.74-8.84,91.18-12.75c11.25-1.45,23.07,0.74,34.12-1.38
	c61.16-11.76,123.3-18.39,182.66-39.54C751.92,1106.08,752.86,1108.74,755.81,1075.03z M493.62,1196.93
	c1.25,5.07,3.28,9.82,3.48,14.65c2.29,57.21,8.97,113.95,32.52,166.48c6.04,13.48,23.79,28.61,37.63,30.21
	c26.77,3.1,55.36,0.38,81.78-5.91c36.33-8.65,42.28-8.82,40.64-48.56c-0.73-17.54-1.46-35.09-2.02-52.64
	c-1.18-36.51-2.35-73.02-3.32-109.53c-0.35-13.14-4.68-20.18-19.7-17.36c-27.76,5.22-55.61,10.22-83.6,13.89
	C552.05,1191.96,522.86,1194.07,493.62,1196.93z M342.29,1211.29c-67.14,8.05-129.72-4.86-192.53-20.09c0.95,8.33,0,15.31,2.6,20.53
	c22.71,45.6,33.31,95.04,42.24,144.29c5.12,28.22,41.95,57.93,65.75,60.3c25.43,2.53,50.93,4.3,76.41,6.34
	c12.42,0.99,19.98-3.26,18.96-17.3c-1.87-25.89-3.55-51.8-5.23-77.7c-1.84-28.46-3.52-56.94-5.41-85.39
	C344.44,1232.66,343.37,1223.08,342.29,1211.29z M396.75,951.83c-5.78-4.68-10.07-9.48-15.42-12.24
	c-19.4-9.99-38.53-24.66-61.95-13.09c-26.32,13-44.98,34.67-60.86,58.79c-7.69,11.68-4.04,37.2,6.97,44.05
	c13.17,8.2,26.49,17.03,40.98,22.02c24.29,8.36,58.37,12.44,79-14.7c-14.86-14.68-38.2-24.9-36.31-49.68
	C351.19,960.34,378.05,960.41,396.75,951.83z M563.02,952.81c-55.19,11.8-107.97,23.09-158.03,33.79
	c-4.9,6.95-9.38,13.31-15.19,21.56c49.27,16.72,98,33.25,145.72,49.44C544.79,1022.25,553.48,989.15,563.02,952.81z"/>
<path d="M447.27,138.55c-34.02,0-62.5,0.94-90.89-0.23c-37.57-1.55-75.06-4.81-112.6-7.25c-15.44-1-30.89-2.2-46.35-2.58
	c-16.76-0.42-29.92-8.89-34.97-23.13c-5.86-16.54-14.13-32.91,2.38-52.33c21.51-25.29,50.09-32.71,78.33-41.41
	C295.76-4.57,350.36,0.34,404.26,1.42c27.68,0.55,55.29,5.19,82.92,8.01c2.21,0.23,5.33-0.09,6.44,1.21
	c12.77,14.89,27.84,28.61,37.08,45.5c10.61,19.4-5.32,56.8-26.32,65.13C484.52,129.13,463.39,133.79,447.27,138.55z M281.69,116.48
	l-0.39-0.12c19.43,1.83,38.94,5.66,58.28,5c26.19-0.89,51.95,8.28,78.89-1.28c16.61-5.89,36.33-2.68,54.56-4.49
	c16.26-1.62,28.84-9.21,34.91-25.48c7.94-21.32-2.8-36.14-15.65-51.64c-18.42-22.21-44.64-21.49-68.46-23.08
	c-39.58-2.65-79.53-2-119.21-0.11c-41.41,1.97-80.18,15.63-114.61,38.44c-7.77,5.15-12.77,20.3-12.18,30.44
	c0.49,8.31,10.16,21.62,17.56,22.99C223.77,112.38,252.87,113.7,281.69,116.48z"/>
<path class="st0" d="M218.47,1011.11c-24.29-24.28-45.62-46.55-68.08-67.62c-10.39-9.75-24.34-15.82-34.24-25.94
	c-14.84-15.17-30.05-30.97-40.66-49.1c-26.53-45.3-46.79-92.81-32.46-147.57c11.25-43.02,32.77-78.86,68.62-106.37
	c22.87-17.55,47.78-27.46,75.87-32.98c31.38-6.17,62.25-15.18,93.02-24.08c21.85-6.33,32.06-2.84,48.44,11.94
	c19.97,18.02,44.49,31.33,63.01,50.55c18.79,19.5,42.43,28.35,65.59,37.34c31.97,12.41,63.97,6.4,95.79-7.08
	c36.82-15.59,43.97-52.1,65.25-81.23c34.09,12.35,71.26,22.95,105.65,39.36c20.48,9.77,39.5,25.16,47.25,50.5
	c4.28,14.01,14.86,26.09,24.24,41.77c-24.96,3.99-47.66,8.18-70.52,11.14c-28.28,3.66-57.54,3.19-84.68,10.67
	c-13.5,3.72-25.3,19.77-34.21,32.75c-18.92,27.6-23.71,59.9-26.26,92.8c-1.74,22.37-6.21,44.53-9.83,66.73
	c-0.36,2.22-2.99,5.48-4.99,5.82c-37.5,6.43-75.13,12.18-112.59,18.83c-12.49,2.22-24.6,6.56-36.29,9.77
	c-1.16-10.93,1.36-24.45-3.84-28.84c-12.74-10.76-29.08-17.24-43.9-25.56c-6.28-3.53-13.45-6.29-18.36-11.25
	c-17.22-17.39-34.23-35.05-50.12-53.64c-10.62-12.42-18.67-27.01-28.87-39.83c-8.37-10.53-16.97-21.71-27.82-29.17
	c-7.79-5.35-19.48-5.04-28.6-7.06c-8.18,18.66,1.9,28.03,10.07,38.69c11.96,15.6,22.21,32.52,34.32,47.99
	c10.47,13.37,22.21,25.8,33.95,38.11c12.8,13.42,12.02,13.86-4.44,23.46c-24.75,14.44-49.49,30.38-60.44,58.48
	C222.7,974.88,222.13,991.25,218.47,1011.11z"/>
<path class="st0" d="M613.64,1072.15c-8.66-5.43-16.41-10.3-25.46-15.98c0.02-0.08,0.15-2.32,0.93-4.29
	c9.14-22.99-4.75-47.04,4.4-70.72c7.21-18.66,9.55-39.2,14.05-58.9c0.13-0.56,0.28-1.2,0.13-1.71c-7.81-26.4,3.47-50.98,7.75-76.11
	c3.42-20.1,4.09-43.51,15.22-58.65c11.32-15.4,32.78-26.22,51.94-32.28c25.2-7.97,52.54-9.06,78.87-13.62
	c24.03-4.16,47.86-9.47,71.92-13.43c27.85-4.58,55.82-8.54,83.81-12.16c14.46-1.87,29.11-3.49,43.64-3.32
	c16.3,0.19,29.9,8.08,32.22,24.99c2.32,16.97,2.42,34.74,0.17,51.71c-2.15,16.16-14.59,32.93-11.78,47.34
	c4.64,23.79-5.04,43.52-9.47,64.36c-6.72,31.6-18.61,62.06-27.06,93.34c-7.45,27.6-24.62,29.65-48,32.36
	c-2.62,0.3-5.56-1.64-8.08-1.16c-44.58,8.51-88.98,18-133.7,25.67c-40.01,6.86-80.37,11.66-120.53,17.64
	C626.85,1068.38,619.29,1070.8,613.64,1072.15z M850.33,879.14c-1.5-0.59-3-1.17-4.5-1.76c5.72-19.86-3.78-26.57-20.75-24.49
	c-20.56,2.52-41.33,10.18-59.56-6.91c-0.88-0.82-3.34,0.23-5.05,0.1c-19.11-1.44-26.28,13.91-35.16,25.9
	c-11.68,15.78-6.37,48.33,5.44,63.11c21.64,27.07,51.51,9.86,76.81,16.38c4.26,1.1,10.31-4.29,15.4-6.96
	c18.01-9.44,19.79-15.97,11.94-34.99c-1.51-3.66,0.42-9.77,2.64-13.69C840.95,889.79,845.99,884.66,850.33,879.14z M828.79,774.93
	c-10.26,8.94-17.77,16.12-25.94,22.47c-14.02,10.9-10.2,26.26-10.05,40.38c0.02,1.72,9.93,6.08,12.58,4.56
	c12.23-7.01,24.96-14.27,34.59-24.26c5.91-6.12,9.15-17.5,8.57-26.18C848.21,786.82,837.98,782.41,828.79,774.93z"/>
<path class="st0" d="M272.01,327.47c1.51-59.74,51.8-112.07,114.04-120.54c36.68-4.99,60.85,13.72,86.49,31.61
	c17.47,12.19,33.8,26.69,48.19,42.4c12.7,13.86,23.23,30.14,32.49,46.61c10.31,18.34,22.14,37.28,26.14,57.39
	c7.91,39.81,12.25,79.78,7.54,121.58c-3.48,30.86-15.81,56.37-30.49,79.98c-21.42,34.44-61.14,42.45-99.97,23.4
	c-46.64-22.9-91.17-50.17-116.36-98.32c-13.06-24.96-22.59-51.81-33.14-78.04c-8.04-20-15.68-40.19-22.51-60.62
	C279.46,358.05,276.1,342.64,272.01,327.47z"/>
<path class="st0" d="M755.81,1075.03c-2.95,33.71-3.9,31.05-33.24,41.5c-59.35,21.15-121.5,27.78-182.66,39.54
	c-11.05,2.12-22.87-0.06-34.12,1.38c-30.44,3.92-60.65,10.13-91.18,12.75c-27.56,2.37-55.43,1.03-83.15,1.65
	c-18.56,0.41-37.32,3.46-55.62,1.64c-31.52-3.14-62.74-9.3-94.12-13.88c-14.44-2.11-28.99-3.49-43.84-5.24
	c-12-13.26-12.43-29.49-11-47.09c3.18-39.13,4.86-78.37,7.22-118.77c27.01,23.48,46.8,59.06,91.46,48.63
	c9.54,27.03,34.48,35.43,58.45,44.13c16.42,5.96,33.68,9.74,50.75,13.7c22.74,5.27,42.06-3.83,59.72-16.69
	c9.35-6.81,17.41-15.4,25.71-22.87c19.52,6.32,41.6,13.94,63.98,20.53c13.65,4.02,27.68,6.9,41.69,9.41
	c5.66,1.01,11.75-0.64,17.63-0.55c5.24,0.08,11.45-0.75,15.53,1.68c17.51,10.42,34.36,15.02,55.01,7.05
	c12.29-4.74,27.18-2.33,40.71-4.41c27.63-4.24,55.1-9.52,82.71-13.95C743.38,1074.21,749.6,1075.03,755.81,1075.03z"/>
<path class="st0" d="M493.62,1196.93c29.24-2.86,58.44-4.96,87.41-8.76c28-3.67,55.84-8.67,83.6-13.89
	c15.02-2.83,19.35,4.21,19.7,17.36c0.97,36.51,2.14,73.02,3.32,109.53c0.57,17.55,1.3,35.09,2.02,52.64
	c1.64,39.74-4.31,39.91-40.64,48.56c-26.41,6.29-55.01,9.01-81.78,5.91c-13.84-1.6-31.59-16.73-37.63-30.21
	c-23.55-52.54-30.23-109.27-32.52-166.48C496.9,1206.75,494.87,1202,493.62,1196.93z"/>
<path class="st0" d="M342.29,1211.29c1.08,11.8,2.15,21.37,2.79,30.97c1.89,28.46,3.57,56.93,5.41,85.39
	c1.67,25.91,3.35,51.81,5.23,77.7c1.02,14.04-6.54,18.3-18.96,17.3c-25.48-2.04-50.98-3.81-76.41-6.34
	c-23.8-2.37-60.63-32.08-65.75-60.3c-8.93-49.25-19.53-98.69-42.24-144.29c-2.6-5.22-1.66-12.2-2.6-20.53
	C212.57,1206.43,275.14,1219.34,342.29,1211.29z"/>
<path class="st0" d="M396.75,951.83c-18.7,8.58-45.56,8.52-47.6,35.15c-1.89,24.78,21.44,35.01,36.31,49.68
	c-20.63,27.14-54.71,23.05-79,14.7c-14.49-4.98-27.82-13.82-40.98-22.02c-11-6.85-14.65-32.38-6.97-44.05
	c15.88-24.12,34.55-45.79,60.86-58.79c23.43-11.57,42.56,3.11,61.95,13.09C386.68,942.34,390.98,947.15,396.75,951.83z"/>
<path class="st0" d="M563.02,952.81c-9.54,36.34-18.23,69.44-27.51,104.79c-47.73-16.19-96.45-32.72-145.72-49.44
	c5.81-8.24,10.3-14.61,15.19-21.56C455.05,975.9,507.84,964.61,563.02,952.81z"/>
<path class="st0" d="M281.69,116.48c-28.83-2.78-57.93-4.1-86.3-9.34c-7.4-1.37-17.07-14.68-17.56-22.99
	c-0.6-10.14,4.41-25.29,12.18-30.44c34.43-22.81,73.2-36.46,114.61-38.44c39.67-1.89,79.63-2.54,119.21,0.11
	c23.83,1.59,50.04,0.87,68.46,23.08c12.85,15.5,23.6,30.32,15.65,51.64c-6.06,16.27-18.65,23.86-34.91,25.48
	c-18.23,1.81-37.94-1.4-54.56,4.49c-26.94,9.55-52.7,0.38-78.89,1.28c-19.35,0.66-38.85-3.17-58.33-5.03
	c7.13-0.52,14.3-1.13,21.48-1.47c25.27-1.21,50.76-0.63,75.75-3.9c29.18-3.82,58.23-9.77,86.74-17.11
	c16.19-4.17,26.51-20.96,21.83-37.77c-2.8-10.06-14.03-19.93-23.95-25.25c-9.52-5.1-22.27-5.81-33.57-5.69
	c-40,0.4-80.03,1.26-119.97,3.35c-28.57,1.5-55.87,8.78-80.21,24.96c-11.15,7.41-11.62,20.37-5.66,32.34
	c8.49,17.05,20.34,24.14,38.89,23.89C268.93,109.59,275.32,114.08,281.69,116.48z"/>
<path d="M850.33,879.14c-4.35,5.52-9.38,10.65-12.8,16.69c-2.22,3.92-4.15,10.04-2.64,13.69c7.85,19.02,6.07,25.55-11.94,34.99
	c-5.08,2.66-11.14,8.06-15.4,6.96c-25.3-6.52-55.17,10.69-76.81-16.38c-11.81-14.78-17.12-47.33-5.44-63.11
	c8.88-11.99,16.05-27.34,35.16-25.9c1.7,0.13,4.17-0.92,5.05-0.1c18.24,17.09,39.01,9.43,59.56,6.91
	c16.98-2.08,26.48,4.63,20.75,24.49C847.34,877.97,848.84,878.56,850.33,879.14z M821.72,877.08c-3.13-0.77-7.66-3.17-8.96-2
	c-16.09,14.52-26.91,3.94-38.89-6.55c-4.48-3.92-12.76-7.48-17.81-6.02c-14.83,4.29-24,40.41-14.52,52.66
	c13.36,17.26,53.61,20.34,75.91,5.26C796.56,904.28,817.86,892.13,821.72,877.08z"/>
<path d="M828.79,774.93c9.19,7.48,19.42,11.89,19.76,16.97c0.58,8.68-2.66,20.06-8.57,26.18c-9.63,9.99-22.37,17.25-34.59,24.26
	c-2.65,1.52-12.56-2.84-12.58-4.56c-0.15-14.13-3.97-29.49,10.05-40.38C811.02,791.05,818.54,783.86,828.79,774.93z"/>
<path d="M281.69,116.48c-6.37-2.4-12.77-6.88-19.1-6.8c-18.55,0.25-30.4-6.84-38.89-23.89c-5.96-11.97-5.49-24.93,5.66-32.34
	C253.7,37.27,281,29.99,309.57,28.49c39.94-2.09,79.97-2.95,119.97-3.35c11.3-0.11,24.05,0.59,33.57,5.69
	c9.92,5.32,21.14,15.18,23.95,25.25c4.68,16.81-5.64,33.6-21.83,37.77c-28.51,7.34-57.56,13.29-86.74,17.11
	c-24.99,3.27-50.49,2.7-75.75,3.9c-7.18,0.34-14.35,0.96-21.48,1.47C281.3,116.36,281.69,116.48,281.69,116.48z M322.76,42.38
	c-23.89,4-48.27,5.14-67.41,22.07c-4.91,4.34-10.58,13.04-9.21,17.83c1.49,5.21,10.42,10.85,16.71,11.68
	c24.9,3.27,50.04,6.48,75.07,6.3c20.88-0.16,41.9-8.18,62.55-7.06c22.15,1.2,40.29-6.39,58.12-16.14
	c4.61-2.52,7.53-12.08,7.23-18.21c-0.2-4.08-6.92-10.02-11.72-11.25c-11.52-2.95-23.6-4.76-35.49-4.99
	C386.67,41.96,354.71,42.38,322.76,42.38z"/>
<path class="st0" d="M821.72,877.08c-3.86,15.05-25.16,27.2-4.29,43.35c-22.3,15.08-62.55,11.99-75.91-5.26
	c-9.48-12.25-0.3-48.37,14.52-52.66c5.05-1.46,13.33,2.1,17.81,6.02c11.99,10.49,22.81,21.08,38.89,6.55
	C814.06,873.91,818.59,876.32,821.72,877.08z"/>
</svg>
