<?xml version="1.0" encoding="utf-8"?>
<!-- Generator: Adobe Illustrator 23.1.0, SVG Export Plug-In . SVG Version: 6.00 Build 0)  -->
<svg version="1.1" id="Calque_1" xmlns="http://www.w3.org/2000/svg" xmlns:xlink="http://www.w3.org/1999/xlink" x="0px" y="0px"
	 viewBox="0 0 1066.59 1080.18" style="enable-background:new 0 0 1066.59 1080.18;" xml:space="preserve">
<g>
	<g>
		<path d="M321.89,475.49c50.85-4.42,96.61-9.42,142.51-12.19c158.24-9.55,315.69-4.57,470.12,34.93
			c33.45,8.56,65.79,23.94,96.36,40.4c21.17,11.39,38.15,30.36,35.43,58.39c-0.67,6.88-2.49,14.04-5.48,20.25
			c-14.56,30.13-38.6,51.54-66.45,68.81c-6.18,3.83-14.39,4.77-21.83,6.16c-97.95,18.28-196.46,13.38-295.09,7.72
			c-117.08-6.72-234.22-12.38-351.34-18.41c-4.67-0.24-9.39,0.41-17.73,0.83c7.01,5.81,11.2,9.73,15.81,13.06
			c62.67,45.21,126.43,88.99,187.67,136.04c30.6,23.51,59.48,50.61,84.05,80.29c36.82,44.47,37.25,90.74,9.1,133.52
			c-20.61,31.33-49.68,38.97-84.4,33.42c-38.42-6.14-73.7-20.87-106.93-40.48C272.24,954.73,156.06,843.73,60.46,710.92
			c-16.21-22.52-27.92-48.26-41.76-72.48C-2.05,602.15-3.81,562.29,5.05,523.77c4.98-21.66,19.84-42.74,34.85-60.1
			c53.39-61.76,109.53-121.13,163.16-182.68C264.05,211,317.64,135.54,363.93,54.97c33.01-57.44,100.59-71.66,160.9-34.13
			c53.24,33.13,62.62,93.57,30.1,150.59c-52.05,91.26-119.85,169.91-188.11,248.55C352.21,436.81,338.73,454.61,321.89,475.49z"/>
	</g>
</g>
</svg>
