<?xml version="1.0" encoding="utf-8"?>
<!-- Generator: Adobe Illustrator 23.1.0, SVG Export Plug-In . SVG Version: 6.00 Build 0)  -->
<svg version="1.1" id="Calque_1" xmlns="http://www.w3.org/2000/svg" xmlns:xlink="http://www.w3.org/1999/xlink" x="0px" y="0px"
	 viewBox="0 0 1920 785.1" style="enable-background:new 0 0 1920 785.1;" xml:space="preserve">
<style type="text/css">
	.st0{fill:#FFFFFF;}
</style>
<g>
	<g>
		<path class="st0" d="M1223.64,345.68c0,26.22,1.63,52.02-0.4,77.53c-2.76,34.68-9.01,69.06-12.53,103.7
			c-4.41,43.37,8.66,65.95,49.66,80.62c21.72,7.77,28.68,21.32,29.52,42.24c0.95,23.89,2.11,47.95,5.78,71.53
			c7.57,48.7,36.35,62.44,79.55,38.82c18.49-10.11,36.45-21.21,54.31-32.4c15.3-9.59,24.13-22.81,20.78-41.92
			c-2.39-13.62,2.66-23.98,16.89-25c14.23-1.03,23.32,7.67,24.65,22.11c1,10.81-0.26,21.84,0.76,32.65
			c1.78,18.82,7.4,35.87,27.39,43.33c56.44,21.07,127.29-26.73,127.36-87.42c0.03-26.92,9.27-42.08,35.1-52.55
			c33.97-13.77,68.4-31.54,63.22-77.67c-4.83-43.01-10.27-86.08-18.51-128.53c-3.58-18.42,0.1-29.87,15.72-37.79
			c40.29-20.45,64.37-54.94,85.68-93.09c9.25-16.56,22.76-31.93,37.5-43.99c25.25-20.66,42.04-45.7,51.57-76.33
			c5.51-17.71,1.32-31.89-11.96-45.38c-26.05-26.48-56.96-32.13-92.16-26.63c-21.64,3.38-35.07,11.83-40.12,35.43
			c-2.88,13.47-12.5,31.75-23.62,35.95c-24.16,9.14-39.79,25.35-55.74,43.47c-8.4,9.54-18.84,18.48-30.16,24.04
			c-21.97,10.78-35.17,2.58-32.54-21.64c6.81-62.86-19.06-112.67-57.69-158.84c-47.91-57.27-145.78-64.44-199.59-12.96
			c-19.84,18.99-37.66,40.07-56.12,59.89c-11.64-2.31-24.5-7.55-36.92-6.67c-15.72,1.12-25.3-4.62-35.36-15.39
			c-11.76-12.6-27.1-22.09-44.92-13.39c-59.92,29.28-96.44,60.26-76.25,138.35c1.57,6.06-2.94,17.94-8.05,20.62
			c-12.11,6.35-26.13,10.02-39.75,11.62c-2.27,0.27-10.01-15.76-9.11-23.56c7.04-61.09-17.96-109.93-55.16-155.42
			c-51.26-62.69-149.9-68.92-207.09-11.33c-19.39,19.52-36.98,40.81-56.48,62.5c-24.42,2.01-48.91,0.28-65.64-27.41
			c-8.54-14.14-25.98-24.26-43.79-16.21c-63.1,28.53-104.15,66.14-74.79,149c2.45,6.93,1.17,20.83-3.19,23.41
			c-11.77,6.97-25.97,10.84-39.65,12.63c-2.21,0.29-10.31-16.77-9.48-25.2c5.71-57.46-16.4-104.18-50.64-148.38
			c-39.81-51.38-92.12-65.28-151.52-51.04C247.6,33.98,214.64,83.74,187.1,137.1c-3.83,7.42-6.73,15.32-10.06,23
			c-2.19,0.47-4.38,0.94-6.57,1.41c-7.24-14.94-13.7-30.32-21.88-44.74c-28.07-49.51-51.34-60.19-96.8-28.31
			c-25.84,18.11-48.33,37.67-51.27,71.62c-3.24,37.45,8.62,69.74,32.3,98.68c22.07,26.96,43.67,54.37,64.02,82.62
			c5.84,8.1,9.87,20.05,9.17,29.85c-3.94,55.6-9.56,111.09-14.62,166.61c-4.22,46.4,7.4,66.63,51.52,83.77
			c18.13,7.04,26.05,17.69,27.12,36.96c1.61,28.89,3.34,58.13,9.24,86.34c8.02,38.31,33.16,49.53,68.7,32.33
			c20.22-9.78,38.75-22.98,58.4-33.98c17.68-9.89,27.14-23.55,24.26-44.41c-1.86-13.47,2.97-24.11,17.39-24.84
			c14.1-0.72,23.3,7.82,24.54,22.37c0.93,10.83-0.07,21.82,0.84,32.65c1.66,19.93,8.42,37.06,29.63,43.88
			c58.48,18.81,123.29-26.87,124.4-88.58c0.47-26.43,10.78-41.11,36.06-52.5c44.3-19.96,69.5-30.91,62.31-93.1
			c-4.3-37.26-10.57-74.32-17.21-111.25c-2.27-12.62-6.44-24.58,6.38-33.31c14.51-9.89,29.6-18.93,48.78-31.09
			c-2.04,25.69-3.24,46.48-5.44,67.17c-3.45,32.46-8.18,64.8-11.28,97.29c-4.07,42.73,8.54,65.48,48.11,79.43
			c23.57,8.31,30.49,22.66,31.13,45.51c0.71,25.29,2.46,50.91,7.47,75.63c8.65,42.67,35.46,54.34,74.27,33.73
			c20.52-10.9,40.22-23.41,59.9-35.8c14.86-9.35,21.42-22.98,18.87-40.84c-1.9-13.28,2.36-24.31,17.34-24.52
			c14.05-0.2,23.02,8.39,23.95,23.04c0.69,10.86-0.53,21.89,0.77,32.65c2.35,19.52,8.59,36.98,30.31,43.47
			c59.67,17.82,124.46-29.52,125.09-91.47c0.3-29.93,5.96-35.34,33.45-48.65c50.82-24.62,70.17-34.38,63.37-96.86
			c-3.98-36.52-10.4-72.83-17.19-108.97c-2.77-14.73-4.07-27.03,10.49-36.17C1190.77,367.45,1206.85,356.64,1223.64,345.68z"/>
		<path d="M1223.64,345.68c-16.8,10.97-32.87,21.77-49.27,32.06c-14.56,9.14-13.26,21.44-10.49,36.17
			c6.79,36.13,13.22,72.45,17.19,108.97c6.8,62.48-12.55,72.24-63.37,96.86c-27.48,13.31-33.14,18.72-33.45,48.65
			c-0.63,61.95-65.41,109.3-125.09,91.47c-21.72-6.49-27.96-23.94-30.31-43.47c-1.29-10.76-0.08-21.79-0.77-32.65
			c-0.93-14.65-9.9-23.24-23.95-23.04c-14.98,0.22-19.24,11.24-17.34,24.52c2.55,17.86-4.01,31.49-18.87,40.84
			c-19.69,12.39-39.38,24.9-59.9,35.8c-38.81,20.61-65.61,8.93-74.27-33.73c-5.01-24.73-6.76-50.35-7.47-75.63
			c-0.64-22.85-7.57-37.2-31.13-45.51c-39.57-13.95-52.18-36.7-48.11-79.43c3.1-32.49,7.83-64.83,11.28-97.29
			c2.2-20.69,3.4-41.48,5.44-67.17c-19.18,12.16-34.27,21.2-48.78,31.09c-12.82,8.73-8.65,20.69-6.38,33.31
			c6.65,36.93,12.91,74,17.21,111.25c7.18,62.19-18.02,73.14-62.31,93.1c-25.28,11.39-35.59,26.07-36.06,52.5
			c-1.1,61.7-65.92,107.39-124.4,88.58c-21.21-6.82-27.97-23.95-29.63-43.88c-0.9-10.83,0.09-21.82-0.84-32.65
			c-1.25-14.55-10.45-23.08-24.54-22.37c-14.42,0.73-19.25,11.37-17.39,24.84c2.88,20.86-6.58,34.52-24.26,44.41
			c-19.66,11-38.19,24.2-58.4,33.98c-35.54,17.2-60.68,5.98-68.7-32.33c-5.9-28.21-7.64-57.45-9.24-86.34
			c-1.07-19.27-8.99-29.92-27.12-36.96c-44.12-17.14-55.74-37.38-51.52-83.77c5.05-55.52,10.68-111.01,14.62-166.61
			c0.69-9.79-3.34-21.75-9.17-29.85c-20.35-28.25-41.96-55.66-64.02-82.62c-23.68-28.94-35.55-61.23-32.3-98.68
			c2.94-33.95,25.44-53.51,51.27-71.62c45.46-31.88,68.73-21.2,96.8,28.31c8.17,14.42,14.63,29.8,21.88,44.74
			c2.19-0.47,4.38-0.94,6.57-1.41c3.33-7.68,6.23-15.58,10.06-23c27.54-53.36,60.5-103.13,123.05-118.12
			c59.4-14.24,111.71-0.34,151.52,51.04c34.24,44.19,56.35,90.91,50.64,148.38c-0.84,8.43,7.26,25.49,9.48,25.2
			c13.67-1.78,27.88-5.66,39.65-12.63c4.36-2.58,5.64-16.48,3.19-23.41c-29.36-82.87,11.69-120.47,74.79-149
			c17.81-8.05,35.25,2.07,43.79,16.21c16.72,27.69,41.22,29.42,65.64,27.41c19.5-21.7,37.1-42.99,56.48-62.5
			c57.19-57.58,155.83-51.36,207.09,11.33c37.2,45.49,62.21,94.33,55.16,155.42c-0.9,7.8,6.85,23.82,9.11,23.56
			c13.62-1.6,27.64-5.27,39.75-11.62c5.11-2.68,9.61-14.55,8.05-20.62c-20.19-78.09,16.33-109.07,76.25-138.35
			c17.82-8.71,33.16,0.79,44.92,13.39c10.06,10.77,19.64,16.5,35.36,15.39c12.42-0.88,25.28,4.35,36.92,6.67
			c18.45-19.82,36.28-40.91,56.12-59.89c53.81-51.48,151.67-44.31,199.59,12.96c38.63,46.17,64.51,95.99,57.69,158.84
			c-2.63,24.23,10.57,32.42,32.54,21.64c11.32-5.56,21.76-14.5,30.16-24.04c15.95-18.12,31.58-34.33,55.74-43.47
			c11.12-4.21,20.74-22.48,23.62-35.95c5.05-23.6,18.48-32.05,40.12-35.43c35.2-5.5,66.11,0.14,92.16,26.63
			c13.28,13.49,17.47,27.67,11.96,45.38c-9.53,30.63-26.32,55.68-51.57,76.33c-14.74,12.06-28.25,27.44-37.5,43.99
			c-21.31,38.14-45.38,72.63-85.68,93.09c-15.61,7.92-19.29,19.37-15.72,37.79c8.24,42.45,13.68,85.52,18.51,128.53
			c5.18,46.13-29.24,63.89-63.22,77.67c-25.83,10.47-35.07,25.63-35.1,52.55c-0.08,60.69-70.92,108.49-127.36,87.42
			c-19.99-7.46-25.61-24.52-27.39-43.33c-1.02-10.81,0.24-21.83-0.76-32.65c-1.34-14.44-10.43-23.14-24.65-22.11
			c-14.23,1.03-19.28,11.38-16.89,25c3.35,19.11-5.48,32.34-20.78,41.92c-17.86,11.19-35.82,22.29-54.31,32.4
			c-43.2,23.62-71.98,9.88-79.55-38.82c-3.66-23.58-4.82-47.64-5.78-71.53c-0.83-20.92-7.8-34.47-29.52-42.24
			c-41-14.67-54.07-37.25-49.66-80.62c3.52-34.64,9.76-69.02,12.53-103.7C1225.28,397.7,1223.64,371.89,1223.64,345.68z
			 M1469.03,609.78c77.58,0.33,136.01-4.04,190.92-32.83c31.21-16.37,44.58-30.84,37.12-66.04c-6.73-31.75-16.15-63.02-26.04-93.97
			c-7.16-22.42,0.7-34.96,18.54-49.36c29.59-23.88,56.33-51.51,82.61-79.14c12.55-13.2,11.01-28.96-2.96-42.53
			c-14.05-13.64-28.46-23.1-47.88-9.75c-17.93,12.34-36.29,24.09-53.83,36.97c-15.89,11.67-31.69,19.21-52.46,13.28
			c-9.33-2.66-21.51-3.24-30.04,0.53c-37.53,16.58-73.71,10.22-110.24-2.38c-24.1-8.31-48.24-9.27-72.21,1.14
			c-37.69,16.37-54.23,12.24-83.34-16.85c-16.9-16.88-35.57-32.06-54.05-47.26c-13.02-10.71-22.68-4.22-25.56,9.55
			c-5.44,25.98-4.25,52.42,20.16,68.68c27.81,18.52,30.45,43.28,25.74,72.34c-6.83,42.15-13.19,84.38-19.13,126.66
			c-5.55,39.53,10.22,64.14,48.71,75.7c18.71,5.62,37.87,9.81,56.95,14.08C1410.12,597.14,1448.31,605.28,1469.03,609.78z
			 M596.4,252.29c-17.95,12.59-33.17,22.53-47.56,33.55c-16.33,12.51-32.71,20.49-54.34,13.52c-8.46-2.72-19.92-2.82-27.88,0.69
			c-38.22,16.85-75.22,10.32-112.42-2.53c-23.48-8.11-46.9-8.58-70.14,1.13c-40.77,17.04-54.92,13.22-86.18-18.65
			c-16.21-16.53-34.59-31.02-52.63-45.64c-11.88-9.63-20.29-3.87-24.87,8.67c-8.46,23.17-1.84,54.32,19.29,69.04
			c28.77,20.04,31.38,45.66,26.01,76.51c-7.44,42.79-13.57,85.83-19.1,128.91c-4.25,33.11,10.44,56.54,41.77,67.84
			c14.26,5.14,29.24,8.51,44.09,11.78c43.17,9.51,86.18,24.44,129.74,26.4c63.62,2.86,127.34-3.6,185.31-36.73
			c25.24-14.43,36.92-28.93,30.99-57.22c-6.51-31.08-15.13-61.76-23.94-92.3c-10.38-36-8.96-37.54,20.61-59.05
			c24.87-18.09,47.32-39.51,71.8-60.27C628.41,293.87,613.04,273.9,596.4,252.29z M1149.51,240.61
			c-16.08,11.34-30.7,20.9-44.48,31.54c-16.25,12.54-32.6,20.76-54.28,14.07c-8.57-2.64-19.96-3-27.95,0.47
			c-38.98,16.93-76.57,10.26-114.52-2.92c-23.45-8.14-46.94-7.84-70.1,2.19c-37.07,16.06-52.52,12.33-81.66-16.12
			c-17.12-16.71-35.64-32.04-53.97-47.46c-13.82-11.63-23.75-5.41-26.89,9.63c-5.27,25.23-4.18,51.42,19.35,66.97
			c29.81,19.69,31.09,46.07,26.18,76.42c-6.83,42.17-13.27,84.41-19.04,126.74c-4.75,34.84,10.57,59.16,44.06,70.54
			c14.37,4.89,29.27,8.39,44.11,11.71c41.74,9.35,83.32,24.21,125.44,26c65.17,2.78,130.41-3.85,189.52-37.87
			c23.75-13.67,34.94-29.39,28.9-56.53c-7.21-32.41-16.76-64.32-25.83-96.3c-8.44-29.78-5.91-34.07,19.03-52.49
			c25.41-18.76,48.98-39.99,74.99-61.49C1183.18,282.08,1167.27,262.48,1149.51,240.61z M367.92,178.87
			c7.13,24.19,10.37,44.59,19.04,62.35c12.97,26.57,50.78,30.46,61.67,6.76c25.19-54.77,26.68-95.63-21.88-141.88
			c-12.3-11.72-23.54-9.65-30.09,3.72C385.45,132.72,376.89,156.92,367.92,178.87z M1487.14,165.69c7,24.03,10.18,43.55,18.28,60.77
			c13.07,27.74,51.23,32.63,62.5,8.23c25.27-54.73,26.77-94.47-21.11-141.35c-11.38-11.15-23.21-11.57-30.16,2.41
			C1505.05,119.09,1496.21,143.8,1487.14,165.69z M1022.23,175.96c-1.91-38.88-18.32-65.51-44.37-85.8
			c-4.32-3.36-18.28-0.73-23.13,3.94c-30.56,29.46-36.58,103.91-9.49,137.02c8.3,10.15,25.59,16.99,39.03,17.44
			c8.03,0.27,19.83-13.4,24.16-23.31C1015.82,208.32,1018.68,189.41,1022.23,175.96z M775.93,638.26
			c-1.58,20.76-4.09,41.77-4.15,62.79c-0.01,5.11,7.08,13.08,12.52,14.86c20.3,6.68,37.29-3.96,42.83-24.88
			C835.6,659.07,818.88,639.83,775.93,638.26z M637.43,107.46c-29.94,15.68-41.75,65.58-22.61,92.41
			c7.36,10.32,20.53,9.75,28.26-1.23C661.95,171.85,660.24,139.32,637.43,107.46z M82.01,120.95
			c-28.79,14.57-40.29,54.5-24.98,86.55c2.52,5.27,9.64,11.16,14.96,11.49c5.31,0.33,12.76-4.72,16.29-9.57
			C108.02,182.32,104.57,158.14,82.01,120.95z M1339.79,637.36c-1.76,21.93-4.3,42.27-4.42,62.63c-0.03,5.4,6.21,13.69,11.5,15.77
			c20.12,7.9,39.72-4.18,44.16-25.54C1397.67,658.25,1382.93,641.1,1339.79,637.36z M209.79,693.94c1.95,0.91,3.89,1.83,5.84,2.74
			c-0.75,17.22-2.45,34.66,23.46,33.8c21.75-0.72,33.32-13.43,33.6-38.63c0.26-24.22-18.8-46.38-39.73-38.96
			C221.77,656.85,217.29,679.64,209.79,693.94z M1200.95,107.59c-30,16.22-41.45,67.05-22.04,92.99c7.33,9.79,20.85,8.59,28.1-2.51
			C1225.71,169.45,1223.87,138.87,1200.95,107.59z M1814.35,161.72c1.74,0.82,3.48,1.65,5.22,2.47c0,5.74-1.45,12,0.36,17.1
			c2.4,6.75,6.03,15.09,11.64,18.06c4.51,2.39,14.8-0.09,18.85-4.1c7.28-7.21,16.49-17.24,16.38-25.99
			c-0.16-12.87-6.34-26.49-13.05-38c-2.24-3.84-17.92-5.54-20.64-2.39C1825.05,138.28,1820.36,150.57,1814.35,161.72z
			 M424.41,706.32c7.82,7.25,15.66,20.53,23.45,20.5c16.25-0.06,20.55-15.26,21.48-29.97c0.91-14.43-7.3-23.02-20.23-22.67
			C432.92,674.6,428.18,687.17,424.41,706.32z M1024.94,680.58c1.28-10.64-6.31-19.43-19.59-19.56
			c-16.43-0.15-21.37,12.08-21.5,26.76c-0.13,13.59,3.83,26.9,18.91,26.48C1019.5,713.8,1023.68,699.07,1024.94,680.58z
			 M1543.93,680.88c3.09,19,6.28,33.17,22.64,33.25c15.33,0.07,20.21-13.6,21.84-27.68c1.75-15.08-5.29-26.2-19.23-24.78
			C1560.2,662.59,1552.31,674.11,1543.93,680.88z"/>
		<path class="st0" d="M1469.03,609.78c-20.72-4.5-58.91-12.64-97.01-21.17c-19.08-4.27-38.24-8.46-56.95-14.08
			c-38.5-11.56-54.27-36.17-48.71-75.7c5.94-42.28,12.3-84.52,19.13-126.66c4.71-29.07,2.08-53.82-25.74-72.34
			c-24.41-16.25-25.6-42.7-20.16-68.68c2.88-13.77,12.55-20.26,25.56-9.55c18.48,15.2,37.15,30.38,54.05,47.26
			c29.12,29.08,45.65,33.22,83.34,16.85c23.97-10.41,48.11-9.45,72.21-1.14c36.53,12.6,72.71,18.96,110.24,2.38
			c8.53-3.77,20.71-3.19,30.04-0.53c20.78,5.92,36.57-1.61,52.46-13.28c17.53-12.88,35.89-24.63,53.83-36.97
			c19.42-13.36,33.83-3.9,47.88,9.75c13.97,13.57,15.52,29.33,2.96,42.53c-26.28,27.63-53.02,55.26-82.61,79.14
			c-17.84,14.39-25.7,26.94-18.54,49.36c9.89,30.96,19.31,62.23,26.04,93.97c7.46,35.2-5.91,49.67-37.12,66.04
			C1605.04,605.75,1546.6,610.11,1469.03,609.78z"/>
		<path class="st0" d="M596.4,252.29c16.64,21.62,32.02,41.58,50.55,65.65c-24.49,20.77-46.93,42.18-71.8,60.27
			c-29.57,21.51-31,23.05-20.61,59.05c8.81,30.54,17.43,61.22,23.94,92.3c5.93,28.29-5.75,42.8-30.99,57.22
			c-57.96,33.13-121.69,39.59-185.31,36.73c-43.56-1.96-86.57-16.89-129.74-26.4c-14.85-3.27-29.83-6.63-44.09-11.78
			c-31.34-11.3-46.02-34.73-41.77-67.84c5.53-43.08,11.65-86.12,19.1-128.91c5.37-30.85,2.76-56.47-26.01-76.51
			c-21.13-14.72-27.74-45.87-19.29-69.04c4.58-12.54,12.99-18.3,24.87-8.67c18.04,14.62,36.42,29.12,52.63,45.64
			c31.26,31.87,45.4,35.69,86.18,18.65c23.24-9.71,46.66-9.24,70.14-1.13c37.2,12.84,74.21,19.38,112.42,2.53
			c7.96-3.51,19.42-3.42,27.88-0.69c21.63,6.97,38.01-1.02,54.34-13.52C563.23,274.82,578.45,264.87,596.4,252.29z"/>
		<path class="st0" d="M1149.51,240.61c17.76,21.87,33.68,41.47,52.87,65.1c-26.01,21.5-49.58,42.73-74.99,61.49
			c-24.94,18.42-27.47,22.71-19.03,52.49c9.07,31.98,18.61,63.89,25.83,96.3c6.04,27.14-5.15,42.86-28.9,56.53
			c-59.11,34.02-124.35,40.65-189.52,37.87c-42.11-1.79-83.69-16.65-125.44-26c-14.84-3.32-29.74-6.83-44.11-11.71
			c-33.49-11.38-48.81-35.71-44.06-70.54c5.77-42.33,12.21-84.57,19.04-126.74c4.91-30.35,3.64-56.73-26.18-76.42
			c-23.53-15.54-24.62-41.73-19.35-66.97c3.14-15.04,13.07-21.26,26.89-9.63c18.33,15.42,36.85,30.75,53.97,47.46
			c29.13,28.45,44.58,32.18,81.66,16.12c23.16-10.03,46.65-10.33,70.1-2.19c37.95,13.18,75.54,19.85,114.52,2.92
			c7.98-3.47,19.38-3.11,27.95-0.47c21.67,6.69,38.03-1.52,54.28-14.07C1118.81,261.51,1133.43,251.94,1149.51,240.61z"/>
		<path class="st0" d="M367.92,178.87c8.98-21.95,17.53-46.15,28.74-69.05c6.55-13.37,17.78-15.44,30.09-3.72
			c48.56,46.25,47.07,87.11,21.88,141.88c-10.89,23.69-48.7,19.8-61.67-6.76C378.28,223.46,375.05,203.06,367.92,178.87z"/>
		<path class="st0" d="M1487.14,165.69c9.07-21.88,17.91-46.6,29.52-69.95c6.95-13.98,18.77-13.56,30.16-2.41
			c47.88,46.88,46.38,86.62,21.11,141.35c-11.27,24.4-49.43,19.52-62.5-8.23C1497.32,209.24,1494.14,189.71,1487.14,165.69z"/>
		<path class="st0" d="M1022.23,175.96c-3.54,13.45-6.4,32.36-13.8,49.29c-4.33,9.91-16.13,23.58-24.16,23.31
			c-13.44-0.45-30.73-7.29-39.03-17.44c-27.09-33.11-21.07-107.56,9.49-137.02c4.84-4.67,18.81-7.3,23.13-3.94
			C1003.91,110.46,1020.32,137.09,1022.23,175.96z"/>
		<path class="st0" d="M775.93,638.26c42.95,1.57,59.67,20.8,51.21,52.78c-5.54,20.91-22.53,31.55-42.83,24.88
			c-5.44-1.79-12.53-9.75-12.52-14.86C771.84,680.03,774.34,659.03,775.93,638.26z"/>
		<path class="st0" d="M637.43,107.46c22.81,31.85,24.52,64.39,5.65,91.18c-7.73,10.98-20.9,11.55-28.26,1.23
			C595.68,173.04,607.5,123.15,637.43,107.46z"/>
		<path class="st0" d="M82.01,120.95c22.56,37.19,26.01,61.37,6.27,88.46c-3.53,4.85-10.98,9.9-16.29,9.57
			c-5.32-0.33-12.44-6.22-14.96-11.49C41.72,175.44,53.22,135.52,82.01,120.95z"/>
		<path class="st0" d="M1339.79,637.36c43.14,3.74,57.89,20.9,51.24,52.86c-4.44,21.36-24.04,33.44-44.16,25.54
			c-5.29-2.08-11.54-10.37-11.5-15.77C1335.49,679.63,1338.03,659.28,1339.79,637.36z"/>
		<path class="st0" d="M209.79,693.94c7.5-14.3,11.98-37.09,23.17-41.05c20.93-7.42,39.99,14.74,39.73,38.96
			c-0.27,25.2-11.85,37.91-33.6,38.63c-25.91,0.86-24.21-16.58-23.46-33.8C213.68,695.77,211.74,694.85,209.79,693.94z"/>
		<path class="st0" d="M1200.95,107.59c22.92,31.28,24.76,61.86,6.06,90.49c-7.25,11.09-20.77,12.3-28.1,2.51
			C1159.5,174.63,1170.95,123.8,1200.95,107.59z"/>
		<path class="st0" d="M1814.35,161.72c6.01-11.16,10.69-23.44,18.77-32.84c2.71-3.15,18.4-1.45,20.64,2.39
			c6.71,11.51,12.89,25.13,13.05,38c0.11,8.75-9.1,18.78-16.38,25.99c-4.05,4.01-14.34,6.49-18.85,4.1
			c-5.6-2.97-9.24-11.31-11.64-18.06c-1.81-5.1-0.36-11.36-0.36-17.1C1817.84,163.37,1816.1,162.55,1814.35,161.72z"/>
		<path class="st0" d="M424.41,706.32c3.77-19.16,8.5-31.72,24.7-32.15c12.92-0.35,21.13,8.24,20.23,22.67
			c-0.92,14.71-5.23,29.91-21.48,29.97C440.08,726.85,432.23,713.57,424.41,706.32z"/>
		<path class="st0" d="M1024.94,680.58c-1.25,18.49-5.43,33.21-22.19,33.68c-15.08,0.42-19.03-12.89-18.91-26.48
			c0.14-14.68,5.07-26.91,21.5-26.76C1018.63,661.15,1026.22,669.94,1024.94,680.58z"/>
		<path class="st0" d="M1543.93,680.88c8.38-6.77,16.27-18.29,25.25-19.21c13.94-1.42,20.98,9.71,19.23,24.78
			c-1.63,14.08-6.52,27.76-21.84,27.68C1550.21,714.06,1547.02,699.88,1543.93,680.88z"/>
	</g>
</g>
</svg>
