<?xml version="1.0" encoding="utf-8"?>
<!-- Generator: Adobe Illustrator 23.1.0, SVG Export Plug-In . SVG Version: 6.00 Build 0)  -->
<svg version="1.1" id="Calque_1" xmlns="http://www.w3.org/2000/svg" xmlns:xlink="http://www.w3.org/1999/xlink" x="0px" y="0px"
	 viewBox="0 0 595.28 604.41" style="enable-background:new 0 0 595.28 604.41;" xml:space="preserve">
<style type="text/css">
	.st0{fill:#FFFFFF;}
</style>
<g>
	<g>
		<path class="st0" d="M252.05,510.51c-0.47-0.09-0.94-0.18-1.41-0.28c0-3.82-0.05-7.63,0.01-11.45c0.06-3.42,0.82-4.68,5.13-3.9
			c7.17,1.31,14.7,1.96,21.92,1.25c5.61-0.55,7.4,1.47,8.1,6.1c2.03,13.62,3.98,27.25,6.03,40.86c1.69,11.24,2.14,22.9,5.53,33.61
			c5.29,16.72,20.54,22.27,35.77,25.45c10.72,2.24,22.02,2.02,33.08,2.24c11.74,0.23,20.64-6.56,23.22-18.14
			c1.58-7.09,1.47-14.56,2.12-21.86c1.31-14.64,2.35-29.31,4.06-43.9c0.87-7.43,3.05-14.7,4.47-22.08c0.54-2.8,1.07-5.74,0.74-8.52
			c-0.43-3.61-0.77-6.33,3.72-7.71c11.93-3.68,24.46-6.08,34.2-14.85c14.23-12.81,28.6-25.46,42.67-38.44
			c6.17-5.69,10.93-13.33,17.84-17.64c4.84-3.02,5.1-5.5,3.95-9.5c-0.84-2.94-2.59-5.61-3.65-8.51
			c-6.01-16.38-13.9-32.37-17.44-49.27c-6.09-29.08,4.67-55.2,21.57-78.19c14.13-19.21,30.4-36.86,45.92-55.03
			c3.34-3.91,7.24-7.43,11.29-10.62c10.49-8.25,11.03-12.65,2.65-23.99c-1.31-1.77-1.69-4.21-2.96-6.02
			c-2.45-3.49-0.19-4.29,2.49-5.37c16.8-6.78,24.86-20.38,29-37.13c4.44-17.95-0.87-31.91-14.68-44.39
			c-16.07-14.52-33.12-23.81-55.25-18.45c-5.14,1.24-9.68,4.78-14.69,6.77c-8.94,3.54-14.01,9.93-16.25,19.21
			c-1.33,5.5-2.4,12.13-11.21,9.78c-1.42-0.38-3.65,0.83-5,1.92c-9.88,8.01-19.97,15.8-29.33,24.38
			c-13.21,12.12-28.89,19.82-44.99,26.95c-1.43,0.63-3.18,0.52-4.79,0.76c-0.19-1.78-0.79-3.63-0.49-5.32
			c1.37-7.7,3.5-15.29,4.41-23.04c1.16-9.88,2.65-20,1.69-29.78c-0.86-8.73-5.04-17.1-7.44-25.72
			c-5.33-19.19-16.32-34.18-31.07-47.59C343.11,5.05,320.08-1.7,294.3,0.36c-8.88,0.71-18.27,3.99-25.93,8.59
			c-8.82,5.3-16.14,13.18-23.83,20.25c-15.02,13.83-23.82,31.58-27.72,51.08c-5.03,25.14,3.92,48.09,14.9,70.24
			c1.98,3.99,5.96,8.01,5.72,11.82c-0.39,6.27-7.84,3.48-11.26,5.74c-12.92,8.54-23.39,2.55-33.19-4.93
			c-12.65-9.67-24.62-20.24-36.74-30.59c-9.75-8.33-19.12-17.11-28.96-25.32c-8.89-7.41-17.54-14.73-24.16-24.59
			c-4.24-6.32-10.2-12.37-16.79-16.04c-14.66-8.18-30.28-9.17-46.61-3.42C20.36,70.01,6.09,81.58,1.02,101.93
			c-1.73,6.94-0.75,14.62-0.64,21.95c0.17,11.81,6.13,19.83,15.06,27.61c7.93,6.91,19.62,9.39,23.27,22.56
			c2.48,8.93,11.6,16.01,17.71,23.95c4.04,5.25,9.12,10.05,11.78,15.94c10.21,22.55,19.2,45.68,20.79,70.71
			c0.7,11.06,0.7,22.46-1.23,33.31c-2.22,12.49-6.89,24.55-10.54,36.78c-1.56,5.22-4.46,10.36-4.64,15.62
			c-0.64,18.24-3.7,36.65,7.23,53.78c7.64,11.97,14.12,24.25,29.23,28.13c3.21,0.82,6.45,1.72,9.48,3.05
			c9.27,4.05,18.6,7.27,18.49,20.79c-0.08,10.32,3.42,20.61,4.44,31c1.66,16.94,2.53,33.96,3.86,50.94
			c0.62,7.98-0.42,16.83,2.75,23.69c4.7,10.18,14.28,16.72,25.92,17.8c17.25,1.59,34.71,3.17,50.21-7.56
			c0.38-0.27,0.85-0.44,1.29-0.59c11.78-4.19,15.37-9.44,16.52-22.19c0.68-7.54,2.33-14.99,3.63-22.47
			C247.73,534.65,249.9,522.58,252.05,510.51z"/>
		<path d="M250.7,512.09c-2.14,12.07-2.97,22.86-5.07,34.94c-1.3,7.48-2.96,14.93-3.63,22.47c-1.15,12.75-4.74,18-16.52,22.19
			c-0.45,0.16-0.91,0.33-1.29,0.59c-15.49,10.73-32.95,9.15-50.21,7.56c-11.64-1.07-21.22-7.62-25.92-17.8
			c-3.17-6.86-2.13-15.71-2.75-23.69c-1.32-16.98-2.2-33.99-3.86-50.94c-1.02-10.39-4.53-20.69-4.44-31
			c0.11-13.52-9.23-16.73-18.49-20.79c-3.03-1.32-6.27-2.22-9.48-3.05c-15.11-3.87-21.59-16.16-29.23-28.13
			c-10.93-17.13-7.87-35.54-7.23-53.78c0.18-5.25,3.08-10.39,4.64-15.62c3.65-12.23,8.32-24.29,10.54-36.78
			c1.92-10.85,1.93-22.25,1.23-33.31c-1.59-25.03-10.58-48.16-20.79-70.71c-2.67-5.89-7.75-10.69-11.78-15.94
			c-6.11-7.94-15.23-15.02-17.71-23.95c-3.65-13.18-15.34-15.65-23.27-22.56c-8.93-7.78-14.9-15.81-15.06-27.61
			c-0.1-7.34-1.09-15.01,0.64-21.95c5.07-20.35,19.35-31.92,38.73-38.74c16.33-5.75,31.96-4.76,46.61,3.42
			c6.58,3.68,12.55,9.72,16.79,16.04c6.61,9.86,15.27,17.18,24.16,24.59c9.84,8.21,19.21,16.99,28.96,25.32
			c12.12,10.35,24.09,20.92,36.74,30.59c9.79,7.48,20.27,13.47,33.19,4.93c3.42-2.26,7.48-0.2,11.26-5.74
			c2.15-3.15-3.75-7.84-5.72-11.82c-10.98-22.15-19.93-45.11-14.9-70.24c3.9-19.5,12.7-37.25,27.72-51.08
			c7.68-7.07,15.01-14.96,23.83-20.25c7.66-4.6,17.05-7.88,25.93-8.59c25.78-2.06,48.81,4.69,68.69,22.76
			c14.75,13.42,25.74,28.4,31.07,47.59c2.39,8.62,6.58,16.99,7.44,25.72c0.96,9.79-0.53,19.9-1.69,29.78
			c-0.91,7.74-3.04,15.34-4.41,23.04c-0.3,1.69,0.3,3.54,0.49,5.32c1.6-0.23,3.36-0.12,4.79-0.76c16.1-7.12,31.78-14.83,44.99-26.95
			c9.36-8.58,19.45-16.38,29.33-24.38c1.35-1.1,3.58-2.3,5-1.92c8.81,2.35,9.88-4.28,11.21-9.78c2.24-9.29,7.31-15.67,16.25-19.21
			c5.01-1.99,9.55-5.52,14.69-6.77c22.12-5.36,39.17,3.93,55.25,18.45c13.82,12.48,19.12,26.44,14.68,44.39
			c-4.14,16.75-12.2,30.35-29,37.13c-2.67,1.08-4.93,1.88-2.49,5.37c1.27,1.81,1.66,4.25,2.96,6.02
			c8.39,11.34,7.84,15.74-2.65,23.99c-4.05,3.18-7.95,6.71-11.29,10.62c-15.51,18.18-31.79,35.82-45.92,55.03
			c-16.9,22.99-27.66,49.11-21.57,78.19c3.54,16.9,11.43,32.9,17.44,49.27c1.06,2.89,2.81,5.56,3.65,8.51
			c1.14,4.01,0.89,6.48-3.95,9.5c-6.92,4.32-11.68,11.95-17.84,17.64c-14.07,12.98-28.44,25.63-42.67,38.44
			c-9.74,8.77-22.27,11.17-34.2,14.85c-4.49,1.38-4.15,4.1-3.72,7.71c0.33,2.77-0.2,5.72-0.74,8.52
			c-1.42,7.38-3.59,14.65-4.47,22.08c-1.71,14.59-2.75,29.26-4.06,43.9c-0.65,7.3-0.54,14.77-2.12,21.86
			c-2.58,11.57-11.49,18.37-23.22,18.14c-11.06-0.22-22.36,0-33.08-2.24c-15.24-3.18-30.49-8.73-35.77-25.45
			c-3.39-10.72-3.84-22.37-5.53-33.61c-2.05-13.61-3.99-27.24-6.03-40.86c-0.69-4.63-2.48-6.65-8.1-6.1
			c-7.22,0.7-14.75,0.06-21.92-1.25c-4.31-0.79-5.08,0.48-5.13,3.9c-0.06,3.81-0.01,7.63-0.01,11.45
			C250.61,511.51,250.61,511.51,250.7,512.09z M373.11,467.29c7.62-2.21,21.65-3.87,33.16-10.15c18.26-9.95,35.06-22.67,52.04-34.83
			c9.99-7.15,10.33-11.65,6.16-23.37c-2.61-7.35-4.26-15.06-6.01-22.69c-3.82-16.63-6.74-33.51-11.33-49.92
			c-4.94-17.67-0.48-34.16,3.76-50.89c0.06-0.22,0.25-0.4,0.39-0.6c11.97-16.45,23.15-33.57,36.15-49.16
			c12.61-15.12,27.11-28.68,40.77-42.92c6.62-6.9,6.65-8.24-0.02-15c-12.45-12.63-24.88-25.27-37.53-37.69
			c-0.75-0.74-3.95-0.18-5.06,0.83c-7.36,6.68-13.79,14.6-21.79,20.35c-21.04,15.12-43.25,28.32-67.98,36.82
			c-4.37,1.5-9.61,3.7-11.96,7.23c-7.2,10.8-13.19,21.91-24.75,29.53c-12.59,8.3-25.24,13.35-40.15,9.83
			c-7.6-1.8-14.84-5.12-22.37-7.29c-18.54-5.35-30.18-19.17-40.72-33.83c-3.04-4.22-5.28-4.78-9.68-4.16
			c-12.53,1.76-25.11,3.14-37.68,4.58c-3.02,0.35-6.23,0.99-9.11,0.37c-16.36-3.52-30.49-12.15-43.05-22.46
			c-14.01-11.5-26.44-24.92-39.51-37.55c-2.63-2.54-4.91-4.34-8.2-0.63c-2.64,2.97-6.06,5.23-8.84,8.08
			c-9.06,9.31-18.11,18.65-26.82,28.28c-0.97,1.07-0.57,4.78,0.56,6.12c7.93,9.37,16.22,18.42,24.36,27.6
			c0.78,0.88,1.64,2.06,1.85,2.95c2.21,9.33,5.8,16.27,7.43,24.58c3.18,16.18,7.17,32.62,7.07,48.92
			c-0.14,21.71-2.87,43.56-6.37,65.05c-2.73,16.75-8.6,32.97-12.58,49.55c-3.33,13.92-0.33,21.43,16.46,28.34
			c2.8,1.15,7.13,2.55,7.64,4.61c2.11,8.5,9.52,8.92,15.47,11.2c10.11,3.89,20.67,6.64,30.73,10.66c23.82,9.52,48.73,14.21,74,17.21
			c12.72,1.51,25.55,2.72,38.34,2.74c14,0.03,27.99-1.83,42-2.2C335.77,466.97,351.6,467.29,373.11,467.29z M372.05,104.65
			c-1.56-10.06-1.19-19.93-4.77-28.07c-6.65-15.1-13.96-30.36-28.11-40.49c-9.06-6.49-17.91-14.24-30.34-10.84
			c-7.08,1.94-14.28,4.15-20.72,7.55c-6.6,3.49-13.53,7.61-18.22,13.21c-8.69,10.39-16.72,20.98-21.21,34.77
			c-4.1,12.58-4.45,24.65-0.17,35.41c10.37,26.07,25.3,49.97,42.29,72.31c5.59,7.35,13.85,12.64,20.7,19.07
			c8.51,7.98,21.15,7.98,29.84,0.61c13.38-11.34,18.26-27.56,22.15-43C368.5,145.31,369.45,124.41,372.05,104.65z M347.05,493.58
			c-0.06-0.41-0.12-0.83-0.18-1.24c-10.43,0.55-20.88,0.91-31.28,1.84c-1.57,0.14-4.26,3.04-4.15,4.49
			c1.35,17.21,1.89,34.63,5.28,51.47c1.92,9.52,6.79,20.13,13.75,26.55c9.02,8.31,22.23,8.81,34.52,6.3
			c1.89-0.39,4.36-3.53,4.57-5.6c0.73-7.28,0.24-14.67,0.86-21.97c1.69-19.94,3.34-39.91,9.34-59.19c0.67-2.14,0.45-4.56,0.64-6.85
			c-2.47-0.02-5-0.36-7.42,0C364.32,490.65,355.69,492.16,347.05,493.58z M178.39,563.24c-0.87,0.25-1.74,0.5-2.6,0.76
			c1.66,3.97,2.27,9.5,5.25,11.53c3.79,2.58,9.52,3.12,14.41,3.14c10.26,0.05,20.26-1.37,23.94-13.38
			c2.97-9.71,6.29-19.35,8.44-29.25c1.26-5.78,1.01-12.02,0.58-18c-0.55-7.77-3.01-15.72,1.63-22.87c2.88-4.44,1.09-4.87-2.88-5.67
			c-11.85-2.38-23.66-4.99-35.41-7.86c-7.15-1.75-14.11-4.24-21.23-6.09c-0.84-0.22-3.21,1.62-3.16,2.38
			c0.6,8.51,1.27,17.02,2.42,25.47C172.51,523.36,175.5,543.29,178.39,563.24z M25.53,118.31c-0.08,12.96,10.58,27.32,21.05,28.42
			c4.78,0.5,11.13,2.02,15.58-3.8c4.88-6.38,10.1-12.91,16.47-17.63c8.77-6.5,11.45-13.76,8.97-24.23
			c-1.86-7.84-7.88-15.68-14.93-16.76c-19.12-2.94-32.49,3.86-41.48,21.34C28.73,110.44,26.78,115.5,25.53,118.31z M565.78,124.8
			c-0.33-12.81-14.28-32.24-24.78-36.29c-8.2-3.16-16.05-1.31-21.4,5.71c-3.99,5.23-7.69,10.77-10.77,16.57
			c-1.04,1.97-0.85,6.17,0.56,7.61c10.42,10.67,21.21,21,32.13,31.17c1.34,1.25,4.85,2.09,6.07,1.25
			C557.38,144.08,562.39,134.02,565.78,124.8z"/>
		<path class="st0" d="M373.11,466.99c-21.51,0-37.34-0.32-53.16,0.1c-14.01,0.37-28.01,2.23-42,2.2
			c-12.79-0.03-25.62-1.23-38.34-2.74c-25.27-3-50.18-7.69-74-17.21c-10.06-4.02-20.62-6.77-30.73-10.66
			c-5.95-2.29-6.94-0.65-15.7-7.87c-3.78-2.25-8.25-6.06-10.64-7.45c-12.35-8.37-16.56-14.91-13.23-28.83
			c3.97-16.58,9.85-32.8,12.58-49.55c3.5-21.49,6.23-43.34,6.37-65.05c0.1-16.31-3.89-32.74-7.07-48.92
			c-1.63-8.31-5.69-15.56-7.11-20.35c-0.25-0.85-1.4-6.3-2.17-7.18c-8.14-9.18-16.44-18.24-24.36-27.6
			c-1.13-1.33-1.53-5.05-0.56-6.12c8.71-9.63,17.76-18.97,26.82-28.28c2.78-2.86,6.2-5.12,8.84-8.08c3.29-3.71,5.57-1.91,8.2,0.63
			c13.07,12.63,25.5,26.06,39.51,37.55c12.56,10.31,26.69,18.93,43.05,22.46c2.88,0.62,6.08-0.02,9.11-0.37
			c12.57-1.44,25.15-2.81,37.68-4.58c4.4-0.62,6.64-0.07,9.68,4.16c10.54,14.66,22.19,28.48,40.72,33.83
			c7.53,2.18,14.76,5.49,22.37,7.29c14.9,3.52,27.55-1.53,40.15-9.83c11.56-7.62,17.56-18.74,24.75-29.53
			c2.35-3.53,7.59-5.73,11.96-7.23c24.74-8.5,46.94-21.7,67.98-36.82c8-5.75,14.42-13.66,21.79-20.35c1.11-1.01,4.31-1.57,5.06-0.83
			c12.65,12.42,25.09,25.06,37.53,37.69c6.67,6.77,6.64,8.1,0.02,15c-13.67,14.24-28.16,27.8-40.77,42.92
			c-13,15.59-24.18,32.71-36.15,49.16c-0.14,0.19-0.33,0.38-0.39,0.6c-4.25,16.73-8.7,33.22-3.76,50.89
			c4.59,16.41,7.5,33.29,11.33,49.92c1.75,7.62,3.4,15.34,6.01,22.69c4.17,11.73,3.83,16.22-6.16,23.37
			c-16.98,12.16-33.78,24.88-52.04,34.83C394.76,463.12,380.73,464.79,373.11,466.99z"/>
		<path class="st0" d="M372.05,104.35c-2.6,19.76-3.55,40.67-8.56,60.55c-3.89,15.44-8.78,31.66-22.15,43
			c-8.69,7.37-21.33,7.37-29.84-0.61c-6.86-6.43-15.11-11.72-20.7-19.07c-16.99-22.34-31.92-46.24-42.29-72.31
			c-4.28-10.76-3.93-22.83,0.17-35.41c4.49-13.78,12.52-24.38,21.21-34.77c4.69-5.6,11.62-9.72,18.22-13.21
			c6.45-3.41,13.64-5.62,20.72-7.55c12.43-3.4,21.28,4.35,30.34,10.84c14.14,10.12,21.46,25.39,28.11,40.49
			C370.86,84.42,370.49,94.29,372.05,104.35z"/>
		<path class="st0" d="M349.81,491.34c8.64-1.42,14.51-0.99,23.17-2.26c2.42-0.36,4.94-0.02,7.42,0c-0.19,2.29,0.03,4.71-0.64,6.85
			c-6,19.28-7.65,39.25-9.34,59.19c-0.62,7.3-0.13,14.69-0.86,21.97c-0.21,2.07-2.68,5.22-4.57,5.6c-12.3,2.51-25.5,2.01-34.52-6.3
			c-6.96-6.41-11.83-17.02-13.75-26.55c-3.39-16.84-3.93-34.26-5.28-51.47c-0.11-1.45,2.58-4.35,4.15-4.49
			c10.4-0.93,20.85-1.29,31.28-1.84C347.94,491.93,348.82,491.51,349.81,491.34z"/>
		<path class="st0" d="M175.16,560.29c-2.88-19.94-2.64-37.22-5.37-57.19c-1.15-8.45-1.83-16.96-2.42-25.47
			c-0.05-0.76,2.32-2.6,3.16-2.38c7.13,1.85,14.09,4.34,21.23,6.09c11.74,2.87,23.56,5.48,35.41,7.86c3.97,0.8,5.76,1.23,2.88,5.67
			c-4.64,7.15-2.18,15.1-1.63,22.87c0.43,5.98,0.68,12.22-0.58,18c-2.15,9.89-5.47,19.54-8.44,29.25
			c-3.68,12.01-13.69,13.43-23.94,13.38c-4.9-0.02-10.62-0.56-14.41-3.14c-2.98-2.03-3.59-7.56-5.25-11.53
			C175.25,561.51,175.25,561.51,175.16,560.29z"/>
		<path class="st0" d="M25.53,118.02c1.25-2.82,3.2-7.87,5.66-12.67c8.98-17.48,22.36-24.28,41.48-21.34
			c7.05,1.08,13.07,8.93,14.93,16.76c2.49,10.47-0.2,17.74-8.97,24.23c-6.37,4.72-11.59,11.25-16.47,17.63
			c-4.45,5.82-10.8,4.3-15.58,3.8C36.11,145.34,25.46,130.98,25.53,118.02z"/>
		<path class="st0" d="M565.78,124.5c-3.39,9.22-8.4,19.28-18.19,26.01c-1.22,0.84-4.73,0-6.07-1.25
			c-10.91-10.18-21.7-20.5-32.13-31.17c-1.41-1.44-1.61-5.64-0.56-7.61c3.08-5.8,6.78-11.33,10.77-16.57
			c5.35-7.02,13.2-8.87,21.4-5.71C551.5,92.26,565.45,111.69,565.78,124.5z"/>
	</g>
</g>
</svg>
