<?xml version="1.0" encoding="utf-8"?>
<!-- Generator: Adobe Illustrator 23.1.0, SVG Export Plug-In . SVG Version: 6.00 Build 0)  -->
<svg version="1.1" id="Calque_1" xmlns="http://www.w3.org/2000/svg" xmlns:xlink="http://www.w3.org/1999/xlink" x="0px" y="0px"
	 viewBox="0 0 1920 952.82" style="enable-background:new 0 0 1920 952.82;" xml:space="preserve">
<style type="text/css">
	.st0{fill:#FFFFFF;}
</style>
<g>
	<g>
		<path class="st0" d="M1884.71,309.71c6.75-1.58,13.6-2.97,20.33-4.81c6.65-1.81,11.84-5.68,12.6-13
			c0.62-5.87,0.75-11.88,0.21-17.75c-1.91-20.81-3.77-41.64-6.51-62.35c-1.63-12.29-4.9-24.25-11.31-35.27
			c-4.5-7.73-16.84-11.03-22.92-9.16c-7.63,2.35-15.01,5.54-22.85,8.51c-4.21-3.5-8.96-7.53-13.8-11.44
			c-14.75-11.93-29.68-23.64-44.26-35.77c-17.65-14.68-37.57-24.73-59.82-30.01c-10.28-2.43-20.7-4.6-31.18-5.76
			c-15.72-1.75-31.56-2.49-47.34-3.72c-9.28-0.73-18.54-1.83-27.83-2.33c-15.01-0.81-30.06-1.12-45.07-1.92
			c-9.74-0.52-19.45-1.65-29.19-2.29c-18.54-1.21-37.07-2.65-55.63-3.23c-9.68-0.3-18.4-0.71-20.9-12.44
			c-0.07-0.31-0.7-0.45-0.93-0.78c-6.02-8.46-13.9-11.4-24.51-11.51c-21.89-0.24-43.76-2.35-65.65-3.39
			c-15.85-0.76-31.73-0.93-47.59-1.56c-18.37-0.72-36.72-1.64-55.08-2.49c-19.19-0.89-38.39-1.72-57.57-2.73
			c-9.72-0.51-19.47-2.28-29.11-1.76c-7.62,0.41-15.95,1.96-22.47,5.65c-13.56,7.68-28.07,10.94-43.1,11.99
			c-9.63,0.68-19.41-0.69-29.11-1.29c-6.77-0.42-13.52-1.27-20.3-1.62c-15.89-0.82-31.78-1.5-47.68-2.13
			c-9.35-0.37-18.7-0.64-28.06-0.79c-16.3-0.25-32.61-0.23-48.9-0.61c-8.3-0.19-16.57-1.22-24.87-1.45
			c-8.23-0.24-16.49,0.36-24.71,0c-7.03-0.3-14.19-0.73-20.99-2.36c-12.24-2.94-18.78-12.24-22.98-23.37
			c-1.92-5.09-5.56-7.74-10.64-8.36c-13.94-1.71-27.9-3.19-41.86-4.77c-16.87-1.9-33.74-3.86-50.63-5.69
			c-6.56-0.71-13.14-1.33-19.73-1.68c-14.33-0.74-28.69-1.05-43.01-1.98c-9.91-0.64-19.76-2.14-29.65-3.05
			c-6.99-0.64-14.03-1.44-21.02-1.25c-15.68,0.43-31.36,1.09-46.99,2.35c-9.68,0.78-19.24,3.08-28.9,4.3
			c-14.87,1.87-29.75,3.84-44.69,4.89c-9.46,0.66-19.03-0.22-28.54-0.5c-15.44-0.45-30.87-1.12-46.31-1.41
			c-9.31-0.17-18.72-0.48-27.93,0.58c-7.32,0.85-14.8,2.81-21.51,5.83c-14.47,6.51-28.54,13.93-42.68,21.16
			c-11.59,5.93-23.04,12.15-34.57,18.2c-19.04,10-38.14,19.86-57.12,29.98c-12.05,6.42-23.9,13.19-35.85,19.8
			c-21.56,11.94-43.22,23.71-64.66,35.86c-15.81,8.96-31.35,18.41-47.01,27.65c-12.1,7.14-24.31,14.09-36.25,21.49
			c-14.78,9.16-29.46,18.5-43.93,28.15c-8.26,5.51-16.99,10.87-23.71,18c-6.99,7.42-11.89,16.84-17.51,25.51
			c-0.79,1.23-0.61,3.19-0.62,4.81c-0.14,13.63-0.3,27.26-0.31,40.89c-0.01,16.19,0.05,32.38,0.24,48.56
			c0.09,7.46,0.58,14.92,0.89,22.38c0.42,9.96,0.95,19.91,1.25,29.87c0.25,8.29,0.06,16.6,0.38,24.89
			c0.62,15.91,1.65,31.8,2.19,47.7c0.52,15.36,0.41,30.73,0.96,46.09c0.76,21.14,2.03,42.27,2.81,63.41
			c0.66,17.96,0.92,35.94,1.35,53.91c0.48,20.13,1.15,40.26,1.36,60.4c0.17,16.04,3.42,31.46,9.34,46.17
			c2.89,7.19,7.12,14.21,12.15,20.1c12.6,14.74,28.45,25.2,46.9,31.33c9.04,3,18.4,5,27.47,7.92c6.15,1.98,12.59,3.93,17.93,7.4
			c9.32,6.04,17.76,13.42,26.82,19.9c11.14,7.97,23.76,11.93,37.35,13.53c16.8,1.97,32.25-2.28,46.6-10.19
			c9.54-5.26,18.08-12.32,27.14-18.46c1.67-1.13,3.65-2.27,5.58-2.46c7.86-0.8,15.71-5.09,23.67-0.23c0.78,0.48,2.05,0.17,3.09,0.22
			c8.05,0.39,16.39-0.45,24.08,1.41c18.21,4.41,34.54,12.78,46.72,27.68c5.11,6.25,9.82,12.82,14.99,19
			c1.94,2.32,4.44,4.43,7.1,5.87c14.39,7.78,29.69,9.51,45.98,8.31c16.67-1.22,31.66-5.29,44.57-16.26
			c9.15-7.77,18.52-15.31,28.07-22.59c3.5-2.67,7.78-6.05,11.73-6.08c9.65-0.1,19.34,1.34,28.96,2.58
			c16.37,2.1,32.69,4.58,49.05,6.77c6.73,0.9,13.5,1.52,20.27,2.18c15.79,1.54,31.59,3,47.38,4.55c9.04,0.89,18.06,2.07,27.11,2.8
			c21.15,1.7,42.32,3.14,63.46,4.84c10.57,0.85,21.1,2.2,31.67,3.04c14.77,1.18,29.56,1.99,44.33,3.17
			c9.93,0.8,19.8,2.16,29.73,2.93c20.93,1.62,41.88,2.91,62.8,4.55c11.16,0.88,22.27,2.41,33.43,3.28c14.32,1.12,28.68,1.7,43,2.82
			c10.14,0.79,20.25,2.11,30.37,3.17c6.98,0.73,13.96,1.54,20.95,2.11c16.04,1.31,32.1,2.43,48.14,3.76
			c8.65,0.72,17.26,1.79,25.9,2.54c6.99,0.6,14.01,1.51,20.99,1.29c12.78-0.39,23.2,4.6,29.11,15.3
			c5.49,9.95,12.47,18.4,20.96,25.15c7.63,6.07,16.62,11.38,25.87,14.22c14.57,4.49,29.75,6.01,45.19,2.42
			c12.17-2.83,23.26-6.94,33.94-13.87c11.77-7.63,20.4-17.56,28-28.76c2.72-4,5.95-4.59,10.1-4.02c6.15,0.83,12.35,1.37,18.47,2.39
			c19.92,3.33,39.93,4.28,59.86,0.91c9.95-1.68,20.31-3.59,29.27-7.93c20.26-9.8,39.62-21.45,59.62-31.8
			c20.98-10.86,42.43-20.81,63.37-31.75c9.31-4.86,18-10.95,26.72-16.85c14.04-9.49,27.53-19.85,41.92-28.76
			c10.99-6.8,23.05-11.85,34.56-17.81c16.51-8.55,32.95-17.21,49.42-25.83c0.74-0.39,1.5-0.76,2.21-1.19
			c15.35-9.27,30.68-18.58,46.06-27.8c9.07-5.44,18.33-10.59,27.34-16.13c21.49-13.22,43.01-26.38,64.24-40
			c8.81-5.66,18.08-11.38,24.98-19.03c6.19-6.86,11.11-15.94,13.56-24.87c3.76-13.72,2.75-28.04,0.69-42.33
			c-2.68-18.67-4.3-37.52-5.63-56.34c-1.58-22.4-2.35-44.86-3.48-67.29c-0.37-7.46-0.61-14.93-1.17-22.37
			c-1.12-14.83-2.57-29.64-3.59-44.48c-0.64-9.33-0.62-18.71-1.16-28.05c-0.48-8.23-1.57-16.43-1.93-24.66
			C1884.44,324.6,1884.71,316.95,1884.71,309.71z"/>
		<path d="M1884.71,309.71c0,7.24-0.27,14.89,0.07,22.52c0.36,8.23,1.45,16.43,1.93,24.66c0.54,9.34,0.51,18.72,1.16,28.05
			c1.02,14.84,2.47,29.65,3.59,44.48c0.56,7.44,0.8,14.91,1.17,22.37c1.13,22.43,1.9,44.89,3.48,67.29
			c1.32,18.82,2.94,37.68,5.63,56.34c2.06,14.29,3.07,28.61-0.69,42.33c-2.45,8.93-7.37,18-13.56,24.87
			c-6.9,7.65-16.16,13.37-24.98,19.03c-21.23,13.62-42.75,26.78-64.24,40c-9.01,5.54-18.26,10.69-27.34,16.13
			c-15.38,9.22-30.7,18.53-46.06,27.8c-0.72,0.43-1.47,0.8-2.21,1.19c-16.47,8.62-32.91,17.29-49.42,25.83
			c-11.51,5.96-23.58,11.01-34.56,17.81c-14.39,8.91-27.88,19.27-41.92,28.76c-8.73,5.9-17.42,11.99-26.72,16.85
			c-20.94,10.93-42.39,20.88-63.37,31.75c-20,10.36-39.36,22.01-59.62,31.8c-8.96,4.33-19.32,6.25-29.27,7.93
			c-19.93,3.36-39.94,2.42-59.86-0.91c-6.12-1.02-12.32-1.56-18.47-2.39c-4.15-0.56-7.39,0.02-10.1,4.02
			c-7.6,11.2-16.22,21.12-28,28.76c-10.69,6.93-21.78,11.04-33.94,13.87c-15.44,3.59-30.62,2.07-45.19-2.42
			c-9.25-2.85-18.24-8.15-25.87-14.22c-8.49-6.76-15.47-15.21-20.96-25.15c-5.91-10.7-16.33-15.69-29.11-15.3
			c-6.98,0.21-14-0.69-20.99-1.29c-8.64-0.75-17.26-1.82-25.9-2.54c-16.04-1.33-32.1-2.45-48.14-3.76
			c-6.99-0.57-13.97-1.38-20.95-2.11c-10.12-1.06-20.23-2.38-30.37-3.17c-14.32-1.12-28.68-1.7-43-2.82
			c-11.16-0.87-22.27-2.41-33.43-3.28c-20.92-1.64-41.87-2.93-62.8-4.55c-9.93-0.77-19.81-2.13-29.73-2.93
			c-14.77-1.18-29.56-1.99-44.33-3.17c-10.57-0.84-21.1-2.19-31.67-3.04c-21.15-1.7-42.32-3.13-63.46-4.84
			c-9.05-0.73-18.07-1.91-27.11-2.8c-15.79-1.55-31.59-3.01-47.38-4.55c-6.76-0.66-13.53-1.28-20.27-2.18
			c-16.36-2.19-32.68-4.67-49.05-6.77c-9.62-1.23-19.31-2.67-28.96-2.58c-3.95,0.04-8.22,3.41-11.73,6.08
			c-9.55,7.28-18.91,14.82-28.07,22.59c-12.91,10.96-27.91,15.03-44.57,16.26c-16.29,1.19-31.59-0.53-45.98-8.31
			c-2.66-1.44-5.16-3.55-7.1-5.87c-5.17-6.19-9.89-12.76-14.99-19c-12.18-14.9-28.5-23.28-46.72-27.68
			c-7.69-1.86-16.04-1.02-24.08-1.41c-1.04-0.05-2.31,0.26-3.09-0.22c-7.95-4.86-15.81-0.57-23.67,0.23
			c-1.93,0.2-3.91,1.33-5.58,2.46c-9.06,6.14-17.6,13.2-27.14,18.46c-14.35,7.91-29.8,12.16-46.6,10.19
			c-13.59-1.59-26.21-5.56-37.35-13.53c-9.05-6.48-17.5-13.86-26.82-19.9c-5.34-3.46-11.78-5.41-17.93-7.4
			c-9.07-2.92-18.43-4.92-27.47-7.92c-18.45-6.13-34.29-16.59-46.9-31.33c-5.04-5.89-9.26-12.91-12.15-20.1
			c-5.92-14.71-9.17-30.13-9.34-46.17c-0.21-20.13-0.88-40.26-1.36-60.4c-0.43-17.97-0.69-35.95-1.35-53.91
			c-0.77-21.14-2.05-42.27-2.81-63.41c-0.55-15.35-0.45-30.73-0.96-46.09c-0.54-15.91-1.56-31.8-2.19-47.7
			c-0.33-8.29-0.13-16.6-0.38-24.89c-0.3-9.96-0.83-19.91-1.25-29.87c-0.32-7.46-0.8-14.92-0.89-22.38
			c-0.2-16.19-0.25-32.38-0.24-48.56c0.01-13.63,0.17-27.26,0.31-40.89c0.02-1.62-0.17-3.58,0.62-4.81
			c5.62-8.67,10.52-18.09,17.51-25.51c6.72-7.13,15.45-12.48,23.71-18c14.46-9.65,29.15-18.99,43.93-28.15
			c11.94-7.4,24.15-14.35,36.25-21.49c15.66-9.24,31.19-18.69,47.01-27.65c21.44-12.15,43.1-23.92,64.66-35.86
			c11.94-6.61,23.8-13.38,35.85-19.8c18.98-10.11,38.08-19.98,57.12-29.98c11.53-6.05,22.97-12.27,34.57-18.2
			c14.14-7.23,28.21-14.65,42.68-21.16c6.71-3.02,14.19-4.98,21.51-5.83c9.21-1.07,18.62-0.75,27.93-0.58
			c15.44,0.28,30.87,0.96,46.31,1.41c9.52,0.28,19.09,1.16,28.54,0.5c14.94-1.05,29.82-3.02,44.69-4.89
			c9.66-1.21,19.21-3.51,28.9-4.3c15.63-1.27,31.32-1.92,46.99-2.35c6.99-0.19,14.03,0.61,21.02,1.25c9.89,0.9,19.74,2.4,29.65,3.05
			c14.32,0.93,28.68,1.24,43.01,1.98c6.59,0.34,13.17,0.96,19.73,1.68c16.88,1.83,33.75,3.78,50.63,5.69
			c13.96,1.57,27.92,3.06,41.86,4.77c5.07,0.62,8.72,3.27,10.64,8.36c4.2,11.13,10.74,20.43,22.98,23.37
			c6.8,1.63,13.96,2.06,20.99,2.36c8.22,0.36,16.48-0.24,24.71,0c8.3,0.24,16.57,1.26,24.87,1.45c16.3,0.37,32.6,0.35,48.9,0.61
			c9.35,0.14,18.71,0.41,28.06,0.79c15.9,0.63,31.79,1.31,47.68,2.13c6.78,0.35,13.53,1.2,20.3,1.62c9.7,0.6,19.48,1.96,29.11,1.29
			c15.03-1.05,29.53-4.31,43.1-11.99c6.52-3.69,14.85-5.24,22.47-5.65c9.64-0.52,19.39,1.25,29.11,1.76
			c19.19,1.01,38.38,1.84,57.57,2.73c18.36,0.85,36.72,1.76,55.08,2.49c15.86,0.62,31.74,0.8,47.59,1.56
			c21.89,1.04,43.76,3.15,65.65,3.39c10.61,0.12,18.5,3.05,24.51,11.51c0.23,0.32,0.87,0.47,0.93,0.78
			c2.51,11.73,11.22,12.13,20.9,12.44c18.56,0.58,37.09,2.02,55.63,3.23c9.74,0.64,19.45,1.77,29.19,2.29
			c15.02,0.8,30.06,1.11,45.07,1.92c9.29,0.5,18.55,1.6,27.83,2.33c15.78,1.23,31.62,1.97,47.34,3.72
			c10.48,1.17,20.9,3.33,31.18,5.76c22.25,5.27,42.17,15.32,59.82,30.01c14.58,12.13,29.51,23.84,44.26,35.77
			c4.84,3.91,9.59,7.94,13.8,11.44c7.85-2.97,15.22-6.16,22.85-8.51c6.08-1.87,18.42,1.43,22.92,9.16
			c6.42,11.01,9.69,22.98,11.31,35.27c2.74,20.71,4.6,41.54,6.51,62.35c0.54,5.87,0.4,11.89-0.21,17.75
			c-0.77,7.32-5.96,11.19-12.6,13C1898.31,306.74,1891.46,308.13,1884.71,309.71z M1208.93,911.72l-0.16-0.16
			c3.88,5.3,7.04,11.4,11.83,15.7c5.56,4.99,13.23,8.6,20.59,6.37c8.1-2.46,15.96-6.74,22.94-11.62
			c10.1-7.07,18.39-16.04,21.62-28.64c3.26-12.75,1.06-23.64-8.41-33.49c-7.39-7.69-16.63-11.2-25.99-14.93
			c-4.11-1.64-8.45-4.47-12.49-4.19c-9.01,0.64-17.99,2.57-26.83,4.6c-11.05,2.54-23.07,9.77-21.72,24.24
			c1.34,14.29,1.94,28.65,2.89,43.36C1199.55,912.45,1204.24,912.08,1208.93,911.72z M163.4,817.31l-0.18-0.14
			c6.28,10.39,19.28,16.29,32.84,13.49c21.16-4.37,35.42-21.54,37.02-42.68c0.5-6.59-2.47-15.17-6.92-20.02
			c-7.94-8.64-16.79-16.48-28.58-21.2c-14.22-5.7-28.12-6.68-42.93-5.38c-13.72,1.2-20.09,9.16-19.93,21.38
			c0.22,16.24,2.2,32.46,3.73,48.65c0.12,1.24,2.56,2.98,4.13,3.24C149.48,815.79,156.45,816.47,163.4,817.31z M1479.77,739.08
			c8.98-3.76,17.12-7.26,25.34-10.58c9.75-3.94,19.6-7.61,29.32-11.62c8.14-3.35,16.06-7.29,24.29-10.4c3.37-1.27,7.1-5,11.03,0.11
			c3.27,4.25,7.01,10.28,11.32,11.03c4.5,0.78,10-3.65,14.94-6.08c18.34-9.03,36.68-18.05,54.92-27.29
			c18.42-9.33,36.45-19.48,55.13-28.24c21.94-10.3,41.48-24.07,60.12-39.24c5-4.07,8.79-8.78,6.62-17.12
			c-2.75-10.57-0.96-21.21,8.98-28.44c8.88-6.46,17.87-12.79,26.81-19.16c1.36-0.97,2.82-1.81,4.08-2.87
			c15.06-12.7,31.23-23.79,49.03-32.25c13-6.18,17.85-14.36,17.14-28.05c-0.75-14.42-3.17-28.74-4.54-43.13
			c-1.85-19.36-3.35-38.76-5.1-58.13c-1.66-18.34-3.55-36.66-5.18-55c-1.72-19.39-3.68-38.77-4.72-58.2
			c-1-18.58-2.16-37.07-8.09-54.83c-3.33-9.97-6.69-20.06-11.42-29.39c-4.09-8.07-9.15-16.15-15.54-22.45
			c-10.57-10.43-22.1-20.05-34.09-28.81c-8.25-6.03-17.56-11.22-27.16-14.68c-16.62-5.98-33.76-10.59-50.82-15.22
			c-7.94-2.16-16.17-3.61-24.36-4.36c-15.71-1.44-31.49-2.12-47.24-3.2c-9.46-0.65-18.91-1.52-28.37-2.15
			c-15.12-1.01-30.25-1.8-45.37-2.91c-7.64-0.56-15.24-1.7-22.87-2.45c-5.52-0.54-11.06-0.82-16.59-1.32
			c-8.19-0.74-16.37-1.79-24.58-2.28c-7.78-0.47-18.12,4.61-19.18,10.12c-1.34,6.97-1.05,14.23-1.78,21.33
			c-1.04,10.22-0.36,21.19-3.99,30.44c-7.08,18.01-21,31.26-37.6,40.86c-15.75,9.11-32.22,16.98-48.52,25.11
			c-6.79,3.39-14.11,5.7-20.89,9.1c-10.02,5.02-20.48,7.64-31.64,7.24c-9.62-0.34-19.24-0.77-28.83-1.54
			c-18.86-1.5-37.7-3.26-56.55-4.92c-18.88-1.67-37.77-3.25-56.64-5.06c-14.98-1.43-29.92-3.24-44.9-4.71
			c-11.9-1.16-23.84-1.87-35.72-3.13c-9.81-1.04-19.54-2.78-29.34-3.86c-8.07-0.89-14.09-5.81-15.1-13.9
			c-1.11-8.91-3.07-18.07-2.03-26.81c2.11-17.68,0.03-35.15-0.43-52.69c-0.32-12.1,7.45-24.38,19.08-26.57
			c9.79-1.84,16.62-8.11,24.55-12.83c1.4-0.84,2.35-2.44,4.11-4.33c-11.34-1.01-21.62-1.98-31.91-2.82
			c-6.81-0.55-13.63-0.95-20.44-1.36c-10.12-0.6-20.24-1.05-30.35-1.73c-8.7-0.58-17.37-1.56-26.08-2.05
			c-15-0.84-30.01-1.43-45.02-2.16c-9.93-0.48-19.86-1.05-29.79-1.54c-10.04-0.5-20.07-0.96-30.11-1.43
			c-7.46-0.35-14.92-1-22.38-0.9c-2.34,0.03-5.11,1.56-6.89,3.24c-6.42,6.08-5.55,14.31-4.18,21.62
			c3.81,20.35-2.61,37.03-16.92,50.92c-11.41,11.07-25.57,18.18-39.62,25.31c-9.91,5.03-19.62,10.48-29.73,15.04
			c-13.13,5.93-26.16,12.95-40,16.16c-12.17,2.82-25.45,1.79-38.15,1.03c-10.21-0.6-20.27-3.46-30.43-5.07
			c-6.93-1.1-13.92-2.12-20.91-2.55c-14.28-0.87-28.6-1.06-42.87-2.03c-10.09-0.69-20.12-2.22-30.17-3.36
			c-6.97-0.79-13.93-1.71-20.92-2.28c-15.14-1.25-30.29-2.31-45.43-3.45c-10.63-0.8-21.29-1.43-31.9-2.48
			c-13.06-1.28-22.63-7.95-23.43-21.14c-0.73-12.1-0.13-24.3,0.11-36.45c0.21-10.55,0.73-21.09,1.12-31.63
			c0.52-13.89,5.18-25.51,16.12-34.96c9.46-8.17,20.53-11.29,32.82-14.11c-2.01-0.88-3.41-1.8-4.94-2.12
			c-10.06-2.12-20.12-4.25-30.23-6.11c-19.28-3.54-38.59-4.63-57.39,2.27c-10.67,3.92-21.35,8.12-31.39,13.41
			c-20.4,10.75-40.35,22.37-60.54,33.52c-11.58,6.4-23.24,12.66-34.94,18.85c-19.37,10.25-38.79,20.4-58.21,30.55
			c-10.28,5.37-20.7,10.48-30.9,16c-14.68,7.94-29.2,16.19-43.84,24.23c-9.99,5.49-20.21,10.55-30.05,16.3
			c-20.5,11.99-40.81,24.32-61.22,36.46c-2.46,1.46-5.76,2.18-4.46,6.22c1.22,3.78,3.22,6.14,7.83,6.3
			c10.71,0.38,21.4,1.35,32.1,2.09c12.29,0.85,24.58,1.64,36.86,2.59c8.21,0.63,16.38,1.74,24.59,2.2
			c14.26,0.8,28.55,1.13,42.82,1.89c12.48,0.67,24.96,1.53,37.42,2.53c19.09,1.54,38.17,3.2,57.24,4.96c12.51,1.16,25,2.58,37.5,3.9
			c19.01,2.01,38.03,3.9,57.02,6.09c15.81,1.83,31.56,4.15,47.36,6.02c18.81,2.23,37.64,4.22,56.46,6.3
			c7.98,0.89,15.95,1.83,23.94,2.63c15.13,1.52,30.28,2.84,45.39,4.48c10.08,1.09,20.09,2.85,30.18,3.84
			c14.9,1.47,29.86,2.35,44.77,3.8c10.12,0.99,20.16,2.82,30.28,3.77c14.49,1.37,29.04,2.11,43.53,3.45
			c10.52,0.97,20.97,2.55,31.47,3.74c6.32,0.72,12.66,1.31,19.01,1.78c15.98,1.2,31.98,2.21,47.96,3.47
			c9.25,0.73,18.45,2.05,27.71,2.64c14.26,0.9,28.54,1.32,42.81,2.08c12.08,0.64,24.15,1.48,36.22,2.24
			c12.9,0.81,25.81,1.62,38.71,2.46c12.49,0.81,24.98,1.63,37.46,2.5c12.47,0.87,24.94,1.76,37.4,2.72
			c13.82,1.07,27.63,2.23,41.45,3.34c20.58,1.66,41.14,3.4,61.73,4.92c16.13,1.19,32.28,1.97,48.41,3.16
			c19.33,1.43,38.65,3.12,57.98,4.65c12.05,0.95,24.19,1.27,36.16,2.84c19.05,2.5,38.35,4.4,56.88,9.13
			c22.36,5.7,41.48,18.55,57.97,34.64c15.45,15.08,27.4,33.08,38.14,51.64c6.69,11.56,12.29,24.09,16.16,36.86
			c5.68,18.74,10.4,37.91,13.6,57.22c3.07,18.54,3.91,37.46,5.28,56.25c1.35,18.64,2.04,37.33,3.19,55.99
			c1.14,18.42,2.49,36.82,3.73,55.23C1477.6,706.11,1478.66,722.22,1479.77,739.08z M114.25,792.05
			c-1.52-10.84-2.47-21.15,2.1-31.19c6.79-14.92,19.6-23.8,32.79-31.86c9.33-5.7,19.56-10,29.6-14.45
			c6.33-2.81,12.95-5.1,19.62-6.98c18.07-5.08,35.1-2.38,49.41,9.86c8.2,7.01,15.67,15.21,18.63,26.45c2.29,8.7,5.4,17.2,8.31,25.73
			c7.74,22.74,21.17,38.9,46.96,41.32c10.53,0.99,19.53-0.26,26.25-9.74c6.57-9.27,13.78-18.1,21-26.88
			c6.69-8.13,13.22-16.55,20.87-23.71c6.55-6.13,13.92-12.67,22.14-15.4c9.35-3.11,20.05-2.97,30.12-2.74
			c7,0.16,13.93,2.96,20.92,4.42c15.71,3.28,28.44,11.98,37.89,24.24c6.14,7.96,9.22,18.27,13.75,27.49
			c4.66,9.51,10.28,18.26,18.5,25.24c14.33,12.17,31.23,16.92,49.54,18.28c19.28,1.43,38.54,3.14,57.8,4.83
			c18.85,1.65,37.69,3.47,56.54,5.15c18.85,1.68,37.71,3.25,56.56,4.92c15.24,1.35,30.46,2.89,45.7,4.15
			c12.26,1.01,24.55,1.65,36.81,2.56c8.62,0.64,17.21,1.7,25.84,2.12c15.65,0.77,31.33,0.96,46.97,1.85
			c15.24,0.86,30.43,2.42,45.66,3.44c15.36,1.02,30.75,1.58,46.1,2.63c17.89,1.22,35.79,2.42,53.62,4.26
			c16.86,1.74,33.64,4.25,50.44,6.51c6.5,0.87,12.95,2.1,19.45,2.95c6.58,0.87,13.27,2.45,19.79,2
			c16.48-1.16,31.05-14.09,35.9-30.16c8.14-26.95,26.5-43.74,53.06-51.62c6.99-2.07,14.54-2.38,21.86-3.23
			c18.24-2.13,34.39,4.31,48.8,14.28c16.01,11.08,25.71,27.7,34.41,44.8c5.71,11.22,11.71,22.28,17.67,33.37
			c3.46,6.43,9.96,8.8,16.27,9.14c21.22,1.16,41.69-2.19,61.47-10.73c16.13-6.97,28.88-16.07,31.72-34.77
			c1.46-9.64,3.73-19.2,4.47-28.89c0.86-11.29,0.89-22.7,0.46-34.02c-0.45-11.94-1.68-23.87-3-35.75c-0.27-2.46-1.9-5.35-3.81-6.95
			c-11.16-9.29-25.16-11.47-38.73-13.48c-16.89-2.5-33.73-4.73-49.57-11.41c-6.65-2.81-13.03-6.26-19.58-9.32
			c-20.02-9.36-36.21-24.06-50.59-40.08c-12.65-14.1-22.35-30.84-33.37-46.41c-4.68-6.62-8.52-14.14-14.29-19.61
			c-7.69-7.28-16.2-14.36-27.89-14.56c-7.83-0.13-15.67-0.12-23.5-0.33c-9.07-0.25-18.14-0.75-27.21-1
			c-5.06-0.14-10.13-0.03-14.69-0.03c0,11.24-0.46,21.62,0.11,31.94c0.81,14.86,2.54,29.66,3.56,44.51
			c1.17,16.94,1.66,33.93,3.14,50.84c0.53,6.02-1.93,9.26-6.29,12.28c-8.12,5.61-17.01,1.8-25.38,1.73
			c-12.71-0.1-25.4-2.27-38.11-3.5c-12.74-1.23-25.48-2.38-38.22-3.55c-12.51-1.15-25.02-2.32-37.53-3.44
			c-19.26-1.72-38.51-3.41-57.77-5.11c-18.22-1.61-36.44-3.21-54.66-4.83c-19.26-1.71-38.51-3.45-57.77-5.15
			c-12.08-1.06-24.17-2.02-36.24-3.11c-12.73-1.15-25.45-2.41-38.18-3.58c-18.83-1.73-37.67-3.41-56.5-5.13
			c-18.64-1.7-37.28-3.41-55.92-5.16c-19.66-1.84-39.3-3.83-58.97-5.54c-18.44-1.61-36.91-2.89-55.36-4.39
			c-19.09-1.56-38.17-3.19-57.26-4.82c-13.72-1.17-27.44-2.36-41.15-3.62c-9.94-0.92-19.84-2.25-29.79-2.89
			c-15.29-0.99-30.61-1.37-45.9-2.33c-15.33-0.96-30.63-2.48-45.97-3.47c-15.57-1.01-31.16-1.55-46.73-2.54
			c-10.71-0.68-21.4-1.82-32.1-2.7c-6.81-0.56-16.05-6.63-17.06-11.97c-1.95-10.26-3.86-20.57-5.04-30.94
			c-2.2-19.27-3.72-38.61-5.79-57.89c-1.66-15.46-3.62-30.89-5.76-46.29c-0.23-1.65-2.32-4.04-3.87-4.33
			c-7.13-1.34-14.38-2.06-21.58-3c-15.31-2-30.63-3.86-45.92-6.03c-10.4-1.48-20.71-3.57-31.11-5.04
			c-15.04-2.12-30.14-3.78-45.18-5.91c-13.65-1.93-27.23-4.46-40.89-6.28c-8.65-1.15-14.86,5.09-14.42,13.64
			c0.71,13.83,1.32,27.68,2.14,41.5c0.71,11.98,1.67,23.95,2.46,35.93c1.29,19.64,2.65,39.28,3.75,58.93
			c0.67,11.96,0.95,23.95,1.32,35.93c0.46,15.1,0.36,30.23,1.43,45.28c0.6,8.4,2.14,16.97,4.87,24.92
			c7.17,20.89,20.07,36.98,40.36,47.16C87.24,787.17,100.37,790.72,114.25,792.05z M1456.43,716.41c0.64-7.26,1.29-13.79,1.77-20.33
			c0.64-8.69,1.88-17.41,1.53-26.07c-0.58-14.22-2.15-28.41-3.45-42.6c-1.15-12.55-2.45-25.09-3.76-37.62
			c-1.28-12.15-2.4-24.33-4.07-36.43c-2.62-19.04-5.19-38.11-8.66-57c-2.34-12.7-5.78-25.25-9.49-37.64
			c-3.85-12.85-10.4-24.31-18.03-35.53c-9.32-13.71-19.68-26.27-32.41-36.59c-12.53-10.16-26.01-19.14-39.11-28.59
			c-0.98-0.71-2.24-1.1-3.41-1.49c-14.08-4.67-28.36-8.03-43.25-9.27c-16.45-1.37-32.77-4.28-49.22-5.8
			c-20.84-1.93-41.75-3-62.61-4.7c-16.87-1.37-33.71-3.12-50.96-4.73c-0.91,6.63-5.28,5.85-10.24,5.12
			c-9.37-1.38-18.8-2.43-28.24-3.18c-14.75-1.18-29.55-1.83-44.29-3.05c-9.85-0.81-19.63-2.47-29.48-3.28
			c-20.94-1.71-41.9-3.02-62.84-4.65c-18.68-1.46-37.34-3.12-56.01-4.72c-12.96-1.11-25.93-2.17-38.88-3.41
			c-16.86-1.61-33.71-3.37-50.56-5.09c-6.76-0.69-13.51-1.55-20.28-2.1c-15.97-1.3-31.97-2.38-47.94-3.7
			c-9.24-0.76-18.44-2-27.68-2.72c-14.95-1.16-29.93-1.93-44.87-3.15c-9.65-0.79-19.23-2.31-28.88-3.11
			c-21.1-1.75-42.22-3.18-63.33-4.87c-15.28-1.22-30.54-2.74-45.83-3.96c-17.19-1.37-34.41-2.34-51.59-3.87
			c-15.41-1.37-30.77-3.33-46.17-4.91c-21.28-2.19-42.61-4.04-63.86-6.46c-19.33-2.2-38.61-4.93-57.89-7.5
			c-14.98-2-29.93-4.27-44.93-6.14c-18.31-2.28-36.66-4.21-54.98-6.37c-8.81-1.04-17.57-2.63-26.4-3.3
			c-14.69-1.12-29.41-1.77-44.13-2.49c-10.35-0.51-20.72-1.26-31.07-1.11c-16.14,0.22-32.27,1.17-48.41,1.7
			c-7.64,0.25-15.28,0.17-22.92,0.38c-1.6,0.04-3.35,0.41-4.75,1.14c-10.48,5.47-19.32,11.96-20.63,25.36
			c-0.96,9.82-4.41,19.4-5.22,29.21c-1.35,16.4-2.29,32.92-1.89,49.35c0.39,15.85,2.46,31.68,4.22,47.47
			c1.76,15.8,4.01,31.55,6.12,47.31c1.07,7.98,14.35,20.05,22.47,20.58c8.12,0.53,16.25,0.96,24.36,1.57
			c12.09,0.91,24.18,1.8,36.25,2.94c19.49,1.84,38.95,3.96,58.44,5.81c11.87,1.13,23.77,1.93,35.65,2.96
			c19.07,1.65,38.14,3.34,57.2,5.06c18.63,1.69,37.25,3.44,55.88,5.17c12.74,1.18,25.48,2.34,38.22,3.53
			c19.05,1.77,38.1,3.5,57.14,5.36c19.29,1.88,38.57,3.76,57.83,5.89c18.37,2.04,36.7,4.41,55.05,6.62
			c12.86,1.55,25.73,3.09,38.59,4.63c18.6,2.23,37.18,4.73,55.82,6.59c19.01,1.9,38.07,3.33,57.13,4.66
			c18.54,1.28,37.11,1.98,55.65,3.28c16.24,1.14,32.45,2.71,48.67,4.16c7.42,0.66,14.82,1.57,22.24,2.21
			c15.98,1.36,31.99,2.51,47.96,3.96c9.66,0.88,19.27,2.33,28.93,3.27c15.29,1.49,30.61,2.66,45.9,4.19
			c9.86,0.99,19.67,2.6,29.54,3.54c15.73,1.5,31.5,2.57,47.23,4.03c9.44,0.87,18.83,2.25,28.27,3.17
			c15.31,1.49,30.65,2.72,45.97,4.19c9.64,0.93,19.24,2.29,28.88,3.11c14.92,1.27,29.87,2.19,44.8,3.35
			c10.09,0.78,20.15,1.91,30.25,2.52c10.02,0.6,20.07,0.68,30.11,1.12c9.9,0.43,19.82,0.81,29.7,1.59
			c7.13,0.56,14.54,0.74,21.24,2.89c8.54,2.75,14.25,9.79,19.04,17.26c9.47,14.77,17.94,30.28,28.52,44.2
			c9.54,12.54,21.39,23.33,32.15,34.95c13.83,14.93,32.33,23.08,49.05,33.8c0.99,0.64,2.27,1.04,3.45,1.13
			c7.98,0.61,16,0.84,23.95,1.69C1424.51,712.49,1440,714.46,1456.43,716.41z M698.02,569.04c-0.06,0.01-0.12,0.02-0.18,0.02
			c0.84,9.7,1.6,19.4,2.55,29.08c1.66,16.86,3.29,33.72,5.23,50.55c0.75,6.54,1.88,13.1,3.57,19.45c2.01,7.55,8.3,12.29,15.07,13.59
			c12.28,2.37,24.93,3.03,37.45,3.92c15.26,1.07,30.57,1.45,45.84,2.47c16.32,1.09,32.62,2.68,48.93,3.89
			c16.81,1.25,33.64,2.3,50.46,3.48c17.58,1.23,35.17,2.43,52.75,3.79c15.7,1.21,31.38,2.68,47.07,3.94
			c20.9,1.68,41.83,2.93,62.69,5.01c20.69,2.06,41.41,4.25,61.89,7.74c9.19,1.56,14.65-2.53,20.06-7.92
			c1.86-1.85,3.18-5.21,3.11-7.84c-0.22-8.01-1.37-15.99-1.91-23.99c-1.44-21.3-2.9-42.61-4.06-63.92
			c-0.93-17.13-12.65-30.56-28.49-32.14c-16.97-1.69-33.92-3.5-50.89-5.18c-13.54-1.34-27.09-2.55-40.63-3.84
			c-7.57-0.72-15.13-1.61-22.72-2.23c-15.54-1.28-31.09-2.34-46.63-3.66c-9.23-0.78-18.42-2.03-27.65-2.82
			c-15.32-1.3-30.66-2.34-45.98-3.62c-9.9-0.83-19.77-2-29.67-2.83c-15.13-1.27-30.29-2.24-45.41-3.59
			c-10.34-0.92-20.63-2.5-30.98-3.38c-15.56-1.32-31.14-2.48-46.73-3.33c-7.37-0.4-14.85-0.44-22.18,0.33
			c-6.84,0.71-12.67,8.65-12.58,15.54C698.05,564.05,698.02,566.55,698.02,569.04z M693.97,678.31
			c-1.24-11.64-2.39-22.21-3.47-32.79c-0.23-2.28-0.05-4.61-0.36-6.87c-1.94-14.3-4.03-28.57-5.93-42.88
			c-1.28-9.66-2.05-19.4-3.53-29.03c-3.57-23.1-9.57-24-29.71-26.9c-10.74-1.55-21.66-1.8-32.48-2.9
			c-9.03-0.92-18.01-2.48-27.05-3.28c-14.49-1.28-29.03-2.01-43.52-3.25c-10.49-0.9-20.94-2.28-31.41-3.43
			c-6.55-0.72-13.1-1.59-19.67-2.1c-14.74-1.14-29.51-1.91-44.23-3.17c-10.28-0.88-20.51-2.36-30.77-3.53
			c-6.55-0.74-13.1-1.53-19.67-2.05c-15.76-1.26-31.55-2.27-47.31-3.58c-9.03-0.75-18.01-2.06-27.03-2.84
			c-15.12-1.31-30.25-2.47-45.38-3.55c-9.33-0.67-18.67-1.37-28.01-1.49c-7.14-0.09-14.85,6.28-15.42,12.94
			c-0.57,6.78-0.41,13.7,0.2,20.48c1.36,15.23,3.2,30.41,4.85,45.61c1.48,13.58,2.63,27.22,4.58,40.73
			c1.23,8.52,14.1,18.97,22.57,19.42c14.34,0.77,28.68,1.5,43.01,2.34c18.7,1.09,37.41,2.08,56.1,3.45
			c16.24,1.19,32.45,2.88,48.67,4.27c7.86,0.67,15.74,1.23,23.61,1.75c14.77,0.98,29.55,1.76,44.31,2.89
			c9.86,0.75,19.67,2.2,29.53,2.91c15.77,1.13,31.59,1.64,47.35,2.9c15.43,1.24,30.81,3.15,46.22,4.66
			c14.89,1.46,29.81,2.59,44.67,4.22C667.7,674.67,680.66,676.58,693.97,678.31z M1098.39,106.51c3.03,5.47,3.01,5.67,9.39,6.18
			c17.9,1.42,35.83,2.58,53.74,3.98c12.46,0.98,24.9,2.23,37.36,3.26c18.86,1.56,37.72,3.09,56.59,4.55
			c21.6,1.67,43.19,3.52,64.81,4.69c7.33,0.4,15.09,0.07,22.06-1.96c8.56-2.49,16.85-6.51,24.59-11.01
			c7.48-4.35,13.65-10.99,21.23-15.11c13.23-7.2,26.94-13.57,40.76-19.58c5.37-2.34,7.8-4.81,5.09-11.33
			c-11.38-1.58-23.27-3.37-35.2-4.84c-15.14-1.87-30.26-4.17-45.47-5.04c-20.2-1.15-40.47-1.42-60.7-1.46
			c-21.07-0.05-42.15,0.52-63.23,1.02c-13.17,0.31-26.49-0.09-39.45,1.84c-10.72,1.59-21.38,5.24-31.36,9.59
			c-9.39,4.09-17.85,10.3-26.73,15.54C1120.84,93.32,1109.81,99.79,1098.39,106.51z M823.65,31.02c-0.5-0.65-1-1.31-1.5-1.96
			c-9.11-1.23-18.2-2.55-27.32-3.67c-15.71-1.92-31.4-4.34-47.17-5.37c-15.16-0.99-30.42-0.43-45.63-0.64
			c-13.23-0.18-26.46-0.75-39.69-0.66c-25.2,0.19-50.44,0.11-75.59,1.43c-10.35,0.54-21.05,3.11-30.68,7.01
			c-18.9,7.67-34.62,20.81-50.86,32.9c-4.54,3.38-8.81,7.11-13.55,10.97c8.34,0.96,16.03,2.06,23.76,2.68
			c10.01,0.8,20.06,1.12,30.08,1.81c9.32,0.64,18.62,1.57,27.93,2.26c14.36,1.06,28.74,1.89,43.09,3.08
			c10.3,0.85,20.55,2.2,30.83,3.21c15.96,1.56,32.03,2.32,47.86,4.72c15.99,2.42,31.55,2.13,45.88-5.41
			c13.66-7.19,26.36-16.18,39.78-23.87c7.91-4.53,17.72-5,24.53-12.35C810.89,41.24,817.53,36.37,823.65,31.02z M1888.92,616.28
			c-5.95-3.62-11.94-7.28-17.94-10.91c-12.92-7.82-20.43-24.47-12.31-38.47c3-5.17,5.99-10.35,9.07-15.47
			c3.25-5.41,6.59-10.75,10.7-17.44c-15.49,5.12-29.83,9.61-39.95,21.29c-6.42,7.41-6.83,16.78-5.01,26.33
			c3.21,16.9,2.73,33.23-7.51,48.19c-8.67,12.66-21.22,20.81-33.39,29.26c-10.94,7.59-22.67,14.06-34.13,20.9
			c-18.44,11.02-36.93,21.95-55.41,32.91c-12.98,7.69-25.94,15.4-38.96,23.03c-10.37,6.08-20.94,11.85-31.18,18.15
			c-14.02,8.61-27.69,17.78-41.74,26.33c-9.19,5.59-19.16,9.97-28.07,15.95c-5.37,3.6-7.88,1.87-11.13-2.15
			c-8.6-10.63-17.26-21.21-26.16-31.59c-5.36-6.26-11.2-12.11-17.46-18.82c-3.96,2.8-8.01,5.9-12.29,8.64
			c-13.49,8.62-13.64,11.88-0.72,21.95c1.32,1.03,2.56,2.41,4.07,2.89c9.97,3.15,14.32,10.3,17.21,20.08
			c4.13,13.98,1.78,22.42-10.74,30.05c-15.52,9.46-20.35,18.31-17.74,36.63c6.32-3.94,12.15-7.81,18.19-11.3
			c11.95-6.92,24.01-13.66,36.04-20.42c18.74-10.53,37.53-20.97,56.24-31.56c12.24-6.93,24.39-14.03,36.54-21.12
			c18.74-10.94,37.48-21.9,56.17-32.94c18.27-10.79,36.45-21.74,54.72-32.54c12.43-7.34,24.9-14.64,37.46-21.76
			c14.74-8.36,30.13-15.71,44.25-24.99c12.21-8.03,23.19-17.99,34.44-27.41C1871.19,632.41,1879.8,624.39,1888.92,616.28z
			 M1354.62,220.31c13.63-7.3,25.98-14.45,38.81-20.64c18.48-8.92,36.19-18.99,53.18-30.53c15.92-10.8,20.6-26.65,20.47-44.11
			c-0.12-15.65-2.5-31.27-3.92-47.36c-1.18,0.44-2.18,0.63-3,1.14c-10,6.19-19.92,12.5-29.96,18.63
			c-8.49,5.18-17.17,10.07-25.66,15.26c-15.63,9.54-31.08,19.4-46.85,28.71c-4.92,2.9-7.39,6.53-7.22,12.01
			c0.17,5.35,0.71,10.69,0.91,16.05c0.4,10.38,0.52,20.77,1.09,31.14C1352.81,206.76,1353.79,212.89,1354.62,220.31z M743.66,178.9
			c8.25-4.36,16.39-8.61,24.48-12.95c19.64-10.53,39.05-21.53,58.98-31.48c9.76-4.87,16.29-12.51,22.32-20.87
			c2.05-2.84,3.24-6.63,3.77-10.15c1.03-6.86,1.83-13.84,1.8-20.77c-0.05-10.49-0.77-20.98-1.43-31.46
			c-0.26-4.17-1.13-8.29-1.78-12.82c-1.72,0.74-3.11,1.16-4.32,1.89c-16.8,10.08-33.53,20.31-50.39,30.29
			c-15.43,9.14-30.92,18.19-46.57,26.95c-7.21,4.04-11.93,8.71-11.21,17.91c1.23,15.69,1.58,31.46,2.49,47.18
			C742.1,167.91,742.99,173.18,743.66,178.9z M524.78,101.35c11.97,1,23.22,1.68,34.4,2.93c16,1.79,31.93,4.27,47.94,5.94
			c15.5,1.63,31.08,2.48,46.6,3.93c10.92,1.01,21.77,2.8,32.7,3.55c6.68,0.46,11.28,3.38,15.05,8.54c6.97,9.54,6.25,21.22,9.12,31.9
			c1.53,5.67,3.48,11.26,5.7,16.7c0.45,1.09,3.01,1.86,4.54,1.79c1.21-0.06,2.98-1.44,3.38-2.62c0.77-2.27,1.03-4.82,1.02-7.25
			c-0.01-8.46,0.24-16.96-0.49-25.36c-0.78-8.95-2.44-17.84-4.02-26.7c-0.29-1.61-1.91-3.08-3.15-4.4
			c-7.66-8.19-18.4-8.43-28.21-9.62c-14.13-1.72-28.5-1.37-42.74-2.26c-12.53-0.78-25.02-2.09-37.54-3.09
			c-18.45-1.48-36.9-2.9-55.35-4.36c-13.78-1.09-27.67-1.41-41.28-3.56c-9.7-1.53-17.88,1.61-26.37,4.59
			c-5.52,1.94-9.1,5.92-8.59,12.07c1.06,12.92,1.58,26,4.05,38.67c2.24,11.49,11.4,22.28,25.38,17.79
			c8.28-2.66,18.23-15.7,17.97-24.13C524.52,124.92,524.78,113.41,524.78,101.35z M1326.95,217.92c7.08,0.27,8.52-0.79,8.2-8.09
			c-0.63-14.31-1.44-28.62-2.57-42.9c-0.4-5.04-0.41-11.52-3.41-14.61c-3.99-4.11-10.52-7.04-16.32-7.85
			c-14.19-1.97-28.59-2.36-42.9-3.52c-18.67-1.52-37.32-3.19-55.98-4.78c-13.16-1.12-26.33-2.1-39.48-3.37
			c-16.38-1.58-32.74-3.45-49.12-5.06c-6.33-0.62-12.69-1.22-19.04-1.26c-10.91-0.07-17.81,4.31-18.48,14.7
			c-0.99,15.22,0.2,30.59,0.75,45.88c0.06,1.75,1.89,3.51,3.08,5.13c4.35,5.96,10.28,7.61,17.58,8.17
			c19.67,1.5,29.35-9.13,26.17-28.85c-1.46-9.01-1.25-18.29-1.84-28.11c8.96,0.77,16.97,1.52,24.98,2.13
			c9.67,0.74,19.37,1.26,29.04,2.06c9.05,0.75,18.07,1.9,27.12,2.57c15.9,1.16,31.83,2,47.74,3.13c10.22,0.72,20.45,1.41,30.61,2.71
			c4.19,0.53,8.89,1.69,12.1,4.19c6.36,4.93,11.29,11.21,13.02,19.65C1320.76,192.34,1323.89,204.76,1326.95,217.92z
			 M1812.38,609.33c-0.44-0.41-0.89-0.82-1.33-1.23c-5.74,4.62-11.18,9.66-17.27,13.75c-12.18,8.19-24.43,16.34-37.16,23.63
			c-17.91,10.27-36.24,19.82-54.47,29.54c-18.41,9.81-37.1,19.1-55.31,29.27c-18.95,10.58-37.85,21.35-56.04,33.16
			c-14.12,9.17-27.12,20.06-40.85,30.36c2.48,4.65,4.29,8.04,6.3,11.79c14.14-7.86,27.61-15.25,40.98-22.81
			c12.55-7.09,25.06-14.24,37.47-21.56c18.3-10.81,36.53-21.73,54.71-32.73c18.39-11.12,36.66-22.47,55.05-33.59
			c14.31-8.65,28.73-17.11,43.11-25.62C1800.78,635.49,1808.4,623.72,1812.38,609.33z M419.8,862.92
			c10.45-1.11,21.63-2.45,31.98-10.39c15.09-11.57,18.93-25.21,14.32-43c-2.87-11.08-8.87-20.14-17.24-26.75
			c-6.48-5.11-15.12-8.68-23.29-10.1c-9.35-1.62-19.3-0.74-28.87,0.28c-5.79,0.62-11.53,3.12-16.95,5.55
			c-7.33,3.3-10.04,12.62-9.73,23.56c0.39,14.04,4.3,26.5,11.39,38.57C389.88,855.05,402.33,861.53,419.8,862.92z M1877.61,182.81
			c-1.11,2.18-1.59,3.76-2.56,4.94c-8.45,10.25-6.13,22.06-2.76,32.66c5.3,16.7,8.07,33.56,9.08,50.9
			c0.67,11.45,1.7,22.88,2.67,35.62c1.63-2.02,2.6-3.01,3.33-4.16c7.46-11.87,12.49-24.83,14.15-38.63
			c1.84-15.34,1.28-30.67-5.83-45.09c-4.84-9.83-9.07-19.96-13.73-29.88C1880.94,187.01,1879.25,185.17,1877.61,182.81z
			 M694.96,151.19c-43.43-3.36-86.43-6.7-129.84-10.06c-0.45,3.68-0.83,6.83-1.3,10.64c6.15,0.39,11.53,0.39,16.8,1.14
			c20.12,2.88,40.21,5.92,60.29,9.06c15.22,2.38,30.43,2.2,45.63,0.06C694.61,160.89,695.12,160.01,694.96,151.19z M1304.96,193.42
			c-43.19-4.21-86.42-8.42-130.26-12.69c0,4.52-0.26,7.56,0.13,10.5c0.15,1.12,1.69,2.81,2.75,2.94c6.3,0.79,12.66,1.2,18.99,1.72
			c20.67,1.71,41.35,3.3,62,5.16c10.1,0.91,20.15,2.4,30.24,3.43c5.41,0.55,10.86,0.68,16.15,1
			C1304.96,201.34,1304.96,197.72,1304.96,193.42z M186.71,726.48c19.07,4.88,34.86,12.95,46.93,26.58
			c12.32,13.92,17.42,30.82,16.28,50.25c11.91-13.13,9.51-48.41-4.74-65.24C232.86,723.51,210.74,717.34,186.71,726.48z
			 M432.2,753.24c-0.16,0.41-0.31,0.82-0.47,1.23c3.02,1.72,6.26,3.14,9.01,5.21c10.43,7.87,21.58,15.08,30.76,24.24
			c7.2,7.18,12.21,16.71,14.34,27.19c1.32,6.52,2.74,13.03,4.09,19.41c9.65-8.67,8.37-21.62,4.09-32.6
			c-4.44-11.39-11.56-21.82-18.15-32.25c-1.95-3.08-5.82-6.09-9.3-6.84C455.23,756.38,443.67,755.01,432.2,753.24z M1301.29,862.1
			c0-5.77,0.63-10.82-0.2-15.63c-0.66-3.86-2.07-9.18-4.9-10.8c-13.89-7.93-29.38-11.69-44.64-15.5c-3.5,6,1.02,8.23,4.19,10.5
			c11.4,8.17,22.99,16.07,34.53,24.04C1293.78,857.13,1297.34,859.46,1301.29,862.1z"/>
		<path class="st0" d="M1479.77,739.08c-1.12-16.86-2.17-32.97-3.26-49.08c-1.24-18.41-2.6-36.81-3.73-55.23
			c-1.15-18.66-1.84-37.35-3.19-55.99c-1.36-18.79-2.21-37.71-5.28-56.25c-3.19-19.31-7.92-38.48-13.6-57.22
			c-3.87-12.77-9.47-25.3-16.16-36.86c-10.74-18.56-22.69-36.56-38.14-51.64c-16.49-16.09-35.6-28.94-57.97-34.64
			c-18.54-4.73-37.84-6.63-56.88-9.13c-11.97-1.57-24.1-1.88-36.16-2.84c-19.33-1.53-38.64-3.22-57.98-4.65
			c-16.13-1.19-32.28-1.97-48.41-3.16c-20.59-1.52-41.15-3.27-61.73-4.92c-13.82-1.11-27.63-2.27-41.45-3.34
			c-12.46-0.96-24.93-1.85-37.4-2.72c-12.48-0.87-24.97-1.69-37.46-2.5c-12.9-0.84-25.8-1.65-38.71-2.46
			c-12.07-0.76-24.14-1.59-36.22-2.24c-14.27-0.76-28.55-1.18-42.81-2.08c-9.25-0.58-18.46-1.91-27.71-2.64
			c-15.98-1.26-31.98-2.27-47.96-3.47c-6.35-0.47-12.69-1.07-19.01-1.78c-10.5-1.19-20.96-2.77-31.47-3.74
			c-14.49-1.34-29.04-2.08-43.53-3.45c-10.12-0.96-20.16-2.78-30.28-3.77c-14.9-1.46-29.86-2.34-44.77-3.8
			c-10.09-0.99-20.1-2.75-30.18-3.84c-15.11-1.64-30.26-2.96-45.39-4.48c-7.99-0.8-15.96-1.75-23.94-2.63
			c-18.82-2.09-37.66-4.08-56.46-6.3c-15.8-1.87-31.55-4.19-47.36-6.02c-18.99-2.19-38.01-4.08-57.02-6.09
			c-12.5-1.32-24.98-2.74-37.5-3.9c-19.07-1.76-38.15-3.42-57.24-4.96c-12.46-1.01-24.94-1.86-37.42-2.53
			c-14.27-0.76-28.56-1.1-42.82-1.89c-8.21-0.46-16.39-1.56-24.59-2.2c-12.28-0.95-24.57-1.74-36.86-2.59
			c-10.7-0.74-21.39-1.71-32.1-2.09c-4.61-0.16-6.61-2.52-7.83-6.3c-1.3-4.03,2-4.76,4.46-6.22c20.41-12.14,40.72-24.47,61.22-36.46
			c9.83-5.75,20.06-10.82,30.05-16.3c14.63-8.04,29.15-16.29,43.84-24.23c10.2-5.52,20.62-10.63,30.9-16
			c19.42-10.15,38.84-20.31,58.21-30.55c11.7-6.19,23.36-12.45,34.94-18.85c20.19-11.15,40.13-22.78,60.54-33.52
			c10.04-5.29,20.72-9.49,31.39-13.41c18.79-6.9,38.1-5.82,57.39-2.27c10.11,1.86,20.17,3.99,30.23,6.11
			c1.53,0.32,2.94,1.24,4.94,2.12c-12.29,2.82-23.36,5.93-32.82,14.11c-10.94,9.45-15.6,21.07-16.12,34.96
			c-0.39,10.54-0.91,21.08-1.12,31.63c-0.24,12.15-0.84,24.34-0.11,36.45c0.8,13.19,10.37,19.86,23.43,21.14
			c10.61,1.04,21.26,1.67,31.9,2.48c15.15,1.14,30.3,2.2,45.43,3.45c6.99,0.58,13.95,1.49,20.92,2.28
			c10.06,1.14,20.09,2.67,30.17,3.36c14.27,0.97,28.59,1.16,42.87,2.03c7,0.43,13.98,1.45,20.91,2.55
			c10.17,1.61,20.23,4.47,30.43,5.07c12.7,0.75,25.98,1.78,38.15-1.03c13.84-3.21,26.87-10.23,40-16.16
			c10.11-4.56,19.83-10.01,29.73-15.04c14.05-7.13,28.21-14.24,39.62-25.31c14.31-13.89,20.74-30.57,16.92-50.92
			c-1.37-7.31-2.24-15.54,4.18-21.62c1.78-1.68,4.55-3.21,6.89-3.24c7.45-0.1,14.92,0.55,22.38,0.9
			c10.04,0.48,20.07,0.93,30.11,1.43c9.93,0.49,19.86,1.06,29.79,1.54c15.01,0.73,30.02,1.31,45.02,2.16
			c8.7,0.49,17.38,1.47,26.08,2.05c10.11,0.67,20.24,1.13,30.35,1.73c6.82,0.4,13.64,0.8,20.44,1.36
			c10.29,0.84,20.57,1.81,31.91,2.82c-1.75,1.89-2.7,3.49-4.11,4.33c-7.92,4.71-14.76,10.98-24.55,12.83
			c-11.63,2.19-19.4,14.47-19.08,26.57c0.46,17.55,2.54,35.01,0.43,52.69c-1.04,8.74,0.92,17.9,2.03,26.81
			c1,8.08,7.03,13.01,15.1,13.9c9.8,1.08,19.54,2.82,29.34,3.86c11.88,1.26,23.83,1.97,35.72,3.13c14.98,1.47,29.92,3.27,44.9,4.71
			c18.87,1.81,37.76,3.39,56.64,5.06c18.85,1.66,37.69,3.42,56.55,4.92c9.59,0.76,19.22,1.2,28.83,1.54
			c11.15,0.39,21.62-2.22,31.64-7.24c6.78-3.4,14.11-5.72,20.89-9.1c16.3-8.13,32.78-15.99,48.52-25.11
			c16.59-9.6,30.52-22.85,37.6-40.86c3.63-9.24,2.95-20.22,3.99-30.44c0.72-7.1,0.44-14.37,1.78-21.33
			c1.06-5.5,11.4-10.59,19.18-10.12c8.21,0.49,16.38,1.55,24.58,2.28c5.52,0.5,11.07,0.77,16.59,1.32
			c7.63,0.75,15.23,1.89,22.87,2.45c15.11,1.11,30.25,1.9,45.37,2.91c9.46,0.63,18.91,1.51,28.37,2.15
			c15.75,1.07,31.53,1.75,47.24,3.2c8.19,0.75,16.42,2.21,24.36,4.36c17.07,4.64,34.2,9.25,50.82,15.22
			c9.6,3.45,18.9,8.65,27.16,14.68c12,8.76,23.52,18.39,34.09,28.81c6.38,6.3,11.44,14.38,15.54,22.45
			c4.73,9.33,8.09,19.42,11.42,29.39c5.93,17.76,7.1,36.26,8.09,54.83c1.04,19.43,3,38.81,4.72,58.2c1.62,18.34,3.51,36.66,5.18,55
			c1.76,19.37,3.25,38.77,5.1,58.13c1.38,14.39,3.8,28.71,4.54,43.13c0.71,13.69-4.14,21.87-17.14,28.05
			c-17.79,8.46-33.96,19.55-49.03,32.25c-1.27,1.07-2.73,1.91-4.08,2.87c-8.94,6.38-17.93,12.7-26.81,19.16
			c-9.94,7.23-11.73,17.87-8.98,28.44c2.17,8.33-1.62,13.04-6.62,17.12c-18.64,15.17-38.18,28.93-60.12,39.24
			c-18.68,8.77-36.71,18.91-55.13,28.24c-18.23,9.24-36.58,18.26-54.92,27.29c-4.93,2.43-10.44,6.86-14.94,6.08
			c-4.31-0.75-8.04-6.77-11.32-11.03c-3.93-5.11-7.66-1.38-11.03-0.11c-8.23,3.11-16.14,7.04-24.29,10.4
			c-9.72,4-19.57,7.68-29.32,11.62C1496.9,731.82,1488.75,735.32,1479.77,739.08z M1507.83,662.5c10.01-6.13,19.36-12.04,28.9-17.64
			c12.48-7.32,25.11-14.39,37.66-21.58c12.03-6.9,24.04-13.85,36.08-20.72c18.32-10.45,36.71-20.8,55-31.3
			c18.3-10.5,36.51-21.14,54.77-31.71c18.95-10.96,37.92-21.91,56.87-32.86c12.32-7.12,24.58-14.33,36.97-21.32
			c9.03-5.1,18.71-9.2,27.24-15.02c10.88-7.43,21.5-15.14,19.7-31.53c-2.48-22.66-3.55-45.48-5.17-68.24
			c-1.05-14.69-2.03-29.38-2.99-44.08c-0.56-8.49-0.8-17.01-1.56-25.48c-1.44-16.21-2.69-32.47-4.91-48.58
			c-1.21-8.81-4.24-17.36-6.82-27.49c-8.54,6-15.35,11.04-22.41,15.7c-11.73,7.73-23.49,15.43-35.47,22.76
			c-14.83,9.07-29.91,17.73-44.85,26.6c-7.12,4.23-14.2,8.52-21.28,12.82c-16.63,10.1-33.21,20.28-49.89,30.31
			c-9.06,5.45-18.32,10.56-27.4,15.98c-20.37,12.15-40.64,24.47-61.04,36.56c-11.35,6.72-22.81,13.26-34.37,19.6
			c-15.41,8.46-31.04,16.54-46.43,25.05c-4.84,2.68-9.88,5.6-13.61,9.57c-5.31,5.65-9.21,12.75-8.31,20.87
			c1.52,13.77,3.9,27.44,5.7,41.18c2.44,18.65,4.7,37.33,6.99,56c2.34,19.11,5.37,38.17,6.72,57.36
			C1495.12,631.81,1501.64,646.37,1507.83,662.5z"/>
		<path class="st0" d="M114.25,792.05c-13.87-1.33-27-4.88-39.75-11.28c-20.28-10.18-33.19-26.28-40.36-47.16
			c-2.73-7.94-4.28-16.52-4.87-24.92c-1.07-15.05-0.97-30.18-1.43-45.28c-0.37-11.98-0.65-23.96-1.32-35.93
			c-1.1-19.65-2.45-39.29-3.75-58.93c-0.79-11.98-1.75-23.94-2.46-35.93c-0.82-13.83-1.42-27.67-2.14-41.5
			c-0.44-8.55,5.77-14.79,14.42-13.64c13.67,1.82,27.24,4.35,40.89,6.28c15.04,2.13,30.14,3.79,45.18,5.91
			c10.4,1.47,20.71,3.56,31.11,5.04c15.28,2.17,30.61,4.04,45.92,6.03c7.21,0.94,14.45,1.66,21.58,3c1.56,0.29,3.65,2.68,3.87,4.33
			c2.13,15.4,4.09,30.83,5.76,46.29c2.07,19.28,3.59,38.62,5.79,57.89c1.18,10.37,3.09,20.67,5.04,30.94
			c1.01,5.34,10.25,11.41,17.06,11.97c10.7,0.88,21.38,2.01,32.1,2.7c15.57,0.99,31.16,1.53,46.73,2.54
			c15.33,0.99,30.63,2.51,45.97,3.47c15.29,0.96,30.61,1.34,45.9,2.33c9.95,0.64,19.86,1.98,29.79,2.89
			c13.71,1.26,27.43,2.45,41.15,3.62c19.08,1.63,38.17,3.27,57.26,4.82c18.45,1.5,36.92,2.79,55.36,4.39
			c19.67,1.71,39.31,3.71,58.97,5.54c18.64,1.74,37.28,3.45,55.92,5.16c18.83,1.72,37.67,3.4,56.5,5.13
			c12.73,1.17,25.45,2.44,38.18,3.58c12.08,1.09,24.16,2.05,36.24,3.11c19.26,1.7,38.52,3.44,57.77,5.15
			c18.22,1.62,36.44,3.22,54.66,4.83c19.26,1.7,38.52,3.39,57.77,5.11c12.51,1.12,25.02,2.28,37.53,3.44
			c12.74,1.18,25.49,2.33,38.22,3.55c12.71,1.22,25.4,3.39,38.11,3.5c8.37,0.07,17.26,3.89,25.38-1.73
			c4.37-3.02,6.82-6.26,6.29-12.28c-1.48-16.91-1.98-33.9-3.14-50.84c-1.02-14.85-2.75-29.65-3.56-44.51
			c-0.57-10.32-0.11-20.69-0.11-31.94c4.56,0,9.63-0.12,14.69,0.03c9.07,0.26,18.14,0.76,27.21,1c7.83,0.22,15.67,0.2,23.5,0.33
			c11.69,0.2,20.2,7.27,27.89,14.56c5.78,5.47,9.61,12.99,14.29,19.61c11.01,15.57,20.72,32.31,33.37,46.41
			c14.38,16.02,30.56,30.72,50.59,40.08c6.55,3.06,12.93,6.51,19.58,9.32c15.85,6.68,32.68,8.91,49.57,11.41
			c13.57,2.01,27.57,4.19,38.73,13.48c1.91,1.59,3.54,4.49,3.81,6.95c1.32,11.89,2.55,23.81,3,35.75
			c0.42,11.33,0.4,22.73-0.46,34.02c-0.74,9.69-3,19.25-4.47,28.89c-2.84,18.7-15.59,27.8-31.72,34.77
			c-19.78,8.55-40.25,11.89-61.47,10.73c-6.32-0.34-12.81-2.72-16.27-9.14c-5.96-11.08-11.97-22.15-17.67-33.37
			c-8.7-17.11-18.4-33.72-34.41-44.8c-14.41-9.97-30.55-16.41-48.8-14.28c-7.32,0.86-14.86,1.16-21.86,3.23
			c-26.56,7.87-44.92,24.66-53.06,51.62c-4.85,16.06-19.42,29-35.9,30.16c-6.52,0.46-13.21-1.13-19.79-2
			c-6.5-0.85-12.95-2.08-19.45-2.95c-16.8-2.26-33.58-4.78-50.44-6.51c-17.83-1.84-35.73-3.04-53.62-4.26
			c-15.35-1.05-30.74-1.61-46.1-2.63c-15.23-1.01-30.42-2.57-45.66-3.44c-15.64-0.89-31.32-1.08-46.97-1.85
			c-8.63-0.42-17.22-1.48-25.84-2.12c-12.27-0.91-24.56-1.55-36.81-2.56c-15.24-1.25-30.46-2.79-45.7-4.15
			c-18.85-1.67-37.71-3.24-56.56-4.92c-18.85-1.68-37.69-3.5-56.54-5.15c-19.26-1.69-38.52-3.4-57.8-4.83
			c-18.31-1.36-35.21-6.12-49.54-18.28c-8.22-6.98-13.83-15.73-18.5-25.24c-4.52-9.22-7.61-19.53-13.75-27.49
			c-9.45-12.25-22.17-20.96-37.89-24.24c-6.99-1.46-13.92-4.26-20.92-4.42c-10.08-0.23-20.78-0.36-30.12,2.74
			c-8.21,2.73-15.59,9.27-22.14,15.4c-7.65,7.17-14.17,15.58-20.87,23.71c-7.23,8.78-14.43,17.61-21,26.88
			c-6.72,9.48-15.71,10.74-26.25,9.74c-25.79-2.43-39.22-18.58-46.96-41.32c-2.9-8.53-6.01-17.03-8.31-25.73
			c-2.96-11.24-10.43-19.44-18.63-26.45c-14.31-12.24-31.35-14.94-49.41-9.86c-6.67,1.88-13.29,4.17-19.62,6.98
			c-10.04,4.45-20.27,8.75-29.6,14.45c-13.19,8.07-26,16.95-32.79,31.86C111.78,770.91,112.73,781.21,114.25,792.05z M116.14,691.2
			c-1.5-10.77-2.79-19.78-4.01-28.79c-0.61-4.52-0.4-9.29-1.83-13.53c-1.18-3.51-3.73-8.51-6.53-9.17
			c-8.76-2.05-17.92-2.41-26.94-3.24c-0.96-0.09-2.66,0.83-2.97,1.68c-2.52,6.76-5.7,13.45-6.9,20.47c-1.38,8.1-1.1,16.5-1.24,24.78
			c-0.22,13.64-0.36,27.29-0.13,40.93c0.05,3.17,0.79,7.19,2.79,9.33c9.3,9.93,21.32,13.68,34.69,13.27
			c6.69-0.2,13.15-7.32,13.1-13.49C116.05,718.79,116.14,704.13,116.14,691.2z"/>
		<path class="st0" d="M1456.43,716.41c-16.43-1.95-31.92-3.92-47.45-5.57c-7.95-0.85-15.97-1.08-23.95-1.69
			c-1.18-0.09-2.46-0.5-3.45-1.13c-16.72-10.73-35.21-18.87-49.05-33.8c-10.77-11.62-22.61-22.4-32.15-34.95
			c-10.58-13.91-19.05-29.43-28.52-44.2c-4.78-7.46-10.49-14.51-19.04-17.26c-6.7-2.15-14.11-2.33-21.24-2.89
			c-9.88-0.78-19.79-1.16-29.7-1.59c-10.03-0.43-20.08-0.51-30.11-1.12c-10.1-0.61-20.16-1.74-30.25-2.52
			c-14.93-1.16-29.88-2.08-44.8-3.35c-9.65-0.82-19.24-2.19-28.88-3.11c-15.32-1.47-30.66-2.7-45.97-4.19
			c-9.44-0.92-18.83-2.3-28.27-3.17c-15.73-1.45-31.5-2.53-47.23-4.03c-9.87-0.94-19.67-2.55-29.54-3.54
			c-15.29-1.53-30.61-2.7-45.9-4.19c-9.66-0.94-19.27-2.39-28.93-3.27c-15.97-1.46-31.98-2.6-47.96-3.96
			c-7.42-0.63-14.82-1.54-22.24-2.21c-16.22-1.45-32.43-3.02-48.67-4.16c-18.54-1.3-37.11-2-55.65-3.28
			c-19.06-1.32-38.12-2.76-57.13-4.66c-18.64-1.86-37.22-4.36-55.82-6.59c-12.87-1.54-25.73-3.08-38.59-4.63
			c-18.35-2.21-36.68-4.59-55.05-6.62c-19.26-2.13-38.55-4.01-57.83-5.89c-19.04-1.86-38.09-3.58-57.14-5.36
			c-12.74-1.19-25.48-2.35-38.22-3.53c-18.63-1.72-37.25-3.48-55.88-5.17c-19.06-1.73-38.13-3.41-57.2-5.06
			c-11.88-1.03-23.78-1.83-35.65-2.96c-19.49-1.85-38.95-3.97-58.44-5.81c-12.07-1.14-24.16-2.03-36.25-2.94
			c-8.11-0.61-16.24-1.04-24.36-1.57c-8.13-0.53-21.4-12.6-22.47-20.58c-2.12-15.76-4.36-31.51-6.12-47.31
			c-1.76-15.79-3.83-31.62-4.22-47.47c-0.4-16.43,0.54-32.95,1.89-49.35c0.81-9.81,4.26-19.4,5.22-29.21
			c1.31-13.4,10.14-19.89,20.63-25.36c1.41-0.73,3.15-1.1,4.75-1.14c7.64-0.21,15.28-0.13,22.92-0.38
			c16.14-0.53,32.27-1.47,48.41-1.7c10.35-0.14,20.72,0.6,31.07,1.11c14.71,0.73,29.44,1.37,44.13,2.49
			c8.83,0.67,17.59,2.26,26.4,3.3c18.32,2.16,36.67,4.1,54.98,6.37c15,1.86,29.94,4.14,44.93,6.14c19.29,2.57,38.56,5.3,57.89,7.5
			c21.26,2.42,42.58,4.27,63.86,6.46c15.4,1.58,30.76,3.54,46.17,4.91c17.17,1.53,34.4,2.5,51.59,3.87
			c15.28,1.22,30.54,2.73,45.83,3.96c21.1,1.69,42.23,3.12,63.33,4.87c9.65,0.8,19.23,2.32,28.88,3.11
			c14.94,1.22,29.93,1.99,44.87,3.15c9.24,0.72,18.44,1.96,27.68,2.72c15.97,1.32,31.96,2.4,47.94,3.7
			c6.77,0.55,13.52,1.42,20.28,2.1c16.85,1.71,33.7,3.47,50.56,5.09c12.95,1.24,25.92,2.31,38.88,3.41
			c18.67,1.6,37.33,3.26,56.01,4.72c20.94,1.64,41.91,2.95,62.84,4.65c9.85,0.8,19.63,2.47,29.48,3.28
			c14.75,1.21,29.54,1.86,44.29,3.05c9.44,0.76,18.87,1.8,28.24,3.18c4.96,0.73,9.33,1.51,10.24-5.12
			c17.25,1.62,34.09,3.36,50.96,4.73c20.86,1.7,41.77,2.77,62.61,4.7c16.45,1.52,32.77,4.43,49.22,5.8
			c14.89,1.24,29.18,4.6,43.25,9.27c1.18,0.39,2.43,0.78,3.41,1.49c13.1,9.45,26.59,18.43,39.11,28.59
			c12.73,10.33,23.09,22.88,32.41,36.59c7.63,11.22,14.18,22.68,18.03,35.53c3.71,12.39,7.16,24.94,9.49,37.64
			c3.47,18.89,6.04,37.96,8.66,57c1.67,12.1,2.79,24.28,4.07,36.43c1.32,12.53,2.62,25.07,3.76,37.62
			c1.3,14.19,2.87,28.38,3.45,42.6c0.35,8.66-0.89,17.38-1.53,26.07C1457.72,702.62,1457.07,709.15,1456.43,716.41z M1237.38,550.5
			c0.68-8.43,2.19-15.9,1.7-23.24c-1.25-18.39-3.36-36.73-5.23-55.08c-0.69-6.81-1.69-13.58-2.53-20.38
			c-2-16.21-3.79-32.45-6.07-48.62c-0.79-5.63-2.06-11.41-4.36-16.57c-2.65-5.97-8.49-8.64-14.8-9.14
			c-16.7-1.32-33.43-2.28-50.15-3.41c-18.52-1.25-37.04-2.53-55.57-3.81c-18.28-1.26-36.56-2.48-54.83-3.84
			c-8.66-0.65-17.28-1.78-25.93-2.36c-15.64-1.04-31.3-1.71-46.94-2.73c-17.51-1.15-35.01-2.44-52.5-3.81
			c-19.75-1.55-39.48-3.31-59.23-4.88c-18.29-1.45-36.59-2.72-54.87-4.17c-19.36-1.54-38.7-3.19-58.05-4.82
			c-12.1-1.02-24.2-2.13-36.3-3.12c-18.93-1.55-37.88-2.98-56.81-4.58c-18.92-1.59-37.84-3.3-56.75-4.99
			c-12.56-1.12-25.11-2.31-37.67-3.45c-18.93-1.71-37.87-3.36-56.8-5.12c-18.67-1.74-37.32-3.56-55.98-5.38
			c-12.53-1.22-25.06-2.5-37.59-3.75c-18.94-1.89-37.88-3.73-56.82-5.67c-19.49-2-38.96-4.1-58.44-6.13
			c-12.09-1.26-24.19-2.5-36.29-3.72c-19.07-1.93-38.15-3.7-57.2-5.8c-16.66-1.84-33.28-4.08-49.93-6.11
			c-6.54-0.8-13.09-1.57-19.65-2.23c-17.46-1.77-34.93-3.55-52.4-5.16c-7.18-0.66-14.41-1.36-21.61-1.24
			c-12.77,0.21-18.19,4.82-19.6,17.48c-0.91,8.2-0.54,16.6-0.19,24.89c0.66,15.89,1.84,31.75,2.56,47.64
			c0.42,9.31-0.3,18.72,0.71,27.96c1.79,16.4,4.68,32.68,6.74,49.06c0.56,4.46,2.45,6.06,6.67,6.37
			c13.24,0.96,26.46,2.15,39.69,3.26c6.78,0.57,13.56,1.26,20.35,1.78c15.41,1.18,30.82,2.2,46.22,3.47
			c9.69,0.8,19.34,2.11,29.03,2.91c15.19,1.25,30.4,2.17,45.59,3.4c9.69,0.79,19.34,2.04,29.02,2.82
			c21.35,1.72,42.72,3.22,64.07,4.9c18.1,1.42,36.19,2.96,54.29,4.45c19.14,1.57,38.28,3.11,57.42,4.73
			c12.76,1.08,25.5,2.31,38.25,3.42c18.47,1.61,36.94,3.2,55.41,4.75c25.1,2.11,50.2,4.16,75.3,6.29c19.3,1.64,38.6,3.33,57.9,5.05
			c14.84,1.32,29.67,2.74,44.51,4.05c19.54,1.72,39.08,3.35,58.61,5.09c7.81,0.7,15.6,1.72,23.42,2.35
			c16.03,1.3,32.07,2.36,48.1,3.68c8.85,0.73,17.66,1.92,26.51,2.64c16.87,1.37,33.77,2.45,50.65,3.83
			c19.34,1.58,38.66,3.31,57.99,5.04c8.02,0.72,16.02,1.77,24.04,2.4c16.26,1.29,32.55,2.31,48.81,3.62
			c8.86,0.71,17.68,1.94,26.54,2.66c15.6,1.27,31.23,2.21,46.83,3.5c9.9,0.82,19.75,2.22,29.66,2.99
			c14.58,1.12,29.21,1.73,43.79,2.89C1210.04,547.61,1223.38,549.12,1237.38,550.5z M1431.43,642.29c0.32-0.04,0.64-0.09,0.95-0.13
			c0-2.51,0.16-5.03-0.03-7.53c-1.61-21.67-3.36-43.33-4.91-65.01c-0.68-9.51-0.78-19.07-1.59-28.57c-0.6-7-1.39-14.08-3.09-20.88
			c-2.14-8.57-6.01-16.73-7.81-25.35c-2.06-9.87-7.48-17.49-13.56-24.9c-1.4-1.71-3.39-3.2-5.42-4.08
			c-8.94-3.85-18.07-6.44-28.04-6.78c-18.32-0.63-36.61-2.18-54.9-3.55c-7.82-0.59-15.61-2.4-23.4-2.33
			c-5.61,0.05-11.77,1.24-16.63,3.88c-3.67,2-7.48,6.8-8.09,10.83c-2.11,14.02,0.04,27.95,4.37,41.43
			c5.2,16.17,10.36,32.35,16.17,48.3c2.66,7.32,6.47,14.29,10.38,21.06c8.66,15,17.47,29.93,26.69,44.59
			c6.41,10.19,12.5,20.94,20.73,29.53c8.41,8.77,19.14,15.36,29.05,22.63c13.61,9.99,29.47,14.96,45.44,19.5
			c5.13,1.46,14.73-1.52,15.64-5.09c1.47-5.75,2.78-11.86,2.36-17.7C1435.04,662.15,1432.94,652.24,1431.43,642.29z"/>
		<path class="st0" d="M698.02,569.04c0-2.49,0.03-4.99-0.01-7.48c-0.1-6.89,5.73-14.82,12.58-15.54
			c7.33-0.76,14.81-0.73,22.18-0.33c15.59,0.85,31.17,2,46.73,3.33c10.35,0.88,20.63,2.46,30.98,3.38
			c15.12,1.35,30.28,2.32,45.41,3.59c9.9,0.83,19.77,2,29.67,2.83c15.32,1.28,30.66,2.31,45.98,3.62
			c9.23,0.79,18.42,2.04,27.65,2.82c15.53,1.32,31.09,2.38,46.63,3.66c7.58,0.62,15.14,1.51,22.72,2.23
			c13.54,1.29,27.09,2.5,40.63,3.84c16.97,1.68,33.92,3.49,50.89,5.18c15.84,1.58,27.56,15.01,28.49,32.14
			c1.16,21.32,2.62,42.62,4.06,63.92c0.54,8.01,1.69,15.99,1.91,23.99c0.07,2.63-1.25,5.99-3.11,7.84
			c-5.41,5.39-10.87,9.48-20.06,7.92c-20.48-3.49-41.2-5.68-61.89-7.74c-20.86-2.08-41.79-3.33-62.69-5.01
			c-15.7-1.26-31.38-2.73-47.07-3.94c-17.57-1.36-35.16-2.56-52.75-3.79c-16.82-1.18-33.64-2.22-50.46-3.48
			c-16.32-1.22-32.61-2.8-48.93-3.89c-15.27-1.02-30.58-1.4-45.84-2.47c-12.53-0.88-25.17-1.55-37.45-3.92
			c-6.77-1.31-13.06-6.04-15.07-13.59c-1.69-6.35-2.82-12.91-3.57-19.45c-1.93-16.83-3.57-33.69-5.23-50.55
			c-0.95-9.68-1.71-19.39-2.55-29.08C697.9,569.06,697.96,569.05,698.02,569.04z"/>
		<path class="st0" d="M693.97,678.31c-13.31-1.74-26.27-3.65-39.28-5.07c-14.87-1.63-29.79-2.76-44.67-4.22
			c-15.41-1.51-30.79-3.42-46.22-4.66c-15.76-1.26-31.58-1.77-47.35-2.9c-9.86-0.71-19.67-2.16-29.53-2.91
			c-14.76-1.13-29.54-1.91-44.31-2.89c-7.88-0.52-15.75-1.07-23.61-1.75c-16.23-1.39-32.43-3.08-48.67-4.27
			c-18.68-1.37-37.39-2.36-56.1-3.45c-14.34-0.83-28.68-1.57-43.01-2.34c-8.47-0.45-21.34-10.9-22.57-19.42
			c-1.95-13.52-3.1-27.15-4.58-40.73c-1.65-15.2-3.49-30.39-4.85-45.61c-0.61-6.79-0.77-13.7-0.2-20.48
			c0.56-6.66,8.27-13.03,15.42-12.94c9.34,0.12,18.68,0.82,28.01,1.49c15.13,1.08,30.27,2.24,45.38,3.55
			c9.03,0.78,18.01,2.09,27.03,2.84c15.76,1.31,31.54,2.33,47.31,3.58c6.57,0.52,13.12,1.31,19.67,2.05
			c10.26,1.16,20.49,2.64,30.77,3.53c14.73,1.26,29.49,2.04,44.23,3.17c6.57,0.51,13.11,1.37,19.67,2.1
			c10.47,1.15,20.92,2.53,31.41,3.43c14.49,1.25,29.03,1.98,43.52,3.25c9.04,0.8,18.01,2.36,27.05,3.28
			c10.81,1.1,21.73,1.36,32.48,2.9c20.14,2.9,26.15,3.8,29.71,26.9c1.49,9.63,2.25,19.37,3.53,29.03c1.9,14.3,3.99,28.58,5.93,42.88
			c0.31,2.26,0.13,4.59,0.36,6.87C691.58,656.1,692.73,666.67,693.97,678.31z"/>
		<path class="st0" d="M1098.39,106.51c11.42-6.72,22.45-13.18,33.46-19.68c8.89-5.24,17.35-11.45,26.73-15.54
			c9.99-4.35,20.65-8,31.36-9.59c12.96-1.92,26.28-1.53,39.45-1.84c21.07-0.5,42.15-1.07,63.23-1.02
			c20.24,0.04,40.51,0.31,60.7,1.46c15.2,0.87,30.33,3.17,45.47,5.04c11.93,1.47,23.82,3.26,35.2,4.84
			c2.72,6.52,0.29,8.99-5.09,11.33c-13.82,6.01-27.53,12.38-40.76,19.58c-7.57,4.12-13.75,10.77-21.23,15.11
			c-7.74,4.5-16.04,8.51-24.59,11.01c-6.97,2.03-14.73,2.36-22.06,1.96c-21.62-1.17-43.21-3.02-64.81-4.69
			c-18.87-1.46-37.73-2.98-56.59-4.55c-12.46-1.03-24.9-2.29-37.36-3.26c-17.91-1.4-35.83-2.57-53.74-3.98
			C1101.4,112.18,1101.42,111.97,1098.39,106.51z"/>
		<path class="st0" d="M823.65,31.02c-6.13,5.34-12.76,10.22-18.25,16.15c-6.81,7.35-16.62,7.82-24.53,12.35
			c-13.41,7.69-26.11,16.69-39.78,23.87c-14.33,7.54-29.89,7.83-45.88,5.41c-15.83-2.4-31.9-3.16-47.86-4.72
			c-10.28-1.01-20.54-2.35-30.83-3.21c-14.35-1.19-28.73-2.02-43.09-3.08c-9.32-0.69-18.62-1.62-27.93-2.26
			c-10.02-0.69-20.07-1.01-30.08-1.81c-7.73-0.62-15.42-1.72-23.76-2.68c4.75-3.86,9.02-7.6,13.55-10.97
			c16.24-12.09,31.96-25.24,50.86-32.9c9.63-3.9,20.33-6.47,30.68-7.01c25.15-1.32,50.39-1.24,75.59-1.43
			c13.23-0.1,26.46,0.48,39.69,0.66c15.21,0.21,30.47-0.35,45.63,0.64c15.77,1.03,31.46,3.45,47.17,5.37
			c9.12,1.11,18.21,2.44,27.32,3.67C822.65,29.71,823.15,30.37,823.65,31.02z"/>
		<path class="st0" d="M1888.92,616.28c-9.12,8.11-17.73,16.13-26.74,23.68c-11.25,9.42-22.23,19.38-34.44,27.41
			c-14.12,9.29-29.51,16.63-44.25,24.99c-12.56,7.12-25.03,14.42-37.46,21.76c-18.27,10.79-36.45,21.74-54.72,32.54
			c-18.69,11.04-37.42,21.99-56.17,32.94c-12.15,7.09-24.3,14.19-36.54,21.12c-18.71,10.59-37.5,21.03-56.24,31.56
			c-12.04,6.77-24.09,13.51-36.04,20.42c-6.04,3.5-11.87,7.36-18.19,11.3c-2.61-18.32,2.22-27.17,17.74-36.63
			c12.52-7.63,14.87-16.08,10.74-30.05c-2.89-9.79-7.24-16.93-17.21-20.08c-1.51-0.48-2.75-1.86-4.07-2.89
			c-12.92-10.07-12.77-13.33,0.72-21.95c4.28-2.74,8.33-5.84,12.29-8.64c6.26,6.71,12.1,12.56,17.46,18.82
			c8.89,10.38,17.56,20.96,26.16,31.59c3.25,4.02,5.76,5.76,11.13,2.15c8.91-5.98,18.88-10.36,28.07-15.95
			c14.05-8.55,27.72-17.72,41.74-26.33c10.24-6.29,20.81-12.06,31.18-18.15c13.01-7.63,25.98-15.34,38.96-23.03
			c18.48-10.96,36.97-21.89,55.41-32.91c11.45-6.85,23.18-13.31,34.13-20.9c12.17-8.44,24.72-16.59,33.39-29.26
			c10.25-14.96,10.72-31.29,7.51-48.19c-1.81-9.54-1.41-18.92,5.01-26.33c10.12-11.68,24.45-16.17,39.95-21.29
			c-4.11,6.68-7.45,12.03-10.7,17.44c-3.08,5.12-6.07,10.3-9.07,15.47c-8.13,14-0.61,30.65,12.31,38.47
			C1876.98,609,1882.97,612.66,1888.92,616.28z"/>
		<path class="st0" d="M1354.62,220.31c-0.83-7.41-1.81-13.55-2.15-19.72c-0.57-10.37-0.69-20.76-1.09-31.14
			c-0.21-5.35-0.75-10.69-0.91-16.05c-0.17-5.47,2.29-9.1,7.22-12.01c15.77-9.31,31.22-19.17,46.85-28.71
			c8.49-5.18,17.17-10.07,25.66-15.26c10.04-6.13,19.96-12.44,29.96-18.63c0.81-0.5,1.82-0.7,3-1.14
			c1.42,16.09,3.8,31.71,3.92,47.36c0.14,17.46-4.55,33.31-20.47,44.11c-17,11.54-34.71,21.6-53.18,30.53
			C1380.61,205.86,1368.25,213.01,1354.62,220.31z"/>
		<path class="st0" d="M743.66,178.9c-0.67-5.72-1.56-10.98-1.86-16.28c-0.91-15.72-1.26-31.48-2.49-47.18
			c-0.72-9.2,4-13.88,11.21-17.91c15.65-8.76,31.13-17.81,46.57-26.95c16.86-9.98,33.58-20.21,50.39-30.29
			c1.21-0.73,2.6-1.15,4.32-1.89c0.65,4.53,1.52,8.66,1.78,12.82c0.66,10.48,1.39,20.97,1.43,31.46c0.03,6.93-0.77,13.91-1.8,20.77
			c-0.53,3.52-1.73,7.31-3.77,10.15c-6.03,8.36-12.55,15.99-22.32,20.87c-19.93,9.95-39.34,20.95-58.98,31.48
			C760.05,170.28,751.91,174.54,743.66,178.9z"/>
		<path class="st0" d="M524.78,101.35c0,12.06-0.26,23.57,0.09,35.06c0.25,8.43-9.7,21.47-17.97,24.13
			c-13.97,4.49-23.14-6.31-25.38-17.79c-2.47-12.67-2.99-25.75-4.05-38.67c-0.5-6.15,3.07-10.13,8.59-12.07
			c8.49-2.98,16.67-6.13,26.37-4.59c13.61,2.15,27.51,2.47,41.28,3.56c18.45,1.46,36.9,2.87,55.35,4.36
			c12.51,1.01,25.01,2.31,37.54,3.09c14.24,0.89,28.61,0.54,42.74,2.26c9.81,1.19,20.55,1.43,28.21,9.62
			c1.24,1.32,2.86,2.79,3.15,4.4c1.58,8.86,3.25,17.75,4.02,26.7c0.73,8.41,0.48,16.9,0.49,25.36c0,2.43-0.25,4.98-1.02,7.25
			c-0.4,1.18-2.17,2.56-3.38,2.62c-1.53,0.08-4.1-0.7-4.54-1.79c-2.22-5.44-4.17-11.02-5.7-16.7c-2.87-10.68-2.15-22.36-9.12-31.9
			c-3.77-5.16-8.37-8.09-15.05-8.54c-10.93-0.75-21.78-2.54-32.7-3.55c-15.52-1.44-31.1-2.3-46.6-3.93
			c-16.01-1.68-31.94-4.16-47.94-5.94C548,103.02,536.76,102.34,524.78,101.35z"/>
		<path class="st0" d="M1326.95,217.92c-3.06-13.16-6.19-25.58-8.76-38.1c-1.73-8.44-6.66-14.71-13.02-19.65
			c-3.21-2.49-7.92-3.65-12.1-4.19c-10.15-1.29-20.39-1.99-30.61-2.71c-15.91-1.12-31.83-1.97-47.74-3.13
			c-9.05-0.66-18.07-1.82-27.12-2.57c-9.67-0.8-19.36-1.32-29.04-2.06c-8.02-0.61-16.02-1.36-24.98-2.13
			c0.59,9.83,0.38,19.1,1.84,28.11c3.18,19.71-6.49,30.35-26.17,28.85c-7.3-0.56-13.23-2.21-17.58-8.17
			c-1.19-1.63-3.02-3.38-3.08-5.13c-0.55-15.3-1.74-30.67-0.75-45.88c0.67-10.39,7.57-14.77,18.48-14.7
			c6.35,0.04,12.71,0.64,19.04,1.26c16.38,1.62,32.74,3.48,49.12,5.06c13.15,1.27,26.32,2.24,39.48,3.37
			c18.66,1.59,37.32,3.26,55.98,4.78c14.31,1.17,28.71,1.55,42.9,3.52c5.8,0.81,12.33,3.74,16.32,7.85c3,3.09,3.01,9.57,3.41,14.61
			c1.14,14.28,1.94,28.59,2.57,42.9C1335.47,217.13,1334.02,218.19,1326.95,217.92z"/>
		<path class="st0" d="M1812.38,609.33c-3.99,14.39-11.6,26.16-24.79,33.96c-14.39,8.51-28.81,16.98-43.11,25.62
			c-18.4,11.12-36.66,22.47-55.05,33.59c-18.18,11-36.41,21.92-54.71,32.73c-12.41,7.33-24.93,14.48-37.47,21.56
			c-13.37,7.56-26.84,14.95-40.98,22.81c-2.01-3.76-3.81-7.14-6.3-11.79c13.72-10.3,26.72-21.19,40.85-30.36
			c18.19-11.81,37.09-22.57,56.04-33.16c18.21-10.17,36.9-19.45,55.31-29.27c18.23-9.72,36.55-19.27,54.47-29.54
			c12.72-7.29,24.98-15.44,37.16-23.63c6.09-4.09,11.53-9.14,17.27-13.75C1811.5,608.51,1811.94,608.92,1812.38,609.33z"/>
		<path class="st0" d="M419.8,862.92c-17.47-1.39-29.93-7.87-38.39-22.27c-7.09-12.07-11-24.53-11.39-38.57
			c-0.31-10.94,2.4-20.26,9.73-23.56c5.41-2.44,11.15-4.93,16.95-5.55c9.56-1.02,19.52-1.9,28.87-0.28
			c8.17,1.42,16.82,4.99,23.29,10.1c8.37,6.6,14.37,15.67,17.24,26.75c4.62,17.79,0.77,31.43-14.32,43
			C441.43,860.47,430.25,861.82,419.8,862.92z M445.48,817.72c-2.44-2.9-4.76-6.43-7.82-9.12c-5.71-5.02-11.5-10.09-17.89-14.14
			c-8.19-5.19-22.07-1.4-27.17,6.18c-6.24,9.26-6.49,19.46-5.51,29.93c0.17,1.78,0.86,3.75,1.92,5.18
			c13.04,17.57,26.6,12.75,40.22,1.01C435.64,831.24,440.39,823.8,445.48,817.72z"/>
		<path class="st0" d="M163.4,817.31c-6.94-0.84-13.92-1.52-20.81-2.66c-1.57-0.26-4.02-2-4.13-3.24
			c-1.53-16.2-3.51-32.42-3.73-48.65c-0.16-12.22,6.2-20.18,19.93-21.38c14.8-1.29,28.71-0.31,42.93,5.38
			c11.78,4.72,20.64,12.55,28.58,21.2c4.45,4.85,7.42,13.43,6.92,20.02c-1.6,21.13-15.86,38.3-37.02,42.68
			c-13.56,2.8-26.56-3.1-32.84-13.49c9.64-1.75,19.48-1.99,28.61-6.76c5.42-2.84,10.52-5.23,14.17-10.47
			c5.1-7.32,3.97-24.91-3-30.38c-13.79-10.82-29-13.39-45.1-2.2c-7.53,5.23-9.64,13.67-8.68,22.81
			C150.41,801.46,158.21,808.54,163.4,817.31z"/>
		<path class="st0" d="M1208.93,911.72c-4.69,0.37-9.38,0.73-15.74,1.23c-0.95-14.71-1.56-29.07-2.89-43.36
			c-1.35-14.48,10.67-21.71,21.72-24.24c8.85-2.03,17.82-3.96,26.83-4.6c4.05-0.29,8.38,2.55,12.49,4.19
			c9.36,3.73,18.6,7.24,25.99,14.93c9.47,9.85,11.67,20.74,8.41,33.49c-3.23,12.6-11.52,21.57-21.62,28.64
			c-6.98,4.89-14.84,9.16-22.94,11.62c-7.36,2.24-15.03-1.38-20.59-6.37c-4.78-4.3-7.95-10.4-11.83-15.7
			c2.21,0.34,4.57,0.3,6.62,1.07c14.45,5.42,27.9,2.87,40.74-4.84c8.93-5.36,12.13-18.13,6.33-26.46
			c-6.58-9.43-15.29-15.12-26.87-18.1c-11.34-2.92-23.87,3.31-28.17,10.87c-1.99,3.5-3.16,8.2-2.8,12.18
			C1205.41,894.81,1207.42,903.24,1208.93,911.72z"/>
		<path class="st0" d="M1877.61,182.81c1.64,2.36,3.33,4.2,4.35,6.35c4.66,9.92,8.88,20.06,13.73,29.88
			c7.11,14.42,7.68,29.76,5.83,45.09c-1.66,13.8-6.69,26.76-14.15,38.63c-0.72,1.15-1.69,2.14-3.33,4.16
			c-0.97-12.73-2-24.16-2.67-35.62c-1.01-17.34-3.78-34.2-9.08-50.9c-3.37-10.6-5.69-22.41,2.76-32.66
			C1876.02,186.57,1876.5,184.99,1877.61,182.81z"/>
		<path class="st0" d="M694.96,151.19c0.16,8.82-0.35,9.7-8.42,10.84c-15.19,2.14-30.4,2.32-45.63-0.06
			c-20.08-3.14-40.18-6.18-60.29-9.06c-5.27-0.75-10.65-0.75-16.8-1.14c0.46-3.81,0.85-6.96,1.3-10.64
			C608.53,144.49,651.53,147.83,694.96,151.19z"/>
		<path class="st0" d="M1304.96,193.42c0,4.3,0,7.92,0,12.06c-5.29-0.31-10.74-0.45-16.15-1c-10.09-1.03-20.14-2.52-30.24-3.43
			c-20.66-1.86-41.33-3.45-62-5.16c-6.34-0.52-12.69-0.93-18.99-1.72c-1.07-0.13-2.6-1.82-2.75-2.94c-0.39-2.95-0.13-5.98-0.13-10.5
			C1218.53,185,1261.77,189.21,1304.96,193.42z"/>
		<path class="st0" d="M186.71,726.48c24.02-9.14,46.15-2.97,58.47,11.59c14.25,16.83,16.65,52.11,4.74,65.24
			c1.13-19.43-3.96-36.33-16.28-50.25C221.57,739.43,205.79,731.36,186.71,726.48z"/>
		<path class="st0" d="M432.2,753.24c11.47,1.78,23.03,3.15,34.37,5.58c3.48,0.75,7.36,3.76,9.3,6.84
			c6.6,10.44,13.71,20.86,18.15,32.25c4.28,10.99,5.57,23.93-4.09,32.6c-1.35-6.38-2.77-12.89-4.09-19.41
			c-2.12-10.48-7.14-20.01-14.34-27.19c-9.18-9.16-20.33-16.37-30.76-24.24c-2.75-2.07-5.99-3.49-9.01-5.21
			C431.89,754.06,432.04,753.65,432.2,753.24z"/>
		<path class="st0" d="M1301.29,862.1c-3.95-2.65-7.51-4.97-11-7.38c-11.54-7.97-23.13-15.87-34.53-24.04
			c-3.17-2.27-7.69-4.5-4.19-10.5c15.25,3.81,30.74,7.57,44.64,15.5c2.82,1.61,4.23,6.94,4.9,10.8
			C1301.92,851.28,1301.29,856.33,1301.29,862.1z"/>
		<path d="M1507.83,662.5c-6.19-16.13-12.72-30.69-13.88-47.22c-1.35-19.18-4.38-38.25-6.72-57.36c-2.29-18.67-4.55-37.35-6.99-56
			c-1.8-13.74-4.18-27.41-5.7-41.18c-0.9-8.12,3-15.22,8.31-20.87c3.73-3.96,8.77-6.88,13.61-9.57
			c15.38-8.52,31.01-16.59,46.43-25.05c11.56-6.35,23.03-12.88,34.37-19.6c20.41-12.08,40.67-24.41,61.04-36.56
			c9.08-5.41,18.34-10.53,27.4-15.98c16.67-10.03,33.26-20.21,49.89-30.31c7.08-4.3,14.16-8.59,21.28-12.82
			c14.95-8.87,30.03-17.53,44.85-26.6c11.98-7.33,23.74-15.02,35.47-22.76c7.06-4.66,13.87-9.69,22.41-15.7
			c2.58,10.12,5.61,18.68,6.82,27.49c2.22,16.12,3.47,32.37,4.91,48.58c0.75,8.47,1,16.99,1.56,25.48
			c0.96,14.7,1.94,29.39,2.99,44.08c1.62,22.76,2.68,45.58,5.17,68.24c1.8,16.38-8.82,24.1-19.7,31.53
			c-8.52,5.82-18.2,9.92-27.24,15.02c-12.39,6.99-24.65,14.21-36.97,21.32c-18.96,10.95-37.92,21.9-56.87,32.86
			c-18.26,10.56-36.47,21.21-54.77,31.71c-18.3,10.5-36.68,20.85-55,31.3c-12.05,6.87-24.05,13.82-36.08,20.72
			c-12.55,7.19-25.19,14.26-37.66,21.58C1527.2,650.46,1517.84,656.38,1507.83,662.5z M1811.24,362.99c0-11.7,0.85-26.44-0.32-41.01
			c-0.7-8.72-0.35-17.73-7.98-25.66c-9.86-10.24-22.92-10.57-33.62-5.43c-14.62,7.03-27.92,16.77-41.98,25.03
			c-14.23,8.36-18.47,20.93-14.56,36.04c3.3,12.72,7.51,25.33,12.71,37.38c3.64,8.44,8.95,16.41,14.72,23.63
			c11.38,14.24,26.17,24.43,41.92,33.53c6.32,3.65,11.06,3.64,17.02,0.15c10.45-6.11,19.45-23.38,17.96-33.85
			C1814.9,397.28,1813.4,381.65,1811.24,362.99z M1511.85,606.83c8.34-4.53,15.93-8.63,23.5-12.76
			c18.29-9.97,36.52-20.05,54.88-29.89c20-10.73,40.14-21.2,60.18-31.87c4.65-2.48,9.12-5.31,13.71-7.99
			c-2.79-3.7-4.4-6.43-6.57-8.6c-5.07-5.1-9.74-11.04-15.75-14.66c-14.02-8.45-26.08,0.14-37.43,6.97
			c-14.46,8.71-27.96,19.01-42.26,28.01c-8.9,5.6-18.61,9.91-27.81,15.06c-5.9,3.3-12.13,6.41-17.07,10.88
			c-3.47,3.14-5.48,8.24-7.32,12.79C1505.67,585.31,1510.46,595.52,1511.85,606.83z M1519.73,636.92
			c6.12-3.77,12.07-7.63,18.19-11.19c11.38-6.62,22.82-13.14,34.29-19.59c13.51-7.59,27.06-15.13,40.66-22.57
			c8.74-4.78,17.64-9.28,26.4-14.04c7.62-4.15,15.17-8.45,22.69-12.78c14.69-8.45,29.29-17.08,44.03-25.44
			c9.73-5.52,19.75-10.53,29.45-16.09c20.23-11.58,40.29-23.47,60.53-35.05c13.27-7.6,26.72-14.88,40.67-22.63
			c-2.1-3.52-3.91-6.56-5.83-9.79c-1.96,1.81-2.96,3.18-4.3,3.9c-8.96,4.79-18.04,9.36-26.99,14.17
			c-8.2,4.41-16.28,9.02-24.41,13.57c-5.94,3.32-11.9,6.59-17.77,10.01c-14.42,8.41-28.75,16.96-43.19,25.33
			c-11.61,6.73-23.29,13.35-35.01,19.9c-19.48,10.88-39.04,21.61-58.51,32.5c-11.17,6.24-22.18,12.76-33.36,18.98
			c-22.43,12.48-44.94,24.82-67.4,37.26c-2.1,1.16-4.07,2.54-5.97,3.73C1515.93,630.51,1517.56,633.25,1519.73,636.92z
			 M1694.38,339.6c-16.26,7.78-31.46,14.66-46.29,22.26c-12.65,6.48-25.64,12.39-35.97,22.85c-6.41,6.5-11.16,12.73-7.18,22.68
			c13.8-1.47,26.33-6.63,38.93-12.58c16.49-7.79,30.55-18.45,42.25-32.06C1691.06,356.99,1695.08,349.85,1694.38,339.6z
			 M1835.42,334.06c-1.68-25.39-3.38-50.98-5.13-77.5c-4.68,1.1-7.8,1.83-10.38,2.44c0.54,6.79,0.76,12.99,1.58,19.11
			c2.34,17.53,5.08,35.02,7.3,52.57C1829.32,334.81,1830.81,335.66,1835.42,334.06z M1835.57,353.64c-0.77,0.31-1.54,0.61-2.31,0.92
			c0.96,17.72,1.89,35.43,2.9,53.15c0.31,5.35,0.73,10.7,1.33,16.03c0.12,1.09,1.3,2.07,1.99,3.1c0.63-1.08,1.82-2.18,1.78-3.24
			c-0.19-4.93-0.85-9.84-1.12-14.77c-0.9-16.31-1.64-32.62-2.62-48.92C1837.4,357.78,1836.25,355.72,1835.57,353.64z"/>
		<path d="M116.14,691.2c0,12.93-0.09,27.59,0.04,42.25c0.06,6.17-6.41,13.29-13.1,13.49c-13.37,0.4-25.4-3.35-34.69-13.27
			c-2.01-2.14-2.74-6.16-2.79-9.33c-0.23-13.64-0.09-27.29,0.13-40.93c0.13-8.28-0.14-16.68,1.24-24.78
			c1.19-7.02,4.38-13.72,6.9-20.47c0.31-0.84,2.01-1.76,2.97-1.68c9.02,0.83,18.18,1.19,26.94,3.24c2.8,0.66,5.34,5.66,6.53,9.17
			c1.43,4.23,1.22,9,1.83,13.53C113.34,671.42,114.63,680.43,116.14,691.2z M82.29,653.69c-1,5.18-2.31,10.12-2.83,15.15
			c-0.76,7.4-1.17,14.86-1.32,22.3c-0.11,5.08,3.79,7.86,7.79,9.4c3.7,1.43,7.94,1.47,12.73,2.25c0.36-5.21,0.96-9.88,0.93-14.55
			c-0.05-7.18-0.31-14.38-0.91-21.53C98.14,660.19,89.94,653.26,82.29,653.69z"/>
		<path d="M1237.38,550.5c-13.99-1.38-27.34-2.89-40.72-3.95c-14.58-1.16-29.21-1.77-43.79-2.89c-9.9-0.76-19.76-2.17-29.66-2.99
			c-15.6-1.29-31.23-2.24-46.83-3.5c-8.86-0.72-17.68-1.94-26.54-2.66c-16.26-1.31-32.55-2.33-48.81-3.62
			c-8.03-0.64-16.02-1.68-24.04-2.4c-19.32-1.73-38.65-3.46-57.99-5.04c-16.87-1.38-33.77-2.46-50.65-3.83
			c-8.85-0.72-17.66-1.91-26.51-2.64c-16.03-1.32-32.07-2.38-48.1-3.68c-7.82-0.63-15.6-1.66-23.42-2.35
			c-19.53-1.74-39.08-3.36-58.61-5.09c-14.84-1.31-29.67-2.73-44.51-4.05c-19.3-1.71-38.6-3.41-57.9-5.05
			c-25.1-2.13-50.2-4.18-75.3-6.29c-18.47-1.56-36.94-3.14-55.41-4.75c-12.75-1.11-25.5-2.34-38.25-3.42
			c-19.14-1.62-38.28-3.16-57.42-4.73c-18.09-1.49-36.19-3.03-54.29-4.45c-21.35-1.68-42.72-3.18-64.07-4.9
			c-9.69-0.78-19.34-2.03-29.02-2.82c-15.19-1.23-30.4-2.15-45.59-3.4c-9.69-0.8-19.34-2.11-29.03-2.91
			c-15.4-1.27-30.82-2.29-46.22-3.47c-6.79-0.52-13.56-1.2-20.35-1.78c-13.23-1.12-26.45-2.3-39.69-3.26
			c-4.22-0.31-6.11-1.91-6.67-6.37c-2.05-16.38-4.94-32.66-6.74-49.06c-1.01-9.23-0.29-18.64-0.71-27.96
			c-0.72-15.89-1.9-31.75-2.56-47.64c-0.35-8.29-0.72-16.68,0.19-24.89c1.41-12.65,6.83-17.26,19.6-17.48
			c7.2-0.12,14.43,0.58,21.61,1.24c17.48,1.61,34.94,3.39,52.4,5.16c6.56,0.66,13.11,1.43,19.65,2.23
			c16.64,2.03,33.26,4.26,49.93,6.11c19.05,2.11,38.14,3.87,57.2,5.8c12.1,1.22,24.2,2.46,36.29,3.72
			c19.48,2.03,38.96,4.13,58.44,6.13c18.93,1.94,37.88,3.78,56.82,5.67c12.53,1.25,25.06,2.53,37.59,3.75
			c18.66,1.82,37.32,3.65,55.98,5.38c18.93,1.76,37.87,3.41,56.8,5.12c12.56,1.14,25.11,2.33,37.67,3.45
			c18.91,1.69,37.83,3.4,56.75,4.99c18.93,1.59,37.88,3.02,56.81,4.58c12.1,0.99,24.2,2.1,36.3,3.12
			c19.35,1.63,38.7,3.28,58.05,4.82c18.29,1.45,36.59,2.72,54.87,4.17c19.75,1.57,39.48,3.33,59.23,4.88
			c17.49,1.37,34.99,2.66,52.5,3.81c15.64,1.02,31.3,1.69,46.94,2.73c8.66,0.57,17.28,1.71,25.93,2.36
			c18.27,1.36,36.55,2.58,54.83,3.84c18.52,1.28,37.04,2.55,55.57,3.81c16.72,1.13,33.45,2.09,50.15,3.41
			c6.31,0.5,12.15,3.18,14.8,9.14c2.29,5.16,3.56,10.93,4.36,16.57c2.27,16.17,4.07,32.41,6.07,48.62
			c0.84,6.79,1.83,13.57,2.53,20.38c1.87,18.35,3.98,36.69,5.23,55.08C1239.57,534.59,1238.06,542.06,1237.38,550.5z M621.39,347.01
			c-1.94,2.45-5.36,4.86-5.77,7.71c-0.91,6.24-0.4,12.71-0.27,19.08c0.29,15,0.88,30,1.02,45.01c0.15,16.15-0.14,32.29-0.06,48.44
			c0.01,2.64,0.18,5.88,1.64,7.8c2.77,3.63,6.53,6.5,9.88,9.69c4.17-4.19,11.33-7.99,11.93-12.64c1.57-12.14,0.62-24.66,0.01-37
			c-0.72-14.64-2.99-29.24-3.02-43.85C636.72,374.85,633.6,360.01,621.39,347.01z M833,497.9c3.03-5.67,7.2-10.09,7.54-14.78
			c0.91-12.36,0.43-24.84-0.02-37.26c-0.32-8.65-2.03-17.26-2.2-25.91c-0.31-15.24-2.3-30.09-7.27-44.53
			c-2.77-8.04-4.95-9.14-13.33-5.91c0,8.11,0.05,16.27-0.01,24.44c-0.07,10.14-0.59,20.29-0.26,30.41
			c0.5,15.43,2.6,30.88,2.07,46.26C819.1,482.55,826.58,488.83,833,497.9z M408.07,331.77c-0.76,0.12-1.53,0.23-2.29,0.35
			c-0.48,1.36-1.19,2.69-1.4,4.1c-2.14,13.83-5.02,27.61-6.08,41.53c-1.28,16.82-2.05,33.85,1.88,50.51
			c2.18,9.22,4.64,18.49,8.26,27.2c1.89,4.55,5.52,9.46,10.88,9.29c0-9.91,0.16-19.13-0.03-28.35c-0.41-20.04,0.07-40.18-1.87-60.08
			C415.95,361.3,411.3,346.6,408.07,331.77z M1034.14,387c-0.5,0.2-1,0.39-1.5,0.59c2.94,43.63,5.88,87.25,8.82,130.88
			c1.05,0.04,2.09,0.08,3.14,0.13c1.81-14.02,4.98-28.04,5.12-42.08c0.21-20.72-0.08-41.62-5.33-61.95
			c-2.01-7.78-4.26-15.51-6.69-23.17C1037.16,389.73,1035.36,388.46,1034.14,387z M215.41,439.86c0.61-0.26,1.22-0.51,1.83-0.77
			c0-6.94-0.01-13.87,0-20.81c0.01-8.68,0.17-17.37,0.02-26.05c-0.16-8.81-0.87-17.62-0.88-26.42c0-9.7,0.62-19.39,0.79-29.09
			c0.11-5.96-0.5-11.95-0.09-17.88c0.39-5.65-2.91-5.85-6.96-6.25c-4.52-0.44-5.35,1.7-5.01,5.54c0.55,6.19,0.92,12.39,1.27,18.59
			c1.29,22.77,2.45,45.55,3.83,68.32c0.63,10.32,1.56,20.62,2.59,30.91C212.95,437.33,214.51,438.56,215.41,439.86z"/>
		<path d="M1431.43,642.29c1.52,9.95,3.62,19.86,4.33,29.87c0.42,5.83-0.89,11.95-2.36,17.7c-0.91,3.56-10.51,6.55-15.64,5.09
			c-15.97-4.54-31.83-9.51-45.44-19.5c-9.91-7.28-20.65-13.86-29.05-22.63c-8.23-8.59-14.33-19.34-20.73-29.53
			c-9.22-14.66-18.03-29.59-26.69-44.59c-3.91-6.77-7.72-13.75-10.38-21.06c-5.81-15.95-10.98-32.14-16.17-48.3
			c-4.33-13.48-6.49-27.41-4.37-41.43c0.61-4.03,4.42-8.84,8.09-10.83c4.86-2.64,11.02-3.83,16.63-3.88
			c7.79-0.07,15.58,1.74,23.4,2.33c18.29,1.37,36.58,2.92,54.9,3.55c9.97,0.34,19.1,2.93,28.04,6.78c2.03,0.87,4.02,2.37,5.42,4.08
			c6.08,7.41,11.5,15.03,13.56,24.9c1.8,8.62,5.67,16.78,7.81,25.35c1.7,6.8,2.48,13.87,3.09,20.88c0.82,9.5,0.91,19.06,1.59,28.57
			c1.55,21.68,3.3,43.34,4.91,65.01c0.19,2.5,0.03,5.02,0.03,7.53C1432.06,642.2,1431.74,642.25,1431.43,642.29z M1418.59,672.98
			c0.27-0.59,0.53-1.18,0.8-1.77c-4.74-3.32-9.31-6.92-14.25-9.91c-20.98-12.69-38.51-29.31-54.14-47.93
			c-14.02-16.69-25.78-35.18-34.95-54.82c-10.04-21.47-17.68-44.06-26.39-66.15c-1.07-2.71-2.29-5.37-3.44-8.05
			c-0.69,0.18-1.38,0.37-2.07,0.55c1.61,12.02,2.11,24.33,5.1,36c3.97,15.52,9.63,30.49,17.13,44.96
			c9.77,18.84,21.14,36.34,34.5,52.69c14.53,17.8,30.89,33.55,51.5,44.09C1400.7,666.91,1409.83,669.58,1418.59,672.98z"/>
		<path d="M445.48,817.72c-5.09,6.08-9.84,13.52-16.24,19.04c-13.62,11.74-27.19,16.56-40.22-1.01c-1.06-1.43-1.76-3.4-1.92-5.18
			c-0.98-10.47-0.73-20.67,5.51-29.93c5.11-7.58,18.98-11.38,27.17-6.18c6.39,4.05,12.18,9.12,17.89,14.14
			C440.72,811.29,443.04,814.82,445.48,817.72z"/>
		<path d="M163.4,817.31c-5.19-8.77-12.99-15.86-14.17-27.14c-0.96-9.14,1.14-17.58,8.68-22.81c16.1-11.19,31.31-8.62,45.1,2.2
			c6.97,5.47,8.1,23.06,3,30.38c-3.65,5.24-8.75,7.63-14.17,10.47c-9.13,4.78-18.97,5.01-28.61,6.76
			C163.22,817.17,163.4,817.31,163.4,817.31z"/>
		<path d="M1208.93,911.72c-1.51-8.48-3.52-16.91-4.3-25.45c-0.36-3.98,0.81-8.67,2.8-12.18c4.3-7.56,16.83-13.79,28.17-10.87
			c11.58,2.98,20.29,8.66,26.87,18.1c5.81,8.33,2.6,21.1-6.33,26.46c-12.85,7.72-26.29,10.27-40.74,4.84
			c-2.05-0.77-4.41-0.74-6.62-1.07C1208.77,911.55,1208.93,911.72,1208.93,911.72z"/>
		<path class="st0" d="M1811.24,362.99c2.16,18.65,3.66,34.28,5.87,49.81c1.49,10.46-7.51,27.74-17.96,33.85
			c-5.97,3.48-10.71,3.5-17.02-0.15c-15.75-9.1-30.54-19.28-41.92-33.53c-5.77-7.22-11.08-15.19-14.72-23.63
			c-5.2-12.05-9.41-24.66-12.71-37.38c-3.91-15.1,0.32-27.68,14.56-36.04c14.06-8.26,27.36-18,41.98-25.03
			c10.7-5.14,23.77-4.81,33.62,5.43c7.63,7.92,7.28,16.93,7.98,25.66C1812.09,336.56,1811.24,351.29,1811.24,362.99z"/>
		<path class="st0" d="M1511.85,606.83c-1.39-11.32-6.19-21.52-1.94-32.08c1.83-4.56,3.84-9.65,7.32-12.79
			c4.93-4.47,11.17-7.57,17.07-10.88c9.2-5.15,18.9-9.46,27.81-15.06c14.3-8.99,27.8-19.3,42.26-28.01
			c11.36-6.84,23.41-15.42,37.43-6.97c6.02,3.63,10.69,9.56,15.75,14.66c2.16,2.18,3.78,4.9,6.57,8.6
			c-4.58,2.69-9.05,5.51-13.71,7.99c-20.03,10.67-40.17,21.14-60.18,31.87c-18.36,9.84-36.59,19.92-54.88,29.89
			C1527.78,598.2,1520.19,602.31,1511.85,606.83z"/>
		<path class="st0" d="M1519.73,636.92c-2.17-3.66-3.79-6.41-5.82-9.83c1.9-1.19,3.88-2.57,5.97-3.73
			c22.46-12.43,44.97-24.78,67.4-37.26c11.18-6.22,22.19-12.73,33.36-18.98c19.48-10.89,39.04-21.62,58.51-32.5
			c11.72-6.55,23.39-13.17,35.01-19.9c14.44-8.37,28.77-16.92,43.19-25.33c5.87-3.43,11.84-6.69,17.77-10.01
			c8.12-4.54,16.21-9.16,24.41-13.57c8.95-4.81,18.03-9.38,26.99-14.17c1.35-0.72,2.34-2.09,4.3-3.9c1.92,3.23,3.73,6.27,5.83,9.79
			c-13.95,7.75-27.4,15.03-40.67,22.63c-20.23,11.58-40.29,23.47-60.53,35.05c-9.71,5.56-19.72,10.57-29.45,16.09
			c-14.74,8.36-29.34,16.98-44.03,25.44c-7.52,4.33-15.07,8.63-22.69,12.78c-8.75,4.77-17.65,9.26-26.4,14.04
			c-13.6,7.44-27.14,14.98-40.66,22.57c-11.48,6.45-22.92,12.96-34.29,19.59C1531.8,629.29,1525.84,633.14,1519.73,636.92z"/>
		<path class="st0" d="M1694.38,339.6c0.7,10.25-3.31,17.39-8.27,23.16c-11.7,13.61-25.76,24.27-42.25,32.06
			c-12.6,5.95-25.12,11.12-38.93,12.58c-3.98-9.95,0.77-16.18,7.18-22.68c10.32-10.46,23.32-16.37,35.97-22.85
			C1662.92,354.26,1678.12,347.38,1694.38,339.6z"/>
		<path class="st0" d="M1835.42,334.06c-4.62,1.61-6.1,0.76-6.63-3.39c-2.23-17.55-4.96-35.03-7.3-52.57
			c-0.82-6.12-1.04-12.32-1.58-19.11c2.58-0.61,5.7-1.34,10.38-2.44C1832.05,283.08,1833.74,308.67,1835.42,334.06z"/>
		<path class="st0" d="M1835.57,353.64c0.68,2.08,1.83,4.14,1.96,6.26c0.98,16.3,1.72,32.62,2.62,48.92
			c0.27,4.93,0.92,9.84,1.12,14.77c0.04,1.05-1.16,2.16-1.78,3.24c-0.69-1.03-1.86-2.01-1.99-3.1c-0.6-5.32-1.03-10.68-1.33-16.03
			c-1.01-17.71-1.94-35.43-2.9-53.15C1834.03,354.25,1834.8,353.94,1835.57,353.64z"/>
		<path class="st0" d="M82.29,653.69c7.65-0.43,15.85,6.5,16.39,13.01c0.59,7.16,0.86,14.35,0.91,21.53
			c0.03,4.67-0.58,9.35-0.93,14.55c-4.79-0.78-9.02-0.82-12.73-2.25c-4.01-1.54-7.9-4.32-7.79-9.4c0.16-7.44,0.56-14.9,1.32-22.3
			C79.98,663.81,81.29,658.87,82.29,653.69z"/>
		<path class="st0" d="M621.39,347.01c12.21,13,15.33,27.84,15.36,44.23c0.02,14.62,2.29,29.22,3.02,43.85
			c0.61,12.34,1.56,24.86-0.01,37c-0.6,4.65-7.76,8.45-11.93,12.64c-3.35-3.19-7.11-6.06-9.88-9.69c-1.46-1.92-1.63-5.15-1.64-7.8
			c-0.08-16.15,0.21-32.3,0.06-48.44c-0.14-15-0.72-30-1.02-45.01c-0.12-6.37-0.64-12.84,0.27-19.08
			C616.03,351.88,619.45,349.47,621.39,347.01z"/>
		<path class="st0" d="M833,497.9c-6.42-9.07-13.9-15.36-13.49-27.28c0.54-15.37-1.56-30.82-2.07-46.26
			c-0.33-10.12,0.19-20.28,0.26-30.41c0.06-8.17,0.01-16.33,0.01-24.44c8.39-3.23,10.57-2.13,13.33,5.91
			c4.97,14.44,6.96,29.3,7.27,44.53c0.17,8.65,1.88,17.26,2.2,25.91c0.46,12.42,0.93,24.9,0.02,37.26
			C840.2,487.82,836.03,492.23,833,497.9z"/>
		<path class="st0" d="M408.07,331.77c3.23,14.83,7.88,29.53,9.34,44.54c1.94,19.9,1.46,40.04,1.87,60.08
			c0.19,9.22,0.03,18.44,0.03,28.35c-5.37,0.18-8.99-4.73-10.88-9.29c-3.62-8.71-6.08-17.98-8.26-27.2
			c-3.93-16.65-3.16-33.68-1.88-50.51c1.06-13.92,3.94-27.7,6.08-41.53c0.22-1.4,0.92-2.73,1.4-4.1
			C406.54,332,407.3,331.88,408.07,331.77z"/>
		<path class="st0" d="M1034.14,387c1.22,1.46,3.02,2.73,3.55,4.41c2.44,7.66,4.68,15.38,6.69,23.17
			c5.25,20.33,5.54,41.23,5.33,61.95c-0.14,14.04-3.31,28.05-5.12,42.08c-1.05-0.04-2.09-0.08-3.14-0.13
			c-2.94-43.63-5.88-87.25-8.82-130.88C1033.14,387.4,1033.64,387.2,1034.14,387z"/>
		<path class="st0" d="M215.41,439.86c-0.9-1.3-2.46-2.53-2.6-3.91c-1.03-10.29-1.97-20.59-2.59-30.91
			c-1.38-22.77-2.55-45.55-3.83-68.32c-0.35-6.2-0.71-12.41-1.27-18.59c-0.34-3.84,0.48-5.98,5.01-5.54c4.05,0.4,7.36,0.6,6.96,6.25
			c-0.41,5.93,0.19,11.92,0.09,17.88c-0.17,9.7-0.8,19.4-0.79,29.09c0,8.81,0.72,17.61,0.88,26.42c0.15,8.68-0.01,17.37-0.02,26.05
			c-0.01,6.94,0,13.87,0,20.81C216.63,439.35,216.02,439.6,215.41,439.86z"/>
		<path class="st0" d="M1418.59,672.98c-8.76-3.39-17.89-6.07-26.22-10.32c-20.61-10.53-36.96-26.29-51.5-44.09
			c-13.36-16.36-24.73-33.86-34.5-52.69c-7.5-14.47-13.16-29.44-17.13-44.96c-2.98-11.67-3.49-23.98-5.1-36
			c0.69-0.18,1.38-0.37,2.07-0.55c1.15,2.68,2.37,5.34,3.44,8.05c8.71,22.09,16.35,44.68,26.39,66.15
			c9.18,19.63,20.94,38.12,34.95,54.82c15.63,18.61,33.16,35.24,54.14,47.93c4.94,2.99,9.51,6.59,14.25,9.91
			C1419.12,671.8,1418.86,672.39,1418.59,672.98z"/>
	</g>
</g>
</svg>
