<?xml version="1.0" encoding="utf-8"?>
<!-- Generator: Adobe Illustrator 23.1.0, SVG Export Plug-In . SVG Version: 6.00 Build 0)  -->
<svg version="1.1" id="Calque_1" xmlns="http://www.w3.org/2000/svg" xmlns:xlink="http://www.w3.org/1999/xlink" x="0px" y="0px"
	 viewBox="0 0 595.28 311.01" style="enable-background:new 0 0 595.28 311.01;" xml:space="preserve">
<style type="text/css">
	.st0{fill:#FFFFFF;}
</style>
<g>
	<g>
		<path d="M0,113.97c0.09-1.86,0.25-3.72,0.27-5.59c0.06-4.43-0.1-8.88,0.1-13.3c0.33-7.33,2.53-14.27,4.67-21.23
			c3.05-9.94,9.41-16.96,18.49-21.59c12.59-6.42,25.28-12.65,37.93-18.95c9.12-4.54,18.23-9.08,27.36-13.59
			c13.23-6.52,26.83-12.15,40.77-16.98c8.23-2.85,16.54-3.06,25.06-1.5c11.51,2.1,23.07,3.97,34.61,5.92
			c8.94,1.51,17.87,3.1,26.85,4.4c5.45,0.79,10.97,1.16,16.46,1.58c11.48,0.88,22.95,1.83,34.34,3.54
			c7.51,1.12,15.05,2.04,22.54,3.22c7.14,1.12,14.24,2.54,21.38,3.67c10.46,1.65,20.94,3.14,31.41,4.72
			c10.91,1.64,21.8,3.37,32.72,4.9c10.21,1.44,20.43,2.83,30.67,3.95c10.96,1.2,21.96,2.1,32.95,3.07
			c8.2,0.72,16.42,1.27,24.61,2.02c8.28,0.76,16.54,1.69,24.81,2.51c10.42,1.02,20.84,2.08,31.27,2.97
			c8.52,0.73,16.58,2.99,24.11,7.01c7.34,3.92,14.54,8.08,20.72,13.76c4.69,4.32,8.3,9.38,10.52,15.39
			c0.12,0.32,0.28,0.62,0.31,0.68c0.93-1.75,1.67-3.77,2.94-5.37c1.01-1.29,2.53-2.39,4.05-3.03c3.95-1.68,7.43-0.12,8.82,3.94
			c1.17,3.43,2.22,6.93,2.97,10.48c1.71,8.07,1.83,16.27,1.2,24.47c-0.12,1.6-0.6,3.24-1.26,4.71c-1.9,4.24-6.12,6.08-10.91,4.9
			c-1.19-0.3-2.35-0.75-3.72-1.2c0.15,2.06,0.26,4.07,0.46,6.06c0.76,7.78,0.76,15.57,0.45,23.36c-0.28,6.99-0.62,13.97-0.81,20.97
			c-0.17,6.15-0.25,12.3-0.18,18.45c0.03,2.42,0.66,4.82,0.91,7.25c0.86,8.36-1.96,15.47-7.52,21.6c-3.67,4.04-8.03,7.25-12.82,9.78
			c-11.69,6.16-23.37,12.36-35.26,18.14c-21.04,10.23-42.26,20.1-63.34,30.25c-4.27,2.06-8.39,4.49-12.35,7.11
			c-9.84,6.49-20.47,8.83-32.11,6.98c-2.62-0.42-5.34-0.22-8.01-0.37c-1.75-0.1-3.51-0.23-4.84-1.32c-1.24,2.26-2.29,4.55-3.67,6.62
			c-4.61,6.94-11.27,10.68-19.39,11.98c-1.96,0.31-3.93,0.49-5.9,0.73c-1.36,0-2.72,0-4.08,0c-0.38-0.07-0.75-0.18-1.13-0.2
			c-3.5-0.16-6.79-1.03-9.82-2.8c-6.69-3.91-9.91-10.08-11.12-17.47c-0.33-2.03-0.41-4.1-0.61-6.23c-4.34-0.37-8.68-0.8-13.02-1.09
			c-12.02-0.81-23.91-2.54-35.7-4.98c-11.24-2.33-22.58-3.99-33.99-5.17c-7.35-0.77-14.7-1.58-22.06-2.3
			c-7.24-0.71-14.49-1.25-21.73-2.03c-6.87-0.74-13.78-1.34-20.56-2.6c-11.3-2.1-22.51-4.68-33.77-7.06
			c-4.97-1.05-9.91-2.18-14.26-4.96c-2.11,3.59-4.14,7.16-6.28,10.67c-2.08,3.39-5.2,5.3-9.05,6.16c-1.7,0.38-3.47,0.76-5.02,1.52
			c-3.24,1.6-6.56,2.76-10.18,2.86c-6.55,0.17-12.11-1.92-16.01-7.43c-2.16-3.05-3.92-6.35-4.82-9.98
			c-0.69-2.77-0.99-5.63-1.52-8.81c-2.74-0.3-5.81-0.73-8.91-0.95c-3.9-0.27-7.63-0.87-10.67-3.61c-0.04-0.04-0.15,0-0.24,0
			c-0.37,0.87-0.67,1.78-1.13,2.61c-2.85,5.13-7.3,7.72-13.1,7.86c-2.16,0.05-4.19,0.34-6.19,1.16c-2.92,1.19-5.87,2.31-8.82,3.43
			c-0.51,0.19-1.1,0.35-1.62,0.29c-5.18-0.64-10.07-2.13-14.37-5.21c-2.77-1.99-4.97-4.47-5.76-7.85c-0.61-2.64-0.95-5.34-1.25-8.04
			c-0.11-0.95-0.45-1.23-1.3-1.46c-3.85-1.05-7.78-1.9-11.48-3.34c-5.86-2.29-10.03-6.44-11.41-12.77c-0.76-3.5-1.28-7.1-1.45-10.68
			c-0.46-9.66-0.89-19.32-0.94-28.99c-0.08-14.99-0.05-29.98-0.93-44.96c-0.11-1.86-0.24-3.72-0.36-5.58C0,125.33,0,119.65,0,113.97
			z M543.43,211.02c-0.24-1.6-0.47-3.06-0.66-4.52c-0.72-5.35,0.81-8.37,5.55-10.96c0.6-0.33,1.21-0.61,1.81-0.93
			c2.73-1.41,5.55-2.68,8.16-4.28c4.35-2.68,8.45-5.77,13.27-7.65c0.32-0.12,0.64-0.69,0.66-1.07c0.14-2.19,0.2-4.39,0.27-6.59
			c0.35-10.98,0.92-21.97,0.96-32.96c0.03-10.27-0.4-20.54-0.83-30.8c-0.3-7.32-1.64-14.49-3.49-21.6
			c-2.07-7.96-6.6-13.74-13.92-17.33c-3.9-1.92-7.87-3.7-11.87-5.41c-4.56-1.95-9.21-3.72-12.97-7.1
			c-4.05-3.64-8.82-5.58-14.17-6.11c-7.87-0.78-15.76-1.4-23.63-2.18c-8.55-0.85-17.09-1.84-25.64-2.71
			c-8.87-0.9-17.74-1.73-26.62-2.56c-7.36-0.69-14.73-1.35-22.09-2.02c-8.52-0.77-17.04-1.49-25.55-2.32
			c-6.08-0.6-12.17-1.2-18.22-2.06c-7.71-1.09-15.39-2.45-23.08-3.69c-12.62-2.03-25.23-4.11-37.87-6.07
			c-10.11-1.57-20.23-3.06-30.36-4.48c-9.5-1.33-19.01-2.55-28.53-3.76c-8.13-1.03-16.26-1.99-24.4-2.96
			c-8.41-1-16.86-1.77-25.24-2.99c-14.96-2.17-29.74-5.32-44.26-9.47c-8-2.28-15.79-2.4-23.7,0.03c-10.43,3.2-20.7,6.85-30.67,11.28
			C87.74,26.08,69.78,35.7,51.74,45.17c-8.58,4.5-16.7,9.94-26.03,12.92c-0.3,0.09-0.57,0.65-0.63,1.02
			c-0.12,0.74,0.5,0.77,1.02,0.83c9.66,0.97,19.33,1.88,28.98,2.92c8.46,0.91,16.92,1.87,25.36,2.95
			c14.23,1.83,28.45,3.71,42.65,5.69c8.54,1.19,17.12,2.29,25.57,4c9.76,1.98,19.53,3.71,29.42,4.93c7.37,0.91,14.72,2.04,22.06,3.2
			c9.82,1.56,19.61,3.3,29.44,4.84c11.01,1.73,22.06,3.22,33.06,5.02c7.29,1.19,14.5,2.84,21.78,4.11
			c11.37,1.98,22.77,3.83,34.16,5.7c3.9,0.64,7.79,1.23,11.8,0.87c2.57-0.23,5.18,0.03,7.78,0.12c1.6,0.06,3.2,0.15,4.79,0.31
			c8.82,0.89,17.69,1.51,26.46,2.79c12.13,1.77,24.19,4.06,36.28,6.08c8.77,1.47,16.43,5.15,22.82,11.34
			c5.61,5.43,9.99,11.83,14.03,18.47c2.72,4.46,4.12,9.34,4.58,14.5c0.93,10.39,1.89,20.78,2.69,31.18
			c1.22,15.95,1.7,31.93,1.77,47.92c0.01,1.63,0,3.27,0,5.04c0.61-0.17,1.19-0.27,1.73-0.48c1.15-0.45,2.26-1.01,3.43-1.41
			c1.78-0.61,3.08-0.19,4.27,1.25c0.23,0.27,0.43,0.56,0.71,0.93c0.4-0.19,0.8-0.36,1.17-0.57c2.14-1.25,4.24-2.56,6.41-3.75
			c2.79-1.53,5.79-2.39,8.86-1.16c1.73,0.7,3.27,1.95,4.78,3.1c0.81,0.61,1.4,0.77,2.32,0.25c4.7-2.65,9.43-5.24,14.15-7.84
			c8.32-4.59,16.59-9.29,25-13.72C530.43,215.34,536.79,212.96,543.43,211.02z M408.43,283.12c0.67,0.11,1.1,0.2,1.54,0.26
			c6.58,0.84,13.16,1.65,19.74,2.52c5.75,0.76,10.84-3.19,11.46-8.95c0.84-7.87,1.72-15.73,2.56-23.6c0.31-2.86,0.62-5.72,0.8-8.59
			c0.11-1.83-0.73-2.72-2.53-3.05c-0.43-0.08-0.88-0.09-1.31-0.1c-5.87-0.11-11.53-1.26-16.87-3.68
			c-11.59-5.25-21.45-12.84-29.44-22.72c-5.02-6.21-10.01-12.49-12.67-20.21c-0.11-0.32-0.76-0.63-1.17-0.64
			c-1.95-0.07-3.97,0.26-5.85-0.1c-12.32-2.36-24.64-4.71-36.89-7.38c-5.38-1.17-10.69-2.63-16.17-3.35
			c-8.4-1.1-16.79-2.29-25.17-3.53c-2.12-0.31-4.17-1.11-6.29-1.42c-5.73-0.83-11.52-1.34-17.23-2.3
			c-14.69-2.48-29.36-5.06-44.02-7.74c-8.69-1.6-17.36-3.22-26.26-3.13c-3.39,0.03-6.79-0.31-10.16-0.67
			c-9.87-1.04-19.55-3.15-29.22-5.32c-10.34-2.32-20.75-4.17-31.31-5.2c-7.71-0.75-15.41-1.7-23.11-2.66
			c-12.93-1.61-25.84-3.29-38.76-4.96c-6.53-0.84-13.11-1.45-19.44-3.46c-4.7-1.49-9.52-2.4-14.4-3.05
			c-7.56-1.01-15.13-2.01-22.69-3.06c-2.12-0.29-4.21-0.75-6.36-1.14c0,0.73-0.03,1.41,0,2.08c0.45,10.38,1,20.75,1.35,31.14
			c0.24,7.15,0.07,14.31,0.31,21.45c0.26,7.74,0.77,15.48,1.22,23.21c0.29,5.01,2.72,8.85,6.95,11.39c2.83,1.7,5.88,3.02,8.85,4.47
			c0.66,0.32,1.39,0.49,2.14,0.75c0.72-4.22,2.03-8.02,5.29-11.05c-0.86-0.19-1.56-0.33-2.25-0.5c-2.87-0.68-5.78-1.26-8.61-2.1
			c-3.14-0.92-4.68-3.15-4.45-6.36c0.55-7.69,1.18-15.38,1.83-23.06c0.23-2.71,1.5-3.81,4.22-3.79c2.16,0.02,4.32,0.1,6.47,0.24
			c3.25,0.21,4.48,1.55,4.49,4.81c0.02,4.31,0.08,8.62,0.03,12.94c-0.07,5.55-0.25,11.1-0.37,16.63c0.53-0.37,1.31-0.64,1.61-1.17
			c5.09-9.05,13.43-12.29,23.15-12.68c8.47-0.34,20.04,6.37,21.94,17.03c0.98,5.5,1.91,11.01,2.85,16.52
			c0.27,1.59,1.07,2.56,2.64,2.85c4.56,0.83,9.13,1.59,13.69,2.4c0.68,0.12,0.98-0.07,1.22-0.73c1.06-2.92,2.65-5.54,4.63-7.93
			c0.99-1.2,2.01-2.38,2.92-3.64c4.28-5.93,9.66-10.52,16.34-13.53c0.61-0.28,1.4-0.39,2.06-0.3c3.76,0.53,7.5,1.15,11.25,1.75
			c0.39,0.06,0.83,0.11,1.14,0.32c2.62,1.76,5.31,3.43,7.8,5.36c3.26,2.52,5.1,6.12,6.63,9.83c1.4,3.39,2.6,6.86,3.79,10.33
			c1.14,3.35,3.3,5.36,6.88,5.83c1.98,0.26,3.96,0.57,5.89,1.04c7.29,1.78,14.55,3.72,21.85,5.45c8.56,2.04,17.2,3.56,25.99,4.29
			c5.41,0.45,10.82,1.07,16.21,1.76c7.09,0.9,14.16,2.08,21.26,2.9c9.49,1.1,19.01,1.87,28.5,2.96c8.61,0.99,17.18,2.35,25.61,4.41
			c6.75,1.65,13.54,3.19,20.51,3.56c5.79,0.3,11.58,0.5,17.36,0.77c0.74,0.03,0.93-0.36,1.14-0.94c1.07-2.97,2.77-5.56,4.9-7.89
			c0.58-0.64,1.06-1.38,1.49-2.13c0.9-1.56,1.67-3.19,2.6-4.72c2.13-3.5,5.55-5.14,9.28-6.35c11.28-3.65,21.03-1.11,29.31,7.24
			c3.61,3.64,6.25,7.98,8.68,12.46C407.15,277.66,409,279.98,408.43,283.12z M444.13,209.89
			C444.13,209.89,444.13,209.89,444.13,209.89c-0.19-3.51-0.37-7.02-0.59-10.53c-0.45-7.02-0.9-14.04-1.39-21.05
			c-0.38-5.5-0.91-10.99-1.22-16.5c-0.19-3.54-0.62-7.01-1.88-10.33c-3.52-9.28-9.9-16.48-17.19-22.86
			c-7.05-6.16-15.73-8.82-24.79-10.33c-5.95-0.99-11.92-1.85-17.88-2.81c-6.98-1.12-13.92-2.61-20.94-3.33
			c-11.37-1.17-22.79-1.79-34.18-2.77c-7.33-0.63-14.67-1.23-21.94-2.27c-9.92-1.41-19.8-3.15-29.68-4.89
			c-23.25-4.1-46.57-7.78-69.91-11.33c-17.13-2.61-34.17-5.85-51.26-8.75c-8.07-1.37-16.13-2.94-24.26-3.83
			c-11.69-1.27-23.32-2.86-34.9-4.82c-7.41-1.25-14.8-2.56-22.31-3.04c-6.14-0.39-12.28-0.84-18.4-1.48
			c-8.99-0.94-17.84-2.74-26.64-4.77c-1.79-0.42-3.5-0.24-5.08,0.74c-2.83,1.75-5.38,3.85-6.65,7.02c-1.23,3.07-2.32,6.2-3.24,9.38
			c-2.34,8.08-3.47,16.31-2.84,24.75c0.29,3.98,0.47,7.98,0.6,11.97c0.11,3.27,0.05,6.55,0.11,9.83c0.04,1.92,1.73,3.83,3.6,4.06
			c5.27,0.67,10.55,1.3,15.82,1.96c6.19,0.77,12.32,1.7,18.28,3.7c3.88,1.3,7.91,2.31,11.95,2.96c12.46,2,24.96,3.84,37.46,5.61
			c13.45,1.9,26.94,3.54,40.39,5.49c13.2,1.91,26.38,4.05,39.56,6.11c9.95,1.55,19.88,3.21,29.84,4.68
			c8.14,1.2,16.31,2.22,24.47,3.28c8.44,1.1,16.89,2.08,25.33,3.23c8.55,1.17,17.1,2.36,25.61,3.76c8.12,1.33,16.18,3,24.28,4.42
			c5.66,1,11.38,1.68,17.03,2.77c7.45,1.44,14.83,3.22,22.27,4.7c6.81,1.36,13.68,2.45,20.5,3.77c6,1.16,11.98,2,18.08,0.76
			c1.83-0.37,2.95,0.58,3.02,2.63c0.09,2.72,1.12,5.04,2.49,7.27c3.68,5.97,7.75,11.65,12.47,16.84
			c7.09,7.79,15.21,14.21,25.14,17.94c5.67,2.13,11.57,3.63,17.37,5.42c1.55,0.48,3.17-0.72,3.08-2.31
			C445.18,227.92,444.65,218.9,444.13,209.89z M573.36,187.25c-1.3-1.69-1.3-1.68-3.04-0.82c-1.46,0.73-2.97,1.39-4.39,2.21
			c-1.83,1.05-3.61,2.2-5.37,3.36c-1.55,1.01-2.15,2.54-2.08,4.33c0.1,2.23,0.15,4.48,0.42,6.69c0.38,3.05,0.95,6.07,1.44,9.11
			c0.49,3.06-0.06,4.21-2.76,5.78c-0.28,0.16-0.55,0.32-0.84,0.47c-8.71,4.63-17.42,9.25-26.12,13.89
			c-18.91,10.11-37.76,20.32-57.41,28.98c-1.38,0.61-2.42,0.44-3.58-0.25c-2.25-1.35-3.91-3.27-5.38-5.39
			c-0.67-0.96-1.34-1.93-2.01-2.89c-0.24,0.46-0.25,0.84-0.24,1.22c0.07,2.6,0.07,5.2,0.24,7.79c0.22,3.37-1.44,5.97-3.23,8.55
			c-0.11,0.15-0.3,0.29-0.47,0.34c-3.24,0.97-6.49,1.92-9.83,2.91c1.63-3.05,3.62-5.47,6.74-6.99c2.99-1.47,3.29-2.67,2.32-5.88
			c-0.06-0.19-0.11-0.38-0.17-0.57c-0.92-2.8-0.92-2.79-3.83-2.73c-2.92,0.07-3.94,0.97-4.25,3.9c-0.35,3.3-0.64,6.6-0.97,9.9
			c-0.17,1.73-0.38,3.47-0.59,5.4c0.6-0.27,1-0.44,1.38-0.63c3.68-1.84,7.31-3.79,11.05-5.5c23.37-10.63,46.78-21.16,69.62-32.89
			c12.23-6.27,24.27-12.88,36.05-19.96c2.16-1.3,3.28-3.47,5.02-5.47c-1.14,0-1.94,0-2.74,0c-2.27,0-2.63-0.33-2.76-2.58
			c-0.03-0.64,0-1.28,0.01-1.92c0.04-2.19,0.24-4.4,0.09-6.57c-0.2-2.91,0.69-5.3,2.84-7.18
			C570.66,192.01,571.96,189.59,573.36,187.25z M473.13,258.22c0.25-0.13,0.43-0.21,0.6-0.3c18.4-9.6,36.8-19.22,55.21-28.8
			c8.4-4.37,16.75-8.79,24.5-14.3c2.26-1.61,2.64-3.66,3.19-6.06c-0.54,0.2-0.94,0.33-1.34,0.49
			c-13.12,5.28-25.86,11.39-38.34,18.03c-14.35,7.63-28.62,15.4-42.92,23.11c-1.98,1.07-3.99,2.11-6.11,3.23
			C469.74,255.23,471.44,256.73,473.13,258.22z M370.65,270.34c-1.06,0.16-2.67,0.27-4.21,0.63c-8.68,2.04-13.24,8.91-11.67,17.49
			c1.49,8.12,8.09,13.74,16.42,13.9c5.86,0.11,10.95-1.67,14.73-6.35c1.53-1.89,2.68-4.02,2.5-6.57c-0.24-3.34-1.12-6.54-2.74-9.48
			C382.53,274.25,378.08,270.46,370.65,270.34z M107.77,249.67c0.41,2.35,0.6,4.76,1.26,7.04c2.34,8.17,9.28,11.07,15.96,9.83
			c4.71-0.88,8.24-3.87,11.1-7.63c1.86-2.45,2.75-5.15,2.42-8.28c-0.97-9.29-8.83-15.17-17.36-15.06
			C114.24,235.66,107.55,242.73,107.77,249.67z M35.11,237.5c0.06,0.01,0.12,0.02,0.18,0.03c0.09,1.23,0.15,2.47,0.28,3.7
			c0.43,4.39,2.71,7.25,7.04,8.31c2.01,0.49,4.05,0.92,6.1,1.19c1.57,0.2,3.24,0.4,4.75,0.08c5.18-1.11,8.93-4.3,11.09-9.05
			c2.33-5.13,0.78-9.84-2.72-13.86c-4.1-4.7-9.61-6.31-15.66-5.99c-5.63,0.3-8.89,3.1-10.17,8.6
			C35.46,232.79,35.39,235.17,35.11,237.5z M590.73,106.89c0.13-0.01,0.26-0.02,0.39-0.02c-0.39-4.05-0.64-8.12-1.21-12.15
			c-0.58-4.1-1.93-8-4.11-11.56c-1.22-1.99-2.43-2.11-4.21-0.6c-1.22,1.04-2.41,2.1-3.67,3.07c-0.6,0.46-0.84,0.89-0.76,1.69
			c0.87,9.19,1.69,18.39,2.5,27.58c0.08,0.92,0.29,1.55,1.34,1.76c0.68,0.13,1.33,0.53,1.94,0.9c3.4,2.08,3.4,2.09,6.13-0.87
			c0.16-0.18,0.38-0.33,0.47-0.54c0.42-0.96,1.05-1.92,1.13-2.92C590.86,111.14,590.73,109.01,590.73,106.89z M53.8,216.5
			c8.12,0.65,13.97,4.57,17.24,11.91c3.21,7.22,2.86,14.33-1.7,21.24c0.34-0.19,0.48-0.24,0.59-0.33c4.24-3.31,6.67-7.55,6.76-13.02
			c0.04-2.71,0.04-5.43,0.13-8.14c0.08-2.58-0.56-4.96-2.15-6.95c-1.49-1.86-3.13-3.63-4.86-5.28
			C65.09,211.39,59.15,211.73,53.8,216.5z M394.15,296.89c0,0,0.12-0.02,0.21-0.08c0.23-0.16,0.45-0.33,0.66-0.51
			c2.54-2.14,4.1-4.87,4.82-8.08c1.18-5.24,0.1-10.2-1.74-15.12c-1.09-2.93-3.05-4.88-5.78-6.23c-4.49-2.23-9.24-3.57-14.21-4.02
			c-2.1-0.19-4.24,0-6.36,0.02c0,0.15,0,0.31,0,0.46c0.39,0.02,0.77,0.05,1.16,0.05c2.67,0.06,5.22,0.62,7.66,1.71
			c9.24,4.12,14.61,15.09,14.36,25.23C394.9,292.52,394.43,294.72,394.15,296.89z M145.43,256.13c5.72-5.08,6.26-11.09,1.41-16.63
			c-2.49-2.85-5.31-5.42-8.12-7.97c-1.97-1.79-4.35-2.97-7.02-3.44c-2.13-0.37-4.24-0.33-6.57,0.4
			C138.85,232.7,146.25,241.31,145.43,256.13z M30.7,201.84c-0.33-3.03-0.67-5.92-0.94-8.81c-0.3-3.27-0.41-3.42-3.72-3.77
			c-2.02-0.22-2.75,0.27-2.98,2.3c-0.32,2.85-0.51,5.72-0.74,8.58c-0.11,1.33-0.17,2.67-0.27,4.11
			C25.02,203.41,27.82,202.64,30.7,201.84z M450.32,253.43c3.82-0.33,7.65-0.66,11.64-1c-1.44-2.75-2.8-5.36-4.17-7.97
			C453.8,246.3,450.27,248.32,450.32,253.43z M478.23,242.59c-2.27-2.08-4.31-2.64-6.49-1.33c-2.6,1.57-5,3.49-7.53,5.29
			c0.86,1.34,1.54,2.41,2.26,3.53C470.42,247.55,474.31,245.08,478.23,242.59z M549.31,207.11c1.46-0.36,2.77-0.55,3.98-1.02
			c0.68-0.26,1.52-0.85,1.73-1.48c0.81-2.44,0.2-4.9-0.09-7.57c-1.87,0.88-3.54,1.62-5.17,2.45c-1.36,0.7-1.98,1.85-1.61,3.38
			C548.48,204.23,548.88,205.56,549.31,207.11z M29.8,213.73c0.31-2.15,0.61-4.16,0.93-6.36c-2.07-0.19-4-0.4-5.94-0.55
			c-0.91-0.07-1.58,0.38-1.69,1.32c-0.1,0.86-0.07,1.75-0.03,2.62c0.01,0.21,0.25,0.5,0.46,0.58
			C25.55,212.14,27.6,212.9,29.8,213.73z M573.18,195.65c-2.74,0.98-3.87,2.47-3.81,5.21c0.03,1.51,0.34,3.01,0.37,4.52
			c0.03,1.35,0.73,1.66,1.91,1.6C572.17,203.19,572.67,199.45,573.18,195.65z"/>
		<path class="st0" d="M543.43,211.02c-6.63,1.94-13,4.32-19.01,7.48c-8.41,4.43-16.67,9.13-25,13.72
			c-4.72,2.6-9.45,5.19-14.15,7.84c-0.92,0.52-1.51,0.36-2.32-0.25c-1.52-1.15-3.05-2.41-4.78-3.1c-3.06-1.23-6.07-0.37-8.86,1.16
			c-2.17,1.19-4.27,2.5-6.41,3.75c-0.37,0.22-0.77,0.38-1.17,0.57c-0.28-0.37-0.49-0.66-0.71-0.93c-1.19-1.44-2.49-1.86-4.27-1.25
			c-1.17,0.4-2.28,0.97-3.43,1.41c-0.54,0.21-1.13,0.32-1.73,0.48c0-1.77,0.01-3.4,0-5.04c-0.07-15.99-0.55-31.97-1.77-47.92
			c-0.8-10.4-1.75-20.79-2.69-31.18c-0.46-5.16-1.87-10.04-4.58-14.5c-4.04-6.64-8.42-13.04-14.03-18.47
			c-6.39-6.19-14.06-9.87-22.82-11.34c-12.1-2.02-24.15-4.31-36.28-6.08c-8.77-1.28-17.63-1.9-26.46-2.79
			c-1.59-0.16-3.19-0.26-4.79-0.31c-2.59-0.09-5.21-0.36-7.78-0.12c-4.01,0.36-7.9-0.23-11.8-0.87c-11.39-1.87-22.79-3.72-34.16-5.7
			c-7.28-1.27-14.49-2.92-21.78-4.11c-11-1.8-22.05-3.29-33.06-5.02c-9.82-1.54-19.61-3.29-29.44-4.84
			c-7.34-1.16-14.69-2.29-22.06-3.2c-9.88-1.22-19.66-2.95-29.42-4.93c-8.45-1.71-17.02-2.81-25.57-4
			c-14.21-1.98-28.43-3.86-42.65-5.69c-8.44-1.09-16.9-2.05-25.36-2.95c-9.65-1.04-19.32-1.95-28.98-2.92
			c-0.52-0.05-1.15-0.08-1.02-0.83c0.06-0.37,0.33-0.92,0.63-1.02c9.34-2.99,17.45-8.42,26.03-12.92
			c18.03-9.47,35.99-19.08,54.61-27.37c9.97-4.44,20.24-8.08,30.67-11.28c7.91-2.43,15.7-2.31,23.7-0.03
			c14.53,4.15,29.31,7.3,44.26,9.47c8.38,1.21,16.82,1.99,25.24,2.99c8.14,0.97,16.27,1.93,24.4,2.96
			c9.51,1.21,19.03,2.43,28.53,3.76c10.13,1.42,20.25,2.91,30.36,4.48c12.63,1.96,25.25,4.04,37.87,6.07
			c7.69,1.24,15.37,2.59,23.08,3.69c6.05,0.86,12.14,1.47,18.22,2.06c8.51,0.83,17.04,1.55,25.55,2.32
			c7.36,0.67,14.73,1.33,22.09,2.02c8.87,0.83,17.75,1.66,26.62,2.56c8.55,0.86,17.09,1.86,25.64,2.71
			c7.87,0.78,15.76,1.4,23.63,2.18c5.35,0.53,10.12,2.48,14.17,6.11c3.76,3.38,8.41,5.15,12.97,7.1c4,1.71,7.97,3.5,11.87,5.41
			c7.32,3.59,11.84,9.37,13.92,17.33c1.85,7.11,3.19,14.28,3.49,21.6c0.43,10.26,0.86,20.53,0.83,30.8
			c-0.04,10.99-0.61,21.97-0.96,32.96c-0.07,2.2-0.13,4.39-0.27,6.59c-0.02,0.38-0.34,0.94-0.66,1.07
			c-4.82,1.87-8.92,4.97-13.27,7.65c-2.61,1.61-5.43,2.87-8.16,4.28c-0.6,0.31-1.22,0.6-1.81,0.93c-4.73,2.58-6.27,5.6-5.55,10.96
			C542.96,207.97,543.19,209.42,543.43,211.02z M456.2,219.43c4.13-2.01,8.12-3.84,12.01-5.86c7.34-3.82,14.7-7.59,22.55-10.23
			c3.93-1.32,8.01-2.23,11.91-3.62c6.27-2.23,12.1-5.41,17.8-8.81c6.98-4.16,14.26-7.52,22.23-9.26c0.7-0.15,1.4-0.27,2.1-0.44
			c0.76-0.19,1.58-0.29,2.24-0.67c6.21-3.55,12.36-7.19,18.58-10.72c2.05-1.17,3.17-2.8,3.49-5.11c1.37-10.03,1.17-20.1,0.58-30.16
			c-0.63-10.77-1.23-21.54-0.86-32.34c0.08-2.29,0.01-4.59,0.01-7c-0.55,0.19-0.92,0.32-1.3,0.46
			c-16.74,5.89-33.05,12.86-48.84,20.92c-16.46,8.41-32.73,17.19-49.07,25.85c-5.43,2.88-10.8,5.87-16.22,8.83
			C454.33,173.94,455.26,196.6,456.2,219.43z"/>
		<path class="st0" d="M408.43,283.12c0.56-3.15-1.28-5.46-2.62-7.93c-2.42-4.47-5.07-8.82-8.68-12.46
			c-8.28-8.35-18.04-10.9-29.31-7.24c-3.73,1.21-7.15,2.86-9.28,6.35c-0.93,1.53-1.71,3.16-2.6,4.72c-0.43,0.75-0.91,1.5-1.49,2.13
			c-2.13,2.33-3.83,4.92-4.9,7.89c-0.21,0.58-0.4,0.97-1.14,0.94c-5.79-0.27-11.58-0.47-17.36-0.77c-6.98-0.37-13.76-1.9-20.51-3.56
			c-8.44-2.07-17-3.42-25.61-4.41c-9.49-1.1-19.01-1.86-28.5-2.96c-7.1-0.82-14.17-2-21.26-2.9c-5.39-0.69-10.79-1.31-16.21-1.76
			c-8.78-0.73-17.43-2.26-25.99-4.29c-7.3-1.74-14.56-3.67-21.85-5.45c-1.93-0.47-3.92-0.78-5.89-1.04
			c-3.58-0.47-5.73-2.48-6.88-5.83c-1.19-3.47-2.39-6.94-3.79-10.33c-1.53-3.71-3.38-7.31-6.63-9.83c-2.49-1.93-5.18-3.6-7.8-5.36
			c-0.31-0.21-0.75-0.25-1.14-0.32c-3.75-0.6-7.49-1.22-11.25-1.75c-0.66-0.09-1.45,0.02-2.06,0.3c-6.68,3.01-12.06,7.6-16.34,13.53
			c-0.91,1.26-1.93,2.44-2.92,3.64c-1.97,2.39-3.56,5.01-4.63,7.93c-0.24,0.66-0.55,0.85-1.22,0.73c-4.56-0.81-9.13-1.57-13.69-2.4
			c-1.57-0.29-2.37-1.26-2.64-2.85c-0.94-5.51-1.88-11.02-2.85-16.52c-1.9-10.66-13.46-17.37-21.94-17.03
			c-9.72,0.39-18.06,3.63-23.15,12.68c-0.3,0.53-1.07,0.8-1.61,1.17c0.13-5.53,0.3-11.08,0.37-16.63c0.06-4.31-0.01-8.62-0.03-12.94
			c-0.02-3.26-1.24-4.6-4.49-4.81c-2.15-0.14-4.31-0.22-6.47-0.24c-2.72-0.02-3.99,1.08-4.22,3.79c-0.65,7.68-1.28,15.37-1.83,23.06
			c-0.23,3.21,1.31,5.44,4.45,6.36c2.83,0.83,5.73,1.41,8.61,2.1c0.69,0.17,1.39,0.31,2.25,0.5c-3.26,3.03-4.57,6.83-5.29,11.05
			c-0.76-0.26-1.49-0.43-2.14-0.75c-2.97-1.45-6.03-2.77-8.85-4.47c-4.23-2.54-6.66-6.38-6.95-11.39
			c-0.45-7.74-0.95-15.47-1.22-23.21c-0.24-7.15-0.07-14.31-0.31-21.45c-0.34-10.38-0.89-20.76-1.35-31.14c-0.03-0.67,0-1.35,0-2.08
			c2.15,0.39,4.25,0.85,6.36,1.14c7.56,1.05,15.13,2.05,22.69,3.06c4.88,0.65,9.7,1.56,14.4,3.05c6.33,2,12.91,2.61,19.44,3.46
			c12.92,1.67,25.84,3.35,38.76,4.96c7.69,0.96,15.39,1.9,23.11,2.66c10.56,1.03,20.97,2.88,31.31,5.2
			c9.67,2.17,19.35,4.28,29.22,5.32c3.38,0.36,6.78,0.7,10.16,0.67c8.9-0.09,17.56,1.54,26.26,3.13
			c14.65,2.69,29.33,5.27,44.02,7.74c5.71,0.96,11.49,1.47,17.23,2.3c2.12,0.31,4.17,1.11,6.29,1.42
			c8.38,1.24,16.77,2.43,25.17,3.53c5.48,0.72,10.79,2.18,16.17,3.35c12.25,2.67,24.57,5.02,36.89,7.38c1.89,0.36,3.9,0.03,5.85,0.1
			c0.41,0.02,1.06,0.32,1.17,0.64c2.66,7.72,7.65,14,12.67,20.21c7.99,9.89,17.85,17.47,29.44,22.72c5.34,2.42,11,3.57,16.87,3.68
			c0.44,0.01,0.88,0.02,1.31,0.1c1.8,0.33,2.64,1.22,2.53,3.05c-0.18,2.87-0.49,5.73-0.8,8.59c-0.84,7.87-1.71,15.73-2.56,23.6
			c-0.62,5.76-5.71,9.71-11.46,8.95c-6.58-0.87-13.16-1.68-19.74-2.52C409.53,283.32,409.1,283.24,408.43,283.12z"/>
		<path class="st0" d="M444.13,209.89c0.52,9.02,1.05,18.03,1.57,27.05c0.09,1.59-1.54,2.79-3.08,2.31
			c-5.8-1.78-11.7-3.29-17.37-5.42c-9.93-3.73-18.05-10.15-25.14-17.94c-4.73-5.19-8.79-10.87-12.47-16.84
			c-1.37-2.23-2.4-4.56-2.49-7.27c-0.07-2.05-1.19-3.01-3.02-2.63c-6.1,1.24-12.08,0.4-18.08-0.76c-6.82-1.32-13.69-2.42-20.5-3.77
			c-7.44-1.48-14.82-3.26-22.27-4.7c-5.64-1.09-11.36-1.78-17.03-2.77c-8.1-1.42-16.17-3.09-24.28-4.42
			c-8.51-1.4-17.06-2.59-25.61-3.76c-8.43-1.15-16.89-2.14-25.33-3.23c-8.16-1.06-16.33-2.08-24.47-3.28
			c-9.96-1.47-19.89-3.12-29.84-4.68c-13.18-2.06-26.35-4.2-39.56-6.11c-13.45-1.95-26.93-3.59-40.39-5.49
			c-12.5-1.77-24.99-3.61-37.46-5.61c-4.04-0.65-8.07-1.66-11.95-2.96c-5.96-2-12.1-2.92-18.28-3.7
			c-5.27-0.66-10.55-1.29-15.82-1.96c-1.86-0.24-3.56-2.15-3.6-4.06c-0.06-3.27,0-6.55-0.11-9.83c-0.13-3.99-0.3-7.99-0.6-11.97
			c-0.62-8.44,0.5-16.67,2.84-24.75c0.92-3.17,2.01-6.31,3.24-9.38c1.27-3.17,3.82-5.27,6.65-7.02c1.58-0.98,3.29-1.15,5.08-0.74
			c8.8,2.04,17.65,3.84,26.64,4.77c6.12,0.64,12.26,1.1,18.4,1.48c7.52,0.47,14.91,1.79,22.31,3.04c11.58,1.95,23.22,3.54,34.9,4.82
			c8.13,0.89,16.19,2.46,24.26,3.83c17.09,2.9,34.13,6.14,51.26,8.75c23.34,3.56,46.66,7.24,69.91,11.33
			c9.87,1.74,19.75,3.47,29.68,4.89c7.27,1.04,14.62,1.64,21.94,2.27c11.39,0.97,22.81,1.59,34.18,2.77
			c7.02,0.73,13.96,2.22,20.94,3.33c5.96,0.95,11.93,1.82,17.88,2.81c9.06,1.51,17.74,4.16,24.79,10.33
			c7.3,6.38,13.68,13.58,17.19,22.86c1.26,3.32,1.69,6.79,1.88,10.33c0.3,5.5,0.83,11,1.22,16.5c0.49,7.02,0.94,14.03,1.39,21.05
			C443.76,202.86,443.94,206.38,444.13,209.89C444.13,209.89,444.13,209.89,444.13,209.89z M190.9,133.24
			c0.8-6.98,1.4-13.83,2.42-20.61c0.85-5.67-4.03-10.14-8.4-10.92c-10.8-1.94-21.61-3.88-32.38-6.01c-5.8-1.14-11.57-2-17.48-1
			c-1.83,0.31-3.42,1.98-3.57,3.81c-0.09,1.11-0.15,2.23-0.21,3.35c-0.44,8.22-0.88,16.44-1.31,24.65
			c-0.23,4.51-0.49,9.02-0.63,13.53c-0.09,2.75,0.98,4.02,3.68,4.64c1.16,0.27,2.37,0.35,3.55,0.57c12.21,2.26,24.41,4.53,36.62,6.8
			c3.8,0.71,7.6,1.48,11.42,2.07c2.29,0.35,5.46-1.7,5.69-3.67c0.66-5.62,1.18-11.26,1.76-16.88
			C191.52,133.41,191.23,133.33,190.9,133.24z M317.3,145.25c-0.01,0-0.02,0-0.03,0c0.26-5.55,0.58-11.09,0.77-16.64
			c0.11-3.26-1.32-5.15-4.41-6.19c-0.68-0.23-1.38-0.41-2.08-0.54c-5.98-1.07-11.95-2.14-17.93-3.19
			c-10.31-1.81-20.62-3.61-30.93-5.39c-2.98-0.51-4.52,0.57-4.89,3.59c-0.29,2.37-0.45,4.78-0.46,7.17
			c-0.01,2.73,0.44,5.48,0.29,8.2c-0.46,8.1-1.1,16.19-1.7,24.28c-0.1,1.34,0.19,2.55,1.02,3.59c1.73,2.16,3.86,3.53,6.75,3.53
			c0.91,0,1.84,0.16,2.72,0.39c2.31,0.62,4.55,1.64,6.89,1.94c11.45,1.46,22.92,2.77,34.4,4.06c5.66,0.64,8.47-3.05,8.81-7.57
			C316.95,156.76,317.05,151,317.3,145.25z M380.06,143.31c-0.18-2.91-0.58-5.83-0.48-8.73c0.11-2.99-1.55-4.22-3.97-5.01
			c-0.61-0.2-1.22-0.39-1.85-0.49c-1.93-0.31-3.88-0.53-5.81-0.86c-10.83-1.83-21.65-3.68-32.48-5.51c-1.42-0.24-2.85-0.4-4.28-0.52
			c-4.32-0.35-7.42,2.28-7.85,6.9c-0.24,2.65,0.07,5.36-0.15,8.01c-0.62,7.37-1.37,14.72-2.11,22.07c-0.19,1.86-0.21,3.8-0.79,5.55
			c-1.52,4.62-0.13,7.09,4.67,7.78c0.12,0.02,0.24,0.02,0.36,0.03c6.97,0.94,13.92,1.88,20.71,3.83c4.79,1.37,9.67,2.45,14.55,3.48
			c3.83,0.8,7.69,0.86,11.45-0.58c3.01-1.15,4.99-3.23,5.47-6.41c0.34-2.27,0.3-4.61,0.4-6.91c0.05-1.15-0.14-2.33,0.04-3.45
			C379.02,156.13,380.15,149.79,380.06,143.31z M71.47,119.64c0.06,0.01,0.11,0.01,0.17,0.02c-0.02,0.52-0.05,1.04-0.07,1.56
			c-0.17,5.08,1.26,9.87,2.69,14.66c0.27,0.92,0.77,1.29,1.66,1.4c2.42,0.29,4.83,0.69,7.25,0.92c3.62,0.34,7.26,0.47,10.87,0.88
			c6.79,0.78,13.54,1.78,20.16,3.55c3.42,0.91,6.7,0.42,9.42-2.07c2.27-2.08,2.92-4.85,3.12-7.8c0.41-5.94,0.9-11.87,1.34-17.81
			c0.38-5.22,0.77-10.44,1.1-15.66c0.14-2.25-0.98-3.86-3.15-4.47c-3.92-1.1-7.83-2.29-11.8-3.13c-10.28-2.17-20.59-4.19-30.89-6.24
			c-2.03-0.4-4.08-0.81-6.14-0.98c-1.98-0.17-3.03,0.62-3.48,2.55c-0.94,4.05-0.66,8.18-0.52,12.29c0.02,0.54,0.15,1.09,0.1,1.62
			C72.7,107.15,72.08,113.39,71.47,119.64z M65.76,121.83c0.29-2.55,0.57-5.05,0.86-7.54c0.92-7.86,1.82-15.71,2.77-23.57
			c0.31-2.58-0.53-4.72-2.27-6.55c-1.97-2.08-4.43-3.26-7.27-3.57c-2.66-0.29-5.34-0.45-8-0.72c-8.06-0.82-15.94-2.36-23.51-5.36
			c-1.55-0.61-3.35-0.83-5.02-0.81c-3.9,0.05-5.21,1.3-5.91,5.15c-0.05,0.27-0.09,0.55-0.09,0.83c-0.24,7.15-0.47,14.29-0.71,21.44
			c-0.17,5.19-0.33,10.38-0.53,15.57c-0.07,1.91-0.35,3.83-0.3,5.74c0.06,2.66,1.69,4.49,4.3,4.97c4.01,0.73,8.11,1.05,12.02,2.12
			c7.62,2.07,15.15,4.49,22.69,6.84c4.34,1.36,9.35-1.15,10.55-5.51c0.77-2.83,1.37-5.71,2.05-8.6
			C66.73,122.08,66.28,121.97,65.76,121.83z M252.36,123.27c0.03,0,0.06,0,0.09,0c0-2.2,0-4.39,0-6.59
			c-0.01-4.28-2.06-6.82-6.26-7.66c-0.86-0.17-1.75-0.29-2.62-0.27c-9.78,0.22-19.47-0.85-29.15-2.08
			c-4.27-0.54-8.53-0.33-12.65,1.18c-1.67,0.62-2.5,1.73-2.56,3.5c-0.21,6.03-0.47,12.06-0.68,18.09
			c-0.23,6.82-0.7,13.64-0.28,20.47c0.18,2.85,1.28,4.4,4.13,4.84c2.88,0.45,5.78,0.8,8.66,1.23c5.85,0.86,11.73,1.54,17.53,2.69
			c3.46,0.68,6.77,2.11,10.15,3.18c1.37,0.43,2.74,0.88,4.14,1.15c4.5,0.86,7.27-0.89,8.41-5.33c0.97-3.8,0.93-7.67,0.63-11.56
			c-0.2-2.7-0.49-5.42-0.41-8.12C251.66,133.08,252.06,128.17,252.36,123.27z M395.81,153.32c-0.7,0.09-1.62,0.13-2.52,0.32
			c-4.07,0.83-6.1,3.63-5.44,7.75c0.3,1.88,1.01,3.69,1.46,5.55c3.04,12.49,7.64,24.34,14.12,35.47c3.17,5.45,6.83,10.38,12.12,14
			c2.92,2,5.62,4.32,8.4,6.53c1.53,1.22,2.97,2.56,4.53,3.74c1.66,1.25,3.57,1.95,5.66,2.05c1.97,0.1,2.81-0.41,3.41-2.3
			c1.37-4.33,1.85-8.78,1.29-13.3c-0.88-7.17-1.98-14.32-2.7-21.51c-0.9-8.94-1.45-17.92-2.27-26.87c-0.53-5.84-2.08-8.33-8.49-8.88
			c-6.53-0.56-13.06-1.03-19.59-1.58C402.55,154.01,399.29,153.66,395.81,153.32z"/>
		<path class="st0" d="M573.36,187.25c-1.4,2.35-2.7,4.77-4.82,6.63c-2.14,1.88-3.04,4.27-2.84,7.18c0.15,2.18-0.05,4.38-0.09,6.57
			c-0.01,0.64-0.04,1.28-0.01,1.92c0.12,2.25,0.48,2.58,2.76,2.58c0.8,0,1.59,0,2.74,0c-1.74,2-2.85,4.17-5.02,5.47
			c-11.78,7.08-23.82,13.69-36.05,19.96c-22.85,11.72-46.26,22.26-69.62,32.89c-3.74,1.7-7.37,3.66-11.05,5.5
			c-0.38,0.19-0.78,0.35-1.38,0.63c0.21-1.94,0.42-3.67,0.59-5.4c0.33-3.3,0.62-6.6,0.97-9.9c0.31-2.92,1.32-3.83,4.25-3.9
			c2.91-0.07,2.91-0.07,3.83,2.73c0.06,0.19,0.11,0.38,0.17,0.57c0.97,3.2,0.67,4.41-2.32,5.88c-3.12,1.53-5.11,3.94-6.74,6.99
			c3.34-0.99,6.59-1.94,9.83-2.91c0.18-0.05,0.37-0.19,0.47-0.34c1.79-2.58,3.45-5.18,3.23-8.55c-0.17-2.59-0.17-5.19-0.24-7.79
			c-0.01-0.38,0-0.76,0.24-1.22c0.67,0.96,1.34,1.93,2.01,2.89c1.47,2.12,3.14,4.04,5.38,5.39c1.16,0.69,2.2,0.86,3.58,0.25
			c19.64-8.66,38.5-18.87,57.41-28.98c8.7-4.65,17.41-9.26,26.12-13.89c0.28-0.15,0.56-0.31,0.84-0.47c2.7-1.58,3.25-2.72,2.76-5.78
			c-0.49-3.04-1.06-6.06-1.44-9.11c-0.28-2.22-0.32-4.46-0.42-6.69c-0.08-1.79,0.53-3.32,2.08-4.33c1.77-1.16,3.54-2.31,5.37-3.36
			c1.42-0.82,2.92-1.48,4.39-2.21C572.05,185.56,572.05,185.56,573.36,187.25z"/>
		<path class="st0" d="M473.13,258.22c-1.69-1.49-3.39-2.99-5.21-4.6c2.13-1.12,4.13-2.17,6.11-3.23
			c14.31-7.71,28.57-15.48,42.92-23.11c12.48-6.63,25.22-12.75,38.34-18.03c0.39-0.16,0.8-0.29,1.34-0.49
			c-0.55,2.4-0.93,4.45-3.19,6.06c-7.75,5.51-16.1,9.93-24.5,14.3c-18.41,9.58-36.81,19.2-55.21,28.8
			C473.56,258.01,473.38,258.1,473.13,258.22z"/>
		<path class="st0" d="M370.65,270.34c7.43,0.12,11.88,3.92,15.03,9.63c1.62,2.94,2.49,6.14,2.74,9.48c0.19,2.55-0.97,4.68-2.5,6.57
			c-3.78,4.68-8.87,6.46-14.73,6.35c-8.33-0.16-14.93-5.78-16.42-13.9c-1.57-8.58,2.99-15.45,11.67-17.49
			C367.98,270.61,369.58,270.49,370.65,270.34z M361.91,287.19c-0.09,3.89,3.03,7.54,6.74,7.61c2.74,0.05,5.19-0.84,7.23-2.69
			c3.96-3.59,3.42-10.69-1.03-13.76c-0.35-0.24-0.78-0.45-1.19-0.49c-1.38-0.13-2.78-0.3-4.16-0.22c-3.04,0.19-5.18,1.83-6.27,4.62
			C362.61,283.83,362.34,285.54,361.91,287.19z"/>
		<path class="st0" d="M107.77,249.67c-0.22-6.94,6.47-14.01,13.37-14.1c8.53-0.11,16.39,5.76,17.36,15.06
			c0.33,3.13-0.56,5.83-2.42,8.28c-2.86,3.77-6.39,6.76-11.1,7.63c-6.68,1.24-13.62-1.66-15.96-9.83
			C108.37,254.43,108.17,252.02,107.77,249.67z M131.79,250.43c-0.16-3.29-1.13-5.93-3.18-8.12c-4.02-4.3-9.49-4.01-12.86,0.8
			c-0.96,1.37-1.7,3.01-2.11,4.63c-1.31,5.2,2.22,10.46,7.27,11.1c3.89,0.49,9.44-3.08,10.58-6.84
			C131.68,251.4,131.73,250.76,131.79,250.43z"/>
		<path class="st0" d="M35.11,237.5c0.28-2.33,0.35-4.71,0.88-6.98c1.28-5.5,4.54-8.31,10.17-8.6c6.05-0.32,11.56,1.29,15.66,5.99
			c3.5,4.01,5.05,8.72,2.72,13.86c-2.16,4.75-5.9,7.93-11.09,9.05c-1.51,0.32-3.18,0.12-4.75-0.08c-2.05-0.26-4.09-0.7-6.1-1.19
			c-4.33-1.06-6.61-3.92-7.04-8.31c-0.12-1.23-0.19-2.47-0.28-3.7C35.23,237.52,35.17,237.51,35.11,237.5z M42.67,239.44
			c0.17,1.02,0.28,2.3,0.61,3.53c0.73,2.66,2.55,4.07,5.3,3.89c4.68-0.3,8.17-2.73,10.74-6.55c1.14-1.68,1.39-3.54,0.86-5.51
			c-0.6-2.25-1.81-4.14-3.43-5.81c-3.56-3.69-10.07-2.14-12.05,1.98C43.45,233.58,42.91,236.33,42.67,239.44z"/>
		<path class="st0" d="M590.73,106.89c0,2.12,0.12,4.25-0.05,6.35c-0.08,1-0.72,1.96-1.13,2.92c-0.09,0.21-0.31,0.36-0.47,0.54
			c-2.73,2.97-2.73,2.96-6.13,0.87c-0.61-0.37-1.26-0.77-1.94-0.9c-1.06-0.21-1.26-0.84-1.34-1.76c-0.81-9.2-1.63-18.39-2.5-27.58
			c-0.08-0.8,0.16-1.23,0.76-1.69c1.26-0.97,2.46-2.04,3.67-3.07c1.78-1.51,2.99-1.39,4.21,0.6c2.18,3.55,3.53,7.46,4.11,11.56
			c0.57,4.03,0.82,8.1,1.21,12.15C590.99,106.88,590.86,106.88,590.73,106.89z"/>
		<path class="st0" d="M53.8,216.5c5.35-4.76,11.29-5.11,16-0.57c1.72,1.66,3.36,3.42,4.86,5.28c1.6,1.99,2.23,4.37,2.15,6.95
			c-0.08,2.71-0.09,5.43-0.13,8.14c-0.08,5.47-2.52,9.71-6.76,13.02c-0.11,0.09-0.25,0.14-0.59,0.33c4.56-6.92,4.92-14.02,1.7-21.24
			C67.77,221.07,61.92,217.15,53.8,216.5z"/>
		<path class="st0" d="M394.15,296.89c0.28-2.17,0.75-4.37,0.8-6.58c0.25-10.15-5.13-21.12-14.36-25.23
			c-2.44-1.09-4.99-1.65-7.66-1.71c-0.39-0.01-0.77-0.04-1.16-0.05c0-0.15,0-0.31,0-0.46c2.12-0.02,4.26-0.21,6.36-0.02
			c4.97,0.45,9.72,1.78,14.21,4.02c2.73,1.36,4.68,3.31,5.78,6.23c1.84,4.92,2.92,9.88,1.74,15.12c-0.72,3.21-2.28,5.95-4.82,8.08
			c-0.21,0.18-0.43,0.35-0.66,0.51C394.27,296.87,394.15,296.89,394.15,296.89z"/>
		<path class="st0" d="M145.43,256.13c0.82-14.82-6.57-23.43-20.29-27.64c2.33-0.73,4.44-0.77,6.57-0.4
			c2.67,0.46,5.05,1.65,7.02,3.44c2.81,2.55,5.63,5.13,8.12,7.97C151.68,245.04,151.14,251.05,145.43,256.13z"/>
		<path class="st0" d="M30.7,201.84c-2.89,0.8-5.68,1.58-8.65,2.4c0.09-1.44,0.16-2.78,0.27-4.11c0.23-2.86,0.41-5.73,0.74-8.58
			c0.23-2.03,0.97-2.51,2.98-2.3c3.31,0.35,3.42,0.5,3.72,3.77C30.03,195.92,30.38,198.81,30.7,201.84z"/>
		<path class="st0" d="M450.32,253.43c-0.05-5.11,3.49-7.13,7.47-8.97c1.36,2.6,2.73,5.22,4.17,7.97
			C457.97,252.77,454.14,253.1,450.32,253.43z"/>
		<path class="st0" d="M478.23,242.59c-3.92,2.49-7.81,4.97-11.77,7.48c-0.72-1.12-1.4-2.18-2.26-3.53c2.53-1.8,4.93-3.71,7.53-5.29
			C473.92,239.94,475.96,240.51,478.23,242.59z"/>
		<path class="st0" d="M549.31,207.11c-0.43-1.55-0.83-2.88-1.15-4.23c-0.37-1.53,0.26-2.68,1.61-3.38c1.63-0.83,3.3-1.57,5.17-2.45
			c0.28,2.66,0.9,5.13,0.09,7.57c-0.21,0.63-1.05,1.22-1.73,1.48C552.08,206.56,550.77,206.76,549.31,207.11z"/>
		<path class="st0" d="M29.8,213.73c-2.21-0.83-4.25-1.59-6.28-2.39c-0.2-0.08-0.45-0.38-0.46-0.58c-0.04-0.87-0.07-1.76,0.03-2.62
			c0.11-0.94,0.79-1.39,1.69-1.32c1.93,0.14,3.86,0.35,5.94,0.55C30.41,209.57,30.12,211.59,29.8,213.73z"/>
		<path class="st0" d="M573.18,195.65c-0.51,3.79-1.02,7.54-1.53,11.34c-1.18,0.05-1.88-0.25-1.91-1.6
			c-0.03-1.51-0.34-3.01-0.37-4.52C569.31,198.12,570.44,196.63,573.18,195.65z"/>
		<path d="M456.2,219.43c-0.93-22.83-1.86-45.48-2.79-68.17c5.42-2.95,10.79-5.95,16.22-8.83c16.33-8.66,32.6-17.45,49.07-25.85
			c15.8-8.07,32.1-15.03,48.84-20.92c0.37-0.13,0.75-0.26,1.3-0.46c0,2.42,0.07,4.71-0.01,7c-0.37,10.8,0.23,21.57,0.86,32.34
			c0.59,10.06,0.79,20.13-0.58,30.16c-0.31,2.31-1.43,3.94-3.49,5.11c-6.22,3.53-12.38,7.17-18.58,10.72
			c-0.66,0.38-1.48,0.48-2.24,0.67c-0.69,0.17-1.4,0.29-2.1,0.44c-7.97,1.74-15.25,5.1-22.23,9.26c-5.69,3.39-11.53,6.58-17.8,8.81
			c-3.91,1.39-7.98,2.29-11.91,3.62c-7.86,2.64-15.22,6.41-22.55,10.23C464.32,215.58,460.33,217.42,456.2,219.43z M559.24,102.26
			c-0.57,0.24-0.97,0.4-1.37,0.57c-7.04,3.03-14.04,6.13-21.13,9.05c-3.23,1.33-5.23,3.56-5.77,6.91
			c-0.88,5.48-1.74,10.97-2.26,16.48c-0.47,4.97,0.52,9.72,3.64,13.82c2.14,2.82,4.85,5.02,7.97,6.61c3.94,2.01,8,3.79,12.03,5.64
			c0.38,0.17,0.87,0.27,1.27,0.19c1.86-0.39,4.1-3.18,4.12-5.09c0.09-7.51,0.13-15.03,0.26-22.54c0.05-3.19-0.01-6.43,0.47-9.57
			C559.59,117.06,559.3,109.76,559.24,102.26z M505.94,184.77c-1.85-2.36-3.55-4.62-5.35-6.8c-1.81-2.19-4.18-2.89-6.89-2.08
			c-1.21,0.37-2.39,0.9-3.52,1.48c-10.34,5.32-20.31,11.36-31.21,15.79c0,3.27,0,6.77,0,10.48
			C474.7,197.32,490.31,191.05,505.94,184.77z M458.76,211.47c0,0.15,0.01,0.3,0.01,0.45c0.54,0.05,1.17,0.32,1.6,0.13
			c14.9-6.27,29.75-12.65,44.67-18.86c17.76-7.39,35.54-14.75,52.59-23.71c2.32-1.22,4.61-2.47,6.95-3.72
			c-2.46-2.82-5.08-3.27-8.09-1.49c-0.69,0.41-1.34,0.87-1.99,1.33c-6.59,4.64-13.56,8.58-21.14,11.38
			c-1.91,0.71-3.85,1.39-5.63,2.35c-8.06,4.36-16.45,7.94-25,11.2c-13.12,5.02-26.27,9.97-38.77,16.47
			C461.82,208.12,460.21,209.65,458.76,211.47z M564.23,160.94c1.92-0.26,1.92-0.26,1.92-2.13c0-18.95,0-37.89,0-56.84
			c0-0.52,0-1.03,0-1.74c-0.58-0.06-1.35-0.38-1.64-0.13c-0.95,0.82-1.75,1.72-1.72,3.23c0.15,6.51,0.21,13.02,0.22,19.53
			c0.02,7.07-0.03,14.15-0.08,21.22c-0.02,2.63-0.15,5.27-0.22,7.9C562.63,155.07,562.72,158.12,564.23,160.94z"/>
		<path d="M190.9,133.24c0.33,0.09,0.62,0.17,1.17,0.32c-0.58,5.62-1.1,11.26-1.76,16.88c-0.23,1.97-3.41,4.02-5.69,3.67
			c-3.82-0.59-7.62-1.36-11.42-2.07c-12.21-2.26-24.41-4.54-36.62-6.8c-1.18-0.22-2.38-0.3-3.55-0.57c-2.7-0.62-3.77-1.89-3.68-4.64
			c0.14-4.51,0.4-9.02,0.63-13.53c0.43-8.22,0.87-16.44,1.31-24.65c0.06-1.12,0.12-2.23,0.21-3.35c0.15-1.83,1.74-3.5,3.57-3.81
			c5.9-1,11.67-0.15,17.48,1c10.77,2.12,21.57,4.06,32.38,6.01c4.37,0.79,9.25,5.26,8.4,10.92
			C192.31,119.41,191.7,126.26,190.9,133.24z"/>
		<path d="M317.3,145.25c-0.25,5.75-0.36,11.51-0.8,17.24c-0.35,4.51-3.15,8.2-8.81,7.57c-11.47-1.29-22.94-2.6-34.4-4.06
			c-2.34-0.3-4.59-1.32-6.89-1.94c-0.88-0.24-1.81-0.39-2.72-0.39c-2.89,0-5.03-1.37-6.75-3.53c-0.83-1.04-1.12-2.25-1.02-3.59
			c0.6-8.09,1.24-16.18,1.7-24.28c0.15-2.72-0.3-5.47-0.29-8.2c0.01-2.39,0.17-4.8,0.46-7.17c0.37-3.02,1.92-4.11,4.89-3.59
			c10.31,1.78,20.62,3.58,30.93,5.39c5.98,1.05,11.96,2.11,17.93,3.19c0.7,0.13,1.41,0.31,2.08,0.54c3.09,1.05,4.52,2.94,4.41,6.19
			c-0.18,5.55-0.5,11.1-0.77,16.64C317.28,145.25,317.29,145.25,317.3,145.25z"/>
		<path d="M380.06,143.31c0.09,6.49-1.04,12.82-2.11,19.17c-0.19,1.12,0,2.3-0.04,3.45c-0.1,2.31-0.06,4.64-0.4,6.91
			c-0.48,3.19-2.46,5.27-5.47,6.41c-3.76,1.43-7.62,1.38-11.45,0.58c-4.88-1.02-9.76-2.1-14.55-3.48
			c-6.79-1.95-13.75-2.89-20.71-3.83c-0.12-0.02-0.24-0.02-0.36-0.03c-4.8-0.69-6.19-3.16-4.67-7.78c0.57-1.75,0.6-3.69,0.79-5.55
			c0.73-7.36,1.49-14.71,2.11-22.07c0.22-2.66-0.09-5.36,0.15-8.01c0.43-4.62,3.53-7.25,7.85-6.9c1.43,0.12,2.87,0.28,4.28,0.52
			c10.83,1.83,21.65,3.68,32.48,5.51c1.93,0.33,3.88,0.55,5.81,0.86c0.63,0.1,1.24,0.3,1.85,0.49c2.42,0.79,4.07,2.02,3.97,5.01
			C379.48,137.48,379.88,140.4,380.06,143.31z"/>
		<path d="M71.47,119.64c0.61-6.24,1.23-12.49,1.82-18.73c0.05-0.53-0.08-1.08-0.1-1.62c-0.14-4.11-0.42-8.24,0.52-12.29
			c0.45-1.93,1.5-2.72,3.48-2.55c2.06,0.17,4.11,0.58,6.14,0.98c10.3,2.05,20.61,4.07,30.89,6.24c3.98,0.84,7.88,2.02,11.8,3.13
			c2.17,0.61,3.29,2.22,3.15,4.47c-0.33,5.22-0.72,10.44-1.1,15.66c-0.44,5.94-0.92,11.87-1.34,17.81c-0.21,2.95-0.85,5.72-3.12,7.8
			c-2.72,2.5-6,2.98-9.42,2.07c-6.63-1.77-13.37-2.77-20.16-3.55c-3.61-0.41-7.25-0.54-10.87-0.88c-2.42-0.23-4.83-0.63-7.25-0.92
			c-0.89-0.11-1.39-0.47-1.66-1.4c-1.43-4.79-2.86-9.58-2.69-14.66c0.02-0.52,0.05-1.04,0.07-1.56
			C71.58,119.65,71.53,119.64,71.47,119.64z"/>
		<path d="M65.76,121.83c0.52,0.14,0.97,0.25,1.63,0.43c-0.68,2.89-1.28,5.77-2.05,8.6c-1.19,4.36-6.2,6.87-10.55,5.51
			c-7.54-2.35-15.07-4.77-22.69-6.84c-3.91-1.06-8.02-1.38-12.02-2.12c-2.62-0.48-4.24-2.3-4.3-4.97c-0.05-1.91,0.23-3.82,0.3-5.74
			c0.19-5.19,0.36-10.38,0.53-15.57c0.24-7.15,0.47-14.29,0.71-21.44c0.01-0.28,0.04-0.56,0.09-0.83c0.7-3.85,2-5.1,5.91-5.15
			c1.68-0.02,3.48,0.2,5.02,0.81c7.57,3,15.46,4.54,23.51,5.36c2.66,0.27,5.34,0.42,8,0.72c2.83,0.31,5.29,1.49,7.27,3.57
			c1.74,1.83,2.58,3.97,2.27,6.55c-0.95,7.85-1.85,15.71-2.77,23.57C66.33,116.78,66.05,119.28,65.76,121.83z"/>
		<path d="M252.36,123.27c-0.3,4.91-0.7,9.81-0.86,14.72c-0.08,2.7,0.2,5.42,0.41,8.12c0.29,3.88,0.34,7.75-0.63,11.56
			c-1.14,4.44-3.91,6.19-8.41,5.33c-1.4-0.27-2.78-0.72-4.14-1.15c-3.39-1.07-6.69-2.5-10.15-3.18c-5.79-1.14-11.68-1.83-17.53-2.69
			c-2.89-0.42-5.78-0.78-8.66-1.23c-2.84-0.45-3.95-1.99-4.13-4.84c-0.43-6.84,0.04-13.65,0.28-20.47
			c0.21-6.03,0.46-12.06,0.68-18.09c0.06-1.77,0.89-2.88,2.56-3.5c4.12-1.52,8.38-1.72,12.65-1.18c9.68,1.23,19.37,2.3,29.15,2.08
			c0.87-0.02,1.76,0.1,2.62,0.27c4.19,0.84,6.25,3.37,6.26,7.66c0,2.2,0,4.39,0,6.59C252.42,123.26,252.39,123.27,252.36,123.27z"/>
		<path d="M395.81,153.32c3.48,0.34,6.74,0.69,10,0.96c6.53,0.55,13.06,1.02,19.59,1.58c6.41,0.55,7.95,3.05,8.49,8.88
			c0.82,8.95,1.37,17.92,2.27,26.87c0.72,7.19,1.82,14.34,2.7,21.51c0.55,4.52,0.08,8.97-1.29,13.3c-0.6,1.89-1.44,2.4-3.41,2.3
			c-2.09-0.1-4-0.8-5.66-2.05c-1.56-1.18-3-2.52-4.53-3.74c-2.78-2.21-5.48-4.53-8.4-6.53c-5.29-3.62-8.95-8.56-12.12-14
			c-6.47-11.13-11.08-22.98-14.12-35.47c-0.45-1.86-1.16-3.67-1.46-5.55c-0.66-4.11,1.37-6.91,5.44-7.75
			C394.19,153.46,395.11,153.41,395.81,153.32z M434.69,220.85c-0.4-0.28-0.82-0.58-1.24-0.87c-12.59-8.65-22.37-19.71-28.92-33.56
			c-4.15-8.77-6.71-18.01-8.24-27.56c-0.13-0.83-1.37-1.42-1.78-0.79c-0.92,1.44-2.22,2.77-1.84,4.76
			c1.68,8.76,3.97,17.34,7.45,25.59c6.13,14.55,16.1,25.78,29.34,34.21C431.69,224.06,433.62,223.4,434.69,220.85z"/>
		<path d="M361.91,287.19c0.43-1.65,0.7-3.36,1.32-4.93c1.09-2.8,3.23-4.43,6.27-4.62c1.38-0.09,2.78,0.09,4.16,0.22
			c0.41,0.04,0.85,0.25,1.19,0.49c4.45,3.07,4.99,10.17,1.03,13.76c-2.04,1.85-4.48,2.74-7.23,2.69
			C364.94,294.73,361.83,291.08,361.91,287.19z"/>
		<path d="M131.79,250.43c-0.06,0.33-0.11,0.97-0.29,1.58c-1.14,3.76-6.7,7.33-10.58,6.84c-5.05-0.64-8.57-5.91-7.27-11.1
			c0.41-1.62,1.15-3.26,2.11-4.63c3.36-4.81,8.84-5.1,12.86-0.8C130.67,244.5,131.64,247.14,131.79,250.43z"/>
		<path d="M42.67,239.44c0.25-3.11,0.78-5.86,2.03-8.46c1.98-4.12,8.49-5.67,12.05-1.98c1.61,1.67,2.82,3.56,3.43,5.81
			c0.53,1.96,0.27,3.82-0.86,5.51c-2.57,3.82-6.06,6.25-10.74,6.55c-2.75,0.18-4.57-1.23-5.3-3.89
			C42.94,241.74,42.84,240.46,42.67,239.44z"/>
		<path class="st0" d="M559.24,102.26c0.06,7.5,0.36,14.79-0.76,22.07c-0.48,3.14-0.41,6.37-0.47,9.57
			c-0.13,7.51-0.17,15.03-0.26,22.54c-0.02,1.91-2.26,4.7-4.12,5.09c-0.4,0.08-0.89-0.02-1.27-0.19c-4.02-1.85-8.08-3.63-12.03-5.64
			c-3.12-1.59-5.82-3.79-7.97-6.61c-3.12-4.1-4.11-8.85-3.64-13.82c0.52-5.52,1.38-11.01,2.26-16.48c0.54-3.36,2.54-5.58,5.77-6.91
			c7.08-2.92,14.09-6.02,21.13-9.05C558.27,102.66,558.67,102.5,559.24,102.26z"/>
		<path class="st0" d="M505.94,184.77c-15.63,6.28-31.25,12.55-46.98,18.87c0-3.7,0-7.21,0-10.48c10.9-4.43,20.87-10.47,31.21-15.79
			c1.13-0.58,2.31-1.12,3.52-1.48c2.72-0.82,5.08-0.12,6.89,2.08C502.39,180.15,504.1,182.41,505.94,184.77z"/>
		<path class="st0" d="M458.76,211.47c1.45-1.81,3.06-3.35,5.2-4.46c12.5-6.5,25.65-11.45,38.77-16.47c8.55-3.27,16.94-6.84,25-11.2
			c1.78-0.96,3.72-1.64,5.63-2.35c7.58-2.81,14.55-6.74,21.14-11.38c0.65-0.46,1.31-0.92,1.99-1.33c3.01-1.79,5.63-1.33,8.09,1.49
			c-2.34,1.25-4.63,2.5-6.95,3.72c-17.06,8.95-34.83,16.31-52.59,23.71c-14.92,6.21-29.77,12.6-44.67,18.86
			c-0.44,0.18-1.06-0.08-1.6-0.13C458.77,211.76,458.77,211.62,458.76,211.47z"/>
		<path class="st0" d="M564.23,160.94c-1.51-2.82-1.6-5.88-1.52-8.96c0.07-2.63,0.2-5.27,0.22-7.9c0.05-7.07,0.1-14.15,0.08-21.22
			c-0.02-6.51-0.08-13.02-0.22-19.53c-0.03-1.51,0.77-2.41,1.72-3.23c0.28-0.25,1.05,0.07,1.64,0.13c0,0.71,0,1.22,0,1.74
			c0,18.95,0,37.89,0,56.84C566.15,160.68,566.15,160.68,564.23,160.94z"/>
		<path class="st0" d="M434.69,220.85c-1.08,2.55-3,3.21-5.23,1.79c-13.24-8.43-23.21-19.67-29.34-34.21
			c-3.48-8.25-5.77-16.82-7.45-25.59c-0.38-2,0.92-3.33,1.84-4.76c0.41-0.63,1.65-0.04,1.78,0.79c1.53,9.55,4.09,18.79,8.24,27.56
			c6.55,13.85,16.34,24.91,28.92,33.56C433.87,220.27,434.29,220.57,434.69,220.85z"/>
	</g>
</g>
</svg>
