<?xml version="1.0" encoding="utf-8"?>
<!-- Generator: Adobe Illustrator 23.1.0, SVG Export Plug-In . SVG Version: 6.00 Build 0)  -->
<svg version="1.1" id="Calque_1" xmlns="http://www.w3.org/2000/svg" xmlns:xlink="http://www.w3.org/1999/xlink" x="0px" y="0px"
	 viewBox="0 0 595.28 299.34" style="enable-background:new 0 0 595.28 299.34;" xml:space="preserve">
<style type="text/css">
	.st0{fill:#FFFFFF;}
</style>
<g>
	<g>
		<path class="st0" d="M151.96,265.96l-0.01-0.01c0.1,9.73,6.11,16.13,12.66,22.15c11.23,10.32,26.6,9.72,36.57-1.89
			c2.6-3.03,3.68-7.44,5.15-11.33c0.76-2,0.86-4.25,1.26-6.39c1.23,3.02,1.03,6.03,1.28,9.01c0.38,4.51,6.64,10.51,10.04,10.06
			c11.49-1.52,22.96-3.72,34.5-4.28c28.57-1.37,57.16-2.43,85.76-2.75c22.5-0.25,45.02,1.15,67.53,1.18
			c21.66,0.03,43.33-0.61,64.98-1.33c2.99-0.1,7.37-1.61,8.53-3.81c2.18-4.15,2.47-9.28,3.54-14c0.51-2.24,0.64-4.64,1.55-6.69
			c5.1-11.57,17.47-16.97,30.78-13.63c10.95,2.75,11.52,3.1,14.06,8.86c-0.43,0-0.94,0.16-1.22-0.03c-0.87-0.59-1.68-1.27-2.45-2
			c-7.79-7.4-16.83-6.29-25.73-3.19c-8.62,3-14.43,8.69-14.47,18.75c-0.01,2.85-1.44,5.68-1.55,8.55c-0.17,4.25-0.83,8.93,0.61,12.7
			c4.37,11.44,17.43,14.78,29.16,13.02c6-0.9,12.02-2.16,16.57-7.24c3.22-3.59,5.97-6.93,5.66-12.08c-0.1-1.61,0.74-3.28,0.98-4.25
			c2.95,3.25,5.39,8.39,8.4,8.75c7.26,0.87,14.88,0.08,22.17-1.16c5.4-0.91,10.62-3.29,15.7-5.54c4.08-1.8,7.53-4.42,7.58-9.78
			c0.06-6.53,0.46-13.07,0.86-19.59c0.95-15.65,2.65-31.28,2.83-46.93c0.24-20.88-0.71-41.78-1.05-62.67
			c-0.36-21.93,1.42-44.11-6.82-65.17c-3.02-7.72-5.5-16.26-10.63-22.42c-8-9.61-17.89-17.7-27.38-25.97
			c-2.3-2.01-6.12-2.58-9.35-3.15c-6.99-1.24-14.05-2.07-21.08-3.04c-4.52-0.63-9.03-1.6-13.56-1.73
			c-5.62-0.16-11.28,0.78-16.9,0.56c-9.76-0.38-19.5-1.38-29.26-1.96c-15.32-0.9-30.66-1.41-45.96-2.54
			c-13.81-1.02-27.55-3.28-41.36-3.87c-22.36-0.96-44.75-1.14-67.14-1.41c-21.22-0.25-42.45,0.26-63.65-0.38
			c-21.93-0.66-43.83-2.23-65.73-3.52C163.34,3.1,151.33,2,139.29,1.39c-12.7-0.65-25.47-1.93-38.1-1.13
			C84,1.34,66.87,3.9,49.78,6.29c-12.88,1.8-25.61,4.42-34.2,15.79c-0.88,1.17-2.15,2.02-3.15,3.11C4.96,33.4-0.57,42.03,0.05,54.16
			c0.86,16.77,0.23,33.62,0.28,50.44c0.04,16.63,0.05,33.26,0.23,49.88c0.18,16.73,0.42,33.47,0.88,50.2
			c0.25,9.14,0,18.48,1.85,27.34c2.13,10.2,5.15,20.58,9.91,29.8c8.41,16.31,33.51,18.13,48.42,15.56
			c7.81,15.77,14.9,20.29,29.53,18.82c10.32-1.04,21.34-10.56,23.34-18.84c2.11,1.03,4.46,3.07,6.92,3.21
			c6.63,0.39,13.37,0.49,19.95-0.3c5-0.6,8.97-3.18,7.8-9.7C148.9,269.25,150.96,267.51,151.96,265.96z"/>
		<path d="M151.96,265.96c-1,1.55-3.06,3.29-2.82,4.61c1.18,6.52-2.8,9.1-7.8,9.7c-6.58,0.79-13.32,0.69-19.95,0.3
			c-2.46-0.14-4.8-2.18-6.92-3.21c-2,8.28-13.01,17.8-23.34,18.84c-14.63,1.47-21.72-3.05-29.53-18.82
			c-14.91,2.56-40.01,0.75-48.42-15.56c-4.75-9.21-7.77-19.59-9.91-29.8c-1.85-8.86-1.59-18.2-1.85-27.34
			c-0.47-16.73-0.71-33.46-0.88-50.2c-0.18-16.63-0.18-33.25-0.23-49.88C0.28,87.79,0.91,70.94,0.05,54.16
			C-0.57,42.03,4.96,33.4,12.44,25.19c0.99-1.09,2.27-1.95,3.15-3.11C24.17,10.7,36.9,8.09,49.78,6.29
			C66.87,3.9,84,1.34,101.19,0.25c12.63-0.8,25.4,0.48,38.1,1.13C151.33,2,163.34,3.1,175.37,3.81c21.91,1.29,43.81,2.86,65.73,3.52
			c21.2,0.64,42.43,0.13,63.65,0.38c22.38,0.26,44.78,0.44,67.14,1.41c13.82,0.59,27.55,2.85,41.36,3.87
			c15.3,1.13,30.64,1.64,45.96,2.54c9.76,0.57,19.49,1.57,29.26,1.96c5.62,0.22,11.27-0.72,16.9-0.56c4.53,0.13,9.04,1.1,13.56,1.73
			c7.03,0.98,14.09,1.8,21.08,3.04c3.23,0.57,7.05,1.15,9.35,3.15c9.49,8.27,19.37,16.37,27.38,25.97
			c5.13,6.16,7.61,14.7,10.63,22.42c8.23,21.05,6.46,43.24,6.82,65.17c0.34,20.89,1.3,41.78,1.05,62.67
			c-0.18,15.65-1.88,31.29-2.83,46.93c-0.4,6.53-0.8,13.06-0.86,19.59c-0.05,5.36-3.5,7.98-7.58,9.78
			c-5.08,2.24-10.3,4.62-15.7,5.54c-7.29,1.23-14.91,2.03-22.17,1.16c-3.01-0.36-5.45-5.51-8.4-8.75c-0.24,0.97-1.08,2.64-0.98,4.25
			c0.31,5.16-2.45,8.49-5.66,12.08c-4.55,5.08-10.56,6.34-16.57,7.24c-11.73,1.76-24.79-1.58-29.16-13.02
			c-1.44-3.77-0.79-8.45-0.61-12.7c0.12-2.87,1.54-5.7,1.55-8.55c0.04-10.06,5.85-15.75,14.47-18.75c8.9-3.1,17.94-4.21,25.73,3.19
			c0.76,0.72,1.58,1.4,2.45,2c0.28,0.19,0.79,0.03,1.22,0.03c-2.54-5.76-3.1-6.12-14.06-8.86c-13.31-3.34-25.67,2.06-30.78,13.63
			c-0.91,2.06-1.04,4.46-1.55,6.69c-1.07,4.72-1.37,9.86-3.54,14c-1.16,2.21-5.54,3.71-8.53,3.81c-21.65,0.72-43.32,1.37-64.98,1.33
			c-22.51-0.03-45.03-1.43-67.53-1.18c-28.59,0.32-57.19,1.38-85.76,2.75c-11.54,0.56-23.01,2.76-34.5,4.28
			c-3.4,0.45-9.66-5.54-10.04-10.06c-0.25-2.98-0.05-5.99-1.28-9.01c-0.4,2.14-0.5,4.39-1.26,6.39c-1.48,3.89-2.55,8.3-5.15,11.33
			c-9.97,11.61-25.34,12.22-36.57,1.89c-6.55-6.02-12.56-12.41-12.66-22.15c2.71-7.36,5.43-14.71,7.71-20.91
			C152.41,250.65,149.48,257.84,151.96,265.96z M586.86,211.55c-5.99-0.77-10.95-1.29-15.87-2.06
			c-15.2-2.38-27.49-11.48-40.71-18.26c-8.96-4.6-18.41-9.31-23.52-18.98c-5.06-9.58-9.4-19.42-10.04-30.43
			c-0.25-4.35-1.8-6.11-6.65-5.93c-11.29,0.41-22.6,0.12-33.9-0.04c-26.91-0.38-53.83-0.55-80.73-1.38
			c-24.83-0.77-49.64-2.5-74.47-3.41c-20.95-0.77-41.92-0.93-62.88-1.45c-16.28-0.4-32.56-0.8-48.84-1.43
			c-30.08-1.17-60.15-2.54-90.23-3.74c-6.12-0.24-12.28,0.22-18.39-0.17c-15.95-1.02-31.87-2.72-47.84-3.35
			C25.4,120.62,17.91,122.2,9.7,123c0,10.26-0.2,20.32,0.04,30.38c0.44,18.52,2.06,37.06,1.41,55.52
			c-0.45,12.86-0.68,25.05,4.88,37.08c5.3,11.48,12.19,19.53,25.86,21.13c10.52,1.23,8.04,1.51,10.85-8.15
			c2.97-10.21,6.81-19.76,18.31-24.51c9.35-3.86,18.58-5.22,28.02-3.13c5.91,1.31,12.66,3.62,16.65,7.77
			c7.72,8.03,11.71,18.37,10.31,29.92c9.61,3.19,13.75,0.66,15.24-8.29c2.63-15.76,11.09-27.33,26.2-33.1
			c11.5-4.4,22.65,0.09,33.01,4.14c9.91,3.86,15.48,12.55,16.59,23.52c0.63,6.22,1.24,12.44,2,20.1
			c41.93-1.47,83.87-3.74,125.83-4.19c42.2-0.45,84.42,0.92,126.87,1.5c0.26-3.39,0.39-5.03,0.51-6.66
			c1.01-14.08,7.77-24.96,20.12-31.2c8.61-4.36,17.96-4.68,27.94-1.61c9.69,2.98,16.58,7.84,20.46,16.85
			c3.61,8.39,6.68,17.01,10.14,25.93c2.91-0.5,6.16-0.53,8.98-1.63c11.89-4.64,24.85-8.49,23.4-25.47
			c-0.02-0.18,0.25-0.37,0.26-0.57C584.68,236.06,585.77,223.79,586.86,211.55z M9.06,116.6c25.13,0,48.74-0.32,72.32,0.12
			c13.72,0.26,27.42,1.81,41.14,2.64c4.18,0.25,8.4-0.22,12.57,0.1c7.89,0.61,15.74,1.91,23.64,2.25
			c10.69,0.47,21.41,0.06,32.1,0.48c13.21,0.51,26.39,1.93,39.6,2.15c16.96,0.28,33.93-0.43,50.9-0.35
			c6.33,0.03,12.64,1.26,18.97,1.59c5.77,0.3,11.57-0.07,17.34,0.16c23.12,0.9,46.22,2.14,69.35,2.78
			c9.03,0.25,18.1-0.78,27.15-1.08c1.19-0.04,2.47,0.67,3.58,1.28c0.78,0.43,1.33,1.29,1.98,1.96c0.41-1.13,0.82-2.25,1.34-3.69
			c2.89,1.94,5.67,4.25,9.26,1.53c0.69-0.52,2.08-0.32,3.1-0.17c13.67,2.02,27.26,3.5,41.17,1.48c7.4-1.07,15.09-0.33,22.63,0.04
			c1.69,0.08,4.07,1.66,4.75,3.17c1.24,2.79,1.39,6.05,2.1,9.09c3.46,14.82,5.62,30.44,20.76,38.93
			c12.51,7.02,24.87,14.45,37.96,20.2c7.16,3.14,15.68,3.17,24.61,4.79c0-13.09,0.29-25.34-0.09-37.57
			c-0.3-9.47-2.11-18.91-2.07-28.36c0.09-22.81,1.39-45.38-7.24-67.55c-6.82-17.52-17.95-30.71-34.25-38.06
			c-12.32-5.55-26.36-8.2-39.91-9.9c-17.31-2.17-34.91-1.96-52.38-3.02c-8.97-0.55-17.89-1.79-26.85-2.47
			c-9.64-0.74-19.31-1.21-28.96-1.76c-18.67-1.06-37.33-2.35-56.01-3.04c-13.45-0.5-26.92-0.01-40.38-0.26
			c-28.07-0.51-56.13-1.1-84.19-1.86c-18.48-0.5-36.96-1.29-55.43-2.08c-7.87-0.34-15.73-1.31-23.6-1.44
			c-17.28-0.27-34.59-0.69-51.85-0.05c-9.93,0.37-19.9,2.16-29.63,4.32c-10.52,2.33-21.53,2.47-29.91,12.18
			C15.7,35.45,7.04,44.06,8.64,59.86C10.48,78.09,9.06,96.64,9.06,116.6z M201.68,269.87c-0.8-3.19-1.21-6.56-2.51-9.53
			c-1.1-2.51-3.3-4.53-4.89-6.85c-1.97-2.87-3.14-7.21-5.82-8.51c-13.44-6.52-25.19-0.57-29.55,14.66
			c-0.99,3.46-2.08,8.36-0.44,10.83c3.99,6.02,9.06,11.6,14.61,16.26c6.79,5.7,13.84,2.48,20.25-1.75
			C198.63,281.47,203.11,277.4,201.68,269.87z M509.39,250.68c-2.94,0.71-6.21,0.83-8.76,2.24c-7.06,3.89-12.74,19.29-10.93,27.65
			c1.55,7.16,6.86,9.78,13.01,11.84c14.85,4.98,28.71-3.55,29.31-18.68c0.17-4.34-0.93-9.19-2.9-13.07
			C525.18,252.87,517.6,251.29,509.39,250.68z M103.84,252.59c-4.29-1.82-7.94-4.25-11.88-4.87c-9.99-1.57-20.75,5.23-24.37,14.46
			c-4.17,10.65,3.64,28.6,18.89,27.73c8.45-0.48,13.93-4.54,19.75-9.47c2.89-2.45,3.56-4.77,2.63-8.18
			C107.03,265.49,105.38,258.67,103.84,252.59z M195.64,239.4c4.26,8.55,8.62,17.31,12.39,24.89
			C209.92,254.7,203.95,242.2,195.64,239.4z M107.82,245.97c2.84,9.31,5.53,18.12,8.76,28.69
			C116.59,262.92,116.7,253.12,107.82,245.97z"/>
		<path class="st0" d="M586.86,211.55c-1.09,12.25-2.19,24.51-3.29,36.78c-0.02,0.2-0.28,0.39-0.26,0.57
			c1.45,16.97-11.51,20.83-23.4,25.47c-2.82,1.1-6.07,1.13-8.98,1.63c-3.46-8.92-6.52-17.54-10.14-25.93
			c-3.88-9.01-10.78-13.88-20.46-16.85c-9.99-3.07-19.34-2.75-27.94,1.61c-12.35,6.25-19.11,17.13-20.12,31.2
			c-0.12,1.64-0.25,3.27-0.51,6.66c-42.45-0.58-84.67-1.95-126.87-1.5c-41.96,0.44-83.9,2.72-125.83,4.19
			c-0.76-7.67-1.38-13.89-2-20.1c-1.11-10.97-6.68-19.65-16.59-23.52c-10.37-4.04-21.51-8.53-33.01-4.14
			c-15.11,5.77-23.56,17.35-26.2,33.1c-1.5,8.95-5.64,11.48-15.24,8.29c1.41-11.55-2.59-21.89-10.31-29.92
			c-3.99-4.15-10.74-6.46-16.65-7.77c-9.44-2.09-18.67-0.73-28.02,3.13c-11.5,4.75-15.34,14.3-18.31,24.51
			c-2.81,9.66-0.33,9.37-10.85,8.15c-13.67-1.59-20.56-9.65-25.86-21.13c-5.56-12.02-5.33-24.22-4.88-37.08
			c0.65-18.47-0.97-37.01-1.41-55.52C9.5,143.33,9.7,133.26,9.7,123c8.21-0.8,15.7-2.38,23.12-2.09
			c15.97,0.63,31.89,2.33,47.84,3.35c6.11,0.39,12.26-0.07,18.39,0.17c30.08,1.2,60.15,2.57,90.23,3.74
			c16.27,0.63,32.55,1.03,48.84,1.43c20.96,0.52,41.93,0.68,62.88,1.45c24.83,0.91,49.63,2.64,74.47,3.41
			c26.9,0.83,53.82,1,80.73,1.38c11.3,0.16,22.62,0.45,33.9,0.04c4.85-0.17,6.4,1.58,6.65,5.93c0.64,11.02,4.98,20.86,10.04,30.43
			c5.11,9.67,14.55,14.39,23.52,18.98c13.22,6.78,25.51,15.88,40.71,18.26C575.92,210.26,580.87,210.78,586.86,211.55z M471,147.28
			c-10.25-0.51-18.11-1.05-25.98-1.25c-17.99-0.47-35.99-0.81-53.99-1.13c-13.14-0.23-26.29-0.2-39.43-0.56
			c-21.33-0.59-42.66-1.51-64-2.08c-13.08-0.35-26.19,0-39.25-0.57c-14.62-0.65-29.19-2.45-43.81-2.89
			c-13.52-0.4-27.09,0.85-40.61,0.44c-14.61-0.44-29.19-2.01-43.78-3c-3.22-0.22-6.52,0.27-9.69-0.18
			c-5.95-0.84-7.51,0.51-7.48,6.44c0.04,6.25-0.52,12.5-0.54,18.75c-0.08,17.78-0.09,35.56,0.04,53.33c0.03,3.86,0.99,7.59,5.97,7.9
			c4.79,0.29,9.59,0.59,14.39,0.66c11.27,0.16,22.55,0.38,33.81,0.21c10.03-0.15,20.06-1.16,30.09-1.13
			c13.12,0.04,26.23,0.89,39.35,1.1c17.04,0.27,34.09,0.02,51.12,0.46c9.64,0.25,19.25,1.85,28.88,2.08
			c31.16,0.72,62.34,1.14,93.51,1.56c9.66,0.13,19.33-0.15,29-0.16c9.93-0.01,19.88-0.34,29.78,0.26
			c10.17,0.62,12.59-1.2,12.64-11.65c0.02-5.07,0.12-10.13,0.11-15.2C471.1,182.6,471.05,164.52,471,147.28z M47.91,250.85
			c0.42-3.83,1.21-7.52,1.17-11.21c-0.14-13.25-0.52-26.49-0.9-39.73c-0.1-3.37,0.11-6.85-5.27-6.5c-4.61,0.3-9.35-0.02-13.9-0.83
			c-3.55-0.63-4.77,0.47-4.77,3.68c0,14.67-0.33,29.36,0.31,44c0.16,3.6,2.84,9.32,5.52,10.12
			C35.46,251.97,41.68,250.85,47.91,250.85z"/>
		<path class="st0" d="M9.06,116.6c0-19.96,1.41-38.51-0.43-56.74c-1.6-15.8,7.06-24.41,15.98-34.75
			c8.38-9.72,19.39-9.85,29.91-12.18c9.73-2.16,19.7-3.94,29.63-4.32c17.26-0.65,34.57-0.22,51.85,0.05
			c7.87,0.12,15.73,1.1,23.6,1.44c18.47,0.79,36.95,1.58,55.43,2.08c28.06,0.76,56.13,1.35,84.19,1.86
			c13.46,0.24,26.94-0.24,40.38,0.26c18.68,0.69,37.34,1.98,56.01,3.04c9.66,0.55,19.32,1.03,28.96,1.76
			c8.96,0.68,17.88,1.92,26.85,2.47c17.46,1.07,35.06,0.85,52.38,3.02c13.55,1.7,27.59,4.35,39.91,9.9
			c16.3,7.34,27.43,20.53,34.25,38.06c8.63,22.17,7.33,44.75,7.24,67.55c-0.04,9.45,1.77,18.89,2.07,28.36
			c0.38,12.23,0.09,24.48,0.09,37.57c-8.92-1.62-17.45-1.64-24.61-4.79c-13.09-5.75-25.45-13.19-37.96-20.2
			c-15.14-8.49-17.3-24.11-20.76-38.93c-0.71-3.04-0.86-6.3-2.1-9.09c-0.67-1.51-3.06-3.09-4.75-3.17
			c-7.54-0.37-15.24-1.11-22.63-0.04c-13.91,2.02-27.5,0.54-41.17-1.48c-1.02-0.15-2.41-0.35-3.1,0.17
			c-3.6,2.72-6.38,0.41-9.26-1.53c-0.52,1.43-0.93,2.56-1.34,3.69c-0.65-0.67-1.2-1.52-1.98-1.96c-1.1-0.61-2.39-1.32-3.58-1.28
			c-9.05,0.3-18.12,1.33-27.15,1.08c-23.12-0.65-46.23-1.88-69.35-2.78c-5.77-0.23-11.57,0.14-17.34-0.16
			c-6.34-0.33-12.65-1.56-18.97-1.59c-16.97-0.08-33.94,0.63-50.9,0.35c-13.21-0.21-26.39-1.63-39.6-2.15
			c-10.69-0.42-21.41-0.01-32.1-0.48c-7.9-0.35-15.75-1.65-23.64-2.25c-4.17-0.32-8.39,0.15-12.57-0.1
			c-13.72-0.83-27.41-2.38-41.14-2.64C57.8,116.28,34.2,116.6,9.06,116.6z M581.73,106.94c-1.14-6.79-1.92-11.92-2.88-17.02
			c-1.68-8.93-6.46-12.31-15.81-12.64c-10.29-0.37-20.57-1.27-30.81-2.36c-6.79-0.72-11.28,2.23-11.68,9.08
			c-0.21,3.67,0.69,7.38,0.76,11.08c0.28,14.45-0.36,28.98,0.84,43.35c1.53,18.39,9.96,33.31,26.76,42.26
			c6.77,3.6,14.01,6.35,21.2,9.08c1.19,0.45,4.14-0.83,4.64-2.01c1.43-3.36,2.48-7.04,2.83-10.68c0.52-5.44,0.1-10.97,0.45-16.44
			C579.2,142.22,580.55,123.8,581.73,106.94z M510.47,55.67c-0.15-11.8-1.79-13.24-13.9-12.1c-0.95,0.09-1.93-0.24-2.9-0.34
			c-5.2-0.52-10.59-2.16-15.55-1.31c-12.57,2.15-24.67-1.16-36.93-2.14c-4.21-0.34-6.11,0.65-6.57,4.34
			c-0.68,5.39-1.25,10.82-1.29,16.24c-0.06,7.5,0.66,15.01,0.61,22.51c-0.05,8.15-0.86,16.3-0.75,24.45
			c0.03,2.3,1.66,6.07,3.34,6.58c4.27,1.3,8.97,1.44,13.51,1.49c15.01,0.18,30.02-0.04,45.03,0.19
			c11.68,0.17,17.53-6.29,16.84-18.15C511.11,83.53,510.92,69.59,510.47,55.67z M421.29,49.52c-1.76-3.06-2.79-7.47-5.23-8.49
			c-3.92-1.63-8.78-1.27-13.24-1.32c-17.33-0.19-34.65-0.24-51.98-0.29c-5.46-0.02-8.3,3.35-8.1,8.82
			c0.53,14.17,0.9,28.35,1.31,42.53c0.04,1.27,0.08,2.55-0.08,3.8c-1.4,11.09,2.35,14.8,13.67,14.59
			c7.27-0.14,14.56,0.84,21.85,1.16c10.57,0.46,21.15,0.96,31.73,0.97c1.68,0,4.68-2.38,4.84-3.89
			C418.01,88.36,419.57,69.28,421.29,49.52z M150.71,101.44c0,0.05,0,0.09,0,0.14c2.74,0,5.5,0.16,8.22-0.04
			c2.91-0.22,5.82-0.66,8.69-1.21c5.32-1.03,9.36-8.62,9.3-17.66c-0.07-10.69-0.2-21.38-0.52-32.07c-0.12-4.01,0.46-8.97-1.62-11.73
			c-2.21-2.92-7.11-4.96-11-5.26c-11.43-0.88-22.94-0.66-34.42-0.95c-5.88-0.15-11.76-0.45-17.64-0.74
			c-7-0.35-12.69,4.83-12.55,11.86c0.33,17.3,0.92,34.59,1.21,51.88c0.09,5.19,3.47,5.72,7.2,5.74
			C121.95,101.49,136.33,101.44,150.71,101.44z M202.58,33.04c0-0.01,0-0.02,0-0.03c-3.17,0-6.33,0.01-9.5,0
			c-3.57-0.02-6.78,0.01-6.69,5.15c0.08,4.14-0.79,8.29-0.94,12.45c-0.55,14.51-0.99,29.02-1.44,43.54
			c-0.28,8.92,1.94,10.73,10.69,9.95c8.03-0.72,16.13-1.35,24.17-1.13c10.38,0.28,20.72,1.63,31.1,2.07
			c1.79,0.08,5.01-1.8,5.29-3.22c1.14-5.82,1.73-11.8,1.91-17.74c0.36-12.01-0.15-24.07,0.64-36.05c0.41-6.21-1.56-10.16-7.02-11.88
			c-5.05-1.59-10.42-2.76-15.69-2.98C224.28,32.72,213.42,33.04,202.58,33.04z M93.43,36.73c-3.6-1.28-5.88-2.67-8.24-2.84
			c-17.63-1.3-35.27-2.54-52.93-3.26c-2.16-0.09-6.17,2.77-6.4,4.63c-1.18,9.47-1.7,19.05-1.87,28.61
			c-0.19,11.26,0.15,22.54,0.45,33.8c0.03,1.26,1.11,3.4,2,3.57c4.98,0.96,10.08,2.14,15.08,1.93c12.89-0.52,25.77-2.64,38.61-2.35
			c8.32,0.19,10.43-0.65,10.81-10.11c0.03-0.82-0.08-1.65-0.04-2.47C91.74,70.97,92.59,53.69,93.43,36.73z M336.68,50.16
			c0-4.3,0.24-8.05-5.75-8.57c-2.39-0.21-4.66-1.98-7.04-2.11c-16.21-0.89-32.44-1.58-48.66-2.23c-3.99-0.16-7.6,0.38-7.38,5.87
			c0.11,2.81-0.39,5.65-0.44,8.47c-0.28,14.69-0.92,29.4-0.42,44.07c0.11,3.3,3.6,7.94,6.71,9.34c4.11,1.86,9.39,1.23,14.17,1.5
			c12.87,0.73,25.76,1.34,38.63,2.05c4.48,0.25,6.98-1.01,7.21-6.22C334.48,84.94,335.65,67.56,336.68,50.16z"/>
		<path class="st0" d="M201.68,269.87c1.42,7.54-3.05,11.6-8.35,15.1c-6.41,4.23-13.46,7.45-20.25,1.75
			c-5.55-4.66-10.62-10.24-14.61-16.26c-1.63-2.46-0.55-7.37,0.44-10.83c4.36-15.22,16.12-21.18,29.55-14.66
			c2.68,1.3,3.86,5.64,5.82,8.51c1.59,2.32,3.79,4.34,4.89,6.85C200.47,263.31,200.88,266.67,201.68,269.87z M167.15,268.42
			c-1.16,7.48,8.69,14.51,13.29,14.6c4.95,0.09,15.02-11.01,15.11-16.48c0.1-5.81-8.99-12.51-17.16-12.64
			C170.66,253.76,167.35,258.04,167.15,268.42z"/>
		<path class="st0" d="M509.39,250.68c8.21,0.61,15.79,2.2,19.73,9.98c1.96,3.88,3.07,8.73,2.9,13.07
			c-0.59,15.13-14.46,23.66-29.31,18.68c-6.14-2.06-11.45-4.68-13.01-11.84c-1.81-8.36,3.87-23.76,10.93-27.65
			C503.18,251.5,506.45,251.38,509.39,250.68z M495.19,271.86c0.05,1.05,0.06,2.1,0.16,3.15c0.73,7.82,10.63,14.37,17.88,11.85
			c8.39-2.92,10.47-9.33,6.2-19.13c-3.44-7.89-8.66-10.9-16.16-9.31C496.21,259.92,495.18,261.62,495.19,271.86z"/>
		<path class="st0" d="M103.84,252.59c1.54,6.08,3.19,12.9,5.03,19.67c0.93,3.41,0.26,5.73-2.63,8.18
			c-5.82,4.94-11.3,8.99-19.75,9.47c-15.25,0.87-23.06-17.08-18.89-27.73c3.62-9.24,14.38-16.03,24.37-14.46
			C95.9,248.33,99.55,250.77,103.84,252.59z M87.06,253.19c-4.18,0-12.97,8.07-13.13,12.05c-0.29,7.42,9.06,19.06,15.34,19.1
			c5.65,0.03,13.36-9.12,13.44-15.94C102.78,261.49,94.22,253.18,87.06,253.19z"/>
		<path class="st0" d="M195.64,239.4c8.32,2.8,14.29,15.3,12.39,24.89C204.25,256.72,199.89,247.95,195.64,239.4z"/>
		<path class="st0" d="M107.82,245.97c8.88,7.15,8.77,16.95,8.76,28.69C113.35,264.09,110.66,255.28,107.82,245.97z"/>
		<path class="st0" d="M151.96,265.96c-2.47-8.12,0.45-15.31,7.7-20.92c-2.29,6.2-5,13.55-7.71,20.91
			C151.95,265.95,151.96,265.96,151.96,265.96z"/>
		<path d="M471,147.28c0.04,17.23,0.1,35.31,0.13,53.39c0.01,5.07-0.09,10.13-0.11,15.2c-0.04,10.44-2.46,12.26-12.64,11.65
			c-9.9-0.6-19.85-0.27-29.78-0.26c-9.67,0.01-19.34,0.29-29,0.16c-31.17-0.42-62.34-0.84-93.51-1.56
			c-9.64-0.22-19.24-1.83-28.88-2.08c-17.03-0.43-34.08-0.19-51.12-0.46c-13.12-0.21-26.23-1.06-39.35-1.1
			c-10.03-0.03-20.05,0.98-30.09,1.13c-11.27,0.17-22.54-0.05-33.81-0.21c-4.8-0.07-9.6-0.37-14.39-0.66
			c-4.99-0.31-5.94-4.04-5.97-7.9c-0.13-17.78-0.12-35.56-0.04-53.33c0.03-6.25,0.58-12.5,0.54-18.75
			c-0.04-5.93,1.52-7.28,7.48-6.44c3.17,0.45,6.47-0.04,9.69,0.18c14.6,0.99,29.17,2.55,43.78,3c13.52,0.41,27.09-0.84,40.61-0.44
			c14.62,0.43,29.19,2.24,43.81,2.89c13.07,0.58,26.17,0.22,39.25,0.57c21.33,0.58,42.66,1.5,64,2.08
			c13.14,0.36,26.28,0.32,39.43,0.56c18,0.32,36,0.66,53.99,1.13C452.89,146.24,460.75,146.78,471,147.28z M110.72,143.77
			c-0.07,0.77-0.24,2.01-0.31,3.26c-0.42,8.18-0.83,16.37-1.23,24.55c-0.66,13.77-3.36,27.62,1.35,41.18
			c0.47,1.35,2.14,3.23,3.29,3.25c12.33,0.21,24.67,0.15,37.01,0.07c20.83-0.14,41.67-1.54,62.46,0.95c0.8,0.1,1.64-0.29,2.47-0.33
			c6.15-0.3,12.32-1,18.44-0.76c14.87,0.58,29.72,1.66,44.59,2.41c11.06,0.56,22.14,1.04,33.21,1.31
			c19.84,0.47,39.68,0.9,59.52,1.07c19.53,0.17,39.07-0.01,58.61-0.03c10.43-0.01,20.87,0,32.5,0c0-21.75,0-44.34,0-66.77
			C344.67,150.52,228.07,147.16,110.72,143.77z"/>
		<path d="M47.91,250.85c-6.23,0-12.45,1.12-17.86-0.48c-2.69-0.79-5.37-6.51-5.52-10.12c-0.64-14.64-0.31-29.33-0.31-44
			c0-3.21,1.23-4.31,4.77-3.68c4.55,0.81,9.29,1.12,13.9,0.83c5.39-0.35,5.18,3.13,5.27,6.5c0.38,13.24,0.76,26.49,0.9,39.73
			C49.12,243.33,48.33,247.02,47.91,250.85z M30.57,223.09c0.64,0.51,1.27,1.01,1.91,1.52c2.75-1.37,7.42-2.29,7.87-4.2
			c1.13-4.74,0.86-10.04-0.02-14.9c-0.27-1.52-4.2-2.78-6.64-3.27c-0.73-0.15-2.88,2.63-2.98,4.17
			C30.35,211.94,30.57,217.52,30.57,223.09z M30.75,243.51c10.56-0.54,10.56-0.54,10.37-12.25c-3.27,0-6.53,0-9.77,0
			C31.14,235.54,30.95,239.31,30.75,243.51z"/>
		<path d="M581.73,106.94c-1.18,16.87-2.53,35.28-3.71,53.7c-0.35,5.47,0.07,10.99-0.45,16.44c-0.35,3.64-1.4,7.31-2.83,10.68
			c-0.5,1.18-3.45,2.46-4.64,2.01c-7.18-2.72-14.43-5.47-21.2-9.08c-16.8-8.95-25.23-23.87-26.76-42.26
			c-1.19-14.37-0.55-28.9-0.84-43.35c-0.07-3.7-0.97-7.42-0.76-11.08c0.4-6.85,4.89-9.8,11.68-9.08
			c10.24,1.09,20.52,1.99,30.81,2.36c9.34,0.33,14.12,3.71,15.81,12.64C579.8,95.02,580.59,100.15,581.73,106.94z"/>
		<path d="M510.47,55.67c0.45,13.92,0.63,27.85,1.44,41.75c0.69,11.86-5.17,18.32-16.84,18.15c-15.01-0.22-30.02-0.01-45.03-0.19
			c-4.54-0.05-9.24-0.19-13.51-1.49c-1.68-0.51-3.31-4.27-3.34-6.58c-0.11-8.14,0.7-16.29,0.75-24.45
			c0.05-7.5-0.67-15.01-0.61-22.51c0.04-5.42,0.61-10.86,1.29-16.24c0.46-3.69,2.36-4.67,6.57-4.34
			c12.26,0.98,24.36,4.29,36.93,2.14c4.97-0.85,10.36,0.79,15.55,1.31c0.97,0.1,1.95,0.43,2.9,0.34
			C508.68,42.43,510.32,43.88,510.47,55.67z"/>
		<path d="M421.29,49.52c-1.72,19.76-3.27,38.84-5.24,57.88c-0.16,1.51-3.16,3.89-4.84,3.89c-10.58,0-21.16-0.51-31.73-0.97
			c-7.29-0.32-14.58-1.3-21.85-1.16c-11.31,0.21-15.07-3.5-13.67-14.59c0.16-1.25,0.12-2.53,0.08-3.8
			c-0.42-14.18-0.78-28.36-1.31-42.53c-0.2-5.47,2.64-8.84,8.1-8.82c17.33,0.05,34.66,0.1,51.98,0.29
			c4.47,0.05,9.32-0.32,13.24,1.32C418.5,42.05,419.52,46.46,421.29,49.52z"/>
		<path d="M150.71,101.44c-14.38,0-28.76,0.05-43.14-0.04c-3.73-0.02-7.11-0.55-7.2-5.74c-0.29-17.3-0.88-34.59-1.21-51.88
			c-0.13-7.03,5.56-12.21,12.55-11.86c5.88,0.29,11.76,0.59,17.64,0.74c11.48,0.29,22.99,0.07,34.42,0.95
			c3.89,0.3,8.79,2.33,11,5.26c2.08,2.76,1.5,7.72,1.62,11.73c0.32,10.69,0.45,21.38,0.52,32.07c0.06,9.03-3.98,16.63-9.3,17.66
			c-2.87,0.55-5.78,0.99-8.69,1.21c-2.73,0.2-5.48,0.04-8.22,0.04C150.71,101.53,150.71,101.48,150.71,101.44z"/>
		<path d="M202.58,33.04c10.84,0,21.7-0.31,32.52,0.13c5.27,0.22,10.64,1.39,15.69,2.98c5.46,1.72,7.43,5.67,7.02,11.88
			c-0.79,11.98-0.28,24.03-0.64,36.05c-0.18,5.94-0.77,11.92-1.91,17.74c-0.28,1.42-3.5,3.3-5.29,3.22
			c-10.38-0.44-20.72-1.79-31.1-2.07c-8.04-0.22-16.14,0.41-24.17,1.13c-8.75,0.78-10.96-1.03-10.69-9.95
			c0.45-14.51,0.89-29.03,1.44-43.54c0.16-4.16,1.02-8.31,0.94-12.45c-0.1-5.14,3.12-5.17,6.69-5.15c3.17,0.02,6.33,0,9.5,0
			C202.58,33.02,202.58,33.03,202.58,33.04z"/>
		<path d="M93.43,36.73c-0.84,16.97-1.69,34.24-2.53,51.52c-0.04,0.82,0.08,1.65,0.04,2.47c-0.39,9.46-2.49,10.3-10.81,10.11
			c-12.84-0.29-25.73,1.82-38.61,2.35c-5,0.2-10.1-0.98-15.08-1.93c-0.89-0.17-1.96-2.31-2-3.57c-0.3-11.27-0.64-22.54-0.45-33.8
			c0.16-9.55,0.69-19.14,1.87-28.61c0.23-1.86,4.24-4.72,6.4-4.63c17.66,0.72,35.3,1.96,52.93,3.26
			C87.55,34.06,89.82,35.44,93.43,36.73z"/>
		<path d="M336.68,50.16c-1.02,17.39-2.2,34.78-2.97,52.18c-0.23,5.21-2.73,6.47-7.21,6.22c-12.88-0.71-25.76-1.32-38.63-2.05
			c-4.78-0.27-10.06,0.35-14.17-1.5c-3.11-1.4-6.6-6.04-6.71-9.34c-0.5-14.67,0.14-29.38,0.42-44.07c0.05-2.83,0.55-5.66,0.44-8.47
			c-0.22-5.49,3.39-6.03,7.38-5.87c16.22,0.65,32.45,1.34,48.66,2.23c2.38,0.13,4.65,1.91,7.04,2.11
			C336.91,42.11,336.68,45.86,336.68,50.16z"/>
		<path d="M167.15,268.42c0.2-10.37,3.51-14.66,11.24-14.52c8.17,0.14,17.26,6.83,17.16,12.64c-0.09,5.47-10.16,16.57-15.11,16.48
			C175.84,282.93,166,275.89,167.15,268.42z"/>
		<path d="M495.18,271.86c0-10.24,1.02-11.95,8.09-13.45c7.49-1.59,12.72,1.42,16.16,9.31c4.27,9.8,2.2,16.21-6.2,19.13
			c-7.24,2.52-17.14-4.03-17.88-11.85C495.25,273.97,495.24,272.91,495.18,271.86z"/>
		<path d="M87.06,253.19c7.16-0.01,15.72,8.31,15.64,15.2c-0.07,6.82-7.78,15.98-13.44,15.94c-6.28-0.04-15.63-11.68-15.34-19.1
			C74.09,261.26,82.88,253.19,87.06,253.19z"/>
		<path class="st0" d="M110.72,143.77c117.35,3.39,233.94,6.75,351.91,10.16c0,22.43,0,45.01,0,66.77c-11.63,0-22.07-0.01-32.5,0
			c-19.54,0.02-39.07,0.2-58.61,0.03c-19.84-0.17-39.68-0.6-59.52-1.07c-11.07-0.26-22.15-0.75-33.21-1.31
			c-14.87-0.75-29.71-1.83-44.59-2.41c-6.13-0.24-12.3,0.46-18.44,0.76c-0.83,0.04-1.67,0.43-2.47,0.33
			c-20.79-2.49-41.63-1.08-62.46-0.95c-12.34,0.08-24.67,0.15-37.01-0.07c-1.14-0.02-2.82-1.9-3.29-3.25
			c-4.71-13.56-2.01-27.41-1.35-41.18c0.39-8.18,0.8-16.37,1.23-24.55C110.48,145.78,110.65,144.54,110.72,143.77z M135.24,179.13
			c5.66,6.63,11.11,13.71,17.37,20c2.28,2.29,6.65,3.97,9.71,3.52c2.03-0.3,4.61-4.76,4.89-7.57c1-9.98,1.32-20.04,1.44-30.08
			c0.03-2.4-1.13-5.48-2.85-6.96c-0.91-0.78-4.24,1.12-6.41,1.99c-0.91,0.37-1.63,1.19-2.7,2.01c0,7.54,0,15.22,0,22.89
			c-4.12-4.05-6.81-8.53-9.97-12.67c-4.47-5.85-9.01-12.13-17.84-10.16c-1.67,0.37-3.86,2.34-4.22,3.93
			c-1.33,5.88-2.04,11.91-2.89,17.89c-0.43,3.02-1.29,6.18-0.74,9.05c0.32,1.68,3.14,4.18,4.64,4.05c2.23-0.2,5.45-1.93,6.19-3.82
			C133.65,188.69,134.22,183.71,135.24,179.13z M402.5,186.22c-0.1-15.99-4.02-21.32-15.54-21.17
			c-11.11,0.15-18.75,8.28-18.77,19.99c-0.01,7.32,9.72,17.57,16.79,17.68C392.89,202.83,402.55,193.74,402.5,186.22z
			 M422.23,185.92c3.47,0.28,5.92,0.56,8.38,0.66c8.08,0.33,12.1-3.52,12.68-12.04c0.49-7.31-3.9-13.02-11.22-13.02
			c-5.87,0-11.85,1.1-17.55,2.59c-2.16,0.56-5.35,3.7-5.23,5.46c0.67,9.78,1.92,19.56,3.75,29.2c0.3,1.56,4.64,3.51,6.9,3.27
			c3.59-0.38,4.69-3.59,3.9-7.22C423.21,191.97,422.79,189.09,422.23,185.92z M225.25,190.26c0.84,0.46,1.42,0.67,1.89,1.04
			c2.45,1.94,4.62,4.08,7.95,1.02c3.54-3.26,0.95-5.67-0.68-8.17c-1.44-2.2-3.24-4.16-4.74-6.05c2.44-3.25,4.63-5.82,6.42-8.64
			c2.75-4.34,1.1-7.81-3.97-7.24c-3.65,0.41-7.07,2.92-10.81,4.59c-0.5-0.69-1.24-2.85-2.46-3.17c-3.1-0.81-6.41-0.8-9.64-1.12
			c0.07,2.61-0.57,5.52,0.39,7.75c1.29,3,3.8,5.48,5.21,7.39c-1.85,5.69-3.83,10.89-5.09,16.27c-0.36,1.53,0.95,4.42,2.31,5.11
			c1.47,0.75,4.4,0.31,5.76-0.78C220.59,196.02,222.78,192.99,225.25,190.26z M199.72,166.83c-0.53-6.34-6.05-6.54-11.14-5.46
			c-4.86,1.03-11.7,0.69-11.98,8.37c-0.3,7.91-0.46,15.86,0.09,23.74c0.14,2.09,2.72,4.67,4.84,5.84c5.6,3.09,13.81-1.07,18.84-9.85
			c-3.88-0.97-7.41-1.85-11.39-2.84c-1.56-4.49-1.56-4.49,8.18-6.94C198.07,175.15,198.89,170.99,199.72,166.83z M341.08,176.89
			c1.1,8.15,1.76,16.05,3.47,23.71c0.43,1.95,4.08,4.25,6.41,4.44c2.61,0.21,5.57-1.4,4.75-5.61c-0.81-4.1-0.64-8.4-1.55-12.47
			c-1.62-7.32-2.3-13.68,7.24-16.18c1.62-0.42,2.9-3.82,3.34-6.04c0.14-0.69-3.11-3.06-4.63-2.91c-7.24,0.72-14.5,1.72-21.59,3.32
			c-2.3,0.52-4.12,3.17-6.17,4.85c1.83,2.02,3.54,4.18,5.55,6C338.67,176.71,340.14,176.65,341.08,176.89z M317.25,192.94
			c-3.18,0.68-5.34,1.02-7.43,1.61c-3.99,1.12-6.11,5.73-3.79,8.03c4.06,4.02,18.69,0.32,20.52-5.03
			c2.79-8.18-1.03-14.15-6.13-19.83c-2.17-2.42-5.61-4.76-0.25-7.71c1.5-0.83,3.5-3.83,3.1-4.48c-1.17-1.88-3.24-3.81-5.33-4.41
			c-7.8-2.24-14.98,4.52-12.55,12.07c1.4,4.35,4.39,8.19,6.78,12.19C313.53,187.66,315.12,189.79,317.25,192.94z M256.07,198.26
			c6.18-0.25,8.81-1.94,8-7.05c-0.65-4.12-0.78-8.33-1.46-12.44c-0.89-5.37,0.82-8.72,6.3-10.26c1.34-0.38,3.03-2.54,3.01-3.85
			c-0.02-1.21-1.93-2.77-3.36-3.48c-1.35-0.67-3.15-0.54-4.76-0.6c-5.39-0.19-10.82-0.76-16.15-0.28c-2.62,0.24-6.29,1.89-7.29,3.96
			c-1.57,3.24,0.89,6.01,4.54,6.66c4.1,0.73,5.21,2.94,5.36,7c0.2,5.42,1.22,10.86,2.47,16.15
			C253.15,195.93,255.32,197.37,256.07,198.26z"/>
		<path class="st0" d="M30.57,223.09c0-5.57-0.22-11.15,0.15-16.69c0.1-1.53,2.25-4.31,2.98-4.17c2.43,0.49,6.36,1.75,6.64,3.27
			c0.88,4.86,1.14,10.16,0.02,14.9c-0.46,1.92-5.12,2.83-7.87,4.2C31.84,224.1,31.21,223.6,30.57,223.09z"/>
		<path class="st0" d="M30.75,243.51c0.21-4.2,0.39-7.97,0.6-12.25c3.24,0,6.5,0,9.77,0C41.31,242.97,41.31,242.97,30.75,243.51z"/>
		<path d="M135.24,179.13c-1.01,4.58-1.59,9.56-3.36,14.07c-0.74,1.89-3.96,3.63-6.19,3.82c-1.5,0.13-4.32-2.36-4.64-4.05
			c-0.55-2.87,0.31-6.03,0.74-9.05c0.85-5.98,1.56-12.01,2.89-17.89c0.36-1.59,2.55-3.56,4.22-3.93
			c8.83-1.97,13.37,4.31,17.84,10.16c3.15,4.13,5.85,8.62,9.97,12.67c0-7.68,0-15.35,0-22.89c1.06-0.81,1.79-1.64,2.7-2.01
			c2.17-0.87,5.5-2.78,6.41-1.99c1.72,1.48,2.88,4.56,2.85,6.96c-0.12,10.04-0.44,20.1-1.44,30.08c-0.28,2.81-2.86,7.27-4.89,7.57
			c-3.06,0.45-7.43-1.22-9.71-3.52C146.35,192.84,140.89,185.76,135.24,179.13z"/>
		<path d="M402.5,186.22c0.05,7.52-9.61,16.61-17.52,16.49c-7.06-0.1-16.8-10.36-16.79-17.68c0.02-11.71,7.66-19.85,18.77-19.99
			C398.48,164.9,402.4,170.23,402.5,186.22z M389.18,174.26c-3.19,2.54-6.12,3.74-6.78,5.7c-0.78,2.32,0.05,5.42,0.91,7.93
			c0.39,1.13,2.53,1.67,3.88,2.47c1.14-2.05,2.99-4.01,3.25-6.16C390.78,181.47,389.81,178.59,389.18,174.26z"/>
		<path d="M422.23,185.92c0.56,3.16,0.98,6.05,1.61,8.89c0.8,3.63-0.3,6.84-3.9,7.22c-2.26,0.24-6.6-1.71-6.9-3.27
			c-1.83-9.63-3.08-19.41-3.75-29.2c-0.12-1.77,3.06-4.9,5.23-5.46c5.7-1.49,11.68-2.59,17.55-2.59
			c7.32,0.01,11.71,5.72,11.22,13.02c-0.58,8.52-4.6,12.37-12.68,12.04C428.15,186.48,425.69,186.2,422.23,185.92z M420.79,178.85
			c4.1-0.95,7.14-1.66,11.07-2.58c-0.66-1.39-1.43-4.13-2.04-4.1c-2.55,0.15-5.32,0.7-7.48,1.99
			C421.23,174.83,421.23,177.36,420.79,178.85z"/>
		<path d="M225.25,190.26c-2.47,2.73-4.66,5.75-7.47,8.01c-1.36,1.09-4.29,1.52-5.76,0.78c-1.35-0.69-2.66-3.58-2.31-5.11
			c1.26-5.37,3.24-10.58,5.09-16.27c-1.41-1.92-3.92-4.39-5.21-7.39c-0.95-2.23-0.32-5.14-0.39-7.75c3.23,0.32,6.54,0.3,9.64,1.12
			c1.22,0.32,1.96,2.48,2.46,3.17c3.75-1.67,7.16-4.19,10.81-4.59c5.07-0.56,6.73,2.9,3.97,7.24c-1.79,2.82-3.98,5.39-6.42,8.64
			c1.5,1.89,3.3,3.85,4.74,6.05c1.63,2.5,4.22,4.91,0.68,8.17c-3.33,3.06-5.51,0.92-7.95-1.02
			C226.67,190.94,226.09,190.72,225.25,190.26z"/>
		<path d="M199.72,166.83c-0.83,4.16-1.66,8.31-2.56,12.86c-9.73,2.45-9.73,2.45-8.18,6.94c3.98,0.99,7.51,1.87,11.39,2.84
			c-5.03,8.78-13.24,12.94-18.84,9.85c-2.12-1.17-4.7-3.75-4.84-5.84c-0.55-7.88-0.38-15.83-0.09-23.74
			c0.29-7.69,7.13-7.34,11.98-8.37C193.67,160.29,199.19,160.49,199.72,166.83z"/>
		<path d="M341.08,176.89c-0.94-0.24-2.4-0.18-3.19-0.88c-2.01-1.82-3.72-3.98-5.55-6c2.04-1.68,3.86-4.33,6.17-4.85
			c7.09-1.6,14.35-2.61,21.59-3.32c1.52-0.15,4.77,2.21,4.63,2.91c-0.44,2.22-1.72,5.62-3.34,6.04c-9.53,2.49-8.86,8.85-7.24,16.18
			c0.9,4.07,0.74,8.37,1.55,12.47c0.83,4.2-2.14,5.81-4.75,5.61c-2.33-0.18-5.98-2.48-6.41-4.44
			C342.84,192.94,342.17,185.04,341.08,176.89z"/>
		<path d="M317.25,192.94c-2.13-3.15-3.72-5.28-5.08-7.55c-2.39-4-5.39-7.85-6.78-12.19c-2.43-7.55,4.75-14.31,12.55-12.07
			c2.09,0.6,4.16,2.52,5.33,4.41c0.4,0.65-1.59,3.65-3.1,4.48c-5.36,2.96-1.93,5.29,0.25,7.71c5.1,5.68,8.92,11.65,6.13,19.83
			c-1.83,5.36-16.46,9.05-20.52,5.03c-2.32-2.3-0.2-6.91,3.79-8.03C311.92,193.96,314.08,193.62,317.25,192.94z"/>
		<path d="M256.07,198.26c-0.75-0.89-2.92-2.33-3.36-4.18c-1.25-5.29-2.27-10.74-2.47-16.15c-0.15-4.07-1.25-6.27-5.36-7
			c-3.64-0.65-6.1-3.42-4.54-6.66c1-2.07,4.67-3.72,7.29-3.96c5.33-0.49,10.76,0.08,16.15,0.28c1.61,0.06,3.41-0.08,4.76,0.6
			c1.42,0.71,3.34,2.27,3.36,3.48c0.02,1.32-1.67,3.47-3.01,3.85c-5.48,1.55-7.19,4.89-6.3,10.26c0.68,4.12,0.81,8.32,1.46,12.44
			C264.88,196.32,262.25,198,256.07,198.26z"/>
		<path class="st0" d="M389.18,174.26c0.63,4.33,1.6,7.21,1.27,9.94c-0.26,2.15-2.11,4.11-3.25,6.16c-1.35-0.81-3.49-1.34-3.88-2.47
			c-0.86-2.51-1.69-5.61-0.91-7.93C383.06,178,386,176.8,389.18,174.26z"/>
		<path class="st0" d="M420.79,178.85c0.44-1.49,0.44-4.02,1.55-4.69c2.16-1.29,4.92-1.84,7.48-1.99c0.61-0.04,1.38,2.71,2.04,4.1
			C427.93,177.19,424.89,177.9,420.79,178.85z"/>
	</g>
</g>
</svg>
