<?xml version="1.0" encoding="utf-8"?>
<!-- Generator: Adobe Illustrator 23.1.0, SVG Export Plug-In . SVG Version: 6.00 Build 0)  -->
<svg version="1.1" id="Calque_1" xmlns="http://www.w3.org/2000/svg" xmlns:xlink="http://www.w3.org/1999/xlink" x="0px" y="0px"
	 viewBox="0 0 1125 2348" style="enable-background:new 0 0 1125 2348;" xml:space="preserve">
<style type="text/css">
	.st0{fill:#FFFFFF;}
</style>
<path class="st0" d="M941.74,1784.95c9.32,5.92,18.59,14.82,29.55,18.19c31.42,9.66,60.48-6.18,86.91-17.6
	c21.31-9.21,36.89-32.68,53.5-51.19c5.46-6.08,7.8-16.22,8.79-24.82c4.14-36.08-14.53-60.18-42.38-80.06
	c-6.01-4.29-12.86-16.54-10.75-21.36c6.44-14.64,1.28-26.6-2.1-39.96c-2.85-11.26-6.39-24.34-3.31-34.74
	c10.67-36-0.19-70.4-6.27-104.58c-7.67-43.14-20.6-85.32-30.75-128.04c-13.78-58.02-39.08-108.96-91.66-141.03
	c-40.45-24.67-82.57-46.61-121.08-68.17c2.23-29.71,7.89-57.25,5.49-84.08c-3.69-41.22-7.64-83.82-21.35-122.33
	c-12.15-34.14-14.67-71.44-47.06-101.36c-31.38-28.99-59.37-61.03-96.24-84.41c-40.33-25.57-79.72-41.46-129.42-25.93
	c-50.6,15.81-81.56,48.56-98.7,95.71c-14.4,39.59-20.36,80.11-17.96,123.62c3.39,61.6,2.9,122.66,36.16,177.73
	c1.72,2.85,1.03,7.15,1.2,8.55c-31.91,3.07-62.54,8.06-93.24,8.54c-62.36,0.98-119.62,21.7-175.74,44.65
	c-45.24,18.49-70.04,61.29-95.95,99.51c-28.56,42.15-25.43,91.64-18.23,139.96c3.5,23.49,8.84,46.71,13.22,70.07
	c3.79,20.2,4.86,41.33,11.61,60.46c14.99,42.45,34.96,82.52,71.31,109.61c-2.67,6.88-4.69,11.46-6.25,16.19
	c-9.37,28.54-19.03,57-27.74,85.74c-3.78,12.45-8.06,25.6-7.6,38.27c0.62,16.92,1.45,35.49,22.48,43.26
	c23.55,8.71,46.65,18.65,70.03,27.85c7.67,3.02,15.6,5.4,23.72,8.18c-3.72,4.33-8.2,7.11-8.41,10.17
	c-2.13,31.23-6.63,62.73-4.3,93.69c2.24,29.71,12.26,58.79,17.59,88.37c0.92,5.1-3.04,14.75-7.19,16.5
	c-22.49,9.48-45.38,18.42-68.83,25.14c-46.91,13.46-82.22,52.29-78.79,98.25c0.45,6.06-2.57,14.68-7.07,18.43
	c-32.46,27.06-55.38,60.53-70.43,99.72c-8.62,22.43-5.06,52.39,12.31,60.72c13.78,6.61,32.13,6.03,48.21,4.98
	c22.07-1.45,41.76-13.05,52.27-31.69c20.05-35.57,25.74-75.1,21.65-115.86c-2.18-21.72,10.32-36.25,31.81-38.82
	c34.39-4.11,67.75-11.99,97.63-30.55c26.57,44.6,54.72,56.86,105.87,45.97c35.42-7.54,70.82-15.21,106.12-23.27
	c18.62-4.25,38.52-25.69,38.93-42.85c1.41-59.15,2.87-118.31,2.85-177.47c-0.01-33.53,0.65-35.53,33.58-33.75
	c1.21,0.06,2.37,0.98,2.4,0.99c3.43,11.32,7.43,21.62,9.64,32.3c9.01,43.61,17.03,87.44,26.32,130.99
	c5.23,24.51,11.34,48.92,18.86,72.8c3.61,11.46,8.89,26.83,17.87,31.12c13.32,6.37,31.03,7.61,46.09,5.5
	c39.73-5.56,80.91,5,119.52-11.14c23.93,10.65,42.12-7.71,62.65-13.17c19.73-5.25,33.7-30.93,31.84-51.21
	c-1.84-20.06-2.9-40.2-5.15-60.21c-7.52-66.69-15.42-133.34-23.49-202.73C886.23,1819.44,914.32,1801.98,941.74,1784.95z"/>
<path class="st0" d="M1106.07,8.19c-11.73-11.72-32.19-11.93-51.28,7.37c-15.75,15.93-34.1,23.45-55.45,26.77
	c-21.99,3.42-37.48,16.77-37.91,37.77c-0.59,28.68,2.81,57.45,4.73,86.16c1.04,15.61,1.23,28.43-17.36,37.02
	c-30.1,13.91-47.8,45.4-6.53,74.63c15.45,10.94,34.21,15.99,46.88,4.66c11.39-10.19,20.08-29.74,20.05-45.15
	c-0.06-42.5-5.03-85.01-8.63-127.47c-1.35-15.96,7.08-25.27,19.84-30.98c16.79-7.52,34.26-13.54,51.45-20.21
	c0.72,3.21,3.17,9.46,3.34,15.77c0.95,34.57,9.41,71.12-24.49,97.04c-11.87,9.08-15.52,22.34-9.17,34.86
	c7.12,14.03,17.97,25.34,37.13,22.53c17.12-2.51,32.31-8.48,33.28-27.3c1.94-37.5,2.32-75.16,1.49-112.7
	C1112.91,64.42,1109.11,39.95,1106.07,8.19z"/>
<path class="st0" d="M900.62,551.25c4.7,13.48,7.82,27.54,14.5,39.62c3.99,7.2,13.59,11.29,20.66,16.77
	c3.42-7.52,10.89-15.87,9.55-22.42c-5.06-24.77-12.81-49.01-20.03-73.3c-0.94-3.15-4.37-7.41-7.16-7.85
	c-14.43-2.25-28.91-6.37-39.62,10.52c-4.18,6.59-14.71,9.87-22.97,13.01c-14.78,5.61-19.49,16.03-12.01,30.02
	c19.14,35.81,28.63,74.65,34.4,114.37c0.79,5.41-4.82,13.77-9.86,17.61c-13.1,10-28.56,17.01-41.11,27.56
	c-10.65,8.96-6.24,29.56,7.18,32.07c14.95,2.8,25.82,13.1,42.17,14.8c33.08,3.45,56.64-17.85,48.35-49.56
	c-4.59-17.58-7.58-35.57-11.69-53.28c-6.95-29.92-11.47-60.83-22.46-89.22C884.8,557.21,888.9,555.41,900.62,551.25z"/>
<path class="st0" d="M699,261.9c11.15-3.05,21.15-5.8,31.15-8.51c16.93-4.59,19.35-19.62,17.75-32.25
	c-0.61-4.79-16.41-8.08-25.58-11.17c-4.32-1.46-10.81,0.97-13.82-1.46c-20.53-16.55-41.36-5.11-44.79,24.43
	c-3.03,26.11-1.3,53.04,0.9,79.39c1.47,17.7-2.69,26.39-21.32,28.68c-26.89,3.3-44.98,25.79-40.93,48.23
	c4.41,24.41,16.71,33.27,48.67,35.1c41.54,2.37,48.6-4.77,48.07-46.23C698.62,340.26,699,302.42,699,261.9z"/>
<path d="M941.74,1784.95c-27.42,17.03-55.51,34.49-79.45,49.36c8.07,69.38,15.97,136.03,23.49,202.73
	c2.26,20.01,3.31,40.15,5.15,60.21c1.86,20.28-12.11,45.95-31.84,51.21c-20.53,5.47-38.72,23.83-62.65,13.17
	c-38.61,16.14-79.8,5.58-119.52,11.14c-15.06,2.11-32.77,0.87-46.09-5.5c-8.98-4.3-14.26-19.66-17.87-31.12
	c-7.52-23.89-13.63-48.3-18.86-72.8c-9.3-43.55-17.31-87.38-26.32-130.99c-2.21-10.68-6.21-20.99-9.64-32.3
	c-0.04-0.02-1.2-0.93-2.4-0.99c-32.93-1.78-33.59,0.22-33.58,33.75c0.02,59.16-1.45,118.32-2.85,177.47
	c-0.41,17.16-20.31,38.6-38.93,42.85c-35.3,8.06-70.7,15.73-106.12,23.27c-51.16,10.89-79.3-1.37-105.87-45.97
	c-29.89,18.56-63.25,26.44-97.63,30.55c-21.5,2.57-33.99,17.1-31.81,38.82c4.08,40.76-1.6,80.29-21.65,115.86
	c-10.51,18.64-30.19,30.24-52.27,31.69c-16.08,1.06-34.43,1.64-48.21-4.98c-17.37-8.33-20.93-38.29-12.31-60.72
	c15.05-39.19,37.98-72.65,70.43-99.72c4.49-3.75,7.52-12.37,7.07-18.43c-3.43-45.96,31.88-84.79,78.79-98.25
	c23.44-6.72,46.33-15.67,68.83-25.14c4.15-1.75,8.11-11.39,7.19-16.5c-5.33-29.58-15.35-58.66-17.59-88.37
	c-2.33-30.96,2.17-62.47,4.3-93.69c0.21-3.07,4.69-5.84,8.41-10.17c-8.13-2.78-16.05-5.16-23.72-8.18
	c-23.38-9.2-46.47-19.14-70.03-27.85c-21.02-7.78-21.86-26.34-22.48-43.26c-0.46-12.67,3.82-25.82,7.6-38.27
	c8.72-28.74,18.38-57.2,27.74-85.74c1.55-4.73,3.57-9.31,6.25-16.19c-36.35-27.08-56.33-67.15-71.31-109.61
	c-6.76-19.14-7.83-40.26-11.61-60.46c-4.38-23.36-9.72-46.58-13.22-70.07c-7.19-48.32-10.33-97.8,18.23-139.96
	c25.9-38.23,50.7-81.02,95.95-99.51c56.13-22.94,113.39-43.67,175.74-44.65c30.7-0.48,61.33-5.47,93.24-8.54
	c-0.17-1.4,0.52-5.7-1.2-8.55c-33.26-55.07-32.76-116.13-36.16-177.73c-2.4-43.52,3.57-84.03,17.96-123.62
	c17.14-47.15,48.1-79.9,98.7-95.71c49.7-15.53,89.09,0.36,129.42,25.93c36.87,23.38,64.86,55.42,96.24,84.41
	c32.39,29.93,34.91,67.23,47.06,101.36c13.71,38.5,17.66,81.11,21.35,122.33c2.4,26.82-3.26,54.37-5.49,84.08
	c38.52,21.56,80.63,43.5,121.08,68.17c52.58,32.07,77.87,83.01,91.66,141.03c10.15,42.72,23.08,84.9,30.75,128.04
	c6.08,34.18,16.95,68.58,6.27,104.58c-3.08,10.4,0.46,23.48,3.31,34.74c3.38,13.35,8.54,25.31,2.1,39.96
	c-2.12,4.81,4.74,17.07,10.75,21.36c27.85,19.88,46.52,43.98,42.38,80.06c-0.99,8.6-3.33,18.74-8.79,24.82
	c-16.61,18.5-32.19,41.98-53.5,51.19c-26.43,11.42-55.5,27.26-86.91,17.6C960.33,1799.77,951.06,1790.87,941.74,1784.95z
	 M477.45,1600.54c2.63-2.82,5.02-4.38,5.98-6.57c15.09-34.17,29.32-68.74,45.29-102.48c6.01-12.7,13.83-26.24,24.52-34.75
	c41.83-33.3,98.85-25.02,131.42,17.22c34.25,44.43,32.53,92.58-9.19,128.57c-14.19,12.24-36.95,19.98-55.67,19.74
	c-14.31-0.18-22.09,4.28-29.6,12.24c-11.26,11.94-21.71,24.85-30.93,38.42c-6.48,9.54-14.76,20.93-14.59,31.37
	c0.75,44.95-16.43,79.14-52.39,105.82c-14.27,10.59-25.09,26.02-46.42,21.22c4.37,13.43,10.17,17.95,24.86,16.77
	c20.62-1.65,41.71,2.92,62.63,4.51c12.91,0.98,26.13,3.34,38.75,1.65c47.89-6.43,95.79-13.18,143.27-22.02
	c23.66-4.4,46.75-12.68,69.53-20.82c26.64-9.53,53.7-18.82,78.65-31.9c25.15-13.19,47.71-31.24,71.87-46.43
	c8.94-5.62,10.65-9.76,5.87-20.33c-13.09-28.9-26.57-58.08-35.1-88.49c-12.67-45.17-22.05-91.34-31.1-137.42
	c-3.86-19.64-4.55-40.15-4.46-60.26c0.08-18.73,18.22-17.64,29.51-19.05c5.21-0.65,16.21,11.39,17.57,18.95
	c7.85,43.64,12.36,87.88,20.52,131.45c4.9,26.16,14.41,51.46,21.91,77.39c18.69-11.96,34.72-21.19,49.44-32.17
	c5.13-3.83,10.17-12.1,9.93-18.12c-1.59-38.48-1.31-77.5-8.04-115.2c-9.98-55.93-24.72-111.05-38.51-166.25
	c-9.07-36.32-24.18-69.97-57.33-91c-39.32-24.96-79.5-48.58-119.25-72.75c-44.28,68.89-85.77,94.52-134,93.43
	c13.44,7.56,22.77,12.8,34.81,19.57c17.05-9.87,37.3-22.6,58.68-33.02c3.84-1.87,15.81,4.23,18.12,9.32
	c16.01,35.37,4.2,71.48-0.5,107.03c-1.33,10.03-9.93,17.32-24.19,11.51c-18.03-7.34-37.24-11.9-56.17-16.82
	c-3.61-0.94-8.9,1.04-12.28,3.35c-15.69,10.73-34.23,13.47-48.56,3.64c-17.45-11.97-30.92-9.27-46.56,0.12
	c-4.41,2.65-9.73,4.04-14.81,5.25c-22.52,5.35-52.1-9.92-52.49-27.92c-0.44-20.17,0.84-40.39,1.68-60.58
	c0.63-15.26,8.86-25.91,23.76-26.99c8.9-0.65,18.3,4.61,27.36,7.57c25.05,8.17,49.53,24.8,74.84,5.64
	c-30.42-13.03-66.95-10.4-93.78-39.16c-25.87-27.74-57.05-50.52-87.15-76.57c-9.65,3.3-21.71,15.31-35.67,1.45
	c-1.21-1.2-4.57-0.5-6.89-0.27c-18.41,1.8-36.81,3.7-55.21,5.58c-26.67,2.73-54.13,2.33-79.84,8.84
	c-56.91,14.4-112.43,33.7-151.47,81.5c-17.33,21.22-35.39,43.09-33.08,73.47c3.34,43.88,5.56,87.91,10.74,131.58
	c6.78,57.21,32.08,105.92,73.94,145.82c14,13.34,29.09,25.8,41.42,40.55c23.57,28.2,45.53,57.76,68.45,87.13
	c38.96-40.63,75.21-78.44,112.41-117.23c-10.64-13.26-25.24-28.37-36.15-45.8c-15.91-25.42-28.73-52.76-43.66-78.82
	c-20.38-35.59-26.21-73.84-19.08-113.44c1.33-7.37,15.12-17.96,22.49-17.45c10.15,0.71,28.73,1.6,21.78,23.45
	c-8.12,25.55-2.08,49.26,9.63,73.29c13.42,27.51,26.44,54,47.93,77.08c12.79,13.74,30.45,24.84,34.31,48.53
	C450.02,1567.72,466.16,1582.78,477.45,1600.54z M729.89,914.22c1.54-0.42,3.08-0.85,4.62-1.27c-3.55-12.35-6.63-24.86-10.73-37.02
	c-20.69-61.44-59.07-109.78-110.76-148.05c-3.05-2.26-6.79-3.88-10.46-4.94c-26.73-7.73-54.51-3.22-78.05,6.14
	c-27.4,10.9-52.53,30.69-59.23,63.61c-2.42,11.87-1.87,24.32-3.26,36.44c-3.64,31.6-8.55,63.09-10.99,94.77
	c-1.03,13.41,0.37,28.14,5.03,40.65c12.3,32.99,26.04,65.53,41.09,97.37c8.42,17.82,18.7,35.51,31.58,50.26
	c14.53,16.65,34.91,28.24,49.19,45.05c23.63,27.83,52.98,32.69,85.57,26.31c29.52-5.78,49.86-27.65,70.83-46.92
	c7.65-7.03,14.87-19.16,14.9-28.99c0.11-32.23-2.09-64.59-5.43-96.68C740.42,978.56,734.62,946.45,729.89,914.22z M607.84,1895.7
	c0,7.03-1.19,13.18,0.18,18.7c15.47,62.06,31.04,124.09,47.25,185.96c5.71,21.8,17.98,28.78,40.54,26.21
	c19.8-2.25,39.72-6.17,59.48-5.59c32.53,0.94,61.52-8.63,91.68-23.36c-10.39-81.31-20.77-162.5-31.05-242.84
	C744,1868.93,676.19,1882.27,607.84,1895.7z M476.6,1895.25c-10.78-2.02-18.18-1.58-23.41-4.73c-13.61-8.2-37.32,1-41.53-23.79
	c-0.27-1.59-5.63-4.1-7.16-3.32c-3.45,1.77-7.91,4.93-8.59,8.23c-6.65,31.9-12.66,63.93-18.75,95.95
	c-9.5,49.9-21.92,98.4-63.92,135.15c3.55,7.19,7.48,15.16,11.41,23.13c15.28-9.14,30.06,3.26,43.95,1.71
	c31.58-3.54,62.68-11.67,93.73-18.98c3.3-0.78,6.87-8.48,7.06-13.11C472.11,2028.88,474.28,1962.26,476.6,1895.25z M342.44,1723.13
	c15.92,17.53,31.04,36.03,48.13,52.49c18.37,17.69,42.27,16.18,64.6,4.15c17.48-9.42,26.44-23.69,34.74-39.73
	c15.01-29.02,2.91-73.74-24.85-90.02c-3.83-2.24-9.77-2.1-14.48-1.4c-13.78,2.06-27.58,4.37-41.07,7.77
	c-7.09,1.79-15.36,4.41-19.96,9.5C374.4,1682.64,360.69,1700.68,342.44,1723.13z M297.16,2062.07c2.12,0.34,4.23,0.67,6.35,1.01
	c5.7-16.29,13.62-32.18,16.64-48.96c7.26-40.31,11.78-81.11,18.35-121.55c2.23-13.74,7.25-27.02,10.04-37.06
	c-28.58-3.99-55.26-7.71-77.97-10.88c0,35.33-3.46,72.3,0.96,108.3C276.05,1989.81,288.3,2025.74,297.16,2062.07z M191.92,1650.69
	c-8.03,32.18-15.99,58.14-20.26,84.7c-1.32,8.19,4.93,21.44,11.94,26.48c41.65,29.91,92.47,32.33,139.83,46.54
	c4.08-8.92,7.05-15.4,10.02-21.89c-2.98-3.42-6.23-6.05-8.06-9.44c-7.78-14.45-15.62-27.77-35.68-17.22
	c-1.68,0.88-6.46-2.21-8.66-4.53c-20.99-22.24-42.13-44.37-62.35-67.29C209.71,1677.85,202.7,1665.9,191.92,1650.69z
	 M273.38,2110.42c-0.62-1.08-1.24-2.17-1.87-3.26c-11.27,2.16-22.49,4.58-33.81,6.44c-18.14,2.97-38.53,1.22-54.11,9.11
	c-54.69,27.7-105.55,61.96-140.4,113.88c-12.44,18.53-19.46,41.24-26.12,62.91c-4.67,15.19,11.25,35.07,25.59,36.28
	c35.97,3.01,71.72-26.25,81.13-60.81c7.65-28.1,6.53-54.86,1.28-82.69c-23.05,14.29-18.86,37.19-18.06,57.75
	c0.96,24.76-9.93,43.15-27.17,58.11c-4.98,4.32-16.13,5.84-22.52,3.45c-26.07-9.74-30.36-39.25-12.15-58.07
	c24.54-25.37,48.06-51.83,73.84-75.87c14.68-13.69,33.31-33.33,49.6-32.81c25.97,0.83,46.29-10.33,68.81-16.45
	C250.1,2124.94,261.44,2116.57,273.38,2110.42z M983.65,1759.38c5.99-1.32,12.15-2.13,17.94-4.07c21.46-7.18,44.01-11.1,58.82-32.19
	c11.46-16.31,11.03-32.39-5.2-44.56c-11.84-8.88-22.99-18.68-36.51-29.76c-6.12,5.21-13.52,11.54-20.95,17.83
	c-14.42,12.2-11.06,26.7-6.37,42.08C996.75,1726.34,1001.12,1744.43,983.65,1759.38z M537.75,1249.02
	c1.32,19.09,2.11,35.3,3.64,51.45c1.57,16.61,13.51,20.07,26.9,17.7c9.4-1.66,20.93-4.42,26.57-10.95
	c6.88-7.98,10.33-20.22,11.6-31.04c0.44-3.78-9.32-10.77-15.58-12.93C575.57,1258,559.59,1254.7,537.75,1249.02z M758.09,1248.99
	c-13.2,5.47-24.36,10.24-35.64,14.73c-14.28,5.69-26.71,12.92-23.22,31.34c2.93,15.51,14.09,21.35,28.71,23.71
	c20.33,3.27,28.11-0.6,29.85-19.49C759.24,1283.7,758.09,1267.87,758.09,1248.99z M679.87,1280.65
	c1.38-11.77-3.64-21.33-21.48-20.49c-21.43,1-34.35,13.11-34.78,33.67c-0.37,17.26,9.43,24.91,31.26,24.41
	C672.91,1317.82,680.01,1308.25,679.87,1280.65z M292.44,2095.56c24.27-10.68,36.62-27.5,43.51-47.01
	c12.37-35.04,22.98-70.38,24.57-108.5c1-24.07,10.67-47.76,16.03-71.71c0.86-3.82-0.46-8.12-0.77-12.2
	c-3.59,2.63-7.45,4.98-10.66,8.01c-1.79,1.68-3.07,4.38-3.61,6.83c-7.5,34.42-17.3,68-16.91,104.28
	C345.08,2019.96,327.26,2059.27,292.44,2095.56z M132.43,2132.37c2,1.86,4,3.72,5.99,5.59c35.29-40.51,86.36-32.57,130.14-44.43
	c-6.8-5.3-12.8-9.98-19.48-15.18c-9.43,2.1-21.27,3.35-32.04,7.42c-26.38,9.96-52.45,20.84-78.16,32.43
	C135.32,2119.79,134.51,2127.49,132.43,2132.37z M125.97,2144.85c-11.64-15.52-9.17-26.64,7.57-39.72
	c32.24-25.19,70.69-33.48,110.3-40.59c-1.22-3.89-2.42-7.74-3.86-12.34c-34.9,13.7-68.87,26.3-102.23,40.32
	c-36.66,15.41-42.02,25.97-37.18,67.87C108.83,2155.33,116.54,2150.62,125.97,2144.85z M99.04,2224.97
	c-2.3-0.57-4.61-1.14-6.91-1.71c-5.58,6.16-11.68,11.94-16.63,18.58c-6.85,9.18-15.23,18.31-18.32,28.82
	c-1.96,6.66,4.5,15.8,7.18,23.83c6.44-3.02,16.96-4.62,18.6-9.32C89.77,2265.6,93.91,2245.11,99.04,2224.97z"/>
<path d="M1106.07,8.19c3.04,31.75,6.84,56.22,7.38,80.77c0.83,37.55,0.46,75.2-1.49,112.7c-0.98,18.82-16.16,24.79-33.28,27.3
	c-19.16,2.81-30.01-8.5-37.13-22.53c-6.35-12.52-2.71-25.78,9.17-34.86c33.89-25.92,25.43-62.48,24.49-97.04
	c-0.17-6.31-2.63-12.55-3.34-15.77c-17.19,6.67-34.65,12.69-51.45,20.21c-12.77,5.72-21.2,15.02-19.84,30.98
	c3.6,42.46,8.57,84.97,8.63,127.47c0.02,15.41-8.66,34.96-20.05,45.15c-12.67,11.34-31.44,6.29-46.88-4.66
	c-41.27-29.23-23.58-60.73,6.53-74.63c18.59-8.59,18.4-21.41,17.36-37.02c-1.92-28.71-5.32-57.48-4.73-86.16
	c0.44-21,15.93-34.35,37.91-37.77c21.35-3.32,39.7-10.84,55.45-26.77C1073.88-3.74,1094.34-3.53,1106.07,8.19z"/>
<path d="M900.62,551.25c-11.71,4.16-15.82,5.96-10.09,20.74c10.99,28.38,15.52,59.29,22.46,89.22c4.11,17.71,7.1,35.7,11.69,53.28
	c8.28,31.71-15.27,53-48.35,49.56c-16.35-1.7-27.23-12-42.17-14.8c-13.41-2.51-17.82-23.12-7.18-32.07
	c12.54-10.55,28.01-17.57,41.11-27.56c5.04-3.85,10.65-12.2,9.86-17.61c-5.77-39.73-15.26-78.56-34.4-114.37
	c-7.48-13.98-2.77-24.41,12.01-30.02c8.26-3.13,18.79-6.41,22.97-13.01c10.71-16.89,25.18-12.77,39.62-10.52
	c2.79,0.44,6.22,4.7,7.16,7.85c7.22,24.29,14.97,48.53,20.03,73.3c1.34,6.55-6.13,14.9-9.55,22.42
	c-7.08-5.49-16.68-9.58-20.66-16.77C908.43,578.79,905.32,564.73,900.62,551.25z"/>
<path d="M699,261.9c0,40.51-0.38,78.36,0.1,116.19c0.53,41.46-6.54,48.6-48.07,46.23c-31.97-1.83-44.26-10.69-48.67-35.1
	c-4.05-22.43,14.04-44.93,40.93-48.23c18.64-2.28,22.8-10.98,21.32-28.68c-2.2-26.35-3.93-53.28-0.9-79.39
	c3.43-29.53,24.26-40.98,44.79-24.43c3.01,2.43,9.49,0,13.82,1.46c9.17,3.09,24.97,6.38,25.58,11.17
	c1.6,12.63-0.82,27.66-17.75,32.25C720.15,256.1,710.16,258.85,699,261.9z"/>
<path class="st0" d="M477.45,1600.54c-11.29-17.75-27.43-32.82-30.24-50.05c-3.87-23.69-21.52-34.78-34.31-48.53
	c-21.49-23.09-34.52-49.58-47.93-77.08c-11.72-24.03-17.76-47.75-9.63-73.29c6.95-21.86-11.63-22.75-21.78-23.45
	c-7.37-0.51-21.16,10.08-22.49,17.45c-7.13,39.6-1.3,77.84,19.08,113.44c14.93,26.07,27.75,53.4,43.66,78.82
	c10.91,17.43,25.52,32.54,36.15,45.8c-37.2,38.79-73.45,76.6-112.41,117.23c-22.92-29.37-44.88-58.93-68.45-87.13
	c-12.33-14.75-27.42-27.22-41.42-40.55c-41.86-39.9-67.15-88.6-73.94-145.82c-5.18-43.67-7.41-87.7-10.74-131.58
	c-2.31-30.38,15.75-52.24,33.08-73.47c39.04-47.8,94.56-67.11,151.47-81.5c25.71-6.5,53.17-6.11,79.84-8.84
	c18.4-1.88,36.8-3.78,55.21-5.58c2.32-0.23,5.68-0.93,6.89,0.27c13.96,13.86,26.02,1.85,35.67-1.45
	c30.1,26.05,61.28,48.83,87.15,76.57c26.83,28.76,63.36,26.13,93.78,39.16c-25.31,19.16-49.79,2.53-74.84-5.64
	c-9.06-2.96-18.47-8.22-27.36-7.57c-14.89,1.08-23.13,11.73-23.76,26.99c-0.84,20.19-2.12,40.4-1.68,60.58
	c0.39,17.99,29.97,33.27,52.49,27.92c5.08-1.21,10.41-2.6,14.81-5.25c15.64-9.4,29.11-12.1,46.56-0.12
	c14.33,9.83,32.87,7.09,48.56-3.64c3.37-2.31,8.67-4.29,12.28-3.35c18.92,4.92,38.13,9.48,56.17,16.82
	c14.26,5.8,22.87-1.48,24.19-11.51c4.7-35.56,16.51-71.67,0.5-107.03c-2.31-5.09-14.28-11.19-18.12-9.32
	c-21.38,10.42-41.63,23.16-58.68,33.02c-12.04-6.77-21.37-12.01-34.81-19.57c48.24,1.1,89.72-24.54,134-93.43
	c39.76,24.17,79.93,47.79,119.25,72.75c33.15,21.03,48.26,54.68,57.33,91c13.79,55.2,28.53,110.32,38.51,166.25
	c6.73,37.7,6.45,76.72,8.04,115.2c0.25,6.02-4.79,14.29-9.93,18.12c-14.72,10.98-30.75,20.22-49.44,32.17
	c-7.51-25.93-17.01-51.23-21.91-77.39c-8.17-43.57-12.68-87.81-20.52-131.45c-1.36-7.55-12.35-19.6-17.57-18.95
	c-11.29,1.42-29.43,0.32-29.51,19.05c-0.09,20.11,0.61,40.62,4.46,60.26c9.05,46.08,18.44,92.25,31.1,137.42
	c8.53,30.41,22.01,59.59,35.1,88.49c4.79,10.57,3.08,14.71-5.87,20.33c-24.16,15.18-46.72,33.24-71.87,46.43
	c-24.95,13.08-52,22.37-78.65,31.9c-22.77,8.14-45.87,16.42-69.53,20.82c-47.49,8.84-95.39,15.59-143.27,22.02
	c-12.62,1.69-25.84-0.67-38.75-1.65c-20.92-1.59-42.01-6.16-62.63-4.51c-14.69,1.17-20.49-3.34-24.86-16.77
	c21.33,4.81,32.15-10.63,46.42-21.22c35.96-26.68,53.14-60.87,52.39-105.82c-0.18-10.44,8.11-21.83,14.59-31.37
	c9.22-13.57,19.67-26.48,30.93-38.42c7.51-7.97,15.29-12.42,29.6-12.24c18.72,0.24,41.49-7.5,55.67-19.74
	c41.72-35.99,43.44-84.15,9.19-128.57c-32.57-42.24-89.59-50.52-131.42-17.22c-10.69,8.51-18.51,22.04-24.52,34.75
	c-15.98,33.74-30.2,68.31-45.29,102.48C482.47,1596.15,480.08,1597.71,477.45,1600.54z"/>
<path class="st0" d="M729.89,914.22c4.74,32.23,10.53,64.35,13.91,96.72c3.34,32.1,5.55,64.45,5.43,96.68
	c-0.03,9.83-7.25,21.96-14.9,28.99c-20.98,19.26-41.32,41.13-70.83,46.92c-32.59,6.38-61.94,1.52-85.57-26.31
	c-14.28-16.81-34.66-28.4-49.19-45.05c-12.88-14.75-23.16-32.45-31.58-50.26c-15.05-31.83-28.79-64.38-41.09-97.37
	c-4.66-12.5-6.06-27.23-5.03-40.65c2.43-31.68,7.35-63.17,10.99-94.77c1.4-12.12,0.85-24.56,3.26-36.44
	c6.7-32.92,31.83-52.71,59.23-63.61c23.53-9.36,51.32-13.87,78.05-6.14c3.67,1.06,7.41,2.68,10.46,4.94
	c51.69,38.27,90.07,86.61,110.76,148.05c4.1,12.16,7.18,24.67,10.73,37.02C732.97,913.37,731.43,913.79,729.89,914.22z"/>
<path class="st0" d="M607.84,1895.7c68.35-13.44,136.16-26.77,208.08-40.91c10.27,80.34,20.65,161.53,31.05,242.84
	c-30.15,14.73-59.15,24.3-91.68,23.36c-19.76-0.57-39.67,3.34-59.48,5.59c-22.55,2.57-34.83-4.41-40.54-26.21
	c-16.2-61.87-31.78-123.9-47.25-185.96C606.65,1908.89,607.84,1902.73,607.84,1895.7z"/>
<path class="st0" d="M476.6,1895.25c-2.32,67.01-4.49,133.63-7.22,200.24c-0.19,4.62-3.77,12.33-7.06,13.11
	c-31.05,7.32-62.16,15.44-93.73,18.98c-13.89,1.56-28.67-10.85-43.95-1.71c-3.93-7.97-7.86-15.94-11.41-23.13
	c42-36.75,54.42-85.25,63.92-135.15c6.09-32.01,12.1-64.05,18.75-95.95c0.69-3.3,5.14-6.46,8.59-8.23c1.52-0.78,6.89,1.73,7.16,3.32
	c4.21,24.78,27.93,15.58,41.53,23.79C458.42,1893.67,465.82,1893.23,476.6,1895.25z"/>
<path class="st0" d="M342.44,1723.13c18.26-22.45,31.97-40.49,47.11-57.24c4.6-5.08,12.87-7.71,19.96-9.5
	c13.49-3.4,27.29-5.71,41.07-7.77c4.71-0.7,10.65-0.85,14.48,1.4c27.76,16.28,39.86,60.99,24.85,90.02
	c-8.3,16.04-17.25,30.31-34.74,39.73c-22.34,12.03-46.23,13.54-64.6-4.15C373.47,1759.17,358.36,1740.66,342.44,1723.13z"/>
<path class="st0" d="M297.16,2062.07c-8.86-36.34-21.11-72.26-25.63-109.13c-4.42-36-0.96-72.97-0.96-108.3
	c22.71,3.17,49.39,6.89,77.97,10.88c-2.79,10.04-7.81,23.32-10.04,37.06c-6.56,40.45-11.09,81.24-18.35,121.55
	c-3.02,16.77-10.95,32.66-16.64,48.96C301.39,2062.75,299.28,2062.41,297.16,2062.07z"/>
<path class="st0" d="M191.92,1650.69c10.78,15.21,17.79,27.16,26.78,37.35c20.23,22.93,41.37,45.05,62.35,67.29
	c2.2,2.33,6.98,5.42,8.66,4.53c20.07-10.55,27.9,2.77,35.68,17.22c1.83,3.39,5.07,6.01,8.06,9.44c-2.97,6.49-5.93,12.96-10.02,21.89
	c-47.36-14.21-98.18-16.62-139.83-46.54c-7.02-5.04-13.26-18.3-11.94-26.48C175.93,1708.83,183.89,1682.87,191.92,1650.69z"/>
<path class="st0" d="M273.38,2110.42c-11.94,6.15-23.28,14.52-35.96,17.97c-22.52,6.12-42.83,17.27-68.81,16.45
	c-16.29-0.52-34.91,19.12-49.6,32.81c-25.78,24.04-49.29,50.5-73.84,75.87c-18.21,18.83-13.92,48.33,12.15,58.07
	c6.39,2.39,17.54,0.86,22.52-3.45c17.24-14.95,28.13-33.34,27.17-58.11c-0.79-20.56-4.98-43.46,18.06-57.75
	c5.25,27.82,6.37,54.59-1.28,82.69c-9.41,34.57-45.16,63.83-81.13,60.81c-14.34-1.2-30.26-21.09-25.59-36.28
	c6.66-21.67,13.69-44.38,26.12-62.91c34.84-51.91,85.71-86.18,140.4-113.88c15.57-7.89,35.97-6.14,54.11-9.11
	c11.32-1.85,22.54-4.27,33.81-6.44C272.14,2108.25,272.76,2109.34,273.38,2110.42z"/>
<path class="st0" d="M983.65,1759.38c17.47-14.95,13.1-33.04,7.73-50.66c-4.68-15.38-8.05-29.88,6.37-42.08
	c7.43-6.29,14.83-12.62,20.95-17.83c13.52,11.08,24.67,20.88,36.51,29.76c16.23,12.17,16.65,28.25,5.2,44.56
	c-14.82,21.09-37.37,25.01-58.82,32.19C995.8,1757.25,989.64,1758.05,983.65,1759.38z"/>
<path class="st0" d="M537.75,1249.02c21.84,5.68,37.82,8.97,53.13,14.24c6.26,2.15,16.02,9.15,15.58,12.93
	c-1.27,10.83-4.72,23.06-11.6,31.04c-5.64,6.53-17.16,9.29-26.57,10.95c-13.39,2.36-25.33-1.09-26.9-17.7
	C539.86,1284.33,539.06,1268.12,537.75,1249.02z"/>
<path class="st0" d="M758.09,1248.99c0,18.88,1.15,34.71-0.29,50.29c-1.75,18.88-9.52,22.76-29.85,19.49
	c-14.62-2.35-25.78-8.2-28.71-23.71c-3.49-18.42,8.93-25.65,23.22-31.34C733.73,1259.23,744.89,1254.46,758.09,1248.99z"/>
<path class="st0" d="M679.87,1280.65c0.14,27.59-6.96,37.17-25,37.59c-21.83,0.51-31.63-7.14-31.26-24.41
	c0.44-20.56,13.36-32.67,34.78-33.67C676.23,1259.33,681.24,1268.89,679.87,1280.65z"/>
<path class="st0" d="M292.44,2095.56c34.82-36.28,52.64-75.6,52.16-120.31c-0.39-36.28,9.41-69.85,16.91-104.28
	c0.53-2.45,1.82-5.15,3.61-6.83c3.21-3.03,7.07-5.37,10.66-8.01c0.31,4.08,1.63,8.39,0.77,12.2c-5.37,23.95-15.03,47.63-16.03,71.71
	c-1.59,38.12-12.21,73.46-24.57,108.5C329.06,2068.06,316.71,2084.87,292.44,2095.56z"/>
<path class="st0" d="M132.43,2132.37c2.08-4.88,2.89-12.58,6.45-14.18c25.71-11.58,51.78-22.46,78.16-32.43
	c10.77-4.07,22.6-5.31,32.04-7.42c6.68,5.21,12.68,9.88,19.48,15.18c-43.78,11.85-94.84,3.92-130.14,44.43
	C136.43,2136.09,134.43,2134.23,132.43,2132.37z"/>
<path class="st0" d="M125.97,2144.85c-9.44,5.77-17.14,10.49-25.4,15.54c-4.84-41.9,0.53-52.47,37.18-67.87
	c33.36-14.02,67.33-26.62,102.23-40.32c1.44,4.6,2.65,8.45,3.86,12.34c-39.62,7.11-78.06,15.4-110.3,40.59
	C116.81,2118.21,114.34,2129.33,125.97,2144.85z"/>
<path class="st0" d="M99.04,2224.97c-5.12,20.15-9.26,40.64-16.08,60.19c-1.64,4.7-12.16,6.3-18.6,9.32
	c-2.68-8.03-9.14-17.17-7.18-23.83c3.09-10.51,11.47-19.63,18.32-28.82c4.95-6.64,11.04-12.42,16.63-18.58
	C94.43,2223.83,96.73,2224.4,99.04,2224.97z"/>
</svg>
