<svg id="Calque_1" data-name="Calque 1" xmlns="http://www.w3.org/2000/svg" viewBox="0 0 146.77 285.36"><defs><style>.cls-1{fill:#fff;}</style></defs><title>chifoumi_card</title><path class="cls-1" d="M74.28.21V0h-1.6Q40.4,0,8.12,0C4,0-.24,4.09-.22,8.5Q0,48.19.07,87.87c0,6.31.08,12.62,0,18.92-.06,10.29-.27,20.58-.26,30.87,0,6.4.37,12.81.45,19.21.06,4.9-.09,9.81-.1,14.71,0,4,.24,8.06,0,12.08-.45,9.53-.31,19.05-.09,28.58.3,12.52.48,25,.47,37.56,0,10.33-.33,20.66-.59,31,0,1.43.55,1.92,1.8,2.05,2.13.21,4.24.57,6.37.65,7.77.29,15.53.54,23.3.7,11.27.23,22.54.34,33.81.57,3.1.07,6.19.59,9.28.6,5,0,9.91-.32,14.86-.33,15.4,0,30.8,0,46.19,0a5.74,5.74,0,0,0,3.49-1.05,24.48,24.48,0,0,0,4.09-4.64,7,7,0,0,0,1.18-3.36c.33-5.08.55-10.17.71-15.26.34-10.28.81-20.56.86-30.84,0-7.41,1.12-14.81.19-22.25a59,59,0,0,1,.05-7.4c0-1.49-.07-3-.1-4.47q-.13-6.09-.28-12.19c0-.82,0-1.64-.1-2.46-.21-2.8-.59-5.59-.62-8.39s.39-5.32.47-8q.25-8.22.35-16.45c0-3.82-.05-7.65-.1-11.47a59.32,59.32,0,0,1-.07-6,34.49,34.49,0,0,0-.09-7.8c-.91-6.58.37-13.28-1-19.84a5,5,0,0,1,0-1c0-7.81,0-15.62-.11-23.43-.08-6.65-.69-13.31-.35-19.93.48-9.35-.69-18.73.72-28a7.15,7.15,0,0,0,0-1.31c-.28-4.26-.64-8.52-.83-12.78s-.21-8.54-.3-12.8c-.06-2.46-.53-3-2.95-3.19-3.1-.2-6.21-.42-9.32-.43Q102.92.18,74.28.21Z" transform="translate(0.22 0)"/><path d="M74.28.21q28.64,0,57.27,0c3.11,0,6.21.23,9.32.43,2.41.16,2.89.73,2.95,3.19.1,4.27.11,8.54.3,12.8s.55,8.52.83,12.78a5.74,5.74,0,0,1,0,1.31c-1.4,9.31-.24,18.7-.72,28.05-.34,6.62.27,13.29.35,19.93.1,7.81.08,15.62.11,23.43a5,5,0,0,0,0,1c1.39,6.56.11,13.26,1,19.84a33.93,33.93,0,0,1,.09,7.8,59.32,59.32,0,0,0,.07,6c0,3.82.14,7.65.1,11.47q-.09,8.22-.35,16.45c-.08,2.67-.5,5.33-.47,8s.41,5.59.62,8.39c.06.82.08,1.64.1,2.46q.15,6.09.28,12.19c0,1.49.11,3,.1,4.47a57.16,57.16,0,0,0-.05,7.4c.93,7.44-.16,14.83-.19,22.25,0,10.28-.52,20.56-.86,30.84-.17,5.09-.38,10.18-.71,15.26a6.87,6.87,0,0,1-1.18,3.36,24.83,24.83,0,0,1-4.09,4.64,5.86,5.86,0,0,1-3.49,1.05c-15.4.06-30.8,0-46.19,0-4.95,0-9.91.35-14.86.33-3.09,0-6.18-.53-9.28-.6-11.27-.24-22.54-.34-33.81-.57-7.77-.16-15.54-.42-23.3-.7-2.13-.08-4.25-.43-6.37-.65-1.25-.13-1.83-.62-1.8-2,.26-10.33.58-20.65.59-31,0-12.52-.18-25-.47-37.56-.23-9.53-.36-19.05.09-28.58.19-4,0-8,0-12.08,0-4.9.16-9.81.1-14.71-.08-6.4-.44-12.81-.45-19.21,0-10.29.2-20.58.26-30.87,0-6.31,0-12.62,0-18.92Q-.06,48.18-.22,8.5C-.24,4.09,4,0,8.12,0Q40.4.08,72.68,0h1.6ZM66.43,282.78v.45c5.63,0,11.26,0,16.89,0,10-.1,19.91-.49,29.86-.3a206.25,206.25,0,0,0,21.82-.38c2.28-.2,2.71-.55,2.75-2.79s0-4.47.13-6.7c.94-12.74,1.51-25.48,1.47-38.25,0-11.12.18-22.23.08-33.35-.13-15.38-.51-30.76-.69-46.14-.14-11.84-.17-23.68-.17-35.52,0-6.74.32-13.49.27-20.23-.08-11.21-.43-22.41-.49-33.62,0-9.85.17-19.7.21-29.55,0-4.7-.07-9.4-.16-14.1,0-2.38-.29-4.75-.26-7.13,0-2.21.37-4.41.42-6.61,0-1.91-.82-2.61-2.72-2.47-1.31.09-2.61.29-3.92.29-7.62,0-15.25-.16-22.87-.06-6.94.08-13.87.57-20.81.6-8.84,0-17.67-.32-26.51-.27-10.63.06-21.27.12-31.89.63-8.57.42-17.08-.1-25.61-.44-2-.08-2.4.24-2.49,2.25,0,.44,0,.87,0,1.31,0,7.38.1,14.75.11,22.13,0,4.7-.08,9.4-.06,14.1Q1.84,68.24,2,89.86c0,4,.1,8,.17,11.93,0,2.47.44,5,.13,7.4A63.13,63.13,0,0,0,2,117.88c.15,14.51.17,29,.23,43.53,0,2.72-.08,5.44,0,8.16.09,8.59.3,17.17.3,25.76,0,9.22-.24,18.44-.22,27.66,0,11.69.26,23.39.31,35.08,0,6.36-.13,12.72-.18,19.08,0,3.09.28,3.46,3.34,3.61,4.9.24,9.8.4,14.7.56Q43.43,282.07,66.43,282.78Zm74.43-4.3.65,0a13.53,13.53,0,0,0,.58-2.38c.1-1.64,0-3.3.07-4.95.4-8.53.91-17.06,1.24-25.59.28-7.08.34-14.17.54-21.26.12-4.46.4-8.92.43-13.38,0-4.31-.16-8.62-.25-12.94,0-.68,0-1.36,0-2-.34-8.82-.82-17.64-1-26.47-.24-12.61-.28-25.23-.33-37.85,0-9.75.13-19.49.08-29.24,0-7.47-.42-14.94-.41-22.41,0-17.33.31-34.65.27-52,0-7.17-.61-14.34-1-21.52,0-.26-.3-.51-.45-.77-.22.26-.6.5-.64.78a20,20,0,0,0-.31,3.18q0,15.06,0,30.13c0,7.47,0,14.94,0,22.42.11,12.33.36,24.65.42,37,0,9.21-.14,18.43-.16,27.64,0,9-.07,18.06.07,27.08.27,17.85.72,35.7,1,53.56.1,7.81-.1,15.63-.25,23.44-.13,6.84-.4,13.68-.58,20.53q-.31,12.53-.56,25A6.09,6.09,0,0,0,140.86,278.48ZM5.08,3.28l.06.79a10,10,0,0,0,2,.47c5.1.12,10.2.33,15.29.24,9.71-.16,19.41-.68,29.12-.72,16.16-.06,32.32.21,48.48.2,8.4,0,16.8-.33,25.2-.49,4.08-.08,8.16-.1,12.24-.17a3.8,3.8,0,0,0,1.09-.37,21.26,21.26,0,0,0-4.34-.32L94.29,2.56c-14.18-.12-28.36-.26-42.53-.31-9.23,0-18.45,0-27.68.09-5.53,0-11,.05-16.58.17A9.06,9.06,0,0,0,5.08,3.28Z" transform="translate(0.22 0)"/><path class="cls-1" d="M66.43,282.78l-46-1.46c-4.9-.16-9.8-.32-14.7-.56-3.06-.15-3.36-.52-3.34-3.61.05-6.36.21-12.72.18-19.08-.06-11.69-.28-23.39-.31-35.08,0-9.22.23-18.44.22-27.66,0-8.59-.21-17.17-.3-25.76,0-2.72.06-5.44.05-8.16-.05-14.51-.08-29-.23-43.53a63.08,63.08,0,0,1,.25-8.69c.31-2.42-.08-4.93-.13-7.4-.07-4-.15-8-.17-11.93q-.09-21.63-.18-43.24c0-4.7.07-9.4.06-14.1,0-7.38-.08-14.75-.11-22.13,0-.44,0-.87,0-1.31.09-2,.49-2.33,2.48-2.25,8.53.34,17.05.86,25.61.44,10.63-.51,21.27-.57,31.9-.63,8.84,0,17.67.3,26.51.26,6.94,0,13.87-.52,20.81-.6,7.62-.09,15.25.06,22.87.06,1.31,0,2.61-.2,3.92-.29,1.9-.14,2.76.56,2.72,2.47-.05,2.21-.39,4.41-.42,6.61,0,2.37.21,4.75.26,7.13.09,4.7.18,9.4.16,14.1,0,9.85-.26,19.7-.21,29.55.06,11.21.41,22.41.49,33.62,0,6.74-.26,13.49-.27,20.23q0,17.76.17,35.52c.18,15.38.55,30.76.69,46.14.1,11.12-.12,22.23-.08,33.35,0,12.77-.53,25.52-1.47,38.25-.16,2.22-.09,4.47-.13,6.7s-.47,2.59-2.75,2.79a203.61,203.61,0,0,1-21.82.38c-10-.19-19.9.21-29.86.3-5.63.05-11.26,0-16.89,0Z" transform="translate(0.22 0)"/><path class="cls-1" d="M140.86,278.48a7.06,7.06,0,0,1-.59-2q.22-12.53.56-25c.18-6.84.44-13.68.58-20.53.15-7.81.36-15.63.25-23.44-.23-17.85-.69-35.7-1-53.56-.14-9-.09-18.06-.07-27.08,0-9.21.21-18.43.16-27.64-.06-12.33-.31-24.65-.42-37-.07-7.47,0-14.94-.05-22.42q0-15.06,0-30.13a20,20,0,0,1,.31-3.18c.05-.29.42-.52.64-.78.16.26.44.51.45.77.36,7.17.94,14.34,1,21.52,0,17.33-.24,34.65-.27,52,0,7.47.37,14.94.41,22.41.05,9.75-.11,19.49-.08,29.24,0,12.62.09,25.23.33,37.85.17,8.83.65,17.65,1,26.47,0,.68,0,1.36,0,2,.09,4.31.28,8.63.25,12.94,0,4.46-.31,8.92-.43,13.38-.19,7.09-.26,14.18-.54,21.26-.33,8.53-.84,17.06-1.24,25.59-.08,1.65,0,3.3-.07,5a13.53,13.53,0,0,1-.58,2.38Z" transform="translate(0.22 0)"/><path class="cls-1" d="M5.08,3.28A9.06,9.06,0,0,1,7.5,2.51C13,2.4,18.55,2.36,24.08,2.34c9.23,0,18.45-.12,27.68-.09,14.17.06,28.35.2,42.52.31l39.91.35a21.16,21.16,0,0,1,4.34.32,3.91,3.91,0,0,1-1.09.37c-4.08.08-8.16.1-12.24.17-8.4.16-16.8.49-25.2.49-16.15,0-32.31-.26-48.47-.19-9.71,0-19.41.55-29.12.71-5.1.08-10.2-.12-15.29-.24a10,10,0,0,1-2-.47Z" transform="translate(0.22 0)"/><path d="M38.13,163.08a1.58,1.58,0,0,1,.47-.06,5.64,5.64,0,0,1,2.23.51c.81.36,1.21.77,1.21,1.24a1.38,1.38,0,0,1-.34.82,1.11,1.11,0,0,1-1,.41,2.79,2.79,0,0,1-1.08-.24,2.61,2.61,0,0,0-.93-.19,2.68,2.68,0,0,0-1.4.38,2.41,2.41,0,0,0-1,1,2.9,2.9,0,0,0-.23,1.31,2,2,0,0,0,.12.85,4.28,4.28,0,0,0,.66.75,3.38,3.38,0,0,0,2.36,1l.66,0a3.74,3.74,0,0,1,.61,0,.94.94,0,0,1,.69.28,1.14,1.14,0,0,1,.32.82,1.3,1.3,0,0,1-.42,1,1,1,0,0,1-.58.32,9.32,9.32,0,0,1-1.36.06,7.9,7.9,0,0,1-1.43-.08,3.86,3.86,0,0,1-1-.38,6.6,6.6,0,0,1-2.66-2.39,2.31,2.31,0,0,1-.34-.66,3.7,3.7,0,0,1-.08-.9s0-.14,0-.28,0-.26,0-.34a9.49,9.49,0,0,1,.11-1.47,4.86,4.86,0,0,1,.44-1.08A4.53,4.53,0,0,1,35.64,164,8.21,8.21,0,0,1,38.13,163.08Z" transform="translate(0.22 0)"/><path d="M44.49,162a1,1,0,0,1,.78-.38,1.17,1.17,0,0,1,.84.38l.36.36q0,.63-.09,1.89c-.06.85-.09,1.48-.1,1.89L48,166c1.15-.06,1.74-.11,1.75-.13s.07-.62.15-1.81c0-.87.1-1.4.13-1.58a1,1,0,0,1,.36-.53,1.3,1.3,0,0,1,.8-.34,1,1,0,0,1,.74.36,1,1,0,0,1,.33.67s0,.31-.08.87-.1,2.29-.15,5.11c0,1.93-.05,3.07-.08,3.43a1,1,0,0,1-.26.73,1,1,0,0,1-.65.25c-.92,0-1.39-1.12-1.39-3.36V168.3h-1a9.33,9.33,0,0,0-1.64.12c-.41.07-.62.25-.62.53a1.84,1.84,0,0,0,.26.8,1.7,1.7,0,0,1,.25.87,4.67,4.67,0,0,1,0,.49c-.14.93-.45,1.48-1,1.66a1.65,1.65,0,0,1-.49.09c-.65,0-1-.72-1.16-2.16-.08-.61-.11-2.73-.11-6.37,0-1,0-1.56,0-1.71S44.24,162.27,44.49,162Z" transform="translate(0.22 0)"/><path d="M54.64,161.14a1,1,0,0,1,.76-.38,1.37,1.37,0,0,1,1.16,1.1,2,2,0,0,1-.06.4c-.15.91-.5,1.37-1.06,1.37l-.31,0c-.57-.13-.85-.6-.85-1.41A1.55,1.55,0,0,1,54.64,161.14Zm.57,5.17A1.14,1.14,0,0,1,56,166a1.25,1.25,0,0,1,1,.89,8.92,8.92,0,0,1,.05,1.32,27.67,27.67,0,0,0,.21,3,11,11,0,0,1,.12,1.31,1.16,1.16,0,0,1-.08.51,1.08,1.08,0,0,1-1,.65,1,1,0,0,1-.69-.27,1.31,1.31,0,0,1-.43-.72,19.32,19.32,0,0,1-.29-2.2c-.11-1.12-.16-2-.16-2.62a1.79,1.79,0,0,1,0-.21c0-.09,0-.15,0-.17a2.27,2.27,0,0,1,.13-.73A1.19,1.19,0,0,1,55.21,166.31Z" transform="translate(0.22 0)"/><path d="M61.75,163.15a6.53,6.53,0,0,1,1.48-.11,10.82,10.82,0,0,1,1.71.11,1.63,1.63,0,0,1,.85.42,1,1,0,0,1,.33.72.94.94,0,0,1-.35.71,1.08,1.08,0,0,1-.58.27,11.72,11.72,0,0,1-1.51.09,6.92,6.92,0,0,0-1.9.19,4.88,4.88,0,0,0-.24,1.55l-.08,1.43h.76a2,2,0,0,1,1.18.3,1,1,0,0,1,.38.78,1.15,1.15,0,0,1-.27.74,1.13,1.13,0,0,1-.72.44l-.24.05-.32.07L62,171l-.43.11,0,2v.6c0,.23,0,.39,0,.46a4,4,0,0,1-.05.86,1.25,1.25,0,0,1-.25.44,1,1,0,0,1-.74.32,1,1,0,0,1-.68-.25,2,2,0,0,1-.48-1.37c-.06-.72-.09-2.34-.09-4.88v-1.52a11.9,11.9,0,0,1,.22-3.38,2.81,2.81,0,0,1,.86-.61A8,8,0,0,1,61.75,163.15Z" transform="translate(0.22 0)"/><path d="M71.27,165.51a1.88,1.88,0,0,1,1-.27,1.23,1.23,0,0,1,1,.38,1.29,1.29,0,0,0,.95.36,2.11,2.11,0,0,1,1,.19,4.58,4.58,0,0,1,.92.8,5.74,5.74,0,0,1,.82,1.09,4.1,4.1,0,0,1,.35,1.27,8.93,8.93,0,0,1,.16,1.4,4.23,4.23,0,0,1-.29,1.43A3.75,3.75,0,0,1,76,173.88a6.76,6.76,0,0,1-2.3.92,7.18,7.18,0,0,1-1.39.25,4,4,0,0,1-1.65-.55,4.72,4.72,0,0,1-1.79-1.63,4,4,0,0,1-.62-2.16,4.6,4.6,0,0,1,.51-2.05A11.17,11.17,0,0,1,70,166.8,5.13,5.13,0,0,1,71.27,165.51Zm1.91,2.18a.89.89,0,0,0-.47-.26c-.14,0-.37.18-.69.56a8.07,8.07,0,0,0-1,1.36,2.88,2.88,0,0,0-.5,1.19,1.65,1.65,0,0,0,0,.27,2.06,2.06,0,0,0,1.12,1.6l.53.3,1.11-.27a3.14,3.14,0,0,0,1.21-.43,2.5,2.5,0,0,0,.4-1.58,2.31,2.31,0,0,0,0-.42,1.85,1.85,0,0,0-.28-.88A18.37,18.37,0,0,0,73.18,167.69Z" transform="translate(0.22 0)"/><path d="M87.17,167a1,1,0,0,1,.78-.32,1.13,1.13,0,0,1,.85.36,1,1,0,0,1,.31.5,8.65,8.65,0,0,1,0,1.17,10.35,10.35,0,0,1-1.12,5,8.47,8.47,0,0,1-1,1.55,4.06,4.06,0,0,1-1.13.82,2.64,2.64,0,0,1-1.15.35l-.51,0a4.55,4.55,0,0,1-2.09-.69,4,4,0,0,1-1.42-1.52,11.91,11.91,0,0,1-1.07-3.42,13.4,13.4,0,0,0-.24-1.61,3.65,3.65,0,0,1-.08-.67,1,1,0,0,1,.17-.53,1.15,1.15,0,0,1,1-.63l.29,0c.59.14,1,.74,1.08,1.81a14.23,14.23,0,0,0,.59,2.9,3,3,0,0,0,.85,1.54,2,2,0,0,0,1.09.4c.5,0,1-.37,1.4-1.1a8.84,8.84,0,0,0,1-4,8.5,8.5,0,0,1,.11-1.31A1,1,0,0,1,87.17,167Z" transform="translate(0.22 0)"/><path d="M98.93,164.58a2.08,2.08,0,0,1,.68-.12,2.1,2.1,0,0,1,1.68.95,11.68,11.68,0,0,1,1,4.26,21.88,21.88,0,0,1,.23,2.45,1.59,1.59,0,0,1-.36,1.18,1.14,1.14,0,0,1-.82.36,1,1,0,0,1-.76-.34,1,1,0,0,1-.29-.59,14.93,14.93,0,0,1-.2-1.67,14.88,14.88,0,0,0-.65-3.69c-.06-.13-.11-.19-.15-.19s-.11,0-.21.15a11.87,11.87,0,0,0-1.06,1.86,11.43,11.43,0,0,1-.8,1.45,1.94,1.94,0,0,1-.67.53,1.64,1.64,0,0,1-.7.27,1.7,1.7,0,0,1-.46-.14,5,5,0,0,1-1.18-.81,3.48,3.48,0,0,0-.74-.59q-.09,0-.09.51a7.81,7.81,0,0,0,.25,2,6.38,6.38,0,0,1,.17.89.93.93,0,0,1-.23.51,1.17,1.17,0,0,1-.93.57.82.82,0,0,1-.53-.19,2,2,0,0,1-.76-1.1,9.09,9.09,0,0,1-.21-2.22c0-.93,0-1.51,0-1.77a4.66,4.66,0,0,1,.4-1.08c.45-.95.93-1.43,1.47-1.43a2.59,2.59,0,0,1,1.65,1,6,6,0,0,0,.93.85c.1,0,.32-.34.65-1a7.07,7.07,0,0,1,1.23-1.77A3.63,3.63,0,0,1,98.93,164.58Z" transform="translate(0.22 0)"/><path d="M105,161.14a1,1,0,0,1,.76-.38,1.37,1.37,0,0,1,1.16,1.1,2,2,0,0,1-.06.4c-.15.91-.5,1.37-1.06,1.37l-.31,0c-.57-.13-.85-.6-.85-1.41A1.55,1.55,0,0,1,105,161.14Zm.57,5.17a1.14,1.14,0,0,1,.74-.33,1.25,1.25,0,0,1,1,.89,8.38,8.38,0,0,1,.06,1.32,27.27,27.27,0,0,0,.2,3,11,11,0,0,1,.12,1.31,1.16,1.16,0,0,1-.08.51,1.08,1.08,0,0,1-1,.65,1,1,0,0,1-.69-.27,1.31,1.31,0,0,1-.43-.72,19.32,19.32,0,0,1-.29-2.2c-.11-1.12-.16-2-.16-2.62a1.79,1.79,0,0,1,0-.21c0-.09,0-.15,0-.17a2.59,2.59,0,0,1,.13-.73A1.19,1.19,0,0,1,105.54,166.31Z" transform="translate(0.22 0)"/><path class="cls-1" d="M125.44,85.69l.21,0c-.21-2.67-.39-5.35-.62-8-.11-1.23-.27-2.45-.45-3.67-.12-.78-.31-1.54-.49-2.31-.26-1.14-.55-2.27-.82-3.41-.17-.73-.3-1.47-.49-2.19-.26-1-.56-1.91-.84-2.86a1.51,1.51,0,0,0-.1-.3l-1.18-2.64q-.24-.57-.45-1.14c-.18-.49-.32-1-.53-1.46-.37-.87-.79-1.73-1.18-2.59s-.64-1.47-1-2.18-.79-1.38-1.16-2.09c-.47-.88-.87-1.81-1.37-2.67a2.17,2.17,0,0,0-1-1c-.71-.2-1.45.86-1.68,1.89a12.61,12.61,0,0,1-1,2.38c-.36.8-.8,1.56-1.16,2.35-.23.5-.34,1-.58,1.54-.51,1.07-1.08,2.11-1.58,3.19-.24.51-.32,1.09-.56,1.6-.35.74-.82,1.42-1.16,2.17s-.59,1.72-1,2.55c-.53,1.17-1.14,2.31-1.73,3.46-.17.34-.38.67-.58,1-.38.63-.77,1.25-1.12,1.89s-.67,1.34-1,2-.76,1.23-1.12,1.86-.77,1.44-1.18,2.14c-.3.51-.69,1-1,1.48a27.4,27.4,0,0,1-1.43,2.68c-.71,1-1.62,1.87-2.39,2.82a15.64,15.64,0,0,0-1.37,2c-.52.87-1,1.79-1.44,2.68s-1.11,1.93-1.64,2.91-.9,1.76-1.32,2.66c-.22.46-.38,1-.58,1.43-.38.88-.82,1.75-1.16,2.65s-.64,2-.94,3-.53,1.84-.8,2.75c-.35,1.17.73,2.32,0,3.5,0,0,0,.14,0,.21l.36,1.63a22.35,22.35,0,0,0,.53,2.29c.35,1.07.81,2.1,1.19,3.16a23.16,23.16,0,0,0,1,2.91,19.48,19.48,0,0,0,2.22,3.56,44.44,44.44,0,0,0,3.2,3.24c.34.35.94.77.89,1.09a4.8,4.8,0,0,1-.86,1.76c-.66,1-1.36,2-2.07,3s-1.68,2.19-2.47,3.32c-.23.32-.51.89-.38,1.15.62,1.24,1.87,1.35,2.85.29.49-.53.88-1.16,1.35-1.72.69-.82,1.45-1.6,2.09-2.46s.93-1.51,1.41-2.26c.25-.39.53-1.06.83-1.08,3.27-.2,6.57.3,9.82-.47.86-.2,1.75-.33,2.62-.5.07,0,.12-.13.2-.17.67-.36,1.36-.69,2-1.07a10.1,10.1,0,0,0,1.9-1.22,18.78,18.78,0,0,0,1.83-2.22c.41-.52.8-1.06,1.18-1.61.55-.8,1.1-1.6,1.63-2.42.37-.57.7-1.17,1-1.77s.65-1.37,1-2,.81-1.54,1.19-2.32c.3-.6.57-1.21.87-1.81a12.81,12.81,0,0,0,.79-1.45c.24-.65.34-1.35.52-2,.14-.5.33-1,.49-1.5a19.1,19.1,0,0,0,.74-2.41A35.82,35.82,0,0,0,125,99c.18-2.26.37-4.52.45-6.78S125.44,87.86,125.44,85.69ZM22.32,23.88v0a17.17,17.17,0,0,0-2.15.78A17.53,17.53,0,0,0,18.46,26c-.54.37-1.17.61-1.67,1a12.26,12.26,0,0,0-1.56,1.66,9.55,9.55,0,0,0-.58,1A14.56,14.56,0,0,0,13.77,31a6.71,6.71,0,0,0-.54,1.62,20.9,20.9,0,0,0-.17,2.24,1.6,1.6,0,0,0,.09.41c.18,1.2.35,2.41.57,3.6,0,.22.41.36.52.59.67,1.32.72,2.89,1.8,4.07a19.81,19.81,0,0,1,1.2,2.06A5.7,5.7,0,0,0,18.66,47a25,25,0,0,0,2.92,1.71,8.48,8.48,0,0,0,3.72,1.25c.06,0,.18.08.17.1a.43.43,0,0,1-.12.22c-.6.47-1.23.91-1.8,1.4a22.41,22.41,0,0,0-2.08,1.93c-.8.89-1.52,1.84-2.24,2.79a7.67,7.67,0,0,0-1.14,1.74A19.72,19.72,0,0,0,17.32,61a6.68,6.68,0,0,0-.31,2.1,18.7,18.7,0,0,0,.8,3.48A16.93,16.93,0,0,0,19,69c.41.78.81,1.56,1.26,2.32a5.57,5.57,0,0,0,.89,1c.47.45,1,.86,1.5,1.28a5.87,5.87,0,0,0,1.27,1,14.86,14.86,0,0,0,2.36.79,17,17,0,0,0,1.76.31c1,.16,1.92.34,2.89.46A18.18,18.18,0,0,0,33,76.3a7.27,7.27,0,0,0,2.34-.12c1.82-.65,3.58-1.47,5.36-2.23A6.81,6.81,0,0,0,42,73.42a19.33,19.33,0,0,0,1.5-1.24c.35-.29.7-.58,1-.9s.56-.61.83-.92.79-.92,1.17-1.38c.08-.09.13-.2.21-.28a18.28,18.28,0,0,0,1.46-1.46A21,21,0,0,0,50,64.65a29.35,29.35,0,0,0,1.72-3.52,3.39,3.39,0,0,1,1.73-1.88,19.61,19.61,0,0,1,3.52-.94c1.36-.33,2.71-.67,4.07-1,.32-.07.67,0,1-.06a3,3,0,0,0,.59-.31,4.67,4.67,0,0,1,1.27-.54c.71-.1,1.44,0,2.16-.08.88-.11,1.76-.32,2.63-.48a1.23,1.23,0,0,1,.19,0A9.29,9.29,0,0,0,70.5,56c.93-.12,1.84-.35,2.75-.53h.19l2.13,0a8.07,8.07,0,0,0,.85,0,1.55,1.55,0,0,0,.61-.25c.21-.14.37-.45.59-.48,1.08-.17,2.19-.24,3.27-.4s1.94-.37,2.9-.56a2.34,2.34,0,0,1,.5-.14c.68,0,1.36,0,2,0s1.3-.21,2-.27c.86-.07,1.72-.08,2.58-.12s1.85-.09,2.78-.17,2.1-.15,3.14-.32a25.47,25.47,0,0,0,3.14-.7,3.83,3.83,0,0,0,1.38-.83,8.87,8.87,0,0,0,1.83-2,12.83,12.83,0,0,0,1.07-2.87c.22-.73.3-1.5.47-2.25a5.45,5.45,0,0,0-.07-3.39,18.81,18.81,0,0,0-1.55-3.19,6.19,6.19,0,0,0-1.92-1.71,10.06,10.06,0,0,0-2-.74,18.06,18.06,0,0,0-2.22-.74A22.54,22.54,0,0,0,93.65,34a22.8,22.8,0,0,0-2.73.14c-1,.08-2.09.17-3.13.3-1.31.17-2.61.36-3.91.57-.88.14-1.75.36-2.63.51-.57.1-1.15.13-1.72.23q-1.45.26-2.88.57c-1.23.27-2.44.57-3.66.86a1.08,1.08,0,0,1-.18,0,13.15,13.15,0,0,0-1.88,0c-.86.09-1.71.3-2.57.46h-.09c-.83,0-1.66.07-2.48.13-.61,0-1.21.15-1.82.19-.84.06-1.68.11-2.51.1-.16,0-.47-.34-.44-.44.28-.9-.39-.67-.8-.69s-.91.05-1.36,0c-1,0-2-.09-2.94-.1s-1.69.12-2.52.06a13.72,13.72,0,0,1-2.28-.45,1.42,1.42,0,0,1-.55-.41c.36-.62-.34-.5-.52-.72s-.65-.51-.89-.83-.65-1-1-1.52c-.46-.67-1-1.31-1.44-2a8,8,0,0,0-1-1.49c-.3-.27-.2-.61-.32-.77a14.65,14.65,0,0,0-1.8-1.81,24.38,24.38,0,0,0-2.05-1.59c-1-.72-2-1.47-3.11-2.1a3.6,3.6,0,0,0-2.62-.51,1.8,1.8,0,0,1-1.08-.07,5.41,5.41,0,0,0-4.07-.09.94.94,0,0,1-.28.06,24.09,24.09,0,0,0-3.18,0,31.33,31.33,0,0,0-3.69.86C23.11,23.57,22.72,23.74,22.32,23.88ZM80,108.07l.19,0c-.21-1.31-.45-2.61-.64-3.93s-.28-2.71-.53-4a10.42,10.42,0,0,0-.79-1.91,4.5,4.5,0,0,1-.61-1.53,9.24,9.24,0,0,0-1-4.41,10.77,10.77,0,0,0-2.23-3.1,6.84,6.84,0,0,1-2.12-3.18c-.34-1-.34-2.07-1.3-2.73-.36-.24-.71-.51-1.07-.76s-.61-.46-.93-.66c-.14-.09-.34-.08-.49-.15-.53-.26-1-.58-1.58-.8a13.68,13.68,0,0,1-1.71-.56,36.54,36.54,0,0,1-3.77-2.35c-1.13-.84-2.12-1.86-3.18-2.79s-1.88-1.74-3.32-1.56c-.16,0-.32-.15-.49-.16a7,7,0,0,0-2.27-.12,8.61,8.61,0,0,0-2.34,1.23c-1.06.7-2.09,1.46-3.1,2.24s-2,1.75-3.11,2.57c-.74.55-1.6,1-2.35,1.5-.27.19-.33.66-.58.92-.71.75-1.52,1.41-2.2,2.18a24.48,24.48,0,0,0-2,2.62A9.09,9.09,0,0,0,35.13,89c-.36,1.3-.41,1.5-1.45,1.52-.17,0-.34.19-.51.21a8.1,8.1,0,0,1-1.39.07c-.25,0-.49-.28-.75-.32-1.52-.19-2.58.68-3.64,1.58-.46.38-1,.64-1.46,1-.77.71-1.51,1.46-2.23,2.22a7.62,7.62,0,0,0-1.55,1.83,9.7,9.7,0,0,0-1,3.27,10.27,10.27,0,0,1-1,4A8.85,8.85,0,0,1,19,106.73c-1.35,1.43-1.46,3.23-1.77,5-.2,1.18-.35,2.38-.52,3.57,0,0,0,.08,0,.12a28.76,28.76,0,0,0-.83,3.74,22.71,22.71,0,0,0,.38,2.66c.05,1.72.43,3.53-.82,5.06a.68.68,0,0,0,.05.66,11.62,11.62,0,0,0,1.23,1.2,31.6,31.6,0,0,0,2.84,2.35,14.77,14.77,0,0,0,3.36,1.76,20,20,0,0,0,3.56.58c1.18.17,2.39.27,3.55.53.76.18,1.45.76,2.21.87,2.47.33,5-.34,7.48.46.68.22,1.57-.32,2.37-.33.64,0,1.29.38,1.92.34,2-.11,3.92.31,5.94-.33a23.57,23.57,0,0,1,5.42-.57c1-.07,2.09,0,3.13,0,.86,0,1.73,0,2.59,0,.32,0,.63.26.94.26s.63-.25,1-.27c2.47-.19,5-.34,7.44-.51a1.47,1.47,0,0,0,.28-.08l2.4-.87a4.18,4.18,0,0,0,.61-.27c.7-.39,1.38-.81,2.09-1.18a7.15,7.15,0,0,0,1.71-.83,20.57,20.57,0,0,0,2.43-2.85,4.29,4.29,0,0,0,.94-2.16c0-2.16.19-4.32.08-6.49-.09-1.6,0-3.21-.06-4.82a2.32,2.32,0,0,0,0-.53c-.29-1.19-.65-2.36-.86-3.56A13.07,13.07,0,0,1,80,108.07Z" transform="translate(0.22 0)"/><path d="M125.44,85.69c0,2.17.06,4.35,0,6.52s-.27,4.52-.45,6.78a35.82,35.82,0,0,1-.45,3.73,19.1,19.1,0,0,1-.74,2.41c-.16.5-.35,1-.49,1.5-.18.67-.28,1.37-.52,2a12.81,12.81,0,0,1-.79,1.45c-.3.6-.57,1.21-.87,1.81-.38.78-.8,1.54-1.19,2.32s-.64,1.37-1,2-.65,1.2-1,1.77c-.53.82-1.08,1.62-1.63,2.42-.38.55-.77,1.09-1.18,1.61a18.78,18.78,0,0,1-1.83,2.22,10.1,10.1,0,0,1-1.9,1.22c-.66.38-1.35.71-2,1.07-.08,0-.13.16-.2.17-.87.17-1.76.3-2.62.5-3.25.77-6.55.27-9.82.47-.3,0-.58.69-.83,1.08-.48.75-.88,1.55-1.41,2.26s-1.4,1.64-2.09,2.46c-.47.56-.86,1.19-1.35,1.72-1,1.06-2.23.95-2.85-.29-.13-.26.15-.83.38-1.15.79-1.13,1.66-2.21,2.47-3.32s1.41-2,2.07-3a4.8,4.8,0,0,0,.86-1.76c.05-.32-.55-.74-.89-1.09a44.44,44.44,0,0,1-3.2-3.24,19.48,19.48,0,0,1-2.22-3.56,23.16,23.16,0,0,1-1-2.91c-.38-1.06-.84-2.09-1.19-3.16a22.35,22.35,0,0,1-.53-2.29l-.36-1.63c0-.07,0-.17,0-.21.69-1.18-.39-2.33,0-3.5.27-.91.53-1.84.8-2.75s.58-2,.94-3,.78-1.77,1.16-2.65c.2-.48.36-1,.58-1.43.42-.9.85-1.79,1.32-2.66s1.11-1.93,1.64-2.91.92-1.81,1.44-2.68a15.64,15.64,0,0,1,1.37-2c.77-1,1.68-1.82,2.39-2.82a27.4,27.4,0,0,0,1.43-2.68c.29-.51.68-1,1-1.48.41-.7.77-1.43,1.18-2.14s.77-1.23,1.12-1.86.67-1.34,1-2,.74-1.26,1.12-1.89c.2-.34.41-.67.58-1,.59-1.15,1.2-2.29,1.73-3.46.37-.83.6-1.72,1-2.55s.81-1.43,1.16-2.17c.24-.51.32-1.09.56-1.6.5-1.08,1.07-2.12,1.58-3.19.24-.5.35-1,.58-1.54.36-.79.8-1.55,1.16-2.35a12.61,12.61,0,0,0,1-2.38c.23-1,1-2.09,1.68-1.89a2.17,2.17,0,0,1,1,1c.5.86.9,1.79,1.37,2.67.37.71.8,1.38,1.16,2.09s.67,1.45,1,2.18.81,1.72,1.18,2.59c.21.47.35,1,.53,1.46s.29.76.45,1.14l1.18,2.64a1.51,1.51,0,0,1,.1.3c.28.95.58,1.9.84,2.86.19.72.32,1.46.49,2.19.27,1.14.56,2.27.82,3.41.18.77.37,1.53.49,2.31.18,1.22.34,2.44.45,3.67.23,2.67.41,5.35.62,8ZM110.63,96.75c.68-.47,1.4-.9,2-1.43,1.09-.91,2.12-1.9,3.22-2.81.15-.13.49,0,.75,0,0,.24.07.59-.06.73-.61.64-1.32,1.19-1.92,1.85-1.37,1.52-2.69,3.08-4,4.63-.12.14-.31.23-.39.39-.34.6-.62,1.24-1,1.82-.19.31-.61.49-.75.81-.34.8-.56,1.65-.88,2.47-.4,1-.86,2-1.29,3-.17.41-.31.83-.47,1.24-.34.82-.66,1.65-1,2.46s-.77,1.53-1.15,2.3c-.27.56-.52,1.13-.76,1.71a1.84,1.84,0,0,0-.07.67.37.37,0,0,0,.27.07l3.52-1.21c1.27-.45,2.54-.9,3.79-1.38a2,2,0,0,0,1-.56c.63-.94,1.51-.74,2.37-.66,0,0,.15.35.1.39-.33.28-.7.5-1,.78a13.3,13.3,0,0,1-1.62,1.41,15,15,0,0,1-2.28,1c-1,.41-2,.86-3.07,1.19-.77.25-1.59.33-2.39.51-.1,0-.16.17-.25.25-.83.77-1.68,1.53-2.48,2.33a10.38,10.38,0,0,0-1.4,1.64,13.46,13.46,0,0,0-1.19,2.33,3.06,3.06,0,0,0,0,1.16c.72-.36,1.38,1,2.13.08,0,0,.18.06.28.1s.44.28.64.25a11.3,11.3,0,0,1,1.56-.36,10.4,10.4,0,0,0,4.86-.9,10.43,10.43,0,0,0,1.46-.5,9.29,9.29,0,0,0,2.86-2.36c0-.08.18-.1.26-.17s.37-.37.57-.55.26-.21.38-.32a17.48,17.48,0,0,0,1.7-1.63c.57-.7,1-1.52,1.5-2.28.36-.54.8-1,1.12-1.6s.66-1.46,1-2.18c.66-1.3,1.46-2.55,2-3.9a28.87,28.87,0,0,0,1-3.71c0-.1.09-.19.13-.29.24-.62.49-1.23.7-1.85a4.48,4.48,0,0,0,.09-.64c.25-1.39.56-2.76.73-4.15a6.62,6.62,0,0,1,0-1.18,22.11,22.11,0,0,0,.47-3.55c.17-2.66.41-5.33.4-8a35.3,35.3,0,0,0-.25-6.8c-.39-2-.25-4-1-6-.35-1-.59-2-.85-3q-.48-1.81-.9-3.63c-.18-.8-.3-1.62-.49-2.41a8.93,8.93,0,0,0-.49-1.43c-.39-1-.8-1.92-1.2-2.87s-.64-1.63-1-2.42-.78-1.4-1.14-2.12c-.5-1-1-2.06-1.44-3.1s-.8-1.83-1.24-2.73a4.63,4.63,0,0,0-.59-.75c-.08.19-.15.39-.25.58-.18.37-.39.72-.58,1.09-.37.69-.78,1.37-1.1,2.09s-.62,1.71-1,2.55c-.54,1.29-1.11,2.57-1.69,3.84-.19.41-.49.77-.69,1.18s-.39,1-.58,1.46c-.35.91-.66,1.84-1,2.73s-.75,1.57-1.15,2.34-.79,1.43-1.18,2.14-.68,1.21-1,1.83-.63,1.32-1,2-.81,1.36-1.2,2c-.19.35-.36.71-.54,1.06-.39.75-.79,1.5-1.17,2.26-.28.57-.49,1.19-.79,1.75s-.64,1-.91,1.46C97,82.5,96.4,83.7,95.77,84.89a5,5,0,0,1-.57.91c-.32.4-.88.69-1,1.14-.39,1.24-1.78,1.77-2,3.23-.15,1-1,1.93-1.58,2.89-.21.35-.39.71-.58,1.07-.37.74-.78,1.46-1.11,2.22-.22.51-.31,1.08-.52,1.61a28.58,28.58,0,0,0-1.18,3,12.72,12.72,0,0,0-.44,3.41c.07,2.38-.47,4.79.34,7.16a19,19,0,0,1,.5,2.73.5.5,0,0,0,.08.2c.39.69.79,1.38,1.18,2.08a15.85,15.85,0,0,0,1.46,2.66,41.76,41.76,0,0,0,3.2,3.18c.31.3.82.51,1,.88a.72.72,0,0,0,1.16.37,21.91,21.91,0,0,0,1.88-2.88,1,1,0,0,0-.16-.85c-.3-.42-.78-.72-1.05-1.15-.53-.88-1-1.8-1.45-2.72-.57-1.15-1.15-2.3-1.61-3.49a15.91,15.91,0,0,1-.85-3.09c-.26-1.58-.36-3.17-.53-4.75a2.47,2.47,0,0,1-.09-.52c0-.28.06-.66.24-.82s.72,0,.75.11a11.77,11.77,0,0,1,.44,2c.09.66,0,1.35.15,2a15.37,15.37,0,0,0,.72,1.92c.31.8.6,1.6.92,2.38.08.19.3.3.38.48.34.72.59,1.49,1,2.17.67,1.16,1.4,2.28,2.15,3.38a.74.74,0,0,0,.7.07,3.62,3.62,0,0,0,.5-1c.33-.74.65-1.49,1-2.23,0,0,.06,0,.08-.08.52-.82,1.08-1.62,1.54-2.47s.65-1.5,1-2.22a7.65,7.65,0,0,0,1.25-3.19c0-.45.53-.87.65-1.35a15,15,0,0,0,.54-2.81,4.3,4.3,0,0,0-.4-1.51,12.09,12.09,0,0,0-.55-1.67c-.5-1.06-1.08-2.09-1.61-3.14-.34-.69-.68-1.38-1-2.08q-.61-1.39-1.17-2.82c-.2-.49-.35-1-.53-1.5-.09-.25-.19-.51-.29-.77a2.15,2.15,0,0,1,.84-.16c.19,0,.34.34.46.56s.33.75.53,1.1c.37.68.79,1.34,1.16,2,.47.86.89,1.75,1.34,2.62.33.64.69,1.26,1,1.89.25.46.49.92.72,1.39s.34.76.53,1.13c0,0,.24,0,.25-.11.31-1,.65-2.06.88-3.11s.34-2.08.5-3.12a1.83,1.83,0,0,1,.07-.32c.25-1,.57-1.92.74-2.9.13-.76,0-1.57.14-2.33a21.31,21.31,0,0,0,.71-3c0-1.47-.29-3-.34-4.43a5.07,5.07,0,0,0-.86-2.88c-.76-1.07-1.4-2.22-2.07-3.34a1,1,0,0,1-.12-.66c0-.08.38-.22.48-.16a6.43,6.43,0,0,1,1.08.87,10.72,10.72,0,0,1,1.44,1.65,18.74,18.74,0,0,1,1,2.17c.1.23.22.45.34.67s.11.16.16.24.17-.09.19-.15c.15-.7.35-1.4.44-2.11.17-1.37.31-2.74.43-4.11.16-1.8.22-3.62.47-5.41.18-1.28-.61-2.17-1-3.24-.11-.36-.43-.66-.55-1a8.55,8.55,0,0,1-.18-1.25,4.07,4.07,0,0,1,.92.35c.17.11.24.39.36.6s.12.16.18.24.18-.13.2-.21c.15-.86.27-1.73.44-2.59a2.27,2.27,0,0,1,.36-.64c.18.23.5.44.51.68.06,1.17,0,2.35,0,3.53a2.63,2.63,0,0,0,.15.53c.1-.11.19-.22.3-.32a6.06,6.06,0,0,1,.78-.66.61.61,0,0,1,.53,0c.95.54,0,.76-.23,1.05-.46.74-1.38,1.38-1.47,2.14-.32,2.68-.36,5.39-.52,8.08,0,.16,0,.33,0,.49-.13.8-.26,1.6-.37,2.41,0,.09.08.21.15.3s.14,0,.18-.06a4.74,4.74,0,0,1,.5-.58c.68-.52,1.32-1.17,2.29-1,.11,0,.31.34.28.37-.62.75-1.23,1.51-1.91,2.21s-1.24,1.18-1.09,2.17c0,.12-.09.26-.13.4-.24.67-.51,1.33-.71,2a9.06,9.06,0,0,0-.07.91c-.26,1.28-.57,2.54-.8,3.82s-.33,2.31-.49,3.46c0,.05,0,.1,0,.16a24.42,24.42,0,0,0-.75,2.79,18.75,18.75,0,0,0,0,2.6l-.39.24.13.14Z" transform="translate(0.22 0)"/><path d="M22.32,23.88c.4-.14.79-.31,1.2-.41a31.33,31.33,0,0,1,3.69-.86,24.09,24.09,0,0,1,3.18,0,.94.94,0,0,0,.28-.06,5.41,5.41,0,0,1,4.07.09,1.8,1.8,0,0,0,1.08.07,3.6,3.6,0,0,1,2.62.51c1.08.63,2.09,1.38,3.11,2.1A24.38,24.38,0,0,1,43.6,26.9a14.65,14.65,0,0,1,1.8,1.81c.12.16,0,.5.32.77a8,8,0,0,1,1,1.49c.47.66,1,1.3,1.44,2,.34.5.62,1.05,1,1.52s.64.52.89.83.88.1.52.72a1.42,1.42,0,0,0,.55.41,13.72,13.72,0,0,0,2.28.45c.83.06,1.68-.06,2.52-.06s2,.08,2.94.1c.45,0,.91-.06,1.36,0s1.08-.21.8.69c0,.1.28.44.44.44.83,0,1.67,0,2.51-.1.61,0,1.21-.15,1.82-.19.82-.06,1.65-.09,2.48-.13h.09c.86-.16,1.71-.37,2.57-.46a13.15,13.15,0,0,1,1.88,0,1.08,1.08,0,0,0,.18,0c1.22-.29,2.43-.59,3.66-.86q1.42-.31,2.88-.57c.57-.1,1.15-.13,1.72-.23.88-.15,1.75-.37,2.63-.51,1.3-.21,2.6-.4,3.91-.57,1-.13,2.09-.22,3.13-.3A22.8,22.8,0,0,1,93.65,34a22.54,22.54,0,0,1,3.28.36,18.06,18.06,0,0,1,2.22.74,10.06,10.06,0,0,1,2,.74,6.19,6.19,0,0,1,1.92,1.71,18.81,18.81,0,0,1,1.55,3.19,5.45,5.45,0,0,1,.07,3.39c-.17.75-.25,1.52-.47,2.25a12.83,12.83,0,0,1-1.07,2.87,8.87,8.87,0,0,1-1.83,2,3.83,3.83,0,0,1-1.38.83,25.47,25.47,0,0,1-3.14.7c-1,.17-2.09.24-3.14.32s-1.85.12-2.78.17-1.72,0-2.58.12c-.66.06-1.3.23-2,.27s-1.36,0-2,0a2.34,2.34,0,0,0-.5.14c-1,.19-1.92.41-2.9.56s-2.19.23-3.27.4c-.22,0-.38.34-.59.48a1.55,1.55,0,0,1-.61.25,8.07,8.07,0,0,1-.85,0l-2.13,0h-.19c-.91.18-1.82.41-2.75.53a9.29,9.29,0,0,1-1.66-.09,1.23,1.23,0,0,0-.19,0c-.87.16-1.75.37-2.63.48-.72.08-1.45,0-2.16.08a4.67,4.67,0,0,0-1.27.54,3,3,0,0,1-.59.31c-.32.06-.67,0-1,.06-1.36.31-2.71.65-4.07,1a19.61,19.61,0,0,0-3.52.94,3.39,3.39,0,0,0-1.73,1.88A29.35,29.35,0,0,1,50,64.65a21,21,0,0,1-1.8,2.59,18.28,18.28,0,0,1-1.46,1.46c-.08.08-.13.19-.21.28q-.57.69-1.17,1.38c-.27.31-.54.63-.83.92s-.68.61-1,.9A19.33,19.33,0,0,1,42,73.42a6.81,6.81,0,0,1-1.24.53c-1.78.76-3.54,1.58-5.36,2.23A7.27,7.27,0,0,1,33,76.3a18.18,18.18,0,0,1-2.09-.13c-1-.12-1.93-.3-2.89-.46a17,17,0,0,1-1.76-.31,14.86,14.86,0,0,1-2.36-.79,5.87,5.87,0,0,1-1.27-1c-.51-.42-1-.83-1.5-1.28a5.57,5.57,0,0,1-.89-1c-.45-.76-.85-1.54-1.26-2.32a16.93,16.93,0,0,1-1.2-2.46,18.7,18.7,0,0,1-.8-3.48,6.68,6.68,0,0,1,.31-2.1,19.72,19.72,0,0,1,.77-2.83,7.67,7.67,0,0,1,1.14-1.74c.72-1,1.44-1.9,2.24-2.79a22.41,22.41,0,0,1,2.08-1.93c.57-.49,1.2-.93,1.8-1.4a.43.43,0,0,0,.12-.22s-.11-.1-.17-.1a8.48,8.48,0,0,1-3.72-1.25A25,25,0,0,1,18.66,47a5.7,5.7,0,0,1-1.42-1.35A19.81,19.81,0,0,0,16,43.57c-1.08-1.18-1.13-2.75-1.8-4.07-.11-.23-.48-.37-.52-.59-.22-1.19-.39-2.4-.57-3.6a1.6,1.6,0,0,1-.09-.41,20.9,20.9,0,0,1,.17-2.24A6.71,6.71,0,0,1,13.77,31a14.56,14.56,0,0,1,.88-1.33,9.55,9.55,0,0,1,.58-1A12.26,12.26,0,0,1,16.79,27c.5-.42,1.13-.66,1.67-1a17.53,17.53,0,0,1,1.72-1.29,17.17,17.17,0,0,1,2.15-.78Zm1.08,1.26L23.32,25c-1.26.63-2.54,1.25-3.79,1.9a8.15,8.15,0,0,0-1.63,1,4.89,4.89,0,0,0-1.2,1.44,30.25,30.25,0,0,0-1.26,3.06,14.12,14.12,0,0,0-.61,2,4.74,4.74,0,0,0,0,1.19A8.92,8.92,0,0,0,15,37.91a26.56,26.56,0,0,0,1.51,3.31c.43.9.9,1.78,1.36,2.67,0,.06.11.09.16.15l1,1a8,8,0,0,0,1.41,1.32c1,.62,2.15,1.13,3.24,1.65a13,13,0,0,0,1.71.64c.44.14.92.14,1.36.26s.78.42,1.16.41A31,31,0,0,0,31.09,49c.73-.08,1.45-.23,2.18-.36s1.56-.28,2.34-.42L38,47.82h.14l2.63-.18a7,7,0,0,1,.77-.16c1,0,1.9.1,2.85.07.7,0,1.39-.19,2.09-.28a2.48,2.48,0,0,1,.27,0,13,13,0,0,0,1.65,0c.84-.09,1.66-.32,2.49-.39.55,0,1.12.17,1.67.11.9-.09,1.78-.34,2.68-.47a8.05,8.05,0,0,1,1.2,0h2a5.76,5.76,0,0,0,.93,0c.21,0,.54-.18.56-.32A5.21,5.21,0,0,0,60,45c0-.81-.06-1.62-.12-2.43,0-.6-.14-1.19-.17-1.79,0-.44.06-.89,0-1.33a4.69,4.69,0,0,0-.26-1.29c0-.07-.51,0-.78,0s-.34.09-.51.1l-3.37.05h-.28c-.62,0-1.25,0-1.87,0s-1.07.07-1.6.09c-.08,0-.16-.09-.22-.15-.46-.4-.94-.78-1.36-1.21-.61-.64-1.2-1.3-1.76-2a16.38,16.38,0,0,1-.94-1.36c-.5-.73-1-1.44-1.49-2.19s-.84-1.53-1.26-2.31L44,29.18c-.77-.76-1.49-1.58-2.31-2.28a14.07,14.07,0,0,0-2.45-1.76,13,13,0,0,0-2.6-1,10.82,10.82,0,0,0-2.34-.41,26.84,26.84,0,0,0-2.69.07c-.85,0-1.69.08-2.53.13a2.48,2.48,0,0,0-.27,0,11.73,11.73,0,0,0-2.31.12A29.22,29.22,0,0,0,23.4,25.14ZM76.72,37.45c-.46.3-1.14.66-1.74,1.12-.43.33-.76.79-1.17,1.16s-.7.51-1,.81c-.57.55-1.12,1.13-1.66,1.72-.26.28-.47.61-.74.89-.45.48-.92,1-1.41,1.41s-1.22,1-1.82,1.53-1.27,1.19-1.9,1.79c-.46.43-.92.87-1.37,1.32-.15.15-.26.35-.42.49a11,11,0,0,0-1.06.85,1.3,1.3,0,0,0-.2.83c.08.78.24,1.55.35,2.32,0,.1-.1.22-.07.31.12.46.22,1.27.41,1.3a11.36,11.36,0,0,0,2.67,0c.9-.1,1.79-.32,2.68-.48a1.21,1.21,0,0,1,.19,0,8.29,8.29,0,0,0,1.64.09c1-.14,2-.39,3-.59a1.12,1.12,0,0,1,.32,0,6.58,6.58,0,0,0,2.19-.13,8.44,8.44,0,0,0,2-1.56,3.67,3.67,0,0,0,.55-.87c.11-.17.18-.47.31-.49a20.39,20.39,0,0,1,2-.28c.85-.07,1.7-.08,2.54-.18s1.6-.26,2.4-.4h.14l2.16,0c.15,0,.3-.08.46-.09.82-.05,1.66-.05,2.48-.15s1.84-.35,2.76-.53a1.76,1.76,0,0,1,.23,0,16.67,16.67,0,0,0,1.87,0c.77-.08,1.53-.3,2.3-.4,1-.13,2.08-.18,3.12-.3a2.69,2.69,0,0,0,2.09-2.08c.15-1.14.39-2.28.45-3.42a11.32,11.32,0,0,0-.22-2.72,4.24,4.24,0,0,0-.76-1.2,16.38,16.38,0,0,0-.94-1.36,5.52,5.52,0,0,0-.85-.66c-.62-.48-1.21-1-1.86-1.43a4.14,4.14,0,0,0-1.36-.55c-.67-.14-1.36-.16-2-.25A6.09,6.09,0,0,0,94.26,35c-.8.06-1.58.23-2.37.36l-.14,0-2.66.19c-.22,0-.44,0-.66,0a7.68,7.68,0,0,0-1.44,0c-.6.11-1.16.42-1.75.51-1,.16-1.95.18-2.92.31-.8.11-1.6.3-2.4.45Zm-56.59,31a4,4,0,0,0,1.63,2.73c1,.7,1.85,1.63,2.88,2.27a10.53,10.53,0,0,0,2.48.86,7.71,7.71,0,0,0,1,.17c.68.11,1.37.25,2.06.31.49,0,1,0,1.5,0a8.87,8.87,0,0,0,2.86,0c2.21-.74,4.33-1.73,6.49-2.62l.08,0c.75-.51,1.51-1,2.25-1.54a7.19,7.19,0,0,0,1-.93c.42-.46.82-1,1.22-1.43.27-.31.52-.63.78-.95l1-1.23a15.66,15.66,0,0,0,1.14-1.44c.42-.67.7-1.42,1.11-2.1.52-.85,1.1-1.67,1.68-2.48.37-.52.47-1.2,1.27-1.42,2.52-.68,4.84-2,7.52-2.21a11.15,11.15,0,0,0,1.15-.1c.07,0,.18-.19.18-.29a13.38,13.38,0,0,0-.11-1.41c-.12-.85-.27-1.69-.43-2.54s-.34-1.75-.5-2.63c0-.1.1-.22.07-.3-.15-.46-.27-1.28-.5-1.31a17.53,17.53,0,0,0-3.24-.09c-1,0-2,.16-3.07.25a20.74,20.74,0,0,0-3.06.31,9.67,9.67,0,0,1-2.73.15,26.2,26.2,0,0,0-3,.21.82.82,0,0,1-.22,0c-.54,0-1.08-.11-1.62-.09s-1.17.14-1.75.21c-1.18.15-2.36.26-3.53.44-.91.13-1.81.33-2.71.5l-.18,0-2.68.21a3.62,3.62,0,0,1-.46.06,7.69,7.69,0,0,0-2.1.09,16.44,16.44,0,0,0-2.95,1.37A22.29,22.29,0,0,0,23.9,53.2a9.89,9.89,0,0,0-1.43,1.39c-.58.66-1.13,1.33-1.66,2a18.43,18.43,0,0,0-1.39,2,8,8,0,0,0-.61,1.61,5.88,5.88,0,0,0-.5,1.91,23.07,23.07,0,0,0,.56,2.94A11.48,11.48,0,0,0,19.22,67,7.94,7.94,0,0,0,20.13,68.46Zm41.15-24.3a3.71,3.71,0,0,0,.79.74c.92.5,1.87,1,2.83,1.38.27.12.7.26.87.13a8.73,8.73,0,0,0,1.3-1.28c.46-.5.86-1.05,1.34-1.53.68-.67,1.41-1.28,2.11-1.93.26-.23.51-.49.78-.71s.78-.57,1.14-.89c.66-.58,1.31-1.2,2-1.8a2.15,2.15,0,0,0,.18-.24c-.07,0-.14-.09-.19-.08l-2.13.32-2.05.28a.27.27,0,0,1-.09,0,19.62,19.62,0,0,0-2,0c-.91.11-1.8.32-2.7.49H65.2c-.83.06-1.65.11-2.48.15a8.38,8.38,0,0,0-.87,0c-.22,0-.57.2-.59.33a19.88,19.88,0,0,0-.08,2,3.44,3.44,0,0,0,0,.46C61.23,42.74,61.25,43.44,61.28,44.16ZM99.59,51l0-.09c.44-.15.9-.29,1.32-.48a.33.33,0,0,0-.21-.63c-.81.11-1.62.26-2.43.39h-.14c-.83.05-1.66.05-2.48.16s-1.84.35-2.76.53h-.09c-.84,0-1.68,0-2.51.15s-1.77.34-2.66.48c-.45.07-.91.05-1.37.08-.88.06-1.77.07-2.65.19s-1.93.37-2.89.56h-.14a15.11,15.11,0,0,0-1.78.34c-.16.05-.23.4-.33.62a.34.34,0,0,0,.2.11c.82-.13,1.64-.28,2.46-.43.17,0,.35-.14.5-.11a5.85,5.85,0,0,0,3.1-.33,1.37,1.37,0,0,1,.45-.07c.67,0,1.34,0,2,0,.33,0,.65-.23,1-.26.86-.08,1.72-.11,2.59-.16A1.6,1.6,0,0,1,91,52a7.63,7.63,0,0,0,2,0,13.71,13.71,0,0,1,3.65-.48A19.91,19.91,0,0,0,99.59,51Zm-37.31-1.9c.12,0,.4,0,.56-.11.58-.42,1.12-.89,1.68-1.34l.2-.22a1.64,1.64,0,0,0-.22-.14c-.69-.32-1.37-.66-2.08-.94a7,7,0,0,0-1.12-.25c.16.24.34.46.49.71a1.67,1.67,0,0,1,.21.52C62.1,47.88,62.17,48.4,62.28,49.13Z" transform="translate(0.22 0)"/><path d="M80,108.07a13.07,13.07,0,0,0,0,2.17c.21,1.2.57,2.37.86,3.56a2.32,2.32,0,0,1,0,.53c0,1.61,0,3.22.06,4.82.11,2.17-.06,4.33-.08,6.49a4.29,4.29,0,0,1-.94,2.16,20.57,20.57,0,0,1-2.43,2.85,7.15,7.15,0,0,1-1.71.83c-.71.37-1.39.79-2.09,1.18a4.18,4.18,0,0,1-.61.27l-2.4.87a1.47,1.47,0,0,1-.28.08c-2.48.17-5,.32-7.44.51-.33,0-.64.26-1,.27s-.62-.24-.94-.26c-.86,0-1.73,0-2.59,0-1,0-2.09-.07-3.13,0a23.57,23.57,0,0,0-5.42.57c-2,.64-4,.22-5.94.33-.63,0-1.28-.36-1.92-.34-.8,0-1.69.55-2.37.33-2.48-.8-5-.13-7.48-.46-.76-.11-1.45-.69-2.21-.87-1.16-.26-2.37-.36-3.55-.53a20,20,0,0,1-3.56-.58,14.77,14.77,0,0,1-3.36-1.76,31.6,31.6,0,0,1-2.84-2.35,11.62,11.62,0,0,1-1.23-1.2.68.68,0,0,1-.05-.66c1.25-1.53.87-3.34.82-5.06a22.71,22.71,0,0,1-.38-2.66,28.76,28.76,0,0,1,.83-3.74s0-.08,0-.12c.17-1.19.32-2.39.52-3.57.31-1.75.42-3.55,1.77-5a8.85,8.85,0,0,0,1.13-2.33,10.27,10.27,0,0,0,1-4,9.7,9.7,0,0,1,1-3.27A7.62,7.62,0,0,1,23.7,95.3c.72-.76,1.46-1.51,2.23-2.22.44-.4,1-.66,1.46-1,1.06-.9,2.12-1.77,3.64-1.58.26,0,.5.3.75.32a8.1,8.1,0,0,0,1.39-.07c.17,0,.34-.21.51-.21,1,0,1.09-.22,1.45-1.52a9.09,9.09,0,0,1,1.31-2.43,24.48,24.48,0,0,1,2-2.62c.68-.77,1.49-1.43,2.2-2.18.25-.26.31-.73.58-.92.75-.55,1.61-1,2.35-1.5,1.07-.82,2-1.74,3.11-2.57s2-1.54,3.1-2.24a8.61,8.61,0,0,1,2.34-1.23,7,7,0,0,1,2.27.12c.17,0,.33.17.49.16,1.44-.18,2.36.72,3.32,1.56s2,2,3.18,2.79a36.54,36.54,0,0,0,3.77,2.35,13.68,13.68,0,0,0,1.71.56c.55.22,1,.54,1.58.8.15.07.35.06.49.15.32.2.62.43.93.66s.71.52,1.07.76c1,.66,1,1.78,1.3,2.73a6.84,6.84,0,0,0,2.12,3.18,10.77,10.77,0,0,1,2.23,3.1,9.24,9.24,0,0,1,1,4.41,4.5,4.5,0,0,0,.61,1.53,10.42,10.42,0,0,1,.79,1.91c.25,1.34.34,2.71.53,4s.43,2.62.64,3.93ZM30.76,97.72l-1-.59,1-.38a3.34,3.34,0,0,0,1-.42,4.9,4.9,0,0,0,.68-1c.55-.9,1.11-1.79,1.63-2.7a.57.57,0,0,0-.1-.54.92.92,0,0,0-.62,0c-.62.12-1.22.29-1.83.41-1,.19-2,.34-2.93.52a.26.26,0,0,0-.19.12c-.26.82-1.62.6-1.62,1.69,0,0-.22,0-.32.09s-.45.16-.55.32a11.56,11.56,0,0,1-1.55,2.39,2.73,2.73,0,0,0-.86,2.57h0c-.15.21-.42.41-.43.62-.05,1,0,2-.05,3a2,2,0,0,1-.12.64c-.27.81-.52,1.62-.85,2.41a1.48,1.48,0,0,1-.64.62c-.16.1-.51-.09-.63,0a13.13,13.13,0,0,0-1.07,1.16,5.56,5.56,0,0,1,.82.25,1.18,1.18,0,0,1,.52.44c.06.1-.11.48-.16.48a10.82,10.82,0,0,1-1.27-.2c-.1,0-.18-.12-.28-.13s-.12.15-.13.23c-.17,1.68-.35,3.35-.51,5,0,.32,0,.65,0,1a1.32,1.32,0,0,1-.17.41c-.26.6-.76,1.2-.74,1.78.07,2.52.46,5,.39,7.55a5.78,5.78,0,0,0,1.14,3.08c1.05,2,3.28,2.34,5.11,2.9s4.16.42,6.25.59a4.41,4.41,0,0,1,.89.1,18.47,18.47,0,0,0,2.62.83c2.2.32,4.41-.18,6.67.41a33.6,33.6,0,0,0,6.76.55c.45,0,.9-.34,1.37-.39,1.88-.21,3.77-.43,5.66-.52s3.82.07,5.72,0c3.28-.2,6.66.71,9.84-.88a24.51,24.51,0,0,1,3.23-1.09,5.14,5.14,0,0,0,1.11-.53c.59-.4,1.1-1.05,1.74-1.22,1.56-.42,1.58-1.87,2.2-2.91a2.14,2.14,0,0,0,.42-1.09c-.15-4.15.43-8.31-.36-12.46a67.56,67.56,0,0,1-.54-6.84c-.12-1.46-.31-2.91-.54-4.35a8.54,8.54,0,0,0-.59-1.72,14,14,0,0,1-.81-2.08c-.25-1.3-.35-2.63-.53-4,0-.13-.16-.25-.25-.37-.54-.79-1.07-1.59-1.64-2.35a4.26,4.26,0,0,0-1.25-1.4,2.73,2.73,0,0,1-1.73-2.49,8.1,8.1,0,0,0-1.22-2.89c-.17-.31-.76-.35-1-.64a4.24,4.24,0,0,0-3.07-1.31,4.55,4.55,0,0,1-1.81-.77c-.89-.5-1.71-1.11-2.6-1.61-.49-.27-1.15-.27-1.57-.61-1.24-1-2.37-2.08-3.58-3.09a25.24,25.24,0,0,0-2.14-1.54c-.13-.09-.39,0-.58,0-.47.12-.94.25-1.4.41a5.45,5.45,0,0,0-1.58.67c-1.26,1-2.42,2.14-3.68,3.15-.43.34-1.11.37-1.55.71-.67.5-1.2,1.17-1.84,1.72-.33.29-.82.42-1.12.73-.5.52-.88,1.16-1.36,1.7a25.66,25.66,0,0,0-2,2.2c-.5.73-.63,1.72-1.15,2.43-.91,1.24-.9,2.71-1.31,4.07-.18.56.24,1.4-.82,1.48-.05,0-.09.16-.14.24a14.47,14.47,0,0,1-1.32,2.09c-1.13,1.28-2.34,2.49-3.56,3.69-.15.15-.53.06-.81.07,0-.29-.08-.65.06-.85a17.47,17.47,0,0,1,1.25-1.48l.41-.24L31,97.29Z" transform="translate(0.22 0)"/><path class="cls-1" d="M110.64,96.76a18.75,18.75,0,0,1,0-2.6,24.42,24.42,0,0,1,.75-2.79c0-.06,0-.11,0-.16.16-1.15.28-2.31.49-3.46s.54-2.54.8-3.82a9.06,9.06,0,0,1,.07-.91c.2-.68.47-1.34.71-2,0-.14.15-.28.13-.4-.15-1,.5-1.55,1.09-2.17s1.29-1.46,1.91-2.21c0,0-.17-.36-.28-.37-1-.13-1.61.52-2.29,1a4.74,4.74,0,0,0-.5.58s-.17.08-.18.06-.17-.21-.15-.3c.11-.81.24-1.61.37-2.41,0-.16,0-.33,0-.49.16-2.69.2-5.4.52-8.08.09-.76,1-1.4,1.47-2.14.19-.29,1.18-.51.23-1.05a.61.61,0,0,0-.53,0,6.06,6.06,0,0,0-.78.66c-.11.1-.2.21-.3.32a2.63,2.63,0,0,1-.15-.53c0-1.18,0-2.36,0-3.53,0-.24-.33-.45-.51-.68a2.27,2.27,0,0,0-.36.64c-.17.86-.29,1.73-.44,2.59,0,.08-.13.14-.2.21s-.13-.16-.18-.24-.19-.49-.36-.6a4.07,4.07,0,0,0-.92-.35,8.55,8.55,0,0,0,.18,1.25c.12.35.44.65.55,1,.34,1.07,1.13,2,1,3.24-.25,1.79-.31,3.61-.47,5.41-.12,1.37-.26,2.74-.43,4.11-.09.71-.29,1.41-.44,2.11,0,.06-.13.1-.19.15s-.12-.16-.16-.24-.24-.44-.34-.67a18.74,18.74,0,0,0-1-2.17,10.72,10.72,0,0,0-1.44-1.65,6.43,6.43,0,0,0-1.08-.87c-.1-.06-.47.08-.48.16a1,1,0,0,0,.12.66c.67,1.12,1.31,2.27,2.07,3.34a5.07,5.07,0,0,1,.86,2.88c0,1.48.38,3,.34,4.43a21.31,21.31,0,0,1-.71,3c-.14.76,0,1.57-.14,2.33-.17,1-.49,1.94-.74,2.9a1.83,1.83,0,0,0-.07.32c-.16,1-.27,2.09-.5,3.12s-.57,2.08-.88,3.11c0,.06-.25.12-.25.11-.19-.37-.35-.76-.53-1.13s-.47-.93-.72-1.39c-.34-.63-.7-1.25-1-1.89-.45-.87-.87-1.76-1.34-2.62-.37-.69-.79-1.35-1.16-2-.2-.35-.34-.74-.53-1.1s-.27-.52-.46-.56a2.15,2.15,0,0,0-.84.16c.1.26.2.52.29.77.18.5.33,1,.53,1.5q.56,1.42,1.17,2.82c.31.7.65,1.39,1,2.08.53,1,1.11,2.08,1.61,3.14a12.09,12.09,0,0,1,.55,1.67,4.3,4.3,0,0,1,.4,1.51,15,15,0,0,1-.54,2.81c-.12.48-.63.9-.65,1.35a7.65,7.65,0,0,1-1.25,3.19c-.37.72-.62,1.51-1,2.22s-1,1.65-1.54,2.47c0,0-.06.05-.08.08-.32.74-.64,1.49-1,2.23a3.62,3.62,0,0,1-.5,1,.74.74,0,0,1-.7-.07c-.75-1.1-1.48-2.22-2.15-3.38-.39-.68-.64-1.45-1-2.17-.08-.18-.3-.29-.38-.48-.32-.78-.61-1.58-.92-2.38a15.37,15.37,0,0,1-.72-1.92c-.14-.64-.06-1.33-.15-2a11.77,11.77,0,0,0-.44-2c0-.12-.62-.22-.75-.11s-.2.54-.24.82a2.47,2.47,0,0,0,.09.52c.17,1.58.27,3.17.53,4.75a15.91,15.91,0,0,0,.85,3.09c.46,1.19,1,2.34,1.61,3.49.45.92.92,1.84,1.45,2.72.27.43.75.73,1.05,1.15a1,1,0,0,1,.16.85,21.91,21.91,0,0,1-1.88,2.88.72.72,0,0,1-1.16-.37c-.14-.37-.65-.58-1-.88a41.76,41.76,0,0,1-3.2-3.18,15.85,15.85,0,0,1-1.46-2.66c-.39-.7-.79-1.39-1.18-2.08a.5.5,0,0,1-.08-.2,19,19,0,0,0-.5-2.73c-.81-2.37-.27-4.78-.34-7.16a12.72,12.72,0,0,1,.44-3.41,28.58,28.58,0,0,1,1.18-3c.21-.53.3-1.1.52-1.61.33-.76.74-1.48,1.11-2.22.19-.36.37-.72.58-1.07.55-1,1.43-1.87,1.58-2.89.21-1.46,1.6-2,2-3.23.15-.45.71-.74,1-1.14a5,5,0,0,0,.57-.91c.63-1.19,1.23-2.39,1.87-3.58.27-.5.64-1,.91-1.46s.51-1.18.79-1.75c.38-.76.78-1.51,1.17-2.26.18-.35.35-.71.54-1.06.39-.68.82-1.35,1.2-2s.64-1.31,1-2,.66-1.22,1-1.83.8-1.42,1.18-2.14.81-1.54,1.15-2.34.7-1.82,1-2.73c.19-.49.36-1,.58-1.46s.5-.77.69-1.18c.58-1.27,1.15-2.55,1.69-3.84.36-.84.61-1.72,1-2.55s.73-1.4,1.1-2.09c.19-.37.4-.72.58-1.09.1-.19.17-.39.25-.58a4.63,4.63,0,0,1,.59.75c.44.9.83,1.82,1.24,2.73s.94,2.08,1.44,3.1c.36.72.8,1.4,1.14,2.12s.67,1.61,1,2.42.81,1.91,1.2,2.87a8.93,8.93,0,0,1,.49,1.43c.19.79.31,1.61.49,2.41q.42,1.81.9,3.63c.26,1,.5,2,.85,3,.72,2,.58,4,1,6a35.3,35.3,0,0,1,.25,6.8c0,2.66-.23,5.33-.4,8a22.11,22.11,0,0,1-.47,3.55,6.62,6.62,0,0,0,0,1.18c-.17,1.39-.48,2.76-.73,4.15a4.48,4.48,0,0,1-.09.64c-.21.62-.46,1.23-.7,1.85,0,.1-.1.19-.13.29a28.87,28.87,0,0,1-1,3.71c-.54,1.35-1.34,2.6-2,3.9-.36.72-.63,1.48-1,2.18s-.76,1.06-1.12,1.6c-.51.76-.93,1.58-1.5,2.28a17.48,17.48,0,0,1-1.7,1.63c-.12.11-.26.2-.38.32s-.38.37-.57.55-.21.09-.26.17a9.29,9.29,0,0,1-2.86,2.36,10.43,10.43,0,0,1-1.46.5,10.4,10.4,0,0,1-4.86.9,11.3,11.3,0,0,0-1.56.36c-.2,0-.43-.16-.64-.25s-.26-.12-.28-.1c-.75,1-1.41-.44-2.13-.08a3.06,3.06,0,0,1,0-1.16,13.46,13.46,0,0,1,1.19-2.33,10.38,10.38,0,0,1,1.4-1.64c.8-.8,1.65-1.56,2.48-2.33.09-.08.15-.23.25-.25.8-.18,1.62-.26,2.39-.51,1-.33,2-.78,3.07-1.19a15,15,0,0,0,2.28-1,13.3,13.3,0,0,0,1.62-1.41c.33-.28.7-.5,1-.78,0,0,0-.38-.1-.39-.86-.08-1.74-.28-2.37.66a2,2,0,0,1-1,.56c-1.25.48-2.52.93-3.79,1.38l-3.52,1.21a.37.37,0,0,1-.27-.07,1.84,1.84,0,0,1,.07-.67c.24-.58.49-1.15.76-1.71.38-.77.8-1.52,1.15-2.3s.69-1.64,1-2.46c.16-.41.3-.83.47-1.24.43-1,.89-2,1.29-3,.32-.82.54-1.67.88-2.47.14-.32.56-.5.75-.81.36-.58.64-1.22,1-1.82.08-.16.27-.25.39-.39,1.34-1.55,2.66-3.11,4-4.63.6-.66,1.31-1.21,1.92-1.85.13-.14,0-.49.06-.73-.26,0-.6-.11-.75,0-1.1.91-2.13,1.9-3.22,2.81-.64.53-1.36,1-2,1.43Z" transform="translate(0.22 0)"/><path class="cls-1" d="M110.63,96.75l-.25.39-.13-.14.39-.24Z" transform="translate(0.22 0)"/><path class="cls-1" d="M23.4,25.14a29.22,29.22,0,0,1,3.11-1.06A11.73,11.73,0,0,1,28.82,24a2.48,2.48,0,0,1,.27,0c.84-.05,1.68-.1,2.53-.13a26.84,26.84,0,0,1,2.69-.07,10.82,10.82,0,0,1,2.34.41,13,13,0,0,1,2.6,1A14.07,14.07,0,0,1,41.7,26.9c.82.7,1.54,1.52,2.31,2.28l.05.07c.42.78.8,1.57,1.26,2.31s1,1.46,1.49,2.19a16.38,16.38,0,0,0,.94,1.36c.56.68,1.15,1.34,1.76,2,.42.43.9.81,1.36,1.21.06.06.14.15.22.15.53,0,1.06-.08,1.6-.09s1.25,0,1.87,0h.28l3.37-.05c.17,0,.34-.08.51-.1s.75-.11.78,0a4.69,4.69,0,0,1,.26,1.29c0,.44,0,.89,0,1.33,0,.6.13,1.19.17,1.79.06.81.09,1.62.12,2.43a5.21,5.21,0,0,1,0,1.25c0,.14-.35.28-.56.32a5.76,5.76,0,0,1-.93,0h-2a8.05,8.05,0,0,0-1.2,0c-.9.13-1.78.38-2.68.47-.55.06-1.12-.15-1.67-.11-.83.07-1.65.3-2.49.39a13,13,0,0,1-1.65,0,2.48,2.48,0,0,0-.27,0c-.7.09-1.39.25-2.09.28-1,0-1.9-.06-2.85-.07a7,7,0,0,0-.77.16l-2.63.18H38l-2.43.42c-.78.14-1.56.29-2.34.42s-1.45.28-2.18.36a31,31,0,0,1-3.19.28c-.38,0-.76-.31-1.16-.41s-.92-.12-1.36-.26A13,13,0,0,1,23.67,48c-1.09-.52-2.2-1-3.24-1.65A8,8,0,0,1,19,45l-1-1c-.05-.06-.13-.09-.16-.15-.46-.89-.93-1.77-1.36-2.67A26.56,26.56,0,0,1,15,37.91a8.92,8.92,0,0,1-.16-2.38,4.74,4.74,0,0,1,0-1.19,14.12,14.12,0,0,1,.61-2A30.25,30.25,0,0,1,16.7,29.3a4.89,4.89,0,0,1,1.2-1.44,8.15,8.15,0,0,1,1.63-1c1.25-.65,2.53-1.27,3.79-1.9ZM41.32,35.5c-.35-.48-.73-.93-1-1.44-.44-.72-.84-1.46-1.22-2.22a3.13,3.13,0,0,0-2.19-2,1,1,0,0,1-.58-.32c-.76-.91-1.9-.85-2.89-1.15-.33-.1-.74,0-1-.11-.68-.3-1.31-.77-2.12-.42,0,0-.08-.05-.12-.05-.51-.05-1-.1-1.51-.12-.14,0-.27.08-.41.09-1.05.13-2.12.18-3.15.39-.44.09-.81.51-1.22.77s-1.07.64-1.57,1a2,2,0,0,0-.69.73c-.48,1.13-.81,2.34-1.37,3.43s.08,2.15.14,3.21a5.68,5.68,0,0,0,1.12,2.18,5,5,0,0,0,.87,1.12,9.52,9.52,0,0,0,1.35.93A16.93,16.93,0,0,0,26,42.87a15.44,15.44,0,0,0,2.71.72,23.67,23.67,0,0,0,2.39.32c.45.05.91,0,1.36.06s1,.27,1.36.12c1.56-.63,3.37-.69,4.65-2A13.76,13.76,0,0,0,40.6,40,5.14,5.14,0,0,0,41.32,35.5Z" transform="translate(0.22 0)"/><path class="cls-1" d="M76.72,37.45l3.2-.65c.8-.15,1.6-.34,2.4-.45,1-.13,2-.15,2.92-.31.59-.09,1.15-.4,1.75-.51a7.68,7.68,0,0,1,1.44,0c.22,0,.44,0,.66,0l2.66-.19.14,0c.79-.13,1.57-.3,2.37-.36a6.09,6.09,0,0,1,1.24.18c.68.09,1.37.11,2,.25A4.14,4.14,0,0,1,98.9,36c.65.43,1.24,1,1.86,1.43a5.52,5.52,0,0,1,.85.66,16.38,16.38,0,0,1,.94,1.36,4.24,4.24,0,0,1,.76,1.2,11.32,11.32,0,0,1,.22,2.72c-.06,1.14-.3,2.28-.45,3.42A2.69,2.69,0,0,1,101,48.84c-1,.12-2.08.17-3.12.3-.77.1-1.53.32-2.3.4a16.67,16.67,0,0,1-1.87,0,1.76,1.76,0,0,0-.23,0c-.92.18-1.83.4-2.76.53s-1.66.1-2.48.15c-.16,0-.31.09-.46.09l-2.16,0h-.14c-.8.14-1.59.31-2.4.4s-1.69.11-2.54.18a20.39,20.39,0,0,0-2,.28c-.13,0-.2.32-.31.49a3.67,3.67,0,0,1-.55.87,8.44,8.44,0,0,1-2,1.56,6.58,6.58,0,0,1-2.19.13,1.12,1.12,0,0,0-.32,0c-1,.2-2,.45-3,.59a8.29,8.29,0,0,1-1.64-.09,1.21,1.21,0,0,0-.19,0c-.89.16-1.78.38-2.68.48a11.36,11.36,0,0,1-2.67,0c-.19,0-.29-.84-.41-1.3,0-.09.08-.21.07-.31-.11-.77-.27-1.54-.35-2.32a1.3,1.3,0,0,1,.2-.83,11,11,0,0,1,1.06-.85c.16-.14.27-.34.42-.49.45-.45.91-.89,1.37-1.32.63-.6,1.25-1.21,1.9-1.79s1.23-1,1.82-1.53,1-.93,1.41-1.41c.27-.28.48-.61.74-.89.54-.59,1.09-1.17,1.66-1.72.31-.3.7-.52,1-.81s.74-.83,1.17-1.16C75.58,38.11,76.26,37.75,76.72,37.45Zm-2.89,5.39-1,.34a2.21,2.21,0,0,0-1.49,2.52A3.73,3.73,0,0,0,74.74,49c1.17.14,1.62-.48,2.17-1.15.26-.31.32-.79.61-1a1.57,1.57,0,0,0,.38-1.75c-.16-.58-.39-1.15-.61-1.72A.86.86,0,0,0,77,43,3.09,3.09,0,0,0,73.83,42.84Z" transform="translate(0.22 0)"/><path class="cls-1" d="M20.13,68.46A7.94,7.94,0,0,1,19.22,67a11.48,11.48,0,0,1-.35-1.89,23.07,23.07,0,0,1-.56-2.94,5.88,5.88,0,0,1,.5-1.91,8,8,0,0,1,.61-1.61,18.43,18.43,0,0,1,1.39-2c.53-.7,1.08-1.37,1.66-2A9.89,9.89,0,0,1,23.9,53.2a22.29,22.29,0,0,1,2.67-1.75,16.44,16.44,0,0,1,2.95-1.37,7.69,7.69,0,0,1,2.1-.09,3.62,3.62,0,0,0,.46-.06l2.68-.21.18,0c.9-.17,1.8-.37,2.71-.5,1.17-.18,2.35-.29,3.53-.44.58-.07,1.16-.19,1.75-.21s1.08.06,1.62.09a.82.82,0,0,0,.22,0,26.2,26.2,0,0,1,3-.21,9.67,9.67,0,0,0,2.73-.15A20.74,20.74,0,0,1,53.61,48c1-.09,2-.22,3.07-.25a17.53,17.53,0,0,1,3.24.09c.23,0,.35.85.5,1.31,0,.08-.09.2-.07.3.16.88.34,1.75.5,2.63s.31,1.69.43,2.54A13.38,13.38,0,0,1,61.39,56c0,.1-.11.28-.18.29a11.15,11.15,0,0,1-1.15.1c-2.68.16-5,1.53-7.52,2.21-.8.22-.9.9-1.27,1.42-.58.81-1.16,1.63-1.68,2.48-.41.68-.69,1.43-1.11,2.1a15.66,15.66,0,0,1-1.14,1.44l-1,1.23c-.26.32-.51.64-.78.95-.4.48-.8,1-1.22,1.43a7.19,7.19,0,0,1-1,.93c-.74.53-1.5,1-2.25,1.54l-.08,0c-2.16.89-4.28,1.88-6.49,2.62a8.87,8.87,0,0,1-2.86,0c-.5,0-1,.06-1.5,0-.69-.06-1.38-.2-2.06-.31a7.71,7.71,0,0,1-1-.17,10.53,10.53,0,0,1-2.48-.86c-1-.64-1.88-1.57-2.88-2.27A4,4,0,0,1,20.13,68.46Zm16.58,1.73.08.13c.87-.5,1.74-1,2.59-1.51a5.25,5.25,0,0,0,1.1-.88,15,15,0,0,0,1-1.37,10,10,0,0,0,1.93-3.32c.25-1.06.92-2,.81-3.19-.08-.93-.15-1.87-.3-2.79,0-.22-.45-.36-.51-.59A3.75,3.75,0,0,0,41.27,54a10.59,10.59,0,0,0-2.18-.93A12.16,12.16,0,0,0,35.9,53a9.74,9.74,0,0,0-3.09.71c-.49.21-1,.24-1.44.45-.95.43-1.86,1-2.83,1.33A4.42,4.42,0,0,0,26.2,57.1c-.38.58-.9,1.07-1.29,1.65A11,11,0,0,0,24,60.33,8.27,8.27,0,0,0,23.37,62a11.36,11.36,0,0,0-.31,2.32,12.51,12.51,0,0,0,.2,1.92c0,.06.06.11.1.16.21.3.4.62.63.91a7.32,7.32,0,0,0,1.63,1.88,24.17,24.17,0,0,0,3.82,1.58,4.45,4.45,0,0,0,1.27.06c.6,0,1.2.06,1.79.06.2,0,.39-.12.59-.13.76,0,1.54,0,2.29-.1A6.48,6.48,0,0,0,36.71,70.19Z" transform="translate(0.22 0)"/><path class="cls-1" d="M61.28,44.16c0-.72-.05-1.42-.07-2.11a3.44,3.44,0,0,1,0-.46,19.88,19.88,0,0,1,.08-2c0-.13.37-.29.59-.33a8.38,8.38,0,0,1,.87,0c.83,0,1.65-.09,2.48-.15h.19c.9-.17,1.79-.38,2.7-.49a19.62,19.62,0,0,1,2,0,.27.27,0,0,0,.09,0l2.05-.28L74.39,38s.12,0,.19.08a2.15,2.15,0,0,1-.18.24c-.65.6-1.3,1.22-2,1.8-.36.32-.77.58-1.14.89s-.52.48-.78.71c-.7.65-1.43,1.26-2.11,1.93-.48.48-.88,1-1.34,1.53a8.73,8.73,0,0,1-1.3,1.28c-.17.13-.6,0-.87-.13-1-.43-1.91-.88-2.83-1.38A3.71,3.71,0,0,1,61.28,44.16Z" transform="translate(0.22 0)"/><path class="cls-1" d="M99.59,51a19.91,19.91,0,0,1-2.93.49A13.71,13.71,0,0,0,93,52a7.63,7.63,0,0,1-2,0,1.6,1.6,0,0,0-.23,0c-.87,0-1.73.08-2.59.16-.34,0-.66.23-1,.26-.67.05-1.34,0-2,0a1.37,1.37,0,0,0-.45.07,5.85,5.85,0,0,1-3.1.33c-.15,0-.33.08-.5.11-.82.15-1.64.3-2.46.43a.34.34,0,0,1-.2-.11c.1-.22.17-.57.33-.62a15.11,15.11,0,0,1,1.78-.34h.14c1-.19,1.92-.42,2.89-.56s1.77-.13,2.65-.19c.46,0,.92,0,1.37-.08.89-.14,1.77-.37,2.66-.48s1.67-.1,2.51-.15h.09c.92-.18,1.84-.4,2.76-.53s1.65-.11,2.48-.16h.14c.81-.13,1.62-.28,2.43-.39a.33.33,0,0,1,.21.63c-.42.19-.88.33-1.32.48Z" transform="translate(0.22 0)"/><path class="cls-1" d="M23.53,100.13a2.73,2.73,0,0,1,.86-2.57,11.56,11.56,0,0,0,1.55-2.39c.1-.16.35-.23.55-.32s.32-.06.32-.09c0-1.09,1.36-.87,1.62-1.69a.26.26,0,0,1,.19-.12c1-.18,1.95-.33,2.93-.52.61-.12,1.21-.29,1.83-.41a.92.92,0,0,1,.62,0,.57.57,0,0,1,.1.54c-.52.91-1.08,1.8-1.63,2.7a4.9,4.9,0,0,1-.68,1,3.34,3.34,0,0,1-1,.42l-1,.38,1,.59h0a17.47,17.47,0,0,0-1.25,1.48c-.14.2-.05.56-.06.85.28,0,.66.08.81-.07,1.22-1.2,2.43-2.41,3.56-3.69a14.47,14.47,0,0,0,1.32-2.09c0-.08.09-.23.14-.24,1.06-.08.64-.92.82-1.48.41-1.36.4-2.83,1.31-4.07.52-.71.65-1.7,1.15-2.43a25.66,25.66,0,0,1,2-2.2c.48-.54.86-1.18,1.36-1.7.3-.31.79-.44,1.12-.73.64-.55,1.17-1.22,1.84-1.72.44-.34,1.12-.37,1.55-.71,1.26-1,2.42-2.15,3.68-3.15a5.45,5.45,0,0,1,1.58-.67c.46-.16.93-.29,1.4-.41.19-.05.45-.12.58,0a25.24,25.24,0,0,1,2.14,1.54c1.21,1,2.34,2.12,3.58,3.09.42.34,1.08.34,1.57.61.89.5,1.71,1.11,2.6,1.61a4.55,4.55,0,0,0,1.81.77,4.24,4.24,0,0,1,3.07,1.31c.27.29.86.33,1,.64a8.1,8.1,0,0,1,1.22,2.89,2.73,2.73,0,0,0,1.73,2.49A4.26,4.26,0,0,1,73.66,91c.57.76,1.1,1.56,1.64,2.35.09.12.23.24.25.37.18,1.32.28,2.65.53,4a14,14,0,0,0,.81,2.08,8.54,8.54,0,0,1,.59,1.72c.23,1.44.42,2.89.54,4.35a67.56,67.56,0,0,0,.54,6.84c.79,4.15.21,8.31.36,12.46a2.14,2.14,0,0,1-.42,1.09c-.62,1-.64,2.49-2.2,2.91-.64.17-1.15.82-1.74,1.22a5.14,5.14,0,0,1-1.11.53A24.51,24.51,0,0,0,70.22,132c-3.18,1.59-6.56.68-9.84.88-1.9.12-3.82,0-5.72,0s-3.78.31-5.66.52c-.47.05-.92.41-1.37.39a33.6,33.6,0,0,1-6.76-.55c-2.26-.59-4.47-.09-6.67-.41a18.47,18.47,0,0,1-2.62-.83,4.41,4.41,0,0,0-.89-.1c-2.09-.17-4.29,0-6.25-.59s-4.06-.91-5.11-2.9a5.78,5.78,0,0,1-1.14-3.08c.07-2.51-.32-5-.39-7.55,0-.58.48-1.18.74-1.78a1.32,1.32,0,0,0,.17-.41c0-.32,0-.65,0-1,.16-1.67.34-3.34.51-5,0-.08.09-.24.13-.23s.18.11.28.13a10.82,10.82,0,0,0,1.27.2s.22-.38.16-.48a1.18,1.18,0,0,0-.52-.44,5.56,5.56,0,0,0-.82-.25,13.13,13.13,0,0,1,1.07-1.16c.12-.11.47.08.63,0a1.48,1.48,0,0,0,.64-.62c.33-.79.58-1.6.85-2.41a2,2,0,0,0,.12-.64c0-1,0-2,.05-3,0-.21.28-.41.43-.62a5,5,0,0,0,.64.92.68.68,0,0,0,.66,0,1,1,0,0,0,.13-.71c0-.09-.3-.2-.47-.21S23.85,100.12,23.53,100.13Zm3.28-2.57c-.43-.4-.73-.82-.87-.77a3.29,3.29,0,0,0-.94.7,3.9,3.9,0,0,0,.95.69C26.09,98.24,26.38,97.88,26.81,97.56ZM20,111.79c-.4.45-.82.75-.77.9a2.94,2.94,0,0,0,.69.88,3.52,3.52,0,0,0,.69-.88C20.68,112.54,20.33,112.24,20,111.79Zm4.39-1.45c-.42.46-.86.74-.83,1s.44.54.68.81a3.92,3.92,0,0,0,.72-.87C25,111.1,24.7,110.8,24.4,110.34ZM24.18,115c.39-.45.79-.74.74-.9-.09-.32-.42-.58-.65-.87-.25.25-.62.47-.72.78S23.85,114.48,24.18,115Zm4.31-1.51.83-.73c-.25-.19-.49-.52-.75-.54s-.47.32-.71.5Zm-4.76,9.66.75-.83c-.23-.17-.47-.47-.7-.46s-.49.3-.73.47Zm14.52-13.68-.73.78c.23.18.46.5.69.5s.48-.31.73-.48ZM30,107.7l.75-.83c-.21-.17-.44-.49-.64-.48s-.54.29-.82.46Zm3.89-2.45.71-.74c-.26-.19-.51-.51-.78-.51s-.45.35-.68.54Zm-5.29,11.94-.77.65c.25.21.49.55.76.58s.47-.33.71-.52Zm2.95-14.81.66-.85c-.21-.16-.46-.48-.62-.44a3.12,3.12,0,0,0-.84.55ZM33.31,99l.78.7c.19-.25.49-.49.53-.77s-.28-.46-.44-.69Zm-5.91,1.92a3.52,3.52,0,0,0,.47-.84c0-.1-.37-.42-.44-.39a7.71,7.71,0,0,0-.93.69Zm8.15,1.41a2.62,2.62,0,0,0,.5-.77c0-.11-.44-.47-.53-.42a4.07,4.07,0,0,0-.81.7Zm-6.94.77-.72.66c.24.24.47.65.71.65s.48-.4.72-.62Zm-6.93,16.61.82-.94a2,2,0,0,0-.81-.28c-.2,0-.55.29-.54.43S21.42,119.3,21.68,119.66Zm11.81-7L33,113l-.7.39a5.38,5.38,0,0,0,.9.69c.06,0,.45-.35.49-.57A2.62,2.62,0,0,0,33.49,112.63ZM25.22,105l-.71.71c.23.21.45.6.68.6s.48-.37.71-.59Zm6.42-10.37a3.54,3.54,0,0,0,.55-.75c0-.09-.31-.45-.34-.43a9.64,9.64,0,0,0-1,.68Zm3.1,13c-.25.25-.56.42-.59.64s.41.57.48.54a5.4,5.4,0,0,0,.92-.67Zm-11.61.48c-.23.25-.55.45-.55.65s.44.56.52.53a5.37,5.37,0,0,0,.89-.7Zm3.69.49-.83.48a4.59,4.59,0,0,0,.85.69c.08,0,.5-.33.53-.54S27.05,108.83,26.82,108.58Zm4.42,1.93a3,3,0,0,0,.49-.81c0-.12-.4-.46-.47-.42a5.68,5.68,0,0,0-.89.68Zm-1,11.49c.2-.21.49-.38.52-.59s-.38-.53-.43-.51a8.49,8.49,0,0,0-.92.69ZM24.9,103.6l.43.18.57-1c-.22-.1-.45-.31-.66-.29a2.35,2.35,0,0,0-.75.39Zm9.44,13.7-.68.41c.24.24.46.59.75.68s.42-.41.64-.63ZM27.92,94.91c-.3.47-.55.68-.53.86s.31.35.48.53c.17-.18.43-.33.49-.53S28.18,95.39,27.92,94.91Zm8.34,12.46c0,.13-.11.2-.1.28s.11.07.17.11a.68.68,0,0,0,.12-.22S36.36,107.45,36.26,107.37Z" transform="translate(0.22 0)"/><path class="cls-1" d="M30.76,97.72l.23-.43.18.18-.41.24Z" transform="translate(0.22 0)"/><path d="M41.32,35.5A5.14,5.14,0,0,1,40.6,40a13.76,13.76,0,0,1-2.09,2.09c-1.28,1.27-3.09,1.33-4.65,2-.37.15-.9-.08-1.36-.12s-.91,0-1.36-.06a23.67,23.67,0,0,1-2.39-.32A15.44,15.44,0,0,1,26,42.87a16.93,16.93,0,0,1-2.36-1.36,9.52,9.52,0,0,1-1.35-.93,5,5,0,0,1-.87-1.12,5.68,5.68,0,0,1-1.12-2.18c-.06-1.06-.73-2.08-.14-3.21s.89-2.3,1.37-3.43a2,2,0,0,1,.69-.73c.5-.37,1-.67,1.57-1s.78-.68,1.22-.77c1-.21,2.1-.26,3.15-.39.14,0,.27-.1.41-.09.5,0,1,.07,1.51.12,0,0,.09.07.12.05.81-.35,1.44.12,2.12.42.31.14.72,0,1,.11,1,.3,2.13.24,2.89,1.15a1,1,0,0,0,.58.32,3.13,3.13,0,0,1,2.19,2c.38.76.78,1.5,1.22,2.22C40.59,34.57,41,35,41.32,35.5Zm-15-6.19-.09-.16a15.06,15.06,0,0,1-2.09,1.26,3.87,3.87,0,0,0-1.78,1.91,6.44,6.44,0,0,0-.8,2.64A5.15,5.15,0,0,0,22,37.43,19.12,19.12,0,0,0,23.73,40s.1,0,.14,0c1.05.53,2.08,1.09,3.14,1.59a6.29,6.29,0,0,0,3.24,1,12.49,12.49,0,0,1,1.37,0,4.23,4.23,0,0,0,1.66,0c.87-.37,1.88-.18,2.67-.82.34-.28.93,0,1.3-.49s1-.9,1.37-1.44a14.41,14.41,0,0,0,.9-1.75,4.45,4.45,0,0,0-.41-3.69c-.54-.63-.93-1.37-1.46-2A9,9,0,0,0,36.14,31a10.92,10.92,0,0,0-1.7-.88,11.81,11.81,0,0,0-1.63-.71A18,18,0,0,0,31,29.11c-.67-.11-1.33-.26-2-.35a3.07,3.07,0,0,0-1.09,0A15.84,15.84,0,0,0,26.27,29.31Z" transform="translate(0.22 0)"/><path d="M73.83,42.84A3.09,3.09,0,0,1,77,43a.86.86,0,0,1,.31.37c.22.57.45,1.14.61,1.72a1.57,1.57,0,0,1-.38,1.75c-.29.26-.35.74-.61,1-.55.67-1,1.29-2.17,1.15a3.73,3.73,0,0,1-3.37-3.32,2.21,2.21,0,0,1,1.49-2.52Zm1.55,4.37c.83-.36,1.57-1.17,1.42-1.74s-.26-1.57-1.3-1.67c-.32,0-.67-.29-1-.23-.58.13-1.39.24-1.63.65a2.18,2.18,0,0,0,.59,3,.28.28,0,0,0,.17.07Z" transform="translate(0.22 0)"/><path d="M36.71,70.19a6.48,6.48,0,0,1-1.33.44c-.75.09-1.53.07-2.29.1-.2,0-.39.13-.59.13-.59,0-1.19,0-1.79-.06a4.45,4.45,0,0,1-1.27-.06,24.17,24.17,0,0,1-3.82-1.58A7.32,7.32,0,0,1,24,67.28c-.23-.29-.42-.61-.63-.91,0-.05-.1-.1-.1-.16a12.51,12.51,0,0,1-.2-1.92A11.36,11.36,0,0,1,23.37,62,8.27,8.27,0,0,1,24,60.33a11,11,0,0,1,.88-1.58c.39-.58.91-1.07,1.29-1.65a4.42,4.42,0,0,1,2.34-1.63c1-.36,1.88-.9,2.83-1.33.46-.21.95-.24,1.44-.45A9.74,9.74,0,0,1,35.9,53a12.16,12.16,0,0,1,3.19.12,10.59,10.59,0,0,1,2.18.93,3.75,3.75,0,0,1,2.14,2.64c.06.23.48.37.51.59.15.92.22,1.86.3,2.79.11,1.16-.56,2.13-.81,3.19a10,10,0,0,1-1.93,3.32,15,15,0,0,1-1,1.37,5.25,5.25,0,0,1-1.1.88c-.85.53-1.72,1-2.59,1.51Zm2.59-3a24.41,24.41,0,0,0,1.6-2.71c.38-.69.75-1.38,1.07-2.1.55-1.25,1-2.53.4-3.9-.18-.38.21-.8-.28-1.2s-.36-1-.71-1.34a10.41,10.41,0,0,0-1.94-1.22A4.33,4.33,0,0,0,37.79,54a7.63,7.63,0,0,0-2.31.36c-.82.22-1.6.55-2.4.82L33,55c-1.2.6-2.4,1.19-3.58,1.82a12.43,12.43,0,0,0-1.44,1,4,4,0,0,0-.93.73c-.64.82-1.22,1.69-1.84,2.54-1,1.41-.87,3-.57,4.54a5.57,5.57,0,0,0,1.58,2.52c.87,1,2.11,1,3.19,1.34a6.88,6.88,0,0,0,2.09.17,8.73,8.73,0,0,0,2.29-.09" transform="translate(0.22 0)"/><path d="M26.81,97.56c-.43.32-.72.68-.86.62a3.9,3.9,0,0,1-.95-.69,3.29,3.29,0,0,1,.94-.7C26.08,96.74,26.38,97.16,26.81,97.56Z" transform="translate(0.22 0)"/><path d="M20,111.79c.32.45.67.75.61.9a3.52,3.52,0,0,1-.69.88,2.94,2.94,0,0,1-.69-.88C19.19,112.54,19.61,112.24,20,111.79Z" transform="translate(0.22 0)"/><path d="M24.4,110.34c.3.46.63.76.57.89a3.92,3.92,0,0,1-.72.87c-.24-.27-.63-.51-.68-.81S24,110.8,24.4,110.34Z" transform="translate(0.22 0)"/><path d="M24.18,115c-.33-.49-.69-.81-.63-1s.47-.53.72-.78c.23.29.56.55.65.87C25,114.23,24.57,114.52,24.18,115Z" transform="translate(0.22 0)"/><path d="M28.49,113.46l-.63-.77c.24-.18.49-.52.71-.5s.5.35.75.54Z" transform="translate(0.22 0)"/><path d="M23.73,123.12l-.68-.82c.24-.17.48-.47.73-.47s.47.29.7.46Z" transform="translate(0.22 0)"/><path d="M38.25,109.44l.69.8c-.25.17-.49.47-.73.48s-.46-.32-.69-.5Z" transform="translate(0.22 0)"/><path d="M30,107.7l-.71-.85c.28-.17.54-.44.82-.46s.43.31.64.48Z" transform="translate(0.22 0)"/><path d="M33.91,105.25l-.75-.71c.23-.19.46-.55.68-.54s.52.32.78.51Z" transform="translate(0.22 0)"/><path d="M28.62,117.19l.7.71c-.24.19-.5.54-.71.52s-.51-.37-.76-.58Z" transform="translate(0.22 0)"/><path d="M31.57,102.38l-.8-.74a3.12,3.12,0,0,1,.84-.55c.16,0,.41.28.62.44Z" transform="translate(0.22 0)"/><path d="M33.31,99l.87-.76c.16.23.47.49.44.69s-.34.52-.53.77Z" transform="translate(0.22 0)"/><path d="M27.4,100.87l-.9-.54a7.71,7.71,0,0,1,.93-.69c.07,0,.47.29.44.39A3.52,3.52,0,0,1,27.4,100.87Z" transform="translate(0.22 0)"/><path d="M23.53,100.13c.32,0,.64,0,1,0s.46.12.47.21a1,1,0,0,1-.13.71.68.68,0,0,1-.66,0,5,5,0,0,1-.64-.92Z" transform="translate(0.22 0)"/><path d="M35.55,102.28l-.84-.49a4.07,4.07,0,0,1,.81-.7c.09,0,.55.31.53.42A2.62,2.62,0,0,1,35.55,102.28Z" transform="translate(0.22 0)"/><path d="M28.61,103.05l.71.69c-.24.22-.49.63-.72.62s-.47-.41-.71-.65Z" transform="translate(0.22 0)"/><path d="M21.68,119.66c-.26-.36-.52-.57-.53-.79s.34-.42.54-.43a2,2,0,0,1,.81.28Z" transform="translate(0.22 0)"/><path d="M33.49,112.63a2.62,2.62,0,0,1,.16.89c0,.22-.43.6-.49.57a5.38,5.38,0,0,1-.9-.69L33,113Z" transform="translate(0.22 0)"/><path d="M25.22,105l.68.72c-.23.22-.47.59-.71.59s-.45-.39-.68-.6Z" transform="translate(0.22 0)"/><path d="M31.64,94.58l-.82-.5a9.64,9.64,0,0,1,1-.68s.38.34.34.43A3.54,3.54,0,0,1,31.64,94.58Z" transform="translate(0.22 0)"/><path d="M34.74,107.61l.81.51a5.4,5.4,0,0,1-.92.67c-.07,0-.51-.37-.48-.54S34.49,107.86,34.74,107.61Z" transform="translate(0.22 0)"/><path d="M23.13,108.09l.86.48a5.37,5.37,0,0,1-.89.7c-.08,0-.52-.35-.52-.53S22.9,108.34,23.13,108.09Z" transform="translate(0.22 0)"/><path d="M26.82,108.58c.23.25.57.46.55.63s-.45.57-.53.54a4.59,4.59,0,0,1-.85-.69Z" transform="translate(0.22 0)"/><path d="M31.24,110.51l-.87-.55a5.68,5.68,0,0,1,.89-.68c.07,0,.49.3.47.42A3,3,0,0,1,31.24,110.51Z" transform="translate(0.22 0)"/><path d="M30.23,122l-.83-.41a8.49,8.49,0,0,1,.92-.69c.05,0,.45.36.43.51S30.43,121.79,30.23,122Z" transform="translate(0.22 0)"/><path d="M24.9,103.6l-.41-.69a2.35,2.35,0,0,1,.75-.39c.21,0,.44.19.66.29l-.57,1Z" transform="translate(0.22 0)"/><path d="M34.34,117.3l.71.46c-.22.22-.5.67-.64.63s-.51-.44-.75-.68Z" transform="translate(0.22 0)"/><path d="M27.92,94.91c.26.48.48.7.44.86s-.32.35-.49.53c-.17-.18-.45-.34-.48-.53S27.62,95.38,27.92,94.91Z" transform="translate(0.22 0)"/><path d="M36.26,107.37c.1.08.2.14.19.17a.68.68,0,0,1-.12.22c-.06,0-.17-.07-.17-.11S36.21,107.5,36.26,107.37Z" transform="translate(0.22 0)"/><path class="cls-1" d="M75.38,47.21l-1.71,0a.28.28,0,0,1-.17-.07,2.18,2.18,0,0,1-.59-3c.24-.41,1-.52,1.63-.65.29-.06.64.19,1,.23,1,.1,1.1,1,1.3,1.67S76.21,46.85,75.38,47.21Z" transform="translate(0.22 0)"/></svg>