<?xml version="1.0" encoding="utf-8"?>
<!-- Generator: Adobe Illustrator 23.1.0, SVG Export Plug-In . SVG Version: 6.00 Build 0)  -->
<svg version="1.1" id="Calque_1" xmlns="http://www.w3.org/2000/svg" xmlns:xlink="http://www.w3.org/1999/xlink" x="0px" y="0px"
	 viewBox="0 0 146.55 285.6" style="enable-background:new 0 0 146.55 285.6;" xml:space="preserve">
<style type="text/css">
	.st0{fill:#FFFFFF;}
</style>
<g>
	<g>
		<path class="st0" d="M74.28,0.21c0-0.06,0-0.12,0-0.18c-0.53,0-1.07,0-1.6,0C51.16,0.03,29.64,0.05,8.12,0
			C3.95-0.01-0.24,4.09-0.22,8.5c0.12,26.46,0.2,52.91,0.29,79.37c0.02,6.31,0.08,12.62,0.04,18.92
			c-0.06,10.29-0.27,20.58-0.26,30.87c0.01,6.4,0.37,12.81,0.45,19.21c0.06,4.9-0.09,9.81-0.1,14.71
			c-0.01,4.03,0.24,8.06,0.05,12.08c-0.45,9.53-0.31,19.05-0.09,28.58c0.3,12.52,0.48,25.04,0.47,37.56
			c-0.01,10.33-0.33,20.66-0.59,30.98c-0.04,1.43,0.55,1.92,1.8,2.05c2.13,0.21,4.24,0.57,6.37,0.65c7.77,0.29,15.53,0.54,23.3,0.7
			c11.27,0.23,22.54,0.34,33.81,0.57c3.1,0.07,6.19,0.59,9.28,0.6c4.95,0.02,9.91-0.32,14.86-0.33c15.4-0.04,30.8,0.02,46.19-0.04
			c1.18,0,2.63-0.32,3.49-1.05c1.56-1.32,2.91-2.96,4.09-4.64c0.66-0.94,1.1-2.21,1.18-3.36c0.33-5.08,0.55-10.17,0.71-15.26
			c0.34-10.28,0.81-20.56,0.86-30.84c0.04-7.41,1.12-14.81,0.19-22.25c-0.3-2.43,0.04-4.93,0.05-7.4c0.01-1.49-0.07-2.98-0.1-4.47
			c-0.09-4.06-0.18-8.12-0.28-12.19c-0.02-0.82-0.03-1.64-0.1-2.46c-0.21-2.8-0.59-5.59-0.62-8.39c-0.03-2.66,0.39-5.32,0.47-7.99
			c0.17-5.48,0.29-10.97,0.35-16.45c0.04-3.82-0.05-7.65-0.1-11.47c-0.02-1.99-0.25-3.99-0.07-5.96c0.23-2.62,0.27-5.18-0.09-7.8
			c-0.91-6.58,0.37-13.28-1.02-19.84c-0.07-0.32,0.01-0.68,0.01-1.02c-0.03-7.81-0.01-15.62-0.11-23.43
			c-0.08-6.65-0.69-13.31-0.35-19.93c0.48-9.35-0.69-18.73,0.72-28.05c0.06-0.43,0.04-0.87,0.02-1.31
			c-0.28-4.26-0.64-8.52-0.83-12.78c-0.19-4.26-0.21-8.54-0.3-12.8c-0.06-2.46-0.53-3.03-2.95-3.19c-3.1-0.2-6.21-0.42-9.32-0.43
			C112.46,0.19,93.37,0.21,74.28,0.21z"/>
		<path d="M74.28,0.21c19.09,0,38.18-0.02,57.27,0.02c3.11,0.01,6.21,0.23,9.32,0.43c2.41,0.16,2.89,0.73,2.95,3.19
			c0.1,4.27,0.11,8.54,0.3,12.8c0.19,4.26,0.55,8.52,0.83,12.78c0.03,0.43,0.05,0.88-0.02,1.31c-1.4,9.31-0.24,18.7-0.72,28.05
			c-0.34,6.62,0.27,13.29,0.35,19.93c0.1,7.81,0.08,15.62,0.11,23.43c0,0.34-0.08,0.69-0.01,1.02c1.39,6.56,0.11,13.26,1.02,19.84
			c0.36,2.62,0.33,5.19,0.09,7.8c-0.18,1.97,0.05,3.97,0.07,5.96c0.05,3.82,0.14,7.65,0.1,11.47c-0.06,5.48-0.18,10.97-0.35,16.45
			c-0.08,2.67-0.5,5.33-0.47,7.99c0.03,2.8,0.41,5.59,0.62,8.39c0.06,0.82,0.08,1.64,0.1,2.46c0.1,4.06,0.19,8.12,0.28,12.19
			c0.03,1.49,0.11,2.98,0.1,4.47c-0.01,2.47-0.36,4.98-0.05,7.4c0.93,7.44-0.16,14.83-0.19,22.25c-0.05,10.28-0.52,20.56-0.86,30.84
			c-0.17,5.09-0.38,10.18-0.71,15.26c-0.08,1.15-0.51,2.42-1.18,3.36c-1.19,1.68-2.53,3.32-4.09,4.64c-0.86,0.72-2.3,1.04-3.49,1.05
			c-15.4,0.06-30.8,0-46.19,0.04c-4.95,0.01-9.91,0.35-14.86,0.33c-3.09-0.01-6.18-0.53-9.28-0.6c-11.27-0.24-22.54-0.34-33.81-0.57
			c-7.77-0.16-15.54-0.42-23.3-0.7c-2.13-0.08-4.25-0.43-6.37-0.65c-1.25-0.13-1.83-0.62-1.8-2.05c0.26-10.33,0.58-20.65,0.59-30.98
			c0.01-12.52-0.18-25.04-0.47-37.56c-0.23-9.53-0.36-19.05,0.09-28.58c0.19-4.02-0.05-8.05-0.05-12.08
			c0.01-4.9,0.16-9.81,0.1-14.71c-0.08-6.4-0.44-12.81-0.45-19.21c-0.01-10.29,0.2-20.58,0.26-30.87
			c0.04-6.31-0.02-12.62-0.04-18.92C-0.02,61.41-0.1,34.96-0.22,8.5C-0.24,4.09,3.95-0.01,8.12,0c21.52,0.05,43.04,0.03,64.56,0.04
			c0.53,0,1.07,0,1.6,0C74.28,0.09,74.28,0.15,74.28,0.21z M66.43,282.78c0,0.15,0,0.3,0,0.45c5.63,0,11.26,0.04,16.89-0.01
			c9.95-0.1,19.91-0.49,29.86-0.3c7.29,0.14,14.55,0.25,21.82-0.38c2.28-0.2,2.71-0.55,2.75-2.79c0.04-2.23-0.04-4.47,0.13-6.7
			c0.94-12.74,1.51-25.48,1.47-38.25c-0.03-11.12,0.18-22.23,0.08-33.35c-0.13-15.38-0.51-30.76-0.69-46.14
			c-0.14-11.84-0.17-23.68-0.17-35.52c0-6.74,0.32-13.49,0.27-20.23c-0.08-11.21-0.43-22.41-0.49-33.62
			c-0.05-9.85,0.17-19.7,0.21-29.55c0.02-4.7-0.07-9.4-0.16-14.1c-0.04-2.38-0.29-4.75-0.26-7.13c0.02-2.21,0.37-4.41,0.42-6.61
			c0.04-1.91-0.82-2.61-2.72-2.47c-1.31,0.09-2.61,0.29-3.92,0.29c-7.62-0.01-15.25-0.16-22.87-0.06
			c-6.94,0.08-13.87,0.57-20.81,0.6C79.4,6.94,70.57,6.59,61.73,6.64C51.1,6.7,40.46,6.76,29.84,7.27
			c-8.57,0.42-17.08-0.1-25.61-0.44C2.23,6.75,1.83,7.07,1.74,9.08c-0.02,0.44-0.03,0.87-0.03,1.31c0.04,7.38,0.1,14.75,0.11,22.13
			c0.01,4.7-0.08,9.4-0.06,14.1c0.05,14.41,0.12,28.83,0.19,43.24c0.02,3.98,0.1,7.96,0.17,11.93c0.05,2.47,0.44,4.98,0.13,7.4
			c-0.37,2.92-0.28,5.78-0.25,8.69c0.15,14.51,0.17,29.02,0.23,43.53c0.01,2.72-0.08,5.44-0.05,8.16c0.09,8.59,0.3,17.17,0.3,25.76
			c0.01,9.22-0.24,18.44-0.22,27.66c0.03,11.69,0.26,23.39,0.31,35.08c0.03,6.36-0.13,12.72-0.18,19.08
			c-0.02,3.09,0.28,3.46,3.34,3.61c4.9,0.24,9.8,0.4,14.7,0.56C35.76,281.82,51.1,282.3,66.43,282.78z M140.86,278.48
			c0.22-0.01,0.43-0.01,0.65-0.02c0.2-0.79,0.53-1.58,0.58-2.38c0.1-1.64-0.01-3.3,0.07-4.95c0.4-8.53,0.91-17.06,1.24-25.59
			c0.28-7.08,0.34-14.17,0.54-21.26c0.12-4.46,0.4-8.92,0.43-13.38c0.03-4.31-0.16-8.62-0.25-12.94c-0.01-0.68,0-1.36-0.02-2.04
			c-0.34-8.82-0.82-17.64-0.99-26.47c-0.24-12.61-0.28-25.23-0.33-37.85c-0.03-9.75,0.13-19.49,0.08-29.24
			c-0.04-7.47-0.42-14.94-0.41-22.41c0.03-17.33,0.31-34.65,0.27-51.98c-0.02-7.17-0.61-14.34-0.96-21.52
			c-0.01-0.26-0.3-0.51-0.45-0.77c-0.22,0.26-0.6,0.5-0.64,0.78c-0.17,1.05-0.31,2.12-0.31,3.18c-0.02,10.04-0.01,20.08,0,30.13
			c0.01,7.47-0.02,14.94,0.05,22.42c0.11,12.33,0.36,24.65,0.42,36.97c0.05,9.21-0.14,18.43-0.16,27.64
			c-0.02,9.03-0.07,18.06,0.07,27.08c0.27,17.85,0.72,35.7,0.96,53.56c0.1,7.81-0.1,15.63-0.25,23.44
			c-0.13,6.84-0.4,13.68-0.58,20.53c-0.21,8.35-0.41,16.7-0.56,25.04C140.26,277.13,140.66,277.81,140.86,278.48z M5.08,3.28
			C5.1,3.54,5.12,3.8,5.14,4.07C5.8,4.23,6.45,4.52,7.12,4.54c5.1,0.12,10.2,0.33,15.29,0.24c9.71-0.16,19.41-0.68,29.12-0.72
			C67.69,4,83.85,4.27,100.01,4.26c8.4-0.01,16.8-0.33,25.2-0.49c4.08-0.08,8.16-0.1,12.24-0.17c0.37-0.01,0.73-0.24,1.09-0.37
			c-1.55-0.32-2.95-0.31-4.34-0.32c-13.3-0.11-26.6-0.24-39.91-0.35C80.11,2.44,65.93,2.3,51.76,2.25
			c-9.23-0.04-18.45,0.04-27.68,0.09C18.55,2.36,13.03,2.39,7.5,2.51C6.69,2.53,5.89,3.01,5.08,3.28z"/>
		<path class="st0" d="M66.43,282.78c-15.34-0.49-30.67-0.97-46.01-1.46c-4.9-0.16-9.8-0.32-14.7-0.56
			c-3.06-0.15-3.36-0.52-3.34-3.61c0.05-6.36,0.21-12.72,0.18-19.08c-0.06-11.69-0.28-23.39-0.31-35.08
			c-0.02-9.22,0.23-18.44,0.22-27.66c-0.01-8.59-0.21-17.17-0.3-25.76c-0.03-2.72,0.06-5.44,0.05-8.16
			c-0.05-14.51-0.08-29.02-0.23-43.53c-0.03-2.91-0.12-5.78,0.25-8.69c0.31-2.42-0.08-4.93-0.13-7.4
			c-0.07-3.98-0.15-7.96-0.17-11.93C1.88,75.44,1.81,61.03,1.76,46.62c-0.02-4.7,0.07-9.4,0.06-14.1
			c-0.02-7.38-0.08-14.75-0.11-22.13c0-0.44,0.01-0.87,0.03-1.31c0.09-2,0.49-2.33,2.48-2.25c8.53,0.34,17.05,0.86,25.61,0.44
			C40.46,6.76,51.1,6.7,61.73,6.64c8.84-0.05,17.67,0.3,26.51,0.26c6.94-0.04,13.87-0.52,20.81-0.6c7.62-0.09,15.25,0.06,22.87,0.06
			c1.31,0,2.61-0.2,3.92-0.29c1.9-0.14,2.76,0.56,2.72,2.47c-0.05,2.21-0.39,4.41-0.42,6.61c-0.03,2.37,0.21,4.75,0.26,7.13
			c0.09,4.7,0.18,9.4,0.16,14.1c-0.04,9.85-0.26,19.7-0.21,29.55c0.06,11.21,0.41,22.41,0.49,33.62c0.05,6.74-0.26,13.49-0.27,20.23
			c-0.01,11.84,0.03,23.68,0.17,35.52c0.18,15.38,0.55,30.76,0.69,46.14c0.1,11.12-0.12,22.23-0.08,33.35
			c0.04,12.77-0.53,25.52-1.47,38.25c-0.16,2.22-0.09,4.47-0.13,6.7c-0.04,2.25-0.47,2.59-2.75,2.79
			c-7.27,0.64-14.53,0.52-21.82,0.38c-9.95-0.19-19.9,0.21-29.86,0.3c-5.63,0.05-11.26,0.01-16.89,0.01
			C66.43,283.09,66.43,282.94,66.43,282.78z"/>
		<path class="st0" d="M140.86,278.48c-0.21-0.67-0.6-1.35-0.59-2.01c0.15-8.35,0.35-16.7,0.56-25.04
			c0.18-6.84,0.44-13.68,0.58-20.53c0.15-7.81,0.36-15.63,0.25-23.44c-0.23-17.85-0.69-35.7-0.96-53.56
			c-0.14-9.03-0.09-18.06-0.07-27.08c0.02-9.21,0.21-18.43,0.16-27.64c-0.06-12.33-0.31-24.65-0.42-36.97
			c-0.07-7.47-0.04-14.94-0.05-22.42c-0.01-10.04-0.01-20.08,0-30.13c0-1.06,0.14-2.13,0.31-3.18c0.05-0.29,0.42-0.52,0.64-0.78
			c0.16,0.26,0.44,0.51,0.45,0.77c0.36,7.17,0.94,14.34,0.96,21.52c0.04,17.33-0.24,34.65-0.27,51.98
			c-0.01,7.47,0.37,14.94,0.41,22.41c0.05,9.75-0.11,19.49-0.08,29.24c0.04,12.62,0.09,25.23,0.33,37.85
			c0.17,8.83,0.65,17.65,0.99,26.47c0.03,0.68,0.01,1.36,0.02,2.04c0.09,4.31,0.28,8.63,0.25,12.94c-0.03,4.46-0.31,8.92-0.43,13.38
			c-0.19,7.09-0.26,14.18-0.54,21.26c-0.33,8.53-0.84,17.06-1.24,25.59c-0.08,1.65,0.03,3.3-0.07,4.95
			c-0.05,0.8-0.38,1.59-0.58,2.38C141.3,278.47,141.08,278.47,140.86,278.48z"/>
		<path class="st0" d="M5.08,3.28C5.89,3.01,6.69,2.53,7.5,2.51c5.53-0.11,11.05-0.15,16.58-0.17c9.23-0.05,18.45-0.12,27.68-0.09
			c14.17,0.06,28.35,0.2,42.52,0.31c13.3,0.11,26.6,0.23,39.91,0.35c1.4,0.01,2.8,0,4.34,0.32c-0.36,0.13-0.73,0.36-1.09,0.37
			c-4.08,0.08-8.16,0.1-12.24,0.17c-8.4,0.16-16.8,0.49-25.2,0.49C83.85,4.27,67.69,4,51.53,4.07C41.82,4.1,32.12,4.62,22.41,4.78
			c-5.1,0.08-10.2-0.12-15.29-0.24C6.45,4.52,5.8,4.23,5.14,4.07C5.12,3.8,5.1,3.54,5.08,3.28z"/>
	</g>
</g>
<g>
	<path d="M39.64,167.5c0.37-0.06,0.66-0.09,0.86-0.09c0.17,0,0.4,0.06,0.68,0.18c0.43,0.18,0.77,0.41,1.02,0.69
		c0.25,0.28,0.37,0.57,0.37,0.87c0,0.29-0.11,0.55-0.34,0.77c-0.19,0.19-0.43,0.29-0.7,0.29c-0.31,0-0.64-0.13-0.97-0.38
		c-0.22-0.16-0.42-0.23-0.61-0.23c-0.31,0-0.76,0.23-1.35,0.7c-0.37,0.3-0.64,0.58-0.79,0.85c-0.16,0.26-0.23,0.58-0.23,0.94
		c0,0.18,0.02,0.38,0.05,0.59c0.14,0.92,0.57,1.39,1.28,1.39c0.25,0,0.56-0.07,0.94-0.2c0.31-0.12,0.53-0.18,0.67-0.18
		c0.11,0,0.25,0.05,0.41,0.14c0.23,0.12,0.39,0.31,0.49,0.58c0.05,0.11,0.07,0.23,0.07,0.38c0,0.38-0.21,0.7-0.62,0.94
		s-0.99,0.37-1.72,0.4c-0.04,0-0.09,0-0.16,0.01c-0.07,0.01-0.13,0.01-0.16,0.01c-0.66,0-1.22-0.14-1.68-0.42
		c-0.46-0.28-0.87-0.73-1.23-1.34c-0.17-0.29-0.27-0.54-0.31-0.76c-0.04-0.22-0.06-0.65-0.06-1.31c0-0.61,0.02-1.04,0.06-1.28
		c0.04-0.24,0.13-0.5,0.26-0.77c0.22-0.41,0.44-0.74,0.67-1c0.23-0.26,0.56-0.54,0.99-0.86c0.41-0.3,0.75-0.51,1.03-0.62
		C38.8,167.66,39.17,167.57,39.64,167.5z"/>
	<path d="M44.89,165.39c0.2-0.24,0.45-0.36,0.74-0.36c0.29,0,0.55,0.12,0.79,0.36l0.34,0.34c-0.01,0.4-0.04,0.99-0.09,1.79
		c-0.05,0.8-0.08,1.4-0.09,1.79l1.62-0.11c1.09-0.06,1.64-0.1,1.66-0.13c0.02-0.01,0.07-0.58,0.14-1.71
		c0.05-0.83,0.09-1.33,0.13-1.5c0.04-0.17,0.15-0.34,0.34-0.5c0.25-0.22,0.5-0.32,0.76-0.32c0.24,0,0.47,0.11,0.7,0.34
		c0.2,0.2,0.31,0.41,0.31,0.63c0,0.02-0.02,0.3-0.07,0.83c-0.05,0.55-0.1,2.17-0.14,4.84c-0.02,1.82-0.05,2.91-0.07,3.25
		c-0.02,0.34-0.11,0.57-0.25,0.69c-0.18,0.16-0.38,0.23-0.61,0.23c-0.88,0-1.31-1.06-1.31-3.19v-1.33h-0.99
		c-0.62,0-1.14,0.04-1.55,0.11c-0.4,0.07-0.59,0.24-0.59,0.5c0,0.2,0.08,0.46,0.25,0.76c0.16,0.28,0.23,0.55,0.23,0.83
		c0,0.07-0.01,0.23-0.04,0.47c-0.13,0.88-0.43,1.4-0.9,1.57c-0.18,0.06-0.34,0.09-0.47,0.09c-0.61,0-0.98-0.68-1.1-2.05
		c-0.07-0.58-0.11-2.59-0.11-6.03c0-0.94,0.01-1.48,0.02-1.62C44.53,165.82,44.65,165.63,44.89,165.39z"/>
	<path d="M54.51,164.56c0.22-0.24,0.46-0.36,0.72-0.36c0.28,0,0.54,0.14,0.79,0.43c0.2,0.24,0.31,0.44,0.31,0.61
		c0,0.08-0.02,0.21-0.05,0.38c-0.14,0.86-0.48,1.3-1.01,1.3c-0.05,0-0.14-0.01-0.29-0.04c-0.54-0.12-0.81-0.56-0.81-1.33
		C54.16,165.16,54.28,164.83,54.51,164.56z M55.05,169.46c0.24-0.2,0.47-0.31,0.7-0.31s0.46,0.11,0.68,0.34
		c0.16,0.16,0.25,0.32,0.29,0.5c0.04,0.17,0.05,0.59,0.05,1.25c0,0.73,0.07,1.68,0.2,2.84c0.07,0.56,0.11,0.98,0.11,1.24
		c0,0.24-0.02,0.4-0.07,0.49c-0.22,0.41-0.53,0.61-0.94,0.61c-0.24,0-0.46-0.08-0.66-0.25c-0.2-0.17-0.33-0.4-0.4-0.68
		c-0.08-0.34-0.18-1.03-0.28-2.09c-0.1-1.06-0.15-1.88-0.15-2.48c0-0.05,0-0.11,0.01-0.2c0.01-0.08,0.01-0.14,0.01-0.16
		c0.02-0.31,0.07-0.54,0.13-0.68C54.78,169.73,54.89,169.59,55.05,169.46z"/>
	<path d="M61.24,166.47c0.24-0.07,0.71-0.11,1.4-0.11c0.68,0,1.22,0.04,1.62,0.11c0.34,0.06,0.61,0.19,0.81,0.4
		c0.2,0.2,0.31,0.43,0.31,0.68s-0.11,0.47-0.32,0.67c-0.13,0.13-0.31,0.22-0.55,0.26c-0.23,0.04-0.71,0.07-1.43,0.08
		c-1.14,0.05-1.74,0.11-1.8,0.18c-0.08,0.08-0.16,0.58-0.23,1.48l-0.07,1.35h0.72c0.48,0,0.85,0.1,1.12,0.29
		c0.24,0.2,0.36,0.45,0.36,0.74c0,0.25-0.08,0.49-0.25,0.7c-0.17,0.22-0.4,0.35-0.68,0.41c-0.06,0.01-0.13,0.03-0.23,0.05
		c-0.09,0.02-0.19,0.04-0.31,0.07c-0.11,0.03-0.2,0.05-0.24,0.06L61.04,174l0.04,1.87c0,0.16,0,0.35,0.01,0.57s0.01,0.37,0.01,0.44
		c0,0.41-0.02,0.68-0.05,0.81s-0.11,0.27-0.23,0.41c-0.19,0.2-0.43,0.31-0.7,0.31c-0.24,0-0.46-0.08-0.65-0.23
		c-0.24-0.19-0.39-0.63-0.45-1.31c-0.06-0.68-0.09-2.22-0.09-4.62v-1.44c0-1.94,0.07-3.01,0.22-3.2c0.1-0.14,0.37-0.34,0.81-0.58
		C60.39,166.79,60.82,166.6,61.24,166.47z"/>
	<path d="M70.26,168.7c0.3-0.17,0.6-0.25,0.9-0.25c0.4,0,0.7,0.12,0.92,0.36c0.23,0.23,0.53,0.34,0.9,0.34s0.67,0.06,0.89,0.18
		c0.22,0.12,0.51,0.37,0.87,0.76c0.38,0.42,0.65,0.76,0.78,1.03c0.14,0.27,0.25,0.67,0.33,1.2c0.1,0.6,0.14,1.04,0.14,1.33
		c0,0.41-0.09,0.86-0.27,1.35c-0.28,0.77-0.62,1.31-1.03,1.63c-0.41,0.32-1.13,0.61-2.18,0.87c-0.62,0.16-1.06,0.23-1.31,0.23
		c-0.38,0-0.91-0.17-1.57-0.52c-0.73-0.4-1.3-0.91-1.69-1.54s-0.59-1.31-0.59-2.04c0-0.65,0.16-1.3,0.49-1.94
		c0.25-0.5,0.65-1.09,1.19-1.76S69.98,168.85,70.26,168.7z M72.07,170.77c-0.19-0.17-0.34-0.25-0.45-0.25
		c-0.13,0-0.35,0.18-0.66,0.53c-0.31,0.35-0.61,0.78-0.91,1.29c-0.31,0.53-0.47,0.91-0.47,1.13c0,0.11,0.01,0.19,0.02,0.25
		c0.08,0.66,0.44,1.16,1.06,1.51l0.5,0.29l1.04-0.25c0.68-0.17,1.07-0.31,1.15-0.41c0.25-0.31,0.38-0.81,0.38-1.49
		c0-0.18-0.01-0.31-0.02-0.4c-0.05-0.38-0.14-0.66-0.27-0.84C73.33,171.96,72.87,171.51,72.07,170.77z"/>
	<path d="M85.32,170.14c0.19-0.2,0.44-0.31,0.74-0.31c0.32,0,0.59,0.11,0.81,0.34c0.16,0.16,0.25,0.31,0.29,0.48
		c0.04,0.16,0.05,0.53,0.05,1.11c0,1.81-0.35,3.38-1.06,4.7c-0.36,0.67-0.68,1.16-0.96,1.47c-0.28,0.31-0.64,0.57-1.07,0.78
		c-0.42,0.22-0.78,0.32-1.08,0.32c-0.08,0-0.25-0.01-0.49-0.04c-0.73-0.06-1.39-0.28-1.98-0.65c-0.59-0.37-1.04-0.85-1.35-1.44
		c-0.23-0.43-0.44-0.97-0.64-1.63c-0.2-0.65-0.32-1.19-0.37-1.61c-0.04-0.47-0.11-0.98-0.23-1.53c-0.05-0.24-0.07-0.45-0.07-0.63
		c0-0.17,0.05-0.34,0.16-0.5c0.25-0.4,0.56-0.59,0.92-0.59c0.06,0,0.15,0.01,0.27,0.04c0.56,0.13,0.91,0.7,1.03,1.71
		c0.12,1.06,0.31,1.97,0.56,2.75c0.25,0.78,0.52,1.27,0.81,1.46c0.38,0.25,0.73,0.38,1.03,0.38c0.48,0,0.92-0.35,1.33-1.04
		c0.55-0.92,0.87-2.2,0.95-3.82c0.02-0.61,0.06-1.03,0.11-1.24C85.12,170.43,85.2,170.26,85.32,170.14z"/>
	<path d="M96.47,167.82c0.21-0.07,0.43-0.11,0.65-0.11c0.6,0,1.13,0.3,1.58,0.9c0.37,0.5,0.7,1.85,0.99,4.03
		c0.14,1.08,0.22,1.85,0.22,2.32c0,0.53-0.12,0.9-0.34,1.12c-0.23,0.23-0.49,0.34-0.78,0.34c-0.28,0-0.52-0.11-0.72-0.32
		c-0.13-0.12-0.22-0.31-0.28-0.56c-0.05-0.25-0.12-0.78-0.19-1.58c-0.19-1.9-0.4-3.06-0.61-3.49c-0.06-0.12-0.11-0.18-0.14-0.18
		c-0.04,0-0.1,0.05-0.2,0.14c-0.14,0.14-0.48,0.73-1.01,1.76c-0.36,0.72-0.61,1.18-0.76,1.37c-0.14,0.19-0.36,0.36-0.63,0.5
		c-0.3,0.17-0.52,0.25-0.67,0.25c-0.07,0-0.22-0.04-0.43-0.13c-0.32-0.14-0.7-0.4-1.12-0.77s-0.65-0.56-0.7-0.56
		c-0.06,0-0.09,0.16-0.09,0.49c0,0.61,0.08,1.23,0.23,1.85c0.11,0.46,0.16,0.74,0.16,0.85c0,0.13-0.07,0.29-0.22,0.49
		c-0.26,0.36-0.56,0.54-0.88,0.54c-0.18,0-0.35-0.06-0.5-0.18c-0.36-0.28-0.6-0.62-0.72-1.04c-0.12-0.42-0.19-1.12-0.2-2.11
		c0-0.88,0.02-1.43,0.05-1.67s0.16-0.58,0.38-1.03c0.42-0.9,0.88-1.35,1.38-1.35c0.44,0,0.97,0.32,1.57,0.97
		c0.54,0.54,0.83,0.81,0.88,0.81c0.1,0,0.3-0.33,0.61-0.99c0.28-0.58,0.67-1.13,1.17-1.67S96.1,167.94,96.47,167.82z"/>
	<path d="M102.19,164.56c0.22-0.24,0.46-0.36,0.72-0.36c0.28,0,0.54,0.14,0.79,0.43c0.2,0.24,0.31,0.44,0.31,0.61
		c0,0.08-0.02,0.21-0.05,0.38c-0.14,0.86-0.48,1.3-1.01,1.3c-0.05,0-0.14-0.01-0.29-0.04c-0.54-0.12-0.81-0.56-0.81-1.33
		C101.85,165.16,101.96,164.83,102.19,164.56z M102.73,169.46c0.24-0.2,0.47-0.31,0.7-0.31s0.46,0.11,0.68,0.34
		c0.16,0.16,0.25,0.32,0.29,0.5c0.04,0.17,0.05,0.59,0.05,1.25c0,0.73,0.07,1.68,0.2,2.84c0.07,0.56,0.11,0.98,0.11,1.24
		c0,0.24-0.02,0.4-0.07,0.49c-0.22,0.41-0.53,0.61-0.94,0.61c-0.24,0-0.46-0.08-0.66-0.25s-0.33-0.4-0.41-0.68
		c-0.08-0.34-0.18-1.03-0.28-2.09c-0.1-1.06-0.15-1.88-0.15-2.48c0-0.05,0-0.11,0.01-0.2s0.01-0.14,0.01-0.16
		c0.02-0.31,0.07-0.54,0.13-0.68C102.46,169.73,102.57,169.59,102.73,169.46z"/>
</g>
<g>
	<g>
		<g>
			<path class="st0" d="M54.31,116.5c-0.04,0.11-0.09,0.22-0.13,0.33c1.28,0.62,2.54,1.68,3.86,1.77c4.1,0.3,8.24,0.48,12.33,0.25
				c4.99-0.28,10.15-0.15,14.27-3.97c1.03-0.95,1.75-1.76,1.65-3.15c-0.09-1.16-0.13-2.32-0.32-3.46c-0.6-3.52-1.21-7.05-1.94-10.55
				c-0.75-3.61-1.51-7.23-2.57-10.76c-0.35-1.18-1.43-2.46-2.52-3.02c-2.71-1.39-5.6-2.46-8.45-3.54
				c-5.44-2.06-10.89-4.08-16.36-6.03c-1.05-0.37-2.31-0.63-3.37-0.43c-3.4,0.65-6.83,1.11-10.15,2.34c-3,1.12-4.81,2.89-5.72,5.79
				c-1.14,3.63-2.24,7.27-3.36,10.91c-0.72,2.33-0.51,2.85,1.33,4.34c1.72,1.39,3.39,2.85,5.03,4.33c3.37,3.04,6.7,6.12,10.06,9.17
				C50.04,112.74,52.18,114.61,54.31,116.5z"/>
			<path d="M54.31,116.5c-2.13-1.89-4.27-3.76-6.38-5.67c-3.36-3.05-6.69-6.13-10.06-9.17c-1.64-1.48-3.31-2.94-5.03-4.33
				c-1.84-1.49-2.05-2.01-1.33-4.34c1.12-3.64,2.22-7.28,3.36-10.91c0.91-2.9,2.72-4.68,5.72-5.79c3.33-1.23,6.75-1.69,10.15-2.34
				c1.06-0.2,2.32,0.06,3.37,0.43c5.48,1.95,10.93,3.97,16.36,6.03c2.86,1.08,5.74,2.15,8.45,3.54c1.09,0.56,2.16,1.85,2.52,3.02
				c1.06,3.53,1.82,7.15,2.57,10.76c0.73,3.5,1.33,7.03,1.94,10.55c0.2,1.14,0.24,2.31,0.32,3.46c0.1,1.39-0.62,2.2-1.65,3.15
				c-4.12,3.81-9.28,3.68-14.27,3.97c-4.1,0.23-8.23,0.05-12.33-0.25c-1.32-0.1-2.58-1.15-3.86-1.77
				C54.22,116.72,54.26,116.61,54.31,116.5z M38.52,80.35c-2.69,3.66-3.64,7.57-4.73,11.42c-0.67,2.38-0.73,2.49,1.76,3.37
				c5,1.77,9.74,4.05,14.33,6.7c2,1.15,4.23,1.9,6.34,2.86c1.43,0.65,2.71,0.57,3.64-0.79c1.83-2.68,4.49-4.76,5.59-7.98
				c0.22-0.65,1.15-1.07,1.75-1.59c0.42,0.49,0.85,0.97,1.26,1.47c0.4,0.49,0.72,1.04,1.17,1.49c3.81,3.82,7.63,7.64,11.48,11.41
				c0.53,0.52,1.29,0.82,2.29,1.44c0.04-1.24,0.21-2,0.06-2.68c-1.28-5.75-1.61-11.68-3.38-17.34c-0.83-2.65-0.72-2.68-3.05-3.09
				c0.61-0.54,1.11-0.98,1.79-1.58c-0.65-0.28-1.11-0.5-1.58-0.67c-5.57-1.97-11.15-3.92-16.71-5.9c-2.19-0.78-4.33-1.69-6.53-2.44
				c-0.87-0.3-1.9-0.56-2.76-0.38c-2.99,0.64-5.94,1.46-8.89,2.26c-0.43,0.12-0.8,0.48-1.54,0.93c1.07,0.46,1.71,0.77,2.38,1.02
				c4.94,1.88,10.06,3.39,14.75,5.75c2.74,1.38,5.01,0.81,7.54,0.32c0.5-0.1,1-0.14,1.5-0.2c-0.85,1.04-1.84,1.6-2.88,2
				c-1.34,0.52-1.17,1.22-0.49,2.18c0.64,0.91,2.07,1.46,1.55,3.56c-1.55-1.73-2.78-3.14-4.05-4.5c-0.48-0.51-0.99-1.11-1.61-1.35
				c-2.93-1.15-5.91-2.2-8.87-3.28C46.59,83.28,42.56,81.82,38.52,80.35z M61.33,108.42c2.37-0.46,4.32,0.11,6.29,1.22
				c3.48,1.96,7.08,3.73,10.72,5.39c1.78,0.81,3.11,0.24,4-1.36c0.23-0.42,0.2-1.32-0.1-1.63c-1.49-1.59-2.99-3.23-4.71-4.55
				c-3.14-2.39-5.91-5.09-8.11-8.38c-0.5-0.75-1.27-1.31-1.83-1.86c-1.19,1.19-2.47,2-3.05,3.15c-1.24,2.45-4.53,3.65-4.25,7
				c0.01,0.15-0.48,0.3-0.68,0.51c-0.44,0.48-1.01,0.93-1.23,1.51c-0.36,0.98-0.32,2.13-0.75,3.07c-1.3,2.81-0.01,3.62,2.67,3.67
				c0.74,0.01,1.48-0.04,2.22-0.04c2.84,0,5.68,0.04,8.52,0c1.47-0.02,3.02,0.39,5.04-0.49C70.81,113.06,66.07,110.74,61.33,108.42z
				 M36.73,96.65c-0.12,0.18-0.23,0.37-0.35,0.55c5.76,6.22,12.12,11.74,18.96,16.89c0.55-1.77,0.99-3.27,1.49-4.76
				c0.8-2.35,0.8-2.46-1.48-3.66c-0.73-0.38-1.57-0.54-2.35-0.84c-1.57-0.6-3.2-1.1-4.68-1.87C44.42,100.93,40.59,98.77,36.73,96.65
				z"/>
			<path class="st0" d="M38.52,80.35c4.04,1.47,8.06,2.94,12.08,4.41c2.96,1.08,5.94,2.13,8.87,3.28c0.62,0.24,1.13,0.84,1.61,1.35
				c1.27,1.37,2.5,2.78,4.05,4.5c0.51-2.1-0.91-2.65-1.55-3.56c-0.67-0.96-0.85-1.66,0.49-2.18c1.05-0.4,2.04-0.96,2.88-2
				c-0.5,0.07-1.01,0.1-1.5,0.2c-2.53,0.49-4.79,1.06-7.54-0.32c-4.69-2.36-9.81-3.87-14.75-5.75c-0.66-0.25-1.31-0.56-2.38-1.02
				c0.74-0.46,1.11-0.81,1.54-0.93c2.95-0.8,5.9-1.62,8.89-2.26c0.86-0.18,1.89,0.08,2.76,0.38c2.2,0.74,4.34,1.66,6.53,2.44
				c5.56,1.99,11.14,3.93,16.71,5.9c0.47,0.17,0.93,0.39,1.58,0.67c-0.68,0.6-1.18,1.04-1.79,1.58c2.32,0.41,2.22,0.45,3.05,3.09
				c1.77,5.66,2.11,11.59,3.38,17.34c0.15,0.68-0.02,1.43-0.06,2.68c-1-0.62-1.76-0.92-2.29-1.44c-3.86-3.78-7.67-7.59-11.48-11.41
				c-0.44-0.44-0.77-1-1.17-1.49c-0.41-0.5-0.84-0.98-1.26-1.47c-0.6,0.52-1.53,0.94-1.75,1.59c-1.1,3.22-3.76,5.3-5.59,7.98
				c-0.93,1.36-2.21,1.44-3.64,0.79c-2.11-0.96-4.34-1.71-6.34-2.86c-4.59-2.65-9.33-4.92-14.33-6.7c-2.48-0.88-2.43-0.99-1.76-3.37
				C34.88,87.91,35.83,84.01,38.52,80.35z M70.8,88.55c0.07,0.32,0.14,0.63,0.22,0.95c1.68,0.08,3.1-0.63,4.39-1.85
				C73.88,87.94,72.34,88.25,70.8,88.55z"/>
			<path class="st0" d="M61.33,108.42c4.74,2.32,9.48,4.64,14.75,7.22c-2.02,0.88-3.57,0.46-5.04,0.49c-2.84,0.05-5.68,0-8.52,0
				c-0.74,0-1.48,0.05-2.22,0.04c-2.68-0.05-3.97-0.86-2.67-3.67c0.43-0.94,0.39-2.09,0.75-3.07c0.21-0.58,0.78-1.03,1.23-1.51
				c0.2-0.21,0.69-0.36,0.68-0.51c-0.28-3.35,3.01-4.55,4.25-7c0.58-1.15,1.86-1.96,3.05-3.15c0.56,0.56,1.33,1.12,1.83,1.86
				c2.2,3.29,4.97,5.98,8.11,8.38c1.73,1.32,3.22,2.95,4.71,4.55c0.3,0.32,0.33,1.21,0.1,1.63c-0.88,1.6-2.22,2.17-4,1.36
				c-3.64-1.66-7.24-3.43-10.72-5.39C65.66,108.53,63.7,107.96,61.33,108.42z"/>
			<path class="st0" d="M36.73,96.65c3.86,2.11,7.69,4.28,11.59,6.31c1.48,0.77,3.11,1.27,4.68,1.87c0.78,0.3,1.62,0.46,2.35,0.84
				c2.28,1.2,2.28,1.31,1.48,3.66c-0.5,1.48-0.94,2.99-1.49,4.76c-6.85-5.15-13.21-10.67-18.96-16.89
				C36.5,97.02,36.62,96.84,36.73,96.65z"/>
			<path d="M70.8,88.55c1.54-0.3,3.07-0.6,4.61-0.9c-1.29,1.22-2.72,1.94-4.39,1.85C70.95,89.18,70.88,88.86,70.8,88.55z"/>
		</g>
	</g>
	<g id="fTYDoK_1_">
		<g>
			<g>
				<path class="st0" d="M90.82,93.1c0.85,4.77,3.65,8.1,8.11,9.62c2.69,0.92,5.7,0.9,8.57,1.3c0.82,0.12,1.65,0.17,2.45,0.37
					c2.52,0.63,5,1.38,7.53,1.96c1.29,0.3,2.29,0.78,2.96,2c0.9,1.62,2.19,2.78,4.2,2.78c0.48,0,0.95-0.11,1.43-0.17
					c-0.14-0.5-0.27-1-0.43-1.49c-0.12-0.34-0.36-0.65-0.42-1c-0.64-3.85-2.68-6.95-5.27-9.73c-4.6-4.94-6.33-10.68-5.91-17.43
					c0.44-7.21-2.48-13.1-8.35-17.5c-2.19-1.64-4.2-3.53-6.19-5.42c-1.45-1.37-1.62-3.15-1.15-5.06c0.62-2.55,2.03-4.61,3.56-6.68
					c0.79-1.07,1.19-2.47,1.6-3.77c0.12-0.39-0.36-1.39-0.56-1.39c-1.07,0.01-2.21,0.08-3.17,0.49c-0.48,0.21-0.75,1.17-0.88,1.84
					c-0.9,4.51-2.42,8.73-5.83,11.99c-1.8,1.72-3.81,3.21-5.64,4.89c-6.79,6.27-7.82,16.49-1.41,23.29
					C88.44,86.61,90.17,89.56,90.82,93.1z"/>
				<path d="M90.82,93.1c-0.65-3.54-2.38-6.49-4.84-9.09c-6.42-6.8-5.38-17.02,1.41-23.29c1.83-1.69,3.84-3.18,5.64-4.89
					c3.41-3.26,4.93-7.48,5.83-11.99C99,43.17,99.27,42.2,99.75,42c0.96-0.41,2.1-0.48,3.17-0.49c0.2,0,0.68,1,0.56,1.39
					c-0.4,1.3-0.8,2.7-1.6,3.77c-1.53,2.07-2.95,4.13-3.56,6.68c-0.46,1.91-0.29,3.68,1.15,5.06c1.99,1.89,4,3.78,6.19,5.42
					c5.86,4.4,8.79,10.29,8.35,17.5c-0.41,6.75,1.32,12.49,5.91,17.43c2.58,2.77,4.62,5.88,5.27,9.73c0.06,0.35,0.3,0.66,0.42,1
					c0.16,0.49,0.29,0.99,0.43,1.49c-0.48,0.06-0.95,0.17-1.43,0.17c-2,0-3.3-1.15-4.2-2.78c-0.67-1.22-1.67-1.71-2.96-2
					c-2.53-0.58-5.01-1.33-7.53-1.96c-0.8-0.2-1.63-0.25-2.45-0.37c-2.87-0.4-5.88-0.38-8.57-1.3
					C94.47,101.2,91.67,97.87,90.82,93.1z M109.77,102.62c-0.73-2.03-1.1-4.3-2.26-6.04c-1.63-2.44-3.84-4.48-5.91-6.81
					c-0.45,3.65-0.88,7.2-1.34,10.92c-0.12-0.47-0.32-0.87-0.3-1.26c0.1-1.92-0.04-3.91,0.45-5.73c0.76-2.79,0.73-5.34-0.52-7.99
					c-1.3-2.77-2.3-5.68-3.43-8.54c-0.2,0.02-0.39,0.04-0.59,0.05c-0.93,4.78-1.86,9.57-2.79,14.35c-0.16-0.02-0.31-0.04-0.47-0.06
					c0.08-0.78,0.11-1.56,0.25-2.32c0.27-1.42,0.61-2.84,0.94-4.25c0.65-2.82,1.32-5.64,1.98-8.46c0.06-0.24,0.09-0.5,0.06-0.75
					c-0.39-3.53-0.8-7.05-1.19-10.48c-4.58,3.9-5.9,9.78-7.6,15.52c-0.14-0.51-0.14-0.99-0.03-1.44c0.43-1.66,0.83-3.33,1.37-4.96
					c1.26-3.8,3.1-7.25,6.18-9.94c0.34-0.29,0.63-0.83,0.64-1.27c0.06-2.32,0.01-4.64,0.01-6.98c-0.78,0.69-1.61,1.36-2.38,2.1
					c-2.75,2.64-5.99,4.74-7.82,8.35c-2.62,5.18-1.97,11.71,1.99,15.98c0.74,0.8,1.43,1.65,2.11,2.5c2.34,2.89,3.02,6.44,4.07,9.87
					c0.91,2.96,3.14,5,5.91,5.99c2.39,0.86,5.07,0.94,7.62,1.32c1.02,0.15,2.06,0.2,3.1,0.28c3.29,0.9,6.57,1.81,9.86,2.71
					c0.08-0.17,0.15-0.35,0.23-0.52c-3.72-2.62-7.45-5.25-11.17-7.87c-0.11,0.09-0.22,0.17-0.34,0.26c0.57,1.49,1.17,2.96,1.68,4.47
					C110.16,101.89,109.88,102.28,109.77,102.62z M122.75,106.09c0.09-0.05,0.18-0.1,0.27-0.15c-1.34-1.89-2.48-3.96-4.04-5.64
					c-5.08-5.47-7.23-11.76-6.63-19.24c0.49-6.15-2.03-11.35-6.83-15.16c-3.32-2.64-6.9-4.94-9.04-8.93
					c-0.57,2.06,0.02,3.61,1.44,4.79c2.27,1.89,4.62,3.69,6.92,5.55c1.1,0.89,2.17,1.82,3.25,2.74c-0.13,0.14-0.25,0.28-0.38,0.41
					c-3.8-3.02-7.6-6.05-11.31-8.99c-0.1,1.59-0.11,3.4-0.36,5.18c-0.29,2.04,0.45,3.58,1.71,5.1c2.1,2.53,4.95,3.94,7.71,5.48
					c2.78,1.55,4.23,4.13,5.65,6.78c-0.66-0.49-1.24-1.07-1.62-1.76c-1.23-2.29-3.1-3.84-5.36-5.04c-2.91-1.54-5.69-3.26-7.63-6.05
					c-0.06-0.08-0.24-0.08-0.48-0.15c0.04,0.41,0.02,0.72,0.12,1c0.96,2.85,1.97,5.68,2.89,8.54c0.52,1.63,1.64,2.68,2.93,3.7
					c2.07,1.64,4.04,3.4,6.06,5.11c1.34,1.14,2.68,2.28,4.02,3.41c0.38,0.32,0.78,0.63,1.16,0.94c-0.16,0.18-0.32,0.36-0.47,0.53
					c-3.97-3.46-7.93-6.93-11.9-10.39c-0.13,0.11-0.26,0.22-0.39,0.33c0.24,0.66,0.46,1.33,0.72,1.98
					c2.01,5.09,6.14,8.28,10.34,11.37c0.84,0.62,1.95,0.92,2.99,1.18c1.65,0.41,3.09,1.11,4.41,2.06c-0.06,0.13-0.13,0.26-0.19,0.39
					c-1.3-0.61-2.6-1.22-3.9-1.83c-0.02,0.06-0.04,0.11-0.05,0.17C117.42,101.7,120.08,103.89,122.75,106.09z"/>
				<path class="st0" d="M109.8,102.59c-1.03-0.09-2.06-0.14-3.08-0.29c-2.56-0.38-5.23-0.46-7.62-1.32c-2.77-0.99-5-3.03-5.91-5.99
					c-1.05-3.43-1.73-6.99-4.07-9.87c-0.69-0.85-1.37-1.7-2.11-2.5c-3.95-4.27-4.61-10.8-1.99-15.98c1.83-3.61,5.07-5.71,7.82-8.35
					c0.77-0.74,1.59-1.41,2.38-2.1c0.01,2.34,0.05,4.66-0.01,6.98c-0.01,0.43-0.3,0.97-0.64,1.27c-3.08,2.69-4.92,6.14-6.18,9.94
					c-0.54,1.62-0.94,3.3-1.37,4.96c-0.12,0.45-0.11,0.93,0.03,1.44c1.7-5.74,3.02-11.62,7.6-15.52c0.39,3.43,0.8,6.95,1.19,10.48
					c0.03,0.24-0.01,0.51-0.06,0.75c-0.65,2.82-1.32,5.64-1.98,8.46c-0.33,1.41-0.66,2.83-0.94,4.25c-0.15,0.76-0.17,1.55-0.25,2.32
					c0.16,0.02,0.31,0.04,0.47,0.06c0.93-4.78,1.86-9.57,2.79-14.35c0.2-0.02,0.39-0.04,0.59-0.05c1.13,2.85,2.13,5.76,3.43,8.54
					c1.25,2.66,1.28,5.2,0.52,7.99c-0.49,1.82-0.36,3.81-0.45,5.73c-0.02,0.39,0.18,0.8,0.3,1.26c0.46-3.72,0.89-7.27,1.34-10.92
					c2.07,2.33,4.29,4.38,5.91,6.81c1.16,1.74,1.54,4,2.26,6.04L109.8,102.59z"/>
				<path class="st0" d="M122.75,106.09c-2.67-2.19-5.33-4.38-8-6.57c0.02-0.06,0.04-0.11,0.05-0.17c1.3,0.61,2.6,1.22,3.9,1.83
					c0.06-0.13,0.13-0.26,0.19-0.39c-1.33-0.95-2.77-1.65-4.41-2.06c-1.03-0.26-2.15-0.57-2.99-1.18
					c-4.2-3.09-8.33-6.28-10.34-11.37c-0.26-0.65-0.48-1.32-0.72-1.98c0.13-0.11,0.26-0.22,0.39-0.33
					c3.97,3.46,7.93,6.93,11.9,10.39c0.16-0.18,0.32-0.36,0.47-0.53c-0.39-0.31-0.78-0.62-1.16-0.94c-1.34-1.14-2.68-2.28-4.02-3.41
					c-2.01-1.71-3.99-3.47-6.06-5.11c-1.29-1.02-2.41-2.08-2.93-3.7c-0.92-2.86-1.93-5.69-2.89-8.54c-0.09-0.28-0.07-0.59-0.12-1
					c0.24,0.07,0.42,0.07,0.48,0.15c1.93,2.79,4.72,4.51,7.63,6.05c2.27,1.2,4.13,2.75,5.36,5.04c0.37,0.69,0.96,1.27,1.62,1.76
					c-1.42-2.65-2.87-5.22-5.65-6.78c-2.76-1.54-5.61-2.95-7.71-5.48c-1.26-1.52-1.99-3.07-1.71-5.1c0.25-1.78,0.26-3.6,0.36-5.18
					c3.7,2.95,7.5,5.97,11.31,8.99c0.13-0.14,0.25-0.28,0.38-0.41c-1.08-0.91-2.15-1.85-3.25-2.74c-2.3-1.86-4.65-3.66-6.92-5.55
					c-1.43-1.19-2.01-2.74-1.44-4.79c2.14,3.99,5.71,6.29,9.04,8.93c4.8,3.81,7.32,9.01,6.83,15.16c-0.6,7.48,1.55,13.78,6.63,19.24
					c1.56,1.68,2.71,3.75,4.04,5.64C122.92,105.99,122.84,106.04,122.75,106.09z"/>
				<path class="st0" d="M109.77,102.62c0.11-0.33,0.39-0.73,0.3-0.99c-0.51-1.51-1.11-2.98-1.68-4.47
					c0.11-0.09,0.22-0.17,0.34-0.26c3.72,2.62,7.45,5.25,11.17,7.87c-0.08,0.17-0.15,0.35-0.23,0.52c-3.29-0.9-6.57-1.81-9.86-2.71
					C109.8,102.59,109.77,102.62,109.77,102.62z"/>
			</g>
		</g>
	</g>
	<g>
		<g>
			<path class="st0" d="M76.6,46.65c-0.03-0.1-0.05-0.16-0.07-0.23c-0.7-2.61-3.53-4.13-6.06-3.2c-1.97,0.72-3.39,2.04-3.96,4.12
				c-0.22,0.81-0.64,1.4-1.4,1.79c-1.8,0.91-3.58,1.86-5.39,2.76c-3.06,1.53-6.22,2.85-9.1,4.73c-0.2,0.13-0.51,0.18-0.76,0.14
				c-1.81-0.26-3.61-0.61-5.43-0.83c-9.14-1.11-18.27-2.19-27.42-3.26c-0.88-0.1-1.77-0.1-2.66-0.08c-0.2,0.01-0.39,0.3-0.58,0.47
				c0.19,0.14,0.36,0.35,0.57,0.4c9.8,2.28,19.6,4.54,29.4,6.8c0.27,0.06,0.55,0.11,0.95,0.19c-0.25,0.18-0.36,0.26-0.47,0.34
				c-3.01,1.97-6.01,3.94-9.02,5.9c-4.5,2.93-9.01,5.85-13.52,8.77c-1.06,0.69-2.13,1.37-3.18,2.08c-0.16,0.11-0.23,0.36-0.35,0.54
				c0.21,0.09,0.42,0.25,0.62,0.24c0.3-0.01,0.61-0.11,0.88-0.23c0.98-0.45,1.96-0.9,2.92-1.39c4.55-2.29,9.11-4.58,13.64-6.9
				c4.9-2.51,9.78-5.07,14.67-7.6c0.19-0.1,0.45-0.14,0.67-0.1c2.1,0.31,4.18,0.68,6.29,0.94c3.11,0.39,6.22,0.71,9.33,1.05
				c1.1,0.12,1.97,0.52,2.66,1.48c1.3,1.79,3.19,2.45,5.35,2.33c0.96-0.06,1.82-0.41,2.56-1.06c2.03-1.77,2.29-4.3,0.57-6.34
				c-1.28-1.53-3.04-1.94-4.95-1.85c-1.8,0.09-3.29,0.91-4.55,2.13c-0.97,0.94-2.08,1.26-3.38,1.08c-2.27-0.32-4.54-0.63-6.81-0.93
				c-1.59-0.21-2.82-1.06-3.89-2.21c0.55-1.21,1.18-2.37,2.37-3.03c2.21-1.23,4.46-2.39,6.69-3.59c1.16-0.62,2.32-0.64,3.49-0.08
				c0.15,0.07,0.32,0.12,0.48,0.18c1.31,0.49,2.65,0.67,4.03,0.36c2.36-0.53,4.17-1.68,4.76-4.23c0.03-0.15,0.22-0.28,0.36-0.38
				c0.82-0.57,1.72-1.06,2.47-1.72c0.9-0.79,1.32-1.86,1.17-3.09c-0.07-0.62-0.37-0.99-0.79-0.97c-0.4,0.02-0.56,0.31-0.54,1.04
				C79.31,44.77,78.17,46.26,76.6,46.65z"/>
			<path d="M76.6,46.65c1.57-0.39,2.71-1.88,2.68-3.45c-0.02-0.73,0.14-1.02,0.54-1.04c0.42-0.02,0.71,0.35,0.79,0.97
				c0.14,1.23-0.28,2.3-1.17,3.09c-0.75,0.66-1.64,1.15-2.47,1.72c-0.14,0.1-0.33,0.23-0.36,0.38c-0.59,2.54-2.4,3.69-4.76,4.23
				c-1.38,0.31-2.72,0.13-4.03-0.36c-0.16-0.06-0.33-0.11-0.48-0.18c-1.18-0.57-2.34-0.54-3.49,0.08c-2.23,1.2-4.48,2.35-6.69,3.59
				c-1.19,0.66-1.81,1.83-2.37,3.03c1.07,1.15,2.29,2,3.89,2.21c2.27,0.3,4.54,0.62,6.81,0.93c1.3,0.18,2.41-0.14,3.38-1.08
				c1.26-1.22,2.74-2.03,4.55-2.13c1.92-0.1,3.67,0.32,4.95,1.85c1.72,2.04,1.45,4.57-0.57,6.34c-0.74,0.65-1.6,1.01-2.56,1.06
				c-2.17,0.12-4.05-0.54-5.35-2.33c-0.7-0.96-1.56-1.36-2.66-1.48c-3.11-0.34-6.23-0.66-9.33-1.05c-2.1-0.26-4.19-0.64-6.29-0.94
				c-0.22-0.03-0.48,0.01-0.67,0.1c-4.89,2.53-9.77,5.09-14.67,7.6c-4.53,2.33-9.09,4.61-13.64,6.9c-0.96,0.48-1.94,0.94-2.92,1.39
				c-0.28,0.13-0.59,0.22-0.88,0.23c-0.2,0.01-0.41-0.16-0.62-0.24c0.11-0.18,0.18-0.43,0.35-0.54c1.05-0.71,2.12-1.39,3.18-2.08
				c4.51-2.92,9.02-5.84,13.52-8.77c3.01-1.96,6.01-3.93,9.02-5.9c0.11-0.07,0.22-0.15,0.47-0.34c-0.4-0.08-0.68-0.12-0.95-0.19
				c-9.8-2.26-19.6-4.52-29.4-6.8c-0.21-0.05-0.38-0.27-0.57-0.4c0.19-0.16,0.39-0.46,0.58-0.47c0.88-0.02,1.78-0.02,2.66,0.08
				c9.14,1.07,18.28,2.16,27.42,3.26c1.82,0.22,3.62,0.57,5.43,0.83c0.24,0.04,0.56-0.01,0.76-0.14c2.88-1.88,6.04-3.2,9.1-4.73
				c1.8-0.9,3.58-1.86,5.39-2.76c0.76-0.38,1.18-0.97,1.4-1.79c0.57-2.08,1.99-3.4,3.96-4.12c2.54-0.93,5.36,0.59,6.06,3.2
				C76.55,46.49,76.57,46.55,76.6,46.65z M79.91,42.66c-0.08,0.16-0.1,0.19-0.1,0.22c0.15,2.16-1.03,3.44-2.86,4.28
				c-0.53,0.24-0.78,0.12-0.9-0.4c-0.55-2.43-3.03-3.85-5.38-3.03c-1.81,0.64-3.11,1.85-3.63,3.75c-0.26,0.95-0.74,1.66-1.64,2.11
				c-2.57,1.28-5.13,2.58-7.69,3.89c-1.89,0.96-3.85,1.81-5.64,2.94c-5.42,3.43-10.77,6.97-16.15,10.47
				c-4.52,2.94-9.04,5.87-13.56,8.8c-0.91,0.59-1.82,1.18-2.73,1.76c0.15,0.01,0.28-0.02,0.39-0.08c1.33-0.67,2.65-1.35,3.98-2.02
				c3.54-1.8,7.07-3.59,10.61-5.39c4.67-2.37,9.34-4.73,13.99-7.12c1.09-0.56,2.12-1.25,3.19-1.86c1.25-0.71,2.13-1.74,2.73-3.04
				c0.6-1.27,1.45-2.32,2.71-2.99c2.01-1.07,4.02-2.13,6.02-3.21c1.41-0.76,2.83-0.97,4.32-0.21c0.17,0.08,0.35,0.13,0.53,0.19
				c1.48,0.57,2.98,0.56,4.47,0.06c1.85-0.62,3.15-1.75,3.51-3.77c0.03-0.18,0.22-0.36,0.39-0.46c0.54-0.33,1.13-0.58,1.65-0.92
				c0.75-0.49,1.37-1.13,1.72-1.99C80.12,44.03,80.17,43.41,79.91,42.66z M15.32,52.95c-0.01,0.06-0.02,0.12-0.03,0.18
				c0.06,0.02,0.11,0.03,0.17,0.05c9.59,2.22,19.19,4.43,28.78,6.67c0.77,0.18,1.41,0.2,2.02-0.36c0.3-0.27,0.69-0.44,1.03-0.67
				c0.74-0.48,1.47-0.97,2.33-1.54C38.15,55.35,26.66,54.8,15.32,52.95z M51.95,61.7c0.13,0,0.24-0.02,0.34-0.01
				c2.03,0.29,4.06,0.61,6.09,0.86c3.14,0.39,6.29,0.74,9.43,1.1c1,0.11,1.73,0.58,2.32,1.42c1.14,1.63,2.79,2.31,4.74,2.31
				c0.96,0,1.84-0.31,2.58-0.98c2.26-2.03,1.83-5.27-0.88-6.63c-0.91-0.46-1.88-0.61-2.89-0.59c-1.84,0.03-3.31,0.88-4.6,2.1
				c-0.96,0.91-2.07,1.31-3.37,1.13c-2.56-0.35-5.12-0.68-7.67-1.07c-1.06-0.16-1.96-0.7-2.75-1.41c-0.25-0.22-0.51-0.45-0.69-0.61
				C53.71,60.1,52.89,60.85,51.95,61.7z"/>
			<path class="st0" d="M79.91,42.66c0.26,0.75,0.21,1.37-0.04,1.99c-0.35,0.85-0.97,1.49-1.72,1.99c-0.53,0.35-1.11,0.6-1.65,0.92
				c-0.17,0.1-0.36,0.29-0.39,0.46c-0.36,2.02-1.66,3.16-3.51,3.77c-1.49,0.5-2.99,0.51-4.47-0.06c-0.18-0.07-0.36-0.11-0.53-0.19
				c-1.48-0.75-2.91-0.54-4.32,0.21c-2,1.08-4.02,2.13-6.02,3.21c-1.26,0.67-2.11,1.72-2.71,2.99c-0.61,1.29-1.48,2.33-2.73,3.04
				c-1.07,0.61-2.1,1.3-3.19,1.86c-4.66,2.39-9.33,4.75-13.99,7.12c-3.54,1.8-7.08,3.59-10.61,5.39c-1.33,0.67-2.65,1.35-3.98,2.02
				c-0.12,0.06-0.24,0.09-0.39,0.08c0.91-0.59,1.82-1.18,2.73-1.76c4.52-2.93,9.04-5.86,13.56-8.8c5.38-3.49,10.73-7.04,16.15-10.47
				c1.78-1.13,3.75-1.98,5.64-2.94c2.56-1.3,5.12-2.6,7.69-3.89c0.9-0.45,1.38-1.16,1.64-2.11c0.52-1.9,1.82-3.11,3.63-3.75
				c2.35-0.82,4.82,0.6,5.38,3.03c0.12,0.53,0.37,0.65,0.9,0.4c1.83-0.84,3.01-2.12,2.86-4.28C79.8,42.85,79.83,42.82,79.91,42.66z
				 M75.37,45.77c-0.54-0.92-1.13-1.41-1.89-1.71c-2.28-0.88-5.01,0.42-5.88,2.81c-0.82,2.24,0.56,4.52,2.93,4.82
				c2.13,0.28,4.27-1.04,4.97-3.07C75.86,47.57,75.8,46.54,75.37,45.77z M49.37,60.23c0.4,0.69,1.27,0.92,1.95,0.52
				c0.68-0.39,0.9-1.28,0.5-1.96c-0.4-0.69-1.27-0.91-1.96-0.52C49.19,58.67,48.97,59.55,49.37,60.23z"/>
			<path class="st0" d="M15.32,52.95c11.33,1.85,22.83,2.4,34.31,4.33c-0.87,0.57-1.6,1.06-2.33,1.54
				c-0.34,0.22-0.73,0.39-1.03,0.67c-0.61,0.56-1.25,0.54-2.02,0.36c-9.59-2.24-19.19-4.45-28.78-6.67
				c-0.06-0.01-0.11-0.03-0.17-0.05C15.31,53.07,15.32,53.01,15.32,52.95z"/>
			<path class="st0" d="M51.95,61.7c0.94-0.84,1.77-1.59,2.63-2.37c0.18,0.16,0.44,0.38,0.69,0.61c0.8,0.71,1.7,1.25,2.75,1.41
				c2.55,0.39,5.11,0.72,7.67,1.07c1.31,0.18,2.41-0.22,3.37-1.13c1.29-1.22,2.76-2.07,4.6-2.1c1.01-0.02,1.98,0.13,2.89,0.59
				c2.72,1.37,3.14,4.6,0.88,6.63c-0.74,0.66-1.62,0.98-2.58,0.98c-1.94,0-3.6-0.68-4.74-2.31c-0.58-0.84-1.32-1.3-2.32-1.42
				c-3.14-0.36-6.29-0.71-9.43-1.1c-2.04-0.25-4.06-0.57-6.09-0.86C52.19,61.68,52.08,61.69,51.95,61.7z M70.53,64.93
				c1.08,1.83,3.48,2.69,5.49,1.96c2.47-0.89,3.32-3.53,1.81-5.62c-1.19-1.66-3.72-2.32-5.58-1.46C70.15,60.78,69.39,63,70.53,64.93
				z"/>
			<path d="M75.37,45.77c0.43,0.77,0.5,1.8,0.13,2.86c-0.7,2.03-2.84,3.35-4.97,3.07c-2.36-0.31-3.74-2.59-2.93-4.82
				c0.87-2.39,3.6-3.69,5.88-2.81C74.24,44.36,74.83,44.85,75.37,45.77z M74.76,45.82c-0.37-0.63-0.91-1.05-1.6-1.29
				c-2.08-0.71-4.52,0.6-5.12,2.73c-0.53,1.9,0.59,3.64,2.55,3.89c1.36,0.18,2.53-0.28,3.48-1.26
				C75.25,48.71,75.51,47.07,74.76,45.82z"/>
			<path d="M49.37,60.23c-0.4-0.69-0.18-1.56,0.5-1.96c0.69-0.4,1.55-0.17,1.96,0.52c0.4,0.68,0.18,1.57-0.5,1.96
				C50.64,61.15,49.78,60.92,49.37,60.23z M50.15,58.74c-0.41,0.24-0.55,0.78-0.32,1.2c0.25,0.44,0.8,0.59,1.23,0.33
				c0.4-0.24,0.53-0.8,0.28-1.21C51.1,58.65,50.56,58.5,50.15,58.74z"/>
			<path d="M70.53,64.93c-1.13-1.92-0.38-4.15,1.73-5.12c1.86-0.86,4.39-0.19,5.58,1.46c1.5,2.09,0.66,4.73-1.81,5.62
				C74.01,67.62,71.61,66.76,70.53,64.93z M72.11,60.5c-1.57,0.92-2.02,2.67-1.07,4.23c1.08,1.78,3.66,2.42,5.46,1.34
				c1.41-0.84,1.94-2.55,1.22-3.95C76.7,60.14,74.05,59.37,72.11,60.5z"/>
			<path class="st0" d="M74.76,45.82c0.74,1.26,0.48,2.89-0.69,4.08c-0.95,0.97-2.12,1.43-3.48,1.26c-1.96-0.25-3.09-1.99-2.55-3.89
				c0.6-2.14,3.04-3.44,5.12-2.73C73.85,44.76,74.4,45.18,74.76,45.82z"/>
			<path class="st0" d="M50.15,58.74c0.41-0.24,0.95-0.09,1.2,0.32c0.25,0.41,0.12,0.97-0.28,1.21c-0.43,0.26-0.98,0.11-1.23-0.33
				C49.6,59.52,49.74,58.98,50.15,58.74z"/>
			<path class="st0" d="M72.11,60.5c1.93-1.13,4.59-0.36,5.61,1.62c0.72,1.4,0.2,3.11-1.22,3.95c-1.8,1.08-4.38,0.44-5.46-1.34
				C70.1,63.17,70.54,61.42,72.11,60.5z"/>
		</g>
	</g>
</g>
</svg>
