<?xml version="1.0" encoding="utf-8"?>
<!-- Generator: Adobe Illustrator 23.1.0, SVG Export Plug-In . SVG Version: 6.00 Build 0)  -->
<svg version="1.1" id="Calque_1" xmlns="http://www.w3.org/2000/svg" xmlns:xlink="http://www.w3.org/1999/xlink" x="0px" y="0px"
	 viewBox="0 0 595.28 353.07" style="enable-background:new 0 0 595.28 353.07;" xml:space="preserve">
<style type="text/css">
	.st0{fill:#FFFFFF;}
</style>
<g>
	<g>
		<path class="st0" d="M511.33,182.97c21.69-5.68,40.02-14.91,56.42-27.44c14.26-10.89,23.53-25.32,26.6-43.49
			c2.36-13.95-0.26-27.43-2.52-41c-3.46-20.74-13.28-37.55-31.89-47.98c-12.86-7.21-26.37-13.28-39.68-19.67
			c-3.3-1.58-7-3.49-10.46-3.39c-23.69,0.69-47.86-1.32-69.96,10.21c-5.1,2.66-9.9,5.92-15.09,8.36
			c-18.63,8.78-35.44,20.15-48.76,35.91c-7.56,8.95-16.33,11.87-27.73,10.97c-19.94-1.58-39.59-6.65-59.81-5.03
			c-2.13,0.17-4.36-1.01-6.54-1.56c-15.66-3.91-31.31-7.84-46.99-11.7c-4.57-1.12-9.21-1.93-13.78-3.04
			c-7.54-1.83-14.57-7.44-22.96-2.96c-0.56,0.3-1.58-0.24-2.39-0.4c-27.11-5.51-54.41-10.07-80.95-18.26
			c-14.3-4.41-28.96-7.71-43.55-11.11c-23.79-5.54-42.42,2.01-55.55,22.73c-2.75,4.34-5.14,8.91-8.09,13.11
			C-3.56,63.17-0.5,80.11,4.53,96.89c1.4,4.68,4.76,9.37,8.46,12.68c15.29,13.7,32.11,25.07,52.62,29.51
			c20.86,4.51,41.83,8.51,62.69,13.02c27.43,5.94,55.79,6.41,82.85,14.73c15.46,4.76,31.36,8.1,47.04,12.17
			c3.42,0.88,6.17,2.3,4.79,6.92c-0.25,0.85,1.67,3.06,2.99,3.56c10.77,4.03,21.51,8.2,32.5,11.54c12.81,3.9,24.94,8.17,29.49,22.69
			c0.97,3.09,2.93,5.89,3.82,8.99c3.28,11.43,7.18,22.78,9.15,34.45c1.71,10.15,6.41,18.54,11.67,26.79
			c5.18,8.14,10.97,15.91,16.79,23.61c6.67,8.81,34,23.68,44.97,25.28c5.21,0.76,10.31,2.34,15.42,3.71
			c4.35,1.17,8.57,3.01,12.98,3.81c24.43,4.44,48.73,3.82,72.19-4.73c14.72-5.36,27.81-14.36,35.32-28.31
			c7.56-14.04,10.77-29.3,8.71-45.99c-1.47-11.9-0.66-24.15-4.37-35.8c-1.96-6.17-3.4-12.95-7.05-18.04
			C538.11,204.32,527.66,191.86,511.33,182.97z"/>
		<path d="M511.33,182.97c16.33,8.9,26.78,21.35,36.22,34.51c3.65,5.09,5.09,11.87,7.05,18.04c3.7,11.65,2.9,23.9,4.37,35.8
			c2.06,16.69-1.15,31.95-8.71,45.99c-7.51,13.95-20.6,22.95-35.32,28.31c-23.46,8.54-47.75,9.16-72.19,4.73
			c-4.41-0.8-8.62-2.64-12.98-3.81c-5.11-1.37-10.21-2.95-15.42-3.71c-10.98-1.6-38.31-16.46-44.97-25.28
			c-5.83-7.7-11.61-15.48-16.79-23.61c-5.26-8.25-9.95-16.64-11.67-26.79c-1.97-11.67-5.87-23.02-9.15-34.45
			c-0.89-3.11-2.85-5.9-3.82-8.99c-4.56-14.51-16.68-18.78-29.49-22.69c-10.99-3.35-21.73-7.51-32.5-11.54
			c-1.32-0.5-3.25-2.71-2.99-3.56c1.38-4.62-1.37-6.03-4.79-6.92c-15.68-4.06-31.58-7.41-47.04-12.17
			c-27.06-8.32-55.42-8.8-82.85-14.73c-20.86-4.51-41.83-8.51-62.69-13.02c-20.5-4.44-37.33-15.81-52.62-29.51
			c-3.69-3.31-7.05-7.99-8.46-12.68C-0.5,80.11-3.56,63.17,7.65,47.23c2.95-4.19,5.34-8.77,8.09-13.11
			C28.87,13.41,47.51,5.86,71.29,11.4c14.59,3.4,29.25,6.7,43.55,11.11c26.54,8.18,53.84,12.75,80.95,18.26
			c0.8,0.16,1.82,0.7,2.39,0.4c8.39-4.49,15.42,1.13,22.96,2.96c4.57,1.11,9.22,1.92,13.78,3.04c15.67,3.86,31.33,7.79,46.99,11.7
			c2.19,0.55,4.42,1.73,6.54,1.56c20.22-1.62,39.87,3.45,59.81,5.03c11.4,0.91,20.17-2.02,27.73-10.97
			c13.32-15.76,30.13-27.13,48.76-35.91c5.19-2.45,9.99-5.71,15.09-8.36C461.94-1.32,486.11,0.7,509.8,0
			c3.46-0.1,7.16,1.81,10.46,3.39c13.31,6.38,26.82,12.46,39.68,19.67c18.61,10.43,28.44,27.24,31.89,47.98
			c2.26,13.57,4.88,27.05,2.52,41c-3.07,18.18-12.34,32.6-26.6,43.49C551.35,168.06,533.02,177.29,511.33,182.97z M551.37,281.43
			c-1.1-9.79-2.33-17.52-2.78-25.3c-1.71-29.39-18.79-48.98-41.25-65.12c-4.61-3.31-9.3-7.01-14.54-8.82
			c-8.09-2.79-16.59-4.92-25.09-5.91c-31.91-3.74-62.44-13.12-93.17-21.77c-16.48-4.64-33.07-8.89-49.53-13.61
			c-9.82-2.81-19.51-6.13-29.21-9.34c-3.53-1.17-6.57-1.51-7.88,2.89c-4.42,14.92-8.91,29.83-12.98,44.85
			c-0.38,1.41,1.61,4.69,3.14,5.21c15.53,5.21,31.23,9.93,46.78,15.08c2.02,0.67,3.96,2.74,5.13,4.65
			c9.94,16.16,15.15,34.21,18.3,52.58c3.9,22.76,13.35,42.05,30.24,57.64c10.85,10.02,24.09,15.35,38.24,18.91
			c11.7,2.94,23.13,7.87,34.97,9.11c13.05,1.37,26.44-0.73,39.68-0.83c27.32-0.22,40.87-19.27,53.14-39.33
			C548.59,295.74,549.55,287.29,551.37,281.43z M163.04,150.95c4-0.65,6.39-0.6,8.4-1.44c14.32-5.95,28.62-11.98,42.81-18.22
			c6.37-2.8,12.39-6.39,18.75-9.19c11.06-4.87,22.13-9.78,33.46-13.98c13.14-4.86,24.05-11.09,23.27-27.51
			c-0.03-0.54,0.56-1.09,0.72-1.67c2.44-8.47,1.97-10.18-6.55-12.32c-18-4.51-36.17-8.38-54.27-12.48
			c-2.58-0.59-5.46-0.48-7.76-1.61c-12.7-6.26-23.26-1.63-33.61,5.75c-2,1.43-5.27,2.25-7.64,1.78
			c-11.84-2.37-23.59-5.17-35.33-7.99c-16.9-4.05-33.75-8.29-50.65-12.37c-17.28-4.17-34.57-8.26-51.87-12.36
			c-8.06-1.91-16.03,0.87-19.81,7.6C18.95,42.09,14.89,49.34,12.11,57c-2.25,6.2-4.28,13.29-3.44,19.6
			c1.25,9.39,5.54,18.03,10.49,26.54c8.42,14.49,21.79,22.03,36.37,25.04c19.8,4.07,38.5,12.17,58.97,13.94
			C131.34,143.56,147.92,148.09,163.04,150.95z M587.3,77.13c-0.27-0.14-0.55-0.27-0.82-0.41c-1.2-4.5-1.76-9.29-3.7-13.44
			c-9.39-20.15-24-35.27-45-43.18c-12.7-4.79-24.77-12.23-39.39-10.29c-7.31,0.97-14.75,0.93-22.14,1.31
			c-12.59,0.63-25.26,2.21-36.29,8.3c-17.38,9.59-35.24,18.52-49.76,32.73c-6.71,6.57-14.75,11.78-22.27,17.5
			c-1.08,0.82-2.64,1.52-3.95,1.47c-18.4-0.68-37.06,2.56-55.14-3.15c-5.02-1.58-7.65-0.44-8.57,5c-2.5,14.73-5.21,29.43-7.92,44.13
			c-0.73,3.95,0.8,6.26,4.5,7.49c7.19,2.38,14.26,5.24,21.56,7.18c15.44,4.1,31.07,7.45,46.49,11.62
			c21.32,5.77,42.43,12.34,63.8,17.94c17.81,4.67,35.83,8.54,53.81,12.52c3.73,0.83,7.73,0.98,11.56,0.76
			c27-1.55,50.69-11.81,71.26-28.88c10.12-8.4,18.88-18.19,19.31-32.89C585.01,100.91,586.38,89.03,587.3,77.13z M181.32,150.72
			c0.36,0.98,0.42,1.59,0.62,1.64c15.68,3.85,31.37,7.7,47.08,11.44c8.95,2.13,18.03,3.75,26.89,6.18
			c10.82,2.97,11.29,3.4,14.52-7.12c7.88-25.64,11.2-19.16-8.44-38.98c-6.64-6.7-7.25-6.43-15.91-2.33
			c-15.53,7.36-31.24,14.31-46.91,21.38C193.25,145.62,187.25,148.14,181.32,150.72z M189.98,49.22c-0.19-0.56-0.38-1.12-0.56-1.68
			c-10.63-2.75-21.2-5.77-31.91-8.18c-10.93-2.46-22.09-3.91-32.98-6.52c-17.68-4.23-35.13-9.42-52.85-13.44
			c-7.9-1.79-16.22-1.87-24.36-2.39c-1.4-0.09-2.92,1.46-4.38,2.25c1.33,0.99,2.53,2.52,4.02,2.89c10.33,2.55,20.69,5.03,31.1,7.21
			c18.42,3.85,36.9,7.42,55.34,11.22c16.63,3.43,33.21,7.13,49.88,10.39C185.31,51.38,187.73,49.86,189.98,49.22z M262.05,114.33
			c6.25,5.52,11.28,9.96,16.84,14.87c0.61-7.58,1.1-13.58,1.7-20.98C274.39,110.25,269.1,112,262.05,114.33z"/>
		<path class="st0" d="M551.37,281.43c-1.82,5.86-2.79,14.31-6.81,20.89c-12.26,20.05-25.81,39.11-53.14,39.33
			c-13.24,0.11-26.63,2.2-39.68,0.83c-11.84-1.24-23.27-6.17-34.97-9.11c-14.15-3.56-27.39-8.89-38.24-18.91
			c-16.89-15.59-26.34-34.88-30.24-57.64c-3.15-18.36-8.36-36.41-18.3-52.58c-1.18-1.91-3.11-3.98-5.13-4.65
			c-15.55-5.15-31.25-9.87-46.78-15.08c-1.53-0.51-3.53-3.8-3.14-5.21c4.07-15.02,8.56-29.93,12.98-44.85
			c1.3-4.4,4.35-4.06,7.88-2.89c9.71,3.21,19.39,6.52,29.21,9.34c16.46,4.71,33.05,8.97,49.53,13.61
			c30.73,8.65,61.26,18.04,93.17,21.77c8.49,0.99,17,3.12,25.09,5.91c5.24,1.81,9.93,5.51,14.54,8.82
			c22.46,16.15,39.54,35.73,41.25,65.12C549.04,263.9,550.27,271.63,551.37,281.43z M429.22,201.04
			c-12.16,0.15-22.7,4.95-32.32,11.23c-13.09,8.53-16.68,20.01-12.77,35.05c1.28,4.95,2.71,10.06,2.71,15.1
			c0.01,15.1,9.87,24.77,19.95,32.74c9.69,7.67,20.12,15.48,32.55,18.88c13.09,3.58,25.59,7.61,40.16,4.34
			c17.42-3.91,26.08-16.91,33.28-29.54c7.2-12.64,5.26-28.59-2.91-41.24C491.08,218.53,463.54,203.61,429.22,201.04z"/>
		<path class="st0" d="M163.04,150.95c-15.12-2.86-31.7-7.39-48.54-8.84c-20.47-1.77-39.17-9.86-58.97-13.94
			c-14.58-3-27.95-10.55-36.37-25.04C14.21,94.62,9.92,85.98,8.67,76.6c-0.84-6.3,1.2-13.4,3.44-19.6
			c2.78-7.66,6.84-14.91,10.86-22.05c3.79-6.73,11.76-9.51,19.81-7.6c17.29,4.1,34.59,8.18,51.87,12.36
			c16.89,4.08,33.75,8.32,50.65,12.37c11.74,2.82,23.49,5.62,35.33,7.99c2.37,0.47,5.64-0.35,7.64-1.78
			c10.36-7.38,20.91-12.01,33.61-5.75c2.29,1.13,5.17,1.03,7.76,1.61c18.1,4.11,36.27,7.98,54.27,12.48
			c8.52,2.13,8.99,3.85,6.55,12.32c-0.17,0.58-0.75,1.13-0.72,1.67c0.78,16.43-10.13,22.65-23.27,27.51
			c-11.33,4.19-22.4,9.11-33.46,13.98c-6.37,2.8-12.39,6.39-18.75,9.19c-14.2,6.24-28.49,12.26-42.81,18.22
			C169.42,150.35,167.04,150.3,163.04,150.95z M197.23,123.63c0-0.14,0-0.27,0-0.41c2.46,0,4.93,0.19,7.37-0.04
			c6.08-0.58,10.69-3.77,12.27-9.6c2.21-8.14,2.16-16.58-3.66-23.34c-9.81-11.41-18.61-11.68-28.34-2.62
			c-0.89,0.83-1.8,1.66-2.8,2.36c-6.17,4.32-8.7,13.49-6.34,23.14c1.21,4.95,8.57,10.01,15.38,10.49
			C193.14,123.75,195.19,123.63,197.23,123.63z"/>
		<path class="st0" d="M587.3,77.13c-0.92,11.9-2.29,23.78-2.65,35.69c-0.44,14.69-9.19,24.49-19.31,32.89
			c-20.57,17.07-44.26,27.33-71.26,28.88c-3.84,0.22-7.83,0.07-11.56-0.76c-17.98-3.98-36-7.85-53.81-12.52
			c-21.36-5.6-42.47-12.18-63.8-17.94c-15.42-4.17-31.05-7.52-46.49-11.62c-7.31-1.94-14.37-4.8-21.56-7.18
			c-3.7-1.23-5.23-3.54-4.5-7.49c2.71-14.7,5.42-29.39,7.92-44.13c0.92-5.44,3.55-6.58,8.57-5c18.08,5.71,36.74,2.47,55.14,3.15
			c1.31,0.05,2.87-0.65,3.95-1.47c7.52-5.72,15.56-10.93,22.27-17.5c14.51-14.2,32.38-23.14,49.76-32.73
			c11.03-6.09,23.69-7.66,36.29-8.3c7.39-0.37,14.83-0.34,22.14-1.31c14.62-1.94,26.69,5.5,39.39,10.29
			c21,7.92,35.61,23.03,45,43.18c1.93,4.15,2.5,8.94,3.7,13.44C586.75,76.86,587.03,76.99,587.3,77.13z M472.61,146.07
			c15.5-1.3,27.36-2.17,39.19-3.37c2.78-0.28,5.88-1.09,8.08-2.69c9.09-6.62,18.53-12.95,26.61-20.69
			c8.82-8.44,14.64-19.84,13.85-31.95c-1.33-20.5-14.7-33.95-32.04-42.74c-9.37-4.75-20-7.43-30.35-9.76
			c-14.41-3.25-28.93-1.3-41.65,5.87c-11.89,6.69-22.59,15.15-31.3,26.39c-11.34,14.63-13.2,30.19-9.16,47.29
			c0.55,2.33,1.71,4.74,3.25,6.56c7.07,8.37,14.62,16.39,25.73,19.17C455.07,142.71,465.51,144.58,472.61,146.07z"/>
		<path class="st0" d="M181.32,150.72c5.94-2.58,11.94-5.1,17.87-7.78c15.66-7.07,31.38-14.02,46.91-21.38
			c8.65-4.1,9.27-4.37,15.91,2.33c19.64,19.82,16.32,13.34,8.44,38.98c-3.23,10.51-3.7,10.08-14.52,7.12
			c-8.86-2.43-17.95-4.05-26.89-6.18c-15.71-3.74-31.39-7.6-47.08-11.44C181.74,152.31,181.68,151.7,181.32,150.72z"/>
		<path class="st0" d="M189.98,49.22c-2.25,0.63-4.67,2.16-6.71,1.76c-16.66-3.27-33.24-6.96-49.88-10.39
			c-18.43-3.8-36.92-7.37-55.34-11.22c-10.41-2.18-20.77-4.66-31.1-7.21c-1.49-0.37-2.69-1.9-4.02-2.89
			c1.46-0.79,2.97-2.34,4.38-2.25c8.15,0.53,16.46,0.6,24.36,2.39c17.72,4.02,35.17,9.21,52.85,13.44
			c10.89,2.61,22.05,4.06,32.98,6.52c10.71,2.41,21.28,5.43,31.91,8.18C189.6,48.11,189.79,48.67,189.98,49.22z"/>
		<path class="st0" d="M262.05,114.33c7.06-2.33,12.35-4.07,18.54-6.12c-0.6,7.4-1.09,13.41-1.7,20.98
			C273.33,124.29,268.3,119.84,262.05,114.33z"/>
		<path d="M429.22,201.04c34.32,2.57,61.86,17.49,80.64,46.56c8.18,12.65,10.11,28.6,2.91,41.24c-7.2,12.64-15.85,25.63-33.28,29.54
			c-14.57,3.27-27.07-0.76-40.16-4.34c-12.43-3.41-22.86-11.22-32.55-18.88c-10.08-7.97-19.94-17.64-19.95-32.74
			c0-5.04-1.43-10.15-2.71-15.1c-3.91-15.04-0.32-26.52,12.77-35.05C406.53,205.99,417.06,201.19,429.22,201.04z M457.48,311.95
			c19.44-1.09,28.66-4.35,38.48-14.84c11.55-12.34,14.03-36.43,3.61-47.93c-12.42-13.71-24.04-28.54-43.56-33.78
			c-15.1-4.05-29.79-7.29-44.27,0.84c-11.12,6.25-20,15.27-18.6,28.83c1.47,14.27,5.88,27.89,16.25,39.06
			c8.75,9.43,19.36,15.83,30.57,21.41C445.49,308.3,451.62,309.85,457.48,311.95z"/>
		<path d="M197.23,123.63c-2.04,0-4.09,0.12-6.12-0.02c-6.81-0.47-14.17-5.54-15.38-10.49c-2.36-9.65,0.17-18.81,6.34-23.14
			c1-0.7,1.91-1.53,2.8-2.36c9.73-9.06,18.53-8.79,28.34,2.62c5.82,6.76,5.87,15.2,3.66,23.34c-1.58,5.83-6.19,9.02-12.27,9.6
			c-2.44,0.23-4.91,0.04-7.37,0.04C197.23,123.36,197.23,123.49,197.23,123.63z M198.69,118.16c6.37,0.19,11.27-4.69,11.61-11.58
			c0.41-8.23-5.74-13.96-15.01-13.98c-7.14-0.02-12.2,4.68-12.35,11.47C182.76,112.13,189.17,117.88,198.69,118.16z"/>
		<path d="M472.61,146.07c-7.1-1.49-17.53-3.36-27.79-5.93c-11.11-2.78-18.66-10.8-25.73-19.17c-1.54-1.82-2.7-4.24-3.25-6.56
			c-4.04-17.09-2.18-32.66,9.16-47.29c8.71-11.24,19.41-19.7,31.3-26.39c12.73-7.16,27.24-9.11,41.65-5.87
			c10.35,2.33,20.98,5.01,30.35,9.76c17.35,8.79,30.71,22.24,32.04,42.74c0.79,12.11-5.03,23.51-13.85,31.95
			c-8.08,7.73-17.52,14.07-26.61,20.69c-2.2,1.6-5.3,2.41-8.08,2.69C499.97,143.91,488.11,144.78,472.61,146.07z M478.3,135.17
			c20.34-1.44,39.56-4.92,57.06-17.79c17.57-12.91,21.99-47.39-1.18-59.4c-8.51-4.41-17.04-10.28-26.15-11.71
			c-13.18-2.07-26.9-0.79-40.39-0.69c-1.66,0.01-3.62,1.17-4.91,2.37c-10.82,10.05-22.38,19.48-31.98,30.6
			c-8.61,9.98-9.2,23.52-3.71,34.7c6.34,12.91,16.8,22.88,33.42,21.96C466.4,134.89,472.36,135.17,478.3,135.17z"/>
		<path class="st0" d="M457.48,311.95c-5.86-2.1-11.99-3.65-17.52-6.4c-11.21-5.58-21.82-11.99-30.57-21.41
			c-10.37-11.17-14.78-24.79-16.25-39.06c-1.4-13.55,7.48-22.58,18.6-28.83c14.48-8.14,29.17-4.89,44.27-0.84
			c19.53,5.24,31.15,20.06,43.56,33.78c10.41,11.5,7.94,35.58-3.61,47.93C486.14,307.6,476.92,310.86,457.48,311.95z"/>
		<path class="st0" d="M198.69,118.16c-9.51-0.28-15.93-6.03-15.75-14.1c0.15-6.79,5.21-11.49,12.35-11.47
			c9.27,0.03,15.42,5.75,15.01,13.98C209.95,113.47,205.06,118.35,198.69,118.16z"/>
		<path class="st0" d="M478.3,135.17c-5.95,0-11.91-0.28-17.84,0.05c-16.61,0.92-27.08-9.05-33.42-21.96
			c-5.49-11.18-4.9-24.72,3.71-34.7c9.6-11.12,21.16-20.55,31.98-30.6c1.29-1.2,3.25-2.36,4.91-2.37
			c13.49-0.1,27.21-1.38,40.39,0.69c9.11,1.43,17.63,7.29,26.15,11.71c23.17,12.01,18.75,46.49,1.18,59.4
			C517.86,130.24,498.64,133.73,478.3,135.17z"/>
	</g>
</g>
</svg>
