<?xml version="1.0" encoding="utf-8"?>
<!-- Generator: Adobe Illustrator 23.1.0, SVG Export Plug-In . SVG Version: 6.00 Build 0)  -->
<svg version="1.1" id="Calque_1" xmlns="http://www.w3.org/2000/svg" xmlns:xlink="http://www.w3.org/1999/xlink" x="0px" y="0px"
	 viewBox="0 0 821.83 1080" style="enable-background:new 0 0 821.83 1080;" xml:space="preserve">
<style type="text/css">
	.st0{fill:#FFFFFF;}
</style>
<g>
	<g>
		<path class="st0" d="M359.11,362.49C141.83,398.18,28.19,598.58,55.86,776.64c25.8,166.06,176.52,300.07,342.81,302.44
			c183.47,2.61,332.98-119.13,366.72-298.17c28.01-148.64-55.31-373.61-302.23-419.02c0.73-12.3,1.46-24.59,2.3-38.67
			c31.35,0,61.91,0,92.46,0c50.16,0,51.15-0.03,49.72-49.39c-0.63-21.98,5.43-37.8,21.56-53.41
			c61.15-59.22,121.07-119.73,180.63-180.56c6.66-6.8,8.14-18.66,12.02-28.18c-9.59-3.69-19.14-10.44-28.77-10.57
			C724.1,0.19,655.1,1.75,586.17,0.04c-26.73-0.66-46.3,6.18-64.73,26.26c-34.98,38.11-72.67,73.72-110.94,112.07
			C368.93,96.34,329.46,55.21,288.33,15.8c-8.66-8.3-23.31-14.32-35.31-14.52C178.11-0.03,103.17,0.2,28.25,1.14
			C18.79,1.26,9.41,8.51,0,12.46c4.17,9.44,6.11,21.06,12.87,27.97c53.58,54.78,106.7,110.14,162.87,162.18
			c28.33,26.25,45.38,53,38.57,92.45c-3.57,20.68,6.59,29.04,27.74,28.45c38.17-1.08,76.4-0.31,114.78-0.31
			C357.63,337.03,358.31,348.72,359.11,362.49z"/>
		<path d="M359.11,362.49c-0.8-13.77-1.48-25.46-2.28-39.29c-38.38,0-76.6-0.77-114.78,0.31c-21.15,0.6-31.31-7.76-27.74-28.45
			c6.8-39.45-10.24-66.2-38.57-92.45C119.57,150.57,66.45,95.2,12.87,40.43C6.11,33.52,4.17,21.9,0,12.46
			C9.41,8.51,18.79,1.26,28.25,1.14c74.92-0.94,149.86-1.17,224.77,0.13c12.01,0.21,26.65,6.22,35.31,14.52
			c41.13,39.41,80.6,80.54,122.17,122.58c38.27-38.35,75.96-73.97,110.94-112.07c18.43-20.08,38-26.92,64.73-26.26
			C655.1,1.75,724.1,0.19,793.06,1.11c9.64,0.13,19.18,6.88,28.77,10.57c-3.88,9.51-5.36,21.38-12.02,28.18
			c-59.57,60.82-119.48,121.34-180.63,180.56c-16.12,15.61-22.19,31.43-21.56,53.41c1.43,49.36,0.44,49.39-49.72,49.39
			c-30.56,0-61.11,0-92.46,0c-0.84,14.08-1.57,26.37-2.3,38.67c246.92,45.42,330.24,270.39,302.23,419.02
			c-33.73,179.04-183.25,300.78-366.72,298.17c-166.29-2.37-317-136.38-342.81-302.44C28.19,598.58,141.83,398.18,359.11,362.49z
			 M410.4,1043.29c177.86,0.26,324.35-144.86,324.83-321.78c0.48-178.57-144.86-325.2-323.55-326.44
			C234.8,393.84,86.53,542.23,86.88,720.14C87.24,897.58,232.85,1043.03,410.4,1043.29z M57.66,36.43
			c61.41,61.04,116.65,116.52,172.87,170.99c6.22,6.03,18.03,8.63,27.31,8.77c52.78,0.81,105.57,0.47,158.36,0.29
			c6.03-0.02,12.05-1.47,21.86-2.75c-58.65-58.4-114.02-113.74-169.8-168.68c-4.38-4.32-11.53-8.19-17.43-8.25
			C189.02,36.21,127.2,36.43,57.66,36.43z M765.01,36.44c-70.32,0-132.18-0.06-194.04,0.15c-3.97,0.01-9.15,0.92-11.71,3.47
			c-40.67,40.53-81,81.39-121.22,121.98c45.38,54.56,45.38,54.57,112.11,54.55c7.65,0,15.47,0.93,22.91-0.36
			c6.24-1.08,13.48-3.27,17.79-7.5C647.25,153.46,703.2,97.75,765.01,36.44z M250.41,287.1c108.55,0,214.29,0,320.91,0
			c0-12.13,0-22.67,0-33.73c-107.84,0-214.24,0-320.91,0C250.41,265.27,250.41,275.25,250.41,287.1z M410.4,316.02
			c-7.95,12.37-16.62,19.92-15.86,26.36c0.76,6.47,10.92,11.83,16.96,17.68c5.77-6.13,15.69-11.97,16.14-18.47
			C428.08,335.13,419.01,328.02,410.4,316.02z"/>
		<path class="st0" d="M410.4,1043.29c-177.55-0.26-323.16-145.72-323.51-323.16c-0.35-177.9,147.91-326.29,324.79-325.07
			c178.7,1.24,324.04,147.88,323.55,326.44C734.75,898.43,588.25,1043.55,410.4,1043.29z M411.15,505.1
			c-119.19-0.11-214.89,94.66-215.12,213.03c-0.23,119.93,96.01,217.08,214.93,216.96c118.16-0.12,214.86-96.4,215.15-214.21
			C626.41,600.39,531.59,505.21,411.15,505.1z M171.42,560.86c-6.09,10.65-11.37,19.89-17.36,30.35
			c10.39,5.91,19.58,11.15,30.53,17.38c5.97-10.97,10.96-20.13,16.58-30.46C190.14,571.72,181.56,566.74,171.42,560.86z
			 M125.13,734.49c10.42,0,21.36,0,31.89,0c0-11.34,0-21.2,0-31.36c-11.27,0-20.97,0-31.89,0
			C125.13,713.79,125.13,722.97,125.13,734.49z M664.39,734.67c10.97,0,21.9,0,31.95,0c0-12,0-21.8,0-31.39
			c-11.69,0-21.44,0-31.95,0C664.39,714.22,664.39,723.47,664.39,734.67z M426.91,1006.84c0-11.2,0-22.26,0-33.5
			c-11.4,0-21.88,0-31.81,0c0,12.22,0,22.7,0,33.5C406.29,1006.84,415.58,1006.84,426.91,1006.84z M650.97,560.41
			c-10.73,6.56-19.77,12.08-30.19,18.45c6.61,11.02,12.02,20.03,17.79,29.64c11.01-6.53,19.63-11.65,29.34-17.41
			C662.6,581.47,657.79,572.77,650.97,560.41z M651.03,878.47c6.55-11.88,11.55-20.96,17.06-30.97
			c-11.22-6.13-19.78-10.8-30.45-16.63c-5.94,10.62-11.02,19.7-16.77,29.96C631.26,866.9,639.76,871.88,651.03,878.47z
			 M270.33,929.21c-5.93,10.13-11.49,19.62-17.85,30.49c11.35,6.33,20.04,11.18,30.23,16.86c5.96-10.17,11.28-19.25,17.31-29.53
			C290,941.02,281.43,935.88,270.33,929.21z M552.26,928.73c-11.36,6.9-20.46,12.43-30.25,18.37c6.36,10.73,11.71,19.77,17.6,29.7
			c11.05-6.43,19.63-11.43,29.74-17.32C563.7,949.32,558.9,940.68,552.26,928.73z M252.57,479.23c5.89,10.62,10.97,19.79,17.2,31.03
			c11.22-6.78,20.09-12.14,30.2-18.24c-6.45-11-11.41-19.47-17.06-29.11C272.98,468.25,264.89,472.6,252.57,479.23z M552.9,509.75
			c5.93-10.94,10.9-20.11,16.42-30.3c-11.02-6.19-19.68-11.05-30.02-16.85c-6.07,10.91-11.18,20.09-16.93,30.42
			C533.47,499.1,542.12,503.84,552.9,509.75z M154.29,847.53c5.98,10.58,11.14,19.71,17.17,30.39c10.69-6.13,19.3-11.06,29.87-17.11
			c-5.82-10.48-10.89-19.62-16.95-30.52C173.39,836.59,164.85,841.48,154.29,847.53z M394.46,465.08c12.04,0,22.45,0,32.64,0
			c0-11.45,0-21.08,0-30.65c-11.71,0-21.56,0-32.64,0C394.46,444.76,394.46,453.77,394.46,465.08z"/>
		<path class="st0" d="M57.66,36.43c69.54,0,131.36-0.23,193.18,0.37c5.9,0.06,13.04,3.93,17.43,8.25
			c55.77,54.94,111.15,110.28,169.8,168.68c-9.81,1.28-15.83,2.73-21.86,2.75c-52.79,0.18-105.58,0.52-158.36-0.29
			c-9.28-0.14-21.09-2.74-27.31-8.77C174.31,152.95,119.07,97.47,57.66,36.43z"/>
		<path class="st0" d="M765.01,36.44C703.2,97.75,647.25,153.46,590.85,208.73c-4.32,4.23-11.56,6.42-17.79,7.5
			c-7.43,1.28-15.25,0.35-22.91,0.36c-66.73,0.02-66.73,0.01-112.11-54.55c40.22-40.59,80.55-81.45,121.22-121.98
			c2.56-2.55,7.74-3.46,11.71-3.47C632.83,36.38,694.69,36.44,765.01,36.44z"/>
		<path class="st0" d="M250.41,287.1c0-11.85,0-21.83,0-33.73c106.67,0,213.07,0,320.91,0c0,11.06,0,21.59,0,33.73
			C464.7,287.1,358.96,287.1,250.41,287.1z"/>
		<path class="st0" d="M410.4,316.02c8.61,11.99,17.69,19.11,17.24,25.57c-0.45,6.49-10.37,12.34-16.14,18.47
			c-6.04-5.85-16.2-11.21-16.96-17.68C393.77,335.94,402.45,328.39,410.4,316.02z"/>
		<path d="M411.15,505.1c120.43,0.11,215.26,95.29,214.96,215.78c-0.29,117.82-96.99,214.1-215.15,214.21
			c-118.92,0.12-215.16-97.03-214.93-216.96C196.27,599.76,291.97,504.99,411.15,505.1z M410.62,899.83
			c98.25,0.32,180.76-81.66,181.03-179.87c0.27-97.86-81.39-179.91-180.16-181.03c-96.89-1.09-180.9,82.47-181.07,180.11
			C230.25,817.29,312.2,899.51,410.62,899.83z"/>
		<path d="M171.42,560.86c10.14,5.89,18.72,10.87,29.75,17.27c-5.62,10.33-10.61,19.49-16.58,30.46
			c-10.94-6.23-20.14-11.47-30.53-17.38C160.05,580.74,165.33,571.51,171.42,560.86z"/>
		<path d="M125.13,734.49c0-11.52,0-20.7,0-31.36c10.92,0,20.63,0,31.89,0c0,10.16,0,20.02,0,31.36
			C146.49,734.49,135.55,734.49,125.13,734.49z"/>
		<path d="M664.39,734.67c0-11.2,0-20.45,0-31.39c10.51,0,20.26,0,31.95,0c0,9.59,0,19.4,0,31.39
			C686.29,734.67,675.36,734.67,664.39,734.67z"/>
		<path d="M426.91,1006.84c-11.33,0-20.62,0-31.81,0c0-10.81,0-21.29,0-33.5c9.93,0,20.41,0,31.81,0
			C426.91,984.58,426.91,995.64,426.91,1006.84z"/>
		<path d="M650.97,560.41c6.83,12.36,11.63,21.06,16.94,30.67c-9.71,5.76-18.33,10.88-29.34,17.41
			c-5.77-9.61-11.17-18.62-17.79-29.64C631.19,572.49,640.23,566.97,650.97,560.41z"/>
		<path d="M651.03,878.47c-11.27-6.59-19.77-11.57-30.15-17.64c5.74-10.27,10.83-19.34,16.77-29.96
			c10.66,5.82,19.23,10.5,30.45,16.63C662.58,857.51,657.57,866.59,651.03,878.47z"/>
		<path d="M270.33,929.21c11.1,6.67,19.67,11.81,29.69,17.82c-6.03,10.28-11.35,19.37-17.31,29.53
			c-10.19-5.68-18.88-10.53-30.23-16.86C258.84,948.83,264.39,939.34,270.33,929.21z"/>
		<path d="M552.26,928.73c6.64,11.95,11.44,20.59,17.09,30.75c-10.11,5.89-18.7,10.88-29.74,17.32c-5.88-9.93-11.24-18.96-17.6-29.7
			C531.8,941.15,540.89,935.63,552.26,928.73z"/>
		<path d="M252.57,479.23c12.32-6.63,20.41-10.98,30.34-16.32c5.65,9.64,10.61,18.11,17.06,29.11
			c-10.11,6.11-18.97,11.46-30.2,18.24C263.54,499.02,258.46,489.85,252.57,479.23z"/>
		<path d="M552.9,509.75c-10.78-5.91-19.43-10.65-30.52-16.72c5.75-10.33,10.85-19.51,16.93-30.42c10.34,5.8,19,10.66,30.02,16.85
			C563.8,489.64,558.83,498.81,552.9,509.75z"/>
		<path d="M154.29,847.53c10.56-6.05,19.11-10.95,30.1-17.24c6.05,10.9,11.13,20.04,16.95,30.52
			c-10.57,6.05-19.17,10.98-29.87,17.11C165.42,867.24,160.27,858.12,154.29,847.53z"/>
		<path d="M394.46,465.08c0-11.31,0-20.32,0-30.65c11.08,0,20.93,0,32.64,0c0,9.57,0,19.2,0,30.65
			C416.9,465.08,406.5,465.08,394.46,465.08z"/>
		<path class="st0" d="M410.62,899.83c-98.42-0.32-180.37-82.54-180.2-180.78c0.17-97.64,84.18-181.21,181.07-180.11
			c98.77,1.12,180.43,83.16,180.16,181.03C591.38,818.17,508.87,900.15,410.62,899.83z M411.21,804.37
			c22.41,14.69,44.06,29.73,66.68,43.14c6.19,3.67,18.74,6,22.25,2.61c5.18-5.01,7.96-16.36,6.33-23.82
			c-4.51-20.68-12.95-40.52-17.4-61.21c-1.43-6.64,2.53-17.64,7.83-21.95c16.44-13.36,35.28-23.76,51.94-36.89
			c4.84-3.81,8.68-13.8,7.15-19.36c-1.45-5.28-10.11-11.2-16.29-12.09c-19.31-2.81-38.97-4.64-58.46-4.43
			c-17.57,0.19-28.1-4.25-32.59-23.14c-4.49-18.89-11.93-37.28-20.06-54.98c-2.93-6.37-11.65-13.94-17.7-13.92
			c-6.01,0.02-13.9,7.8-17.54,14.14c-5.4,9.43-9.12,20.33-11.21,31.06c-6.75,34.62-23.56,53.86-62.12,47.42
			c-11.34-1.89-23.95,0.68-35.38,3.58c-7.12,1.81-17.15,7.07-18.51,12.59c-1.47,5.97,3.79,16.3,9.31,20.81
			c19.52,15.96,51.24,26.63,57.75,46.17c6.61,19.83-12.1,47.57-17.66,72.31c-1.67,7.4,1.25,18.8,6.45,23.76
			c3.55,3.38,16.04,0.99,22.25-2.68C366.9,834.11,388.61,819.11,411.21,804.37z"/>
		<path d="M411.21,804.37c-22.6,14.74-44.31,29.74-66.97,43.12c-6.21,3.67-18.7,6.06-22.25,2.68c-5.21-4.96-8.12-16.35-6.45-23.76
			c5.56-24.74,24.27-52.48,17.66-72.31c-6.51-19.54-38.23-30.21-57.75-46.17c-5.52-4.52-10.79-14.84-9.31-20.81
			c1.36-5.53,11.39-10.79,18.51-12.59c11.43-2.9,24.04-5.47,35.38-3.58c38.56,6.44,55.38-12.8,62.12-47.42
			c2.09-10.73,5.81-21.63,11.21-31.06c3.63-6.34,11.53-14.12,17.54-14.14c6.05-0.02,14.77,7.55,17.7,13.92
			c8.13,17.7,15.57,36.09,20.06,54.98c4.49,18.89,15.02,23.34,32.59,23.14c19.49-0.22,39.15,1.62,58.46,4.43
			c6.18,0.9,14.85,6.81,16.29,12.09c1.52,5.57-2.31,15.55-7.15,19.36c-16.66,13.13-35.5,23.53-51.94,36.89
			c-5.3,4.31-9.26,15.3-7.83,21.95c4.45,20.69,12.89,40.52,17.4,61.21c1.63,7.46-1.15,18.81-6.33,23.82
			c-3.51,3.39-16.06,1.06-22.25-2.61C455.27,834.1,433.62,819.05,411.21,804.37z M340.86,706.07c33.89,28.8,33.89,28.8,23.94,90.79
			c31.13-38.86,60.93-34.49,92.87-6.04c-15.71-36.07-18.59-66.3,26.7-85c-48.03,8.73-64.23-17.85-73.65-56.1
			C403.36,689.74,384.37,712.79,340.86,706.07z"/>
		<path class="st0" d="M340.86,706.07c43.51,6.71,62.5-16.34,69.86-56.35c9.42,38.25,25.62,64.82,73.65,56.1
			c-45.29,18.7-42.41,48.93-26.7,85c-31.94-28.45-61.73-32.82-92.87,6.04C374.75,734.87,374.75,734.87,340.86,706.07z"/>
	</g>
</g>
</svg>
