<?xml version="1.0" encoding="utf-8"?>
<!-- Generator: Adobe Illustrator 23.1.0, SVG Export Plug-In . SVG Version: 6.00 Build 0)  -->
<svg version="1.1" id="Calque_1" xmlns="http://www.w3.org/2000/svg" xmlns:xlink="http://www.w3.org/1999/xlink" x="0px" y="0px"
	 viewBox="0 0 595.28 773.72" style="enable-background:new 0 0 595.28 773.72;" xml:space="preserve">
<style type="text/css">
	.st0{fill:#FFFFFF;}
</style>
<path class="st0" d="M298.98,99.24c-3.34-1.96-5.47-2.71-6.92-4.15c-19.88-19.65-39.88-39.18-59.41-59.18
	C203.49,6.07,208.22,6.53,167.23,6.56c-2.65,0-5.3,0.13-7.94-0.01c-11.6-0.62-23.23-1.03-34.8-2.06
	c-10.47-0.93-20.85-3.55-31.3-3.71C65.25,0.36,37.29,0.85,9.34,1.02C2.57,1.06,0.29,5.23,0,11.93c1.66,1.57,3.5,3.42,5.45,5.15
	c27.67,24.56,55.88,48.55,82.86,73.84c21.57,20.22,41.84,41.84,62.2,63.31c3.22,3.4,5.19,9.2,5.41,14
	c0.63,13.2-0.25,26.46-0.02,39.69c0.25,14.35,3.67,17.93,17.94,18.01c19.59,0.1,39.18-0.49,58.77-0.74
	c5.08-0.07,10.17-0.01,14.9-0.01c-1.74,10.19-3.21,18.83-4.96,29.05c-3.62,1.66-8.17,5.18-13.07,5.74
	c-18.23,2.09-33.95,10.7-50.02,18.28c-12.82,6.04-24.44,15.32-37.74,19.49c-21.71,6.81-37.18,21.89-52.55,36.46
	c-23.28,22.07-35.13,52.26-50.77,79.67c-1.04,1.81-1.75,3.85-2.36,5.86c-3.79,12.64-8.25,25.14-11.06,37.99
	c-3.25,14.84-9.89,29.13-8.01,44.95c3.15,26.59,7.01,53.13,8.9,79.82c1.87,26.3,13.23,48.94,30.03,66.86
	c26.6,28.39,51.07,58.96,83.98,81.54c37.8,25.94,77.78,41.99,123.84,41.9c4.76-0.01,9.52,0.51,14.28,0.73
	c36.78,1.67,71.23-5.94,102.74-25.54c7.63-4.75,15.16-9.93,23.36-13.44c31.9-13.65,54.62-39.14,79.82-61.3
	c21.82-19.19,33.83-45.35,47.46-70.41c14.96-27.53,23.32-56.24,21.37-87.67c-1.2-19.33,1.69-39.07-8.23-57.36
	c-9.28-17.11-17.34-34.87-26.06-52.29c-11.28-22.52-20.04-46.71-41.35-62.65c-1.16-0.87-1.39-2.87-2.41-4.04
	c-8.25-9.47-15.39-20.44-25.18-27.93c-16.18-12.37-33.69-23.18-51.42-33.29c-11.77-6.71-24.7-14.88-37.47-15.55
	c-19.14-1.01-26.4-9.28-27.6-26.44c-0.06-0.87,0.74-1.81,1.26-2.97c1.35-0.35,2.84-1.04,4.36-1.09c24.32-0.77,48.65-1.22,72.96-2.23
	c15.96-0.66,19.31-4.46,19.42-20.01c0.03-4.24-0.55-8.51-0.13-12.7c1.61-16,3.7-31.32,17.31-43.18
	c21.88-19.06,42.29-39.79,63.87-59.19c25.49-22.92,51.55-45.21,77.41-67.71c7.07-6.15,7.33-11.12-0.14-16.71
	c-2.78-2.08-6.62-2.88-10.09-3.86c-13.94-3.92-28.1-3.03-42.44-3.06c-45.5-0.08-91.01-1.28-136.49-2.85
	c-14.15-0.49-24.62,4.79-33.13,15.1c-8.72,10.55-16.92,21.52-25.55,32.14C327.74,64.4,313.65,81.4,298.98,99.24z"/>
<path d="M298.98,99.24c14.66-17.83,28.75-34.83,42.68-51.97c8.63-10.62,16.83-21.59,25.55-32.14c8.52-10.31,18.98-15.58,33.13-15.1
	c45.48,1.56,90.99,2.77,136.49,2.85c14.34,0.03,28.5-0.86,42.44,3.06c3.47,0.98,7.31,1.78,10.09,3.86
	c7.48,5.58,7.21,10.56,0.14,16.71c-25.86,22.5-51.92,44.79-77.41,67.71c-21.59,19.41-42,40.13-63.87,59.19
	c-13.62,11.86-15.71,27.18-17.31,43.18c-0.42,4.19,0.16,8.46,0.13,12.7c-0.11,15.54-3.46,19.35-19.42,20.01
	c-24.31,1.01-48.64,1.47-72.96,2.23c-1.51,0.05-3.01,0.74-4.36,1.09c-0.51,1.16-1.32,2.09-1.26,2.97
	c1.2,17.15,8.46,25.42,27.6,26.44c12.77,0.68,25.69,8.84,37.47,15.55c17.73,10.11,35.24,20.92,51.42,33.29
	c9.79,7.48,16.92,18.46,25.18,27.93c1.02,1.17,1.25,3.17,2.41,4.04c21.31,15.94,30.08,40.13,41.35,62.65
	c8.72,17.41,16.78,35.18,26.06,52.29c9.92,18.29,7.03,38.03,8.23,57.36c1.95,31.43-6.41,60.15-21.37,87.67
	c-13.62,25.06-25.63,51.22-47.46,70.41c-25.21,22.16-47.93,47.66-79.82,61.3c-8.2,3.51-15.73,8.7-23.36,13.44
	c-31.51,19.61-65.97,27.21-102.74,25.54c-4.76-0.22-9.52-0.73-14.28-0.73c-46.06,0.09-86.05-15.96-123.84-41.9
	c-32.91-22.59-57.38-53.16-83.98-81.54c-16.79-17.92-28.16-40.56-30.03-66.86c-1.9-26.68-5.76-53.23-8.9-79.82
	c-1.87-15.82,4.77-30.1,8.01-44.95c2.81-12.86,7.27-25.35,11.06-37.99c0.6-2.01,1.32-4.05,2.36-5.86
	c15.64-27.41,27.49-57.6,50.77-79.67c15.37-14.57,30.85-29.65,52.55-36.46c13.3-4.17,24.92-13.45,37.74-19.49
	c16.06-7.58,31.78-16.18,50.02-18.28c4.9-0.56,9.46-4.08,13.07-5.74c1.74-10.23,3.22-18.86,4.96-29.05c-4.74,0-9.82-0.06-14.9,0.01
	c-19.59,0.26-39.18,0.84-58.77,0.74c-14.27-0.07-17.7-3.65-17.94-18.01c-0.23-13.23,0.65-26.49,0.02-39.69
	c-0.23-4.8-2.19-10.6-5.41-14c-20.36-21.47-40.63-43.09-62.2-63.31C61.32,65.62,33.12,41.64,5.45,17.08C3.5,15.35,1.66,13.5,0,11.93
	C0.29,5.23,2.57,1.06,9.34,1.02c27.95-0.16,55.9-0.65,83.85-0.24c10.45,0.16,20.84,2.78,31.3,3.71c11.57,1.03,23.19,1.44,34.8,2.06
	c2.64,0.14,5.3,0.02,7.94,0.01c40.99-0.03,36.27-0.49,65.42,29.35c19.53,19.99,39.54,39.52,59.41,59.18
	C293.51,96.53,295.65,97.27,298.98,99.24z M295.35,277.44c-27.14-0.25-48.17,2.43-66.72,11.24c-31.89,15.16-63.78,30.47-94.74,47.4
	c-12.22,6.68-24.69,16.04-32.33,27.36c-22.1,32.75-40.33,67.8-51.68,106.04c-4.99,16.79-8.47,33.58-7.16,51.3
	c0.89,12.1,3.35,23.97,4.72,35.8c2.21,19.12,9.92,35.25,18.3,51.63c0.48,0.94,1.21,1.81,1.47,2.8c5.1,19.17,17.76,33.02,31.91,45.93
	c10.86,9.91,21.67,19.91,32.09,30.28c16.73,16.65,33.25,33.48,56.6,40.88c6.44,2.04,13.09,3.46,19.41,5.77
	c13.25,4.84,26,11.36,40.77,10.39c2.56-0.17,5.74-0.04,7.7,1.31c8.08,5.57,17.11,4.46,26.05,4.71c14.87,0.4,29.13-1.52,43.63-5.74
	c17.59-5.12,35.92-7.45,51.4-18.46c8.56-6.08,17.42-11.76,26.33-17.33c26.62-16.65,47.54-39.41,67.8-62.89
	c7.58-8.79,15.88-17.09,22.43-26.6c22.16-32.15,30.01-69.03,28.43-106.97c-0.97-23.36-7.21-46.88-13.75-69.56
	c-11.96-41.44-39.58-72.89-70.25-101.76c-6.89-6.49-15.32-11.31-22.5-17.52C380.76,293.64,341.04,277.79,295.35,277.44z
	 M419.13,159.41c45.94-43.35,92.63-83.94,138.68-131.11c-13.85-1.96-23.58-3.91-33.4-4.6c-17.41-1.22-35.25,0.29-52.22-2.95
	c-20.68-3.95-40.86-2.91-61.49-1.91c-13.93,0.67-24.72,6.05-33.38,15.68c-22.89,25.42-45.19,51.38-68.85,78.4
	c13.41,13.65,25.33,25.78,38.35,39.04c8.15,0.79,18.11,1.85,28.09,2.66c4.07,0.33,8.42,1.02,12.22-0.02
	C397.89,151.67,408,152.16,419.13,159.41z M44.18,17.61c1.67,3.8,1.96,5.5,2.94,6.54c14.81,15.58,29.56,31.21,44.61,46.55
	c24.25,24.71,48.7,49.22,73.08,73.8c5,5.04,10.5,7.5,18.18,7.47c41.76-0.16,83.51,0.47,125.27,0.69c3.9,0.02,7.8-0.94,14.66-1.84
	c-4.97-5.47-7.81-9.04-11.09-12.14c-12.29-11.56-25.65-22.14-36.91-34.62c-20.54-22.77-42.49-43.97-64.8-64.96
	c-10.81-10.17-21.88-15.23-36.38-15.9c-29-1.35-57.95-3.95-86.95-5.48C73.26,17.02,59.67,17.61,44.18,17.61z M409.02,209.32
	c1.08-3.53,1.88-5.5,2.27-7.54c3.54-18.78,0.84-23.32-17.91-28.16c-8.14-2.1-16.54-4.2-24.87-4.44
	c-51.81-1.48-103.63-2.48-155.46-3.49c-8.46-0.17-16.93,0.35-25.4,0.64c-5.91,0.2-10.78,2.35-10.69,9.07
	c0.13,9.63-4.71,20.13,3.43,28.5c1.74,1.79,5.97,1.42,9.07,1.55c4.73,0.2,9.5-0.33,14.21-0.03c20.58,1.3,41.13,3.62,61.72,4.02
	c43.93,0.85,87.88,0.75,131.83,0.96C400.83,210.41,404.43,209.75,409.02,209.32z M315.11,246.34c-1.22-3.7-1.33-6.04-2.54-7.41
	c-7.51-8.53-36.26-9.66-43.71-1.24c-2.28,2.58-3.17,7.86-2.27,11.26c0.59,2.21,5.79,4.9,8.55,4.53
	C287.94,251.76,300.61,249.04,315.11,246.34z"/>
<path class="st0" d="M295.35,277.44c45.69,0.35,85.41,16.2,119.88,46.03c7.18,6.21,15.61,11.04,22.5,17.52
	c30.67,28.87,58.29,60.32,70.25,101.76c6.54,22.68,12.78,46.19,13.75,69.56c1.58,37.94-6.26,74.81-28.43,106.97
	c-6.55,9.5-14.85,17.81-22.43,26.6c-20.26,23.48-41.17,46.24-67.8,62.89c-8.91,5.57-17.77,11.25-26.33,17.33
	c-15.48,11-33.81,13.34-51.4,18.46c-14.5,4.22-28.76,6.15-43.63,5.74c-8.93-0.24-17.97,0.87-26.05-4.71
	c-1.96-1.35-5.14-1.48-7.7-1.31c-14.76,0.97-27.51-5.55-40.77-10.39c-6.33-2.31-12.98-3.73-19.41-5.77
	c-23.35-7.4-39.87-24.24-56.6-40.88c-10.42-10.37-21.23-20.37-32.09-30.28c-14.15-12.91-26.81-26.76-31.91-45.93
	c-0.26-0.99-0.99-1.86-1.47-2.8c-8.38-16.38-16.09-32.51-18.3-51.63c-1.36-11.82-3.83-23.7-4.72-35.8
	c-1.3-17.71,2.18-34.5,7.16-51.3c11.36-38.24,29.58-73.29,51.68-106.04c7.64-11.32,20.11-20.68,32.33-27.36
	c30.97-16.93,62.85-32.24,94.74-47.4C247.18,279.87,268.21,277.19,295.35,277.44z M450.4,524.5c0.78-17.9-3.07-34.41-10.91-50.54
	c-8.25-16.98-14.4-34.96-22.29-52.13c-6.28-13.65-16.17-25.67-29.12-32.47c-18.88-9.92-39.13-17.45-59.25-24.72
	c-13.7-4.95-27.59-11.26-42.94-7.96c-6.68,1.44-13.18,4.56-19.87,4.96c-26.83,1.6-48.68,15.6-71.27,27.71
	c-5.49,2.94-10.7,6.99-14.98,11.52c-19.16,20.26-33.96,43.68-40.85,70.56c-4.93,19.24-5.72,39.6-7.57,59.53
	c-0.51,5.54,1.07,11.58,2.93,16.97c16.79,48.85,50.75,81.66,96.71,103.41c22.58,10.69,45.58,18.62,70.69,21.95
	c17.21,2.28,32.6,0.17,47.65-6.92c29.15-13.74,52.53-34.55,71.63-60.31C438.95,581.81,449.41,554.83,450.4,524.5z M467.82,417.38
	c-4.85-4.55-9.89-10.47-16.13-14.57c-2.62-1.73-8.93-1-11.42,1.12c-2.44,2.09-4.19,8.8-2.67,10.94c3.42,4.81,8.53,9.28,13.93,11.58
	C457.71,429.06,464.1,427.34,467.82,417.38z M290.74,327.11c8.77-0.19,12.76-3.45,12.86-10.51c0.11-7.83-4.08-11.23-13.82-11.17
	c-9.51,0.05-14.31,3.89-13.96,11.17C276.15,323.57,281.46,327.31,290.74,327.11z M187.3,687.9c5.42-0.22,13.21-8.41,13.11-13.78
	c-0.1-5.41-8.89-12.98-14.47-11.84c-6.48,1.34-9.38,6.24-9.55,12.53C176.22,681.37,182.1,688.11,187.3,687.9z M382.46,336.2
	c-5.71,0.17-10.68,1.26-10.76,8.54c-0.08,6.84,6.35,12.16,14.01,11.55c7.24-0.58,13.42-5.9,12.96-11.17
	C398.14,339.12,392.37,335.94,382.46,336.2z M131.92,602.48c-0.76-9.89-5.95-11.17-11.46-10.91c-5.83,0.28-13.39-2.61-15.92,5.97
	c-0.61,2.06,0.29,6.2,1.74,6.93c5,2.53,10.64,5.6,15.86,5.3C125.97,609.55,129.53,604.39,131.92,602.48z M466.49,608.39
	c-6.59-9.9-15.76-13.56-21.9-9.39c-4.3,2.92-4.33,10.33-0.06,15.26C450.46,621.12,455.68,619.84,466.49,608.39z M397.35,679.43
	c0.24-7.6-5.02-11.43-12.48-11.5c-5.97-0.05-11.94,0.36-12.86,8.17c-0.63,5.33,6.6,11.97,12.89,10.47
	C389.79,685.41,394.02,681.44,397.35,679.43z M296.45,708.02c-0.13-8.18-9.53-15.75-16.14-14.27c-3.2,0.72-7.48,4.29-8.12,7.24
	c-1.36,6.31,7.62,14.11,14.62,12.72C290.68,712.95,294.01,709.53,296.45,708.02z M476.79,497.31c-4.41,4.15-11.31,6.81-6.82,14.98
	c3.14,5.72,11.6,8.05,18.12,5.34c6.41-2.67,7.45-9.39,1.68-13.49C486.01,501.46,481.55,499.76,476.79,497.31z M124.37,400.76
	c-5.06,0.6-11.38-0.43-11.52,7.45c-0.09,5.18,7.87,11.58,13.45,11.36c5.43-0.21,11.89-6.25,11.42-11.12
	C136.88,399.91,129.95,401.47,124.37,400.76z M206.21,334c-12.09-4.03-16.85-3.39-18.86,2.54c-1.91,5.63,2.27,12.31,8.12,12.97
	C201.33,350.19,205.32,344.41,206.21,334z M82.01,499.34c4.87,10.43,10.74,13.92,18.64,10.29c2.34-1.08,4.9-4.46,4.97-6.87
	c0.07-2.2-2.75-6-4.88-6.47C94.34,494.86,87.22,492.38,82.01,499.34z"/>
<path class="st0" d="M419.13,159.41c-11.14-7.24-21.25-7.73-31.99-4.81c-3.8,1.03-8.16,0.35-12.22,0.02
	c-9.98-0.81-19.94-1.87-28.09-2.66c-13.03-13.26-24.94-25.39-38.35-39.04c23.66-27.03,45.96-52.98,68.85-78.4
	c8.67-9.63,19.45-15,33.38-15.68c20.63-1,40.81-2.04,61.49,1.91c16.97,3.24,34.81,1.73,52.22,2.95c9.82,0.69,19.55,2.64,33.4,4.6
	C511.76,75.47,465.07,116.06,419.13,159.41z"/>
<path class="st0" d="M44.18,17.61c15.48,0,29.08-0.59,42.61,0.12c29,1.53,57.94,4.13,86.95,5.48c14.5,0.67,25.57,5.73,36.38,15.9
	c22.31,20.99,44.25,42.19,64.8,64.96c11.26,12.48,24.62,23.05,36.91,34.62c3.29,3.09,6.13,6.67,11.09,12.14
	c-6.86,0.89-10.76,1.86-14.66,1.84c-41.76-0.22-83.51-0.85-125.27-0.69c-7.68,0.03-13.18-2.42-18.18-7.47
	c-24.38-24.59-48.83-49.09-73.08-73.8C76.68,55.35,61.93,39.72,47.12,24.14C46.14,23.11,45.85,21.41,44.18,17.61z"/>
<path class="st0" d="M409.02,209.32c-4.59,0.44-8.19,1.09-11.8,1.07c-43.94-0.2-87.9-0.11-131.83-0.96
	c-20.59-0.4-41.14-2.72-61.72-4.02c-4.72-0.3-9.48,0.23-14.21,0.03c-3.1-0.13-7.33,0.23-9.07-1.55c-8.14-8.36-3.3-18.86-3.43-28.5
	c-0.09-6.72,4.78-8.87,10.69-9.07c8.46-0.29,16.94-0.8,25.4-0.64c51.82,1.01,103.65,2.01,155.46,3.49
	c8.33,0.24,16.73,2.33,24.87,4.44c18.74,4.84,21.45,9.38,17.91,28.16C410.91,203.82,410.1,205.79,409.02,209.32z"/>
<path class="st0" d="M315.11,246.34c-14.49,2.7-27.17,5.42-39.97,7.15c-2.75,0.37-7.96-2.32-8.55-4.53
	c-0.9-3.4-0.01-8.68,2.27-11.26c7.45-8.43,36.2-7.29,43.71,1.24C313.78,240.3,313.89,242.64,315.11,246.34z"/>
<path d="M450.4,524.5c-0.99,30.33-11.45,57.31-29.44,81.57c-19.1,25.76-42.49,46.57-71.63,60.31c-15.05,7.09-30.44,9.2-47.65,6.92
	c-25.11-3.32-48.11-11.26-70.69-21.95c-45.96-21.76-79.92-54.56-96.71-103.41c-1.85-5.39-3.44-11.43-2.93-16.97
	c1.85-19.93,2.64-40.29,7.57-59.53c6.89-26.89,21.69-50.3,40.85-70.56c4.29-4.53,9.49-8.57,14.98-11.52
	c22.59-12.11,44.44-26.11,71.27-27.71c6.7-0.4,13.19-3.52,19.87-4.96c15.35-3.3,29.24,3.01,42.94,7.96
	c20.12,7.27,40.37,14.8,59.25,24.72c12.95,6.8,22.84,18.81,29.12,32.47c7.89,17.16,14.04,35.15,22.29,52.13
	C447.33,490.09,451.18,506.61,450.4,524.5z M310.37,651.7c11.31-3.44,22.19-5.54,31.95-10.04c11.87-5.48,23.65-11.91,33.96-19.88
	c16.8-13.01,31.71-27.93,35.71-50.49c1.65-9.33,3.65-18.85,7.3-27.51c4.96-11.77,6.82-24.27,3.87-35.73
	c-8.63-33.56-16.29-68.05-44.9-92.07c-1.96-1.65-4.01-3.85-4.74-6.19c-2.83-9.03-9.87-13.74-17.69-17.11
	c-12.1-5.23-24.19-11.53-36.93-13.99c-26.79-5.17-53.54-5.24-78.2,9.88c-8.54,5.23-17.77,9.35-26.76,13.82
	c-27.18,13.53-49.23,48.33-50.78,78.75c-0.53,10.39-3.68,20.61-4.72,31.01c-0.61,6.14,0.19,12.52,1.08,18.69
	c0.59,4.11,2.97,7.95,3.67,12.06c4.09,24.05,16.37,42.85,35.41,57.8c8.26,6.48,15.8,13.9,23.61,20.95
	c8.35,7.54,18.16,12.01,29.06,14.51c9.72,2.23,19.37,4.81,29.02,7.36C290.2,646.13,300.1,648.9,310.37,651.7z"/>
<path d="M467.82,417.38c-3.71,9.96-10.11,11.69-16.28,9.06c-5.4-2.3-10.51-6.77-13.93-11.58c-1.52-2.14,0.22-8.85,2.67-10.94
	c2.49-2.12,8.8-2.84,11.42-1.12C457.92,406.91,462.96,412.82,467.82,417.38z"/>
<path d="M290.74,327.11c-9.29,0.2-14.59-3.53-14.92-10.51c-0.35-7.29,4.45-11.12,13.96-11.17c9.74-0.05,13.94,3.34,13.82,11.17
	C303.5,323.66,299.51,326.91,290.74,327.11z"/>
<path d="M187.3,687.9c-5.2,0.22-11.08-6.53-10.9-13.08c0.17-6.29,3.06-11.19,9.55-12.53c5.58-1.15,14.37,6.43,14.47,11.84
	C200.51,679.48,192.72,687.67,187.3,687.9z"/>
<path d="M382.46,336.2c9.91-0.26,15.69,2.92,16.21,8.93c0.46,5.27-5.71,10.59-12.96,11.17c-7.66,0.61-14.09-4.71-14.01-11.55
	C371.78,337.46,376.75,336.38,382.46,336.2z"/>
<path d="M131.92,602.48c-2.39,1.92-5.95,7.08-9.79,7.3c-5.22,0.3-10.86-2.77-15.86-5.3c-1.45-0.73-2.34-4.87-1.74-6.93
	c2.52-8.57,10.09-5.68,15.92-5.97C125.97,591.3,131.16,592.58,131.92,602.48z"/>
<path d="M466.49,608.39c-10.81,11.45-16.03,12.72-21.97,5.87c-4.27-4.93-4.24-12.33,0.06-15.26
	C450.73,594.83,459.9,598.49,466.49,608.39z"/>
<path d="M397.35,679.43c-3.33,2-7.56,5.98-12.46,7.14c-6.29,1.5-13.51-5.15-12.89-10.47c0.92-7.8,6.89-8.22,12.86-8.17
	C392.33,668,397.59,671.83,397.35,679.43z"/>
<path d="M296.45,708.02c-2.44,1.52-5.78,4.93-9.64,5.7c-7,1.38-15.97-6.41-14.62-12.72c0.64-2.96,4.91-6.52,8.12-7.24
	C286.92,692.26,296.32,699.83,296.45,708.02z"/>
<path d="M476.79,497.31c4.76,2.45,9.22,4.15,12.98,6.82c5.76,4.1,4.73,10.83-1.68,13.49c-6.52,2.71-14.98,0.37-18.12-5.34
	C465.48,504.12,472.38,501.46,476.79,497.31z"/>
<path d="M124.37,400.76c5.58,0.71,12.51-0.85,13.35,7.69c0.48,4.87-5.98,10.91-11.42,11.12c-5.58,0.22-13.53-6.18-13.45-11.36
	C112.99,400.32,119.31,401.36,124.37,400.76z"/>
<path d="M206.21,334c-0.88,10.41-4.88,16.18-10.74,15.52c-5.85-0.67-10.03-7.34-8.12-12.97C189.35,330.61,194.11,329.97,206.21,334z
	"/>
<path d="M82.01,499.34c5.21-6.95,12.33-4.48,18.74-3.05c2.13,0.47,4.95,4.27,4.88,6.47c-0.08,2.4-2.63,5.79-4.97,6.87
	C92.75,513.26,86.88,509.77,82.01,499.34z"/>
<path class="st0" d="M310.37,651.7c-10.27-2.8-20.17-5.57-30.1-8.19c-9.65-2.55-19.3-5.13-29.02-7.36
	c-10.9-2.5-20.71-6.96-29.06-14.51c-7.81-7.06-15.35-14.47-23.61-20.95c-19.04-14.94-31.33-33.75-35.41-57.8
	c-0.7-4.11-3.07-7.95-3.67-12.06c-0.89-6.17-1.69-12.55-1.08-18.69c1.04-10.39,4.19-20.62,4.72-31.01
	c1.55-30.42,23.6-65.22,50.78-78.75c8.99-4.47,18.22-8.59,26.76-13.82c24.67-15.12,51.41-15.05,78.2-9.88
	c12.75,2.46,24.83,8.76,36.93,13.99c7.82,3.38,14.86,8.08,17.69,17.11c0.73,2.34,2.78,4.55,4.74,6.19
	c28.62,24.02,36.27,58.51,44.9,92.07c2.95,11.46,1.09,23.96-3.87,35.73c-3.65,8.67-5.65,18.18-7.3,27.51
	c-4,22.56-18.9,37.48-35.71,50.49c-10.3,7.98-22.08,14.4-33.96,19.88C332.55,646.16,321.68,648.25,310.37,651.7z"/>
</svg>
