<?xml version="1.0" encoding="utf-8"?>
<!-- Generator: Adobe Illustrator 23.1.0, SVG Export Plug-In . SVG Version: 6.00 Build 0)  -->
<svg version="1.1" id="Calque_1" xmlns="http://www.w3.org/2000/svg" xmlns:xlink="http://www.w3.org/1999/xlink" x="0px" y="0px"
	 viewBox="0 0 595.28 368.41" style="enable-background:new 0 0 595.28 368.41;" xml:space="preserve">
<style type="text/css">
	.st0{fill:#FFFFFF;}
</style>
<path class="st0" d="M561.17,2.27c-18.82-2.21-35.91-2.8-53.45-1.79c-31.28,1.79-62.72,0.68-94.09,0.9
	c-5.14,0.04-10.74-0.51-15.33,1.26c-9.64,3.73-19.45,3.22-29.33,3.44c-12.3,0.27-24.61,0.28-36.88,1.04
	c-14.21,0.88-28.36,2.61-42.56,3.64c-9.09,0.66-18.64-0.85-27.25,1.41c-11.8,3.1-23.5,3.17-35.38,3.41
	c-5.55,0.11-11.5-0.76-16.57,0.92c-13.96,4.62-28.24,3.18-42.42,3.99c-7.03,0.4-13.98,2.01-20.98,3.01
	c-3.52,0.5-7.05,0.97-10.59,1.22c-26.04,1.89-52.08,3.7-78.12,5.61c-2.36,0.17-4.66,0.94-7.01,1.29c-7,1.04-13.99,2.25-21.03,2.93
	c-4.72,0.46-9.56-0.24-14.28,0.24C8.98,35.46,4.48,39.9,3.29,46.86c-0.6,3.5-0.67,7.1-0.87,10.67C1.63,71.75,0.81,85.97,0.16,100.2
	c-0.21,4.73-0.28,9.51,0.2,14.21c0.83,8.19,2.29,16.32,3.18,24.51c0.51,4.72-0.38,9.7,0.72,14.23c6.23,25.59,2.61,52.07,8.13,77.94
	c4.42,20.75,3.56,42.59,5.64,63.88c2.01,20.53,5.51,40.74,12.74,60.31c2.95,7.99,7.82,11.64,15.31,12.75
	c4.25,0.63,8.68,0.32,13,0.06c9.49-0.59,18.96-1.43,28.44-2.14c5.53-0.42,11.08-0.66,16.61-1.2c11.41-1.11,22.79-2.75,34.22-3.47
	c17.42-1.11,34.89-1.55,52.32-2.45c3.13-0.16,6.2-1.27,9.32-1.77c10.12-1.62,20.21-3.64,30.4-4.6c12.63-1.18,25.46-0.6,38-2.3
	c31.06-4.21,62.02-8.69,93.51-8.23c8.2,0.12,16.42-2.21,24.66-3.06c16.87-1.73,33.11-7.29,50.46-6.55c17.81,0.76,35.91,1.25,53.51-1
	c21.76-2.79,43.44-3.41,65.25-3.61c5.93-0.06,11.94-0.53,17.77-1.6c11.91-2.18,17.08-9.02,17.5-21.17c0.2-5.88,1.46-11.72,2-17.6
	c0.24-2.66,0.04-5.39-0.21-8.07c-0.39-4.3-1.41-8.59-1.4-12.88c0.05-14.61,0.35-29.06,2.87-43.69c2.82-16.36-1.34-33.02-2.88-49.58
	c-1.94-20.79-1.86-41.66-4.23-62.59c-2.33-20.61-10.27-39.62-12.08-60.31C573.73,34.16,566.17,18.63,561.17,2.27z"/>
<path d="M561.17,2.27c5,16.36,12.56,31.89,13.96,47.95c1.81,20.7,9.75,39.71,12.08,60.31c2.37,20.93,2.28,41.81,4.23,62.59
	c1.55,16.55,5.7,33.22,2.88,49.58c-2.52,14.63-2.83,29.08-2.87,43.69c-0.01,4.29,1.01,8.58,1.4,12.88c0.24,2.68,0.45,5.41,0.21,8.07
	c-0.54,5.88-1.79,11.72-2,17.6c-0.42,12.15-5.59,19-17.5,21.17c-5.83,1.07-11.83,1.54-17.77,1.6c-21.81,0.21-43.49,0.82-65.25,3.61
	c-17.6,2.25-35.7,1.76-53.51,1c-17.35-0.74-33.6,4.81-50.46,6.55c-8.25,0.85-16.46,3.18-24.66,3.06
	c-31.49-0.46-62.45,4.02-93.51,8.23c-12.54,1.7-25.37,1.11-38,2.3c-10.19,0.96-20.28,2.98-30.4,4.6c-3.12,0.5-6.19,1.61-9.32,1.77
	c-17.44,0.9-34.9,1.35-52.32,2.45c-11.43,0.73-22.81,2.36-34.22,3.47c-5.52,0.54-11.07,0.78-16.61,1.2
	c-9.48,0.71-18.95,1.56-28.44,2.14c-4.33,0.27-8.76,0.57-13-0.06c-7.49-1.11-12.35-4.76-15.31-12.75
	c-7.23-19.57-10.73-39.78-12.74-60.31c-2.09-21.29-1.22-43.13-5.64-63.88c-5.52-25.87-1.9-52.35-8.13-77.94
	c-1.1-4.53-0.21-9.51-0.72-14.23c-0.89-8.19-2.35-16.32-3.18-24.51c-0.48-4.7-0.41-9.48-0.2-14.21c0.65-14.23,1.47-28.45,2.26-42.67
	c0.2-3.56,0.27-7.16,0.87-10.67c1.19-6.95,5.68-11.39,12.62-12.09c4.72-0.48,9.55,0.22,14.28-0.24c7.04-0.68,14.03-1.89,21.03-2.93
	c2.35-0.35,4.66-1.11,7.01-1.29c26.04-1.91,52.08-3.72,78.12-5.61c3.54-0.26,7.07-0.73,10.59-1.22c7-0.99,13.95-2.61,20.98-3.01
	c14.19-0.8,28.46,0.64,42.42-3.99c5.07-1.68,11.02-0.81,16.57-0.92c11.88-0.23,23.58-0.31,35.38-3.41
	c8.61-2.26,18.16-0.75,27.25-1.41c14.2-1.03,28.35-2.76,42.56-3.64c12.27-0.76,24.58-0.77,36.88-1.04
	c9.88-0.22,19.69,0.29,29.33-3.44c4.59-1.78,10.18-1.23,15.33-1.26c31.37-0.22,62.81,0.89,94.09-0.9
	C525.26-0.53,542.36,0.06,561.17,2.27z M24.13,65.34c0.51,5.62,0.59,8.57,1.09,11.45c0.93,5.38,2.56,10.68,3.05,16.09
	c0.54,5.91,0.09,11.9,0.1,17.85c0.03,21.44-0.55,42.9,0.28,64.3c0.92,23.71,3.11,47.38,4.82,71.06c0.14,1.94,0.96,3.83,1.28,5.77
	c1.23,7.37,2.46,14.75,3.52,22.15c0.56,3.9,0.5,7.9,1.18,11.77c2.58,14.73,5.19,29.46,8.13,44.13c1.28,6.39,3.39,12.62,5.02,18.54
	c14.01,0,26.37,1.04,38.49-0.26c15.96-1.72,31.64-6.19,47.61-7.78c15.68-1.56,31.38-2.11,47.11-4.26
	c17.97-2.46,36.44-1.13,54.69-1.59c5.53-0.14,11.06-0.61,16.55-1.25c7.03-0.82,13.98-2.34,21.02-2.9c24.42-1.96,49.12-2.07,73.2-6
	c14.18-2.31,28.19-3.31,42.37-4.12c1.96-0.11,3.88-0.76,5.83-1.07c6.99-1.11,13.95-2.61,20.98-3.15c7.9-0.6,15.88-0.09,23.8-0.47
	c30.09-1.46,60.16-3.14,90.24-4.61c7.13-0.35,14.29-0.07,21.43-0.33c9.9-0.35,12.37-2.74,13.26-12.8
	c1.51-16.97,3.66-33.93,4.14-50.94c0.73-26.15,0.6-52.34,0.16-78.51c-0.25-15.05-1.5-30.12-2.94-45.12
	c-1.32-13.78-2.34-27.76-5.61-41.12c-4.07-16.58-14.98-31.12-14.29-50.68c-2.83,2.14-4.14,2.92-5.19,3.96
	c-25.34,25.04-52.35,48.15-80.18,70.37c-29.67,23.69-58.35,48.51-90.93,68.52c-17.88,10.98-35.49,22.36-54.48,31.18
	c-14.34,6.66-28.99,6.36-43.01-2.48c-19.07-12.02-38.27-23.86-57.68-35.31c-14.97-8.83-30.36-16.97-45.58-25.39
	c-14.9-8.24-29.69-16.69-44.77-24.58c-25.94-13.57-52.04-26.86-78.15-40.1C42.7,73.64,34.46,70.12,24.13,65.34z M530.51,21.03
	c-0.4-0.82-0.8-1.63-1.2-2.45c-2.33-0.17-4.67-0.5-7-0.5c-35.72-0.03-71.44-0.11-107.15,0.03c-8.72,0.03-17.64-0.21-26.12,1.43
	c-39.62,7.62-79.63,8.34-119.75,8.25c-6.68-0.02-13.41,1.14-20.02,2.32c-19.47,3.5-38.72,7.61-58.77,7.78
	c-21.35,0.17-42.68,2.68-64.01,4.25c-2.35,0.17-4.68,0.84-6.98,1.43c-19.57,5.05-39.19,9.64-59.69,7.87
	c-2.74-0.24-5.58,0.74-10.88,1.54c10.7,5.91,18.79,10.62,27.1,14.91c21.95,11.32,44.32,21.86,65.91,33.84
	c17.84,9.9,34.72,21.5,53.09,30.55c8.08,3.98,15.84,8.69,23.48,13.5c13.25,8.33,26.1,17.29,39.47,25.42
	c12.43,7.56,25.35,14.28,37.95,21.57c4.23,2.45,7.82,2,12.21,0.06c16.37-7.24,31.2-16.87,45.37-27.68
	c20.09-15.31,40.37-30.37,60.45-45.69c12.56-9.59,25.16-19.15,37.27-29.29c16.36-13.7,32.29-27.92,48.37-41.96
	C509.93,39.19,520.21,30.1,530.51,21.03z"/>
<path class="st0" d="M24.13,65.34c10.32,4.78,18.57,8.3,26.54,12.34c26.11,13.24,52.21,26.53,78.15,40.1
	c15.08,7.89,29.87,16.35,44.77,24.58c15.22,8.41,30.6,16.55,45.58,25.39c19.41,11.45,38.61,23.29,57.68,35.31
	c14.03,8.84,28.68,9.14,43.01,2.48c18.99-8.82,36.61-20.19,54.48-31.18c32.57-20.01,61.26-44.84,90.93-68.52
	c27.83-22.22,54.85-45.32,80.18-70.37c1.05-1.04,2.36-1.82,5.19-3.96c-0.69,19.56,10.23,34.09,14.29,50.68
	c3.28,13.37,4.29,27.35,5.61,41.12c1.44,15,2.69,30.06,2.94,45.12c0.44,26.16,0.57,52.35-0.16,78.51
	c-0.47,17.01-2.63,33.97-4.14,50.94c-0.89,10.06-3.37,12.45-13.26,12.8c-7.14,0.25-14.3-0.02-21.43,0.33
	c-30.09,1.47-60.16,3.15-90.24,4.61c-7.93,0.38-15.9-0.13-23.8,0.47c-7.03,0.54-13.99,2.04-20.98,3.15
	c-1.95,0.31-3.87,0.96-5.83,1.07c-14.18,0.81-28.19,1.81-42.37,4.12c-24.08,3.92-48.78,4.04-73.2,6c-7.04,0.56-14,2.08-21.02,2.9
	c-5.49,0.64-11.03,1.11-16.55,1.25c-18.25,0.47-36.73-0.86-54.69,1.59c-15.72,2.15-31.43,2.7-47.11,4.26
	c-15.97,1.59-31.64,6.07-47.61,7.78c-12.11,1.3-24.48,0.26-38.49,0.26c-1.63-5.92-3.74-12.15-5.02-18.54
	c-2.94-14.66-5.55-29.4-8.13-44.13c-0.68-3.87-0.62-7.87-1.18-11.77c-1.06-7.4-2.3-14.77-3.52-22.15c-0.32-1.94-1.14-3.83-1.28-5.77
	c-1.71-23.68-3.9-47.35-4.82-71.06c-0.83-21.41-0.24-42.87-0.28-64.3c-0.01-5.95,0.43-11.95-0.1-17.85
	c-0.49-5.41-2.12-10.71-3.05-16.09C24.72,73.91,24.65,70.96,24.13,65.34z"/>
<path class="st0" d="M530.51,21.03c-10.3,9.06-20.58,18.16-30.92,27.18c-16.08,14.04-32.01,28.26-48.37,41.96
	c-12.11,10.14-24.71,19.7-37.27,29.29c-20.08,15.32-40.36,30.38-60.45,45.69c-14.18,10.81-29,20.43-45.37,27.68
	c-4.39,1.94-7.98,2.39-12.21-0.06c-12.6-7.28-25.53-14.01-37.95-21.57c-13.37-8.13-26.22-17.09-39.47-25.42
	c-7.64-4.8-15.39-9.52-23.48-13.5c-18.38-9.05-35.25-20.65-53.09-30.55C120.36,89.76,97.98,79.22,76.03,67.9
	c-8.31-4.28-16.4-9-27.1-14.91c5.3-0.79,8.14-1.77,10.88-1.54c20.5,1.77,40.11-2.82,59.69-7.87c2.3-0.59,4.63-1.26,6.98-1.43
	c21.33-1.57,42.66-4.08,64.01-4.25c20.06-0.16,39.3-4.28,58.77-7.78c6.61-1.19,13.35-2.34,20.02-2.32
	c40.12,0.09,80.13-0.63,119.75-8.25c8.49-1.63,17.4-1.39,26.12-1.43c35.72-0.14,71.44-0.07,107.15-0.03c2.33,0,4.67,0.33,7,0.5
	C529.71,19.4,530.11,20.22,530.51,21.03z"/>
</svg>
