<?xml version="1.0" encoding="utf-8"?>
<!-- Generator: Adobe Illustrator 23.1.0, SVG Export Plug-In . SVG Version: 6.00 Build 0)  -->
<svg version="1.1" id="Calque_1" xmlns="http://www.w3.org/2000/svg" xmlns:xlink="http://www.w3.org/1999/xlink" x="0px" y="0px"
	 viewBox="0 0 1683.29 1075.27" style="enable-background:new 0 0 1683.29 1075.27;" xml:space="preserve">
<style type="text/css">
	.st0{fill:#FFFFFF;}
</style>
<g>
	<g>
		<path d="M1683.29,474.76c0,146.14,0,292.29,0,438.43c-36.05,41.83-84.69,30.97-130.95,32.16c-87.05,2.25-174.39,2.33-261.01,10.01
			c-105.37,9.34-209.93,27.51-315.19,38.4c-149.39,15.45-299.23,26.48-448.63,41.79c-109.42,11.21-218.32,27.41-327.7,39.07
			c-47.69,5.08-78.77-19.73-93.07-65.53c-14.08-45.08-25.97-91.06-43.24-134.9C-3.28,704.57,1.81,526.8,0.96,349.58
			C0.7,296.72,3.09,243.73,0.34,191.01c-2.86-54.64,11.9-81.99,67.06-91.44c179.04-30.67,357.69-68.09,540.57-64.45
			c289.49,5.76,577.8-15.14,866.31-32.91c31.41-1.93,63.02-2.87,94.43-1.7c41.6,1.55,66.92,25.46,70.51,66.28
			c7.03,79.79,11.32,159.84,19.53,239.49C1664.56,362.69,1674.94,418.62,1683.29,474.76z M1501.16,256.33
			c-16.42,13.82-30.23,25.7-44.31,37.26c-54.09,44.41-106.08,91.77-162.86,132.45c-124.27,89.02-250.51,175.33-377.22,260.86
			c-18.64,12.58-45.27,22.85-66.42,20.15c-39.14-4.99-80.29-14.14-114.72-32.56C624.98,615.28,514.9,554.41,408.77,487.57
			c-68.72-43.28-129.85-98.52-195.02-147.55c-20.93-15.75-43.9-28.77-70.31-45.87c-2.13,19.04-4.31,30.15-4.48,41.29
			c-2.87,183.3-2.49,365.74,67.47,540.57c25.79,64.46,20.96,66.19,88.44,57.5c134.65-17.35,269.16-35.98,404.04-51.26
			c144.9-16.42,290.07-30.62,435.3-43.88c130.84-11.95,261.93-21.28,392.89-31.91c5.26-0.43,10.4-2.42,12.01-2.82
			C1558.1,619.89,1543.82,441.27,1501.16,256.33z M277.72,197.74c46.02,37.72,79.52,68.01,115.89,94.31
			c50.79,36.73,101.51,74.55,156.3,104.53c75.15,41.12,157.17,70.17,230.42,114.1c59.65,35.77,100.53,33.41,156.96-10.74
			c89.71-70.19,192.01-124.02,285.06-190.28c67.02-47.73,127.65-104.44,191.14-157.15c-179.55,0.61-352.1,10.22-524.78,16.41
			c-125.77,4.51-251.79,2.45-377.54,7.29C436.56,179.08,362.28,189.66,277.72,197.74z"/>
		<path class="st0" d="M1501.16,256.33c42.66,184.94,56.94,363.55,37.96,547.3c-1.62,0.39-6.75,2.39-12.01,2.82
			c-130.96,10.64-262.05,19.97-392.89,31.91c-145.23,13.26-290.4,27.47-435.3,43.88c-134.89,15.28-269.39,33.91-404.04,51.26
			c-67.48,8.69-62.65,6.96-88.44-57.5c-69.95-174.83-70.34-357.27-67.47-540.57c0.17-11.14,2.35-22.25,4.48-41.29
			c26.4,17.1,49.38,30.12,70.31,45.87c65.17,49.03,126.3,104.27,195.02,147.55c106.13,66.84,216.21,127.72,326.86,186.92
			c34.43,18.42,75.58,27.57,114.72,32.56c21.14,2.7,47.77-7.56,66.42-20.15c126.71-85.53,252.95-171.84,377.22-260.86
			c56.78-40.67,108.77-88.03,162.86-132.45C1470.93,282.04,1484.74,270.16,1501.16,256.33z"/>
		<path class="st0" d="M277.72,197.74c84.56-8.08,158.85-18.66,233.43-21.53c125.76-4.84,251.77-2.78,377.54-7.29
			c172.68-6.19,345.24-15.8,524.78-16.41c-63.48,52.71-124.11,109.42-191.14,157.15c-93.05,66.27-195.35,120.1-285.06,190.28
			c-56.43,44.15-97.3,46.5-156.96,10.74c-73.26-43.92-155.28-72.98-230.42-114.1c-54.79-29.98-105.51-67.8-156.3-104.53
			C357.23,265.75,323.74,235.46,277.72,197.74z"/>
	</g>
</g>
</svg>
