<?xml version="1.0" encoding="utf-8"?>
<!-- Generator: Adobe Illustrator 23.1.0, SVG Export Plug-In . SVG Version: 6.00 Build 0)  -->
<svg version="1.1" id="Calque_1" xmlns="http://www.w3.org/2000/svg" xmlns:xlink="http://www.w3.org/1999/xlink" x="0px" y="0px"
	 viewBox="0 0 193.1 226" style="enable-background:new 0 0 193.1 226;" xml:space="preserve">
<style type="text/css">
	.st0{fill:#FFFFFF;}
</style>
<g>
	<g>
		<path class="st0" d="M45.78,214.22c-0.07,0.24-0.15,0.48-0.22,0.72c6.97,2.19,13.85,4.71,20.92,6.47
			c8.65,2.16,17.15,1.4,25.3-2.72c11.52-5.81,21.75-13.43,31.89-21.31c9.38-7.28,17.78-15.46,24.61-25.04
			c4.63-6.49,8.29-13.7,12.03-20.77c4.69-8.88,9.19-17.87,13.45-26.97c2.17-4.65,3.53-9.66,5.43-14.45
			c11.42-28.89,14.72-59.03,13.75-89.82c-0.17-5.26-0.43-10.52-0.93-15.75c-0.42-4.42-3.05-5.47-6.57-2.7
			c-1.6,1.26-2.83,2.98-4.37,4.33c-14.14,12.27-28.2,24.63-42.53,36.68c-6.11,5.14-12.62,9.86-19.27,14.29
			c-12.04,8.03-22.84,18.01-36.65,23.29c-1.58,0.61-3.08,1.54-4.47,2.54c-16.1,11.51-31.95,23.24-44.94,38.48
			c-4.12,4.84-5.96,10.53-7.71,16c-2.3,7.17-2.36,15.05-3.63,22.58c-1.8,10.72-0.12,20.9,3.95,30.88c3.76,9.24,3.67,9.34-4.95,14.31
			c-6.05,3.48-12.21,6.77-18.3,10.19c-1.8,1.01-3.14,2.32-2.32,4.71c0.82,2.38,2.55,3.49,4.96,3.42c1.11-0.03,2.31-0.32,3.29-0.84
			c7.65-4.1,15.2-8.38,22.91-12.37c1.39-0.72,3.51-0.88,4.99-0.38C39.62,211.1,42.66,212.78,45.78,214.22z"/>
		<path d="M45.78,214.22c-3.12-1.44-6.16-3.13-9.4-4.22c-1.47-0.5-3.6-0.34-4.99,0.38c-7.7,3.99-15.26,8.26-22.91,12.37
			c-0.97,0.52-2.18,0.81-3.29,0.84c-2.41,0.07-4.14-1.04-4.96-3.42c-0.82-2.38,0.52-3.7,2.32-4.71c6.09-3.42,12.25-6.71,18.3-10.19
			c8.62-4.97,8.71-5.07,4.95-14.31c-4.07-9.98-5.75-20.16-3.95-30.88c1.27-7.53,1.33-15.41,3.63-22.58c1.75-5.47,3.59-11.16,7.71-16
			c12.98-15.24,28.84-26.97,44.94-38.48c1.39-0.99,2.89-1.93,4.47-2.54c13.8-5.28,24.61-15.26,36.65-23.29
			c6.65-4.44,13.16-9.16,19.27-14.29c14.33-12.05,28.39-24.41,42.53-36.68c1.55-1.34,2.77-3.07,4.37-4.33
			c3.52-2.77,6.15-1.72,6.57,2.7c0.5,5.23,0.76,10.5,0.93,15.75c0.97,30.79-2.33,60.93-13.75,89.82c-1.89,4.79-3.25,9.8-5.43,14.45
			c-4.25,9.1-8.75,18.09-13.45,26.97c-3.74,7.07-7.4,14.28-12.03,20.77c-6.83,9.58-15.24,17.76-24.61,25.04
			c-10.15,7.88-20.38,15.49-31.89,21.31c-8.15,4.11-16.64,4.87-25.3,2.72c-7.07-1.76-13.95-4.29-20.92-6.47
			C45.64,214.7,45.71,214.46,45.78,214.22z M114.88,137.68c0.33,0.47,0.66,0.93,0.99,1.4c5.91-1.62,11.8-3.31,17.73-4.82
			c1.13-0.29,2.43,0.13,3.66,0.22c-0.87,0.85-1.59,2.04-2.64,2.49c-4.62,2-9.36,3.7-14,5.67c-10.11,4.29-19.83,9.22-27.17,17.75
			c-0.07,0.09-0.18,0.14-0.27,0.21c-8.13,7.17-16.28,14.32-24.37,21.53c-0.98,0.87-1.68,2.06-3.03,3.75
			c8.29,0.77,15.54,1.58,22.8,2.06c2.65,0.18,5.36-0.64,8.03-0.55c2.04,0.07,4.05,0.88,6.08,1.36c-0.04,0.56-0.08,1.13-0.11,1.69
			c-4.77,0.83-9.54,2.37-14.3,2.34c-6.81-0.05-13.6-1.26-20.4-1.98c-0.67-0.07-1.4-0.38-1.99-0.2c-7.86,2.41-15.95,4.33-22.25,10.2
			c-3.5,3.27-3.23,6.36,1.11,8.11c5.09,2.05,10.18,4.32,15.48,5.56c5.03,1.17,10.5,2.15,15.51,1.41
			c9.83-1.44,19.43-4.28,27.79-10.09c5.05-3.51,9.86-7.38,15.04-10.69c8.87-5.66,15.09-13.98,21.35-21.96
			c6.72-8.56,12.05-18.25,17.58-27.69c12.01-20.52,21.91-41.86,25.04-65.83c1.16-8.91,4.03-17.66,4.53-26.58
			c0.82-14.57,0.37-29.21,0.4-43.81c0-1.16-0.41-2.32-0.84-4.53c-12.58,11.01-24.48,21.42-36.38,31.83
			c-3.52,3.08-6.87,6.37-10.57,9.2c-15.53,11.84-31.05,23.68-46.82,35.2c-5.66,4.13-12,7.33-18.01,10.98
			c-1.26,0.77-2.47,1.62-3.61,2.55c-2.02,1.63-3.78,3.64-5.97,4.98c-8.97,5.5-16.95,12.43-23.12,20.65
			c-5.67,7.56-9.47,16.63-13.36,25.37c-1.9,4.27-2.93,9.28-2.95,13.97c-0.05,9.82,0.5,19.68,5.49,28.65
			c1.03,1.86,1.38,4.08,2.3,6.03c0.36,0.77,1.78,1.89,2.06,1.73c3.59-2.09,7.09-4.33,10.5-6.69c0.4-0.27,0.38-1.59,0.14-2.27
			c-2.8-7.75-1.91-15.82-1.95-23.77c-0.05-10.62,4.16-20.16,8.59-29.83c0.94,1.22,1.59,2.56,1.31,3.67
			c-0.89,3.53-2.71,6.89-3.13,10.45c-1.33,11.25-1.2,22.53,0.77,33.73c0.51,2.89,2.05,3.55,4.18,1.88
			c6.83-5.33,13.74-10.55,20.43-16.05c4.2-3.45,8.26-7.12,12.01-11.05c3.31-3.46,6.12-7.38,6.06-12.61
			c-0.05-4.21,0.07-8.42,0.14-12.63c0.15-8.1,0.27-16.2,0.53-24.29c0.03-1.05,0.82-2.07,1.26-3.1c0.62,1.04,1.71,2.04,1.8,3.12
			c0.51,6.15,0.78,12.31,1.13,18.47c0.32,5.65,0.63,11.3,1,17.78c1.3-1.31,2.14-2,2.78-2.84c4.44-5.78,8.93-11.53,13.24-17.4
			c4.38-5.95,8.59-12.02,12.85-18.05c0.33-0.46,0.53-1.02,0.74-1.55c3.71-9.44,8.08-18.77,4.91-29.39
			c-0.32-1.07-0.33-2.27-0.31-3.41c0.02-1.04,0.27-2.07,0.55-4.01c5.88,7.02,4.96,14.69,5.27,22.88c1.39-1.54,2.25-2.26,2.81-3.17
			c4.03-6.5,8.04-13.01,11.98-19.57c4.35-7.26,8.86-14.49,6.96-23.65c-0.21-0.99,0.62-2.2,0.97-3.3c0.28,0,0.56,0.01,0.85,0.01
			c0.66,1.44,1.32,2.88,2.11,4.62c2.27-2.9,4.33-5.54,6.39-8.18c0.47,0.26,0.95,0.51,1.42,0.77c-1.71,4.27-3.41,8.55-5.13,12.83
			c2.31,0.76,5.28-2.62,6.43,1.6c-7.36,2.49-8.68,3.41-11.04,7.55c-5.08,8.93-10.18,17.85-15.23,26.79
			c-0.32,0.57-0.29,1.35-0.47,2.28c3.84-0.87,7.26-3.08,10.93-0.66c-0.3,0.65-0.34,0.95-0.49,1.03c-1.3,0.72-2.55,1.67-3.95,2.03
			c-8.08,2.08-12.33,8.45-16.78,14.64c-5.4,7.49-10.86,14.93-16.21,22.45C119.54,130.46,117.25,134.1,114.88,137.68z"/>
		<path class="st0" d="M114.88,137.68c2.38-3.58,4.66-7.22,7.15-10.72c5.35-7.52,10.82-14.96,16.21-22.45
			c4.46-6.18,8.7-12.56,16.78-14.64c1.4-0.36,2.65-1.32,3.95-2.03c0.16-0.09,0.19-0.39,0.49-1.03c-3.67-2.42-7.08-0.21-10.93,0.66
			c0.18-0.93,0.15-1.7,0.47-2.28c5.05-8.95,10.15-17.87,15.23-26.79c2.36-4.14,3.68-5.06,11.04-7.55c-1.14-4.22-4.12-0.84-6.43-1.6
			c1.71-4.29,3.42-8.56,5.13-12.83c-0.47-0.26-0.95-0.51-1.42-0.77c-2.06,2.64-4.13,5.28-6.39,8.18c-0.79-1.73-1.45-3.18-2.11-4.62
			c-0.28,0-0.56-0.01-0.85-0.01c-0.35,1.11-1.18,2.31-0.97,3.3c1.9,9.17-2.61,16.39-6.96,23.65c-3.93,6.56-7.94,13.07-11.98,19.57
			c-0.56,0.91-1.43,1.63-2.81,3.17c-0.3-8.2,0.62-15.87-5.27-22.88c-0.28,1.94-0.53,2.98-0.55,4.01c-0.02,1.14-0.01,2.33,0.31,3.41
			c3.17,10.62-1.2,19.94-4.91,29.39c-0.21,0.53-0.41,1.09-0.74,1.55c-4.26,6.03-8.47,12.1-12.85,18.05
			c-4.32,5.87-8.8,11.62-13.24,17.4c-0.65,0.84-1.48,1.53-2.78,2.84c-0.36-6.48-0.68-12.13-1-17.78
			c-0.35-6.16-0.62-12.32-1.13-18.47c-0.09-1.08-1.17-2.08-1.8-3.12c-0.44,1.03-1.23,2.05-1.26,3.1
			c-0.26,8.09-0.38,16.19-0.53,24.29c-0.08,4.21-0.19,8.42-0.14,12.63c0.06,5.23-2.75,9.15-6.06,12.61
			c-3.75,3.92-7.81,7.6-12.01,11.05c-6.69,5.5-13.6,10.72-20.43,16.05c-2.13,1.66-3.68,1.01-4.18-1.88
			c-1.97-11.2-2.1-22.48-0.77-33.73c0.42-3.55,2.24-6.92,3.13-10.45c0.28-1.11-0.37-2.45-1.31-3.67c-4.43,9.66-8.64,19.2-8.59,29.83
			c0.04,7.95-0.85,16.01,1.95,23.77c0.25,0.68,0.26,2-0.14,2.27c-3.41,2.36-6.92,4.6-10.5,6.69c-0.28,0.16-1.7-0.96-2.06-1.73
			c-0.91-1.94-1.26-4.17-2.3-6.03c-4.99-8.97-5.54-18.83-5.49-28.65c0.02-4.68,1.05-9.7,2.95-13.97
			c3.89-8.73,7.68-17.81,13.36-25.37c6.16-8.21,14.14-15.15,23.12-20.65c2.19-1.34,3.95-3.35,5.97-4.98
			c1.14-0.93,2.35-1.78,3.61-2.55c6.01-3.66,12.35-6.85,18.01-10.98c15.77-11.52,31.29-23.36,46.82-35.2
			c3.71-2.83,7.06-6.12,10.57-9.2c11.9-10.41,23.8-20.83,36.38-31.83c0.42,2.21,0.84,3.37,0.84,4.53
			c-0.03,14.61,0.43,29.25-0.4,43.81c-0.5,8.91-3.37,17.67-4.53,26.58c-3.13,23.97-13.03,45.31-25.04,65.83
			c-5.53,9.44-10.86,19.13-17.58,27.69c-6.26,7.98-12.48,16.3-21.35,21.96c-5.18,3.31-9.99,7.18-15.04,10.69
			c-8.35,5.81-17.96,8.64-27.79,10.09c-5.01,0.74-10.48-0.24-15.51-1.41c-5.31-1.24-10.4-3.5-15.48-5.56
			c-4.35-1.75-4.62-4.84-1.11-8.11c6.3-5.87,14.38-7.79,22.25-10.2c0.59-0.18,1.32,0.13,1.99,0.2c6.8,0.72,13.6,1.92,20.4,1.98
			c4.76,0.04,9.53-1.5,14.3-2.34c0.04-0.56,0.08-1.13,0.11-1.69c-2.02-0.48-4.04-1.28-6.08-1.36c-2.67-0.1-5.38,0.72-8.03,0.55
			c-7.27-0.49-14.51-1.29-22.8-2.06c1.35-1.69,2.05-2.88,3.03-3.75c8.09-7.21,16.24-14.36,24.37-21.53
			c0.09-0.08,0.19-0.13,0.27-0.21c7.34-8.54,17.06-13.46,27.17-17.75c4.63-1.97,9.38-3.67,14-5.67c1.04-0.45,1.77-1.64,2.64-2.49
			c-1.22-0.09-2.53-0.51-3.66-0.22c-5.94,1.51-11.83,3.19-17.73,4.82C115.53,138.61,115.2,138.15,114.88,137.68z"/>
	</g>
</g>
</svg>
