<?xml version="1.0" encoding="utf-8"?>
<!-- Generator: Adobe Illustrator 23.1.0, SVG Export Plug-In . SVG Version: 6.00 Build 0)  -->
<svg version="1.1" id="Calque_1" xmlns="http://www.w3.org/2000/svg" xmlns:xlink="http://www.w3.org/1999/xlink" x="0px" y="0px"
	 viewBox="0 0 960 1080" style="enable-background:new 0 0 960 1080;" xml:space="preserve">
<style type="text/css">
	.st0{fill:#FFFFFF;}
</style>
<g>
	<g>
		<path d="M107.88,693.35c53.29-103.58,124.15-109.74,185.46-48.31c15.86-29.74,10.07-60.3,7.19-90.25
			c-0.89-9.3-10.65-12.93-18.62-15.12c-24.09-6.62-42.96-20.88-61.86-36.58c-10.4-8.64-25.23-27.37-37.47,2.4
			c-5.29,12.85-18.55,12.57-23.92-3.21c-3.57-10.49-9.23-23.37-6.08-32.46c8.02-23.14-4.3-36.16-17.16-51.39
			c-15.36-18.19-25.31-40.54-23.38-64.14c7.44-91.16,27.22-179.25,95.31-245.83c40.3-39.41,87.32-68.58,146.8-78.12
			c66.96-10.74,133.46-27.07,201.13-30c63.34-2.75,124.61,12.3,183.76,37.9c52.24,22.61,102.42,45.94,144.08,86.56
			c46.32,45.16,65.71,97.86,71.51,162.21c4.29,47.66-16.44,84.95-30.25,124.71c-12.55,36.15-47.77,58.67-78.9,79.83
			c-54.56,37.08-117.69,57.08-180.97,71c-67.97,14.96-138.39,17.11-208.21,12.92c-13.63-0.82-20.52,1.38-26.49,12.84
			c-22.2,42.59-61.78,63.69-103.87,80.19c-13.01,5.1-18.39,8.16-13.33,22.97c3.5,10.22,2.4,22.11,2.77,33.27
			c0.28,8.37-1.69,18.04,7.88,21.97c8.54,3.51,18.53-0.04,22.6-7.06c15.78-27.22,55.03-31.51,62.63-67.8
			c2.98-14.25,40.17-17.31,58.68-6.85c18.22,10.29,32.72,23.11,21.56,47.21c-1.96,4.23-2.76,9.68-5.92,12.57
			c-32.36,29.55-50.38,71.73-85.46,98.42c-19.38,14.74-22.58,32.55-18.78,54.04c2.43,13.75,4.93,27.49,7.28,41.25
			c5.65,33.18-6.14,56.54-38.59,68.17c-15.01,5.38-22.29,15.83-21.88,31.97c0.55,22.2-13.14,36.45-29.39,48.13
			c-30.2,21.69-62.06,6.93-65.31-29.83c-0.91-10.33,0.13-22.9-13.84-23.31c-13.8-0.41-9.82,12.78-12.09,21.12
			c-4.57,16.76-51.78,47.08-69.57,45.2c-11.74-1.24-19.01-8.41-21.71-19c-3.22-12.59-6.48-25.67-6.35-38.5
			c0.23-22.29-2.96-39.77-28.14-47.86c-15.33-4.93-21.88-19.9-21.73-36.09c0.1-10.2,0.9-20.63,3.19-30.54
			c13.62-58.85,7.1-110.03-39.82-155.65C-12.9,719.7-3.47,676.48,33.97,652.01c26.72-17.47,40.31-14.11,56.88,13.18
			C96.5,674.49,97.51,686.72,107.88,693.35z"/>
		<path d="M106.24,505.93c-0.82,11.7-6.04,16.81-14.59,14.79c-15.84-3.75-26.33-14.38-26.81-30.88c-0.29-9.85,7.5-19.12,17.48-17.89
			C103.06,474.51,97.09,496.76,106.24,505.93z"/>
		<path class="st0" d="M320.01,648.05c0-32.32,1.04-59.38-0.37-86.32c-0.91-17.39-2.3-35.9-22.17-44.97
			c-10.69-4.88-1.14-12.91-2.07-19.26c-1.75-11.89,5.7-30.77-11.73-33c-16.51-2.12-17.59,15.57-20.07,28.34
			c-0.47,2.44-1.91,4.7-4.18,10.08c-38.79-34.3-90.49-50.7-111.18-103.88c-12.09-31.07-12.95-62.49-9.56-93.69
			c5.88-54.08,18.37-106.94,57.06-148.62c22.21-23.92,46.28-46.1,69.35-69.22c22.79-22.84,54.61-22.25,82.49-31.34
			c76.88-25.09,157.46-29.05,237.11-34.78c57.96-4.17,110.23,24.54,164,42.65c53.96,18.17,94.9,54.69,134,93.79
			c49.17,49.16,63.36,143.81,39.65,208.87c-31.62,86.75-101.42,122.57-180.12,152.41c-69.11,26.2-140.98,32.22-213.19,38.68
			c-24.35,2.18-48.55,1.14-72.45-4.12c-12.06-2.66-22.59-2-28.19,10.88C408.14,611.13,363.76,625.58,320.01,648.05z"/>
		<path class="st0" d="M246.46,980.53c-44.66,2.3-86.45-12.03-128.61-23.09c-21.13-5.54-28.06-23.25-25.57-44.04
			c3.1-25.88,5.85-51.9,10.88-77.43c3.6-18.23,1.87-32.7-13.67-44.72c-5.58-4.32-9.87-11.21-12.86-17.79
			c-4.87-10.68-6.29-23.22,3.98-30.75c9.9-7.26,16.56,4.14,23.43,9.39c7.36,5.63,14.13,12.17,20.48,18.95
			c14.2,15.17,29.89,21.75,49.83,11.15c9.37-4.98,20.74-7.83,29.83-4.05c36.3,15.09,73.06,4.77,109.64,4.43
			c19.8-0.18,31.03-15.78,45.85-24.72c13.35-8.06,25.35-16.9,39.49-1.83c14.53,15.49,4.1,27.88-5.57,39.05
			c-9.68,11.17-19.98,23.11-32.55,30.19c-22.7,12.8-23.68,28.24-16.53,51.11c22.52,71.99,5.82,95.26-70.17,102.19
			C265.07,979.41,255.76,979.88,246.46,980.53z"/>
		<path class="st0" d="M230.35,705.74c3.8-15.85,2.56-38.3,24.93-45.86c11.33-3.82,33.06,30.26,31.16,50.54
			c-1.79,19.1,1.55,44.16-26.43,47.68C242.72,760.28,229.64,736.31,230.35,705.74z"/>
		<path class="st0" d="M33.32,705.72c1.34-13.04,1.45-30.7,17-30.08c12.85,0.52,12.53,18.77,12.79,29.96
			c0.24,10.57-2.94,25.23-15.71,25.41C32.58,731.23,34.83,716.06,33.32,705.72z"/>
		<path class="st0" d="M133.92,1022.57c2.15-9.03-2.37-24.03,15.12-22.93c12.77,0.8,20,9.82,19.81,22.88
			c-0.2,13.61-5.57,24.33-21.19,23.86C132.36,1045.92,134.89,1033.38,133.92,1022.57z"/>
		<path class="st0" d="M445.21,684.12c11.3,2.03,15.71,9.73,15.53,19.85c-0.21,11.94-4.69,23.35-18.09,23.56
			c-13.04,0.21-11.23-12.08-11.69-20.95C430.39,695.83,431.82,685.97,445.21,684.12z"/>
		<path class="st0" d="M276.95,1012.75c7.98,1.59,13.17,5.8,12.55,13.14c-0.7,8.22-2.92,17.9-13.38,17.97
			c-8.81,0.06-12.1-7.65-11.66-15.79C264.89,1019.93,269.41,1014.57,276.95,1012.75z"/>
		<path d="M548.75,391.78c-19.42,6.3-37.97-35.56-48.78,10.48c-11.87-23.49-6.47-42.41-3.02-60.51c2-10.49,12.25-13.28,22.47-11.05
			c9.93,2.17,20.89,10.02,17.03,18.31C528.07,367.03,539.9,377.65,548.75,391.78z"/>
		<path d="M706.43,343.3c-3.23,26.98-36,16.01-37.14,41.41c-0.14,3.22-7.03,2.09-9.06-1.12c-6.47-10.22-5.88-21.56-2.06-32.31
			c3.21-9.04,9.09-14.03,19.14-6.68c9.89,7.23,12.22-3.28,17.11-7.9c16.19-15.28,23.84-12.96,30.1,9.03
			c0.77,2.69,1.9,5.46,1.84,8.17c-0.21,9.46,8.31,24.96-3.99,26.72c-13.91,1.99-7.73-15.23-10.73-23.91
			C710.84,354.37,709.86,352.08,706.43,343.3z"/>
		<path d="M319.97,362.62c-0.02,21.15-11.58,29.46-28.4,29.46c-17.13-0.01-29.03-9.62-27.74-27.7c1.1-15.34,8.96-31.64,25.49-31.68
			C306.77,332.67,321.31,343.13,319.97,362.62z"/>
		<path d="M561.44,346.47c0.53-16.52-2.78-35.5,23-35.81c5.33-0.06,12.04-2.34,13.82,5.1c1.46,6.13-4.25,7.36-8.73,8.33
			c-5.62,1.23-11.94,2.31-11.6,9.46c0.38,7.91,6.76,7.03,12.5,6.5c3.73-0.35,7.67,0.13,8.49,4.8c1.03,5.87-3.03,8.04-7.72,9.6
			c-6.7,2.22-16.83,2.39-12.44,13.52c3.34,8.47,10.75,4.58,16.79,2.48c5.06-1.76,11.51-6.11,14.23,1.17
			c3.02,8.1-4.48,10.82-10.65,13.4C573.17,395.87,560.91,383.35,561.44,346.47z"/>
		<path d="M598.12,159.56c9.03-1.06,14.72-1.79,16.68,2.99c3.15,7.65-3.5,9.01-8.87,10.35c-5.47,1.37-11.49,2.38-10.54,9.95
			c0.75,5.99,5.78,6.11,10.53,6.13c4.35,0.02,9.87-1.49,10.39,5.34c0.45,5.9-4.35,7.37-8.82,8.77c-5.96,1.87-14.53,2.3-12.09,11.45
			c2.87,10.76,11.07,6.61,18.08,4.38c4.95-1.58,11.11-5.72,13.72,2.15c2.26,6.81-3.81,9.23-8.93,11.7
			c-20.99,10.13-34.7,3.82-37.98-19.17c-1.67-11.74,0.08-23.94,0.1-35.94C580.42,162.62,590.1,159.25,598.12,159.56z"/>
		<path d="M768.67,392.8c-15.07-0.62-26.09-10.12-26.45-25.48c-0.38-16.21,6.95-33.56,25.52-34.4c16.62-0.75,30.26,9.66,31.12,29.11
			C799.72,381.59,788.62,390.81,768.67,392.8z"/>
		<path d="M490.31,212.13c-0.13,19.77-12.12,28.59-30.15,28.72c-16.56,0.12-26.98-11.18-26.45-26.53
			c0.55-15.96,7.84-33.34,26.99-32.88C477.22,181.85,490.61,191.99,490.31,212.13z"/>
		<path d="M335.4,369.33c1.08-6.49-1.45-20.12,11.13-24.88c10.44-3.95,13.08,7.9,17.67,14.18c9.57,13.09,14.4,10.82,19.3-3.77
			c2.89-8.6,1.24-26.75,13.34-23.08c14.72,4.46,1.83,19.17,0.15,28.64c-3.99,22.56-14.76,35-37.77,16.53
			c-4.17-3.34-8.09-5.28-10.52,1.43c-1.96,5.39-3.58,11.77-10.97,7.86C333.3,383.9,334.23,378.18,335.4,369.33z"/>
		<path d="M566.62,206.37c-4.26,18.32-5.15,41.76-30.23,42.96c-23.93,1.14-27.7-20.49-31.14-39.07c-0.96-5.19-2.36-12.15,4.45-14.18
			c7.37-2.2,8.59,4.94,10.41,9.89c0.94,2.55,0.75,5.5,1.37,8.2c1.86,8.1,3.08,18.67,12.94,19.03c11.67,0.42,12.93-11.02,15.17-19.87
			c0.68-2.67,0.45-5.58,1.13-8.25c1.49-5.84,0.67-14.76,9.98-13.29C567.81,192.91,564.93,200.73,566.62,206.37z"/>
		<path d="M196.12,349.38c0.76-17.45,9.97-28.8,28.31-31.56c8.44-1.27,19.69-0.78,20.87,8.81c1.54,12.62-10.09,6.16-16.36,7
			c-7.93,1.06-14.64,3.6-15.97,12.68c-1.48,10.09,4.17,15.28,12.79,18.98c6.57,2.82,21.95-1.41,17.22,10.99
			c-4.05,10.63-18.06,6.23-27.39,2.19C203.71,373.32,196.16,364.21,196.12,349.38z"/>
		<path d="M450.42,336.49c5.59,0,11.18-0.13,16.76,0.04c3.95,0.12,7.58,1.71,8.32,5.89c0.76,4.32-2.33,7.48-6.15,7.6
			c-19.48,0.61-18.56,13.89-18.04,27.53c0.26,6.78,4.08,17.08-7.11,17.49c-8.56,0.31-7.12-9.29-7.97-15.41
			c-1.55-11.18,3.08-23.59-13.6-29.79c-8.05-2.99-2.81-11.3,5.45-12.25c7.36-0.84,14.9-0.18,22.36-0.18
			C450.42,337.11,450.42,336.8,450.42,336.49z"/>
		<path d="M352.65,551.87c-1.97,0-4.85-4.83-5.01-12.34c-0.32-14.83,21.68-38.61,35.18-37.72c7.03,0.47,12.5,3,12.67,11.41
			C395.72,523.93,369.59,551.61,352.65,551.87z"/>
		<path d="M657.28,246.91c-1.99-0.88-7.62-1.6-9.83-4.73c-3.29-4.67,0.41-8.51,5.53-10.03c12.59-3.72,7.74-12.97,6.07-20.54
			c-1.92-8.69-1.25-16.68,3.45-24.1c2.68-4.24,7.16-5.99,12.04-5.09c3.46,0.64,9.66,4.18,7.69,5.8
			c-17.61,14.41,0.87,33.45-7.04,48.74C671.91,243.28,667.1,246.97,657.28,246.91z"/>
		<path d="M419.98,206.86c0.16,12.83-0.53,23-9.27,30.28c-7.21,6-16.33,8.18-22.06,0.29c-7.4-10.18,1.45-11.09,9.44-12.65
			c8.74-1.7,5.77-10.1,6.81-15.99c1.31-7.41-5.74-20.3,4.96-21.05C422.6,186.84,417.7,201.33,419.98,206.86z"/>
		<path d="M864.14,325.86c2.47,1.5,6.62,2.85,6.62,4.2c0,17.23-0.63,34.49-7.89,50.54c-0.7,1.54-5.42,3.04-6.86,2.19
			c-10.71-6.37-4.77-16.47-4.37-24.9C852.17,346.3,851.88,333.76,864.14,325.86z"/>
		<path d="M830.66,361.98c-1.04,6.8,4.5,18.38-4.77,18.59c-13.14,0.29-7.91-13.69-9.37-21.47c-1.39-7.37-3.57-20.67,6.74-19.91
			C835.22,340.07,827.45,354.39,830.66,361.98z"/>
		<path d="M855.27,403.51c5.24,0.87,7.7,4.03,7.72,9.26c0.02,5.3-2.68,9.28-7.76,8.95c-4.58-0.29-8.05-3.85-8.17-9.21
			C846.93,406.94,850.61,404.76,855.27,403.51z"/>
		<path d="M824.54,312.67c-0.56,4.18-3.25,6.35-7.03,4.91c-1.83-0.7-3.67-3.97-3.72-6.11c-0.08-3.57,1.87-7.1,6.22-6.56
			C824.23,305.42,824.83,309,824.54,312.67z"/>
		<path class="st0" d="M293,347.61c7.67,3.4,11.59,9.42,11.41,17.24c-0.21,9.33-7,12.85-15.03,11.84
			c-7.3-0.91-10.94-6.67-9.56-14.07C281.21,355.26,284.2,348.65,293,347.61z"/>
		<path class="st0" d="M769.32,376.73c-6.94-0.77-12.5-4.04-11.58-11.83c0.97-8.19,4.39-17.36,13.99-16.86
			c7.48,0.38,11.83,7.84,11.99,15.96C783.9,373.5,777.61,376.19,769.32,376.73z"/>
		<path class="st0" d="M475.59,212.14c-0.76,9.78-6.68,13.12-14.84,13.18c-7.73,0.05-12.37-4.72-11.65-12.01
			c0.83-8.31,4.59-17.27,14.36-16.56C471,197.3,475.23,204.55,475.59,212.14z"/>
	</g>
</g>
</svg>
