<?xml version="1.0" encoding="utf-8"?>
<!-- Generator: Adobe Illustrator 23.1.0, SVG Export Plug-In . SVG Version: 6.00 Build 0)  -->
<svg version="1.1" id="Calque_1" xmlns="http://www.w3.org/2000/svg" xmlns:xlink="http://www.w3.org/1999/xlink" x="0px" y="0px"
	 viewBox="0 0 1080.65 1064.49" style="enable-background:new 0 0 1080.65 1064.49;" xml:space="preserve">
<g>
	<g>
		<path d="M733.58,1065.56c-3.16-1.32-4.33-3.6-4.36-7.1c-0.17-22.32-0.9-44.65-0.74-66.97c0.21-28.74,1.9-57.49,1.51-86.22
			c-0.6-44.98-2.77-89.93-3.57-134.91c-0.44-25.26,0.55-50.54,0.88-75.81c0.03-2.1,0-4.21,0-7.38c-116,0.81-231.46,1.62-348.08,2.44
			c0,10.57-0.29,22.3,0.06,34.02c0.86,29.09,2.7,58.16,2.91,87.25c0.46,63.26,0.17,126.52,0.12,189.78
			c-0.01,19.29-0.11,38.59-0.5,57.88c-0.05,2.36-2.12,4.68-3.25,7.02c-1.79,0-3.57,0-5.36,0c-1.13-2.4-3.2-4.78-3.26-7.2
			c-1.06-47.31-1.21-94.6,0.61-141.93c1.05-27.24-1.01-54.6-1.76-81.9c-0.76-27.48-2.03-54.95-2.32-82.44
			c-0.2-19.14,0.87-38.3,1.36-57.45c0.05-1.95,0.01-3.9,0.01-6.58c-9.97-0.37-19.71-1.13-29.44-1.03
			c-60.89,0.65-121.79,1.82-182.68,2.16c-48.93,0.27-97.87-0.34-146.8-0.74c-2.63-0.02-5.25-1.67-7.87-2.56c0-2.5,0-5.01,0-7.51
			c2.19-0.9,4.33-2.42,6.57-2.6c32.48-2.55,64.93-0.58,97.43,0.1c55.91,1.17,111.84,1.31,167.77,1.08
			c31.41-0.13,62.81-1.87,94.47-2.9c0.18-0.82,0.52-1.65,0.52-2.47c0.03-28.75,0.27-57.5-0.02-86.24
			c-0.44-42.51-1.69-85.01-1.77-127.52c-0.06-33.4,1.14-66.79,1.76-100.19c0.04-2.29,0.01-4.57,0.01-7.97
			c-10.12,0-19.89-0.13-29.65,0.02c-32.33,0.53-64.65,1.37-96.98,1.7c-48.42,0.49-96.84,0.79-145.26,0.88
			c-23.58,0.05-47.16-0.51-70.73-0.86c-6.99-0.1-9.16-2.02-8.66-7.13c0.36-3.74,1.89-5.82,6.07-5.8
			c31.24,0.15,62.48,0.04,93.72,0.29c15.35,0.12,30.7,1.05,46.06,1.18c35.2,0.28,70.42,0.71,105.61,0.29
			c33.18-0.4,66.36-1.8,100.41-2.79c0-9.89,0.14-19.45-0.03-29.01c-0.45-25.36-1.23-50.71-1.52-76.07
			c-0.51-45.02-0.97-90.05-1.04-135.08c-0.04-29.48,0.62-58.95,1.01-88.43c0.09-6.9,2.95-9.43,8.83-7.38
			c1.67,0.58,3.75,2.95,3.86,4.63c2.26,32.83,1.56,65.66-0.07,98.5c-0.87,17.47-1.21,34.99-1.31,52.48
			c-0.2,34.48-0.33,68.97,0.03,103.46c0.27,25.34,1.37,50.68,2.13,76.78c12,0,23.73-0.22,35.44,0.04
			c33.74,0.77,67.47,2.24,101.2,2.44c23.2,0.14,46.4-1.69,69.6-2.03c26.43-0.39,52.88-0.26,79.31-0.06
			c19.47,0.15,38.93,0.79,58.39,1.18c1.04,0.02,2.08-0.26,3.8-0.49c0-10.02,0.15-19.98-0.03-29.93c-0.38-21.43-1.1-42.85-1.36-64.28
			c-0.59-48.59-1.22-97.19-1.38-145.78c-0.1-29.65,0.62-59.3,1-88.96c0.09-7.05,2.32-9.26,7.84-8.42c3.65,0.55,4.88,2.34,5.11,6.08
			c1.83,30.16,1.59,60.28-0.04,90.46c-1.28,23.53-1.33,47.14-1.41,70.72c-0.13,37.87-0.02,75.75,0.37,113.62
			c0.19,18.72,1.22,37.43,1.88,56.41c7,0,13.69,0.1,20.37-0.02c40.35-0.72,80.7-1.83,121.05-2.15c46.83-0.38,93.66-0.09,140.49-0.09
			c17.34,0,34.68-0.04,52.01,0.03c5.89,0.02,6.86,1.26,6.61,6.99c-0.15,3.51-1.66,5.12-5.28,5.17c-15.72,0.21-31.43,0.92-47.14,0.78
			c-30.18-0.27-60.36-1.44-90.54-1.39c-30.36,0.05-60.72,1.05-91.07,1.79c-22.67,0.55-45.34,1.54-68.01,1.91
			c-10.77,0.18-21.56-0.63-32.34-0.97c-1.75-0.06-3.49-0.01-5.59-0.01c0,7.77,0.17,15.03-0.03,22.28
			c-0.69,24.98-1.58,49.95-2.25,74.92c-0.2,7.67,0.16,15.35,0.11,23.03c-0.09,16.6-0.64,33.2-0.35,49.79
			c0.61,34.47,1.87,68.92,2.42,103.39c0.24,14.99-0.61,30-0.94,45c-0.04,1.95-0.01,3.9-0.01,6.39c3.63,0,6.95,0.13,10.25-0.02
			c94.68-4.3,189.4-1.33,284.1-1.94c8.4-0.05,16.8,0.06,25.2-0.03c3.87-0.04,5.95,1.18,6.01,5.53c0.06,4.34-1.2,6.95-5.88,7
			c-12.87,0.13-25.73,0.45-38.6,0.33c-33.22-0.3-66.43-1.17-99.64-1.12c-28.75,0.05-57.5,0.97-86.24,1.65
			c-23.03,0.55-46.05,1.4-69.08,1.98c-8.59,0.22-17.18,0.03-26.86,0.03c0,8.17-0.23,16.88,0.04,25.57
			c0.88,28.74,1.94,57.47,2.93,86.21c0.08,2.32,0.23,4.64,0.23,6.96c0.01,62.56,0.04,125.12-0.01,187.68
			c-0.02,20.91-0.24,41.81-0.32,62.72c-0.01,3.27-0.01,6.43-3.78,7.84C736.44,1065.56,735.01,1065.56,733.58,1065.56z
			 M380.98,351.46c-0.07,1.35-0.22,2.92-0.24,4.48c-0.31,22.67-0.62,45.34-0.91,68.01c-0.25,19.1-0.49,38.19-0.7,57.29
			c-0.17,15.52-0.5,31.05-0.37,46.57c0.37,44.1,0.95,88.21,1.43,132.31c0.05,4.55,0.01,9.1,0.01,13.98c1.85,0,3.26-0.03,4.66,0
			c34.8,0.77,69.6,1.73,104.4,2.24c18.91,0.27,37.86,0.49,56.73-0.51c48.94-2.6,97.84-1.18,146.76,0.1
			c11.36,0.3,22.74,0.04,35.45,0.04c0-21.67,0.39-42.72-0.1-63.76c-0.6-25.7-2.54-51.38-2.79-77.07
			c-0.35-35.73,0.29-71.46,0.59-107.19c0.14-16.43,0.5-32.87,0.67-49.3c0.1-9.22,0.02-18.45,0.02-27.97
			c-0.73-0.08-1.59-0.27-2.44-0.27c-45.36,0.27-90.73,0.51-136.09,0.87c-35.19,0.28-70.38,0.88-105.57,1.01
			c-19.46,0.07-38.93-0.61-58.4-0.8C409.86,351.35,395.61,351.46,380.98,351.46z"/>
	</g>
</g>
</svg>
