<?xml version="1.0" encoding="utf-8"?>
<!-- Generator: Adobe Illustrator 23.1.0, SVG Export Plug-In . SVG Version: 6.00 Build 0)  -->
<svg version="1.1" id="Calque_1" xmlns="http://www.w3.org/2000/svg" xmlns:xlink="http://www.w3.org/1999/xlink" x="0px" y="0px"
	 viewBox="0 0 1107.84 1080" style="enable-background:new 0 0 1107.84 1080;" xml:space="preserve">
<style type="text/css">
	.st0{fill:#FFFFFF;}
</style>
<g>
	<g>
		<path class="st0" d="M1107.84,618.61c-6-146.73-7.93-287.59-36.15-426.29c-15.86-77.97-59.42-133.44-134.5-160.65
			c-29.19-10.58-60.64-17.74-91.57-20.22C684.13-1.5,522.47-5.39,360.8,9.96c-47.59,4.52-95.19,11.19-142.86,12
			C130.98,23.42,74.55,66.29,41.39,143.69c-24.42,57-35.86,117.33-39.03,178.82c-8.83,171.35,7.85,341.12,37.29,509.61
			c22.56,129.11,100.73,202.63,231.2,221.21c57.69,8.22,115.63,15.09,173.65,20.45c154.63,14.27,308.41,2.8,460.97-22.33
			c120.81-19.9,187.27-99.32,193.33-223.24C1102.32,756.35,1105.03,684.46,1107.84,618.61z"/>
		<path d="M1107.84,618.61c-2.81,65.85-5.53,137.74-9.04,209.6c-6.06,123.92-72.52,203.34-193.33,223.24
			c-152.57,25.13-306.34,36.59-460.97,22.33c-58.02-5.35-115.96-12.23-173.65-20.45c-130.47-18.58-208.64-92.1-231.2-221.21
			C10.21,663.63-6.47,493.85,2.36,322.51c3.17-61.49,14.61-121.82,39.03-178.82c33.16-77.4,89.58-120.26,176.55-121.73
			c47.68-0.81,95.28-7.48,142.86-12C522.47-5.39,684.13-1.5,845.63,11.46c30.92,2.48,62.38,9.64,91.57,20.22
			c75.08,27.2,118.64,82.68,134.5,160.65C1099.91,331.03,1101.84,471.88,1107.84,618.61z M989.35,566.38
			c0-66.15,2.89-129.31-0.87-192.06c-3.29-54.92-12.72-109.61-21.95-163.98c-6.53-38.46-31.74-65.37-67.79-77.49
			c-33.61-11.3-69.05-21.89-104.07-23.36c-86.83-3.64-173.91-3.15-260.85-1.87c-65.81,0.97-131.62,4.9-197.32,9.12
			c-34.26,2.2-68.21,10.35-102.44,11.42c-53.79,1.68-74.85,10.38-90.96,60.93c-13.44,42.19-23.3,87.29-24.3,131.34
			c-2.52,110.86-1.1,221.92,2.63,332.77c2.15,63.96,4.75,128.47,27.08,190.23c16.94,46.86,46.43,81.25,93.8,95.14
			c41.18,12.08,84.07,23.95,126.49,25.08c122.87,3.25,245.91,2.72,368.82,0.16c49-1.02,98.04-9.81,146.65-17.64
			c52.64-8.48,87.79-40.92,98.21-92.41c9.12-45.07,13.03-91.75,13.81-137.82C997.15,665.11,991.82,614.17,989.35,566.38z"/>
		<path class="st0" d="M989.35,566.38c2.47,47.79,7.8,98.74,6.94,149.58c-0.78,46.06-4.69,92.74-13.81,137.82
			c-10.42,51.49-45.56,83.93-98.21,92.41c-48.61,7.83-97.65,16.62-146.65,17.64c-122.9,2.55-245.95,3.09-368.82-0.16
			c-42.42-1.12-85.32-13-126.49-25.08c-47.37-13.89-76.85-48.28-93.8-95.14c-22.33-61.76-24.93-126.28-27.08-190.23
			c-3.72-110.85-5.15-221.91-2.63-332.77c1-44.05,10.86-89.15,24.3-131.34c16.1-50.55,37.16-59.25,90.96-60.93
			c34.23-1.07,68.18-9.22,102.44-11.42c65.71-4.22,131.51-8.15,197.32-9.12c86.94-1.28,174.02-1.76,260.85,1.87
			c35.03,1.47,70.46,12.06,104.07,23.36c36.05,12.12,61.26,39.02,67.79,77.49c9.23,54.37,18.66,109.06,21.95,163.98
			C992.24,437.07,989.35,500.22,989.35,566.38z M539.38,720.28c33.76-1.71,77.29-14.03,114.62-45.32
			c42-35.2,59.81-82.08,62.73-134.31c3.03-54.23-7.83-109.91-39.63-151.85c-76.8-101.27-222.74-101.24-298.86-30.43
			c-64.27,59.78-85.85,146.1-55.39,224.94C354.76,665.91,436.14,720.9,539.38,720.28z M850.79,267.69
			c-0.29-28.95-22.17-52.57-49.43-53.35c-31.93-0.92-58.43,24.77-57.31,55.55c1.08,29.72,26.88,55.62,54.23,54.45
			C826.14,323.15,851.08,296.24,850.79,267.69z"/>
		<path d="M539.38,720.28c-103.24,0.62-184.62-54.38-216.53-136.97c-30.46-78.84-8.88-165.16,55.39-224.94
			c76.12-70.81,222.06-70.84,298.86,30.43c31.8,41.93,42.66,97.61,39.63,151.85C713.81,592.87,696,639.76,654,674.96
			C616.67,706.25,573.14,718.57,539.38,720.28z M607.15,523.38c-1.28-72.93-31.65-105.18-97.76-103.83
			c-54.38,1.11-88.2,38.82-87.02,97.03c1.11,55.01,42.45,95.97,96.35,95.47C576.24,611.52,608.13,579.54,607.15,523.38z"/>
		<path d="M850.79,267.69c0.28,28.55-24.65,55.45-52.51,56.65c-27.35,1.17-53.15-24.73-54.23-54.45
			c-1.12-30.78,25.38-56.46,57.31-55.55C828.62,215.13,850.51,238.75,850.79,267.69z"/>
		<path class="st0" d="M607.15,523.38c0.99,56.16-30.91,88.14-88.44,88.67c-53.9,0.5-95.24-40.46-96.35-95.47
			c-1.18-58.21,32.64-95.92,87.02-97.03C575.5,418.2,605.87,450.45,607.15,523.38z"/>
	</g>
</g>
</svg>
