<?xml version="1.0" encoding="utf-8"?>
<!-- Generator: Adobe Illustrator 23.1.0, SVG Export Plug-In . SVG Version: 6.00 Build 0)  -->
<svg version="1.1" id="Calque_1" xmlns="http://www.w3.org/2000/svg" xmlns:xlink="http://www.w3.org/1999/xlink" x="0px" y="0px"
	 viewBox="0 0 383.99 368.41" style="enable-background:new 0 0 383.99 368.41;" xml:space="preserve">
<style type="text/css">
	.st0{fill:#FFFFFF;}
</style>
<path class="st0" d="M222.48,365.26c0-0.15,0-0.3-0.01-0.44c3.57,0,7.15,0.02,10.72-0.01c5.78-0.04,11.88,1.04,17.28-0.43
	c10.63-2.89,21.3-1.94,31.98-2.39c2.46-0.1,4.93-0.39,7.37-0.75c5.39-0.79,10.75-2.3,16.14-2.39c9.98-0.18,19.75-1.26,29.39-3.79
	c5.04-1.32,10.16-2.31,15.21-3.58c11.14-2.81,19.3-12.05,20.99-23.53c1.03-7.02,1.63-14.16,3.42-20.99
	c3.2-12.21,5.87-24.43,6.1-37.1c0.04-2.17,0.58-4.34,0.91-6.51c0.79-5.13,2.15-10.25,2.27-15.39c0.26-11.01-0.1-22.03-0.26-33.05
	c-0.05-3.3-0.1-6.62-0.45-9.89c-0.84-7.89-2.43-15.73-2.69-23.63c-0.63-18.91-0.15-37.86-2.66-56.7c-0.39-2.95,0.13-6.03,0.27-9.05
	c0.1-2.19,0.54-4.41,0.34-6.57c-1-10.87-4.21-21.35-5.63-32.21c-1.58-12.09-5.56-23.91-9.03-35.69c-1.99-6.76-3.94-13.97-7.85-19.64
	c-5.96-8.64-15.73-12.78-25.8-14.65c-9.87-1.84-19.64-5.16-29.97-3.94c-1.55,0.18-3.21-0.57-4.83-0.86c-4.01-0.71-8.03-2-12.04-2.02
	C249.49-0.06,215.33,0,181.18,0.09c-3.28,0.01-6.56,0.6-9.83,0.98c-6.26,0.72-12.49,1.79-18.77,2.14
	c-14.82,0.84-29.66,1.3-44.49,2.02C102.6,5.49,97.13,6.18,91.64,6.4C84.76,6.68,77.84,6.35,71,6.9c-5.43,0.44-10.8,2.71-16.16,2.56
	c-8.74-0.25-16.95,1.97-25,4.35c-9.15,2.7-15.55,8.92-17.37,18.94c-2.74,15.1-6.23,30.09-8.27,45.27
	c-1.97,14.67-2.65,29.53-3.6,44.32c-0.26,4.05,1.39,8.32,0.71,12.24c-3.88,22.41,2.05,44.39,2.56,66.59
	c0.04,1.86,1.07,3.69,1.47,5.56c0.52,2.41,1.13,4.84,1.24,7.29c0.79,17.31,1.27,34.64,2.22,51.94c0.71,12.85,0.22,25.85,4.36,38.36
	c4.21,12.74,8.19,25.56,12.04,38.41c1.6,5.34,5.21,7.81,10.14,9.78c9.52,3.8,19.39,6.12,29.44,7.58c14.11,2.05,28.29,3.69,42.46,5.3
	c8.98,1.02,18,1.68,27,2.47c2.74,0.24,5.5,0.63,8.23,0.53C169.14,367.4,195.81,366.32,222.48,365.26z"/>
<path d="M222.48,365.26c-26.67,1.06-53.34,2.14-80.01,3.13c-2.73,0.1-5.49-0.29-8.23-0.53c-9-0.79-18.03-1.45-27-2.47
	c-14.17-1.61-28.35-3.25-42.46-5.3c-10.04-1.46-19.91-3.78-29.44-7.58c-4.93-1.97-8.54-4.44-10.14-9.78
	c-3.85-12.85-7.83-25.67-12.04-38.41c-4.14-12.52-3.66-25.51-4.36-38.36c-0.95-17.3-1.44-34.63-2.22-51.94
	c-0.11-2.44-0.72-4.88-1.24-7.29c-0.4-1.88-1.43-3.7-1.47-5.56c-0.5-22.2-6.44-44.17-2.56-66.59c0.68-3.92-0.97-8.19-0.71-12.24
	c0.95-14.79,1.63-29.65,3.6-44.32c2.04-15.19,5.52-30.18,8.27-45.27c1.82-10.02,8.22-16.25,17.37-18.94c8.06-2.37,16.27-4.6,25-4.35
	C60.19,9.61,65.57,7.33,71,6.9c6.85-0.55,13.76-0.22,20.64-0.5c5.49-0.22,10.96-0.91,16.45-1.17c14.83-0.71,29.67-1.18,44.49-2.02
	c6.28-0.36,12.51-1.43,18.77-2.14c3.27-0.37,6.55-0.97,9.83-0.98C215.33,0,249.49-0.06,283.64,0.09c4.02,0.02,8.03,1.31,12.04,2.02
	c1.62,0.29,3.28,1.04,4.83,0.86c10.33-1.22,20.1,2.1,29.97,3.94c10.07,1.87,19.84,6,25.8,14.65c3.91,5.67,5.86,12.87,7.85,19.64
	c3.47,11.78,7.45,23.6,9.03,35.69c1.42,10.87,4.63,21.34,5.63,32.21c0.2,2.16-0.24,4.38-0.34,6.57c-0.14,3.02-0.67,6.1-0.27,9.05
	c2.51,18.83,2.04,37.78,2.66,56.7c0.26,7.9,1.85,15.75,2.69,23.63c0.35,3.28,0.4,6.59,0.45,9.89c0.16,11.02,0.52,22.04,0.26,33.05
	c-0.12,5.15-1.48,10.26-2.27,15.39c-0.33,2.17-0.87,4.33-0.91,6.51c-0.23,12.68-2.9,24.89-6.1,37.1
	c-1.79,6.83-2.38,13.97-3.42,20.99c-1.69,11.47-9.85,20.72-20.99,23.53c-5.05,1.27-10.17,2.26-15.21,3.58
	c-9.65,2.53-19.42,3.61-29.39,3.79c-5.39,0.09-10.76,1.6-16.14,2.39c-2.44,0.36-4.91,0.64-7.37,0.75
	c-10.67,0.44-21.35-0.51-31.98,2.39c-5.4,1.47-11.5,0.38-17.28,0.43c-3.57,0.03-7.15,0.01-10.72,0.01
	C222.48,364.97,222.48,365.12,222.48,365.26z M167.67,353.72c0.01,0.2,0.01,0.41,0.02,0.61c18.71-0.6,37.44-0.73,56.11-1.94
	c19.97-1.29,39.94-3.11,59.78-5.65c11.16-1.43,22.2-3.43,33.5-3.09c0.81,0.02,1.63-0.2,2.45-0.33c5.92-0.94,11.8-2.27,17.75-2.76
	c11.43-0.94,17.93-6.52,20.07-17.93c0.2-1.08,0.41-2.17,0.69-3.23c5.9-22.11,10.55-44.32,9.45-67.51
	c-0.95-20.07-0.65-40.19-1.21-60.28c-0.14-5.15-1.91-10.25-2.09-15.4c-0.35-9.9,0.1-19.83-0.14-29.73
	c-0.27-11.26-0.82-22.51-1.49-33.75c-0.31-5.2-1.75-10.37-1.71-15.54c0.11-15.83-3.31-31.02-7.4-46.14
	c-0.86-3.18-2.39-6.26-2.75-9.48c-1.05-9.43-5.73-15.82-14.62-19.13c-1.8-0.67-3.55-1.57-5.4-2.01c-8.81-2.1-17.64-4.12-26.48-6.08
	c-4.28-0.95-8.56-2-12.9-2.49c-6.81-0.77-13.68-1.12-20.52-1.63c-3.01-0.22-6.03-0.59-9.04-0.55c-14.21,0.18-28.27,2.4-42.59,2.16
	c-15.87-0.27-31.96-1.16-47.68,2.7c-1.59,0.39-3.28,0.39-4.92,0.53c-13.13,1.14-26.24,2.45-39.39,3.38
	c-24.68,1.74-49.35,3.56-74.06,4.77c-14.08,0.69-24.89,7.54-29.93,21.23c-1.76,4.79-2.39,10.03-3.29,15.11
	c-1.82,10.25-3.53,20.51-5.14,30.79c-0.29,1.85,0.04,3.82,0.23,5.72c0.62,6.27,1.77,12.53,1.87,18.8
	c0.27,16.24-0.05,32.5,0.12,48.74c0.12,12.38-0.99,25.08,1.38,37.06c2.62,13.25,1.44,26.72,4.79,39.95
	c2.37,9.34,0.23,19.74,0.81,29.63c0.57,9.8,2.31,19.53,2.94,29.33c0.36,5.57,1.24,10.8,3.49,15.92c2.74,6.22,6.93,11.89,7.3,19.08
	c0.05,1.04,1.49,2.18,2.52,2.97c6.18,4.75,13.43,7.81,20.81,9.16c11.54,2.11,23.36,2.67,35.07,3.79c4.66,0.44,9.35,0.53,14.01,0.9
	c9.29,0.73,18.56,1.87,27.86,2.24C147.84,354.02,157.76,353.72,167.67,353.72z"/>
<path class="st0" d="M167.67,353.72c-9.91,0-19.83,0.3-29.73-0.09c-9.3-0.37-18.57-1.51-27.86-2.24c-4.67-0.37-9.36-0.46-14.01-0.9
	c-11.71-1.11-23.54-1.68-35.07-3.79c-7.38-1.35-14.63-4.41-20.81-9.16c-1.03-0.79-2.46-1.93-2.52-2.97
	c-0.37-7.19-4.56-12.86-7.3-19.08c-2.25-5.11-3.13-10.35-3.49-15.92c-0.63-9.8-2.38-19.53-2.94-29.33
	c-0.57-9.89,1.56-20.29-0.81-29.63c-3.36-13.24-2.17-26.7-4.79-39.95c-2.37-11.98-1.25-24.68-1.38-37.06
	c-0.16-16.25,0.15-32.5-0.12-48.74c-0.1-6.28-1.25-12.53-1.87-18.8c-0.19-1.9-0.52-3.87-0.23-5.72c1.61-10.28,3.32-20.55,5.14-30.79
	c0.9-5.08,1.52-10.32,3.29-15.11c5.04-13.69,15.85-20.54,29.93-21.23c24.7-1.22,49.38-3.03,74.06-4.77
	c13.14-0.93,26.26-2.23,39.39-3.38c1.65-0.14,3.33-0.14,4.92-0.53c15.72-3.86,31.81-2.97,47.68-2.7
	c14.32,0.24,28.38-1.98,42.59-2.16c3.01-0.04,6.03,0.33,9.04,0.55c6.84,0.51,13.71,0.86,20.52,1.63c4.34,0.49,8.62,1.54,12.9,2.49
	c8.84,1.96,17.67,3.98,26.48,6.08c1.86,0.44,3.6,1.34,5.4,2.01c8.89,3.31,13.57,9.7,14.62,19.13c0.36,3.22,1.89,6.3,2.75,9.48
	c4.09,15.12,7.51,30.31,7.4,46.14c-0.04,5.18,1.4,10.34,1.71,15.54c0.67,11.24,1.22,22.5,1.49,33.75
	c0.24,9.91-0.21,19.83,0.14,29.73c0.18,5.15,1.95,10.25,2.09,15.4c0.56,20.09,0.26,40.21,1.21,60.28
	c1.1,23.18-3.55,45.39-9.45,67.51c-0.28,1.06-0.49,2.15-0.69,3.23c-2.13,11.42-8.63,16.99-20.07,17.93
	c-5.95,0.49-11.84,1.82-17.75,2.76c-0.81,0.13-1.63,0.35-2.45,0.33c-11.3-0.33-22.34,1.66-33.5,3.09
	c-19.85,2.54-39.81,4.36-59.78,5.65c-18.67,1.21-37.4,1.33-56.11,1.94C167.68,354.12,167.68,353.92,167.67,353.72z M180.18,239.69
	c8.58,0.2,17.98,0.64,26.79-3.45c5.21-2.42,10.73-4.34,15.56-7.36c13.82-8.64,23.67-20.8,26-37.07c1.74-12.13,0.92-24.51-2.98-36.56
	c-4.26-13.17-10.77-24.64-22.48-32.31c-6.11-4-12.8-7.21-19.51-10.14c-10.61-4.62-21.63-7.65-33.42-5.53
	c-3.22,0.58-6.43,1.36-9.67,1.68c-13.99,1.41-25.44,7.62-34.79,17.96c-6.72,7.43-11.48,16.01-15.36,25.18
	c-6.57,15.53-6.12,30.76,0.27,46.36C120.72,223.2,152.84,244.23,180.18,239.69z M308.14,80.24c-0.36-1.37-0.33-4.52-1.84-6.45
	c-3.5-4.48-7.65-8.49-11.76-12.45c-1.05-1.01-2.95-1.45-4.5-1.55c-13.9-0.92-24.59,6.4-29.35,19.95c-2.8,7.97,0.72,18.91,7.86,23.18
	c8.37,5,17.02,5.69,25.72,0.55C302.61,98.53,307.48,91.45,308.14,80.24z"/>
<path d="M180.18,239.69c-27.34,4.54-59.46-16.49-69.59-41.24c-6.39-15.6-6.84-30.83-0.27-46.36c3.88-9.18,8.65-17.75,15.36-25.18
	c9.36-10.34,20.81-16.55,34.79-17.96c3.25-0.33,6.45-1.1,9.67-1.68c11.79-2.12,22.81,0.91,33.42,5.53
	c6.71,2.92,13.41,6.14,19.51,10.14c11.71,7.67,18.21,19.14,22.48,32.31c3.9,12.05,4.72,24.44,2.98,36.56
	c-2.34,16.28-12.19,28.43-26,37.07c-4.83,3.02-10.35,4.94-15.56,7.36C198.16,240.34,188.76,239.9,180.18,239.69z M182.44,228.08
	c10.85,1.64,22.22-0.42,32.65-6.88c9.93-6.15,17.94-14.4,19.54-26.12c1.66-12.22,1.54-24.87-2.09-36.87
	c-4.63-15.32-13.22-27.69-29.05-33.53c-4.38-1.62-8.93-2.85-13.17-4.76c-5.84-2.63-11.76-2.51-17.79-1.41
	c-3.51,0.64-7.03,1.41-10.45,2.42c-17.66,5.26-30.26,15.98-36.24,33.81c-1.13,3.38-2.73,6.6-3.81,10c-0.97,3.06-2.13,6.25-2.16,9.39
	c-0.06,8.12-1.23,16.64,5.48,23.24c0.53,0.52,0.62,1.51,0.89,2.29c3.57,10.52,11.57,17.1,20.71,22.28
	C157.53,227.95,169.31,228.75,182.44,228.08z"/>
<path d="M308.14,80.24c-0.65,11.21-5.52,18.29-13.87,23.22c-8.7,5.14-17.35,4.45-25.72-0.55c-7.14-4.26-10.66-15.21-7.86-23.18
	c4.76-13.55,15.44-20.87,29.35-19.95c1.55,0.1,3.46,0.55,4.5,1.55c4.12,3.96,8.26,7.97,11.76,12.45
	C307.81,75.73,307.78,78.87,308.14,80.24z"/>
<path class="st0" d="M182.44,228.08c-13.14,0.67-24.91-0.14-35.49-6.14c-9.13-5.18-17.14-11.76-20.71-22.28
	c-0.26-0.78-0.36-1.76-0.89-2.29c-6.71-6.6-5.54-15.12-5.48-23.24c0.02-3.14,1.18-6.33,2.16-9.39c1.08-3.39,2.68-6.62,3.81-10
	c5.98-17.83,18.58-28.55,36.24-33.81c3.42-1.02,6.93-1.78,10.45-2.42c6.03-1.1,11.95-1.22,17.79,1.41
	c4.24,1.91,8.79,3.15,13.17,4.76c15.83,5.84,24.41,18.21,29.05,33.53c3.63,11.99,3.75,24.64,2.09,36.87
	c-1.6,11.72-9.6,19.97-19.54,26.12C204.66,227.67,193.29,229.72,182.44,228.08z"/>
</svg>
