<?xml version="1.0" encoding="utf-8"?>
<!-- Generator: Adobe Illustrator 23.1.0, SVG Export Plug-In . SVG Version: 6.00 Build 0)  -->
<svg version="1.1" id="Calque_1" xmlns="http://www.w3.org/2000/svg" xmlns:xlink="http://www.w3.org/1999/xlink" x="0px" y="0px"
	 viewBox="0 0 243.62 3.4" style="enable-background:new 0 0 243.62 3.4;" xml:space="preserve">
<g>
	<g>
		<path d="M4.85,0.76C7.2,0.62,9.56,0.53,11.9,0.33c2.97-0.26,5.91,0.14,8.86,0.24c3.79,0.12,7.58,0.31,11.38,0.4
			c2.96,0.07,5.92,0.05,8.87,0.08c2.48,0.02,4.96,0.11,7.43,0.09C53.68,1.09,58.91,1,64.14,0.91c3-0.05,5.99-0.15,8.99-0.24
			c4.71-0.14,9.42-0.37,14.14-0.42c2.87-0.03,5.74,0.24,8.62,0.34c3.71,0.13,7.42,0.26,11.14,0.33c1.11,0.02,2.23-0.21,3.35-0.21
			c0.74,0,1.49,0.18,2.23,0.29c0.31,0.04,0.63,0.15,0.94,0.14c3.83-0.14,7.66-0.29,11.49-0.44c3.59-0.14,7.18-0.41,10.77-0.4
			c4.83,0.01,9.66,0.24,14.49,0.37c1.52,0.04,3.04,0.05,4.56,0.08c2.68,0.05,5.35,0.17,8.03,0.15c2.47-0.02,4.95-0.2,7.42-0.32
			c2.83-0.13,5.66-0.33,8.5-0.37c8.47-0.11,16.95-0.17,25.42-0.21c4.08-0.02,8.15,0.07,12.23,0.09c7.88,0.04,15.75,0.07,23.63,0.1
			c0.28,0,0.56-0.03,0.84-0.03c0.43,0.01,0.88-0.01,1.3,0.06c0.94,0.16,1.48,0.66,1.38,1.21c-0.1,0.52-1.01,1.15-1.68,1.13
			c-0.48-0.01-0.95-0.12-1.43-0.11c-3.43,0.06-6.87,0.14-10.3,0.2c-3.39,0.06-6.79,0.2-10.18,0.13c-2.71-0.05-5.41-0.43-8.11-0.56
			c-2.07-0.1-4.16-0.09-6.23-0.01c-2.55,0.09-5.1,0.34-7.65,0.45c-2.59,0.11-5.19,0.16-7.78,0.2c-3.04,0.04-6.08,0.03-9.12,0.06
			c-7.75,0.06-15.51,0.17-23.26,0.16c-7.19-0.01-14.38-0.22-21.58-0.23c-2.95,0-5.9,0.3-8.85,0.44c-1.56,0.07-3.12,0.11-4.68,0.11
			c-2.96-0.01-5.92-0.06-8.87-0.09c-3.96-0.05-7.91-0.11-11.87-0.13c-6.44-0.05-12.87-0.06-19.31-0.11
			C78,3.03,73.28,2.89,68.57,2.91c-4.75,0.02-9.51,0.17-14.26,0.27c-2.87,0.06-5.75,0.17-8.62,0.18
			c-8.44,0.02-16.88,0.02-25.31-0.02C14.43,3.31,8.47,3.21,2.52,3.11C1.86,3.1,1.16,2.93,0.57,2.65C-0.2,2.28-0.16,1.7,0.52,1.2
			C1.1,0.77,1.77,0.7,2.45,0.69c0.8-0.01,1.6,0,2.4,0C4.84,0.7,4.85,0.73,4.85,0.76z"/>
	</g>
</g>
</svg>
