<?xml version="1.0" encoding="utf-8"?>
<!-- Generator: Adobe Illustrator 23.1.0, SVG Export Plug-In . SVG Version: 6.00 Build 0)  -->
<svg version="1.1" id="Calque_1" xmlns="http://www.w3.org/2000/svg" xmlns:xlink="http://www.w3.org/1999/xlink" x="0px" y="0px"
	 viewBox="0 0 146.55 285.6" style="enable-background:new 0 0 146.55 285.6;" xml:space="preserve">
<style type="text/css">
	.st0{fill:#FFFFFF;}
</style>
<g>
	<g>
		<path class="st0" d="M74.28,0.21c0-0.06,0-0.12,0-0.18c-0.53,0-1.07,0-1.6,0C51.16,0.03,29.64,0.05,8.12,0
			C3.95-0.01-0.24,4.09-0.22,8.5c0.12,26.46,0.2,52.91,0.29,79.37c0.02,6.31,0.08,12.62,0.04,18.92
			c-0.06,10.29-0.27,20.58-0.26,30.87c0.01,6.4,0.37,12.81,0.45,19.21c0.06,4.9-0.09,9.81-0.1,14.71
			c-0.01,4.03,0.24,8.06,0.05,12.08c-0.45,9.53-0.31,19.05-0.09,28.58c0.3,12.52,0.48,25.04,0.47,37.56
			c-0.01,10.33-0.33,20.66-0.59,30.98c-0.04,1.43,0.55,1.92,1.8,2.05c2.13,0.21,4.24,0.57,6.37,0.65c7.77,0.29,15.53,0.54,23.3,0.7
			c11.27,0.23,22.54,0.34,33.81,0.57c3.1,0.07,6.19,0.59,9.28,0.6c4.95,0.02,9.91-0.32,14.86-0.33c15.4-0.04,30.8,0.02,46.19-0.04
			c1.18,0,2.63-0.32,3.49-1.05c1.56-1.32,2.91-2.96,4.09-4.64c0.66-0.94,1.1-2.21,1.18-3.36c0.33-5.08,0.55-10.17,0.71-15.26
			c0.34-10.28,0.81-20.56,0.86-30.84c0.04-7.41,1.12-14.81,0.19-22.25c-0.3-2.43,0.04-4.93,0.05-7.4c0.01-1.49-0.07-2.98-0.1-4.47
			c-0.09-4.06-0.18-8.12-0.28-12.19c-0.02-0.82-0.03-1.64-0.1-2.46c-0.21-2.8-0.59-5.59-0.62-8.39c-0.03-2.66,0.39-5.32,0.47-7.99
			c0.17-5.48,0.29-10.97,0.35-16.45c0.04-3.82-0.05-7.65-0.1-11.47c-0.02-1.99-0.25-3.99-0.07-5.96c0.23-2.62,0.27-5.18-0.09-7.8
			c-0.91-6.58,0.37-13.28-1.02-19.84c-0.07-0.32,0.01-0.68,0.01-1.02c-0.03-7.81-0.01-15.62-0.11-23.43
			c-0.08-6.65-0.69-13.31-0.35-19.93c0.48-9.35-0.69-18.73,0.72-28.05c0.06-0.43,0.04-0.87,0.02-1.31
			c-0.28-4.26-0.64-8.52-0.83-12.78c-0.19-4.26-0.21-8.54-0.3-12.8c-0.06-2.46-0.53-3.03-2.95-3.19c-3.1-0.2-6.21-0.42-9.32-0.43
			C112.46,0.19,93.37,0.21,74.28,0.21z"/>
		<path d="M74.28,0.21c19.09,0,38.18-0.02,57.27,0.02c3.11,0.01,6.21,0.23,9.32,0.43c2.41,0.16,2.89,0.73,2.95,3.19
			c0.1,4.27,0.11,8.54,0.3,12.8c0.19,4.26,0.55,8.52,0.83,12.78c0.03,0.43,0.05,0.88-0.02,1.31c-1.4,9.31-0.24,18.7-0.72,28.05
			c-0.34,6.62,0.27,13.29,0.35,19.93c0.1,7.81,0.08,15.62,0.11,23.43c0,0.34-0.08,0.69-0.01,1.02c1.39,6.56,0.11,13.26,1.02,19.84
			c0.36,2.62,0.33,5.19,0.09,7.8c-0.18,1.97,0.05,3.97,0.07,5.96c0.05,3.82,0.14,7.65,0.1,11.47c-0.06,5.48-0.18,10.97-0.35,16.45
			c-0.08,2.67-0.5,5.33-0.47,7.99c0.03,2.8,0.41,5.59,0.62,8.39c0.06,0.82,0.08,1.64,0.1,2.46c0.1,4.06,0.19,8.12,0.28,12.19
			c0.03,1.49,0.11,2.98,0.1,4.47c-0.01,2.47-0.36,4.98-0.05,7.4c0.93,7.44-0.16,14.83-0.19,22.25c-0.05,10.28-0.52,20.56-0.86,30.84
			c-0.17,5.09-0.38,10.18-0.71,15.26c-0.08,1.15-0.51,2.42-1.18,3.36c-1.19,1.68-2.53,3.32-4.09,4.64c-0.86,0.72-2.3,1.04-3.49,1.05
			c-15.4,0.06-30.8,0-46.19,0.04c-4.95,0.01-9.91,0.35-14.86,0.33c-3.09-0.01-6.18-0.53-9.28-0.6c-11.27-0.24-22.54-0.34-33.81-0.57
			c-7.77-0.16-15.54-0.42-23.3-0.7c-2.13-0.08-4.25-0.43-6.37-0.65c-1.25-0.13-1.83-0.62-1.8-2.05c0.26-10.33,0.58-20.65,0.59-30.98
			c0.01-12.52-0.18-25.04-0.47-37.56c-0.23-9.53-0.36-19.05,0.09-28.58c0.19-4.02-0.05-8.05-0.05-12.08
			c0.01-4.9,0.16-9.81,0.1-14.71c-0.08-6.4-0.44-12.81-0.45-19.21c-0.01-10.29,0.2-20.58,0.26-30.87
			c0.04-6.31-0.02-12.62-0.04-18.92C-0.02,61.41-0.1,34.96-0.22,8.5C-0.24,4.09,3.95-0.01,8.12,0c21.52,0.05,43.04,0.03,64.56,0.04
			c0.53,0,1.07,0,1.6,0C74.28,0.09,74.28,0.15,74.28,0.21z M66.43,282.78c0,0.15,0,0.3,0,0.45c5.63,0,11.26,0.04,16.89-0.01
			c9.95-0.1,19.91-0.49,29.86-0.3c7.29,0.14,14.55,0.25,21.82-0.38c2.28-0.2,2.71-0.55,2.75-2.79c0.04-2.23-0.04-4.47,0.13-6.7
			c0.94-12.74,1.51-25.48,1.47-38.25c-0.03-11.12,0.18-22.23,0.08-33.35c-0.13-15.38-0.51-30.76-0.69-46.14
			c-0.14-11.84-0.17-23.68-0.17-35.52c0-6.74,0.32-13.49,0.27-20.23c-0.08-11.21-0.43-22.41-0.49-33.62
			c-0.05-9.85,0.17-19.7,0.21-29.55c0.02-4.7-0.07-9.4-0.16-14.1c-0.04-2.38-0.29-4.75-0.26-7.13c0.02-2.21,0.37-4.41,0.42-6.61
			c0.04-1.91-0.82-2.61-2.72-2.47c-1.31,0.09-2.61,0.29-3.92,0.29c-7.62-0.01-15.25-0.16-22.87-0.06
			c-6.94,0.08-13.87,0.57-20.81,0.6C79.4,6.94,70.57,6.59,61.73,6.64C51.1,6.7,40.46,6.76,29.84,7.27
			c-8.57,0.42-17.08-0.1-25.61-0.44C2.23,6.75,1.83,7.07,1.74,9.08c-0.02,0.44-0.03,0.87-0.03,1.31c0.04,7.38,0.1,14.75,0.11,22.13
			c0.01,4.7-0.08,9.4-0.06,14.1c0.05,14.41,0.12,28.83,0.19,43.24c0.02,3.98,0.1,7.96,0.17,11.93c0.05,2.47,0.44,4.98,0.13,7.4
			c-0.37,2.92-0.28,5.78-0.25,8.69c0.15,14.51,0.17,29.02,0.23,43.53c0.01,2.72-0.08,5.44-0.05,8.16c0.09,8.59,0.3,17.17,0.3,25.76
			c0.01,9.22-0.24,18.44-0.22,27.66c0.03,11.69,0.26,23.39,0.31,35.08c0.03,6.36-0.13,12.72-0.18,19.08
			c-0.02,3.09,0.28,3.46,3.34,3.61c4.9,0.24,9.8,0.4,14.7,0.56C35.76,281.82,51.1,282.3,66.43,282.78z M140.86,278.48
			c0.22-0.01,0.43-0.01,0.65-0.02c0.2-0.79,0.53-1.58,0.58-2.38c0.1-1.64-0.01-3.3,0.07-4.95c0.4-8.53,0.91-17.06,1.24-25.59
			c0.28-7.08,0.34-14.17,0.54-21.26c0.12-4.46,0.4-8.92,0.43-13.38c0.03-4.31-0.16-8.62-0.25-12.94c-0.01-0.68,0-1.36-0.02-2.04
			c-0.34-8.82-0.82-17.64-0.99-26.47c-0.24-12.61-0.28-25.23-0.33-37.85c-0.03-9.75,0.13-19.49,0.08-29.24
			c-0.04-7.47-0.42-14.94-0.41-22.41c0.03-17.33,0.31-34.65,0.27-51.98c-0.02-7.17-0.61-14.34-0.96-21.52
			c-0.01-0.26-0.3-0.51-0.45-0.77c-0.22,0.26-0.6,0.5-0.64,0.78c-0.17,1.05-0.31,2.12-0.31,3.18c-0.02,10.04-0.01,20.08,0,30.13
			c0.01,7.47-0.02,14.94,0.05,22.42c0.11,12.33,0.36,24.65,0.42,36.97c0.05,9.21-0.14,18.43-0.16,27.64
			c-0.02,9.03-0.07,18.06,0.07,27.08c0.27,17.85,0.72,35.7,0.96,53.56c0.1,7.81-0.1,15.63-0.25,23.44
			c-0.13,6.84-0.4,13.68-0.58,20.53c-0.21,8.35-0.41,16.7-0.56,25.04C140.26,277.13,140.66,277.81,140.86,278.48z M5.08,3.28
			C5.1,3.54,5.12,3.8,5.14,4.07C5.8,4.23,6.45,4.52,7.12,4.54c5.1,0.12,10.2,0.33,15.29,0.24c9.71-0.16,19.41-0.68,29.12-0.72
			C67.69,4,83.85,4.27,100.01,4.26c8.4-0.01,16.8-0.33,25.2-0.49c4.08-0.08,8.16-0.1,12.24-0.17c0.37-0.01,0.73-0.24,1.09-0.37
			c-1.55-0.32-2.95-0.31-4.34-0.32c-13.3-0.11-26.6-0.24-39.91-0.35C80.11,2.44,65.93,2.3,51.76,2.25
			c-9.23-0.04-18.45,0.04-27.68,0.09C18.55,2.36,13.03,2.39,7.5,2.51C6.69,2.53,5.89,3.01,5.08,3.28z"/>
		<path class="st0" d="M66.43,282.78c-15.34-0.49-30.67-0.97-46.01-1.46c-4.9-0.16-9.8-0.32-14.7-0.56
			c-3.06-0.15-3.36-0.52-3.34-3.61c0.05-6.36,0.21-12.72,0.18-19.08c-0.06-11.69-0.28-23.39-0.31-35.08
			c-0.02-9.22,0.23-18.44,0.22-27.66c-0.01-8.59-0.21-17.17-0.3-25.76c-0.03-2.72,0.06-5.44,0.05-8.16
			c-0.05-14.51-0.08-29.02-0.23-43.53c-0.03-2.91-0.12-5.78,0.25-8.69c0.31-2.42-0.08-4.93-0.13-7.4
			c-0.07-3.98-0.15-7.96-0.17-11.93C1.88,75.44,1.81,61.03,1.76,46.62c-0.02-4.7,0.07-9.4,0.06-14.1
			c-0.02-7.38-0.08-14.75-0.11-22.13c0-0.44,0.01-0.87,0.03-1.31c0.09-2,0.49-2.33,2.48-2.25c8.53,0.34,17.05,0.86,25.61,0.44
			C40.46,6.76,51.1,6.7,61.73,6.64c8.84-0.05,17.67,0.3,26.51,0.26c6.94-0.04,13.87-0.52,20.81-0.6c7.62-0.09,15.25,0.06,22.87,0.06
			c1.31,0,2.61-0.2,3.92-0.29c1.9-0.14,2.76,0.56,2.72,2.47c-0.05,2.21-0.39,4.41-0.42,6.61c-0.03,2.37,0.21,4.75,0.26,7.13
			c0.09,4.7,0.18,9.4,0.16,14.1c-0.04,9.85-0.26,19.7-0.21,29.55c0.06,11.21,0.41,22.41,0.49,33.62c0.05,6.74-0.26,13.49-0.27,20.23
			c-0.01,11.84,0.03,23.68,0.17,35.52c0.18,15.38,0.55,30.76,0.69,46.14c0.1,11.12-0.12,22.23-0.08,33.35
			c0.04,12.77-0.53,25.52-1.47,38.25c-0.16,2.22-0.09,4.47-0.13,6.7c-0.04,2.25-0.47,2.59-2.75,2.79
			c-7.27,0.64-14.53,0.52-21.82,0.38c-9.95-0.19-19.9,0.21-29.86,0.3c-5.63,0.05-11.26,0.01-16.89,0.01
			C66.43,283.09,66.43,282.94,66.43,282.78z"/>
		<path class="st0" d="M140.86,278.48c-0.21-0.67-0.6-1.35-0.59-2.01c0.15-8.35,0.35-16.7,0.56-25.04
			c0.18-6.84,0.44-13.68,0.58-20.53c0.15-7.81,0.36-15.63,0.25-23.44c-0.23-17.85-0.69-35.7-0.96-53.56
			c-0.14-9.03-0.09-18.06-0.07-27.08c0.02-9.21,0.21-18.43,0.16-27.64c-0.06-12.33-0.31-24.65-0.42-36.97
			c-0.07-7.47-0.04-14.94-0.05-22.42c-0.01-10.04-0.01-20.08,0-30.13c0-1.06,0.14-2.13,0.31-3.18c0.05-0.29,0.42-0.52,0.64-0.78
			c0.16,0.26,0.44,0.51,0.45,0.77c0.36,7.17,0.94,14.34,0.96,21.52c0.04,17.33-0.24,34.65-0.27,51.98
			c-0.01,7.47,0.37,14.94,0.41,22.41c0.05,9.75-0.11,19.49-0.08,29.24c0.04,12.62,0.09,25.23,0.33,37.85
			c0.17,8.83,0.65,17.65,0.99,26.47c0.03,0.68,0.01,1.36,0.02,2.04c0.09,4.31,0.28,8.63,0.25,12.94c-0.03,4.46-0.31,8.92-0.43,13.38
			c-0.19,7.09-0.26,14.18-0.54,21.26c-0.33,8.53-0.84,17.06-1.24,25.59c-0.08,1.65,0.03,3.3-0.07,4.95
			c-0.05,0.8-0.38,1.59-0.58,2.38C141.3,278.47,141.08,278.47,140.86,278.48z"/>
		<path class="st0" d="M5.08,3.28C5.89,3.01,6.69,2.53,7.5,2.51c5.53-0.11,11.05-0.15,16.58-0.17c9.23-0.05,18.45-0.12,27.68-0.09
			c14.17,0.06,28.35,0.2,42.52,0.31c13.3,0.11,26.6,0.23,39.91,0.35c1.4,0.01,2.8,0,4.34,0.32c-0.36,0.13-0.73,0.36-1.09,0.37
			c-4.08,0.08-8.16,0.1-12.24,0.17c-8.4,0.16-16.8,0.49-25.2,0.49C83.85,4.27,67.69,4,51.53,4.07C41.82,4.1,32.12,4.62,22.41,4.78
			c-5.1,0.08-10.2-0.12-15.29-0.24C6.45,4.52,5.8,4.23,5.14,4.07C5.12,3.8,5.1,3.54,5.08,3.28z"/>
	</g>
</g>
<g>
	<g>
		<g>
			<g>
				<path d="M92.53,61.11c-3.25,0-6.51,0.01-9.76,0C80.85,61.1,78.92,61,77,61.04c-2.05,0.04-4.1,0.29-6.15,0.29
					c-5.31,0.01-10.62-0.05-15.93-0.12c-2.28-0.03-4.56-0.19-6.83-0.17c-4.07,0.03-8.15,0.15-12.22,0.21
					c-3.2,0.05-6.39,0.08-9.59,0.08c-3.7-0.01-7.4-0.07-11.1-0.11c-0.83-0.01-1.03-0.22-0.87-1c0.02-0.12,0.19-0.31,0.3-0.31
					c2.31-0.07,4.64-0.27,6.94-0.13c4.78,0.28,9.56,0.3,14.35,0.31c2.08,0,4.15,0.01,6.23-0.04c3.98-0.09,7.95-0.28,11.93-0.31
					c2.52-0.02,5.03,0.2,7.55,0.28c0.99,0.03,1.98-0.07,2.96-0.06c0.98,0.01,1.96,0.13,2.94,0.1c3.23-0.09,6.46-0.3,9.69-0.31
					c4.03-0.01,8.07,0.19,12.11,0.2c2.37,0,4.74-0.21,7.11-0.28c1.89-0.05,3.78-0.05,5.66-0.05c7.57,0,15.15,0.01,22.72,0.02
					c0.74,0,0.76,0.05,0.78,0.68c0.01,0.45-0.17,0.58-0.6,0.59c-3.1,0.03-6.2,0.11-9.31,0.09c-2.09-0.01-4.18-0.23-6.27-0.19
					c-5.62,0.11-11.24,0.3-16.86,0.46C92.53,61.22,92.53,61.17,92.53,61.11z"/>
			</g>
		</g>
		<g>
			<g>
				<path d="M90.91,96.39c-3.25,0-6.51,0.01-9.76,0c-1.92-0.01-3.85-0.11-5.77-0.07c-2.05,0.04-4.1,0.29-6.15,0.29
					c-5.31,0.01-10.62-0.05-15.93-0.12c-2.28-0.03-4.56-0.19-6.83-0.17c-4.07,0.03-8.15,0.15-12.22,0.21
					c-3.2,0.05-6.39,0.08-9.59,0.08c-3.7-0.01-7.4-0.07-11.1-0.11c-0.83-0.01-1.03-0.22-0.87-1c0.02-0.12,0.19-0.31,0.3-0.31
					c2.31-0.07,4.64-0.27,6.94-0.13c4.78,0.28,9.56,0.3,14.35,0.31c2.08,0,4.15,0.01,6.23-0.04c3.98-0.09,7.95-0.28,11.93-0.31
					c2.52-0.02,5.03,0.2,7.55,0.28c0.99,0.03,1.98-0.07,2.96-0.06c0.98,0.01,1.96,0.13,2.94,0.1c3.23-0.09,6.46-0.3,9.69-0.31
					c4.03-0.01,8.07,0.19,12.11,0.2c2.37,0,4.74-0.21,7.11-0.28c1.89-0.05,3.78-0.05,5.66-0.05c7.57,0,15.15,0.01,22.72,0.02
					c0.74,0,0.76,0.05,0.78,0.68c0.01,0.45-0.17,0.58-0.6,0.59c-3.1,0.03-6.2,0.11-9.31,0.09c-2.09-0.01-4.18-0.23-6.27-0.19
					c-5.62,0.11-11.24,0.3-16.86,0.46C90.91,96.49,90.91,96.44,90.91,96.39z"/>
			</g>
		</g>
		<g>
			<g>
				<path d="M51.02,102.85c0-3.25-0.01-6.51,0-9.76c0.01-1.92,0.11-3.85,0.07-5.77c-0.04-2.05-0.29-4.1-0.29-6.15
					c-0.01-5.31,0.05-10.62,0.12-15.93c0.03-2.28,0.19-4.56,0.17-6.83c-0.03-4.07-0.15-8.15-0.21-12.22
					c-0.05-3.2-0.08-6.39-0.08-9.59c0.01-3.7,0.07-7.4,0.11-11.1c0.01-0.83,0.22-1.03,1-0.87c0.12,0.02,0.31,0.19,0.31,0.3
					c0.07,2.31,0.27,4.64,0.13,6.94c-0.28,4.78-0.3,9.56-0.31,14.35c0,2.08-0.01,4.15,0.04,6.23c0.09,3.98,0.28,7.95,0.31,11.93
					c0.02,2.52-0.2,5.03-0.28,7.55c-0.03,0.99,0.07,1.98,0.06,2.96c-0.01,0.98-0.13,1.96-0.1,2.94c0.09,3.23,0.3,6.46,0.31,9.69
					c0.01,4.03-0.19,8.07-0.2,12.11c0,2.37,0.21,4.74,0.28,7.11c0.05,1.89,0.05,3.78,0.05,5.66c0,7.57-0.01,15.15-0.02,22.72
					c0,0.74-0.05,0.76-0.68,0.78c-0.45,0.01-0.58-0.17-0.59-0.6c-0.03-3.1-0.11-6.2-0.09-9.31c0.01-2.09,0.23-4.18,0.19-6.27
					c-0.11-5.62-0.3-11.24-0.46-16.86C50.92,102.85,50.97,102.85,51.02,102.85z"/>
			</g>
		</g>
		<g>
			<g>
				<path d="M88.64,102.85c0-3.25-0.01-6.51,0-9.76c0.01-1.92,0.11-3.85,0.07-5.77c-0.04-2.05-0.29-4.1-0.29-6.15
					c-0.01-5.31,0.05-10.62,0.12-15.93c0.03-2.28,0.19-4.56,0.17-6.83c-0.03-4.07-0.15-8.15-0.21-12.22
					c-0.05-3.2-0.08-6.39-0.08-9.59c0.01-3.7,0.07-7.4,0.11-11.1c0.01-0.83,0.22-1.03,1-0.87c0.12,0.02,0.31,0.19,0.31,0.3
					c0.07,2.31,0.27,4.64,0.13,6.94c-0.28,4.78-0.3,9.56-0.31,14.35c0,2.08-0.01,4.15,0.04,6.23c0.09,3.98,0.28,7.95,0.31,11.93
					c0.02,2.52-0.2,5.03-0.28,7.55c-0.03,0.99,0.07,1.98,0.06,2.96c-0.01,0.98-0.13,1.96-0.1,2.94c0.09,3.23,0.3,6.46,0.31,9.69
					c0.01,4.03-0.19,8.07-0.2,12.11c0,2.37,0.21,4.74,0.28,7.11c0.05,1.89,0.05,3.78,0.05,5.66c0,7.57-0.01,15.15-0.02,22.72
					c0,0.74-0.05,0.76-0.68,0.78c-0.45,0.01-0.58-0.17-0.59-0.6c-0.03-3.1-0.11-6.2-0.09-9.31c0.01-2.09,0.23-4.18,0.19-6.27
					c-0.11-5.62-0.3-11.24-0.46-16.86C88.54,102.85,88.59,102.85,88.64,102.85z"/>
			</g>
		</g>
	</g>
	<g>
		<path d="M107.65,32.92c1.27-2.04,2.2-3.45,2.78-4.21c0.58-0.77,1.13-1.22,1.65-1.36c0.48-0.13,1.08-0.04,1.79,0.29
			c0.78,0.34,1.3,0.94,1.53,1.81c0.16,0.58,0.04,1.31-0.36,2.2c-0.4,0.89-1.54,2.97-3.44,6.26c-2.79,4.81-4.14,7.41-4.03,7.8
			c0.09,0.32,1.02,1.26,2.79,2.81c1.77,1.55,3.4,2.87,4.87,3.95c1.37,0.97,2.16,1.81,2.35,2.52c0.15,0.55,0.06,1.18-0.26,1.89
			c-0.31,0.78-0.92,1.29-1.86,1.55c-0.67,0.19-1.38,0.14-2.11-0.15c-0.65-0.24-2.3-1.44-4.94-3.62c-2.55-2.1-3.89-3.13-4.01-3.1
			c-0.16,0.04-0.34,0.4-0.54,1.06c-0.2,0.66-0.26,1.12-0.19,1.38c0.11,0.42-0.02,0.96-0.39,1.61c-0.44,0.78-1.07,1.28-1.87,1.5
			c-0.61,0.17-1.21,0.13-1.8-0.13c-0.59-0.25-1.04-0.7-1.35-1.34c-0.01-0.03-0.03-0.08-0.06-0.14c-0.03-0.06-0.05-0.11-0.06-0.14
			c-0.19-0.71-0.15-1.82,0.15-3.33c0.29-1.51,0.72-2.89,1.28-4.11c0.31-0.78,0.41-1.34,0.31-1.69c-0.16-0.58-1.44-2.21-3.84-4.91
			c-1.81-1.92-2.81-3.24-3-3.95c-0.15-0.55,0-1.21,0.46-1.99c0.46-0.78,0.96-1.25,1.51-1.4c0.74-0.2,1.53-0.04,2.36,0.49
			c0.84,0.53,1.9,1.52,3.2,2.96c1.56,1.78,2.58,2.61,3.07,2.48c0.22-0.06,0.4-0.35,0.54-0.87C104.29,38.6,105.44,36.57,107.65,32.92
			z"/>
	</g>
	<g>
		<path d="M65.98,64.63c0.78-0.41,1.73-0.61,2.85-0.61c1.83,0,3.68,0.46,5.55,1.37c1.46,0.71,3,1.72,4.63,3.03
			c1.63,1.31,2.8,2.47,3.51,3.49c1.02,1.46,1.53,3.31,1.53,5.55c0,2.24-0.54,4.14-1.63,5.7c-0.75,1.02-2.04,2.22-3.87,3.61
			c-1.83,1.39-3.65,2.55-5.45,3.46c-1.73,0.88-3.05,1.32-3.97,1.32c-0.17,0-0.63-0.03-1.37-0.1c-3.33-0.24-6.14-1.87-8.45-4.89
			c-1.46-1.9-2.19-3.68-2.19-5.34c0-1.15,0.22-2.63,0.66-4.43c0.61-2.55,1.22-4.33,1.83-5.34c0.64-1.12,1.66-2.43,3.05-3.92
			C64.06,66.04,65.16,65.07,65.98,64.63z M72.34,71.1c-0.85-0.44-1.71-0.66-2.6-0.66c-1.09,0-1.97,0.36-2.65,1.07
			c-2.72,2.99-4.07,5.67-4.07,8.04c0,1.56,0.59,2.97,1.78,4.22c0.61,0.65,1.1,1.06,1.48,1.25c0.37,0.19,0.92,0.28,1.63,0.28
			c1.9,0,4.41-1.22,7.53-3.66c0.98-0.78,1.66-1.45,2.04-2.01c0.37-0.56,0.56-1.2,0.56-1.91c0-0.47-0.03-0.87-0.1-1.17
			c-0.14-0.71-0.79-1.64-1.96-2.77C74.81,72.63,73.59,71.74,72.34,71.1z"/>
	</g>
	<g>
		<path d="M27.37,29.01c0.78-0.41,1.73-0.61,2.85-0.61c1.83,0,3.68,0.46,5.55,1.37c1.46,0.71,3,1.72,4.63,3.03
			c1.63,1.31,2.8,2.47,3.51,3.49c1.02,1.46,1.53,3.31,1.53,5.55s-0.54,4.14-1.63,5.7c-0.75,1.02-2.04,2.22-3.87,3.61
			c-1.83,1.39-3.65,2.55-5.45,3.46c-1.73,0.88-3.05,1.32-3.97,1.32c-0.17,0-0.63-0.03-1.37-0.1c-3.33-0.24-6.14-1.87-8.45-4.89
			c-1.46-1.9-2.19-3.68-2.19-5.34c0-1.15,0.22-2.63,0.66-4.43c0.61-2.55,1.22-4.33,1.83-5.34c0.64-1.12,1.66-2.43,3.05-3.92
			C25.45,30.42,26.55,29.45,27.37,29.01z M33.73,35.47c-0.85-0.44-1.71-0.66-2.6-0.66c-1.09,0-1.97,0.36-2.65,1.07
			c-2.72,2.99-4.07,5.67-4.07,8.04c0,1.56,0.59,2.97,1.78,4.22c0.61,0.65,1.1,1.06,1.48,1.25c0.37,0.19,0.92,0.28,1.63,0.28
			c1.9,0,4.41-1.22,7.53-3.66c0.98-0.78,1.66-1.45,2.04-2.01c0.37-0.56,0.56-1.2,0.56-1.91c0-0.47-0.03-0.87-0.1-1.17
			c-0.14-0.71-0.79-1.64-1.96-2.77C36.2,37.01,34.98,36.12,33.73,35.47z"/>
	</g>
	<g>
		<path d="M33.16,106.1c1.27-2.04,2.2-3.45,2.78-4.21c0.58-0.77,1.13-1.22,1.65-1.36c0.48-0.13,1.08-0.04,1.79,0.29
			c0.78,0.34,1.3,0.94,1.53,1.81c0.16,0.58,0.04,1.31-0.36,2.2c-0.4,0.89-1.54,2.97-3.44,6.26c-2.79,4.81-4.14,7.41-4.03,7.8
			c0.09,0.32,1.02,1.26,2.79,2.81c1.77,1.55,3.4,2.87,4.87,3.95c1.37,0.97,2.16,1.81,2.35,2.52c0.15,0.55,0.06,1.18-0.26,1.89
			c-0.31,0.78-0.92,1.29-1.86,1.55c-0.67,0.19-1.38,0.14-2.11-0.15c-0.65-0.24-2.3-1.44-4.94-3.62c-2.55-2.1-3.89-3.13-4.01-3.1
			c-0.16,0.04-0.34,0.4-0.54,1.06c-0.2,0.66-0.26,1.12-0.19,1.38c0.11,0.42-0.02,0.96-0.39,1.61c-0.44,0.78-1.07,1.28-1.87,1.5
			c-0.61,0.17-1.21,0.13-1.8-0.13c-0.59-0.25-1.04-0.7-1.35-1.34c-0.01-0.03-0.03-0.08-0.06-0.14c-0.03-0.06-0.05-0.11-0.06-0.14
			c-0.19-0.71-0.15-1.82,0.15-3.33c0.29-1.51,0.72-2.89,1.28-4.11c0.31-0.78,0.41-1.34,0.31-1.69c-0.16-0.58-1.44-2.21-3.84-4.91
			c-1.81-1.92-2.81-3.24-3-3.95c-0.15-0.55,0-1.21,0.46-1.99c0.46-0.78,0.96-1.25,1.51-1.4c0.74-0.2,1.53-0.04,2.36,0.49
			c0.84,0.53,1.9,1.52,3.2,2.96c1.56,1.78,2.58,2.61,3.07,2.48c0.22-0.06,0.4-0.35,0.54-0.87C29.8,111.78,30.95,109.75,33.16,106.1z
			"/>
	</g>
</g>
<g>
	<path d="M40.67,165.29c0.39-0.21,0.72-0.31,1-0.31c0.55,0,1.03,0.47,1.46,1.42c0.22,0.47,0.4,1.7,0.55,3.66
		c0.11,1.35,0.16,2.19,0.16,2.52c0,0.32-0.05,0.55-0.15,0.71c-0.19,0.3-0.47,0.46-0.82,0.46c-0.46,0-0.79-0.24-0.98-0.71
		c-0.13-0.28-0.26-1.17-0.36-2.68c-0.11-1.48-0.19-2.3-0.24-2.44c-0.02-0.04-0.04-0.05-0.05-0.05c-0.07,0-0.21,0.13-0.4,0.4
		c-0.33,0.46-0.84,1.01-1.55,1.63c-0.7,0.63-1.2,0.99-1.48,1.08c-0.26,0.09-0.55,0.13-0.89,0.13c-0.68,0-1.24-0.15-1.68-0.44
		c-0.36-0.26-0.58-0.38-0.64-0.38c-0.05,0-0.07,0.05-0.07,0.15c0,0.26,0.14,0.86,0.42,1.8c0.27,0.92,0.4,1.6,0.4,2.02
		c0,0.38-0.1,0.67-0.29,0.88c-0.22,0.22-0.45,0.33-0.69,0.33c-0.27,0-0.51-0.12-0.74-0.35c-0.22-0.24-0.36-0.55-0.41-0.94
		c-0.06-0.35-0.19-0.8-0.38-1.35c-0.34-0.87-0.51-2.01-0.51-3.41c0-1.31,0.16-2.13,0.47-2.44c0.21-0.21,0.48-0.31,0.82-0.31
		c0.23,0,0.46,0.05,0.67,0.16c0.26,0.15,0.69,0.54,1.29,1.19c0.66,0.68,1.06,1.02,1.22,1.02c0.19,0,0.56-0.25,1.08-0.75
		c0.53-0.5,0.99-1.03,1.39-1.59C39.8,165.99,40.26,165.52,40.67,165.29z"/>
	<path d="M48.71,166.02c0.3-0.17,0.61-0.26,0.91-0.26c0.4,0,0.71,0.12,0.93,0.36c0.23,0.23,0.53,0.35,0.91,0.35
		c0.38,0,0.68,0.06,0.9,0.18c0.22,0.12,0.52,0.38,0.88,0.77c0.39,0.43,0.65,0.77,0.79,1.05c0.14,0.27,0.25,0.68,0.34,1.21
		c0.1,0.61,0.15,1.06,0.15,1.35c0,0.41-0.09,0.87-0.27,1.37c-0.28,0.78-0.63,1.33-1.04,1.65c-0.41,0.32-1.15,0.62-2.21,0.88
		c-0.63,0.16-1.08,0.24-1.33,0.24c-0.39,0-0.92-0.18-1.59-0.53c-0.74-0.4-1.31-0.92-1.71-1.56c-0.4-0.64-0.6-1.33-0.6-2.07
		c0-0.66,0.16-1.31,0.49-1.97c0.26-0.51,0.66-1.1,1.2-1.79C48.02,166.58,48.43,166.17,48.71,166.02z M50.55,168.12
		c-0.19-0.17-0.35-0.26-0.46-0.26c-0.13,0-0.36,0.18-0.67,0.54c-0.31,0.36-0.62,0.79-0.92,1.3c-0.32,0.54-0.47,0.92-0.47,1.15
		c0,0.11,0.01,0.19,0.02,0.26c0.08,0.67,0.44,1.18,1.08,1.53l0.51,0.29l1.06-0.26c0.69-0.17,1.08-0.31,1.17-0.42
		c0.26-0.32,0.38-0.82,0.38-1.51c0-0.18-0.01-0.32-0.02-0.4c-0.05-0.39-0.14-0.67-0.27-0.85C51.82,169.32,51.35,168.86,50.55,168.12
		z"/>
	<path d="M58.81,165.65c0.29-0.1,0.59-0.15,0.89-0.15c0.62,0,1.24,0.16,1.87,0.47c0.63,0.31,1.1,0.7,1.41,1.18
		c0.24,0.35,0.36,0.85,0.36,1.48c0,0.47-0.08,0.87-0.26,1.19c-0.17,0.32-0.47,0.66-0.89,1.01l-0.58,0.47l0.46,0.22
		c0.36,0.19,0.92,0.63,1.66,1.32c0.74,0.69,1.14,1.13,1.18,1.32c0.02,0.1,0.04,0.18,0.04,0.24c0,0.21-0.05,0.4-0.15,0.58
		c-0.1,0.18-0.23,0.32-0.38,0.4c-0.21,0.11-0.39,0.16-0.55,0.16c-0.36,0-0.89-0.32-1.57-0.95c-0.66-0.61-1.39-1.12-2.21-1.55
		c-0.61-0.3-0.97-0.46-1.09-0.46c-0.13,0-0.22,0.08-0.25,0.26c-0.03,0.17-0.05,0.52-0.05,1.04v0.26c0,0.52-0.02,0.86-0.05,1.02
		c-0.04,0.16-0.15,0.33-0.33,0.51c-0.26,0.26-0.52,0.38-0.78,0.38c-0.24,0-0.47-0.11-0.69-0.33c-0.28-0.28-0.42-0.77-0.42-1.48
		c0-0.5,0.07-1.34,0.2-2.51c0.18-1.47,0.29-2.61,0.31-3.41c0.02-0.7,0.06-1.14,0.11-1.29c0.05-0.18,0.27-0.43,0.66-0.73
		C58.1,166.01,58.47,165.79,58.81,165.65z M60.79,168.08c-0.19-0.15-0.44-0.22-0.75-0.22c-0.22,0-0.33,0.05-0.33,0.15
		c0,0.09-0.09,0.26-0.27,0.51c-0.21,0.24-0.31,0.63-0.31,1.17c0,0.17,0.03,0.26,0.09,0.26c0.07,0,0.28-0.09,0.61-0.27
		c0.33-0.18,0.61-0.35,0.83-0.51c0.28-0.22,0.42-0.42,0.42-0.62C61.09,168.35,60.99,168.2,60.79,168.08z"/>
	<path d="M68.65,164.18c0.41-0.13,0.89-0.2,1.42-0.2c0.68,0,1.26,0.11,1.73,0.33c0.63,0.3,1.15,0.74,1.55,1.3
		c0.4,0.57,0.6,1.15,0.6,1.76c0,0.92-0.36,1.73-1.07,2.42c-0.72,0.69-1.65,1.14-2.79,1.33c-0.26,0.05-0.43,0.11-0.54,0.19
		c-0.1,0.08-0.15,0.2-0.15,0.35c0,0.12,0.05,0.34,0.15,0.66c0.15,0.4,0.22,0.72,0.22,0.97c0,0.28-0.11,0.53-0.33,0.75
		c-0.23,0.23-0.46,0.35-0.67,0.35c-0.16,0-0.34-0.05-0.55-0.16c-0.41-0.22-0.7-0.62-0.86-1.2c-0.16-0.58-0.27-1.68-0.35-3.28
		c-0.05-0.86-0.07-1.77-0.07-2.72c0-0.44,0.01-0.71,0.02-0.82c0.04-0.38,0.09-0.64,0.15-0.8c0.07-0.16,0.2-0.34,0.41-0.55
		C67.85,164.53,68.23,164.3,68.65,164.18z M71.09,166.48c-0.24-0.21-0.61-0.31-1.11-0.31c-0.24,0-0.44,0.04-0.58,0.13
		c-0.11,0.07-0.16,0.36-0.16,0.88c0,0.05,0,0.13,0.01,0.24c0.01,0.11,0.01,0.19,0.01,0.26l0.04,1.24l0.49-0.04
		c0.39-0.05,0.75-0.18,1.08-0.38s0.56-0.44,0.67-0.71c0.07-0.18,0.11-0.34,0.11-0.47C71.64,167.04,71.46,166.77,71.09,166.48z"/>
	<path d="M76.31,161.83c0.22-0.24,0.46-0.36,0.73-0.36c0.28,0,0.55,0.15,0.8,0.44c0.21,0.24,0.31,0.45,0.31,0.62
		c0,0.09-0.02,0.21-0.05,0.38c-0.15,0.88-0.49,1.31-1.02,1.31c-0.05,0-0.15-0.01-0.29-0.04c-0.55-0.12-0.82-0.57-0.82-1.35
		C75.96,162.43,76.08,162.09,76.31,161.83z M76.85,166.79c0.24-0.21,0.48-0.31,0.71-0.31c0.23,0,0.46,0.12,0.69,0.35
		c0.16,0.16,0.25,0.33,0.29,0.5c0.04,0.18,0.05,0.6,0.05,1.27c0,0.74,0.07,1.7,0.2,2.88c0.07,0.57,0.11,0.99,0.11,1.26
		c0,0.24-0.02,0.41-0.07,0.49c-0.22,0.41-0.54,0.62-0.95,0.62c-0.24,0-0.47-0.09-0.66-0.26c-0.2-0.17-0.34-0.4-0.41-0.69
		c-0.09-0.34-0.18-1.04-0.28-2.11c-0.1-1.07-0.15-1.91-0.15-2.52c0-0.05,0-0.12,0.01-0.2c0.01-0.09,0.01-0.14,0.01-0.16
		c0.02-0.32,0.07-0.55,0.13-0.69C76.59,167.06,76.7,166.92,76.85,166.79z"/>
	<path d="M83.78,166.02c0.3-0.17,0.61-0.26,0.91-0.26c0.4,0,0.71,0.12,0.93,0.36c0.23,0.23,0.53,0.35,0.91,0.35
		c0.38,0,0.68,0.06,0.9,0.18c0.22,0.12,0.52,0.38,0.88,0.77c0.39,0.43,0.65,0.77,0.79,1.05c0.14,0.27,0.25,0.68,0.34,1.21
		c0.1,0.61,0.15,1.06,0.15,1.35c0,0.41-0.09,0.87-0.27,1.37c-0.28,0.78-0.63,1.33-1.04,1.65c-0.41,0.32-1.15,0.62-2.21,0.88
		c-0.63,0.16-1.08,0.24-1.33,0.24c-0.39,0-0.92-0.18-1.59-0.53c-0.74-0.4-1.31-0.92-1.71-1.56c-0.4-0.64-0.6-1.33-0.6-2.07
		c0-0.66,0.16-1.31,0.49-1.97c0.26-0.51,0.66-1.1,1.2-1.79C83.09,166.58,83.5,166.17,83.78,166.02z M85.62,168.12
		c-0.19-0.17-0.35-0.26-0.46-0.26c-0.13,0-0.36,0.18-0.67,0.54c-0.31,0.36-0.62,0.79-0.92,1.3c-0.32,0.54-0.47,0.92-0.47,1.15
		c0,0.11,0.01,0.19,0.02,0.26c0.09,0.67,0.44,1.18,1.08,1.53l0.51,0.29l1.06-0.26c0.69-0.17,1.08-0.31,1.17-0.42
		c0.26-0.32,0.38-0.82,0.38-1.51c0-0.18-0.01-0.32-0.02-0.4c-0.05-0.39-0.14-0.67-0.27-0.85C86.89,169.32,86.42,168.86,85.62,168.12
		z"/>
	<path d="M100.33,165.53c0.15-0.11,0.37-0.16,0.66-0.16c0.25,0,0.45,0.04,0.58,0.13c0.32,0.16,0.47,0.43,0.47,0.82
		c0,0.29-0.09,0.73-0.26,1.31c-0.07,0.26-0.3,1.15-0.69,2.7c-0.19,0.84-0.44,1.58-0.73,2.22c-0.29,0.64-0.57,1.07-0.84,1.28
		c-0.23,0.19-0.57,0.29-1.02,0.29c-0.92,0-1.78-0.3-2.57-0.89c-0.33-0.23-0.7-0.64-1.13-1.24c-0.44-0.55-0.68-0.82-0.73-0.82
		c-0.04,0-0.12,0.47-0.24,1.42c-0.06,0.58-0.12,0.99-0.18,1.21c-0.06,0.22-0.15,0.4-0.27,0.54c-0.22,0.23-0.49,0.35-0.8,0.35
		c-0.28,0-0.53-0.09-0.75-0.27c-0.21-0.17-0.31-0.44-0.31-0.82c0-0.05,0-0.13,0.01-0.26c0.01-0.12,0.01-0.22,0.01-0.29
		c0.02-0.8,0.11-1.65,0.26-2.53c0.14-0.89,0.3-1.48,0.46-1.77c0.46-0.9,0.99-1.35,1.59-1.35c0.3,0,0.54,0.08,0.72,0.23
		c0.18,0.15,0.43,0.51,0.76,1.07c1.18,2.04,2.12,3.06,2.83,3.06c0.19,0,0.6-1.29,1.22-3.87c0.22-0.86,0.38-1.43,0.48-1.7
		C99.95,165.92,100.11,165.7,100.33,165.53z"/>
	<path d="M107.35,166.35c0.28-0.21,0.65-0.31,1.11-0.31c0.41,0,0.8,0.09,1.16,0.26c0.36,0.17,0.59,0.4,0.7,0.67
		c0.08,0.23,0.13,0.39,0.13,0.47c0,0.17-0.12,0.38-0.35,0.62c-0.21,0.23-0.53,0.35-0.97,0.35c-0.28,0-0.45,0.02-0.52,0.05
		c-0.07,0.04-0.11,0.12-0.14,0.26v0.26c0,0.5,0.12,1.12,0.35,1.88c0.21,0.68,0.31,1.38,0.31,2.1c0,0.72-0.1,1.27-0.31,1.66
		c-0.5,0.95-1.27,1.42-2.31,1.42c-0.22,0-0.38-0.01-0.49-0.02c-1.03-0.11-1.64-0.4-1.82-0.86c-0.08-0.23-0.13-0.4-0.13-0.49
		c0-0.16,0.11-0.37,0.33-0.64c0.17-0.18,0.32-0.3,0.46-0.34c0.13-0.04,0.43-0.06,0.89-0.06h1.02l0.04-0.58v-0.13
		c0-0.4-0.08-0.91-0.26-1.53c-0.22-0.77-0.33-1.54-0.33-2.33v-0.33c0-0.4,0.02-0.69,0.07-0.87c0.05-0.18,0.15-0.39,0.29-0.63
		C106.84,166.81,107.09,166.52,107.35,166.35z"/>
</g>
</svg>
