<?xml version="1.0" encoding="utf-8"?>
<!-- Generator: Adobe Illustrator 23.1.0, SVG Export Plug-In . SVG Version: 6.00 Build 0)  -->
<svg version="1.1" xmlns="http://www.w3.org/2000/svg" xmlns:xlink="http://www.w3.org/1999/xlink" x="0px" y="0px"
	 viewBox="0 0 1442.8 2348" style="enable-background:new 0 0 1442.8 2348;" xml:space="preserve">
<style type="text/css">
	.st0{display:none;}
	.st1{display:inline;fill:#FFFFFF;}
	.st2{display:inline;}
	.st3{fill:#FFFFFF;}
</style>
<g id="Calque_1" class="st0">
	<path class="st1" d="M1070,1784.9c9.3,5.9,18.6,14.8,29.6,18.2c31.4,9.7,60.5-6.2,86.9-17.6c21.3-9.2,36.9-32.7,53.5-51.2
		c5.5-6.1,7.8-16.2,8.8-24.8c4.1-36.1-14.5-60.2-42.4-80.1c-6-4.3-12.9-16.5-10.8-21.4c6.4-14.6,1.3-26.6-2.1-40
		c-2.8-11.3-6.4-24.3-3.3-34.7c10.7-36-0.2-70.4-6.3-104.6c-7.7-43.1-20.6-85.3-30.8-128c-13.8-58-39.1-109-91.7-141
		c-40.4-24.7-82.6-46.6-121.1-68.2c2.2-29.7,7.9-57.2,5.5-84.1c-3.7-41.2-7.6-83.8-21.3-122.3c-12.2-34.1-14.7-71.4-47.1-101.4
		c-31.4-29-59.4-61-96.2-84.4c-40.3-25.6-79.7-41.5-129.4-25.9c-50.6,15.8-81.6,48.6-98.7,95.7c-14.4,39.6-20.4,80.1-18,123.6
		c3.4,61.6,2.9,122.7,36.2,177.7c1.7,2.8,1,7.2,1.2,8.6c-31.9,3.1-62.5,8.1-93.2,8.5c-62.4,1-119.6,21.7-175.7,44.7
		c-45.2,18.5-70,61.3-95.9,99.5c-28.6,42.2-25.4,91.6-18.2,140c3.5,23.5,8.8,46.7,13.2,70.1c3.8,20.2,4.9,41.3,11.6,60.5
		c15,42.4,35,82.5,71.3,109.6c-2.7,6.9-4.7,11.5-6.2,16.2c-9.4,28.5-19,57-27.7,85.7c-3.8,12.4-8.1,25.6-7.6,38.3
		c0.6,16.9,1.4,35.5,22.5,43.3c23.6,8.7,46.7,18.7,70,27.8c7.7,3,15.6,5.4,23.7,8.2c-3.7,4.3-8.2,7.1-8.4,10.2
		c-2.1,31.2-6.6,62.7-4.3,93.7c2.2,29.7,12.3,58.8,17.6,88.4c0.9,5.1-3,14.8-7.2,16.5c-22.5,9.5-45.4,18.4-68.8,25.1
		c-46.9,13.5-82.2,52.3-78.8,98.2c0.4,6.1-2.6,14.7-7.1,18.4c-32.5,27.1-55.4,60.5-70.4,99.7c-8.6,22.4-5.1,52.4,12.3,60.7
		c13.8,6.6,32.1,6,48.2,5c22.1-1.4,41.8-13.1,52.3-31.7c20.1-35.6,25.7-75.1,21.6-115.9c-2.2-21.7,10.3-36.2,31.8-38.8
		c34.4-4.1,67.8-12,97.6-30.6c26.6,44.6,54.7,56.9,105.9,46c35.4-7.5,70.8-15.2,106.1-23.3c18.6-4.2,38.5-25.7,38.9-42.9
		c1.4-59.1,2.9-118.3,2.8-177.5c0-33.5,0.7-35.5,33.6-33.8c1.2,0.1,2.4,1,2.4,1c3.4,11.3,7.4,21.6,9.6,32.3c9,43.6,17,87.4,26.3,131
		c5.2,24.5,11.3,48.9,18.9,72.8c3.6,11.5,8.9,26.8,17.9,31.1c13.3,6.4,31,7.6,46.1,5.5c39.7-5.6,80.9,5,119.5-11.1
		c23.9,10.6,42.1-7.7,62.7-13.2c19.7-5.2,33.7-30.9,31.8-51.2c-1.8-20.1-2.9-40.2-5.2-60.2c-7.5-66.7-15.4-133.3-23.5-202.7
		C1014.5,1819.4,1042.5,1802,1070,1784.9z"/>
	<path class="st1" d="M1234.3,8.2c-11.7-11.7-32.2-11.9-51.3,7.4c-15.8,15.9-34.1,23.5-55.4,26.8c-22,3.4-37.5,16.8-37.9,37.8
		c-0.6,28.7,2.8,57.5,4.7,86.2c1,15.6,1.2,28.4-17.4,37c-30.1,13.9-47.8,45.4-6.5,74.6c15.5,10.9,34.2,16,46.9,4.7
		c11.4-10.2,20.1-29.7,20.1-45.1c-0.1-42.5-5-85-8.6-127.5c-1.3-16,7.1-25.3,19.8-31c16.8-7.5,34.3-13.5,51.4-20.2
		c0.7,3.2,3.2,9.5,3.3,15.8c0.9,34.6,9.4,71.1-24.5,97c-11.9,9.1-15.5,22.3-9.2,34.9c7.1,14,18,25.3,37.1,22.5
		c17.1-2.5,32.3-8.5,33.3-27.3c1.9-37.5,2.3-75.2,1.5-112.7C1241.1,64.4,1237.3,39.9,1234.3,8.2z"/>
	<path class="st1" d="M1028.8,551.2c4.7,13.5,7.8,27.5,14.5,39.6c4,7.2,13.6,11.3,20.7,16.8c3.4-7.5,10.9-15.9,9.5-22.4
		c-5.1-24.8-12.8-49-20-73.3c-0.9-3.1-4.4-7.4-7.2-7.9c-14.4-2.2-28.9-6.4-39.6,10.5c-4.2,6.6-14.7,9.9-23,13
		c-14.8,5.6-19.5,16-12,30c19.1,35.8,28.6,74.7,34.4,114.4c0.8,5.4-4.8,13.8-9.9,17.6c-13.1,10-28.6,17-41.1,27.6
		c-10.7,9-6.2,29.6,7.2,32.1c15,2.8,25.8,13.1,42.2,14.8c33.1,3.5,56.6-17.8,48.3-49.6c-4.6-17.6-7.6-35.6-11.7-53.3
		c-6.9-29.9-11.5-60.8-22.5-89.2C1013,557.2,1017.1,555.4,1028.8,551.2z"/>
	<path class="st1" d="M827.2,261.9c11.2-3,21.2-5.8,31.2-8.5c16.9-4.6,19.3-19.6,17.8-32.2c-0.6-4.8-16.4-8.1-25.6-11.2
		c-4.3-1.5-10.8,1-13.8-1.5c-20.5-16.6-41.4-5.1-44.8,24.4c-3,26.1-1.3,53,0.9,79.4c1.5,17.7-2.7,26.4-21.3,28.7
		c-26.9,3.3-45,25.8-40.9,48.2c4.4,24.4,16.7,33.3,48.7,35.1c41.5,2.4,48.6-4.8,48.1-46.2C826.8,340.3,827.2,302.4,827.2,261.9z"/>
	<path class="st2" d="M1070,1784.9c-27.4,17-55.5,34.5-79.4,49.4c8.1,69.4,16,136,23.5,202.7c2.3,20,3.3,40.2,5.2,60.2
		c1.9,20.3-12.1,45.9-31.8,51.2c-20.5,5.5-38.7,23.8-62.7,13.2c-38.6,16.1-79.8,5.6-119.5,11.1c-15.1,2.1-32.8,0.9-46.1-5.5
		c-9-4.3-14.3-19.7-17.9-31.1c-7.5-23.9-13.6-48.3-18.9-72.8c-9.3-43.6-17.3-87.4-26.3-131c-2.2-10.7-6.2-21-9.6-32.3
		c0,0-1.2-0.9-2.4-1c-32.9-1.8-33.6,0.2-33.6,33.8c0,59.2-1.5,118.3-2.8,177.5c-0.4,17.2-20.3,38.6-38.9,42.9
		c-35.3,8.1-70.7,15.7-106.1,23.3c-51.2,10.9-79.3-1.4-105.9-46c-29.9,18.6-63.2,26.4-97.6,30.6c-21.5,2.6-34,17.1-31.8,38.8
		c4.1,40.8-1.6,80.3-21.7,115.9c-10.5,18.6-30.2,30.2-52.3,31.7c-16.1,1.1-34.4,1.6-48.2-5c-17.4-8.3-20.9-38.3-12.3-60.7
		c15.1-39.2,38-72.6,70.4-99.7c4.5-3.8,7.5-12.4,7.1-18.4c-3.4-46,31.9-84.8,78.8-98.2c23.4-6.7,46.3-15.7,68.8-25.1
		c4.1-1.8,8.1-11.4,7.2-16.5c-5.3-29.6-15.4-58.7-17.6-88.4c-2.3-31,2.2-62.5,4.3-93.7c0.2-3.1,4.7-5.8,8.4-10.2
		c-8.1-2.8-16.1-5.2-23.7-8.2c-23.4-9.2-46.5-19.1-70-27.8c-21-7.8-21.9-26.3-22.5-43.3c-0.5-12.7,3.8-25.8,7.6-38.3
		c8.7-28.7,18.4-57.2,27.7-85.7c1.6-4.7,3.6-9.3,6.2-16.2c-36.3-27.1-56.3-67.2-71.3-109.6c-6.8-19.1-7.8-40.3-11.6-60.5
		c-4.4-23.4-9.7-46.6-13.2-70.1c-7.2-48.3-10.3-97.8,18.2-140c25.9-38.2,50.7-81,95.9-99.5c56.1-22.9,113.4-43.7,175.7-44.7
		c30.7-0.5,61.3-5.5,93.2-8.5c-0.2-1.4,0.5-5.7-1.2-8.6c-33.3-55.1-32.8-116.1-36.2-177.7c-2.4-43.5,3.6-84,18-123.6
		c17.1-47.2,48.1-79.9,98.7-95.7c49.7-15.5,89.1,0.4,129.4,25.9c36.9,23.4,64.9,55.4,96.2,84.4c32.4,29.9,34.9,67.2,47.1,101.4
		c13.7,38.5,17.7,81.1,21.3,122.3c2.4,26.8-3.3,54.4-5.5,84.1c38.5,21.6,80.6,43.5,121.1,68.2c52.6,32.1,77.9,83,91.7,141
		c10.2,42.7,23.1,84.9,30.8,128c6.1,34.2,16.9,68.6,6.3,104.6c-3.1,10.4,0.5,23.5,3.3,34.7c3.4,13.3,8.5,25.3,2.1,40
		c-2.1,4.8,4.7,17.1,10.8,21.4c27.8,19.9,46.5,44,42.4,80.1c-1,8.6-3.3,18.7-8.8,24.8c-16.6,18.5-32.2,42-53.5,51.2
		c-26.4,11.4-55.5,27.3-86.9,17.6C1088.6,1799.8,1079.3,1790.9,1070,1784.9z M605.7,1600.5c2.6-2.8,5-4.4,6-6.6
		c15.1-34.2,29.3-68.7,45.3-102.5c6-12.7,13.8-26.2,24.5-34.8c41.8-33.3,98.8-25,131.4,17.2c34.2,44.4,32.5,92.6-9.2,128.6
		c-14.2,12.2-37,20-55.7,19.7c-14.3-0.2-22.1,4.3-29.6,12.2c-11.3,11.9-21.7,24.8-30.9,38.4c-6.5,9.5-14.8,20.9-14.6,31.4
		c0.8,44.9-16.4,79.1-52.4,105.8c-14.3,10.6-25.1,26-46.4,21.2c4.4,13.4,10.2,17.9,24.9,16.8c20.6-1.7,41.7,2.9,62.6,4.5
		c12.9,1,26.1,3.3,38.8,1.7c47.9-6.4,95.8-13.2,143.3-22c23.7-4.4,46.8-12.7,69.5-20.8c26.6-9.5,53.7-18.8,78.7-31.9
		c25.2-13.2,47.7-31.2,71.9-46.4c8.9-5.6,10.7-9.8,5.9-20.3c-13.1-28.9-26.6-58.1-35.1-88.5c-12.7-45.2-22-91.3-31.1-137.4
		c-3.9-19.6-4.5-40.2-4.5-60.3c0.1-18.7,18.2-17.6,29.5-19.1c5.2-0.7,16.2,11.4,17.6,18.9c7.8,43.6,12.4,87.9,20.5,131.4
		c4.9,26.2,14.4,51.5,21.9,77.4c18.7-12,34.7-21.2,49.4-32.2c5.1-3.8,10.2-12.1,9.9-18.1c-1.6-38.5-1.3-77.5-8-115.2
		c-10-55.9-24.7-111.1-38.5-166.2c-9.1-36.3-24.2-70-57.3-91c-39.3-25-79.5-48.6-119.2-72.8c-44.3,68.9-85.8,94.5-134,93.4
		c13.4,7.6,22.8,12.8,34.8,19.6c17-9.9,37.3-22.6,58.7-33c3.8-1.9,15.8,4.2,18.1,9.3c16,35.4,4.2,71.5-0.5,107
		c-1.3,10-9.9,17.3-24.2,11.5c-18-7.3-37.2-11.9-56.2-16.8c-3.6-0.9-8.9,1-12.3,3.3c-15.7,10.7-34.2,13.5-48.6,3.6
		c-17.5-12-30.9-9.3-46.6,0.1c-4.4,2.7-9.7,4-14.8,5.2c-22.5,5.3-52.1-9.9-52.5-27.9c-0.4-20.2,0.8-40.4,1.7-60.6
		c0.6-15.3,8.9-25.9,23.8-27c8.9-0.7,18.3,4.6,27.4,7.6c25,8.2,49.5,24.8,74.8,5.6c-30.4-13-67-10.4-93.8-39.2
		c-25.9-27.7-57-50.5-87.2-76.6c-9.6,3.3-21.7,15.3-35.7,1.4c-1.2-1.2-4.6-0.5-6.9-0.3c-18.4,1.8-36.8,3.7-55.2,5.6
		c-26.7,2.7-54.1,2.3-79.8,8.8c-56.9,14.4-112.4,33.7-151.5,81.5c-17.3,21.2-35.4,43.1-33.1,73.5c3.3,43.9,5.6,87.9,10.7,131.6
		c6.8,57.2,32.1,105.9,73.9,145.8c14,13.3,29.1,25.8,41.4,40.6c23.6,28.2,45.5,57.8,68.5,87.1c39-40.6,75.2-78.4,112.4-117.2
		c-10.6-13.3-25.2-28.4-36.1-45.8c-15.9-25.4-28.7-52.8-43.7-78.8c-20.4-35.6-26.2-73.8-19.1-113.4c1.3-7.4,15.1-18,22.5-17.4
		c10.1,0.7,28.7,1.6,21.8,23.4c-8.1,25.6-2.1,49.3,9.6,73.3c13.4,27.5,26.4,54,47.9,77.1c12.8,13.7,30.5,24.8,34.3,48.5
		C578.2,1567.7,594.4,1582.8,605.7,1600.5z M863.8,917.6c-0.5-1.8-0.9-2.9-1.1-4.7c-3.5-12.3-6.6-24.9-10.7-37
		c-20.7-61.4-59.1-109.8-110.8-148c-3-2.3-6.8-3.9-10.5-4.9c-26.7-7.7-54.5-3.2-78,6.1c-27.4,10.9-52.5,30.7-59.2,63.6
		c-2.4,11.9-1.9,24.3-3.3,36.4c-3.6,31.6-8.5,63.1-11,94.8c-1,13.4,0.4,28.1,5,40.7c12.3,33,26,65.5,41.1,97.4
		c8.4,17.8,18.7,35.5,31.6,50.3c14.5,16.7,34.9,28.2,49.2,45.1c23.6,27.8,53,32.7,85.6,26.3c29.5-5.8,49.9-27.7,70.8-46.9
		c7.7-7,14.9-19.2,14.9-29c0.1-32.2-2.1-64.6-5.4-96.7C868.6,978.6,868.5,949.9,863.8,917.6z M736.1,1895.7c0,7-1.2,13.2,0.2,18.7
		c15.5,62.1,31,124.1,47.2,186c5.7,21.8,18,28.8,40.5,26.2c19.8-2.2,39.7-6.2,59.5-5.6c32.5,0.9,61.5-8.6,91.7-23.4
		c-10.4-81.3-20.8-162.5-31-242.8C872.2,1868.9,804.4,1882.3,736.1,1895.7z M604.8,1895.2c-10.8-2-18.2-1.6-23.4-4.7
		c-13.6-8.2-37.3,1-41.5-23.8c-0.3-1.6-5.6-4.1-7.2-3.3c-3.5,1.8-7.9,4.9-8.6,8.2c-6.6,31.9-12.7,63.9-18.7,95.9
		c-9.5,49.9-21.9,98.4-63.9,135.2c3.5,7.2,7.5,15.2,11.4,23.1c15.3-9.1,30.1,3.3,44,1.7c31.6-3.5,62.7-11.7,93.7-19
		c3.3-0.8,6.9-8.5,7.1-13.1C600.3,2028.9,602.5,1962.3,604.8,1895.2z M470.7,1723.1c15.9,17.5,31,36,48.1,52.5
		c18.4,17.7,42.3,16.2,64.6,4.2c17.5-9.4,26.4-23.7,34.7-39.7c15-29,2.9-73.7-24.8-90c-3.8-2.2-9.8-2.1-14.5-1.4
		c-13.8,2.1-27.6,4.4-41.1,7.8c-7.1,1.8-15.4,4.4-20,9.5C502.6,1682.6,488.9,1700.7,470.7,1723.1z M425.4,2062.1
		c2.1,0.3,4.2,0.7,6.4,1c5.7-16.3,13.6-32.2,16.6-49c7.3-40.3,11.8-81.1,18.4-121.6c2.2-13.7,7.2-27,10-37.1
		c-28.6-4-55.3-7.7-78-10.9c0,35.3-3.5,72.3,1,108.3C404.3,1989.8,416.5,2025.7,425.4,2062.1z M320.1,1650.7
		c-8,32.2-16,58.1-20.3,84.7c-1.3,8.2,4.9,21.4,11.9,26.5c41.6,29.9,92.5,32.3,139.8,46.5c4.1-8.9,7-15.4,10-21.9
		c-3-3.4-6.2-6.1-8.1-9.4c-7.8-14.4-15.6-27.8-35.7-17.2c-1.7,0.9-6.5-2.2-8.7-4.5c-21-22.2-42.1-44.4-62.4-67.3
		C337.9,1677.8,330.9,1665.9,320.1,1650.7z M401.6,2110.4c-0.6-1.1-1.2-2.2-1.9-3.3c-11.3,2.2-22.5,4.6-33.8,6.4
		c-18.1,3-38.5,1.2-54.1,9.1c-54.7,27.7-105.5,62-140.4,113.9c-12.4,18.5-19.5,41.2-26.1,62.9c-4.7,15.2,11.2,35.1,25.6,36.3
		c36,3,71.7-26.2,81.1-60.8c7.6-28.1,6.5-54.9,1.3-82.7c-23,14.3-18.9,37.2-18.1,57.8c1,24.8-9.9,43.1-27.2,58.1
		c-5,4.3-16.1,5.8-22.5,3.4c-26.1-9.7-30.4-39.2-12.2-58.1c24.5-25.4,48.1-51.8,73.8-75.9c14.7-13.7,33.3-33.3,49.6-32.8
		c26,0.8,46.3-10.3,68.8-16.4C378.3,2124.9,389.7,2116.6,401.6,2110.4z M1111.9,1759.4c6-1.3,12.2-2.1,17.9-4.1
		c21.5-7.2,44-11.1,58.8-32.2c11.5-16.3,11-32.4-5.2-44.6c-11.8-8.9-23-18.7-36.5-29.8c-6.1,5.2-13.5,11.5-20.9,17.8
		c-14.4,12.2-11.1,26.7-6.4,42.1C1125,1726.3,1129.3,1744.4,1111.9,1759.4z M666,1249c1.3,19.1,2.1,35.3,3.6,51.4
		c1.6,16.6,13.5,20.1,26.9,17.7c9.4-1.7,20.9-4.4,26.6-10.9c6.9-8,10.3-20.2,11.6-31c0.4-3.8-9.3-10.8-15.6-12.9
		C703.8,1258,687.8,1254.7,666,1249z M886.3,1249c-13.2,5.5-24.4,10.2-35.6,14.7c-14.3,5.7-26.7,12.9-23.2,31.3
		c2.9,15.5,14.1,21.3,28.7,23.7c20.3,3.3,28.1-0.6,29.8-19.5C887.5,1283.7,886.3,1267.9,886.3,1249z M808.1,1280.7
		c1.4-11.8-3.6-21.3-21.5-20.5c-21.4,1-34.3,13.1-34.8,33.7c-0.4,17.3,9.4,24.9,31.3,24.4C801.1,1317.8,808.2,1308.2,808.1,1280.7z
		 M420.7,2095.6c24.3-10.7,36.6-27.5,43.5-47c12.4-35,23-70.4,24.6-108.5c1-24.1,10.7-47.8,16-71.7c0.9-3.8-0.5-8.1-0.8-12.2
		c-3.6,2.6-7.5,5-10.7,8c-1.8,1.7-3.1,4.4-3.6,6.8c-7.5,34.4-17.3,68-16.9,104.3C473.3,2020,455.5,2059.3,420.7,2095.6z
		 M260.7,2132.4c2,1.9,4,3.7,6,5.6c35.3-40.5,86.4-32.6,130.1-44.4c-6.8-5.3-12.8-10-19.5-15.2c-9.4,2.1-21.3,3.4-32,7.4
		c-26.4,10-52.5,20.8-78.2,32.4C263.5,2119.8,262.7,2127.5,260.7,2132.4z M254.2,2144.9c-11.6-15.5-9.2-26.6,7.6-39.7
		c32.2-25.2,70.7-33.5,110.3-40.6c-1.2-3.9-2.4-7.7-3.9-12.3c-34.9,13.7-68.9,26.3-102.2,40.3c-36.7,15.4-42,26-37.2,67.9
		C237.1,2155.3,244.8,2150.6,254.2,2144.9z M227.3,2225c-2.3-0.6-4.6-1.1-6.9-1.7c-5.6,6.2-11.7,11.9-16.6,18.6
		c-6.8,9.2-15.2,18.3-18.3,28.8c-2,6.7,4.5,15.8,7.2,23.8c6.4-3,17-4.6,18.6-9.3C218,2265.6,222.1,2245.1,227.3,2225z"/>
	<path class="st2" d="M1234.3,8.2c3,31.7,6.8,56.2,7.4,80.8c0.8,37.5,0.5,75.2-1.5,112.7c-1,18.8-16.2,24.8-33.3,27.3
		c-19.2,2.8-30-8.5-37.1-22.5c-6.3-12.5-2.7-25.8,9.2-34.9c33.9-25.9,25.4-62.5,24.5-97c-0.2-6.3-2.6-12.5-3.3-15.8
		c-17.2,6.7-34.7,12.7-51.4,20.2c-12.8,5.7-21.2,15-19.8,31c3.6,42.5,8.6,85,8.6,127.5c0,15.4-8.7,35-20,45.2
		c-12.7,11.3-31.4,6.3-46.9-4.7c-41.3-29.2-23.6-60.7,6.5-74.6c18.6-8.6,18.4-21.4,17.4-37c-1.9-28.7-5.3-57.5-4.7-86.2
		c0.4-21,15.9-34.3,37.9-37.8c21.3-3.3,39.7-10.8,55.4-26.8C1202.1-3.7,1222.6-3.5,1234.3,8.2z"/>
	<path class="st2" d="M1028.8,551.2c-11.7,4.2-15.8,6-10.1,20.7c11,28.4,15.5,59.3,22.5,89.2c4.1,17.7,7.1,35.7,11.7,53.3
		c8.3,31.7-15.3,53-48.3,49.6c-16.3-1.7-27.2-12-42.2-14.8c-13.4-2.5-17.8-23.1-7.2-32.1c12.5-10.5,28-17.6,41.1-27.6
		c5-3.8,10.7-12.2,9.9-17.6c-5.8-39.7-15.3-78.6-34.4-114.4c-7.5-14-2.8-24.4,12-30c8.3-3.1,18.8-6.4,23-13
		c10.7-16.9,25.2-12.8,39.6-10.5c2.8,0.4,6.2,4.7,7.2,7.9c7.2,24.3,15,48.5,20,73.3c1.3,6.5-6.1,14.9-9.5,22.4
		c-7.1-5.5-16.7-9.6-20.7-16.8C1036.7,578.8,1033.5,564.7,1028.8,551.2z"/>
	<path class="st2" d="M827.2,261.9c0,40.5-0.4,78.4,0.1,116.2c0.5,41.5-6.5,48.6-48.1,46.2c-32-1.8-44.3-10.7-48.7-35.1
		c-4-22.4,14-44.9,40.9-48.2c18.6-2.3,22.8-11,21.3-28.7c-2.2-26.4-3.9-53.3-0.9-79.4c3.4-29.5,24.3-41,44.8-24.4
		c3,2.4,9.5,0,13.8,1.5c9.2,3.1,25,6.4,25.6,11.2c1.6,12.6-0.8,27.7-17.8,32.2C848.4,256.1,838.4,258.9,827.2,261.9z"/>
	<path class="st1" d="M605.7,1600.5c-11.3-17.8-27.4-32.8-30.2-50.1c-3.9-23.7-21.5-34.8-34.3-48.5c-21.5-23.1-34.5-49.6-47.9-77.1
		c-11.7-24-17.8-47.8-9.6-73.3c7-21.9-11.6-22.8-21.8-23.4c-7.4-0.5-21.2,10.1-22.5,17.4c-7.1,39.6-1.3,77.8,19.1,113.4
		c14.9,26.1,27.8,53.4,43.7,78.8c10.9,17.4,25.5,32.5,36.1,45.8c-37.2,38.8-73.5,76.6-112.4,117.2c-22.9-29.4-44.9-58.9-68.5-87.1
		c-12.3-14.8-27.4-27.2-41.4-40.6c-41.9-39.9-67.2-88.6-73.9-145.8c-5.2-43.7-7.4-87.7-10.7-131.6c-2.3-30.4,15.8-52.2,33.1-73.5
		c39-47.8,94.6-67.1,151.5-81.5c25.7-6.5,53.2-6.1,79.8-8.8c18.4-1.9,36.8-3.8,55.2-5.6c2.3-0.2,5.7-0.9,6.9,0.3
		c14,13.9,26,1.8,35.7-1.4c30.1,26.1,61.3,48.8,87.2,76.6c26.8,28.8,63.4,26.1,93.8,39.2c-25.3,19.2-49.8,2.5-74.8-5.6
		c-9.1-3-18.5-8.2-27.4-7.6c-14.9,1.1-23.1,11.7-23.8,27c-0.8,20.2-2.1,40.4-1.7,60.6c0.4,18,30,33.3,52.5,27.9
		c5.1-1.2,10.4-2.6,14.8-5.2c15.6-9.4,29.1-12.1,46.6-0.1c14.3,9.8,32.9,7.1,48.6-3.6c3.4-2.3,8.7-4.3,12.3-3.3
		c18.9,4.9,38.1,9.5,56.2,16.8c14.3,5.8,22.9-1.5,24.2-11.5c4.7-35.6,16.5-71.7,0.5-107c-2.3-5.1-14.3-11.2-18.1-9.3
		c-21.4,10.4-41.6,23.2-58.7,33c-12-6.8-21.4-12-34.8-19.6c48.2,1.1,89.7-24.5,134-93.4c39.8,24.2,79.9,47.8,119.2,72.8
		c33.2,21,48.3,54.7,57.3,91c13.8,55.2,28.5,110.3,38.5,166.2c6.7,37.7,6.4,76.7,8,115.2c0.2,6-4.8,14.3-9.9,18.1
		c-14.7,11-30.8,20.2-49.4,32.2c-7.5-25.9-17-51.2-21.9-77.4c-8.2-43.6-12.7-87.8-20.5-131.4c-1.4-7.6-12.3-19.6-17.6-18.9
		c-11.3,1.4-29.4,0.3-29.5,19.1c-0.1,20.1,0.6,40.6,4.5,60.3c9,46.1,18.4,92.2,31.1,137.4c8.5,30.4,22,59.6,35.1,88.5
		c4.8,10.6,3.1,14.7-5.9,20.3c-24.2,15.2-46.7,33.2-71.9,46.4c-25,13.1-52,22.4-78.7,31.9c-22.8,8.1-45.9,16.4-69.5,20.8
		c-47.5,8.8-95.4,15.6-143.3,22c-12.6,1.7-25.8-0.7-38.8-1.7c-20.9-1.6-42-6.2-62.6-4.5c-14.7,1.2-20.5-3.3-24.9-16.8
		c21.3,4.8,32.1-10.6,46.4-21.2c36-26.7,53.1-60.9,52.4-105.8c-0.2-10.4,8.1-21.8,14.6-31.4c9.2-13.6,19.7-26.5,30.9-38.4
		c7.5-8,15.3-12.4,29.6-12.2c18.7,0.2,41.5-7.5,55.7-19.7c41.7-36,43.4-84.2,9.2-128.6c-32.6-42.2-89.6-50.5-131.4-17.2
		c-10.7,8.5-18.5,22-24.5,34.8c-16,33.7-30.2,68.3-45.3,102.5C610.7,1596.2,608.3,1597.7,605.7,1600.5z"/>
	<path class="st1" d="M858.1,914.2c4.7,32.2,10.5,64.3,13.9,96.7c3.3,32.1,5.5,64.4,5.4,96.7c0,9.8-7.2,22-14.9,29
		c-21,19.3-41.3,41.1-70.8,46.9c-32.6,6.4-61.9,1.5-85.6-26.3c-14.3-16.8-34.7-28.4-49.2-45.1c-12.9-14.8-23.2-32.4-31.6-50.3
		c-15-31.8-28.8-64.4-41.1-97.4c-4.7-12.5-6.1-27.2-5-40.7c2.4-31.7,7.4-63.2,11-94.8c1.4-12.1,0.9-24.6,3.3-36.4
		c6.7-32.9,31.8-52.7,59.2-63.6c23.5-9.4,51.3-13.9,78-6.1c3.7,1.1,7.4,2.7,10.5,4.9c51.7,38.3,90.1,86.6,110.8,148
		c4.1,12.2,7.2,24.7,10.7,37C861.2,913.4,859.7,913.8,858.1,914.2z"/>
	<path class="st1" d="M736.1,1895.7c68.3-13.4,136.2-26.8,208.1-40.9c10.3,80.3,20.7,161.5,31,242.8c-30.2,14.7-59.2,24.3-91.7,23.4
		c-19.8-0.6-39.7,3.3-59.5,5.6c-22.5,2.6-34.8-4.4-40.5-26.2c-16.2-61.9-31.8-123.9-47.2-186
		C734.9,1908.9,736.1,1902.7,736.1,1895.7z"/>
	<path class="st1" d="M604.8,1895.2c-2.3,67-4.5,133.6-7.2,200.2c-0.2,4.6-3.8,12.3-7.1,13.1c-31,7.3-62.2,15.4-93.7,19
		c-13.9,1.6-28.7-10.9-44-1.7c-3.9-8-7.9-15.9-11.4-23.1c42-36.8,54.4-85.2,63.9-135.2c6.1-32,12.1-64.1,18.8-95.9
		c0.7-3.3,5.1-6.5,8.6-8.2c1.5-0.8,6.9,1.7,7.2,3.3c4.2,24.8,27.9,15.6,41.5,23.8C586.6,1893.7,594,1893.2,604.8,1895.2z"/>
	<path class="st1" d="M470.7,1723.1c18.3-22.4,32-40.5,47.1-57.2c4.6-5.1,12.9-7.7,20-9.5c13.5-3.4,27.3-5.7,41.1-7.8
		c4.7-0.7,10.7-0.8,14.5,1.4c27.8,16.3,39.9,61,24.8,90c-8.3,16-17.2,30.3-34.7,39.7c-22.3,12-46.2,13.5-64.6-4.2
		C501.7,1759.2,486.6,1740.7,470.7,1723.1z"/>
	<path class="st1" d="M425.4,2062.1c-8.9-36.3-21.1-72.3-25.6-109.1c-4.4-36-1-73-1-108.3c22.7,3.2,49.4,6.9,78,10.9
		c-2.8,10-7.8,23.3-10,37.1c-6.6,40.4-11.1,81.2-18.4,121.6c-3,16.8-11,32.7-16.6,49C429.6,2062.8,427.5,2062.4,425.4,2062.1z"/>
	<path class="st1" d="M320.1,1650.7c10.8,15.2,17.8,27.2,26.8,37.3c20.2,22.9,41.4,45.1,62.4,67.3c2.2,2.3,7,5.4,8.7,4.5
		c20.1-10.6,27.9,2.8,35.7,17.2c1.8,3.4,5.1,6,8.1,9.4c-3,6.5-5.9,13-10,21.9c-47.4-14.2-98.2-16.6-139.8-46.5
		c-7-5-13.3-18.3-11.9-26.5C304.2,1708.8,312.1,1682.9,320.1,1650.7z"/>
	<path class="st1" d="M401.6,2110.4c-11.9,6.1-23.3,14.5-36,18c-22.5,6.1-42.8,17.3-68.8,16.4c-16.3-0.5-34.9,19.1-49.6,32.8
		c-25.8,24-49.3,50.5-73.8,75.9c-18.2,18.8-13.9,48.3,12.2,58.1c6.4,2.4,17.5,0.9,22.5-3.4c17.2-14.9,28.1-33.3,27.2-58.1
		c-0.8-20.6-5-43.5,18.1-57.8c5.2,27.8,6.4,54.6-1.3,82.7c-9.4,34.6-45.2,63.8-81.1,60.8c-14.3-1.2-30.3-21.1-25.6-36.3
		c6.7-21.7,13.7-44.4,26.1-62.9c34.8-51.9,85.7-86.2,140.4-113.9c15.6-7.9,36-6.1,54.1-9.1c11.3-1.9,22.5-4.3,33.8-6.4
		C400.4,2108.2,401,2109.3,401.6,2110.4z"/>
	<path class="st1" d="M1111.9,1759.4c17.5-14.9,13.1-33,7.7-50.7c-4.7-15.4-8-29.9,6.4-42.1c7.4-6.3,14.8-12.6,21-17.8
		c13.5,11.1,24.7,20.9,36.5,29.8c16.2,12.2,16.7,28.2,5.2,44.6c-14.8,21.1-37.4,25-58.8,32.2
		C1124,1757.2,1117.9,1758.1,1111.9,1759.4z"/>
	<path class="st1" d="M666,1249c21.8,5.7,37.8,9,53.1,14.2c6.3,2.2,16,9.2,15.6,12.9c-1.3,10.8-4.7,23.1-11.6,31
		c-5.6,6.5-17.2,9.3-26.6,10.9c-13.4,2.4-25.3-1.1-26.9-17.7C668.1,1284.3,667.3,1268.1,666,1249z"/>
	<path class="st1" d="M886.3,1249c0,18.9,1.2,34.7-0.3,50.3c-1.8,18.9-9.5,22.8-29.8,19.5c-14.6-2.3-25.8-8.2-28.7-23.7
		c-3.5-18.4,8.9-25.7,23.2-31.3C862,1259.2,873.1,1254.5,886.3,1249z"/>
	<path class="st1" d="M808.1,1280.7c0.1,27.6-7,37.2-25,37.6c-21.8,0.5-31.6-7.1-31.3-24.4c0.4-20.6,13.4-32.7,34.8-33.7
		C804.5,1259.3,809.5,1268.9,808.1,1280.7z"/>
	<path class="st1" d="M420.7,2095.6c34.8-36.3,52.6-75.6,52.2-120.3c-0.4-36.3,9.4-69.8,16.9-104.3c0.5-2.4,1.8-5.2,3.6-6.8
		c3.2-3,7.1-5.4,10.7-8c0.3,4.1,1.6,8.4,0.8,12.2c-5.4,23.9-15,47.6-16,71.7c-1.6,38.1-12.2,73.5-24.6,108.5
		C457.3,2068.1,444.9,2084.9,420.7,2095.6z"/>
	<path class="st1" d="M260.7,2132.4c2.1-4.9,2.9-12.6,6.4-14.2c25.7-11.6,51.8-22.5,78.2-32.4c10.8-4.1,22.6-5.3,32-7.4
		c6.7,5.2,12.7,9.9,19.5,15.2c-43.8,11.9-94.8,3.9-130.1,44.4C264.7,2136.1,262.7,2134.2,260.7,2132.4z"/>
	<path class="st1" d="M254.2,2144.9c-9.4,5.8-17.1,10.5-25.4,15.5c-4.8-41.9,0.5-52.5,37.2-67.9c33.4-14,67.3-26.6,102.2-40.3
		c1.4,4.6,2.6,8.4,3.9,12.3c-39.6,7.1-78.1,15.4-110.3,40.6C245,2118.2,242.6,2129.3,254.2,2144.9z"/>
	<path class="st1" d="M227.3,2225c-5.1,20.1-9.3,40.6-16.1,60.2c-1.6,4.7-12.2,6.3-18.6,9.3c-2.7-8-9.1-17.2-7.2-23.8
		c3.1-10.5,11.5-19.6,18.3-28.8c4.9-6.6,11-12.4,16.6-18.6C222.7,2223.8,225,2224.4,227.3,2225z"/>
</g>
<g id="Calque_2">
	<path class="st3" d="M587.3,1899.6c2.9,11.8,4.9,21.4,7.7,30.8c6.3,21.2,13.5,42.2,19.4,63.5c14.7,52.6,26.9,106,44,157.8
		c13,39.3,37.3,48.7,78,39.4c20.9-4.8,42.6-6.4,63.3-11.7c10.2-2.6,21.5-8.1,28.1-15.8c23.6-28,17.7-64.9,21.2-97
		c6.2-57.5,1.4-116.1,2.1-174.3c0.2-13.6-1.6-32.6,15.9-35.3c14.7-2.2,26.7-8.2,39.5-13.8c25.1-11,50.3-21.9,75.2-33.3
		c16.7-7.7,18.5-22.4,16-38.2c-1.2-7.6-3.5-15.1-6-22.5c-11.9-35-25.8-69.3-35.6-104.8c-13.6-48.8-24.2-98.4-36.3-148.5
		c5.9,1.3,12.2,2.5,18.4,3.9c35,7.6,69.8,17.6,105.2,22c24,3,46,6.9,64.9,22.5c7.5,6.2,16.1,11.4,23.3,18c6,5.4,9.4,15,16.1,18
		c18.6,8.2,30.3,29.2,53.5,28.4c9.6-0.4,19.4-1,28.8,0.5c28.5,4.6,54.9,0.5,79.5-15c41.9-26.3,79.4-56.7,74.3-112.5
		c-2.1-22.7,16.9-52.7-18.9-65.1c6.3-9.7,11.6-17.3,16.2-25.3c21.4-37.2,51.3-70.4,51.3-117.4c0-13.3,6.2-26.6,9.2-40.1
		c6.5-29.1,10.2-58.4,1.1-87.6c-2.8-9-8.3-15-18.9-6c-22.5,19.3-45.3,38.2-68.5,56.5c-13.7,10.8-33.1,17.2-42.1,30.8
		c-23.5,35.6-42.8,74.1-63.3,110.6c-17.6-6.1-33.8-10-51.4,1.3c-5.9,3.8-18.1,4.1-24.1,0.5c-34-20.5-66.1-44.3-100.6-63.9
		c-58.1-33-114.1-69.9-175.8-96.8c-28.5-12.5-48.3-31.5-45.1-69.5c4.9-58.1,1.4-116.6-12.4-173.8c-4.6-19-10.5-37.6-14.4-56.7
		c-13.9-68.4-32-134.9-90.6-180.3c-15.6-12.1-33.4-23.6-52.1-28.8c-35.9-10-65.3,7.5-89.9,29.3c-14.1-7.6-27-16.4-41.1-21.7
		c-25.1-9.5-51.7-3.8-72.7,8c-34.6,19.5-55.7,54.3-78.9,85.9c-8.5,11.6-19.3,22.5-24.5,35.6c-18.1,45.3-34.6,91.1-36.8,140.8
		c-0.8,17.7-5.4,35.3-7.4,53c-5.4,48.6-10.4,97.3-15.9,148.7c-6.6,0.8-16,0.3-24,3.3c-34,13-68.9,24.5-100.9,41.3
		c-32.8,17.2-62.7,40-79.9,74.9c-16,32.5-32.4,64.8-47,97.9c-12.2,27.6-24,55.5-32.6,84.4c-19.7,66.2-15.5,135.1-19.6,203
		c-0.7,11.5,6.3,23.5,10.1,36.7c0.3-0.2-3.4,2.1-6.7,4.9c-11.9,10.1-17,22.6-15.6,38.6c2.5,28.4-3.1,59.6,18.1,82.3
		c11.2,12,29.2,18,44.6,25.8c31.1,15.7,64.9,12.9,97.2,16.4c7,4.9,14.7,8.4,22.4,12.1c9,4.4,23,6.9,25.8,13.9
		c11.7,29,21.3,59,29.1,89.3c5.9,22.8,5.4,47.4,12.4,69.7c15.6,50.1,33.5,99.5,51.8,148.6c7.5,20.2,34,31.8,55.5,27.5
		c32.9-6.5,67.6-0.7,99.3-18.4c12.4-7,30.6-20.1,31.3-33.3c2-37.2,5.7-74.2,7.9-111.3c2.5-42.8,4.1-85.6,6-128.3
		c0.3-7,0-14.1,0-21.7C531.7,1904.9,559.1,1902.3,587.3,1899.6z"/>
	<path d="M587.3,1899.6c-28.1,2.7-55.5,5.2-85.5,8.1c0,7.6,0.3,14.7,0,21.7c-1.9,42.8-3.5,85.6-6,128.3
		c-2.2,37.1-5.9,74.2-7.9,111.3c-0.7,13.1-18.9,26.3-31.3,33.3c-31.7,17.7-66.4,11.9-99.3,18.4c-21.6,4.3-48-7.4-55.5-27.5
		c-18.3-49.2-36.2-98.6-51.8-148.6c-7-22.3-6.5-46.9-12.4-69.7c-7.9-30.3-17.4-60.3-29.1-89.3c-2.8-7-16.9-9.5-25.8-13.9
		c-7.6-3.7-15.4-7.2-22.4-12.1c-32.3-3.5-66.1-0.7-97.2-16.4c-15.4-7.8-33.4-13.8-44.6-25.8c-21.1-22.8-15.6-53.9-18.1-82.3
		c-1.4-16,3.7-28.5,15.6-38.6c3.3-2.8,7-5.1,6.7-4.9c-3.8-13.2-10.8-25.2-10.1-36.7c4.1-67.9-0.2-136.8,19.6-203
		c8.6-28.8,20.4-56.8,32.6-84.4c14.6-33.1,31-65.5,47-97.9c17.2-34.9,47.1-57.7,79.9-74.9c32.1-16.8,66.9-28.4,100.9-41.3
		c8-3.1,17.4-2.5,24-3.3c5.5-51.5,10.4-100.1,15.9-148.7c2-17.7,6.6-35.2,7.4-53c2.2-49.7,18.6-95.6,36.8-140.8
		c5.2-13,16-23.9,24.5-35.6c23.2-31.6,44.3-66.4,78.9-85.9c21-11.8,47.6-17.5,72.7-8c14.1,5.3,27,14.1,41.1,21.7
		c24.7-21.9,54.1-39.3,89.9-29.3c18.6,5.2,36.5,16.7,52.1,28.8c58.7,45.4,76.7,111.9,90.6,180.3c3.9,19.1,9.8,37.7,14.4,56.7
		c13.8,57.2,17.3,115.7,12.4,173.8c-3.2,38,16.5,57,45.1,69.5c61.6,27,117.6,63.8,175.8,96.8c34.5,19.6,66.6,43.4,100.6,63.9
		c6,3.6,18.2,3.3,24.1-0.5c17.5-11.3,33.8-7.4,51.4-1.3c20.5-36.5,39.7-75,63.3-110.6c9-13.6,28.4-20,42.1-30.8
		c23.2-18.3,46-37.3,68.5-56.5c10.5-9,16.1-3,18.9,6c9.1,29.1,5.4,58.5-1.1,87.6c-3,13.4-9.2,26.7-9.2,40.1
		c0,47-29.8,80.2-51.3,117.4c-4.6,8-9.9,15.6-16.2,25.3c35.8,12.4,16.8,42.4,18.9,65.1c5.1,55.8-32.3,86.2-74.3,112.5
		c-24.6,15.4-51,19.5-79.5,15c-9.4-1.5-19.2-0.9-28.8-0.5c-23.3,0.9-35-20.1-53.5-28.4c-6.7-3-10.2-12.5-16.1-18
		c-7.2-6.6-15.7-11.7-23.3-18c-18.9-15.7-40.9-19.5-64.9-22.5c-35.5-4.4-70.2-14.4-105.2-22c-6.2-1.4-12.5-2.7-18.4-3.9
		c12.1,50.1,22.7,99.7,36.3,148.5c9.9,35.5,23.8,69.9,35.6,104.8c2.5,7.3,4.8,14.8,6,22.5c2.5,15.8,0.7,30.6-16,38.2
		c-24.9,11.4-50.1,22.3-75.2,33.3c-12.8,5.6-24.8,11.6-39.5,13.8c-17.5,2.7-15.7,21.7-15.9,35.3c-0.7,58.1,4,116.8-2.1,174.3
		c-3.4,32.1,2.5,69-21.2,97c-6.6,7.8-17.9,13.3-28.1,15.8c-20.8,5.2-42.4,6.9-63.3,11.7c-40.7,9.4-65,0-78-39.4
		c-17.1-51.8-29.3-105.2-44-157.8c-6-21.3-13.1-42.3-19.4-63.5C592.2,1921.1,590.2,1911.5,587.3,1899.6z M1348.7,1344.9l0.5,0.3
		c5-15.2,9.9-30.5,15.3-46.9c-5.9-4.3-13.2-9.7-18.7-13.8c-32.8,67.3-64.6,132.4-96.4,197.5c-1.6-0.2-3.2-0.5-4.8-0.7
		c0-4.6-1.1-9.5,0.2-13.7c9-28.2,26.7-52.3,36.6-80.3c11.8-33.4,27.4-65.6,43-97.4c6.8-14,2.3-22-7.2-31
		c-11.9,22.6-23.3,44.2-34.7,65.8c-19,36.1-38.5,71.9-56.8,108.3c-11.5,22.8-22,46.2-31.4,70c-4.4,11.2-2,22.8,11.5,27.6
		c9.8,3.5,20,6.1,30.1,8.7c11.3,2.9,20.5,2.1,28.3-9.4c20.3-29.9,42.8-58.3,62.8-88.4c27-40.7,52.5-82.4,78.7-123.6
		c-19.4-10.2-31.9-9.4-38.4,12.6C1365.2,1336.6,1355.1,1340.2,1348.7,1344.9z M192.5,1834.5c52.5,8.1,100.4,17,148.6,22.4
		c32.6,3.6,65.7,2.5,98.6,3.1c17.6,0.3,35.2,0,52.7-0.1c34.3-0.2,68.7,1.4,102.9-1.1c41.9-3.1,83.5-9.4,125.3-14.7
		c21.7-2.8,43.7-4.6,64.8-9.9c25.4-6.3,49.9-15.8,74.9-23.8c29.7-9.5,59.5-18.9,90.7-28.8c-5-6.6-8.7-9.7-10-13.5
		c-9.9-29.9-20.9-59.7-28.7-90.2c-10.2-40.3-18-81.3-26.5-122c-6.6-31.5-27.8-60.8-14.7-91.5c7.4-3.7,12.2-6.7,17.5-8.6
		c9-3.1,18.6-8.5,27.5-7.5c17.5,1.8,34.6,7.2,51.8,11.3c42.7,10.1,85.4,20.4,125.5,30c6.9-22.5,10.9-42.8,19.4-60.8
		c8.9-18.7,22.3-35.2,36.4-56.7c-48.7-29.4-97.1-56.9-143.7-87.3c-47.7-31.1-96.2-59.8-151.9-77c0,5.5,0.4,10.7-0.1,15.9
		c-5.7,67.1-9.6,134-4.8,201.5c2,28.2-3.9,57.1-7.4,85.5c-2.7,22-19.3,26.3-37.7,25c-28.9-2.1-57.6-5.2-86.4-8.1
		c-13.4-1.4-22.1-7.7-22.9-22.7c-0.9-16.4-3.7-32.7-4-49c-0.6-43.9-0.6-87.9-0.3-131.8c0.1-17.4,1.7-34.8,2.7-52.8
		c-43-2.6-84.6,24.6-126-13.7c3.6,61.9,7.1,116.4,10,171c1.9,35.7,6.5,71.8,3.3,107.1c-3.1,33.6-9.7,37.6-40.2,39.7
		c-24.6,1.6-49.1,5.9-73.7,7.7c-28.2,2-59.8-2.1-74.2-25c-19.3-30.6-33.8-66.9-40.1-102.5c-12.8-72.7-19.8-146.6-27-220.2
		c-3.5-35.6-9.8-42.5-46-33.1c-11,2.9-22.1,7.5-31.8,13.5c-23.7,14.7-50,27.5-69,47.1c-19.1,19.6-34.4,45-44.8,70.6
		c-24.7,61.2-62.6,117.8-62.3,188.1c0.2,42.1-6.2,84.3-10.4,126.3c-1.5,15,3.5,22.6,18.7,23.9c36.5,3.2,72.8,7.6,109.4,9.9
		c11.3,0.7,19.5-4.9,21.4-19.7c2.3-18,9.9-35.2,14.4-53c4.8-19.1,9.8-38.3,12.6-57.8c7.9-53.4,14.1-107,22.5-160.4
		c1.6-10.4,8.1-20.1,24.2-13.7c18.6,7.4,22.7,20.7,20.5,37.5c-4.4,34.1-8.5,68.3-15.3,101.9c-12.1,59.8-26,119.3-39.9,178.8
		c-1.6,7.1-6.8,16.8-12.6,18.8c-21.5,7.3-18.2,22.5-15.7,38.6C225.3,1781.9,220.2,1808.7,192.5,1834.5z M571.4,1217.2
		c5.8,0.3,11.2-0.9,14.8,1.1c28.2,14.9,56.2,11.1,84.5,0.8c11.6-4.2,23.6-9.7,35.5-10.1c35.7-1.2,56.5-16.3,63.6-48.9
		c3.1-14.1,1.6-29.6,6.3-43c15.2-43,9-87.4,2.1-129.1c-6.5-38.9-28-75.6-45-112.3c-8.6-18.6-21.6-35.2-33-52.4
		c-4.2-6.3-10.6-11.1-14.3-17.6c-17.3-29.6-39.7-52.4-73.8-61C588.9,784.1,553.9,1139.5,571.4,1217.2z M263.4,1892.1
		c10.9,46.1,20.7,91.8,32.5,136.9c9.7,37.2,21.3,73.9,33.1,110.5c6.1,19.2,20.6,30.1,40.7,32.3c8.5,0.9,17.2-0.4,25.8-0.5
		c36.3-0.2,50.3-12.6,53.3-48.1c4.3-50.9,8.8-101.7,12.3-152.7c1.4-20.5,0.2-41.1,0.2-58.7C392.6,1905,328.1,1898.5,263.4,1892.1z
		 M641.1,1898c10.9,49.7,20.1,99.5,33.2,148.2c8.1,30.2,21.6,59.2,34.4,88c2.7,6.1,14,13.4,19.9,12.3c17.6-3.4,34.2-12.1,51.7-16.1
		c17.9-4,19.2-15.5,18.3-29.8c-0.2-3.9,1-7.9,2-11.8c16.9-64.8,7.3-130.3,4.8-195.6c-0.4-10.2-3.7-20.1-19.7-15
		c-18.8,6.1-38.4,10.6-58,13C698.7,1894.8,669.4,1895.9,641.1,1898z M176.5,1724.3c-31.7-2.3-60.6-2.4-88.7-7.1
		c-29.2-4.9-46.9,8.4-43.1,37.8c1.6,12.2,1.5,31.7,8.3,34.9c23.3,11.2,49,19.5,74.6,23.7c25.2,4.1,40.1-9.1,45.2-35.7
		C176,1761,175.3,1743.2,176.5,1724.3z M1238.6,1569.4c-5.5-5.2-6.6-7.1-8.3-7.7c-25.6-10.3-50.5-19-60.4-51
		c-2.8-9-4.6-13.2-0.3-20.9c20.4-36.9,40.5-73.9,63.4-115.7c-13.7,5.2-23.7,6.5-30.3,11.9c-23.1,19-42.4,41.5-52.8,70
		c-7.6,20.9-22.2,43.2,5.4,61.7c5.3,3.6,11,8.8,13.1,14.5C1179.8,1563.9,1206.5,1566.3,1238.6,1569.4z M1386.1,1197.6
		c-12.9,11-24.6,20.6-35.8,30.8c-4.4,4-11.5,10.8-10.5,13.8c2.3,6.2,8.9,11.1,14.3,15.9c2.1,1.9,6,1.9,8.3,3.8
		c13.8,11,27.3,22.2,42.9,35c6-34.3,27.9-67.2-14-90.4C1389.4,1205.3,1388.7,1202,1386.1,1197.6z M1283.1,1547
		c26-15.3,38.5-26.8,56.7-93.7C1320.9,1484.6,1302,1515.8,1283.1,1547z"/>
	<path class="st3" d="M192.5,1834.5c27.7-25.8,32.8-52.6,28.2-82.1c-2.5-16.1-5.8-31.3,15.7-38.6c5.8-2,10.9-11.7,12.6-18.8
		c13.9-59.5,27.7-119,39.9-178.8c6.8-33.6,10.8-67.8,15.3-101.9c2.2-16.8-1.9-30.1-20.5-37.5c-16.1-6.4-22.6,3.3-24.2,13.7
		c-8.4,53.3-14.6,107-22.5,160.4c-2.9,19.5-7.8,38.7-12.6,57.8c-4.5,17.8-12.1,35-14.4,53c-1.9,14.8-10.1,20.4-21.4,19.7
		c-36.5-2.3-72.9-6.6-109.4-9.9c-15.2-1.4-20.2-8.9-18.7-23.9c4.2-42.1,10.6-84.2,10.4-126.3c-0.3-70.3,37.5-127,62.3-188.1
		c10.3-25.6,25.7-51,44.8-70.6c19-19.6,45.3-32.4,69-47.1c9.7-6,20.7-10.7,31.8-13.5c36.2-9.4,42.5-2.5,46,33.1
		c7.2,73.6,14.2,147.4,27,220.2c6.3,35.6,20.8,71.9,40.1,102.5c14.4,22.9,46,27,74.2,25c24.6-1.8,49.1-6,73.7-7.7
		c30.5-2,37.1-6.1,40.2-39.7c3.3-35.3-1.4-71.4-3.3-107.1c-2.9-54.6-6.3-109.1-10-171c41.4,38.3,83,11.1,126,13.7
		c-1,18.1-2.5,35.5-2.7,52.8c-0.3,43.9-0.4,87.9,0.3,131.8c0.2,16.4,3.1,32.6,4,49c0.8,15,9.5,21.3,22.9,22.7
		c28.8,3,57.6,6,86.4,8.1c18.5,1.4,35-3,37.7-25c3.5-28.4,9.4-57.3,7.4-85.5c-4.8-67.5-0.9-134.4,4.8-201.5
		c0.4-5.2,0.1-10.4,0.1-15.9c55.7,17.2,104.2,45.9,151.9,77c46.6,30.4,95.1,57.9,143.7,87.3c-14.1,21.5-27.5,38-36.4,56.7
		c-8.6,18.1-12.5,38.3-19.4,60.8c-40.2-9.6-82.8-19.8-125.5-30c-17.2-4.1-34.3-9.4-51.8-11.3c-8.8-0.9-18.4,4.4-27.5,7.5
		c-5.3,1.8-10.2,4.9-17.5,8.6c-13.1,30.7,8.1,60,14.7,91.5c8.5,40.7,16.3,81.7,26.5,122c7.8,30.5,18.7,60.2,28.7,90.2
		c1.3,3.9,5,6.9,10,13.5c-31.2,9.9-61,19.3-90.7,28.8c-25,8-49.5,17.5-74.9,23.8c-21.1,5.2-43.1,7.1-64.8,9.9
		c-41.7,5.3-83.4,11.7-125.3,14.7c-34.1,2.5-68.6,0.9-102.9,1.1c-17.6,0.1-35.2,0.5-52.7,0.1c-32.9-0.6-66,0.5-98.6-3.1
		C292.8,1851.5,245,1842.6,192.5,1834.5z"/>
	<path class="st3" d="M571.4,1217.2c-17.5-77.6,17.5-433.1,40.7-472.4c34.1,8.6,56.5,31.4,73.8,61c3.8,6.4,10.2,11.3,14.3,17.6
		c11.4,17.2,24.4,33.8,33,52.4c17,36.7,38.5,73.4,45,112.3c7,41.6,13.1,86.1-2.1,129.1c-4.7,13.4-3.2,28.9-6.3,43
		c-7.1,32.6-27.9,47.7-63.6,48.9c-11.9,0.4-23.9,5.9-35.5,10.1c-28.4,10.3-56.3,14.1-84.5-0.8
		C582.5,1216.3,577.2,1217.5,571.4,1217.2z"/>
	<path class="st3" d="M263.4,1892.1c64.7,6.5,129.1,12.9,197.8,19.8c0,17.6,1.2,38.3-0.2,58.7c-3.5,50.9-8,101.8-12.3,152.7
		c-3,35.5-17,47.8-53.3,48.1c-8.6,0.1-17.3,1.4-25.8,0.5c-20-2.2-34.5-13.2-40.7-32.3c-11.7-36.6-23.3-73.3-33.1-110.5
		C284.1,1983.8,274.3,1938.1,263.4,1892.1z"/>
	<path class="st3" d="M641.1,1898c28.3-2.1,57.5-3.2,86.5-6.7c19.6-2.4,39.2-6.9,58-13c16-5.2,19.3,4.8,19.7,15
		c2.6,65.3,12.2,130.8-4.8,195.6c-1,3.8-2.2,7.9-2,11.8c0.9,14.4-0.4,25.8-18.3,29.8c-17.6,3.9-34.1,12.7-51.7,16.1
		c-5.8,1.1-17.1-6.1-19.9-12.3c-12.8-28.8-26.2-57.7-34.4-88C661.2,1997.5,652,1947.7,641.1,1898z"/>
	<path class="st3" d="M1348.7,1344.9c6.3-4.7,16.6-8.3,18.4-14.4c6.5-22,19-22.8,38.4-12.6c-26.1,41.2-51.6,82.9-78.7,123.6
		c-20,30.1-42.5,58.5-62.8,88.4c-7.8,11.5-17,12.3-28.3,9.4c-10.1-2.6-20.3-5.2-30.1-8.7c-13.6-4.8-15.9-16.4-11.5-27.6
		c9.4-23.8,19.9-47.1,31.4-70c18.3-36.4,37.8-72.2,56.8-108.3c11.4-21.6,22.8-43.1,34.7-65.8c9.4,8.9,14,17,7.2,31
		c-15.6,31.9-31.1,64.1-43,97.4c-9.9,28.1-27.7,52.1-36.6,80.3c-1.3,4.2-0.2,9.1-0.2,13.7c1.6,0.2,3.2,0.5,4.8,0.7
		c31.8-65.1,63.6-130.2,96.4-197.5c5.5,4.1,12.8,9.5,18.7,13.8c-5.3,16.4-10.3,31.7-15.2,46.9c-5.4,5.6-12.1,10.3-16.1,16.8
		c-14.9,24.1-30,48.2-42.8,73.4c-7.8,15.3-11.4,32.7-16.9,49.2c2.6,1.1,5.1,2.1,7.7,3.2c4.6-8.1,9.3-16.1,13.7-24.3
		c17.6-32.8,34.8-65.8,52.7-98.3C1351.5,1358,1357.5,1352.2,1348.7,1344.9z"/>
	<path class="st3" d="M176.5,1724.3c-1.2,18.9-0.4,36.6-3.7,53.6c-5.1,26.6-20.1,39.8-45.2,35.7c-25.6-4.2-51.3-12.5-74.6-23.7
		c-6.9-3.3-6.8-22.7-8.3-34.9c-3.8-29.3,14-42.6,43.1-37.8C115.8,1721.9,144.7,1722,176.5,1724.3z"/>
	<path class="st3" d="M1238.6,1569.4c-32.2-3.1-58.8-5.5-70.3-37.2c-2.1-5.7-7.8-10.9-13.1-14.5c-27.6-18.5-13-40.8-5.4-61.7
		c10.4-28.5,29.7-51,52.8-70c6.6-5.4,16.5-6.7,30.3-11.9c-22.8,41.8-43,78.8-63.4,115.7c-4.2,7.6-2.5,11.8,0.3,20.9
		c10,32,34.8,40.7,60.4,51C1232,1562.3,1233.2,1564.2,1238.6,1569.4z"/>
	<path class="st3" d="M1386.1,1197.6c2.5,4.5,3.3,7.8,5.2,8.9c41.9,23.2,20,56.2,14,90.4c-15.6-12.8-29.2-24.1-42.9-35
		c-2.3-1.8-6.2-1.8-8.3-3.8c-5.3-4.9-12-9.7-14.3-15.9c-1.1-3,6.1-9.8,10.5-13.8C1361.5,1218.1,1373.2,1208.6,1386.1,1197.6z"/>
	<path class="st3" d="M1283.1,1547c18.9-31.2,37.8-62.5,56.7-93.7C1321.6,1520.3,1309.1,1531.7,1283.1,1547z"/>
	<path d="M1348.7,1344.9c8.8,7.3,2.8,13.2-1.1,20.3c-17.9,32.6-35.1,65.6-52.7,98.3c-4.4,8.2-9.1,16.2-13.7,24.3
		c-2.6-1.1-5.1-2.1-7.7-3.2c5.5-16.5,9.1-33.9,16.9-49.2c12.8-25.2,27.9-49.3,42.8-73.4c4-6.4,10.7-11.2,16.1-16.8
		C1349.2,1345.2,1348.7,1344.9,1348.7,1344.9z"/>
</g>
</svg>
