<?xml version="1.0" encoding="utf-8"?>
<!-- Generator: Adobe Illustrator 23.1.0, SVG Export Plug-In . SVG Version: 6.00 Build 0)  -->
<svg version="1.1" id="Calque_1" xmlns="http://www.w3.org/2000/svg" xmlns:xlink="http://www.w3.org/1999/xlink" x="0px" y="0px"
	 viewBox="0 0 1039 1104" style="enable-background:new 0 0 1039 1104;" xml:space="preserve">
<style type="text/css">
	.st0{fill:#FFFFFF;}
</style>
<path class="st0" d="M417.24,875.72c2.08,8.41,3.48,15.24,5.46,21.89c4.48,15.09,9.57,30,13.81,45.15
	c10.45,37.38,19.1,75.34,31.26,112.15c9.23,27.94,26.52,34.61,55.45,27.97c14.85-3.41,30.24-4.56,44.99-8.29
	c7.23-1.83,15.31-5.73,19.97-11.25c16.79-19.88,12.6-46.09,15.04-68.93c4.37-40.85,1.01-82.51,1.51-123.82
	c0.12-9.63-1.12-23.17,11.29-25.05c10.45-1.59,18.97-5.84,28.04-9.8c17.85-7.8,35.73-15.56,53.44-23.66
	c11.88-5.44,13.16-15.92,11.38-27.17c-0.86-5.41-2.5-10.75-4.27-15.96c-8.45-24.84-18.31-49.27-25.33-74.5
	c-9.64-34.66-17.18-69.9-25.78-105.52c4.19,0.89,8.65,1.81,13.09,2.77c24.9,5.41,49.59,12.54,74.78,15.64
	c17.06,2.1,32.67,4.87,46.11,15.99c5.36,4.44,11.41,8.08,16.53,12.76c4.23,3.87,6.7,10.66,11.45,12.77
	c13.19,5.85,21.51,20.77,38.05,20.15c6.82-0.25,13.8-0.69,20.48,0.38c20.22,3.25,39.01,0.34,56.49-10.63
	c29.8-18.69,56.4-40.28,52.76-79.96c-1.48-16.11,12.02-37.48-13.41-46.27c4.45-6.91,8.25-12.29,11.53-17.98
	c15.22-26.42,36.42-50.04,36.42-83.43c0-9.48,4.43-18.93,6.56-28.46c4.63-20.67,7.27-41.51,0.8-62.22
	c-1.99-6.37-5.93-10.64-13.41-4.23c-15.97,13.7-32.16,27.16-48.69,40.18c-9.76,7.69-23.52,12.24-29.9,21.89
	c-16.72,25.3-30.38,52.63-44.95,78.59c-12.5-4.35-24.04-7.12-36.5,0.94c-4.18,2.71-12.85,2.89-17.11,0.32
	c-24.17-14.57-46.97-31.49-71.48-45.42c-41.3-23.47-81.09-49.64-124.89-68.79c-20.26-8.86-34.29-22.36-32.02-49.38
	c3.47-41.3,0.97-82.85-8.84-123.52c-3.25-13.47-7.47-26.72-10.23-40.27c-9.91-48.61-22.73-95.86-64.41-128.14
	c-11.07-8.57-23.75-16.76-37-20.46C460.21-4.93,439.33,7.47,421.8,23c-10.05-5.4-19.18-11.63-29.23-15.42
	c-17.82-6.73-36.71-2.68-51.64,5.72c-24.59,13.84-39.56,38.6-56.05,61.03c-6.07,8.26-13.71,16-17.42,25.27
	c-12.89,32.16-24.58,64.75-26.12,100.07c-0.55,12.6-3.84,25.05-5.26,37.64c-3.87,34.55-7.41,69.13-11.29,105.69
	c-4.67,0.59-11.35,0.2-17.06,2.38c-24.15,9.21-48.94,17.43-71.72,29.37c-23.3,12.22-44.57,28.41-56.78,53.19
	C67.85,451.01,56.22,474,45.82,497.52c-8.66,19.58-17.07,39.47-23.18,59.94c-14.03,47.02-11,96.01-13.9,144.25
	c-0.49,8.19,4.47,16.7,7.2,26.07c0.2-0.15-2.4,1.52-4.74,3.5c-8.48,7.19-12.09,16.08-11.09,27.45c1.77,20.19-2.19,42.34,12.83,58.51
	c7.95,8.56,20.76,12.81,31.71,18.33c22.12,11.15,46.14,9.17,69.06,11.66c4.96,3.51,10.47,5.97,15.9,8.62
	c6.37,3.11,16.35,4.9,18.35,9.85c8.32,20.59,15.12,41.92,20.71,63.44c4.21,16.19,3.86,33.66,8.82,49.54
	c11.12,35.57,23.82,70.68,36.83,105.62c5.33,14.32,24.14,22.59,39.47,19.56c23.38-4.64,48.03-0.48,70.53-13.06
	c8.83-4.94,21.72-14.31,22.23-23.63c1.44-26.4,4.08-52.73,5.63-79.12c1.78-30.38,2.94-60.79,4.29-91.19
	c0.22-4.99,0.03-10.01,0.03-15.41C377.78,879.44,397.24,877.61,417.24,875.72z"/>
<path d="M417.24,875.72c-20,1.89-39.46,3.72-60.73,5.73c0,5.4,0.19,10.41-0.03,15.41c-1.35,30.4-2.51,60.82-4.29,91.19
	c-1.55,26.39-4.19,52.72-5.63,79.12c-0.51,9.32-13.4,18.69-22.23,23.63c-22.5,12.59-47.15,8.43-70.53,13.06
	c-15.33,3.04-34.13-5.23-39.47-19.56c-13.01-34.94-25.72-70.05-36.83-105.62c-4.96-15.88-4.61-33.35-8.82-49.54
	c-5.59-21.52-12.39-42.85-20.71-63.44c-2-4.95-11.98-6.74-18.35-9.85c-5.43-2.65-10.94-5.11-15.9-8.62
	c-22.92-2.49-46.94-0.52-69.06-11.66c-10.95-5.52-23.76-9.78-31.71-18.33c-15.02-16.17-11.06-38.31-12.83-58.51
	c-1-11.38,2.61-20.27,11.09-27.45c2.34-1.98,4.95-3.65,4.74-3.5c-2.73-9.36-7.69-17.88-7.2-26.07c2.9-48.25-0.13-97.23,13.9-144.25
	c6.11-20.47,14.52-40.36,23.18-59.94c10.4-23.52,22.03-46.51,33.41-69.59c12.22-24.78,33.49-40.98,56.78-53.19
	c22.79-11.95,47.57-20.16,71.72-29.37c5.71-2.18,12.39-1.79,17.06-2.38c3.88-36.56,7.42-71.14,11.29-105.69
	c1.41-12.59,4.71-25.04,5.26-37.64c1.54-35.31,13.24-67.9,26.12-100.07c3.71-9.26,11.35-17,17.42-25.27
	c16.48-22.43,31.45-47.19,56.05-61.03c14.93-8.4,33.82-12.44,51.64-5.72C402.63,11.37,411.76,17.6,421.8,23
	c17.52-15.53,38.41-27.93,63.91-20.82c13.24,3.69,25.93,11.88,37,20.46c41.68,32.28,54.5,79.54,64.41,128.14
	c2.76,13.56,6.99,26.81,10.23,40.27c9.8,40.67,12.31,82.22,8.84,123.52c-2.27,27.02,11.75,40.52,32.02,49.38
	c43.8,19.15,83.58,45.32,124.89,68.79c24.51,13.93,47.31,30.85,71.48,45.42c4.26,2.57,12.93,2.38,17.11-0.32
	c12.45-8.06,24-5.29,36.5-0.94c14.57-25.96,28.22-53.29,44.95-78.59c6.38-9.65,20.15-14.2,29.9-21.89
	c16.52-13.02,32.72-26.48,48.69-40.18c7.48-6.41,11.42-2.14,13.41,4.23c6.47,20.71,3.83,41.55-0.8,62.22
	c-2.13,9.53-6.56,18.98-6.56,28.46c0,33.39-21.21,57.01-36.42,83.43c-3.27,5.68-7.07,11.07-11.53,17.98
	c25.43,8.79,11.93,30.16,13.41,46.27c3.64,39.68-22.96,61.27-52.76,79.96c-17.48,10.97-36.27,13.88-56.49,10.63
	c-6.68-1.07-13.66-0.64-20.48-0.38c-16.55,0.61-24.86-14.3-38.05-20.15c-4.75-2.11-7.22-8.91-11.45-12.77
	c-5.12-4.68-11.17-8.32-16.53-12.76c-13.44-11.13-29.05-13.89-46.11-15.99c-25.19-3.1-49.88-10.24-74.78-15.64
	c-4.44-0.96-8.89-1.89-13.09-2.77c8.59,35.63,16.13,70.87,25.78,105.52c7.02,25.23,16.88,49.67,25.33,74.5
	c1.77,5.21,3.41,10.55,4.27,15.96c1.78,11.24,0.5,21.73-11.38,27.17c-17.71,8.1-35.59,15.86-53.44,23.66
	c-9.07,3.96-17.59,8.21-28.04,9.8c-12.41,1.89-11.17,15.42-11.29,25.05c-0.5,41.31,2.86,82.96-1.51,123.82
	c-2.44,22.84,1.75,49.05-15.04,68.93c-4.66,5.52-12.75,9.43-19.97,11.25c-14.75,3.73-30.14,4.87-44.99,8.29
	c-28.93,6.65-46.21-0.03-55.45-27.97c-12.16-36.81-20.81-74.77-31.26-112.15c-4.23-15.15-9.33-30.06-13.81-45.15
	C420.72,890.96,419.32,884.13,417.24,875.72z M958.29,481.53l0.34,0.22c3.52-10.83,7.05-21.66,10.85-33.32
	c-4.16-3.07-9.38-6.92-13.27-9.8c-23.34,47.8-45.93,94.07-68.53,140.35c-1.15-0.16-2.3-0.32-3.44-0.47c0-3.26-0.81-6.78,0.13-9.74
	c6.36-20.02,18.96-37.13,26.01-57.08c8.38-23.72,19.45-46.58,30.52-69.24c4.85-9.93,1.62-15.65-5.09-22
	c-8.49,16.09-16.58,31.41-24.66,46.75c-13.51,25.62-27.36,51.06-40.38,76.92c-8.16,16.21-15.63,32.84-22.3,49.71
	c-3.15,7.96-1.45,16.21,8.18,19.64c6.99,2.49,14.21,4.35,21.4,6.2c8.03,2.07,14.58,1.49,20.12-6.68
	c14.4-21.26,30.4-41.44,44.6-62.82c19.2-28.91,37.33-58.53,55.89-87.81c-13.78-7.26-22.65-6.65-27.3,8.94
	C970.04,475.64,962.8,478.18,958.29,481.53z M136.7,829.45c37.31,5.75,71.32,12.08,105.6,15.9c23.16,2.58,46.71,1.75,70.09,2.2
	c12.49,0.24,24.98-0.03,37.47-0.1c24.37-0.15,48.84,0.98,73.1-0.81c29.76-2.2,59.36-6.71,89-10.47c15.4-1.96,31.02-3.29,46.02-7.02
	c18.02-4.47,35.47-11.25,53.2-16.92c21.13-6.77,42.3-13.43,64.45-20.45c-3.54-4.69-6.17-6.86-7.09-9.6
	c-7.07-21.27-14.87-42.39-20.38-64.07c-7.28-28.64-12.79-57.74-18.85-86.69c-4.68-22.35-19.75-43.21-10.45-65
	c5.23-2.61,8.68-4.79,12.44-6.1c6.42-2.23,13.25-6.01,19.51-5.36c12.41,1.3,24.57,5.1,36.8,8c30.34,7.2,60.66,14.48,89.19,21.3
	c4.93-15.99,7.71-30.4,13.8-43.22c6.3-13.26,15.82-24.98,25.83-40.27c-34.57-20.88-69.02-40.41-102.12-62.03
	c-33.88-22.12-68.34-42.52-107.9-54.73c0,3.9,0.27,7.63-0.04,11.31c-4.03,47.65-6.85,95.22-3.42,143.17
	c1.44,20.04-2.76,40.57-5.26,60.78c-1.93,15.6-13.69,18.72-26.82,17.74c-20.5-1.52-40.96-3.66-61.41-5.76
	c-9.54-0.98-15.73-5.48-16.3-16.12c-0.61-11.63-2.65-23.2-2.82-34.82c-0.45-31.21-0.42-62.43-0.19-93.64
	c0.09-12.35,1.21-24.7,1.89-37.55c-30.52-1.84-60.11,17.47-89.5-9.76c2.59,43.98,5.06,82.73,7.1,121.51
	c1.34,25.37,4.64,51.02,2.32,76.1c-2.21,23.85-6.89,26.75-28.58,28.19c-17.5,1.16-34.87,4.17-52.37,5.44
	c-20.01,1.45-42.46-1.5-52.72-17.76c-13.73-21.74-24.03-47.53-28.48-72.86c-9.09-51.68-14.07-104.15-19.17-156.45
	c-2.47-25.3-6.98-30.2-32.7-23.55c-7.85,2.03-15.7,5.34-22.59,9.62c-16.86,10.46-35.5,19.54-49.03,33.46
	c-13.56,13.95-24.45,32-31.8,50.17c-17.58,43.48-44.5,83.73-44.26,133.69c0.14,29.91-4.41,59.87-7.41,89.76
	c-1.07,10.67,2.5,16.04,13.28,17c25.91,2.3,51.76,5.38,77.71,7.01c8.03,0.5,13.85-3.48,15.19-14c1.63-12.78,7.07-25.04,10.25-37.68
	c3.42-13.59,6.93-27.25,8.98-41.08c5.6-37.94,10.03-76.06,15.97-113.95c1.16-7.42,5.76-14.27,17.2-9.73
	c13.22,5.25,16.13,14.73,14.57,26.65c-3.15,24.21-6.01,48.53-10.85,72.42c-8.63,42.52-18.46,84.8-28.33,127.05
	c-1.17,5.02-4.85,11.94-8.95,13.34c-15.29,5.2-12.95,16-11.15,27.44C160.02,792.09,156.39,811.1,136.7,829.45z M405.93,390.79
	c4.12,0.23,7.93-0.63,10.55,0.75c20.02,10.58,39.9,7.89,60.06,0.59c8.24-2.98,16.76-6.88,25.25-7.15
	c25.39-0.82,40.12-11.59,45.19-34.73c2.2-10.04,1.12-21.03,4.48-30.54c10.77-30.54,6.41-62.11,1.46-91.7
	c-4.63-27.65-19.91-53.73-31.98-79.82c-6.11-13.2-15.33-25-23.45-37.22c-2.96-4.45-7.51-7.91-10.19-12.49
	C475,77.46,459.12,61.24,434.85,55.14C418.4,83.06,393.5,335.63,405.93,390.79z M187.11,870.34c7.71,32.74,14.71,65.2,23.11,97.29
	c6.92,26.42,15.15,52.51,23.49,78.52c4.36,13.61,14.65,21.39,28.89,22.96c6.02,0.66,12.21-0.28,18.32-0.32
	c25.79-0.16,35.71-8.96,37.85-34.16c3.07-36.14,6.27-72.28,8.72-108.47c0.99-14.54,0.16-29.2,0.16-41.73
	C278.88,879.54,233.09,874.95,187.11,870.34z M455.51,874.55c7.75,35.33,14.25,70.71,23.57,105.33
	c5.79,21.49,15.32,42.08,24.43,62.51c1.94,4.36,9.98,9.53,14.12,8.73c12.52-2.42,24.27-8.62,36.76-11.42
	c12.73-2.86,13.64-10.99,13.02-21.21c-0.17-2.75,0.71-5.62,1.42-8.35c12.04-46.05,5.22-92.6,3.38-138.97
	c-0.29-7.22-2.63-14.3-14.02-10.63c-13.37,4.31-27.31,7.52-41.24,9.23C496.39,872.29,475.62,873.07,455.51,874.55z M125.34,751.17
	c-22.55-1.65-43.08-1.69-63.06-5.03c-20.74-3.46-33.34,6-30.66,26.83c1.12,8.69,1.06,22.49,5.93,24.83
	c16.59,7.99,34.81,13.88,53.02,16.84c17.9,2.9,28.52-6.5,32.15-25.39C125.03,777.19,124.52,764.6,125.34,751.17z M880.07,641.07
	c-3.89-3.69-4.71-5.02-5.87-5.48c-18.22-7.3-35.86-13.5-42.94-36.24c-2-6.43-3.24-9.4-0.24-14.83
	c14.51-26.21,28.81-52.54,45.04-82.21c-9.77,3.69-16.85,4.61-21.52,8.45c-16.4,13.48-30.13,29.5-37.52,49.75
	c-5.42,14.86-15.79,30.67,3.82,43.82c3.77,2.53,7.84,6.24,9.31,10.3C838.29,637.16,857.21,638.87,880.07,641.07z M984.89,376.86
	c-9.17,7.82-17.51,14.61-25.46,21.85c-3.13,2.85-8.2,7.68-7.43,9.82c1.6,4.44,6.35,7.86,10.15,11.33c1.52,1.38,4.27,1.36,5.91,2.67
	c9.78,7.79,19.39,15.79,30.5,24.89c4.25-24.34,19.81-47.78-9.98-64.26C987.21,382.39,986.7,380.05,984.89,376.86z M911.67,625.19
	c18.44-10.9,27.34-19.02,40.26-66.59C938.52,580.79,925.1,602.99,911.67,625.19z"/>
<path class="st0" d="M136.7,829.45c19.69-18.36,23.32-37.36,20.03-58.31c-1.8-11.44-4.13-22.24,11.15-27.44
	c4.1-1.39,7.77-8.32,8.95-13.34c9.87-42.25,19.7-84.53,28.33-127.05c4.85-23.89,7.7-48.21,10.85-72.42
	c1.55-11.92-1.35-21.4-14.57-26.65c-11.44-4.54-16.04,2.31-17.2,9.73c-5.95,37.88-10.37,76.01-15.97,113.95
	c-2.04,13.84-5.56,27.49-8.98,41.08c-3.18,12.64-8.62,24.9-10.25,37.68c-1.34,10.52-7.16,14.51-15.19,14
	c-25.95-1.63-51.8-4.71-77.71-7.01c-10.78-0.96-14.35-6.33-13.28-17c3-29.88,7.55-59.85,7.41-89.76
	c-0.23-49.96,26.68-90.21,44.26-133.69c7.34-18.16,18.24-36.22,31.8-50.17c13.52-13.92,32.17-23,49.03-33.46
	c6.89-4.27,14.73-7.59,22.59-9.62c25.72-6.65,30.23-1.75,32.7,23.55c5.1,52.3,10.08,104.77,19.17,156.45
	c4.46,25.33,14.75,51.12,28.48,72.86c10.26,16.25,32.71,19.21,52.72,17.76c17.5-1.27,34.87-4.28,52.37-5.44
	c21.69-1.44,26.37-4.34,28.58-28.19c2.32-25.08-0.99-50.73-2.32-76.1c-2.04-38.77-4.51-77.52-7.1-121.51
	c29.39,27.23,58.99,7.92,89.5,9.76c-0.68,12.85-1.8,25.2-1.89,37.55c-0.23,31.21-0.26,62.43,0.19,93.64
	c0.17,11.62,2.2,23.19,2.82,34.82c0.56,10.64,6.76,15.14,16.3,16.12c20.45,2.11,40.91,4.24,61.41,5.76
	c13.13,0.97,24.9-2.14,26.82-17.74c2.5-20.2,6.7-40.74,5.26-60.78c-3.44-47.96-0.62-95.52,3.42-143.17
	c0.31-3.68,0.04-7.41,0.04-11.31c39.56,12.21,74.03,32.61,107.9,54.73c33.1,21.61,67.56,41.15,102.12,62.03
	c-10.01,15.29-19.54,27.01-25.83,40.27c-6.09,12.83-8.87,27.23-13.8,43.22c-28.53-6.82-58.85-14.1-89.19-21.3
	c-12.23-2.9-24.39-6.7-36.8-8c-6.26-0.65-13.09,3.13-19.51,5.36c-3.76,1.31-7.22,3.49-12.44,6.1c-9.3,21.8,5.77,42.66,10.45,65
	c6.06,28.95,11.57,58.04,18.85,86.69c5.51,21.69,13.31,42.8,20.38,64.07c0.91,2.74,3.55,4.91,7.09,9.6
	c-22.15,7.02-43.31,13.68-64.45,20.45c-17.73,5.68-35.18,12.45-53.2,16.92c-15,3.72-30.62,5.06-46.02,7.02
	c-29.64,3.77-59.24,8.28-89,10.47c-24.25,1.79-48.72,0.66-73.1,0.81c-12.49,0.07-24.99,0.34-37.47,0.1
	c-23.38-0.45-46.93,0.38-70.09-2.2C208.01,841.53,174.01,835.2,136.7,829.45z"/>
<path class="st0" d="M405.93,390.79C393.5,335.63,418.4,83.06,434.85,55.14c24.26,6.1,40.15,22.32,52.43,43.35
	c2.68,4.58,7.22,8.03,10.19,12.49c8.13,12.22,17.35,24.01,23.45,37.22c12.07,26.09,27.36,52.17,31.98,79.82
	c4.95,29.59,9.32,61.16-1.46,91.7c-3.36,9.52-2.28,20.5-4.48,30.54c-5.07,23.14-19.8,33.9-45.19,34.73
	c-8.49,0.28-17.01,4.17-25.25,7.15c-20.16,7.3-40.04,10-60.06-0.59C413.86,390.16,410.05,391.02,405.93,390.79z"/>
<path class="st0" d="M187.11,870.34c45.98,4.61,91.76,9.2,140.54,14.09c0,12.53,0.83,27.2-0.16,41.73
	c-2.46,36.19-5.66,72.32-8.72,108.47c-2.14,25.21-12.05,34-37.85,34.16c-6.11,0.04-12.3,0.98-18.32,0.32
	c-14.24-1.57-24.53-9.35-28.89-22.96c-8.34-26.02-16.57-52.11-23.49-78.52C201.82,935.54,194.82,903.08,187.11,870.34z"/>
<path class="st0" d="M455.51,874.55c20.11-1.48,40.88-2.26,61.43-4.79c13.93-1.71,27.88-4.92,41.24-9.23
	c11.39-3.67,13.74,3.41,14.02,10.63c1.84,46.37,8.66,92.92-3.38,138.97c-0.71,2.73-1.59,5.6-1.42,8.35
	c0.62,10.22-0.29,18.35-13.02,21.21c-12.48,2.8-24.24,9-36.76,11.42c-4.14,0.8-12.17-4.37-14.12-8.73
	c-9.11-20.43-18.64-41.01-24.43-62.51C469.76,945.26,463.26,909.88,455.51,874.55z"/>
<path class="st0" d="M958.29,481.53c4.51-3.36,11.76-5.9,13.05-10.21c4.65-15.6,13.52-16.21,27.3-8.94
	c-18.56,29.28-36.68,58.9-55.89,87.81c-14.2,21.38-30.2,41.56-44.6,62.82c-5.54,8.17-12.08,8.75-20.12,6.68
	c-7.19-1.85-14.42-3.71-21.4-6.2c-9.63-3.43-11.32-11.68-8.18-19.64c6.67-16.88,14.14-33.5,22.3-49.71
	c13.02-25.86,26.88-51.3,40.38-76.92c8.08-15.33,16.18-30.66,24.66-46.75c6.71,6.34,9.94,12.07,5.09,22
	c-11.07,22.66-22.13,45.52-30.52,69.24c-7.05,19.95-19.65,37.05-26.01,57.08c-0.94,2.96-0.13,6.48-0.13,9.74
	c1.15,0.16,2.3,0.32,3.44,0.47c22.59-46.27,45.19-92.55,68.53-140.35c3.9,2.88,9.12,6.73,13.27,9.8
	c-3.8,11.66-7.32,22.49-10.8,33.36c-3.83,3.97-8.6,7.34-11.43,11.92c-10.57,17.12-21.3,34.23-30.38,52.15
	c-5.52,10.89-8.11,23.26-12.02,34.96c1.82,0.75,3.64,1.5,5.45,2.25c3.26-5.74,6.63-11.42,9.75-17.24
	c12.49-23.29,24.73-46.72,37.46-69.88C960.29,490.89,964.53,486.73,958.29,481.53z"/>
<path class="st0" d="M125.34,751.17c-0.82,13.43-0.31,26.03-2.62,38.08c-3.62,18.89-14.25,28.29-32.15,25.39
	c-18.21-2.95-36.43-8.85-53.02-16.84c-4.87-2.35-4.82-16.15-5.93-24.83c-2.68-20.83,9.92-30.29,30.66-26.83
	C82.26,749.47,102.79,749.51,125.34,751.17z"/>
<path class="st0" d="M880.07,641.07c-22.86-2.19-41.78-3.91-49.93-26.44c-1.47-4.06-5.54-7.77-9.31-10.3
	c-19.61-13.16-9.24-28.96-3.82-43.82c7.39-20.25,21.13-36.27,37.52-49.75c4.67-3.84,11.75-4.76,21.52-8.45
	c-16.23,29.67-30.53,56-45.04,82.21c-3,5.43-1.77,8.4,0.24,14.83c7.08,22.73,24.72,28.93,42.94,36.24
	C875.36,636.05,876.18,637.38,880.07,641.07z"/>
<path class="st0" d="M984.89,376.86c1.81,3.19,2.32,5.53,3.7,6.29c29.78,16.49,14.23,39.92,9.98,64.26
	c-11.11-9.1-20.72-17.1-30.5-24.89c-1.64-1.31-4.39-1.28-5.91-2.67c-3.8-3.46-8.55-6.89-10.15-11.33c-0.77-2.14,4.3-6.98,7.43-9.82
	C967.38,391.48,975.72,384.68,984.89,376.86z"/>
<path class="st0" d="M911.67,625.19c13.42-22.2,26.84-44.39,40.26-66.59C939.01,606.16,930.12,614.29,911.67,625.19z"/>
<path d="M958.29,481.53c6.24,5.19,2.01,9.36-0.77,14.42c-12.73,23.16-24.97,46.58-37.46,69.88c-3.12,5.82-6.49,11.5-9.75,17.24
	c-1.82-0.75-3.64-1.5-5.45-2.25c3.91-11.7,6.5-24.07,12.02-34.96c9.08-17.92,19.81-35.03,30.38-52.15
	c2.82-4.57,7.59-7.95,11.43-11.92C958.63,481.75,958.29,481.53,958.29,481.53z"/>
</svg>
