<?xml version="1.0" encoding="utf-8"?>
<!-- Generator: Adobe Illustrator 23.1.0, SVG Export Plug-In . SVG Version: 6.00 Build 0)  -->
<svg version="1.1" xmlns="http://www.w3.org/2000/svg" xmlns:xlink="http://www.w3.org/1999/xlink" x="0px" y="0px"
	 viewBox="0 0 1373.4 2431.5" style="enable-background:new 0 0 1373.4 2431.5;" xml:space="preserve">
<style type="text/css">
	.st0{display:none;}
	.st1{display:inline;fill:#FFFFFF;}
	.st2{display:inline;}
	.st3{fill:#FFFFFF;}
</style>
<g id="Calque_1" class="st0">
	<path class="st1" d="M1057.2,1784.9c9.3,5.9,18.6,14.8,29.5,18.2c31.4,9.7,60.5-6.2,86.9-17.6c21.3-9.2,36.9-32.7,53.5-51.2
		c5.5-6.1,7.8-16.2,8.8-24.8c4.1-36.1-14.5-60.2-42.4-80.1c-6-4.3-12.9-16.5-10.8-21.4c6.4-14.6,1.3-26.6-2.1-40
		c-2.8-11.3-6.4-24.3-3.3-34.7c10.7-36-0.2-70.4-6.3-104.6c-7.7-43.1-20.6-85.3-30.8-128c-13.8-58-39.1-109-91.7-141
		c-40.5-24.7-82.6-46.6-121.1-68.2c2.2-29.7,7.9-57.2,5.5-84.1c-3.7-41.2-7.6-83.8-21.3-122.3c-12.2-34.1-14.7-71.4-47.1-101.4
		c-31.4-29-59.4-61-96.2-84.4c-40.3-25.6-79.7-41.5-129.4-25.9c-50.6,15.8-81.6,48.6-98.7,95.7c-14.4,39.6-20.4,80.1-18,123.6
		c3.4,61.6,2.9,122.7,36.2,177.7c1.7,2.8,1,7.2,1.2,8.6c-31.9,3.1-62.5,8.1-93.2,8.5c-62.4,1-119.6,21.7-175.7,44.7
		c-45.2,18.5-70,61.3-96,99.5c-28.6,42.2-25.4,91.6-18.2,140c3.5,23.5,8.8,46.7,13.2,70.1c3.8,20.2,4.9,41.3,11.6,60.5
		c15,42.4,35,82.5,71.3,109.6c-2.7,6.9-4.7,11.5-6.2,16.2c-9.4,28.5-19,57-27.7,85.7c-3.8,12.4-8.1,25.6-7.6,38.3
		c0.6,16.9,1.4,35.5,22.5,43.3c23.6,8.7,46.7,18.7,70,27.8c7.7,3,15.6,5.4,23.7,8.2c-3.7,4.3-8.2,7.1-8.4,10.2
		c-2.1,31.2-6.6,62.7-4.3,93.7c2.2,29.7,12.3,58.8,17.6,88.4c0.9,5.1-3,14.8-7.2,16.5c-22.5,9.5-45.4,18.4-68.8,25.1
		c-46.9,13.5-82.2,52.3-78.8,98.2c0.4,6.1-2.6,14.7-7.1,18.4c-32.5,27.1-55.4,60.5-70.4,99.7c-8.6,22.4-5.1,52.4,12.3,60.7
		c13.8,6.6,32.1,6,48.2,5c22.1-1.4,41.8-13.1,52.3-31.7c20.1-35.6,25.7-75.1,21.6-115.9c-2.2-21.7,10.3-36.2,31.8-38.8
		c34.4-4.1,67.8-12,97.6-30.6c26.6,44.6,54.7,56.9,105.9,46c35.4-7.5,70.8-15.2,106.1-23.3c18.6-4.2,38.5-25.7,38.9-42.9
		c1.4-59.1,2.9-118.3,2.8-177.5c0-33.5,0.7-35.5,33.6-33.8c1.2,0.1,2.4,1,2.4,1c3.4,11.3,7.4,21.6,9.6,32.3c9,43.6,17,87.4,26.3,131
		c5.2,24.5,11.3,48.9,18.9,72.8c3.6,11.5,8.9,26.8,17.9,31.1c13.3,6.4,31,7.6,46.1,5.5c39.7-5.6,80.9,5,119.5-11.1
		c23.9,10.6,42.1-7.7,62.7-13.2c19.7-5.2,33.7-30.9,31.8-51.2c-1.8-20.1-2.9-40.2-5.2-60.2c-7.5-66.7-15.4-133.3-23.5-202.7
		C1001.7,1819.4,1029.8,1802,1057.2,1784.9z"/>
	<path class="st1" d="M1221.5,8.2c-11.7-11.7-32.2-11.9-51.3,7.4c-15.8,15.9-34.1,23.5-55.5,26.8c-22,3.4-37.5,16.8-37.9,37.8
		c-0.6,28.7,2.8,57.5,4.7,86.2c1,15.6,1.2,28.4-17.4,37c-30.1,13.9-47.8,45.4-6.5,74.6c15.4,10.9,34.2,16,46.9,4.7
		c11.4-10.2,20.1-29.7,20-45.1c-0.1-42.5-5-85-8.6-127.5c-1.3-16,7.1-25.3,19.8-31c16.8-7.5,34.3-13.5,51.4-20.2
		c0.7,3.2,3.2,9.5,3.3,15.8c0.9,34.6,9.4,71.1-24.5,97c-11.9,9.1-15.5,22.3-9.2,34.9c7.1,14,18,25.3,37.1,22.5
		c17.1-2.5,32.3-8.5,33.3-27.3c1.9-37.5,2.3-75.2,1.5-112.7C1228.4,64.4,1224.6,39.9,1221.5,8.2z"/>
	<path class="st1" d="M1016.1,551.2c4.7,13.5,7.8,27.5,14.5,39.6c4,7.2,13.6,11.3,20.7,16.8c3.4-7.5,10.9-15.9,9.6-22.4
		c-5.1-24.8-12.8-49-20-73.3c-0.9-3.1-4.4-7.4-7.2-7.9c-14.4-2.2-28.9-6.4-39.6,10.5c-4.2,6.6-14.7,9.9-23,13
		c-14.8,5.6-19.5,16-12,30c19.1,35.8,28.6,74.7,34.4,114.4c0.8,5.4-4.8,13.8-9.9,17.6c-13.1,10-28.6,17-41.1,27.6
		c-10.7,9-6.2,29.6,7.2,32.1c15,2.8,25.8,13.1,42.2,14.8c33.1,3.5,56.6-17.8,48.3-49.6c-4.6-17.6-7.6-35.6-11.7-53.3
		c-7-29.9-11.5-60.8-22.5-89.2C1000.3,557.2,1004.4,555.4,1016.1,551.2z"/>
	<path class="st1" d="M814.5,261.9c11.2-3,21.2-5.8,31.2-8.5c16.9-4.6,19.3-19.6,17.8-32.2c-0.6-4.8-16.4-8.1-25.6-11.2
		c-4.3-1.5-10.8,1-13.8-1.5c-20.5-16.6-41.4-5.1-44.8,24.4c-3,26.1-1.3,53,0.9,79.4c1.5,17.7-2.7,26.4-21.3,28.7
		c-26.9,3.3-45,25.8-40.9,48.2c4.4,24.4,16.7,33.3,48.7,35.1c41.5,2.4,48.6-4.8,48.1-46.2C814.1,340.3,814.5,302.4,814.5,261.9z"/>
	<path class="st2" d="M1057.2,1784.9c-27.4,17-55.5,34.5-79.5,49.4c8.1,69.4,16,136,23.5,202.7c2.3,20,3.3,40.2,5.2,60.2
		c1.9,20.3-12.1,45.9-31.8,51.2c-20.5,5.5-38.7,23.8-62.7,13.2c-38.6,16.1-79.8,5.6-119.5,11.1c-15.1,2.1-32.8,0.9-46.1-5.5
		c-9-4.3-14.3-19.7-17.9-31.1c-7.5-23.9-13.6-48.3-18.9-72.8c-9.3-43.6-17.3-87.4-26.3-131c-2.2-10.7-6.2-21-9.6-32.3
		c0,0-1.2-0.9-2.4-1c-32.9-1.8-33.6,0.2-33.6,33.8c0,59.2-1.5,118.3-2.8,177.5c-0.4,17.2-20.3,38.6-38.9,42.9
		c-35.3,8.1-70.7,15.7-106.1,23.3c-51.2,10.9-79.3-1.4-105.9-46c-29.9,18.6-63.2,26.4-97.6,30.6c-21.5,2.6-34,17.1-31.8,38.8
		c4.1,40.8-1.6,80.3-21.6,115.9c-10.5,18.6-30.2,30.2-52.3,31.7c-16.1,1.1-34.4,1.6-48.2-5c-17.4-8.3-20.9-38.3-12.3-60.7
		c15-39.2,38-72.6,70.4-99.7c4.5-3.8,7.5-12.4,7.1-18.4c-3.4-46,31.9-84.8,78.8-98.2c23.4-6.7,46.3-15.7,68.8-25.1
		c4.1-1.8,8.1-11.4,7.2-16.5c-5.3-29.6-15.4-58.7-17.6-88.4c-2.3-31,2.2-62.5,4.3-93.7c0.2-3.1,4.7-5.8,8.4-10.2
		c-8.1-2.8-16-5.2-23.7-8.2c-23.4-9.2-46.5-19.1-70-27.8c-21-7.8-21.9-26.3-22.5-43.3c-0.5-12.7,3.8-25.8,7.6-38.3
		c8.7-28.7,18.4-57.2,27.7-85.7c1.5-4.7,3.6-9.3,6.2-16.2c-36.4-27.1-56.3-67.2-71.3-109.6c-6.8-19.1-7.8-40.3-11.6-60.5
		c-4.4-23.4-9.7-46.6-13.2-70.1c-7.2-48.3-10.3-97.8,18.2-140c25.9-38.2,50.7-81,95.9-99.5c56.1-22.9,113.4-43.7,175.7-44.7
		c30.7-0.5,61.3-5.5,93.2-8.5c-0.2-1.4,0.5-5.7-1.2-8.6c-33.3-55.1-32.8-116.1-36.2-177.7c-2.4-43.5,3.6-84,18-123.6
		c17.1-47.2,48.1-79.9,98.7-95.7c49.7-15.5,89.1,0.4,129.4,25.9c36.9,23.4,64.9,55.4,96.2,84.4c32.4,29.9,34.9,67.2,47.1,101.4
		c13.7,38.5,17.7,81.1,21.3,122.3c2.4,26.8-3.3,54.4-5.5,84.1c38.5,21.6,80.6,43.5,121.1,68.2c52.6,32.1,77.9,83,91.7,141
		c10.2,42.7,23.1,84.9,30.8,128c6.1,34.2,16.9,68.6,6.3,104.6c-3.1,10.4,0.5,23.5,3.3,34.7c3.4,13.3,8.5,25.3,2.1,40
		c-2.1,4.8,4.7,17.1,10.8,21.4c27.8,19.9,46.5,44,42.4,80.1c-1,8.6-3.3,18.7-8.8,24.8c-16.6,18.5-32.2,42-53.5,51.2
		c-26.4,11.4-55.5,27.3-86.9,17.6C1075.8,1799.8,1066.5,1790.9,1057.2,1784.9z M592.9,1600.5c2.6-2.8,5-4.4,6-6.6
		c15.1-34.2,29.3-68.7,45.3-102.5c6-12.7,13.8-26.2,24.5-34.8c41.8-33.3,98.8-25,131.4,17.2c34.2,44.4,32.5,92.6-9.2,128.6
		c-14.2,12.2-37,20-55.7,19.7c-14.3-0.2-22.1,4.3-29.6,12.2c-11.3,11.9-21.7,24.8-30.9,38.4c-6.5,9.5-14.8,20.9-14.6,31.4
		c0.8,44.9-16.4,79.1-52.4,105.8c-14.3,10.6-25.1,26-46.4,21.2c4.4,13.4,10.2,17.9,24.9,16.8c20.6-1.7,41.7,2.9,62.6,4.5
		c12.9,1,26.1,3.3,38.8,1.7c47.9-6.4,95.8-13.2,143.3-22c23.7-4.4,46.8-12.7,69.5-20.8c26.6-9.5,53.7-18.8,78.7-31.9
		c25.2-13.2,47.7-31.2,71.9-46.4c8.9-5.6,10.7-9.8,5.9-20.3c-13.1-28.9-26.6-58.1-35.1-88.5c-12.7-45.2-22-91.3-31.1-137.4
		c-3.9-19.6-4.5-40.2-4.5-60.3c0.1-18.7,18.2-17.6,29.5-19.1c5.2-0.7,16.2,11.4,17.6,18.9c7.8,43.6,12.4,87.9,20.5,131.4
		c4.9,26.2,14.4,51.5,21.9,77.4c18.7-12,34.7-21.2,49.4-32.2c5.1-3.8,10.2-12.1,9.9-18.1c-1.6-38.5-1.3-77.5-8-115.2
		c-10-55.9-24.7-111.1-38.5-166.2c-9.1-36.3-24.2-70-57.3-91c-39.3-25-79.5-48.6-119.2-72.8c-44.3,68.9-85.8,94.5-134,93.4
		c13.4,7.6,22.8,12.8,34.8,19.6c17-9.9,37.3-22.6,58.7-33c3.8-1.9,15.8,4.2,18.1,9.3c16,35.4,4.2,71.5-0.5,107
		c-1.3,10-9.9,17.3-24.2,11.5c-18-7.3-37.2-11.9-56.2-16.8c-3.6-0.9-8.9,1-12.3,3.3c-15.7,10.7-34.2,13.5-48.6,3.6
		c-17.5-12-30.9-9.3-46.6,0.1c-4.4,2.7-9.7,4-14.8,5.2c-22.5,5.3-52.1-9.9-52.5-27.9c-0.4-20.2,0.8-40.4,1.7-60.6
		c0.6-15.3,8.9-25.9,23.8-27c8.9-0.7,18.3,4.6,27.4,7.6c25,8.2,49.5,24.8,74.8,5.6c-30.4-13-67-10.4-93.8-39.2
		c-25.9-27.7-57-50.5-87.2-76.6c-9.6,3.3-21.7,15.3-35.7,1.4c-1.2-1.2-4.6-0.5-6.9-0.3c-18.4,1.8-36.8,3.7-55.2,5.6
		c-26.7,2.7-54.1,2.3-79.8,8.8c-56.9,14.4-112.4,33.7-151.5,81.5c-17.3,21.2-35.4,43.1-33.1,73.5c3.3,43.9,5.6,87.9,10.7,131.6
		c6.8,57.2,32.1,105.9,73.9,145.8c14,13.3,29.1,25.8,41.4,40.6c23.6,28.2,45.5,57.8,68.4,87.1c39-40.6,75.2-78.4,112.4-117.2
		c-10.6-13.3-25.2-28.4-36.1-45.8c-15.9-25.4-28.7-52.8-43.7-78.8c-20.4-35.6-26.2-73.8-19.1-113.4c1.3-7.4,15.1-18,22.5-17.4
		c10.1,0.7,28.7,1.6,21.8,23.4c-8.1,25.6-2.1,49.3,9.6,73.3c13.4,27.5,26.4,54,47.9,77.1c12.8,13.7,30.5,24.8,34.3,48.5
		C565.5,1567.7,581.6,1582.8,592.9,1600.5z M851,917.6c-0.5-1.8-0.9-2.9-1.1-4.7c-3.5-12.3-6.6-24.9-10.7-37
		c-20.7-61.4-59.1-109.8-110.8-148c-3-2.3-6.8-3.9-10.5-4.9c-26.7-7.7-54.5-3.2-78,6.1c-27.4,10.9-52.5,30.7-59.2,63.6
		c-2.4,11.9-1.9,24.3-3.3,36.4c-3.6,31.6-8.5,63.1-11,94.8c-1,13.4,0.4,28.1,5,40.7c12.3,33,26,65.5,41.1,97.4
		c8.4,17.8,18.7,35.5,31.6,50.3c14.5,16.7,34.9,28.2,49.2,45.1c23.6,27.8,53,32.7,85.6,26.3c29.5-5.8,49.9-27.7,70.8-46.9
		c7.7-7,14.9-19.2,14.9-29c0.1-32.2-2.1-64.6-5.4-96.7C855.9,978.6,855.8,949.9,851,917.6z M723.3,1895.7c0,7-1.2,13.2,0.2,18.7
		c15.5,62.1,31,124.1,47.2,186c5.7,21.8,18,28.8,40.5,26.2c19.8-2.2,39.7-6.2,59.5-5.6c32.5,0.9,61.5-8.6,91.7-23.4
		c-10.4-81.3-20.8-162.5-31-242.8C859.5,1868.9,791.7,1882.3,723.3,1895.7z M592.1,1895.2c-10.8-2-18.2-1.6-23.4-4.7
		c-13.6-8.2-37.3,1-41.5-23.8c-0.3-1.6-5.6-4.1-7.2-3.3c-3.5,1.8-7.9,4.9-8.6,8.2c-6.6,31.9-12.7,63.9-18.8,95.9
		c-9.5,49.9-21.9,98.4-63.9,135.2c3.5,7.2,7.5,15.2,11.4,23.1c15.3-9.1,30.1,3.3,44,1.7c31.6-3.5,62.7-11.7,93.7-19
		c3.3-0.8,6.9-8.5,7.1-13.1C587.6,2028.9,589.8,1962.3,592.1,1895.2z M457.9,1723.1c15.9,17.5,31,36,48.1,52.5
		c18.4,17.7,42.3,16.2,64.6,4.2c17.5-9.4,26.4-23.7,34.7-39.7c15-29,2.9-73.7-24.8-90c-3.8-2.2-9.8-2.1-14.5-1.4
		c-13.8,2.1-27.6,4.4-41.1,7.8c-7.1,1.8-15.4,4.4-20,9.5C489.9,1682.6,476.2,1700.7,457.9,1723.1z M412.6,2062.1
		c2.1,0.3,4.2,0.7,6.4,1c5.7-16.3,13.6-32.2,16.6-49c7.3-40.3,11.8-81.1,18.4-121.6c2.2-13.7,7.2-27,10-37.1
		c-28.6-4-55.3-7.7-78-10.9c0,35.3-3.5,72.3,1,108.3C391.5,1989.8,403.8,2025.7,412.6,2062.1z M307.4,1650.7
		c-8,32.2-16,58.1-20.3,84.7c-1.3,8.2,4.9,21.4,11.9,26.5c41.6,29.9,92.5,32.3,139.8,46.5c4.1-8.9,7-15.4,10-21.9
		c-3-3.4-6.2-6.1-8.1-9.4c-7.8-14.4-15.6-27.8-35.7-17.2c-1.7,0.9-6.5-2.2-8.7-4.5c-21-22.2-42.1-44.4-62.4-67.3
		C325.2,1677.8,318.2,1665.9,307.4,1650.7z M388.9,2110.4c-0.6-1.1-1.2-2.2-1.9-3.3c-11.3,2.2-22.5,4.6-33.8,6.4
		c-18.1,3-38.5,1.2-54.1,9.1c-54.7,27.7-105.6,62-140.4,113.9c-12.4,18.5-19.5,41.2-26.1,62.9c-4.7,15.2,11.2,35.1,25.6,36.3
		c36,3,71.7-26.2,81.1-60.8c7.6-28.1,6.5-54.9,1.3-82.7c-23.1,14.3-18.9,37.2-18.1,57.8c1,24.8-9.9,43.1-27.2,58.1
		c-5,4.3-16.1,5.8-22.5,3.4c-26.1-9.7-30.4-39.2-12.1-58.1c24.5-25.4,48.1-51.8,73.8-75.9c14.7-13.7,33.3-33.3,49.6-32.8
		c26,0.8,46.3-10.3,68.8-16.4C365.6,2124.9,376.9,2116.6,388.9,2110.4z M1099.1,1759.4c6-1.3,12.2-2.1,17.9-4.1
		c21.5-7.2,44-11.1,58.8-32.2c11.5-16.3,11-32.4-5.2-44.6c-11.8-8.9-23-18.7-36.5-29.8c-6.1,5.2-13.5,11.5-21,17.8
		c-14.4,12.2-11.1,26.7-6.4,42.1C1112.2,1726.3,1116.6,1744.4,1099.1,1759.4z M653.2,1249c1.3,19.1,2.1,35.3,3.6,51.4
		c1.6,16.6,13.5,20.1,26.9,17.7c9.4-1.7,20.9-4.4,26.6-10.9c6.9-8,10.3-20.2,11.6-31c0.4-3.8-9.3-10.8-15.6-12.9
		C691,1258,675.1,1254.7,653.2,1249z M873.6,1249c-13.2,5.5-24.4,10.2-35.6,14.7c-14.3,5.7-26.7,12.9-23.2,31.3
		c2.9,15.5,14.1,21.3,28.7,23.7c20.3,3.3,28.1-0.6,29.8-19.5C874.7,1283.7,873.6,1267.9,873.6,1249z M795.3,1280.7
		c1.4-11.8-3.6-21.3-21.5-20.5c-21.4,1-34.3,13.1-34.8,33.7c-0.4,17.3,9.4,24.9,31.3,24.4C788.4,1317.8,795.5,1308.2,795.3,1280.7z
		 M407.9,2095.6c24.3-10.7,36.6-27.5,43.5-47c12.4-35,23-70.4,24.6-108.5c1-24.1,10.7-47.8,16-71.7c0.9-3.8-0.5-8.1-0.8-12.2
		c-3.6,2.6-7.5,5-10.7,8c-1.8,1.7-3.1,4.4-3.6,6.8c-7.5,34.4-17.3,68-16.9,104.3C460.6,2020,442.7,2059.3,407.9,2095.6z
		 M247.9,2132.4c2,1.9,4,3.7,6,5.6c35.3-40.5,86.4-32.6,130.1-44.4c-6.8-5.3-12.8-10-19.5-15.2c-9.4,2.1-21.3,3.4-32,7.4
		c-26.4,10-52.4,20.8-78.2,32.4C250.8,2119.8,250,2127.5,247.9,2132.4z M241.4,2144.9c-11.6-15.5-9.2-26.6,7.6-39.7
		c32.2-25.2,70.7-33.5,110.3-40.6c-1.2-3.9-2.4-7.7-3.9-12.3c-34.9,13.7-68.9,26.3-102.2,40.3c-36.7,15.4-42,26-37.2,67.9
		C224.3,2155.3,232,2150.6,241.4,2144.9z M214.5,2225c-2.3-0.6-4.6-1.1-6.9-1.7c-5.6,6.2-11.7,11.9-16.6,18.6
		c-6.9,9.2-15.2,18.3-18.3,28.8c-2,6.7,4.5,15.8,7.2,23.8c6.4-3,17-4.6,18.6-9.3C205.2,2265.6,209.4,2245.1,214.5,2225z"/>
	<path class="st2" d="M1221.5,8.2c3,31.7,6.8,56.2,7.4,80.8c0.8,37.5,0.5,75.2-1.5,112.7c-1,18.8-16.2,24.8-33.3,27.3
		c-19.2,2.8-30-8.5-37.1-22.5c-6.3-12.5-2.7-25.8,9.2-34.9c33.9-25.9,25.4-62.5,24.5-97c-0.2-6.3-2.6-12.5-3.3-15.8
		c-17.2,6.7-34.7,12.7-51.5,20.2c-12.8,5.7-21.2,15-19.8,31c3.6,42.5,8.6,85,8.6,127.5c0,15.4-8.7,35-20.1,45.2
		c-12.7,11.3-31.4,6.3-46.9-4.7c-41.3-29.2-23.6-60.7,6.5-74.6c18.6-8.6,18.4-21.4,17.4-37c-1.9-28.7-5.3-57.5-4.7-86.2
		c0.4-21,15.9-34.3,37.9-37.8c21.3-3.3,39.7-10.8,55.4-26.8C1189.4-3.7,1209.8-3.5,1221.5,8.2z"/>
	<path class="st2" d="M1016.1,551.2c-11.7,4.2-15.8,6-10.1,20.7c11,28.4,15.5,59.3,22.5,89.2c4.1,17.7,7.1,35.7,11.7,53.3
		c8.3,31.7-15.3,53-48.3,49.6c-16.3-1.7-27.2-12-42.2-14.8c-13.4-2.5-17.8-23.1-7.2-32.1c12.5-10.5,28-17.6,41.1-27.6
		c5-3.8,10.7-12.2,9.9-17.6c-5.8-39.7-15.3-78.6-34.4-114.4c-7.5-14-2.8-24.4,12-30c8.3-3.1,18.8-6.4,23-13
		c10.7-16.9,25.2-12.8,39.6-10.5c2.8,0.4,6.2,4.7,7.2,7.9c7.2,24.3,15,48.5,20,73.3c1.3,6.5-6.1,14.9-9.6,22.4
		c-7.1-5.5-16.7-9.6-20.7-16.8C1023.9,578.8,1020.8,564.7,1016.1,551.2z"/>
	<path class="st2" d="M814.5,261.9c0,40.5-0.4,78.4,0.1,116.2c0.5,41.5-6.5,48.6-48.1,46.2c-32-1.8-44.3-10.7-48.7-35.1
		c-4-22.4,14-44.9,40.9-48.2c18.6-2.3,22.8-11,21.3-28.7c-2.2-26.4-3.9-53.3-0.9-79.4c3.4-29.5,24.3-41,44.8-24.4
		c3,2.4,9.5,0,13.8,1.5c9.2,3.1,25,6.4,25.6,11.2c1.6,12.6-0.8,27.7-17.8,32.2C835.6,256.1,825.6,258.9,814.5,261.9z"/>
	<path class="st1" d="M592.9,1600.5c-11.3-17.8-27.4-32.8-30.2-50.1c-3.9-23.7-21.5-34.8-34.3-48.5c-21.5-23.1-34.5-49.6-47.9-77.1
		c-11.7-24-17.8-47.8-9.6-73.3c7-21.9-11.6-22.8-21.8-23.4c-7.4-0.5-21.2,10.1-22.5,17.4c-7.1,39.6-1.3,77.8,19.1,113.4
		c14.9,26.1,27.8,53.4,43.7,78.8c10.9,17.4,25.5,32.5,36.2,45.8c-37.2,38.8-73.5,76.6-112.4,117.2c-22.9-29.4-44.9-58.9-68.4-87.1
		c-12.3-14.8-27.4-27.2-41.4-40.6c-41.9-39.9-67.1-88.6-73.9-145.8c-5.2-43.7-7.4-87.7-10.7-131.6c-2.3-30.4,15.8-52.2,33.1-73.5
		c39-47.8,94.6-67.1,151.5-81.5c25.7-6.5,53.2-6.1,79.8-8.8c18.4-1.9,36.8-3.8,55.2-5.6c2.3-0.2,5.7-0.9,6.9,0.3
		c14,13.9,26,1.8,35.7-1.4c30.1,26.1,61.3,48.8,87.2,76.6c26.8,28.8,63.4,26.1,93.8,39.2c-25.3,19.2-49.8,2.5-74.8-5.6
		c-9.1-3-18.5-8.2-27.4-7.6c-14.9,1.1-23.1,11.7-23.8,27c-0.8,20.2-2.1,40.4-1.7,60.6c0.4,18,30,33.3,52.5,27.9
		c5.1-1.2,10.4-2.6,14.8-5.2c15.6-9.4,29.1-12.1,46.6-0.1c14.3,9.8,32.9,7.1,48.6-3.6c3.4-2.3,8.7-4.3,12.3-3.3
		c18.9,4.9,38.1,9.5,56.2,16.8c14.3,5.8,22.9-1.5,24.2-11.5c4.7-35.6,16.5-71.7,0.5-107c-2.3-5.1-14.3-11.2-18.1-9.3
		c-21.4,10.4-41.6,23.2-58.7,33c-12-6.8-21.4-12-34.8-19.6c48.2,1.1,89.7-24.5,134-93.4c39.8,24.2,79.9,47.8,119.2,72.8
		c33.2,21,48.3,54.7,57.3,91c13.8,55.2,28.5,110.3,38.5,166.2c6.7,37.7,6.5,76.7,8,115.2c0.2,6-4.8,14.3-9.9,18.1
		c-14.7,11-30.8,20.2-49.4,32.2c-7.5-25.9-17-51.2-21.9-77.4c-8.2-43.6-12.7-87.8-20.5-131.4c-1.4-7.6-12.3-19.6-17.6-18.9
		c-11.3,1.4-29.4,0.3-29.5,19.1c-0.1,20.1,0.6,40.6,4.5,60.3c9,46.1,18.4,92.2,31.1,137.4c8.5,30.4,22,59.6,35.1,88.5
		c4.8,10.6,3.1,14.7-5.9,20.3c-24.2,15.2-46.7,33.2-71.9,46.4c-25,13.1-52,22.4-78.7,31.9c-22.8,8.1-45.9,16.4-69.5,20.8
		c-47.5,8.8-95.4,15.6-143.3,22c-12.6,1.7-25.8-0.7-38.8-1.7c-20.9-1.6-42-6.2-62.6-4.5c-14.7,1.2-20.5-3.3-24.9-16.8
		c21.3,4.8,32.1-10.6,46.4-21.2c36-26.7,53.1-60.9,52.4-105.8c-0.2-10.4,8.1-21.8,14.6-31.4c9.2-13.6,19.7-26.5,30.9-38.4
		c7.5-8,15.3-12.4,29.6-12.2c18.7,0.2,41.5-7.5,55.7-19.7c41.7-36,43.4-84.2,9.2-128.6c-32.6-42.2-89.6-50.5-131.4-17.2
		c-10.7,8.5-18.5,22-24.5,34.8c-16,33.7-30.2,68.3-45.3,102.5C597.9,1596.2,595.6,1597.7,592.9,1600.5z"/>
	<path class="st1" d="M845.4,914.2c4.7,32.2,10.5,64.3,13.9,96.7c3.3,32.1,5.5,64.4,5.4,96.7c0,9.8-7.2,22-14.9,29
		c-21,19.3-41.3,41.1-70.8,46.9c-32.6,6.4-61.9,1.5-85.6-26.3c-14.3-16.8-34.7-28.4-49.2-45.1c-12.9-14.8-23.2-32.4-31.6-50.3
		c-15-31.8-28.8-64.4-41.1-97.4c-4.7-12.5-6.1-27.2-5-40.7c2.4-31.7,7.4-63.2,11-94.8c1.4-12.1,0.9-24.6,3.3-36.4
		c6.7-32.9,31.8-52.7,59.2-63.6c23.5-9.4,51.3-13.9,78-6.1c3.7,1.1,7.4,2.7,10.5,4.9c51.7,38.3,90.1,86.6,110.8,148
		c4.1,12.2,7.2,24.7,10.7,37C848.4,913.4,846.9,913.8,845.4,914.2z"/>
	<path class="st1" d="M723.3,1895.7c68.3-13.4,136.2-26.8,208.1-40.9c10.3,80.3,20.7,161.5,31,242.8c-30.2,14.7-59.2,24.3-91.7,23.4
		c-19.8-0.6-39.7,3.3-59.5,5.6c-22.5,2.6-34.8-4.4-40.5-26.2c-16.2-61.9-31.8-123.9-47.2-186
		C722.1,1908.9,723.3,1902.7,723.3,1895.7z"/>
	<path class="st1" d="M592.1,1895.2c-2.3,67-4.5,133.6-7.2,200.2c-0.2,4.6-3.8,12.3-7.1,13.1c-31,7.3-62.2,15.4-93.7,19
		c-13.9,1.6-28.7-10.9-44-1.7c-3.9-8-7.9-15.9-11.4-23.1c42-36.8,54.4-85.2,63.9-135.2c6.1-32,12.1-64.1,18.8-95.9
		c0.7-3.3,5.1-6.5,8.6-8.2c1.5-0.8,6.9,1.7,7.2,3.3c4.2,24.8,27.9,15.6,41.5,23.8C573.9,1893.7,581.3,1893.2,592.1,1895.2z"/>
	<path class="st1" d="M457.9,1723.1c18.3-22.4,32-40.5,47.1-57.2c4.6-5.1,12.9-7.7,20-9.5c13.5-3.4,27.3-5.7,41.1-7.8
		c4.7-0.7,10.7-0.8,14.5,1.4c27.8,16.3,39.9,61,24.8,90c-8.3,16-17.2,30.3-34.7,39.7c-22.3,12-46.2,13.5-64.6-4.2
		C488.9,1759.2,473.8,1740.7,457.9,1723.1z"/>
	<path class="st1" d="M412.6,2062.1c-8.9-36.3-21.1-72.3-25.6-109.1c-4.4-36-1-73-1-108.3c22.7,3.2,49.4,6.9,78,10.9
		c-2.8,10-7.8,23.3-10,37.1c-6.6,40.4-11.1,81.2-18.4,121.6c-3,16.8-11,32.7-16.6,49C416.9,2062.8,414.8,2062.4,412.6,2062.1z"/>
	<path class="st1" d="M307.4,1650.7c10.8,15.2,17.8,27.2,26.8,37.3c20.2,22.9,41.4,45.1,62.3,67.3c2.2,2.3,7,5.4,8.7,4.5
		c20.1-10.6,27.9,2.8,35.7,17.2c1.8,3.4,5.1,6,8.1,9.4c-3,6.5-5.9,13-10,21.9c-47.4-14.2-98.2-16.6-139.8-46.5
		c-7-5-13.3-18.3-11.9-26.5C291.4,1708.8,299.4,1682.9,307.4,1650.7z"/>
	<path class="st1" d="M388.9,2110.4c-11.9,6.1-23.3,14.5-36,18c-22.5,6.1-42.8,17.3-68.8,16.4c-16.3-0.5-34.9,19.1-49.6,32.8
		c-25.8,24-49.3,50.5-73.8,75.9c-18.2,18.8-13.9,48.3,12.1,58.1c6.4,2.4,17.5,0.9,22.5-3.4c17.2-14.9,28.1-33.3,27.2-58.1
		c-0.8-20.6-5-43.5,18.1-57.8c5.2,27.8,6.4,54.6-1.3,82.7c-9.4,34.6-45.2,63.8-81.1,60.8c-14.3-1.2-30.3-21.1-25.6-36.3
		c6.7-21.7,13.7-44.4,26.1-62.9c34.8-51.9,85.7-86.2,140.4-113.9c15.6-7.9,36-6.1,54.1-9.1c11.3-1.9,22.5-4.3,33.8-6.4
		C387.6,2108.2,388.2,2109.3,388.9,2110.4z"/>
	<path class="st1" d="M1099.1,1759.4c17.5-14.9,13.1-33,7.7-50.7c-4.7-15.4-8.1-29.9,6.4-42.1c7.4-6.3,14.8-12.6,20.9-17.8
		c13.5,11.1,24.7,20.9,36.5,29.8c16.2,12.2,16.7,28.2,5.2,44.6c-14.8,21.1-37.4,25-58.8,32.2
		C1111.3,1757.2,1105.1,1758.1,1099.1,1759.4z"/>
	<path class="st1" d="M653.2,1249c21.8,5.7,37.8,9,53.1,14.2c6.3,2.2,16,9.2,15.6,12.9c-1.3,10.8-4.7,23.1-11.6,31
		c-5.6,6.5-17.2,9.3-26.6,10.9c-13.4,2.4-25.3-1.1-26.9-17.7C655.3,1284.3,654.5,1268.1,653.2,1249z"/>
	<path class="st1" d="M873.6,1249c0,18.9,1.2,34.7-0.3,50.3c-1.8,18.9-9.5,22.8-29.8,19.5c-14.6-2.3-25.8-8.2-28.7-23.7
		c-3.5-18.4,8.9-25.7,23.2-31.3C849.2,1259.2,860.4,1254.5,873.6,1249z"/>
	<path class="st1" d="M795.3,1280.7c0.1,27.6-7,37.2-25,37.6c-21.8,0.5-31.6-7.1-31.3-24.4c0.4-20.6,13.4-32.7,34.8-33.7
		C791.7,1259.3,796.7,1268.9,795.3,1280.7z"/>
	<path class="st1" d="M407.9,2095.6c34.8-36.3,52.6-75.6,52.2-120.3c-0.4-36.3,9.4-69.8,16.9-104.3c0.5-2.4,1.8-5.2,3.6-6.8
		c3.2-3,7.1-5.4,10.7-8c0.3,4.1,1.6,8.4,0.8,12.2c-5.4,23.9-15,47.6-16,71.7c-1.6,38.1-12.2,73.5-24.6,108.5
		C444.5,2068.1,432.2,2084.9,407.9,2095.6z"/>
	<path class="st1" d="M247.9,2132.4c2.1-4.9,2.9-12.6,6.4-14.2c25.7-11.6,51.8-22.5,78.2-32.4c10.8-4.1,22.6-5.3,32-7.4
		c6.7,5.2,12.7,9.9,19.5,15.2c-43.8,11.9-94.8,3.9-130.1,44.4C251.9,2136.1,249.9,2134.2,247.9,2132.4z"/>
	<path class="st1" d="M241.4,2144.9c-9.4,5.8-17.1,10.5-25.4,15.5c-4.8-41.9,0.5-52.5,37.2-67.9c33.4-14,67.3-26.6,102.2-40.3
		c1.4,4.6,2.6,8.4,3.9,12.3c-39.6,7.1-78.1,15.4-110.3,40.6C232.3,2118.2,229.8,2129.3,241.4,2144.9z"/>
	<path class="st1" d="M214.5,2225c-5.1,20.1-9.3,40.6-16.1,60.2c-1.6,4.7-12.2,6.3-18.6,9.3c-2.7-8-9.1-17.2-7.2-23.8
		c3.1-10.5,11.5-19.6,18.3-28.8c4.9-6.6,11-12.4,16.6-18.6C209.9,2223.8,212.2,2224.4,214.5,2225z"/>
</g>
<g id="Calque_2">
	<path d="M774.9,972.5c6.4,53.4,14.5,112-4.8,169.3c17.8,5.5,34.7,9.2,50.3,16c40.5,17.6,87.4,20.4,122.2,50.3
		c12.7,10.9,20.6,27.3,32,43.1c33.8-8.5,71.7-17.4,109.1-27.9c20.9-5.9,40.9-15.1,61.7-21.5c9.4-2.9,21.5-6.1,29.4-2.6
		c22.1,9.7,38.9-4.4,58.1-7.7c9.8-1.7,20.9,3.8,30.1,5.8c10.4,33.1,22.9,64.6,29.9,97.3c7.5,34.8,9.7,70.8,14.2,106.2
		c2.3,18.3,3.7,36.8,6.9,54.9c7.2,40.7,15.4,81.3,23.1,121.9c3.4,18,5.9,36.3,10.4,54c11.6,45.4-0.2,90.9,1.4,136.2
		c0.7,18.6,2.4,37.2,1.5,55.7c-1.8,38.2-5,76.3-7.7,114.4c-1.9,27.3-3.1,54.7-6.2,81.9c-7.1,63.9-15.2,127.7-22.7,191.6
		c-0.4,3.8-0.3,7.9,0.6,11.6c6.2,24.8-2.8,35.9-27,44.2c-22.5,7.7-43,21.3-64.7,31.7c-7.9,3.8-16.6,5.9-25,8.6
		c-56.9,18.2-113.4,37.7-170.9,53.8c-28.9,8.1-59.8,9-89.5,14.8c-32.7,6.5-65,14.9-97.5,22.6c-1.8,0.4-4.5,1.1-5,2.4
		c-9.3,25.5-28.1,10.4-37.4,4.7c-41.8-25.3-85.2-51.6-111.3-93.6c-24.7-39.8-62.8-63.8-94-95.7c-8.6-8.8-19.6-15.4-30-22.3
		c-28.6-18.9-24.3-48.7-22.7-75.5c3.5-59.7,10.2-119.2,15.4-178.7c1.1-12.5,1.3-25,1.8-35.8c-20.4,3.3-38.7,6.3-55.3,9
		c3.3,24.9,7.7,47.7,9.1,70.8c2.5,41.3,5.3,82.8,3.9,124c-0.8,24.8-9.3,49.4-14.2,74.1c-3.5,17.5-18.3,23.4-32,24.3
		c-35.5,2.3-71.2,3.3-106.7,1.5c-41.8-2.2-50.6-11.5-61.8-51.7c-16.2-58.5-33.1-116.9-49.2-175.5c-5.9-21.6-10-43.8-15.7-65.5
		c-3.7-14.1-5.8-30.6-14.6-40.9c-6.8-8.1-23-8-34.7-12.3c-9.6-3.5-18.5-9.3-28.2-12c-10.8-2.9-22.3-4.8-33.4-4.5
		c-45.1,1.1-114.2-44.6-121.1-92.3c-3.2-22.1-0.1-46.7,6.7-68c3.6-11.4,3.8-21.3-2.1-26.6c-9.4-8.4-6.6-16.8-6.9-26.2
		c-1.5-46,0.1-91.5,10.3-136.7c5.2-22.7,7.3-46.1,12.1-69c7.4-35.6,20.6-68.8,36-102.1c13.8-29.9,33.5-52.8,55-75.8
		c11.8-12.6,22.4-26.4,32.8-40.3c27.5-36.8,68.5-52.6,109.1-66.8c33.7-11.8,69.4-18.9,104.7-25c27.1-4.7,55.1-4.6,82-6.6
		c-7.6-19.4-7.6-19.4-28.4-24.8c-15.2-4-32.3-29.9-33.1-45.8c-0.4-9.4-6.6-18.4-8.6-28c-2.9-14.2-4.6-28.8-6.2-43.2
		c-0.3-2.9,4-7.4,2.9-8.9c-19.9-28.8,3.3-59.1-3.5-88.2c-1.2-5.1-2.8-10.1-3.8-15.2c-0.8-4.2-2.2-8.8-1.3-12.7
		c3.5-14.6,9.9-28.8,11.5-43.5c3.8-33.7,26.2-57.1,43.4-83.4c3.1-4.7,8.3-8.9,13.5-11.1c14.1-5.9,27.8-8.7,29.5-29.8
		c1-12.4,63.4-37.1,77.1-33.1c6.8,2,15.2,6.5,18,12.2c11.7,24.5,45.9,45.1,71.5,46.8c20.8,1.4,38.7,1.3,59.1-7.3
		c23.9-10.1,32.8,2,40.5,26.4c11.4,36.6,19.6,75.4,50.5,103c5.8,5.1,8.8,13.7,12.1,21.2c12.7,28.9,15.2,59.4,8.4,89.8
		C792.9,946.5,783.8,956.6,774.9,972.5z M559.3,1857.3c3-33.3,5.5-69.1,9.4-104.7c6.3-56.8,12.7-113.6,21-170.1
		c1.2-8.6,11.3-19.4,19.7-22.6c17.8-6.7,37.1-9.5,56-12.9c54.9-9.8,109.8-19.2,166.1-28.9c-5.5-45.8-10.1-88.4-15.9-130.8
		c-3.2-23.7-8.6-47-12.4-70.6c-2-12.1,3.2-16.9,15.3-23.9c28.6-16.3,61.1-8.6,90.1-20.8c21-8.8,22.4-5.7,7.2-23.7
		c-2.3-2.8-5.8-4.6-8.8-6.8c-30.1-22.8-67.3-28.1-101.4-40.9c-15.5-5.8-31.5-10.3-47.8-15.5c-2.4,4.1-5.8,10.2-9.4,16.1
		c-4.1,6.7-9.7,12.8-12.3,20c-7,19.6-14.3,36.7-38.9,40.5c-25.1,3.9-50.2,18.1-74.3,15.8c-50.7-4.7-89.8-33-118.1-76.3
		c-10.8-16.5-22.7-35.3-38.9-44.1c-14.6-7.9-36.4-7.1-54-4c-47.7,8.4-95.1,18.7-142,30.8c-31.8,8.2-63.9,19.9-83.4,48.7
		c-26,38.4-69.3,64-82.4,111.7c-26,19.2-24.6,51.7-35.1,77.8c-11.5,28.5-13.1,61.4-16,92.7c-3.7,40.1-13.1,80.8,2.7,120.4
		c2.2,5.4,8.5,12.5,13.5,12.9c40.4,3.6,80.9,6.6,121.5,8.2c21.7,0.9,31.4-13,34.8-36c6.1-41.7,5.8-83,2.1-124.8
		c-1.7-19.5,3.2-39.5,4-59.3c0.8-19-0.9-38.2,0.5-57.1c1.2-16.9,17.7-18,29.2-20.2c5.8-1.1,17.3,7,19.6,13.4
		c2.4,6.8-4.2,16.3-4.8,24.8c-2.2,31.3-4.6,62.7-5.1,94.1c-0.6,40.1,3.3,80.4,0.2,120.2c-2.6,34-1.7,72.5-41.6,87.9
		c9.5,42.9,15.5,83.7-18.7,119.3c30.8,9.5,58,20,86.2,26c44.8,9.6,90.1,17.7,135.6,23.4c19.2,2.4,39.4-3.2,59.2-5
		C513.1,1861.2,534.4,1859.4,559.3,1857.3z M1312.9,1680.6c-39.3,9-73.9,15.8-107.9,25c-45.9,12.5-90.9,28.8-137,40
		c-49.3,12-99.6,20.1-149.5,29.8c-9.1,1.8-13.6,5.1-14.7,16.2c-7.2,75.1-16,150-23.5,225c-4.6,45.6-8.1,91.3-11.4,136.9
		c-3.9,55.3-7.1,110.6-10.4,165.9c-0.6,10.6-0.1,21.2-0.1,32.9c41.1-9.5,77.7-17.9,114.2-26.5c38.2-9,77.3-15.7,114.4-28.2
		c53.1-17.9,105-39.8,156.9-61.1c8.3-3.4,18.2-11.4,20.5-19.3c6.6-22.4,10.1-45.8,13.9-69c3.1-18.7,5.1-37.6,7.4-56.5
		c4.2-33.9,8.9-67.7,12.2-101.7c3.5-35.7,5.8-71.6,8.3-107.4c2.4-33.1,5.2-66.3,6.3-99.5C1313.8,1749.7,1312.9,1716.1,1312.9,1680.6
		z M900.6,1736.6c136.5-19.4,266.9-66.4,401.4-98.9c-7.2-46.2-14.4-88.9-20.5-131.7c-8-55.3-13.8-111-23.1-166.1
		c-5-29.9-14.7-59-23.9-88c-1.3-4.1-13.3-8.9-18.1-7.2c-18.4,6.6-40.7-3.3-56.3,14.1c-1.3,1.4-5,0.8-7.6,0.9
		c-16.7,0.9-33.9-0.4-50.1,3.2c-44.2,9.6-88.2,20.5-131.9,32.2c-39,10.4-77.5,22.6-118.5,34.7c2.5,22.6,5.5,46,7.7,69.5
		c4.6,49.6,9.3,99.2,13.1,148.9c2.4,30.8,1.3,61.9,5.7,92.3C883,1671.6,892.4,1702.1,900.6,1736.6z M626.5,1617.8
		c-5.2,31.8-12.3,63.3-15.3,95.3c-4.4,46.7-6,93.8-8.8,140.7c-2.6,43.5-5,87.1-8.1,130.6c-2.9,41.4-7.3,82.7-9.7,124.1
		c-1.2,20-0.6,39.6,17.8,54.7c30.3,25,59.7,51.3,88.4,78.1c13.6,12.7,25,27.9,37.3,42.1c8.9,10.2,16.5,21.9,26.8,30.6
		c17.4,14.8,36.5,27.8,56.5,42.8c0-7.8-0.2-12.7,0-17.5c2.1-37.2,3.9-74.4,6.7-111.5c1.8-23.7,5.1-47.2,7.7-70.9
		c2.9-25.2,6.2-50.4,8.7-75.7c2.8-27.4,4.3-54.9,7.4-82.3c2-17.3,7.2-34.3,8.6-51.6c3.5-44.6,5.6-89.3,8.2-133.9
		c2-35.6-1.1-37.1-31.5-54.9c-22.5-13.2-42.3-31.4-62.3-48.4c-21.1-17.9-39.5-39.5-62.2-54.9
		C680.6,1640.2,654.7,1631.3,626.5,1617.8z M713.1,1199.4c8-20,18.3-37.2,21.7-55.6c7.9-43.3,14.1-87,17.9-130.8
		c1.8-21.6,1.1-45.6-6.7-65.3c-9.4-23.6-26.5-44.6-42.4-65.1c-8.6-11.1-20.3-22.2-33-27c-15.7-5.9-34-5.1-51.1-7.6
		c-3.1-0.4-6.8-2.4-8.5-4.8c-19.6-27.4-46.3-45-78.1-54.4c-13.5-4-22.1,2.8-24.4,17.4c-5.5,33.7-6.2,69.5-19,100.2
		c-9.6,23.1-11.5,45.6-16.1,68.7c-4.6,23.5-12.8,46.2-18.8,67.1c3.4,5.1,7.6,9.3,9.3,14.4c4.2,12.2,5.5,25.6,11,37
		c10.6,21.9,26,41.8,34.6,64.3c19.9,52.1,91.8,100,156.9,61.5c-16.4-12.7-33.3-23.6-47.1-37.5c-7.3-7.3-11.6-19.9-12.3-30.4
		c-0.3-4.5,11.5-12.7,18.8-14.1c18.6-3.8,32.8,5.9,45.2,19.4C684,1170.8,697.9,1184,713.1,1199.4z M272,1888.8
		c9.9,40.3,19.3,82.6,30.9,124.3c11.7,42.1,25.6,83.5,38.6,125.2c5,16,13.6,27.9,32.4,27c19.5-1,38.9-2.3,58.4-3.8
		c30.4-2.3,39.5-14.2,37.9-45.8c-1.2-24.2,0.7-48.6-1-72.8c-2.7-36.6-7.5-73-11.3-109.6c-1.6-15.1-11.5-19.4-24.9-21.2
		C380,1904.8,327.2,1896.9,272,1888.8z M59.3,1693c-4.1,9.4-6.4,14.5-8.6,19.5c-7.3,16.9-9.2,36.1,2.6,49.2
		c22.8,25.1,50,44.1,87.7,40c30.9-3.4,53.4-22.5,51.5-47.5c-0.8-10.9-3.9-21.7-5.8-32.5c-2.8-15.5-11.3-19.6-26.8-16.9
		c-11.7,2-24.3-0.2-36.3-1.7C102,1700.2,80.5,1696.4,59.3,1693z M673.4,1585.3c-0.5,1.8-0.9,3.6-1.4,5.4
		c73,24.3,117.4,87.5,175.8,125.5c-7.7-50.3-15.9-103.1-23.8-154.4C776.7,1569.2,725,1577.3,673.4,1585.3z"/>
	<path d="M1124.4,921.3c25,0.2,30.8,5.9,30,25.9c-2,47.3-4.1,94.6-5.9,141.9c-0.4,11.4-1.8,20.6-16.6,21.3
		c-15.3,0.7-28.9-2.3-30.7-19.2c-2-19.4,0-39.1-0.1-58.7c-0.2-28.5,0.6-57.1-1.6-85.5C1097.7,923.6,1111.6,922,1124.4,921.3z"/>
	<path d="M845.8,1031c2.6-7.6,5.3-19.9,11-30.5c6.5-12.1,29.1-10.3,35.3,3.7c11.3,25.7,20.2,52.5,30,78.8c2.2,5.9,2.2,13.8,6.2,17.8
		c14,13.8,1.3,24.4-4.3,34c-5,8.5-31.1,5.1-36.3-5c-14.9-29.1-28.1-59-41.8-88.7C845.1,1039.5,845.8,1037.2,845.8,1031z"/>
	<path class="st3" d="M559.3,1857.3c-24.9,2.1-46.2,3.9-67.5,5.8c-19.8,1.8-40,7.4-59.2,5c-45.5-5.6-90.7-13.8-135.6-23.4
		c-28.2-6-55.4-16.6-86.2-26c34.2-35.6,28.1-76.5,18.7-119.3c39.8-15.5,39-54,41.6-87.9c3-39.8-0.8-80.1-0.2-120.2
		c0.5-31.4,2.8-62.7,5.1-94.1c0.6-8.5,7.2-18,4.8-24.8c-2.2-6.3-13.8-14.5-19.6-13.4c-11.5,2.2-27.9,3.3-29.2,20.2
		c-1.4,18.9,0.3,38.1-0.5,57.1c-0.8,19.8-5.7,39.8-4,59.3c3.7,41.8,4,83.1-2.1,124.8c-3.3,23-13,36.9-34.8,36
		c-40.5-1.6-81.1-4.6-121.5-8.2c-4.9-0.4-11.3-7.5-13.5-12.9c-15.8-39.6-6.3-80.3-2.7-120.4c2.9-31.3,4.5-64.3,16-92.7
		c10.5-26,9.1-58.6,35.1-77.8c13.1-47.8,56.4-73.3,82.4-111.7c19.5-28.8,51.6-40.4,83.4-48.7c46.9-12.1,94.3-22.4,142-30.8
		c17.6-3.1,39.4-4,54,4c16.2,8.8,28.1,27.7,38.9,44.1c28.3,43.3,67.4,71.6,118.1,76.3c24,2.2,49.2-12,74.3-15.8
		c24.7-3.8,31.9-21,38.9-40.5c2.6-7.2,8.2-13.3,12.3-19.9c3.6-5.9,7-12,9.4-16.1c16.4,5.3,32.3,9.7,47.8,15.5
		c34.2,12.8,71.3,18.1,101.4,40.9c3,2.2,6.5,4,8.8,6.8c15.2,18,13.8,14.9-7.2,23.7c-29,12.1-61.5,4.4-90.1,20.8
		c-12.1,6.9-17.3,11.8-15.3,23.9c3.8,23.6,9.2,46.9,12.4,70.6c5.8,42.4,10.4,84.9,15.9,130.8c-56.3,9.8-111.2,19.1-166.1,28.9
		c-18.9,3.4-38.2,6.2-56,12.9c-8.4,3.2-18.5,14-19.7,22.6c-8.3,56.5-14.7,113.3-21,170.1C564.8,1788.2,562.3,1824,559.3,1857.3z
		 M473.9,1339.4c-17.7-0.4-27.9,6.5-28.8,23.5c-0.9,15.9,3.3,29.2,21.9,33.7c11.7,2.8,22.8,8.2,34.4,11.8
		c21.9,6.7,43.8,13.7,66,19.1c10.9,2.6,20.7-1.4,22-14.8c1.4-15-26.3-44.4-40.8-45.8c-11.5-1.1-23.3-3.6-34.1-7.7
		C500.5,1353.7,487.4,1346.1,473.9,1339.4z"/>
	<path class="st3" d="M1312.9,1680.6c0,35.5,0.8,69.1-0.2,102.6c-1.1,33.2-3.9,66.3-6.3,99.5c-2.5,35.8-4.8,71.7-8.3,107.4
		c-3.3,34-8,67.8-12.2,101.7c-2.3,18.8-4.3,37.8-7.4,56.5c-3.9,23.2-7.3,46.6-13.9,69c-2.3,7.9-12.2,15.9-20.5,19.3
		c-51.9,21.3-103.8,43.1-156.9,61.1c-37.1,12.5-76.2,19.1-114.4,28.2c-36.5,8.6-73.1,17-114.2,26.5c0-11.7-0.5-22.3,0.1-32.9
		c3.2-55.3,6.4-110.6,10.4-165.9c3.2-45.7,6.8-91.4,11.4-136.9c7.5-75,16.3-150,23.5-225c1.1-11.1,5.6-14.4,14.7-16.2
		c49.9-9.7,100.2-17.8,149.5-29.8c46.2-11.2,91.1-27.5,137-40C1239,1696.4,1273.7,1689.6,1312.9,1680.6z"/>
	<path class="st3" d="M900.6,1736.6c-8.2-34.6-17.6-65-22.1-96.1c-4.4-30.4-3.3-61.6-5.7-92.3c-3.9-49.7-8.5-99.3-13.1-148.9
		c-2.2-23.5-5.2-46.9-7.7-69.5c41-12.1,79.5-24.2,118.5-34.7c43.7-11.7,87.7-22.6,131.9-32.2c16.2-3.5,33.4-2.2,50.1-3.2
		c2.6-0.1,6.4,0.5,7.6-0.9c15.5-17.3,37.9-7.5,56.3-14.1c4.8-1.7,16.8,3,18.1,7.2c9.2,29,18.9,58.1,23.9,88
		c9.3,55.1,15.2,110.8,23.1,166.1c6.1,42.8,13.3,85.5,20.5,131.7C1167.5,1670.2,1037.2,1717.2,900.6,1736.6z"/>
	<path class="st3" d="M626.5,1617.8c28.3,13.5,54.1,22.5,75.9,37.3c22.7,15.4,41.1,37,62.2,54.9c20.1,17,39.8,35.2,62.3,48.4
		c30.4,17.8,33.5,19.2,31.5,54.9c-2.5,44.7-4.7,89.3-8.2,133.9c-1.3,17.3-6.6,34.3-8.6,51.6c-3.1,27.4-4.7,54.9-7.4,82.3
		c-2.5,25.3-5.8,50.5-8.7,75.7c-2.7,23.6-6,47.2-7.7,70.9c-2.8,37.1-4.5,74.3-6.7,111.5c-0.3,4.8,0,9.7,0,17.5
		c-20-15-39.1-28-56.5-42.8c-10.2-8.7-17.9-20.4-26.8-30.6c-12.3-14.2-23.7-29.4-37.3-42.1c-28.7-26.8-58-53.1-88.4-78.1
		c-18.4-15.2-19-34.8-17.8-54.7c2.4-41.4,6.8-82.7,9.7-124.1c3.1-43.5,5.5-87,8.1-130.6c2.8-46.9,4.4-93.9,8.8-140.7
		C614.2,1681.1,621.2,1649.5,626.5,1617.8z"/>
	<path class="st3" d="M713.1,1199.4c-15.3-15.4-29.2-28.6-42.1-42.7c-12.4-13.5-26.6-23.2-45.2-19.4c-7.3,1.5-19.1,9.7-18.8,14.1
		c0.7,10.5,5,23,12.3,30.4c13.8,13.9,30.8,24.8,47.1,37.5c-65,38.5-137-9.4-156.9-61.5c-8.6-22.5-24-42.4-34.6-64.3
		c-5.5-11.4-6.8-24.8-11-37c-1.7-5.1-5.9-9.3-9.3-14.4c6-20.9,14.2-43.6,18.8-67.1c4.6-23.1,6.5-45.6,16.1-68.7
		c12.8-30.7,13.6-66.5,19-100.2c2.4-14.7,11-21.4,24.4-17.4c31.9,9.4,58.5,27,78.1,54.4c1.7,2.4,5.5,4.4,8.5,4.8
		c17.1,2.5,35.3,1.7,51.1,7.6c12.7,4.8,24.4,15.9,33,27c15.9,20.5,33,41.5,42.4,65.1c7.8,19.7,8.5,43.7,6.7,65.3
		c-3.7,43.8-9.9,87.6-17.9,130.8C731.5,1162.2,721.2,1179.4,713.1,1199.4z"/>
	<path class="st3" d="M272,1888.8c55.2,8,108.1,16,161,23.3c13.4,1.9,23.3,6.1,24.9,21.2c3.8,36.5,8.6,73,11.3,109.6
		c1.8,24.1-0.2,48.6,1,72.8c1.6,31.6-7.5,43.6-37.9,45.8c-19.5,1.5-38.9,2.8-58.4,3.8c-18.9,1-27.5-10.9-32.4-27
		c-13-41.7-26.9-83.2-38.6-125.2C291.3,1971.5,281.9,1929.2,272,1888.8z"/>
	<path class="st3" d="M59.3,1693c21.3,3.4,42.7,7.2,64.3,10.1c12,1.6,24.7,3.8,36.3,1.7c15.6-2.7,24,1.4,26.8,16.9
		c2,10.8,5,21.6,5.8,32.5c1.9,25.1-20.6,44.2-51.5,47.5c-37.6,4.1-64.9-14.8-87.7-40c-11.9-13.1-9.9-32.3-2.6-49.2
		C52.9,1707.4,55.1,1702.4,59.3,1693z"/>
	<path class="st3" d="M673.4,1585.3c51.7-8,103.3-16.1,150.6-23.5c7.9,51.3,16,104.1,23.8,154.4c-58.3-38.1-102.7-101.3-175.8-125.5
		C672.5,1588.9,672.9,1587.1,673.4,1585.3z"/>
	<path d="M473.9,1339.4c13.5,6.7,26.6,14.3,40.5,19.6c10.8,4.1,22.6,6.6,34.1,7.7c14.5,1.4,42.2,30.9,40.8,45.8
		c-1.3,13.4-11.1,17.4-22,14.8c-22.2-5.4-44.1-12.4-66-19.1c-11.6-3.6-22.7-8.9-34.4-11.8c-18.6-4.5-22.8-17.8-21.9-33.7
		C446.1,1345.9,456.3,1339,473.9,1339.4z"/>
</g>
</svg>
