<?xml version="1.0" encoding="utf-8"?>
<!-- Generator: Adobe Illustrator 23.1.0, SVG Export Plug-In . SVG Version: 6.00 Build 0)  -->
<svg version="1.1" id="Calque_1" xmlns="http://www.w3.org/2000/svg" xmlns:xlink="http://www.w3.org/1999/xlink" x="0px" y="0px"
	 viewBox="0 0 1125 1466" style="enable-background:new 0 0 1125 1466;" xml:space="preserve">
<style type="text/css">
	.st0{fill:#FFFFFF;}
</style>
<path class="st0" d="M643.94,275.42c7.36-13.06,14.84-21.47,16.99-31.08c5.62-25.07,3.54-50.18-6.9-74.05
	c-2.69-6.15-5.21-13.24-9.96-17.49c-25.51-22.78-32.31-54.86-41.69-85.02c-6.27-20.16-13.66-30.16-33.38-21.8
	c-16.83,7.14-31.6,7.25-48.74,6.06c-21.15-1.47-49.31-18.47-58.98-38.65c-2.27-4.74-9.26-8.49-14.83-10.1
	c-11.3-3.26-62.74,17.07-63.59,27.33c-1.44,17.41-12.72,19.74-24.36,24.58c-4.29,1.78-8.62,5.27-11.15,9.14
	c-14.16,21.71-32.68,40.98-35.81,68.81c-1.37,12.16-6.62,23.84-9.52,35.89c-0.78,3.23,0.36,7.02,1.04,10.48
	c0.82,4.22,2.16,8.34,3.15,12.53c5.66,24.01-13.52,49.05,2.91,72.81c0.87,1.26-2.65,4.97-2.39,7.35
	c1.32,11.94,2.69,23.91,5.08,35.66c1.6,7.86,6.7,15.29,7.07,23.07c0.63,13.09,14.79,34.54,27.31,37.81
	c17.18,4.48,17.18,4.48,23.46,20.49c-22.16,1.63-45.23,1.56-67.63,5.42c-29.14,5.03-58.54,10.87-86.35,20.59
	c-33.51,11.7-67.33,24.72-90.03,55.12c-8.54,11.43-17.32,22.79-27.03,33.21c-17.75,19.02-34,37.9-45.4,62.58
	c-12.68,27.46-23.59,54.86-29.71,84.22c-3.93,18.85-5.74,38.16-9.99,56.92c-8.43,37.24-9.77,74.85-8.52,112.77
	c0.26,7.77-2.07,14.69,5.72,21.61c4.87,4.32,4.74,12.48,1.74,21.91c-5.61,17.63-8.17,37.91-5.52,56.14
	c5.73,39.39,62.69,77.09,99.93,76.15c9.17-0.23,18.65,1.35,27.54,3.73c8.06,2.16,15.38,6.96,23.29,9.86
	c9.68,3.54,23,3.46,28.63,10.12c7.23,8.55,8.95,22.1,12.04,33.76c4.74,17.89,8.06,36.17,12.96,54.01
	c13.27,48.33,27.21,96.47,40.6,144.77c9.21,33.23,16.44,40.9,50.95,42.68c29.26,1.51,58.76,0.7,88.01-1.22
	c11.25-0.74,23.49-5.57,26.38-20.04c4.07-20.38,11.07-40.66,11.74-61.14c1.12-34.05-1.16-68.27-3.24-102.34
	c-1.16-19.02-4.79-37.88-7.52-58.41c13.67-2.23,28.75-4.69,45.61-7.44c-0.43,8.91-0.58,19.26-1.48,29.54
	c-4.28,49.16-9.82,98.24-12.68,147.47c-1.28,22.08-4.89,46.7,18.73,62.28c8.59,5.67,17.66,11.14,24.78,18.4
	c25.76,26.3,57.21,46.12,77.58,78.93c21.53,34.68,57.32,56.37,91.84,77.23c7.73,4.67,23.22,17.13,30.89-3.88
	c0.38-1.03,2.63-1.63,4.11-1.98c26.8-6.33,53.47-13.3,80.47-18.65c24.47-4.85,49.95-5.57,73.83-12.25
	c47.42-13.27,94.05-29.37,140.99-44.35c6.93-2.21,14.09-3.99,20.6-7.11c17.88-8.56,34.77-19.74,53.35-26.12
	c19.91-6.84,27.35-16.01,22.24-36.46c-0.76-3.06-0.88-6.44-0.51-9.59c6.22-52.7,12.86-105.36,18.74-158.1
	c2.5-22.45,3.49-45.06,5.09-67.61c2.24-31.45,4.89-62.89,6.39-94.38c0.73-15.26-0.68-30.62-1.23-45.94
	c-1.34-37.44,8.35-74.95-1.18-112.4c-3.72-14.63-5.75-29.69-8.58-44.54c-6.39-33.52-13.1-66.98-19.07-100.57
	c-2.66-14.97-3.81-30.2-5.72-45.3c-3.7-29.26-5.58-58.92-11.72-87.66c-5.77-26.98-16.08-52.99-24.67-80.3
	c-7.59-1.64-16.72-6.2-24.82-4.8c-15.86,2.75-29.76,14.35-47.96,6.35c-6.57-2.89-16.53-0.18-24.27,2.18
	c-17.18,5.24-33.65,12.89-50.92,17.73c-30.87,8.64-62.12,15.93-90.02,22.98c-9.43-13.01-15.94-26.55-26.38-35.54
	c-28.68-24.71-67.4-26.99-100.79-41.51c-12.85-5.59-26.82-8.61-41.49-13.18C655.94,367.81,649.18,319.48,643.94,275.42z"/>
<path class="st0" d="M932.32,233.2c-10.55,0.6-22.08,1.88-20.56,21.22c1.83,23.4,1.14,47.01,1.31,70.53
	c0.11,16.15-1.5,32.43,0.12,48.4c1.42,13.98,12.7,16.48,25.3,15.88c12.2-0.57,13.32-8.18,13.68-17.6
	c1.5-39.03,3.29-78.05,4.9-117.08C957.75,238.06,952.92,233.39,932.32,233.2z"/>
<path class="st0" d="M702.42,323.73c0,5.15-0.54,7.01,0.08,8.34c11.31,24.47,22.18,49.17,34.47,73.15
	c4.29,8.38,25.83,11.19,29.93,4.16c4.61-7.91,15.12-16.69,3.56-28.04c-3.3-3.24-3.28-9.75-5.1-14.65
	c-8.06-21.76-15.36-43.86-24.72-65.05c-5.12-11.58-23.79-13.06-29.16-3.07C706.77,307.32,704.6,317.43,702.42,323.73z"/>
<path d="M643.94,275.42c5.24,44.06,12,92.39-3.96,139.66c14.67,4.57,28.64,7.58,41.49,13.18c33.39,14.53,72.1,16.81,100.79,41.51
	c10.44,8.99,16.96,22.53,26.38,35.54c27.9-7.05,59.15-14.33,90.02-22.98c17.27-4.83,33.74-12.49,50.92-17.73
	c7.74-2.36,17.7-5.07,24.27-2.18c18.2,8,32.1-3.6,47.96-6.35c8.1-1.41,17.24,3.16,24.82,4.8c8.59,27.31,18.9,53.32,24.67,80.3
	c6.15,28.74,8.02,58.4,11.72,87.66c1.91,15.1,3.06,30.34,5.72,45.3c5.97,33.59,12.68,67.05,19.07,100.57
	c2.83,14.86,4.86,29.91,8.58,44.54c9.53,37.45-0.16,74.96,1.18,112.4c0.55,15.31,1.96,30.68,1.23,45.94
	c-1.51,31.49-4.15,62.92-6.39,94.38c-1.6,22.54-2.59,45.16-5.09,67.61c-5.87,52.74-12.52,105.39-18.74,158.1
	c-0.37,3.14-0.26,6.53,0.51,9.59c5.11,20.46-2.33,29.62-22.24,36.46c-18.58,6.38-35.47,17.56-53.35,26.12
	c-6.51,3.12-13.68,4.9-20.6,7.11c-46.94,14.98-93.57,31.08-140.99,44.35c-23.88,6.68-49.35,7.4-73.83,12.25
	c-27,5.35-53.67,12.32-80.47,18.65c-1.48,0.35-3.74,0.94-4.11,1.98c-7.68,21-23.16,8.55-30.89,3.88
	c-34.52-20.86-70.32-42.54-91.84-77.23c-20.37-32.81-51.81-52.63-77.58-78.93c-7.11-7.26-16.19-12.73-24.78-18.4
	c-23.62-15.58-20.02-40.2-18.73-62.28c2.86-49.24,8.4-98.32,12.68-147.47c0.89-10.28,1.05-20.63,1.48-29.54
	c-16.85,2.75-31.94,5.21-45.61,7.44c2.73,20.53,6.36,39.39,7.52,58.41c2.08,34.07,4.36,68.29,3.24,102.34
	c-0.67,20.49-7.67,40.76-11.74,61.14c-2.89,14.47-15.13,19.3-26.38,20.04c-29.25,1.92-58.75,2.72-88.01,1.22
	c-34.51-1.78-41.74-9.45-50.95-42.68c-13.39-48.3-27.32-96.44-40.6-144.77c-4.9-17.84-8.23-36.12-12.96-54.01
	c-3.09-11.66-4.8-25.21-12.04-33.76c-5.63-6.66-18.96-6.58-28.63-10.12c-7.92-2.9-15.23-7.7-23.29-9.86
	c-8.9-2.38-18.37-3.96-27.54-3.73c-37.24,0.93-94.2-36.76-99.93-76.15c-2.65-18.23-0.09-38.51,5.52-56.14
	c3-9.43,3.13-17.58-1.74-21.91c-7.79-6.92-5.46-13.84-5.72-21.61c-1.25-37.92,0.09-75.53,8.52-112.77
	c4.25-18.77,6.06-38.07,9.99-56.92c6.13-29.36,17.03-56.76,29.71-84.22c11.39-24.67,27.65-43.56,45.4-62.58
	c9.72-10.42,18.5-21.78,27.03-33.21c22.69-30.4,56.51-43.42,90.03-55.12c27.81-9.71,57.22-15.56,86.35-20.59
	c22.4-3.86,45.47-3.79,67.63-5.42c-6.27-16.01-6.27-16.01-23.46-20.49c-12.52-3.26-26.68-24.71-27.31-37.81
	c-0.37-7.77-5.47-15.2-7.07-23.07c-2.39-11.75-3.76-23.73-5.08-35.66c-0.26-2.38,3.26-6.08,2.39-7.35
	c-16.43-23.76,2.74-48.8-2.91-72.81c-0.99-4.19-2.33-8.31-3.15-12.53c-0.68-3.45-1.81-7.25-1.04-10.48
	c2.9-12.04,8.16-23.73,9.52-35.89c3.13-27.83,21.65-47.1,35.81-68.81c2.53-3.87,6.86-7.36,11.15-9.14
	c11.65-4.85,22.92-7.18,24.36-24.58c0.85-10.26,52.29-30.59,63.59-27.33c5.57,1.61,12.56,5.36,14.83,10.1
	c9.67,20.18,37.83,37.18,58.98,38.65c17.14,1.19,31.91,1.08,48.74-6.06c19.71-8.36,27.1,1.63,33.38,21.8
	c9.38,30.16,16.18,62.25,41.69,85.02c4.75,4.24,7.27,11.34,9.96,17.49c10.44,23.87,12.53,48.98,6.9,74.05
	C658.77,253.96,651.3,262.37,643.94,275.42z M466.06,1005.46c2.44-27.48,4.54-56.99,7.77-86.38c5.16-46.85,10.48-93.7,17.3-140.32
	c1.03-7.06,9.3-16.02,16.28-18.64c14.68-5.51,30.63-7.86,46.21-10.66c45.26-8.12,90.6-15.81,137.03-23.86
	c-4.53-37.82-8.34-72.92-13.09-107.9c-2.65-19.52-7.12-38.78-10.25-58.24c-1.61-9.99,2.63-13.98,12.65-19.7
	c23.62-13.48,50.39-7.13,74.35-17.14c17.34-7.25,18.5-4.7,5.94-19.55c-1.93-2.29-4.82-3.78-7.27-5.63
	c-24.84-18.81-55.53-23.18-83.7-33.72c-12.77-4.78-25.95-8.46-39.44-12.8c-1.97,3.38-4.77,8.38-7.76,13.27
	c-3.37,5.51-8.02,10.52-10.14,16.46c-5.77,16.15-11.76,30.31-32.13,33.44c-20.7,3.18-41.45,14.9-61.28,13.07
	c-41.83-3.85-74.07-27.22-97.4-62.95c-8.87-13.59-18.69-29.14-32.09-36.42c-12.03-6.53-30.06-5.82-44.56-3.27
	c-39.35,6.91-78.5,15.41-117.19,25.4c-26.26,6.78-52.76,16.39-68.85,40.14c-21.46,31.68-57.19,52.77-68.02,92.17
	c-21.49,15.8-20.3,42.68-28.96,64.15c-9.48,23.49-10.83,50.69-13.2,76.51c-3.03,33.07-10.82,66.63,2.2,99.31
	c1.78,4.47,7.04,10.31,11.13,10.68c33.35,2.99,66.77,5.44,100.22,6.79c17.92,0.73,25.92-10.73,28.68-29.69
	c5-34.39,4.79-68.47,1.73-102.98c-1.43-16.08,2.63-32.59,3.31-48.94c0.65-15.69-0.72-31.49,0.42-47.13
	c1.02-13.94,14.62-14.86,24.07-16.65c4.81-0.91,14.31,5.79,16.17,11.02c1.99,5.62-3.48,13.46-3.98,20.46
	c-1.85,25.84-3.8,51.72-4.18,77.6c-0.49,33.07,2.69,66.33,0.18,99.19c-2.14,28.02-1.44,59.8-34.31,72.55
	c7.81,35.37,12.8,69.06-15.39,98.45c25.44,7.83,47.88,16.51,71.12,21.49c36.98,7.92,74.34,14.63,111.85,19.29
	c15.86,1.97,32.52-2.63,48.84-4.1C427.92,1008.65,445.52,1007.21,466.06,1005.46z M1087.84,859.67c-32.39,7.42-60.98,13.01-89,20.64
	c-37.88,10.32-74.96,23.75-113.07,33.02c-40.71,9.9-82.2,16.55-123.37,24.55c-7.48,1.45-11.22,4.21-12.1,13.35
	c-5.94,61.94-13.21,123.76-19.4,185.68c-3.76,37.6-6.71,75.29-9.38,112.98c-3.23,45.6-5.86,91.25-8.55,136.89
	c-0.51,8.73-0.07,17.51-0.07,27.14c33.9-7.87,64.08-14.77,94.2-21.89c31.55-7.46,63.8-12.94,94.4-23.26
	c43.85-14.78,86.63-32.82,129.49-50.39c6.84-2.8,15-9.42,16.91-15.92c5.43-18.51,8.3-37.81,11.48-56.92
	c2.57-15.45,4.22-31.06,6.14-46.61c3.46-27.95,7.33-55.85,10.07-83.87c2.89-29.49,4.77-59.09,6.88-88.65
	c1.94-27.34,4.3-54.68,5.18-82.06C1088.54,916.69,1087.84,888.98,1087.84,859.67z M747.63,905.89
	c112.66-15.98,220.25-54.8,331.2-81.61c-5.98-38.13-11.87-73.33-16.95-108.65c-6.56-45.66-11.4-91.58-19.07-137.04
	c-4.16-24.64-12.14-48.7-19.76-72.59c-1.09-3.41-10.94-7.33-14.92-5.92c-15.14,5.41-33.62-2.69-46.44,11.62
	c-1.06,1.18-4.14,0.62-6.3,0.74c-13.8,0.77-27.99-0.29-41.32,2.6c-36.49,7.92-72.78,16.93-108.86,26.58
	c-32.15,8.6-63.92,18.65-97.73,28.61c2.09,18.63,4.55,37.95,6.36,57.33c3.83,40.92,7.64,81.86,10.84,122.83
	c1.98,25.38,1.04,51.1,4.7,76.19C733.14,852.28,740.89,877.38,747.63,905.89z M521.47,807.82c-4.33,26.22-10.11,52.25-12.62,78.59
	c-3.66,38.57-4.96,77.36-7.3,116.05c-2.17,35.91-4.12,71.84-6.67,107.72c-2.42,34.16-6.01,68.25-8.03,102.43
	c-0.97,16.47-0.52,32.65,14.67,45.15c25.03,20.6,49.22,42.29,72.93,64.42c11.26,10.51,20.62,23.05,30.77,34.73
	c7.35,8.45,13.65,18.09,22.08,25.24c14.39,12.22,30.08,22.92,46.61,35.29c0-6.45-0.2-10.46,0.03-14.44
	c1.74-30.68,3.19-61.38,5.49-92.02c1.46-19.54,4.17-38.98,6.39-58.46c2.37-20.83,5.09-41.62,7.18-62.47
	c2.27-22.61,3.54-45.32,6.1-67.89c1.62-14.28,5.97-28.28,7.08-42.57c2.85-36.79,4.66-73.65,6.74-110.5
	c1.65-29.41-0.94-30.62-26-45.28c-18.58-10.87-34.86-25.89-51.44-39.92c-17.44-14.76-32.63-32.6-51.36-45.3
	C566.1,826.38,544.79,818.98,521.47,807.82z M592.97,462.62c6.63-16.47,15.13-30.66,17.92-45.89c6.55-35.7,11.67-71.79,14.73-107.94
	c1.51-17.83,0.92-37.66-5.52-53.87c-7.75-19.5-21.85-36.82-34.95-53.72c-7.08-9.13-16.73-18.33-27.19-22.25
	c-12.99-4.88-28.04-4.19-42.15-6.28c-2.52-0.37-5.57-1.98-7.01-4c-16.21-22.63-38.19-37.15-64.47-44.88
	c-11.11-3.27-18.21,2.27-20.16,14.36c-4.5,27.8-5.15,57.32-15.7,82.68c-7.93,19.07-9.51,37.61-13.28,56.69
	c-3.82,19.36-10.56,38.14-15.5,55.35c2.78,4.18,6.23,7.69,7.66,11.89c3.44,10.05,4.53,21.1,9.09,30.52
	c8.74,18.08,21.44,34.46,28.55,53.06c16.42,42.95,75.78,82.51,129.44,50.75c-13.5-10.48-27.46-19.45-38.88-30.96
	c-6-6.05-9.55-16.38-10.14-25.06c-0.25-3.68,9.46-10.44,15.49-11.66c15.36-3.13,27.09,4.88,37.31,15.98
	C568.9,439.02,580.37,449.93,592.97,462.62z M228.98,1031.49c8.2,33.29,15.93,68.17,25.49,102.54
	c9.66,34.71,21.14,68.9,31.83,103.32c4.1,13.21,11.2,23.03,26.76,22.24c16.07-0.82,32.13-1.93,48.18-3.13
	c25.08-1.87,32.63-11.75,31.31-37.81c-1.02-19.98,0.61-40.12-0.86-60.04c-2.24-30.19-6.2-60.26-9.35-90.39
	c-1.3-12.45-9.48-15.98-20.53-17.52C318.14,1044.66,274.54,1038.13,228.98,1031.49z M53.5,869.87c-3.41,7.79-5.26,11.94-7.06,16.11
	c-6.02,13.95-7.61,29.8,2.18,40.6c18.8,20.74,41.29,36.38,72.34,32.98c25.5-2.79,44.06-18.53,42.52-39.22
	c-0.67-9-3.19-17.87-4.82-26.8c-2.33-12.75-9.3-16.13-22.15-13.93c-9.64,1.66-20.05-0.13-29.98-1.44
	C88.74,875.83,71.04,872.67,53.5,869.87z M560.17,781.07c-0.38,1.48-0.76,2.96-1.14,4.45c60.26,20.01,96.89,72.16,145.01,103.58
	c-6.39-41.52-13.09-85.03-19.62-127.38C645.41,767.8,602.79,774.43,560.17,781.07z"/>
<path d="M932.32,233.2c20.61,0.19,25.43,4.86,24.75,21.35c-1.61,39.03-3.4,78.05-4.9,117.08c-0.36,9.42-1.48,17.03-13.68,17.6
	c-12.61,0.59-23.88-1.9-25.3-15.88c-1.62-15.97-0.01-32.26-0.12-48.4c-0.17-23.52,0.52-47.13-1.31-70.53
	C910.24,235.08,921.76,233.79,932.32,233.2z"/>
<path d="M702.42,323.73c2.18-6.3,4.36-16.41,9.06-25.16c5.37-9.99,24.04-8.52,29.16,3.07c9.36,21.19,16.66,43.29,24.72,65.05
	c1.81,4.9,1.8,11.41,5.1,14.65c11.57,11.35,1.06,20.13-3.56,28.04c-4.1,7.04-25.64,4.22-29.93-4.16
	c-12.29-23.97-23.16-48.68-34.47-73.15C701.88,330.74,702.42,328.87,702.42,323.73z"/>
<path class="st0" d="M466.06,1005.46c-20.53,1.75-38.14,3.19-55.73,4.78c-16.31,1.48-32.97,6.08-48.84,4.1
	c-37.51-4.66-74.87-11.37-111.85-19.29c-23.23-4.98-45.67-13.66-71.12-21.49c28.2-29.4,23.21-63.09,15.39-98.45
	c32.87-12.75,32.17-44.53,34.31-72.55c2.51-32.86-0.67-66.12-0.18-99.19c0.38-25.89,2.34-51.76,4.18-77.6
	c0.5-7,5.97-14.84,3.98-20.46c-1.85-5.22-11.35-11.93-16.17-11.02c-9.46,1.79-23.06,2.7-24.07,16.65
	c-1.14,15.63,0.23,31.44-0.42,47.13c-0.68,16.35-4.73,32.86-3.31,48.94c3.06,34.51,3.27,68.59-1.73,102.98
	c-2.75,18.96-10.75,30.42-28.68,29.69c-33.45-1.35-66.88-3.8-100.22-6.79c-4.08-0.37-9.34-6.21-11.13-10.68
	c-13.02-32.68-5.23-66.23-2.2-99.31c2.37-25.82,3.72-53.02,13.2-76.51c8.66-21.47,7.47-48.35,28.96-64.15
	c10.83-39.4,46.56-60.5,68.02-92.17c16.09-23.75,42.58-33.36,68.85-40.14c38.69-9.98,77.84-18.48,117.19-25.4
	c14.5-2.55,32.53-3.26,44.56,3.27c13.4,7.28,23.21,22.83,32.09,36.42c23.33,35.72,55.57,59.09,97.4,62.95
	c19.83,1.83,40.58-9.89,61.28-13.07c20.37-3.13,26.36-17.3,32.13-33.44c2.12-5.93,6.77-10.95,10.14-16.46
	c2.99-4.89,5.79-9.89,7.76-13.27c13.49,4.34,26.67,8.02,39.44,12.8c28.18,10.54,58.86,14.91,83.7,33.72
	c2.45,1.85,5.33,3.34,7.27,5.63c12.56,14.85,11.4,12.31-5.94,19.55c-23.96,10.01-50.74,3.66-74.35,17.14
	c-10.02,5.72-14.25,9.7-12.65,19.7c3.13,19.46,7.6,38.72,10.25,58.24c4.75,34.97,8.56,70.07,13.09,107.9
	c-46.43,8.05-91.77,15.75-137.03,23.86c-15.58,2.79-31.53,5.15-46.21,10.66c-6.97,2.62-15.24,11.58-16.28,18.64
	c-6.81,46.62-12.14,93.47-17.3,140.32C470.59,948.46,468.49,977.98,466.06,1005.46z M395.62,578.16
	c-14.58-0.35-22.98,5.39-23.79,19.35c-0.76,13.14,2.74,24.1,18.05,27.79c9.67,2.33,18.81,6.78,28.36,9.71
	c18.06,5.56,36.1,11.33,54.45,15.76c8.96,2.16,17.09-1.15,18.15-12.18c1.19-12.35-21.66-36.67-33.65-37.82
	c-9.52-0.92-19.22-2.97-28.12-6.39C417.54,589.94,406.74,583.65,395.62,578.16z"/>
<path class="st0" d="M1087.84,859.67c0,29.31,0.69,57.03-0.2,84.69c-0.88,27.38-3.23,54.72-5.18,82.06
	c-2.1,29.57-3.99,59.16-6.88,88.65c-2.74,28.02-6.61,55.92-10.07,83.87c-1.92,15.55-3.57,31.16-6.14,46.61
	c-3.18,19.11-6.05,38.41-11.48,56.92c-1.91,6.51-10.06,13.12-16.91,15.92c-42.86,17.56-85.64,35.6-129.49,50.39
	c-30.6,10.32-62.85,15.79-94.4,23.26c-30.12,7.12-60.29,14.02-94.2,21.89c0-9.63-0.44-18.41,0.07-27.14
	c2.68-45.64,5.32-91.29,8.55-136.89c2.67-37.69,5.62-75.38,9.38-112.98c6.19-61.92,13.46-123.73,19.4-185.68
	c0.88-9.14,4.62-11.9,12.1-13.35c41.17-8.01,82.66-14.65,123.37-24.55c38.11-9.27,75.19-22.7,113.07-33.02
	C1026.87,872.67,1055.46,867.09,1087.84,859.67z"/>
<path class="st0" d="M747.63,905.89c-6.74-28.51-14.49-53.61-18.23-79.29c-3.66-25.09-2.71-50.82-4.7-76.19
	c-3.2-40.98-7.01-81.91-10.84-122.83c-1.81-19.38-4.28-38.7-6.36-57.33c33.81-9.96,65.58-20,97.73-28.61
	c36.08-9.66,72.37-18.67,108.86-26.58c13.33-2.89,27.52-1.83,41.32-2.6c2.15-0.12,5.24,0.44,6.3-0.74
	c12.82-14.31,31.3-6.21,46.44-11.62c3.97-1.42,13.83,2.51,14.92,5.92c7.62,23.89,15.61,47.95,19.76,72.59
	c7.67,45.46,12.51,91.39,19.07,137.04c5.07,35.32,10.97,70.52,16.95,108.65C967.88,851.09,860.3,889.91,747.63,905.89z"/>
<path class="st0" d="M521.47,807.82c23.31,11.16,44.63,18.56,62.66,30.79c18.74,12.71,33.92,30.54,51.36,45.3
	c16.58,14.03,32.86,29.05,51.44,39.92c25.05,14.66,27.65,15.87,26,45.28c-2.07,36.84-3.88,73.71-6.74,110.5
	c-1.11,14.28-5.46,28.29-7.08,42.57c-2.57,22.57-3.84,45.28-6.1,67.89c-2.09,20.85-4.81,41.64-7.18,62.47
	c-2.22,19.48-4.93,38.93-6.39,58.46c-2.3,30.64-3.75,61.34-5.49,92.02c-0.23,3.98-0.03,7.99-0.03,14.44
	c-16.53-12.37-32.22-23.07-46.61-35.29c-8.43-7.16-14.73-16.8-22.08-25.24c-10.15-11.68-19.52-24.22-30.77-34.73
	c-23.71-22.13-47.89-43.82-72.93-64.42c-15.19-12.5-15.65-28.69-14.67-45.15c2.02-34.18,5.61-68.27,8.03-102.43
	c2.54-35.88,4.5-71.81,6.67-107.72c2.34-38.69,3.63-77.48,7.3-116.05C511.36,860.07,517.15,834.04,521.47,807.82z"/>
<path class="st0" d="M592.97,462.62c-12.6-12.69-24.07-23.6-34.76-35.22c-10.22-11.11-21.95-19.11-37.31-15.98
	c-6.02,1.23-15.74,7.99-15.49,11.66c0.59,8.68,4.14,19.01,10.14,25.06c11.42,11.5,25.38,20.48,38.88,30.96
	c-53.65,31.77-113.02-7.79-129.44-50.75c-7.11-18.6-19.81-34.98-28.55-53.06c-4.56-9.43-5.65-20.47-9.09-30.52
	c-1.44-4.2-4.89-7.7-7.66-11.89c4.94-17.21,11.68-35.99,15.5-55.35c3.76-19.08,5.35-37.62,13.28-56.69
	c10.54-25.36,11.19-54.88,15.7-82.68c1.96-12.09,9.05-17.63,20.16-14.36c26.28,7.72,48.26,22.25,64.47,44.88
	c1.44,2.01,4.5,3.62,7.01,4c14.11,2.09,29.15,1.4,42.15,6.28c10.46,3.93,20.11,13.12,27.19,22.25
	c13.11,16.9,27.21,34.22,34.95,53.72c6.44,16.22,7.03,36.04,5.52,53.87c-3.06,36.15-8.18,72.24-14.73,107.94
	C608.1,431.96,599.6,446.15,592.97,462.62z"/>
<path class="st0" d="M228.98,1031.49c45.56,6.64,89.16,13.17,132.82,19.22c11.05,1.53,19.22,5.07,20.53,17.52
	c3.15,30.13,7.11,60.19,9.35,90.39c1.48,19.92-0.15,40.06,0.86,60.04c1.33,26.06-6.22,35.94-31.31,37.81
	c-16.05,1.2-32.11,2.31-48.18,3.13c-15.56,0.79-22.66-9.03-26.76-22.24c-10.69-34.42-22.17-68.62-31.83-103.32
	C244.9,1099.66,237.18,1064.78,228.98,1031.49z"/>
<path class="st0" d="M53.5,869.87c17.55,2.79,35.24,5.95,53.04,8.31c9.93,1.32,20.34,3.1,29.98,1.44
	c12.85-2.21,19.82,1.18,22.15,13.93c1.63,8.93,4.15,17.8,4.82,26.8c1.53,20.69-17.02,36.43-42.52,39.22
	c-31.05,3.4-53.54-12.24-72.34-32.98c-9.79-10.8-8.2-26.65-2.18-40.6C48.24,881.81,50.08,877.66,53.5,869.87z"/>
<path class="st0" d="M560.17,781.07c42.62-6.64,85.23-13.28,124.26-19.35c6.52,42.35,13.22,85.87,19.62,127.38
	c-48.12-31.42-84.75-83.57-145.01-103.58C559.41,784.04,559.79,782.55,560.17,781.07z"/>
<path d="M395.62,578.16c11.11,5.49,21.92,11.78,33.44,16.21c8.9,3.42,18.61,5.48,28.12,6.39c11.99,1.16,34.83,25.47,33.65,37.82
	c-1.06,11.03-9.18,14.35-18.15,12.18c-18.35-4.43-36.39-10.21-54.45-15.76c-9.55-2.94-18.69-7.38-28.36-9.71
	c-15.31-3.69-18.81-14.65-18.05-27.79C372.64,583.55,381.04,577.81,395.62,578.16z"/>
</svg>
