<?xml version="1.0" encoding="utf-8"?>
<!-- Generator: Adobe Illustrator 23.1.0, SVG Export Plug-In . SVG Version: 6.00 Build 0)  -->
<svg version="1.1" id="Calque_1" xmlns="http://www.w3.org/2000/svg" xmlns:xlink="http://www.w3.org/1999/xlink" x="0px" y="0px"
	 viewBox="0 0 1070.35 1080" style="enable-background:new 0 0 1070.35 1080;" xml:space="preserve">
<style type="text/css">
	.st0{fill:#FFFFFF;}
</style>
<g>
	<g>
		<path d="M455.68,0c18.99,0,37.97,0,56.96,0c18.28,4.77,36.57,4.33,54.85,0c19.69,0,39.38,0,59.07,0
			c19.66,3.21,39.55,5.43,58.96,9.79c108.65,24.44,195.38,83.55,263.72,170.17c70,88.72,108.8,190.38,118.46,302.61
			c13.89,161.41-26.3,307.39-131.18,432.71c-66.41,79.35-149.96,132.73-251.91,155.03c-19.81,4.33-40.1,6.51-60.17,9.69
			c-18.99,0-37.97,0-56.96,0c-18.28-4.35-36.57-4.79-54.85,0c-18.99,0-37.97,0-56.96,0c-2.7-0.6-5.38-1.3-8.11-1.78
			c-23.82-4.2-48.14-6.53-71.38-12.85C255.76,1032.65,165.22,959.22,99.3,855.16C23.46,735.43-2.84,603.93,14.44,463.84
			c14.76-119.7,60.99-225.76,143.09-314.98C222.77,77.97,301.81,29.95,396.53,9.44C416.01,5.22,435.95,3.09,455.68,0z M597.88,37.23
			c-41.19-0.12-81.34,6-120.3,18.97C367.22,92.97,286.43,165.6,229.92,265.47c-70.31,124.23-88.15,257.49-58.21,396.29
			c27.27,126.46,90.15,232.02,197.24,307.4c97.09,68.33,204.75,90.39,320.56,61.65c104.88-26.03,185.85-88.04,246.83-175.83
			c78.85-113.5,107.85-240.24,93.46-377.03c-12.28-116.67-56.04-220.04-136.58-306.12C813.53,86.65,715.65,39.62,597.88,37.23z
			 M209.82,856.46c-12.46-24.08-24.11-46.78-36.02-69.34c-1.1-2.08-3.84-4.63-5.86-4.66c-21.62-0.34-43.24-0.21-68.67-0.21
			c15.64,25.59,29.74,48.78,44.08,71.84c0.85,1.37,3.51,2.25,5.34,2.27C168.93,856.52,189.18,856.46,209.82,856.46z M222.09,204.79
			c-20.11,0-39.68-0.21-59.23,0.24c-2.77,0.06-6.33,2.81-8.05,5.32c-12.1,17.62-23.89,35.46-35.59,53.35
			c-2.91,4.44-5.16,9.32-8.5,15.42c23.01,0,43.69,0.15,64.37-0.19c2.5-0.04,6-2.13,7.27-4.3
			C195.54,251.94,208.36,229.04,222.09,204.79z M121.27,558.17c0-18.82,0-36.83,0-55.1c-24.45,0-48.23,0-73.38,0
			c0,18.51,0,36.52,0,55.1C72.14,558.17,95.89,558.17,121.27,558.17z M51.29,465.62c24.58,0,46.64,0.11,68.7-0.18
			c2.08-0.03,5.64-2.31,5.95-4.01c3.1-17.02,5.66-34.13,8.41-51.47c-24.69,0-48.48,0-73.26,0C57.9,428.11,54.76,445.94,51.29,465.62
			z M57.25,651.09c25.68,0,49.41,0,73.54,0c-2.58-18.59-5.07-36.49-7.6-54.76c-24.54,0-48.27,0-73.85,0
			C52.03,614.99,54.61,632.84,57.25,651.09z M71.05,372.39c24.65,0,46.69,0.09,68.73-0.15c1.93-0.02,5-1.72,5.58-3.34
			c6.04-17.06,11.68-34.27,17.75-52.41c-22.59,0-43.97-0.15-65.34,0.2c-2.4,0.04-6.05,2.35-6.93,4.5
			C84.24,337.36,78.18,353.74,71.05,372.39z M65.91,689.09c6.25,18.47,11.74,35.05,17.6,51.5c0.62,1.74,3.36,3.86,5.13,3.88
			c22.27,0.26,44.54,0.17,67.28,0.17c-5.2-17.51-9.77-33.68-14.98-49.64c-0.81-2.47-4.55-5.61-6.98-5.66
			C112.21,688.91,90.46,689.09,65.91,689.09z M286.21,949.46c-9.69-10.42-19.35-17.78-25-27.47c-14.89-25.55-36.7-32.27-64.15-28.15
			c-6.81,1.02-13.91,0.15-20.87,0.15c-0.35,1.12-0.7,2.24-1.05,3.36c17.02,16.1,33.96,32.27,51.13,48.2
			c2.12,1.96,5.41,3.68,8.19,3.74C250.84,949.64,267.22,949.46,286.21,949.46z M305.09,111.72c-9.82,0-18.91,0.98-27.7-0.21
			c-16.37-2.22-29.05,3.75-40.69,14.47c-14.24,13.12-28.99,25.68-43.52,38.49c0.51,0.98,1.02,1.96,1.53,2.94
			c18.42,0,36.84,0.05,55.25-0.1c1.53-0.01,3.4-1.08,4.5-2.24C271.06,147.7,287.55,130.24,305.09,111.72z M395.39,1030.53
			c-17.84-11.56-36.73-21.8-53.23-35.03c-17.15-13.76-35.15-6.32-52.94-7.25C322.46,1008.56,357.62,1023.4,395.39,1030.53z
			 M395.77,50.33c-0.33-1.24-0.66-2.49-1-3.73c-23.04,8.07-46.08,16.13-71.77,25.12C355.25,82.24,373.79,61.22,395.77,50.33z"/>
		<path class="st0" d="M567.49,0c-18.28,4.33-36.57,4.77-54.85,0C530.92,0,549.2,0,567.49,0z"/>
		<path class="st0" d="M512.64,1080c18.28-4.79,36.57-4.35,54.85,0C549.2,1080,530.92,1080,512.64,1080z"/>
		<path class="st0" d="M597.88,37.23c117.77,2.39,215.64,49.42,295.34,134.6c80.53,86.08,124.3,189.45,136.58,306.12
			c14.4,136.78-14.61,263.53-93.46,377.03c-60.99,87.79-141.95,149.8-246.83,175.83c-115.81,28.74-223.47,6.69-320.56-61.65
			c-107.1-75.38-169.97-180.94-197.24-307.4c-29.93-138.81-12.1-272.06,58.21-396.29c56.52-99.86,137.3-172.5,247.66-209.26
			C516.54,43.23,556.69,37.11,597.88,37.23z M586.46,959.48c1.44,0,3.54-0.02,5.65,0c14.58,0.19,23.19-6.64,23.21-18.44
			c0.02-10.85-8.82-18.39-22.19-19.1c-10.16-0.53-20.32-1.29-30.48-1.85c-12.4-0.69-21.44,6.49-22.15,17.48
			c-0.67,10.3,7.12,18.61,19.01,19.83C568.25,958.31,577.03,958.77,586.46,959.48z M360.73,815.68c-0.66-0.66-1.31-1.33-1.97-1.99
			c-0.5-2.02-0.46-4.43-1.6-5.99c-9.2-12.73-17.81-26.01-28.26-37.64c-6.25-6.96-15.56-5.88-22.86,0.4
			c-7.25,6.24-9.32,14.67-4.15,22.67c7.58,11.73,16.08,22.94,25.01,33.69c5.06,6.1,13.1,8.42,19.96,3.96
			C352.41,827.16,356.18,820.81,360.73,815.68z M472.35,903.05c-1.63-2.37-3.9-8.48-8.29-11.49c-10.93-7.5-22.63-13.98-34.4-20.13
			c-8.7-4.55-18.84-1.03-23.71,7.12c-4.79,8.01-3.75,18.21,4.22,23.52c11.9,7.94,24.23,15.53,37.22,21.42
			C459.48,928.97,472.4,919.31,472.35,903.05z M272.82,413.61c2.35-1.78,9.14-4.37,11.49-9.15c6.28-12.8,11.3-26.34,15.54-39.98
			c2.86-9.18-2.59-17.63-11.45-20.87c-9.25-3.39-17.64-0.75-21.66,7.57c-6.35,13.15-11.85,26.94-15.7,41
			C247.82,403.96,257.22,413.86,272.82,413.61z M930.89,447.5c14.78-0.06,23.14-10.86,19.92-23.9
			c-2.85-11.52-6.35-22.91-10.14-34.17c-3.81-11.31-13.72-16.53-23.76-13.26c-9.7,3.15-14.7,12.59-11.77,23.69
			c3.11,11.82,6.67,23.54,10.49,35.16C918.31,443.18,924.41,447.34,930.89,447.5z M505.3,163.19c0.01-17.45-12.66-26.08-26.05-21.1
			c-11.44,4.26-22.58,9.42-33.55,14.81c-10.2,5.02-13.75,15.19-9.44,24.57c4.41,9.58,14.07,13.31,24.72,8.99
			c11-4.47,22.29-8.6,32.49-14.53C499.12,172.64,502.81,165.99,505.3,163.19z M892.83,298.89c-0.91-5.02-0.66-7.51-1.75-9.04
			c-9.54-13.29-18.46-27.18-29.37-39.26c-6.25-6.92-15.75-5.21-22.77,1.26c-7.05,6.49-8.46,14.96-3.24,22.85
			c7.51,11.36,15.24,22.9,24.79,32.44c4.14,4.13,13.73,5.86,19.64,4.26C885.56,309.93,889.39,302.52,892.83,298.89z M287.48,682.43
			c-3.86-12.27-7.68-27.58-13.62-42.03c-3.32-8.08-11.77-10.67-20.61-7.91c-8.74,2.73-14.49,9.26-12.69,18.04
			c3.08,14.97,7.33,29.86,12.85,44.11c3.13,8.1,11.4,11.14,20.35,8.55C282.49,700.66,287,694.57,287.48,682.43z M871.35,809.19
			c-1.93-2.52-4.79-9.76-9.8-11.85c-5.5-2.29-15.18-2.41-19.19,1.03c-11.05,9.48-21.06,20.62-29.39,32.56
			c-3.07,4.41-2.61,14.43,0.47,19.09c3.08,4.66,11.4,7.91,17.51,8.04C841.55,858.29,871.13,823.81,871.35,809.19z M787.67,188.07
			c-1.57-2.35-3.73-8.51-8.07-11.5c-10.9-7.5-22.54-14.05-34.37-20.04c-9.31-4.71-19.53-0.73-24.18,8.07
			c-4.48,8.47-2.26,18.48,6.33,23.94c10.9,6.93,22.06,13.56,33.57,19.41C773.54,214.35,787.73,205.25,787.67,188.07z M738.76,885.46
			c-15.56,7.6-31.68,14.26-46.42,23.21c-6.96,4.23-6.65,13.52-2.61,21.04c4.4,8.18,12.22,11.61,20.44,8.65
			c13.74-4.96,27.17-11.06,40.1-17.88c7.67-4.05,9.09-12.33,6.71-20.33C754.53,891.92,748.34,887.73,738.76,885.46z M338.47,286.87
			c5.62-2.71,10.14-3.66,12.82-6.4c9.74-10.01,19.31-20.26,28.06-31.13c5.76-7.16,3.87-17.76-2.74-23.8
			c-6.53-5.97-17.49-6.99-23.96-0.59c-10.16,10.06-20.16,20.55-28.36,32.17c-3.02,4.27-2.77,13.26-0.33,18.31
			C326.38,280.42,333.46,283.16,338.47,286.87z M227.14,521.61c-0.2,0-0.39,0-0.59,0c0,5.97-0.02,11.94,0.02,17.9
			c0.01,1.05,0.17,2.1,0.34,3.14c1.65,9.54,8.86,15.99,17.99,16.12c9.31,0.13,17.76-6.94,18.58-16.69
			c1.06-12.58,1.63-25.24,1.71-37.87c0.07-10.68-7.44-18.46-17.24-19.08c-10.32-0.65-18.73,6.55-19.89,17.54
			C227.4,508.94,227.43,515.29,227.14,521.61z M605.31,120.55c-1.75,0-3.5,0-5.25,0c-14.6-0.04-22.96,6.72-22.93,18.56
			c0.03,11.19,8.34,18.29,21.97,18.95c9.79,0.48,19.56,1.17,29.35,1.76c11.89,0.72,20.68-5.97,21.68-16.47
			c1.08-11.39-6.1-19.57-18.62-20.81C622.8,121.67,614.05,121.19,605.31,120.55z M920.62,665.21c-2.77,2.01-10.27,4.74-12.97,9.95
			c-6.37,12.32-11.04,25.64-15.25,38.92c-2.91,9.19,2.35,18.17,10.65,21.45c8.95,3.53,19.11,0.38,23.19-8.68
			c5.58-12.38,10.7-25.09,14.59-38.09C944.37,676.92,936.33,666.38,920.62,665.21z M963.94,557.41c0.44,0,0.87,0,1.31,0
			c0-5.95,0.27-11.91-0.06-17.84c-0.63-11.53-7.92-18.69-18.51-18.61c-9.75,0.07-17.65,7.43-18.39,17.88
			c-0.84,11.86-1.45,23.75-1.57,35.64c-0.11,11.1,7.51,19.24,17.67,19.84c9.9,0.59,18.49-7.08,19.45-18.04
			C964.39,570.04,963.94,563.71,963.94,557.41z"/>
		<path class="st0" d="M209.82,856.46c-20.64,0-40.89,0.06-61.13-0.1c-1.83-0.01-4.49-0.9-5.34-2.27
			c-14.33-23.06-28.44-46.25-44.08-71.84c25.42,0,47.05-0.13,68.67,0.21c2.02,0.03,4.76,2.59,5.86,4.66
			C185.71,809.68,197.37,832.38,209.82,856.46z"/>
		<path class="st0" d="M222.09,204.79c-13.73,24.26-26.55,47.15-39.74,69.83c-1.26,2.17-4.77,4.26-7.27,4.3
			c-20.68,0.34-41.36,0.19-64.37,0.19c3.34-6.11,5.59-10.98,8.5-15.42c11.71-17.89,23.5-35.73,35.59-53.35
			c1.72-2.51,5.28-5.25,8.05-5.32C182.41,204.57,201.98,204.79,222.09,204.79z"/>
		<path class="st0" d="M121.27,558.17c-25.38,0-49.13,0-73.38,0c0-18.58,0-36.58,0-55.1c25.15,0,48.93,0,73.38,0
			C121.27,521.34,121.27,539.35,121.27,558.17z"/>
		<path class="st0" d="M51.29,465.62c3.47-19.68,6.61-37.52,9.81-55.65c24.78,0,48.57,0,73.26,0c-2.75,17.33-5.31,34.45-8.41,51.47
			c-0.31,1.7-3.87,3.98-5.95,4.01C97.94,465.73,75.87,465.62,51.29,465.62z"/>
		<path class="st0" d="M57.25,651.09c-2.64-18.25-5.22-36.1-7.91-54.76c25.58,0,49.31,0,73.85,0c2.54,18.27,5.02,36.18,7.6,54.76
			C106.66,651.09,82.93,651.09,57.25,651.09z"/>
		<path class="st0" d="M71.05,372.39c7.12-18.65,13.18-35.03,19.79-51.19c0.88-2.15,4.53-4.46,6.93-4.5
			c21.37-0.35,42.75-0.2,65.34-0.2c-6.08,18.14-11.71,35.34-17.75,52.41c-0.57,1.62-3.65,3.32-5.58,3.34
			C117.75,372.47,95.71,372.39,71.05,372.39z"/>
		<path class="st0" d="M65.91,689.09c24.55,0,46.3-0.18,68.04,0.26c2.44,0.05,6.18,3.19,6.98,5.66
			c5.22,15.96,9.78,32.13,14.98,49.64c-22.73,0-45.01,0.09-67.28-0.17c-1.78-0.02-4.51-2.14-5.13-3.88
			C77.65,724.14,72.16,707.56,65.91,689.09z"/>
		<path class="st0" d="M286.21,949.46c-18.99,0-35.38,0.18-51.75-0.17c-2.78-0.06-6.08-1.78-8.19-3.74
			c-17.17-15.93-34.12-32.1-51.13-48.2c0.35-1.12,0.7-2.24,1.05-3.36c6.97,0,14.06,0.87,20.87-0.15
			c27.46-4.12,49.26,2.6,64.15,28.15C266.86,931.68,276.52,939.04,286.21,949.46z"/>
		<path class="st0" d="M305.09,111.72c-17.54,18.52-34.03,35.98-50.63,53.35c-1.11,1.16-2.98,2.23-4.5,2.24
			c-18.42,0.15-36.83,0.1-55.25,0.1c-0.51-0.98-1.02-1.96-1.53-2.94c14.53-12.8,29.28-25.37,43.52-38.49
			c11.64-10.72,24.32-16.7,40.69-14.47C286.18,112.7,295.27,111.72,305.09,111.72z"/>
		<path class="st0" d="M395.39,1030.53c-37.77-7.14-72.93-21.97-106.17-42.28c17.79,0.93,35.79-6.51,52.94,7.25
			C358.66,1008.73,377.55,1018.98,395.39,1030.53z"/>
		<path class="st0" d="M395.77,50.33c-21.98,10.9-40.53,31.91-72.77,21.4c25.69-8.99,48.73-17.06,71.77-25.12
			C395.11,47.84,395.44,49.09,395.77,50.33z"/>
		<path d="M586.46,959.48c-9.44-0.71-18.21-1.17-26.94-2.07c-11.89-1.22-19.68-9.53-19.01-19.83c0.71-11,9.76-18.18,22.15-17.48
			c10.16,0.57,20.31,1.32,30.48,1.85c13.37,0.7,22.21,8.24,22.19,19.1c-0.03,11.8-8.64,18.63-23.21,18.44
			C590.01,959.46,587.9,959.48,586.46,959.48z"/>
		<path d="M360.73,815.68c-4.56,5.13-8.32,11.48-13.87,15.09c-6.86,4.46-14.89,2.14-19.96-3.96c-8.93-10.75-17.43-21.96-25.01-33.69
			c-5.17-8-3.11-16.43,4.15-22.67c7.3-6.28,16.61-7.36,22.86-0.4c10.45,11.63,19.07,24.92,28.26,37.64c1.13,1.57,1.09,3.98,1.6,5.99
			C359.42,814.35,360.08,815.01,360.73,815.68z"/>
		<path d="M472.35,903.05c0.05,16.27-12.87,25.92-24.95,20.45c-12.99-5.89-25.33-13.49-37.22-21.42
			c-7.97-5.31-9.01-15.51-4.22-23.52c4.87-8.15,15.01-11.67,23.71-7.12c11.77,6.15,23.47,12.63,34.4,20.13
			C468.45,894.57,470.72,900.68,472.35,903.05z"/>
		<path d="M272.82,413.61c-15.59,0.25-25-9.65-21.78-21.43c3.85-14.07,9.35-27.85,15.7-41c4.02-8.32,12.41-10.96,21.66-7.57
			c8.86,3.25,14.3,11.69,11.45,20.87c-4.24,13.64-9.27,27.17-15.54,39.98C281.96,409.24,275.17,411.83,272.82,413.61z"/>
		<path d="M930.89,447.5c-6.48-0.16-12.58-4.32-15.27-12.48c-3.82-11.61-7.38-23.33-10.49-35.16c-2.92-11.11,2.07-20.54,11.77-23.69
			c10.05-3.27,19.96,1.95,23.76,13.26c3.79,11.25,7.29,22.64,10.14,34.17C954.03,436.64,945.68,447.44,930.89,447.5z"/>
		<path d="M505.3,163.19c-2.49,2.79-6.18,9.45-11.83,12.73c-10.2,5.93-21.49,10.06-32.49,14.53c-10.65,4.32-20.31,0.6-24.72-8.99
			c-4.32-9.38-0.77-19.55,9.44-24.57c10.97-5.39,22.11-10.55,33.55-14.81C492.63,137.11,505.31,145.74,505.3,163.19z"/>
		<path d="M892.83,298.89c-3.43,3.63-7.26,11.03-12.7,12.5c-5.92,1.6-15.5-0.13-19.64-4.26c-9.56-9.54-17.28-21.08-24.79-32.44
			c-5.22-7.89-3.81-16.35,3.24-22.85c7.02-6.47,16.52-8.18,22.77-1.26c10.91,12.08,19.83,25.97,29.37,39.26
			C892.17,291.38,891.92,293.88,892.83,298.89z"/>
		<path d="M287.48,682.43c-0.47,12.14-4.98,18.23-13.72,20.76c-8.94,2.59-17.21-0.45-20.35-8.55c-5.51-14.25-9.77-29.14-12.85-44.11
			c-1.8-8.78,3.95-15.31,12.69-18.04c8.84-2.76,17.29-0.17,20.61,7.91C279.79,654.85,283.62,670.17,287.48,682.43z"/>
		<path d="M871.35,809.19c-0.22,14.62-29.8,49.1-40.39,48.87c-6.11-0.13-14.43-3.38-17.51-8.04c-3.08-4.66-3.54-14.68-0.47-19.09
			c8.33-11.94,18.35-23.08,29.39-32.56c4-3.43,13.68-3.32,19.19-1.03C866.56,799.43,869.42,806.67,871.35,809.19z"/>
		<path d="M787.67,188.07c0.06,17.18-14.13,26.28-26.72,19.88c-11.51-5.85-22.66-12.48-33.57-19.41
			c-8.59-5.46-10.81-15.47-6.33-23.94c4.65-8.8,14.87-12.78,24.18-8.07c11.82,5.99,23.46,12.54,34.37,20.04
			C783.94,179.56,786.09,185.72,787.67,188.07z"/>
		<path d="M738.76,885.46c9.58,2.27,15.77,6.46,18.22,14.68c2.38,8,0.96,16.29-6.71,20.33c-12.93,6.82-26.36,12.93-40.1,17.88
			c-8.23,2.97-16.04-0.47-20.44-8.65c-4.04-7.51-4.35-16.81,2.61-21.04C707.08,899.72,723.21,893.06,738.76,885.46z"/>
		<path d="M338.47,286.87c-5.01-3.71-12.09-6.45-14.5-11.44c-2.45-5.05-2.69-14.03,0.33-18.31c8.21-11.62,18.21-22.11,28.36-32.17
			c6.46-6.4,17.43-5.38,23.96,0.59c6.61,6.05,8.5,16.64,2.74,23.8c-8.75,10.87-18.32,21.12-28.06,31.13
			C348.61,283.21,344.09,284.16,338.47,286.87z"/>
		<path d="M227.14,521.61c0.28-6.32,0.26-12.66,0.92-18.94c1.16-10.99,9.56-18.19,19.89-17.54c9.8,0.62,17.31,8.39,17.24,19.08
			c-0.08,12.63-0.65,25.28-1.71,37.87c-0.82,9.75-9.27,16.82-18.58,16.69c-9.12-0.13-16.33-6.58-17.99-16.12
			c-0.18-1.03-0.34-2.09-0.34-3.14c-0.03-5.97-0.02-11.94-0.02-17.9C226.75,521.6,226.95,521.61,227.14,521.61z"/>
		<path d="M605.31,120.55c8.74,0.65,17.48,1.12,26.19,1.99c12.52,1.24,19.7,9.43,18.62,20.81c-1,10.5-9.79,17.19-21.68,16.47
			c-9.78-0.59-19.56-1.28-29.35-1.76c-13.63-0.67-21.94-7.76-21.97-18.95c-0.03-11.84,8.33-18.6,22.93-18.56
			C601.81,120.56,603.56,120.55,605.31,120.55z"/>
		<path d="M920.62,665.21c15.71,1.17,23.75,11.71,20.21,23.55c-3.89,13-9.01,25.7-14.59,38.09c-4.08,9.06-14.24,12.21-23.19,8.68
			c-8.3-3.28-13.55-12.26-10.65-21.45c4.2-13.28,8.88-26.6,15.25-38.92C910.35,669.95,917.85,667.22,920.62,665.21z"/>
		<path d="M963.94,557.41c0,6.29,0.45,12.62-0.1,18.87c-0.96,10.97-9.55,18.63-19.45,18.04c-10.16-0.6-17.78-8.75-17.67-19.84
			c0.12-11.88,0.73-23.78,1.57-35.64c0.74-10.45,8.64-17.81,18.39-17.88c10.6-0.07,17.88,7.08,18.51,18.61
			c0.32,5.93,0.06,11.89,0.06,17.84C964.81,557.41,964.38,557.41,963.94,557.41z"/>
	</g>
</g>
</svg>
