<?xml version="1.0" encoding="utf-8"?>
<!-- Generator: Adobe Illustrator 23.1.0, SVG Export Plug-In . SVG Version: 6.00 Build 0)  -->
<svg version="1.1" id="Calque_1" xmlns="http://www.w3.org/2000/svg" xmlns:xlink="http://www.w3.org/1999/xlink" x="0px" y="0px"
	 viewBox="0 0 358.6 368.41" style="enable-background:new 0 0 358.6 368.41;" xml:space="preserve">
<style type="text/css">
	.st0{fill:#FFFFFF;}
</style>
<g>
	<g>
		<path d="M198,0c3.04,0,6.08,0,9.12,0c0.71,0.09,1.42,0.2,2.13,0.28c18.04,2.09,34.85,8.56,51.88,14.32
			c10.13,3.43,19.41,7.81,25.71,16.96c1.57,2.29,3.54,4.32,5.42,6.37c12.2,13.3,26.11,25.42,36.26,40.14
			c14.79,21.45,27.76,44.4,30.28,71.39c0,6.56,0,13.11,0,19.67c-0.21,2.52-0.59,5.05-0.61,7.57c-0.05,7.95,0.84,16.01-0.15,23.83
			c-1.31,10.32-3.51,20.61-6.31,30.63c-3.7,13.22-7.73,26.43-12.84,39.16c-2.85,7.09-8.11,13.23-12.38,19.73
			c-4.09,6.23-7.6,13.04-12.62,18.42c-8.97,9.61-18.86,18.37-28.43,27.41c-1.66,1.57-3.48,3.13-5.49,4.17
			c-12.18,6.3-23.97,13.73-36.77,18.39c-26.85,9.78-55.53,6.95-83.39,9.76c-7.84,0.79-15.82,0.22-23.73,0.27c-0.64,0-1.28,0-1.92,0
			c-5.53-1.53-11.23-2.63-16.55-4.71c-5.82-2.27-11.17-5.72-16.94-8.15c-13.35-5.63-23.64-15.38-34.73-24.26
			c-27.59-22.1-44.59-51.1-54.31-84.23c-5.6-19.1-7.87-39.18-11.64-58.82c0-4,0-8,0-12c1.57-8.64,3.24-17.26,4.7-25.92
			c3.01-17.95,7.13-35.46,15.81-51.77C31.94,77.15,48.9,60.52,65.69,43.39c21.89-22.34,49.3-31.37,78.78-36.21
			C162.23,4.27,180.15,2.36,198,0z M54.9,183.31c0.91,21.53,1.31,40.58,9.44,58.51c4.66,10.27,7.26,21.65,12.95,31.25
			c27.96,47.22,67.99,76.32,124.52,76.38c16.12,0.02,32.54-4.64,48.28-9.08c15.74-4.44,26.59-17.13,38.76-27.39
			c12.78-10.77,20.18-25.67,29.24-39.06c19.11-28.25,27.7-60.24,27.61-94.41c-0.02-6.54-0.62-13.08-0.95-19.62
			c-1.69-33.89-18.64-60.95-38.97-86.41c-5.14-6.44-11.94-11.66-16.49-18.44c-5.9-8.79-12.96-15.84-22.08-20.99
			c-16.89-9.55-34.99-14.6-54.4-15.87c-13.83-0.9-27.85-3.25-41.24,0.72c-22.64,6.73-44.39,15.62-60.73,33.95
			c-7.46,8.36-16.53,15.62-22.52,24.89c-15.07,23.31-25.29,49.04-31.55,76.03C54.39,164.02,55.34,175.05,54.9,183.31z M52.89,289.71
			c5.81,0,11.41,0.1,16.99-0.14c0.64-0.03,1.99-2.34,1.69-2.91c-3.42-6.64-6.88-13.28-10.83-19.6c-1.08-1.72-3.79-3.29-5.83-3.39
			c-6.17-0.3-12.37,0.26-18.55,0.27c-3.64,0.01-3.72,2.01-2.61,4.4c2.2,4.79,4.93,9.35,6.93,14.21
			C43.05,288.33,46.6,291.46,52.89,289.71z M88.23,322.06c2.24-0.52,4.48-1.01,6.68-1.62c0.24-0.07,0.53-1.1,0.34-1.35
			c-3.95-5.23-7.89-10.48-12.04-15.56c-0.92-1.12-2.62-2.25-3.98-2.26c-7.51-0.08-15.03,0.16-22.54,0.39
			c-0.56,0.02-1.29,0.7-1.59,1.26c-0.2,0.37,0.08,1.23,0.43,1.61c3.34,3.6,6.43,7.55,10.23,10.6c3.5,2.81,7.58,5.3,11.81,6.71
			C80.77,322.91,84.6,322.06,88.23,322.06z M29.48,174.91c-3.56,0-7.12-0.05-10.67,0.06c-0.49,0.02-1.37,0.84-1.38,1.31
			c-0.1,5.47-0.09,10.95-0.01,16.42c0.01,0.44,0.77,1.24,1.19,1.24c5.87,0.08,11.78,0.38,17.61-0.14c1.88-0.17,4.72-2.26,5.12-3.94
			c0.92-3.89,0.82-8.08,0.65-12.12c-0.04-0.98-1.89-2.56-3.05-2.7C35.82,174.66,32.63,174.91,29.48,174.91z M32.82,222.56
			c3.44,0,6.88,0.05,10.32-0.06c0.49-0.02,1.34-0.84,1.35-1.32c0.12-3.31,0.14-6.64,0.03-9.95c-0.11-3.39-1.7-5.7-5.35-5.84
			c-6.07-0.22-12.15-0.54-18.2-0.25c-1.27,0.06-3.5,2.6-3.42,3.89c0.17,3.08,1.67,6.05,2.23,9.14c0.65,3.62,2.43,4.97,6.09,4.45
			C28.14,222.3,30.5,222.57,32.82,222.56z M31.57,161.87c2.48,0,5-0.32,7.42,0.07c4.16,0.67,5.78-1.14,5.96-5.01
			c0.12-2.63,0.5-5.24,0.52-7.87c0.02-3.01-1.45-5.15-4.65-5.03c-4.84,0.18-9.68,0.68-14.51,1.14c-3.35,0.32-5.26,2.28-5.74,5.6
			c-0.45,3.12-0.94,6.23-1.19,9.37c-0.04,0.54,0.97,1.64,1.53,1.66C24.46,161.95,28.01,161.87,31.57,161.87z M38.53,130
			c3.4,0,6.79,0.02,10.19-0.02c0.5-0.01,1.33-0.22,1.44-0.53c1.78-5.15,3.5-10.31,5.09-15.52c0.11-0.35-0.94-1.51-1.46-1.52
			c-5.67-0.1-11.35-0.1-17.02-0.02c-3.41,0.05-5.91,1.48-6.78,5.05c-0.9,3.68-1.9,7.34-2.71,11.05c-0.09,0.4,0.75,1.43,1.18,1.45
			C31.82,130.06,35.17,130,38.53,130z M38.56,98.52c0.86-0.08,1.16-0.09,1.46-0.13c6.42-0.92,12.93-1.48,19.22-2.95
			c2.4-0.56,4.91-2.83,6.29-5.01c2.05-3.22,3.17-7.04,4.57-10.65c0.12-0.32-0.59-1.4-0.92-1.4c-5.59-0.1-11.19-0.18-16.78-0.02
			c-1.28,0.03-3.15,0.6-3.69,1.53C45.22,85.87,42.04,92.03,38.56,98.52z M36.1,251.58c0-0.01,0-0.02,0-0.02c2.64,0,5.32,0.3,7.9-0.1
			c1.83-0.29,4.58-1.15,5.03-2.43c0.86-2.42,0.55-5.34,0.38-8.03c-0.23-3.59-2.48-5.48-5.98-5.61c-4.51-0.17-9.06-0.48-13.52-0.02
			c-2.18,0.23-6.03,2.2-5.96,3.15c0.32,4.25,1.45,8.55,3.08,12.51c0.36,0.87,3.96,0.43,6.08,0.54
			C34.1,251.63,35.1,251.58,36.1,251.58z M125.08,343.39c-1.24-5.48-6.64-11.2-12.35-11.25c-7.59-0.07-15.18,0.97-22.77,1.61
			c-0.06,0.01-0.27,1.1-0.04,1.44c4.99,7.31,19.71,12.19,28.02,9.51C120.2,343.96,122.65,343.82,125.08,343.39z M64.22,62.16
			c10.82,1.55,28.37-8.12,32.98-18.11C88.91,40.61,66.4,52.93,64.22,62.16z M151.6,356.45c0.08-0.56,0.16-1.12,0.24-1.69
			c-7.08-1.02-14.17-2.04-21.25-3.06c-0.07,0.49-0.14,0.99-0.21,1.48C136.96,357.47,144.31,356.79,151.6,356.45z M117.99,28.08
			c-1.05-0.38-1.71-0.89-2.09-0.72c-2.16,0.93-4.26,1.97-6.34,3.08c-0.28,0.15-0.49,0.98-0.33,1.28c0.16,0.29,0.94,0.55,1.25,0.41
			c1.91-0.89,3.78-1.89,5.64-2.87C116.6,29.01,117.02,28.7,117.99,28.08z"/>
		<path class="st0" d="M54.9,183.31c0.44-8.26-0.51-19.29,1.87-29.54c6.27-26.98,16.48-52.72,31.55-76.03
			c5.99-9.27,15.06-16.53,22.52-24.89c16.34-18.33,38.1-27.22,60.73-33.95c13.38-3.98,27.41-1.63,41.24-0.72
			c19.41,1.27,37.51,6.31,54.4,15.87c9.11,5.15,16.18,12.2,22.08,20.99c4.55,6.78,11.35,12,16.49,18.44
			c20.33,25.45,37.28,52.52,38.97,86.41c0.33,6.54,0.93,13.08,0.95,19.62c0.09,34.17-8.49,66.16-27.61,94.41
			c-9.06,13.39-16.47,28.29-29.24,39.06c-12.17,10.26-23.02,22.96-38.76,27.39c-15.74,4.44-32.16,9.09-48.28,9.08
			c-56.54-0.06-96.56-29.16-124.52-76.38c-5.69-9.6-8.29-20.98-12.95-31.25C56.21,223.89,55.81,204.83,54.9,183.31z M199.88,44.79
			c-2.68,0.17-7.01,0.29-11.29,0.75c-8.01,0.86-16.39,0.74-23.9,3.22c-7.85,2.59-15.17,7.28-22.16,11.89
			c-12.65,8.35-20.7,21.17-30.22,32.55c-14.26,17.05-21.62,37.17-27,58.34c-3.37,13.27-6.51,26.49-5.06,40.3
			c1.87,17.76,7.61,34.49,13.61,51.18c6.47,18,19.33,31.33,33.16,43.39c25.31,22.07,53.09,33.61,88.29,23.77
			c42.51-11.89,73.87-35.64,91.6-75.95c5.88-13.38,9.81-27.96,12.22-42.39c1.45-8.65-0.99-18.25-3.02-27.11
			c-4.73-20.6-12.3-40.15-24.06-57.9c-11.07-16.7-21.46-33.87-40.65-43.09c-6.42-3.09-11.62-8.65-17.95-12.01
			C223.57,46.47,212.63,44.89,199.88,44.79z"/>
		<path class="st0" d="M52.89,289.71c-6.3,1.75-9.85-1.38-12.22-7.16c-2-4.86-4.73-9.42-6.93-14.21c-1.1-2.4-1.02-4.39,2.61-4.4
			c6.19-0.02,12.39-0.57,18.55-0.27c2.04,0.1,4.75,1.67,5.83,3.39c3.95,6.32,7.41,12.96,10.83,19.6c0.3,0.58-1.05,2.89-1.69,2.91
			C64.3,289.82,58.7,289.71,52.89,289.71z"/>
		<path class="st0" d="M88.23,322.06c-3.63,0-7.46,0.85-10.65-0.21c-4.23-1.41-8.3-3.89-11.81-6.71c-3.8-3.05-6.89-7-10.23-10.6
			c-0.35-0.38-0.63-1.24-0.43-1.61c0.3-0.56,1.02-1.25,1.59-1.26c7.51-0.23,15.03-0.47,22.54-0.39c1.35,0.01,3.06,1.14,3.98,2.26
			c4.15,5.08,8.08,10.33,12.04,15.56c0.19,0.25-0.1,1.28-0.34,1.35C92.71,321.05,90.47,321.53,88.23,322.06z"/>
		<path class="st0" d="M29.48,174.91c3.16,0,6.34-0.25,9.46,0.13c1.16,0.14,3,1.72,3.05,2.7c0.17,4.05,0.27,8.23-0.65,12.12
			c-0.4,1.68-3.23,3.78-5.12,3.94c-5.83,0.51-11.73,0.22-17.61,0.14c-0.42-0.01-1.18-0.8-1.19-1.24
			c-0.08-5.47-0.09-10.95,0.01-16.42c0.01-0.46,0.89-1.29,1.38-1.31C22.36,174.86,25.92,174.91,29.48,174.91z"/>
		<path class="st0" d="M32.82,222.56c-2.32,0-4.68-0.27-6.95,0.06c-3.66,0.53-5.45-0.82-6.09-4.45c-0.55-3.09-2.06-6.06-2.23-9.14
			c-0.07-1.29,2.15-3.83,3.42-3.89c6.05-0.28,12.14,0.03,18.2,0.25c3.65,0.13,5.23,2.44,5.35,5.84c0.11,3.31,0.08,6.64-0.03,9.95
			c-0.02,0.47-0.87,1.3-1.35,1.32C39.7,222.62,36.26,222.56,32.82,222.56z"/>
		<path class="st0" d="M31.57,161.87c-3.56,0-7.11,0.08-10.66-0.08c-0.56-0.02-1.57-1.13-1.53-1.66c0.26-3.13,0.75-6.25,1.19-9.37
			c0.48-3.32,2.39-5.27,5.74-5.6c4.83-0.46,9.67-0.96,14.51-1.14c3.2-0.12,4.67,2.02,4.65,5.03c-0.02,2.62-0.4,5.24-0.52,7.87
			c-0.18,3.87-1.8,5.68-5.96,5.01C36.57,161.55,34.05,161.87,31.57,161.87z"/>
		<path class="st0" d="M38.53,130c-3.36,0-6.72,0.06-10.07-0.07c-0.43-0.02-1.27-1.05-1.18-1.45c0.81-3.7,1.82-7.36,2.71-11.05
			c0.87-3.58,3.37-5.01,6.78-5.05c5.67-0.08,11.35-0.08,17.02,0.02c0.52,0.01,1.57,1.17,1.46,1.52c-1.59,5.21-3.31,10.37-5.09,15.52
			c-0.11,0.31-0.94,0.52-1.44,0.53C45.33,130.03,41.93,130,38.53,130z"/>
		<path class="st0" d="M38.56,98.52c3.48-6.49,6.67-12.65,10.14-18.65c0.54-0.93,2.41-1.49,3.69-1.53
			c5.59-0.15,11.19-0.08,16.78,0.02c0.34,0.01,1.05,1.08,0.92,1.4c-1.4,3.61-2.52,7.43-4.57,10.65c-1.38,2.18-3.89,4.45-6.29,5.01
			c-6.29,1.47-12.8,2.03-19.22,2.95C39.72,98.43,39.41,98.44,38.56,98.52z"/>
		<path class="st0" d="M36.1,251.58c-1,0-2,0.05-3-0.01c-2.11-0.12-5.72,0.33-6.08-0.54c-1.63-3.95-2.76-8.26-3.08-12.51
			c-0.07-0.95,3.78-2.93,5.96-3.15c4.46-0.46,9.01-0.16,13.52,0.02c3.5,0.14,5.75,2.02,5.98,5.61c0.17,2.69,0.48,5.6-0.38,8.03
			c-0.45,1.28-3.2,2.14-5.03,2.43c-2.57,0.41-5.26,0.1-7.9,0.1C36.1,251.57,36.1,251.57,36.1,251.58z"/>
		<path class="st0" d="M125.08,343.39c-2.43,0.42-4.88,0.57-7.14,1.3c-8.31,2.68-23.03-2.19-28.02-9.51
			c-0.23-0.34-0.03-1.43,0.04-1.44c7.59-0.63,15.18-1.67,22.77-1.61C118.44,332.19,123.84,337.91,125.08,343.39z"/>
		<path class="st0" d="M64.22,62.16c2.18-9.23,24.7-21.55,32.98-18.11C92.59,54.04,75.04,63.71,64.22,62.16z"/>
		<path class="st0" d="M151.6,356.45c-7.29,0.35-14.64,1.02-21.23-3.26c0.07-0.49,0.14-0.99,0.21-1.48
			c7.08,1.02,14.17,2.04,21.25,3.06C151.76,355.32,151.68,355.89,151.6,356.45z"/>
		<path class="st0" d="M117.99,28.08c-0.97,0.62-1.39,0.93-1.85,1.17c-1.87,0.98-3.73,1.98-5.64,2.87c-0.31,0.15-1.1-0.12-1.25-0.41
			c-0.16-0.3,0.04-1.12,0.33-1.28c2.07-1.11,4.18-2.15,6.34-3.08C116.28,27.19,116.94,27.69,117.99,28.08z"/>
		<path d="M199.88,44.79c12.76,0.1,23.69,1.69,33.56,6.93c6.33,3.36,11.53,8.93,17.95,12.01c19.2,9.23,29.59,26.39,40.65,43.09
			c11.76,17.75,19.34,37.3,24.06,57.9c2.03,8.86,4.47,18.47,3.02,27.11c-2.42,14.43-6.34,29.01-12.22,42.39
			c-17.73,40.31-49.09,64.07-91.6,75.95c-35.19,9.84-62.98-1.7-88.29-23.77c-13.83-12.06-26.69-25.4-33.16-43.39
			c-6-16.68-11.75-33.42-13.61-51.18c-1.45-13.81,1.69-27.03,5.06-40.3c5.38-21.17,12.75-41.29,27-58.34
			c9.52-11.39,17.57-24.21,30.22-32.55c6.99-4.61,14.31-9.3,22.16-11.89c7.5-2.48,15.88-2.36,23.9-3.22
			C192.87,45.08,197.19,44.96,199.88,44.79z M89.1,178.03c0.01,17.16,2.25,31.39,6.8,45.16c6.76,20.49,15.44,39.98,32.5,54.3
			c8.15,6.84,16.06,14.29,25.19,19.53c16.18,9.28,34.56,9.23,52.65,9.08c2.42-0.02,4.86-1.38,7.22-2.3
			c2.96-1.16,5.74-2.89,8.78-3.74c25.9-7.2,46.72-21.82,62.76-43.18c7.61-10.13,15.7-20.6,17.52-33.34
			c2.1-14.69,3.78-29.46,3.73-44.55c-0.06-16.95-3.22-32.51-9.72-47.88c-7.4-17.48-20.23-31.24-30.81-46.55
			c-5.83-8.44-14.52-13.57-23.22-18.39c-8.37-4.64-16.72-10.13-25.8-12.42c-9.03-2.28-18.99-1.69-28.48-1.22
			c-14.27,0.71-27.88,4.36-39.85,12.63c-12.19,8.43-21.45,19.69-30.05,31.55c-10.15,14-19.5,28.28-23.02,45.77
			C92.75,155.15,88.26,167.44,89.1,178.03z"/>
		<path class="st0" d="M89.1,178.03c-0.84-10.59,3.65-22.88,6.19-35.54c3.52-17.49,12.87-31.77,23.02-45.77
			c8.6-11.86,17.86-23.12,30.05-31.55c11.97-8.28,25.58-11.92,39.85-12.63c9.49-0.47,19.45-1.06,28.48,1.22
			c9.07,2.29,17.43,7.79,25.8,12.42c8.7,4.82,17.39,9.96,23.22,18.39c10.58,15.3,23.41,29.07,30.81,46.55
			c6.5,15.37,9.66,30.93,9.72,47.88c0.05,15.09-1.63,29.86-3.73,44.55c-1.82,12.73-9.91,23.2-17.52,33.34
			c-16.04,21.36-36.86,35.98-62.76,43.18c-3.04,0.84-5.82,2.57-8.78,3.74c-2.36,0.93-4.8,2.28-7.22,2.3
			c-18.09,0.15-36.47,0.19-52.65-9.08c-9.13-5.24-17.05-12.69-25.19-19.53c-17.06-14.31-25.73-33.81-32.5-54.3
			C91.35,209.42,89.11,195.18,89.1,178.03z"/>
	</g>
</g>
</svg>
