<?xml version="1.0" encoding="utf-8"?>
<!-- Generator: Adobe Illustrator 23.1.0, SVG Export Plug-In . SVG Version: 6.00 Build 0)  -->
<svg version="1.1" id="Sans_vibrations_copie_2_xA0_Image_1_"
	 xmlns="http://www.w3.org/2000/svg" xmlns:xlink="http://www.w3.org/1999/xlink" x="0px" y="0px" viewBox="0 0 927.65 879.57"
	 style="enable-background:new 0 0 927.65 879.57;" xml:space="preserve">
<style type="text/css">
	.st0{fill:#FFFFFF;}
</style>
<g>
	<g>
		<path class="st0" d="M210.13,244.94c-8.45,4.38-20.26,8.37-29.44,15.68c-21.58,17.18-41.77,36.1-62.77,54.03
			c-24.69,21.07-33.22,48.98-36.13,80.03c-2.76,29.42-13.84,56.61-30.02,80.84c-10.4,15.57-17.94,31.25-21.2,49.53
			c-6.13,34.42-13.19,68.68-19.12,103.14c-2.17,12.59-3.47,25.6-2.97,38.33c0.81,20.56,4.79,41.05,4.7,61.55
			c-0.04,9.81-4.89,20.5-10.27,29.1c-4.46,7.14-3.61,11.59,1.41,16.32c11.98,11.29,24.03,22.54,36.53,33.25
			c32.26,27.67,68.82,44.26,112.07,47.1c25.94,1.71,52.53,3.47,76.36,16.79c4.62,2.58,10.75,3.24,16.22,3.36
			c23.45,0.51,47.03-0.84,70.35,1.05c20.36,1.65,40.35,8.94,60.88,0.69c2.51-1.01,6.11,1.07,9.21,1.09
			c32.72,0.22,65.5,1.68,98.14,0.09c36.22-1.77,72.24-7.46,108.46-9.29c21.82-1.1,43.87,2.99,65.79,2.73
			c17.7-0.21,35.38-3.31,53.04-5.34c30.07-3.47,61.27,0.77,89.96-12.11c24.84-11.16,52.17-19.47,73.15-35.78
			c20.01-15.55,33.56-39.56,49.19-60.42c3-4.01,3.4-10.63,3.47-16.07c0.42-33.22,0.63-66.45,0.47-99.68
			c-0.17-34.23,1.21-68.48-9.98-101.91c-3.97-11.87-2.8-25.52-3.46-38.39c-0.25-4.97,1.93-10.15,1.29-15.01
			c-2.68-20.47-6.51-40.79-8.99-61.28c-3.24-26.85-6.5-53.45-21.01-77.32c-3.3-5.42-5.39-12.56-5.31-18.88
			c0.46-36.54-13.7-68-38.18-92.95c-20.91-21.31-35.31-44.19-43.13-72.81c-6.09-22.26-27.66-30.65-45.88-40.4
			c-15.59-8.34-34.12-11.59-48.88-20.98c-29.1-18.52-57.15-38.88-84.36-60.12c-19.77-15.43-36.47-33.73-64.5-35.68
			c-20.64-1.43-39.67-3.91-58.06,9.17C437.99,56.45,377.63,97.3,329.3,152.13c-18.98,21.52-34.92,46.48-48.24,71.97
			c-9.78,18.7-32.22,32.5-53,25.18C223.53,247.68,218.69,246.97,210.13,244.94z"/>
		<path d="M210.13,244.94c8.55,2.03,13.4,2.74,17.93,4.33c20.78,7.32,43.22-6.47,53-25.18c13.33-25.48,29.27-50.44,48.24-71.97
			C377.63,97.3,437.99,56.45,497.15,14.37c18.39-13.08,37.42-10.6,58.06-9.17c28.04,1.94,44.73,20.25,64.5,35.68
			c27.21,21.24,55.26,41.6,84.36,60.12c14.75,9.39,33.29,12.64,48.88,20.98c18.22,9.75,39.79,18.14,45.88,40.4
			c7.83,28.63,22.22,51.51,43.13,72.81c24.48,24.94,38.64,56.41,38.18,92.95c-0.08,6.31,2.01,13.46,5.31,18.88
			c14.51,23.86,17.77,50.47,21.01,77.32c2.48,20.49,6.3,40.81,8.99,61.28c0.64,4.86-1.55,10.04-1.29,15.01
			c0.66,12.87-0.51,26.52,3.46,38.39c11.19,33.44,9.81,67.68,9.98,101.91c0.16,33.23-0.04,66.46-0.47,99.68
			c-0.07,5.44-0.46,12.06-3.47,16.07c-15.63,20.86-29.18,44.88-49.19,60.42c-20.99,16.31-48.31,24.62-73.15,35.78
			c-28.68,12.89-59.89,8.65-89.96,12.11c-17.66,2.04-35.34,5.14-53.04,5.34c-21.92,0.26-43.97-3.83-65.79-2.73
			c-36.22,1.83-72.24,7.52-108.46,9.29c-32.63,1.59-65.42,0.14-98.14-0.09c-3.1-0.02-6.7-2.1-9.21-1.09
			c-20.53,8.25-40.52,0.96-60.88-0.69c-23.32-1.89-46.9-0.54-70.35-1.05c-5.47-0.12-11.6-0.78-16.22-3.36
			c-23.84-13.32-50.42-15.08-76.36-16.79c-43.25-2.84-79.81-19.44-112.07-47.1c-12.49-10.72-24.54-21.96-36.53-33.25
			c-5.02-4.73-5.87-9.19-1.41-16.32c5.38-8.6,10.22-19.29,10.27-29.1c0.09-20.51-3.89-41-4.7-61.55
			c-0.5-12.73,0.81-25.73,2.97-38.33c5.93-34.45,12.99-68.71,19.12-103.14c3.26-18.27,10.8-33.96,21.2-49.53
			c16.18-24.22,27.26-51.42,30.02-80.84c2.92-31.05,11.44-58.96,36.13-80.03c21-17.92,41.19-36.84,62.77-54.03
			C189.87,253.31,201.68,249.32,210.13,244.94z M637.72,845.74c0.02,0.67,0.03,1.34,0.05,2.01c19.99,0,39.99-0.34,59.97,0.08
			c29.36,0.62,57.19-3.56,84.77-15.43c26.43-11.38,53.2-20.5,78.4-35.82c25.98-15.8,37.7-39.28,38.42-63.94
			c1.8-61.4,5.7-123.06-5.06-184.53c-5.76-32.89-3.75-67.08-8.05-100.32c-3.34-25.75-10.77-51-16.89-76.35
			c-3.83-15.85-11.04-31.28-12.33-47.26c-1.75-21.77-7.42-40.81-21.35-57.67c-11.25-13.62-19.33-29.54-36.11-38.75
			c-6.86-3.77-13.16-14.04-14.14-22.04c-3.58-29.36-17.38-51.5-43.13-64.87c-12.33-6.4-27.74-6.81-40.23-13.01
			c-28.95-14.35-58.15-28.79-85.01-46.57c-24.1-15.95-45.08-36.57-67.78-54.7c-3.49-2.79-9.72-5.64-13.19-4.38
			c-17.83,6.5-36.3,12.47-52.34,22.24c-15.05,9.17-26.81,23.57-41.03,34.31c-10.16,7.68-23.38,11.56-32.81,19.89
			c-19.51,17.23-37.18,36.51-55.99,54.55c-37.23,35.71-55.19,80.39-62.16,130.48c-0.51,3.63-3.42,7.18-5.88,10.23
			c-2.92,3.63-6.82,6.47-9.86,10.02c-20.88,24.38-41.49,48.98-62.68,73.08c-1.94,2.21-7.35,1.37-11.15,1.94
			c0.31-3.58-0.62-8.03,1.17-10.57c4.6-6.53,10.44-12.2,15.71-18.27c1.08-1.25,1.87-2.76,2.79-4.15c-1.43-0.16-2.98-0.04-4.27-0.55
			c-2.67-1.06-5.2-2.47-7.78-3.74c2.09-1.34,4.19-2.67,6.27-4.02c7.66-5.01,17.16-8.56,22.55-15.36
			c9.28-11.7,16.33-25.25,23.6-38.42c2.08-3.78,1.69-8.92,2.43-13.44c-4.89-0.7-9.97-2.61-14.63-1.87
			c-15.16,2.41-30.05,6.73-45.26,8.53c-16.66,1.97-29.38,11.37-40.24,21.85c-12.17,11.75-19.65,28.32-31.75,40.17
			c-20.7,20.29-22.99,46.13-23.64,71.74c-0.55,21.96-4.83,42.38-14.05,61.71c-2.6,5.46-10.37,8.39-15.58,12.69
			c-5.51,4.54-10.8,9.34-16.19,14.03c3.42,2.64,7.02,5.09,10.21,7.98c1.94,1.75,3.26,4.18,4.85,6.31c-2.31,0.95-5.12,3.28-6.84,2.65
			c-15.68-5.84-19.1,2.21-18.96,15.59c0.06,5.54-0.89,11.16-1.91,16.64c-4.76,25.71,1.29,53.56-15.41,77.02
			c-1.94,2.72-1.65,7.45-1.45,11.2c1.93,37.04,2.94,74.18,6.54,111.06c2.12,21.78,13.39,41.36,30.91,54.2
			c26.58,19.49,58.59,25.07,90.8,28.92c31,3.7,63.27-1.7,92.8,12.9c3.67,1.82,8.07,3.18,12.1,3.11
			c43.88-0.76,87.15,4.65,130.51,10.72c21.33,2.99,43.37,3.01,64.93,1.74c19.71-1.16,39.1-7.38,58.81-8.71
			C559.96,848,598.87,847.25,637.72,845.74z"/>
		<path class="st0" d="M637.72,845.74c-38.86,1.52-77.77,2.26-116.55,4.87c-19.71,1.32-39.1,7.54-58.81,8.71
			c-21.56,1.27-43.6,1.25-64.93-1.74c-43.36-6.07-86.63-11.48-130.51-10.72c-4.03,0.07-8.43-1.29-12.1-3.11
			c-29.53-14.6-61.8-9.2-92.8-12.9c-32.21-3.84-64.22-9.43-90.8-28.92c-17.53-12.85-28.79-32.42-30.91-54.2
			c-3.59-36.88-4.61-74.02-6.54-111.06c-0.2-3.75-0.48-8.48,1.45-11.2c16.7-23.46,10.65-51.31,15.41-77.02
			c1.01-5.49,1.97-11.1,1.91-16.64c-0.15-13.37,3.27-21.43,18.96-15.59c1.71,0.64,4.53-1.69,6.84-2.65
			c-1.6-2.13-2.92-4.56-4.85-6.31c-3.19-2.89-6.79-5.34-10.21-7.98c5.39-4.69,10.69-9.48,16.19-14.03
			c5.22-4.3,12.98-7.24,15.58-12.69c9.22-19.33,13.5-39.76,14.05-61.71c0.64-25.61,2.94-51.45,23.64-71.74
			c12.09-11.85,19.58-28.42,31.75-40.17c10.85-10.48,23.58-19.88,40.24-21.85c15.21-1.8,30.1-6.12,45.26-8.53
			c4.66-0.74,9.74,1.17,14.63,1.87c-0.74,4.52-0.34,9.66-2.43,13.44c-7.27,13.17-14.32,26.72-23.6,38.42
			c-5.4,6.8-14.89,10.35-22.55,15.36c-2.08,1.36-4.18,2.68-6.27,4.02c2.59,1.27,5.12,2.67,7.78,3.74c1.29,0.52,2.84,0.39,4.27,0.55
			c-0.92,1.39-1.7,2.9-2.79,4.15c-5.27,6.07-11.11,11.73-15.71,18.27c-1.79,2.54-0.86,6.99-1.17,10.57
			c3.8-0.58,9.21,0.26,11.15-1.94c21.19-24.1,41.81-48.7,62.68-73.08c3.04-3.55,6.94-6.39,9.86-10.02c2.46-3.05,5.37-6.6,5.88-10.23
			c6.97-50.09,24.92-94.77,62.16-130.48c18.81-18.04,36.48-37.32,55.99-54.55c9.43-8.33,22.65-12.21,32.81-19.89
			c14.23-10.75,25.98-25.14,41.03-34.31c16.04-9.77,34.51-15.74,52.34-22.24c3.47-1.27,9.7,1.59,13.19,4.38
			c22.7,18.13,43.68,38.75,67.78,54.7c26.86,17.78,56.07,32.21,85.01,46.57c12.49,6.19,27.9,6.6,40.23,13.01
			c25.75,13.37,39.54,35.51,43.13,64.87c0.98,8,7.28,18.27,14.14,22.04c16.78,9.21,24.86,25.13,36.11,38.75
			c13.93,16.86,19.6,35.91,21.35,57.67c1.29,15.97,8.5,31.41,12.33,47.26c6.12,25.35,13.55,50.6,16.89,76.35
			c4.31,33.24,2.29,67.42,8.05,100.32c10.76,61.46,6.86,123.13,5.06,184.53c-0.72,24.66-12.44,48.14-38.42,63.94
			c-25.2,15.32-51.96,24.44-78.4,35.82c-27.58,11.87-55.41,16.05-84.77,15.43c-19.98-0.42-39.98-0.08-59.97-0.08
			C637.76,847.08,637.74,846.41,637.72,845.74z M163.39,346.44c-5.88-4.36-10.02-9.83-13.89-9.65c-3.92,0.18-7.57,5.96-11.34,9.29
			c3.99,3.07,7.74,8.05,12.05,8.6C153.66,355.12,157.8,350.17,163.39,346.44z M139.97,537.92c-5.09-3.5-9.77-8.74-12.05-7.85
			c-4.52,1.77-8.88,6.42-10.83,10.94c-0.7,1.63,6.29,9.4,8.7,8.93C129.91,549.13,133.2,544.04,139.97,537.92z M65.08,574.34
			c3.81-5.96,8.45-10.13,8.55-14.39c0.07-3.24-5.64-6.62-8.77-9.93c-3.14,3.85-8.34,7.49-8.79,11.63
			C55.71,565.02,61.04,569,65.08,574.34z M137.47,580.19c-4.68-4.33-8.1-7.5-11.53-10.68c-3.18,3.72-8.5,7.25-8.87,11.23
			c-0.3,3.24,5.33,7.03,8.33,10.58C129.09,587.93,132.78,584.52,137.47,580.19z M263.35,573.49c-5.18-7.19-6.83-9.48-8.48-11.77
			c-4.46,3.38-8.91,6.76-13.37,10.15c3.08,2.67,6.17,7.5,9.23,7.48C254.94,579.32,259.14,575.62,263.35,573.49z M274.48,365.19
			c-3.67-3.2-7.38-8.01-8.87-7.4c-3.79,1.55-6.59,5.52-9.78,8.53c3.09,2.94,6.18,5.89,9.27,8.83
			C267.8,372.27,270.51,369.4,274.48,365.19z M228.8,415.67c3.58-4.74,6.99-7.92,8.3-11.81c0.4-1.17-5.3-6.37-7.7-6.05
			c-3.49,0.47-6.52,4.29-9.75,6.69C222.36,407.81,225.07,411.12,228.8,415.67z M139.46,436.7c3.67-5.84,6.13-9.76,8.59-13.68
			c-2.98-1.86-6.2-5.47-8.89-5.11c-3.22,0.43-8.77,4.94-8.39,6.48C131.71,428.23,135.44,431.4,139.46,436.7z M219.2,478.8
			c-4.93-2.71-8.35-6.04-11.73-6c-2.85,0.03-5.67,3.96-8.5,6.16c2.93,3.21,5.7,8.76,8.83,8.97
			C210.89,488.13,214.35,482.95,219.2,478.8z M126.77,380.81c-4.07,2.38-6.57,3.84-9.07,5.3c3.42,3.42,6.56,7.26,10.52,9.86
			c0.7,0.46,4.81-4.27,7.34-6.61C132.83,386.7,130.09,384.04,126.77,380.81z M186.43,572.02c3.88-4.11,6.83-7.24,9.78-10.38
			c-2.99-2.48-6.02-6.96-8.96-6.9c-3.06,0.06-8.19,4.33-8.43,7.09C178.59,564.68,183.16,567.94,186.43,572.02z M141.94,472.19
			c2.37-4.11,6.12-7.7,5.6-10.5c-0.61-3.27-4.94-5.84-7.66-8.72c-2.96,2.97-5.92,5.94-8.88,8.9
			C133.62,464.34,136.23,466.8,141.94,472.19z M198.24,634.45c-4.01-3.5-7.19-8.38-9.92-8.14c-3.54,0.3-6.74,4.68-10.09,7.3
			c2.91,2.64,5.67,7.16,8.76,7.39C190.19,641.23,193.69,637.3,198.24,634.45z M181.71,385.31c-6.7-4.93-10.1-8.58-11.15-8
			c-3.96,2.2-7.16,5.77-10.64,8.82c3.04,2.1,6.15,5.96,9.11,5.86C172.68,391.85,176.2,388.41,181.71,385.31z M198.37,433.91
			c-4.47-3.45-7.67-7.83-10.78-7.76c-2.89,0.07-5.67,4.87-8.5,7.59c2.88,2.6,5.65,7.11,8.66,7.27
			C190.78,441.18,194.04,437.02,198.37,433.91z M263.08,455.86c3.03-4.01,6.92-7.01,7.26-10.38c0.22-2.15-5.52-7.27-7.36-6.75
			c-3.68,1.04-6.51,5.05-9.69,7.84C256.22,449.35,259.15,452.13,263.08,455.86z M223.51,510.2c-3.76,4.9-6.43,8.38-9.1,11.86
			c2.95,2.26,6.5,6.82,8.72,6.24c3.17-0.82,6.32-5.05,7.57-8.51C231.27,518.22,227.26,515,223.51,510.2z M335.81,524.98
			c-4.82-3.6-8.37-8.27-11.23-7.88c-3.51,0.48-6.43,5.19-9.61,8.07c3.09,2.43,5.95,6.31,9.33,6.83
			C326.94,532.4,330.2,528.61,335.81,524.98z M121.41,686.47c-5.93,5.5-11.19,8.88-10.71,10.23c1.34,3.78,5.05,6.72,7.82,9.99
			c2.98-3.15,7.39-5.88,8.46-9.58C127.71,694.59,123.8,690.72,121.41,686.47z M89.61,659.9c3.74-4.74,6.8-8.29,9.2-12.24
			c0.2-0.32-4.72-5.24-6.11-4.75c-3.68,1.29-7.8,3.8-9.53,7.01C82.38,651.41,86.75,655.67,89.61,659.9z M122.6,502.45
			c-5.45-2.5-9.23-5.69-12.59-5.3c-2.59,0.3-4.67,5.08-6.98,7.87c2.89,2.1,6.13,6.24,8.58,5.82
			C115.05,510.25,117.91,506.26,122.6,502.45z M286.01,497.01c-4.13-2.89-7.23-6.79-10-6.56c-3.26,0.27-6.23,4.11-9.32,6.41
			c2.26,2.68,5.02,7.88,6.69,7.55C277.38,503.62,280.88,500.24,286.01,497.01z M171.2,511.34c-3.84-3.28-6.75-7.67-9.34-7.49
			c-3.35,0.23-6.46,4.11-9.67,6.41c3.02,2.73,5.71,6.85,9.2,7.7C163.65,518.51,167.07,514.29,171.2,511.34z M284.3,414.56
			c3.17-4.14,6.51-6.96,7.43-10.42c0.4-1.49-5.04-6.59-6.35-6.1c-3.54,1.32-6.29,4.77-9.36,7.37
			C278.39,408.02,280.75,410.64,284.3,414.56z M233.15,287.22c-4.64,3.71-8.33,6.66-12.02,9.6c2.64,2.37,6.67,7.23,7.65,6.68
			c3.51-1.97,6.46-5.51,8.54-9.08C237.94,293.37,234.98,290.24,233.15,287.22z M279.1,632.47c-4.82-2.47-8.06-5.41-11.2-5.31
			c-2.39,0.08-4.66,4.02-6.98,6.24c2.77,2.44,5.46,6.67,8.32,6.79C271.93,640.3,274.8,636.06,279.1,632.47z M219.02,684.06
			c-3.73-2.7-6.9-6.31-8.28-5.73c-3.58,1.53-6.38,4.9-9.49,7.53c2.68,1.85,5.56,5.41,7.98,5.11
			C212.3,690.61,214.99,687.11,219.02,684.06z M185.36,320.27c-3.14-3.41-5.54-6-7.94-8.6c-2.17,2.95-5.65,5.73-6.05,8.91
			c-0.27,2.13,3.82,4.81,5.96,7.25C179.71,325.58,182.09,323.35,185.36,320.27z"/>
		<path d="M163.39,346.44c-5.59,3.73-9.73,8.67-13.18,8.24c-4.31-0.55-8.06-5.53-12.05-8.6c3.77-3.33,7.42-9.1,11.34-9.29
			C153.37,336.61,157.51,342.08,163.39,346.44z"/>
		<path d="M139.97,537.92c-6.76,6.12-10.05,11.21-14.18,12.02c-2.41,0.47-9.4-7.3-8.7-8.93c1.96-4.52,6.31-9.17,10.83-10.94
			C130.2,529.18,134.88,534.42,139.97,537.92z"/>
		<path d="M65.08,574.34c-4.04-5.34-9.37-9.32-9.01-12.69c0.44-4.14,5.64-7.78,8.79-11.63c3.14,3.31,8.84,6.69,8.77,9.93
			C73.54,564.21,68.89,568.37,65.08,574.34z"/>
		<path d="M137.47,580.19c-4.69,4.33-8.38,7.73-12.07,11.14c-3-3.55-8.63-7.34-8.33-10.58c0.37-3.98,5.69-7.51,8.87-11.23
			C129.37,572.69,132.79,575.86,137.47,580.19z"/>
		<path d="M263.35,573.49c-4.22,2.13-8.41,5.82-12.63,5.86c-3.06,0.02-6.15-4.81-9.23-7.48c4.46-3.38,8.91-6.76,13.37-10.15
			C256.52,564.02,258.17,566.31,263.35,573.49z"/>
		<path d="M274.48,365.19c-3.97,4.21-6.68,7.08-9.38,9.95c-3.09-2.94-6.18-5.89-9.27-8.83c3.19-3,5.99-6.98,9.78-8.53
			C267.09,357.18,270.8,361.99,274.48,365.19z"/>
		<path d="M228.8,415.67c-3.73-4.55-6.44-7.86-9.15-11.17c3.23-2.39,6.26-6.21,9.75-6.69c2.4-0.33,8.1,4.88,7.7,6.05
			C235.78,407.75,232.38,410.93,228.8,415.67z"/>
		<path d="M139.46,436.7c-4.02-5.3-7.74-8.47-8.68-12.31c-0.38-1.54,5.17-6.05,8.39-6.48c2.68-0.36,5.9,3.26,8.89,5.11
			C145.59,426.94,143.12,430.86,139.46,436.7z"/>
		<path d="M219.2,478.8c-4.85,4.15-8.31,9.33-11.4,9.13c-3.13-0.21-5.9-5.76-8.83-8.97c2.83-2.2,5.65-6.14,8.5-6.16
			C210.85,472.76,214.27,476.09,219.2,478.8z"/>
		<path d="M126.77,380.81c3.32,3.23,6.06,5.89,8.8,8.55c-2.53,2.33-6.64,7.06-7.34,6.61c-3.96-2.6-7.1-6.44-10.52-9.86
			C120.2,384.65,122.7,383.19,126.77,380.81z"/>
		<path d="M186.43,572.02c-3.27-4.08-7.84-7.34-7.6-10.19c0.23-2.76,5.37-7.03,8.43-7.09c2.94-0.06,5.97,4.42,8.96,6.9
			C193.26,564.78,190.31,567.91,186.43,572.02z"/>
		<path d="M141.94,472.19c-5.71-5.38-8.33-7.85-10.94-10.31c2.96-2.97,5.92-5.94,8.88-8.9c2.72,2.88,7.06,5.45,7.66,8.72
			C148.07,464.49,144.31,468.08,141.94,472.19z"/>
		<path d="M198.24,634.45c-4.55,2.85-8.05,6.78-11.25,6.55c-3.08-0.22-5.85-4.75-8.76-7.39c3.35-2.62,6.54-7,10.09-7.3
			C191.06,626.07,194.23,630.94,198.24,634.45z"/>
		<path d="M181.71,385.31c-5.51,3.1-9.03,6.55-12.67,6.68c-2.96,0.11-6.07-3.75-9.11-5.86c3.48-3.06,6.68-6.62,10.64-8.82
			C171.61,376.73,175.01,380.37,181.71,385.31z"/>
		<path d="M198.37,433.91c-4.33,3.11-7.59,7.27-10.62,7.11c-3.01-0.16-5.78-4.67-8.66-7.27c2.83-2.72,5.61-7.53,8.5-7.59
			C190.7,426.08,193.9,430.46,198.37,433.91z"/>
		<path d="M263.08,455.86c-3.93-3.73-6.86-6.51-9.79-9.29c3.18-2.79,6.02-6.8,9.69-7.84c1.84-0.52,7.58,4.61,7.36,6.75
			C270,448.85,266.11,451.85,263.08,455.86z"/>
		<path d="M223.51,510.2c3.75,4.8,7.76,8.02,7.19,9.59c-1.25,3.46-4.4,7.69-7.57,8.51c-2.22,0.57-5.77-3.98-8.72-6.24
			C217.08,518.58,219.74,515.1,223.51,510.2z"/>
		<path d="M335.81,524.98c-5.61,3.62-8.87,7.42-11.5,7.02c-3.38-0.51-6.25-4.4-9.33-6.83c3.18-2.88,6.1-7.59,9.61-8.07
			C327.44,516.71,330.99,521.38,335.81,524.98z"/>
		<path d="M121.41,686.47c2.39,4.24,6.3,8.12,5.57,10.64c-1.08,3.7-5.48,6.44-8.46,9.58c-2.77-3.27-6.48-6.21-7.82-9.99
			C110.22,695.35,115.49,691.97,121.41,686.47z"/>
		<path d="M89.61,659.9c-2.86-4.23-7.23-8.5-6.43-9.98c1.73-3.21,5.86-5.72,9.53-7.01c1.39-0.49,6.3,4.43,6.11,4.75
			C96.41,651.61,93.35,655.17,89.61,659.9z"/>
		<path d="M122.6,502.45c-4.69,3.82-7.55,7.8-10.99,8.39c-2.45,0.42-5.69-3.72-8.58-5.82c2.31-2.79,4.39-7.58,6.98-7.87
			C113.37,496.76,117.15,499.95,122.6,502.45z"/>
		<path d="M286.01,497.01c-5.12,3.22-8.62,6.6-12.63,7.39c-1.67,0.33-4.43-4.87-6.69-7.55c3.09-2.29,6.06-6.13,9.32-6.41
			C278.77,490.22,281.88,494.12,286.01,497.01z"/>
		<path d="M171.2,511.34c-4.13,2.96-7.55,7.18-9.81,6.62c-3.48-0.85-6.17-4.97-9.2-7.7c3.21-2.31,6.31-6.18,9.67-6.41
			C164.45,503.67,167.36,508.06,171.2,511.34z"/>
		<path d="M284.3,414.56c-3.55-3.92-5.91-6.54-8.28-9.15c3.07-2.6,5.82-6.04,9.36-7.37c1.31-0.49,6.75,4.61,6.35,6.1
			C290.81,407.6,287.47,410.42,284.3,414.56z"/>
		<path d="M233.15,287.22c1.83,3.02,4.79,6.15,4.17,7.21c-2.08,3.57-5.03,7.1-8.54,9.08c-0.99,0.55-5.02-4.3-7.65-6.68
			C224.82,293.88,228.51,290.93,233.15,287.22z"/>
		<path d="M279.1,632.47c-4.31,3.59-7.17,7.83-9.86,7.71c-2.86-0.12-5.55-4.35-8.32-6.79c2.32-2.22,4.59-6.16,6.98-6.24
			C271.05,627.06,274.28,630.01,279.1,632.47z"/>
		<path d="M219.02,684.06c-4.04,3.04-6.72,6.54-9.79,6.92c-2.41,0.3-5.3-3.27-7.98-5.11c3.11-2.63,5.91-6.01,9.49-7.53
			C212.12,677.75,215.29,681.36,219.02,684.06z"/>
		<path d="M185.36,320.27c-3.28,3.08-5.65,5.32-8.03,7.55c-2.14-2.43-6.23-5.12-5.96-7.25c0.4-3.17,3.88-5.96,6.05-8.91
			C179.82,314.26,182.22,316.86,185.36,320.27z"/>
	</g>
</g>
</svg>
