<?xml version="1.0" encoding="utf-8"?>
<!-- Generator: Adobe Illustrator 23.1.0, SVG Export Plug-In . SVG Version: 6.00 Build 0)  -->
<svg version="1.1" id="Calque_1" xmlns="http://www.w3.org/2000/svg" xmlns:xlink="http://www.w3.org/1999/xlink" x="0px" y="0px"
	 viewBox="0 0 383.99 368.41" style="enable-background:new 0 0 383.99 368.41;" xml:space="preserve">
<style type="text/css">
	.st0{fill:#FFFFFF;}
</style>
<g>
	<g>
		<path d="M188.4,0c2.16,0,4.32,0,6.48,0c0.14,0.07,0.28,0.17,0.43,0.19c8.6,1.06,17.2,2.15,25.81,3.16
			c8.75,1.02,17.41,2.42,25.67,5.65c6.1,2.39,12.14,4.9,18.25,7.24c6.52,2.5,12.8,5.42,18.49,9.5c8.28,5.94,16.59,11.84,24.82,17.85
			c4.08,2.98,7.78,6.37,10.96,10.34c5.67,7.09,11.39,14.13,17.21,21.09c3.16,3.78,6.19,7.61,8.45,12.03
			c3.8,7.43,7.55,14.89,11.66,22.15c8.06,14.22,14.99,28.91,19.86,44.54c4.44,14.26,7.35,28.72,6.06,43.76
			c-0.42,4.83-0.85,9.63-2.79,14.26c-6.81,16.24-13.63,32.47-22.09,47.94c-8.38,15.33-18.09,29.66-30.65,41.95
			c-6.03,5.9-11.84,12.02-17.61,18.18c-6.73,7.18-14.08,13.6-22.32,18.99c-9.92,6.48-20.64,11.29-31.75,15.34
			c-18.25,6.64-36.71,12.35-56.22,13.89c-7.35,0.58-14.69,0.56-22.03-0.21c-9.56-1.01-18.87-3.25-28.16-5.65
			c-16.68-4.3-32.62-10.36-47.46-19.22c-7.16-4.28-14.52-8.24-21.75-12.42c-1.5-0.87-3-1.87-4.22-3.08
			c-2.92-2.9-5.68-5.96-8.48-8.97c-9.2-9.85-18.16-19.9-26.37-30.61c-10.17-13.28-19.08-27.33-25.32-42.91
			C7.06,224.3,2.41,202.78,0.45,180.65c-0.13-1.5-0.3-2.99-0.45-4.49c0-3.28,0-6.56,0-9.84c0.07-0.26,0.18-0.52,0.19-0.78
			c0.35-8,1.23-15.93,2.69-23.8c2.9-15.66,8.2-30.42,16.51-44.06c0.51-0.83,0.84-1.79,1.17-2.71c0.75-2.1,1.31-4.28,2.2-6.32
			c2.36-5.42,6.13-9.88,9.86-14.38c3.76-4.55,7.76-8.98,10.97-13.91c5.07-7.77,11.74-13.29,20.29-16.68
			c2.78-1.1,5.74-1.85,8.35-3.26c8.39-4.54,16.69-9.25,24.96-14.02c6.75-3.89,13.29-8.19,20.62-10.91
			c7.74-2.88,15.6-5.43,23.42-8.12c8.5-2.92,17.12-5.33,26.22-4.92c4.84,0.21,9.56-0.31,14.28-1.24C183.95,0.77,186.18,0.4,188.4,0z
			 M256.59,247.07c1.47,2.47,2.84,4.63,4.06,6.87c2,3.65,2.41,7.75,3.08,11.76c1.03,6.19,1.98,12.41,4.7,18.15
			c4.53,9.56,9.18,19.06,13.68,28.63c0.94,1.99,2.17,3.52,4.19,4.34c0.46,0.19,1.13,0.34,1.51,0.14c1.69-0.88,3.44-1.72,4.94-2.88
			c2.86-2.22,4.57-5.39,6.5-8.38c1.51-2.34,3.05-4.7,4.87-6.8c1.12-1.29,1.57-2.54,1.33-4.12c-0.15-0.98-0.29-1.99-0.61-2.92
			c-1.31-3.77-2.59-7.56-4.05-11.27c-7.96-20.28-14.7-40.94-19.93-62.1c-0.96-3.87-1.93-7.76-3.24-11.52
			c-1.63-4.69-4.6-8.35-9.56-9.86c-6.68-2.04-13.37-4.07-20.11-5.89c-10.22-2.77-20.61-4.47-31.25-4.25
			c-4.48,0.09-8.24,1.6-10.73,5.46c-1.9,2.95-3.69,5.98-5.41,9.05c-3.35,5.98-8.24,9.98-15.07,10.89
			c-13.54,1.8-25.48-1.43-35.04-11.81c-5.69-6.18-12.8-9.62-21.31-9.68c-3.99-0.03-7.98,0.31-11.98,0.36
			c-5.91,0.08-11.47,1.46-16.67,4.25c-7.55,4.05-13.21,10.13-18,17.08c-0.59,0.85-0.95,1.95-1.11,2.99
			c-1.21,7.81-2.4,15.63-3.5,23.47c-1.21,8.64-1.74,17.33-1.6,26.06c0.1,6.27,0.32,12.57-0.02,18.82
			c-0.3,5.41-1.29,10.78-2.03,16.16c-0.11,0.84,0.01,1.36,0.73,1.91c9.43,7.22,18.83,14.47,28.23,21.72
			c0.27,0.2,0.56,0.37,0.99,0.65c0-4.11,0.12-8.02-0.02-11.92c-0.36-9.54-0.79-19.08-1.31-28.62c-0.63-11.7-1.19-23.39-0.58-35.1
			c0.08-1.53,0.22-3.06,0.34-4.7c1.42,0.39,2.65,0.71,3.87,1.06c3.3,0.95,6.61,1.83,9.87,2.9c2.24,0.74,3.45,2.51,3.83,4.81
			c0.15,0.9,0.27,1.83,0.27,2.74c0.08,9.68,0.11,19.35,0.22,29.03c0.11,10.24,0.87,20.44,2.69,30.53c0.85,4.71,1.63,9.46,3.81,13.81
			c3.7,7.39,9.09,12.9,17.24,15.24c5.6,1.61,11.25,3.06,16.83,4.75c7.87,2.4,15.86,4.03,24.1,4.38c11.08,0.46,21.95-0.94,32.59-3.96
			c11.4-3.24,22.76-6.66,34.1-10.12c2.96-0.9,5.88-2.05,8.64-3.44c2.81-1.42,3.86-4.05,3.14-7.1c-0.61-2.59-1.44-5.15-2.39-7.63
			c-2.64-6.89-5.61-13.67-8.07-20.62c-3.41-9.63-5.24-19.58-5.11-29.85c0.03-2.18-0.17-4.38-0.39-6.55
			c-0.17-1.66-0.59-3.3-0.82-4.96c-0.34-2.54-0.28-5.11,1.93-6.82C251.36,250.34,253.98,248.81,256.59,247.07z M209.48,121.89
			c-0.15-2.95-0.29-5.9-0.46-8.85c-0.44-7.23-2.39-13.99-6.45-20.06c-2.75-4.12-5.22-8.48-8.94-11.83
			c-9.2-8.29-20.05-11.15-32.13-9.07c-8.74,1.5-15.88,5.91-20.11,13.87c-4.19,7.88-7.95,16.01-11.62,24.16
			c-2.47,5.48-3.92,11.3-4.28,17.36c-0.25,4.17,0.64,8.18,1.48,12.21c1.26,6.1,2.67,12.16,5.03,17.96
			c2.31,5.68,5.93,10.45,9.94,15.01c4.67,5.32,9.34,10.65,15.16,14.78c4.94,3.51,10.16,6.44,16.42,6.63
			c7.18,0.22,13.02-2.38,16.67-8.79c4.25-7.47,7.97-15.2,11.09-23.22C206.29,149.14,209.39,135.83,209.48,121.89z"/>
		<path class="st0" d="M256.59,247.07c-2.62,1.73-5.23,3.27-7.62,5.11c-2.21,1.7-2.27,4.28-1.93,6.82c0.22,1.66,0.65,3.3,0.82,4.96
			c0.22,2.18,0.42,4.37,0.39,6.55c-0.13,10.27,1.7,20.22,5.11,29.85c2.46,6.95,5.43,13.73,8.07,20.62c0.95,2.49,1.78,5.04,2.39,7.63
			c0.72,3.06-0.33,5.68-3.14,7.1c-2.76,1.39-5.68,2.54-8.64,3.44c-11.34,3.46-22.69,6.88-34.1,10.12
			c-10.64,3.02-21.51,4.43-32.59,3.96c-8.24-0.35-16.23-1.98-24.1-4.38c-5.58-1.7-11.23-3.14-16.83-4.75
			c-8.15-2.34-13.54-7.86-17.24-15.24c-2.18-4.35-2.95-9.1-3.81-13.81c-1.83-10.09-2.59-20.29-2.69-30.53
			c-0.1-9.68-0.13-19.35-0.22-29.03c-0.01-0.91-0.13-1.84-0.27-2.74c-0.38-2.31-1.59-4.07-3.83-4.81c-3.26-1.07-6.58-1.95-9.87-2.9
			c-1.22-0.35-2.45-0.67-3.87-1.06c-0.12,1.64-0.26,3.17-0.34,4.7c-0.61,11.71-0.05,23.41,0.58,35.1
			c0.52,9.54,0.94,19.08,1.31,28.62c0.15,3.9,0.02,7.81,0.02,11.92c-0.43-0.28-0.73-0.45-0.99-0.65
			c-9.41-7.24-18.8-14.5-28.23-21.72c-0.72-0.55-0.85-1.07-0.73-1.91c0.73-5.38,1.73-10.75,2.03-16.16
			c0.34-6.26,0.12-12.55,0.02-18.82c-0.14-8.73,0.39-17.42,1.6-26.06c1.1-7.83,2.29-15.65,3.5-23.47c0.16-1.03,0.53-2.14,1.11-2.99
			c4.79-6.95,10.46-13.03,18-17.08c5.2-2.79,10.76-4.17,16.67-4.25c3.99-0.05,7.98-0.39,11.98-0.36c8.51,0.06,15.62,3.5,21.31,9.68
			c9.56,10.38,21.5,13.6,35.04,11.81c6.83-0.91,11.72-4.9,15.07-10.89c1.72-3.07,3.51-6.1,5.41-9.05c2.49-3.87,6.25-5.37,10.73-5.46
			c10.64-0.22,21.03,1.48,31.25,4.25c6.74,1.83,13.43,3.86,20.11,5.89c4.96,1.51,7.93,5.17,9.56,9.86
			c1.31,3.76,2.28,7.65,3.24,11.52c5.23,21.16,11.97,41.82,19.93,62.1c1.46,3.71,2.74,7.5,4.05,11.27c0.32,0.93,0.47,1.94,0.61,2.92
			c0.24,1.58-0.21,2.83-1.33,4.12c-1.82,2.1-3.36,4.46-4.87,6.8c-1.93,2.99-3.64,6.16-6.5,8.38c-1.49,1.16-3.24,2.01-4.94,2.88
			c-0.38,0.2-1.05,0.05-1.51-0.14c-2.03-0.82-3.26-2.35-4.19-4.34c-4.5-9.57-9.15-19.08-13.68-28.63
			c-2.72-5.74-3.67-11.95-4.7-18.15c-0.67-4.01-1.08-8.11-3.08-11.76C259.43,251.7,258.06,249.55,256.59,247.07z"/>
		<path class="st0" d="M209.48,121.89c-0.09,13.93-3.19,27.24-8.22,40.16c-3.12,8.01-6.84,15.75-11.09,23.22
			c-3.65,6.41-9.48,9-16.67,8.79c-6.26-0.19-11.48-3.12-16.42-6.63c-5.82-4.13-10.49-9.45-15.16-14.78c-4-4.56-7.62-9.33-9.94-15.01
			c-2.37-5.8-3.77-11.85-5.03-17.96c-0.83-4.03-1.72-8.04-1.48-12.21c0.36-6.06,1.81-11.88,4.28-17.36
			c3.67-8.15,7.43-16.27,11.62-24.16c4.23-7.95,11.37-12.36,20.11-13.87c12.07-2.08,22.93,0.79,32.13,9.07
			c3.72,3.35,6.19,7.71,8.94,11.83c4.06,6.07,6.01,12.82,6.45,20.06C209.19,115.99,209.32,118.94,209.48,121.89z"/>
	</g>
</g>
</svg>
