<?xml version="1.0" encoding="utf-8"?>
<!-- Generator: Adobe Illustrator 23.1.0, SVG Export Plug-In . SVG Version: 6.00 Build 0)  -->
<svg version="1.1" id="Calque_1" xmlns="http://www.w3.org/2000/svg" xmlns:xlink="http://www.w3.org/1999/xlink" x="0px" y="0px"
	 viewBox="0 0 222.27 212.31" style="enable-background:new 0 0 222.27 212.31;" xml:space="preserve">
<style type="text/css">
	.st0{fill:#FFFFFF;}
</style>
<g>
	<g>
		<path class="st0" d="M221.11,88.58c0.14-0.02,0.28-0.04,0.42-0.05c-0.23-1.89-0.4-3.8-0.69-5.68c-0.22-1.41-0.6-2.81-0.92-4.2
			c-0.87-3.8-1.36-7.71-3.32-11.21c-0.58-1.03-0.91-2.23-1.16-3.39c-1.13-5.25-3.59-9.88-6.58-14.25c-1.62-2.37-3.52-4.55-4.99-7.01
			c-1.69-2.83-3.43-5.39-6.32-7.27c-2.78-1.82-5.1-4.35-7.68-6.49c-1.09-0.91-2.34-1.64-3.52-2.44c-1.77-1.21-3.83-2.15-5.25-3.69
			c-2.1-2.28-3.89-4.8-6.56-6.55c-1.08-0.71-1.97-1.51-3.36-1.58c-0.74-0.04-1.52-0.44-2.17-0.85c-4.13-2.59-8.34-5.02-12.94-6.7
			c-1.95-0.71-3.92-1.36-5.91-1.96c-4.34-1.33-8.67-2.76-13.31-2.64c-0.87,0.02-1.76-0.09-2.62-0.27
			c-4.92-1.04-9.85-1.92-14.93-1.67c-1.49,0.07-3-0.35-4.51-0.46c-1.66-0.12-3.34-0.27-5-0.17c-2.71,0.16-5.4,0.48-8.1,0.77
			c-0.87,0.09-1.72,0.3-2.59,0.44C95.48,1.8,91.96,3,88.23,2.77c-2.2-0.14-4.47,0.09-6.59,0.35c-2.75,0.33-5.75,0.33-8.28,2.05
			c-0.69,0.47-1.87,0.19-2.8,0.37c-2.03,0.39-4.1,0.66-6.04,1.32c-2.18,0.74-4.25,1.84-6.35,2.81c-2.25,1.04-4.61,1.89-6.69,3.2
			c-4.32,2.72-8.67,5.47-12.65,8.64c-3.4,2.71-7.03,5.32-9.2,9.32c-0.32,0.59-0.97,1.06-1.56,1.44c-1.84,1.21-3.24,2.81-4.48,4.6
			c-2.22,3.2-4.72,6.16-6.67,9.6c-1.57,2.76-3.17,5.47-4.39,8.41c-0.27,0.65-0.8,1.18-1.17,1.79c-0.73,1.21-1.68,2.36-2.11,3.68
			c-1.01,3.11-1.77,6.3-2.64,9.45c-0.4,1.46-0.82,2.92-1.23,4.38c-0.54,1.91-1.14,3.8-1.63,5.72c-0.8,3.1-1.16,6.25-1.08,9.47
			c0.02,0.91-0.42,1.85-0.7,2.75c-0.35,1.14-1.06,2.26-1.09,3.4c-0.11,4.23-0.36,8.51,0.14,12.69c0.33,2.82-0.28,5.35-0.69,8
			c-0.23,1.47-0.44,3.01-0.26,4.46c0.41,3.24,1.05,6.44,1.63,9.65c0.26,1.41,0.73,2.78,0.93,4.2c0.44,3.28,1.49,6.37,2.94,9.3
			c1.63,3.29,3.45,6.49,5.15,9.74c1.32,2.53,2.56,5.11,3.9,7.64c0.6,1.12,1.3,2.21,2.07,3.22c2.71,3.59,4.7,7.86,9.1,9.9
			c0.28,0.13,0.5,0.39,0.76,0.58c2.61,1.98,5.17,4.02,7.85,5.9c2.15,1.51,4.41,2.88,6.7,4.18c3.99,2.27,8.63,3.4,12,6.79
			c0.21,0.22,0.56,0.31,0.85,0.44c3.96,1.9,7.93,3.77,11.87,5.7c6.06,2.98,12.6,4.45,19.06,6.2c3.6,0.97,7.37,1.52,10.44,3.95
			c0.34,0.27,0.91,0.48,1.33,0.42c3.26-0.45,6.11,1,9.06,1.9c2.9,0.88,5.8,1.57,8.84,1.8c6.14,0.48,12.25-0.68,18.38-0.07
			c0.55,0.05,1.16,0.08,1.67-0.1c3.57-1.3,7.51-0.35,11.03-1.89c6.62-0.63,12.3-4.41,18.75-5.63c0.08-0.01,0.14-0.08,0.22-0.1
			c5.12-1.65,9.33-4.85,13.58-7.98c1.32-0.97,2.41-2.11,2.87-3.73c0.39-1.37,1.41-1.97,2.65-2.53c1.65-0.74,3.28-1.63,4.72-2.72
			c2.16-1.63,4.17-3.47,6.19-5.28c1.19-1.06,2.45-2.11,3.4-3.37c2.78-3.69,5.49-7.45,8.1-11.27c1.16-1.71,2.04-3.62,2.99-5.46
			c0.98-1.91,1.99-3.82,2.82-5.8c0.96-2.27,1.68-4.64,2.6-6.93c0.9-2.23,1.69-4.45,1.75-6.91c0.02-0.99,0.39-2.06,0.87-2.94
			c1.63-2.98,2.13-6.12,1.96-9.48c-0.1-2.05,0.25-4.13,0.41-6.19c0.23-2.93,0.42-5.87,0.71-8.8c0.3-2.99,0.28-6.1,1.14-8.93
			c1.23-4.06,1.11-8.02,0.53-12.08C221.59,92.2,221.35,90.39,221.11,88.58z"/>
		<path d="M221.11,88.58c0.24,1.81,0.48,3.62,0.74,5.43c0.58,4.06,0.7,8.02-0.53,12.08c-0.86,2.83-0.84,5.94-1.14,8.93
			c-0.29,2.93-0.48,5.87-0.71,8.8c-0.16,2.06-0.51,4.14-0.41,6.19c0.17,3.37-0.33,6.5-1.96,9.48c-0.48,0.88-0.84,1.95-0.87,2.94
			c-0.06,2.46-0.86,4.68-1.75,6.91c-0.92,2.29-1.64,4.65-2.6,6.93c-0.83,1.98-1.84,3.89-2.82,5.8c-0.95,1.85-1.82,3.75-2.99,5.46
			c-2.61,3.82-5.32,7.58-8.1,11.27c-0.95,1.26-2.21,2.31-3.4,3.37c-2.02,1.8-4.03,3.64-6.19,5.28c-1.44,1.09-3.07,1.97-4.72,2.72
			c-1.24,0.56-2.25,1.16-2.65,2.53c-0.47,1.62-1.56,2.76-2.87,3.73c-4.25,3.13-8.46,6.33-13.58,7.98c-0.08,0.02-0.14,0.09-0.22,0.1
			c-6.45,1.21-12.12,5-18.75,5.63c-3.52,1.54-7.47,0.59-11.03,1.89c-0.5,0.18-1.12,0.16-1.67,0.1c-6.13-0.61-12.25,0.54-18.38,0.07
			c-3.04-0.24-5.94-0.92-8.84-1.8c-2.95-0.9-5.81-2.35-9.06-1.9c-0.42,0.06-0.99-0.14-1.33-0.42c-3.06-2.43-6.83-2.98-10.44-3.95
			c-6.46-1.75-13-3.22-19.06-6.2c-3.94-1.93-7.91-3.8-11.87-5.7c-0.29-0.14-0.63-0.23-0.85-0.44c-3.37-3.39-8-4.52-12-6.79
			c-2.29-1.3-4.55-2.67-6.7-4.18c-2.68-1.88-5.24-3.92-7.85-5.9c-0.25-0.19-0.48-0.45-0.76-0.58c-4.4-2.04-6.39-6.31-9.1-9.9
			c-0.77-1.02-1.47-2.1-2.07-3.22c-1.34-2.52-2.58-5.1-3.9-7.64c-1.7-3.26-3.52-6.45-5.15-9.74c-1.45-2.93-2.49-6.02-2.94-9.3
			c-0.19-1.41-0.67-2.79-0.93-4.2c-0.59-3.21-1.23-6.42-1.63-9.65c-0.18-1.46,0.03-2.99,0.26-4.46c0.41-2.65,1.02-5.18,0.69-8
			c-0.49-4.18-0.25-8.46-0.14-12.69c0.03-1.14,0.74-2.26,1.09-3.4c0.28-0.91,0.72-1.84,0.7-2.75C2.58,86.15,2.94,83,3.74,79.9
			c0.49-1.92,1.09-3.81,1.63-5.72c0.42-1.46,0.83-2.92,1.23-4.38c0.87-3.15,1.63-6.34,2.64-9.45c0.43-1.32,1.38-2.46,2.11-3.68
			c0.37-0.61,0.9-1.15,1.17-1.79c1.22-2.94,2.82-5.65,4.39-8.41c1.95-3.43,4.45-6.4,6.67-9.6c1.25-1.79,2.64-3.39,4.48-4.6
			c0.59-0.38,1.24-0.85,1.56-1.44c2.17-4,5.8-6.62,9.2-9.32c3.99-3.17,8.34-5.91,12.65-8.64c2.08-1.31,4.44-2.17,6.69-3.2
			c2.1-0.97,4.17-2.07,6.35-2.81c1.94-0.66,4.01-0.93,6.04-1.32c0.93-0.18,2.11,0.1,2.8-0.37c2.53-1.73,5.53-1.72,8.28-2.05
			c2.12-0.26,4.39-0.48,6.59-0.35C91.96,3,95.48,1.8,99.09,1.24c0.86-0.13,1.72-0.34,2.59-0.44c2.7-0.29,5.4-0.62,8.1-0.77
			c1.66-0.1,3.34,0.05,5,0.17c1.51,0.11,3.02,0.54,4.51,0.46c5.08-0.25,10,0.63,14.93,1.67c0.85,0.18,1.75,0.29,2.62,0.27
			c4.64-0.12,8.96,1.32,13.31,2.64c1.98,0.61,3.96,1.25,5.91,1.96c4.6,1.68,8.81,4.12,12.94,6.7c0.65,0.41,1.43,0.81,2.17,0.85
			c1.39,0.07,2.28,0.87,3.36,1.58c2.67,1.75,4.46,4.27,6.56,6.55c1.42,1.54,3.48,2.48,5.25,3.69c1.18,0.81,2.43,1.53,3.52,2.44
			c2.58,2.14,4.89,4.67,7.68,6.49c2.89,1.88,4.63,4.44,6.32,7.27c1.47,2.45,3.37,4.64,4.99,7.01c3,4.37,5.46,9,6.58,14.25
			c0.25,1.16,0.58,2.36,1.16,3.39c1.97,3.5,2.45,7.41,3.32,11.21c0.32,1.4,0.7,2.79,0.92,4.2c0.3,1.88,0.47,3.79,0.69,5.68
			C221.39,88.54,221.25,88.56,221.11,88.58z M135.54,203.17c1.58,1.35,3.34,1.45,5.32,1c3.1-0.69,5.55-3.08,8.82-3.3
			c0.25-0.02,0.48-0.38,0.72-0.59c1.71,0.41,3.3-0.11,4.92-0.6c4.83-1.46,9.6-3.01,13.48-6.48c0.58-0.52,1.34-0.99,2.09-1.13
			c2.71-0.5,4.63-2.43,6.92-3.68c1.94-1.06,3.05-3.01,4.59-4.48c1.54-1.47,3.55-2.43,5.16-3.83c1.19-1.03,2.07-2.39,3.59-3.08
			c0.53-0.24,1.07-0.83,1.25-1.38c0.45-1.35,1.25-2.37,2.32-3.26c0.4-0.34,0.59-0.93,0.88-1.4c0.5-0.81,0.87-1.74,1.51-2.39
			c2.69-2.74,4.62-5.85,5.61-9.61c0.32-1.22,1.25-2.4,2.19-3.3c2.31-2.2,3.28-4.85,2.32-7.78c-0.71-2.17-0.2-3.52,1.43-4.77
			c1.2-0.92,1.84-2.14,2.07-3.65c0.33-2.12,0.71-4.24,1.21-6.33c0.26-1.08,0.27-2.04-0.3-2.99c-0.65-1.1-0.55-2.25-0.37-3.48
			c0.24-1.72,0.18-3.49,0.3-5.23c0.14-2.06,0.08-4.18,0.56-6.16c0.85-3.47,1.99-6.88,3.14-10.27c0.46-1.36,0.48-2.48-0.54-3.53
			c-0.77-0.8-0.78-1.69-0.39-2.66c0.3-0.74,0.53-1.51,0.85-2.24c0.68-1.55,0.69-3.08,0.03-4.65c-0.28-0.65-0.67-1.38-0.62-2.04
			c0.17-2.03-0.13-3.96-0.7-5.9c-0.22-0.74-0.17-1.61-0.03-2.38c0.31-1.72,0.14-3.36-0.54-4.93c-0.79-1.83-1.68-3.61-2.52-5.41
			c-0.98-2.09-2.2-4.1-2.88-6.28c-1.1-3.51-2.21-6.98-4.07-10.18c-1.04-1.78-2.25-3.5-2.36-5.69c-0.02-0.35-0.31-0.75-0.59-1.01
			c-1.61-1.53-3.06-3.37-4.94-4.45c-3.1-1.78-5.58-4.26-8.29-6.47c-1.48-1.21-3.17-2.23-4.43-3.64c-1.53-1.71-3.21-3.08-5.23-4.1
			c-0.63-0.32-1.18-0.82-1.77-1.22c-1.25-0.84-2.45-1.77-3.77-2.49c-1.3-0.71-2.34-1.54-3.12-2.85c-1.03-1.72-2.43-3.06-4.39-3.9
			c-1.96-0.84-3.88-1.94-5.55-3.26c-1.43-1.12-2.95-1.85-4.62-2.42c-2.11-0.73-4.22-1.46-6.28-2.32c-2.4-1.01-4.8-1.22-7.23-0.3
			c-1.28,0.48-2.51,0.56-3.71-0.08c-3.82-2.04-8.13-2.12-12.22-3.07c-0.56-0.13-1.27,0.08-1.83,0.33c-0.8,0.35-1.54,0.84-2.27,1.34
			c-1.66,1.14-3.4,1.22-5.25,0.53c-1.87-0.69-3.74-1.4-5.65-1.96c-0.8-0.23-1.8-0.37-2.55-0.09c-2.3,0.84-4.53,0.59-6.83,0.08
			c-2.11-0.47-4.25-0.79-6.4-0.13C91.82,8.5,89.04,9.53,86,9.18c-0.47-0.05-1.01-0.06-1.42,0.12c-2.51,1.14-5.18,0.88-7.79,0.91
			c-1.9,0.02-3.61,0.42-5.26,1.36c-1.03,0.59-2.15,1.17-3.29,1.41c-3.98,0.83-7.35,3.09-11.04,4.59c-1.25,0.51-2.39,1.27-3.57,1.94
			c-3.71,2.11-6.8,5.01-10.05,7.71c-1.46,1.21-3.21,2.11-4.1,3.94c-0.21,0.44-0.84,0.7-1.31,1c-2.41,1.55-4.92,2.98-5.97,5.92
			c-0.18,0.5-0.55,1.03-0.98,1.32c-1.65,1.09-2.97,2.38-3.45,4.4c-0.1,0.41-0.51,0.87-0.9,1.08c-1.3,0.69-1.83,1.95-2.54,3.1
			c-0.71,1.14-1.5,2.26-2.37,3.27c-1.49,1.73-2.77,3.5-2.82,5.92c-0.02,0.69-0.31,1.39-0.56,2.06c-0.89,2.47-1.8,4.93-2.75,7.38
			c-0.19,0.5-0.52,1.07-0.95,1.33c-2.15,1.31-2.26,3.23-1.96,5.44c0.18,1.33,0.19,2.74-0.05,4.05c-0.45,2.42-1.09,4.81-1.77,7.18
			c-0.72,2.52-1.41,5.08-2.44,7.48c-0.58,1.34-1.4,2.44-0.75,4.01c0.2,0.49-0.17,1.22-0.28,1.83c-0.52,2.87-0.71,5.75,0.88,8.36
			c0.71,1.17,0.78,2.11,0.23,3.34c-0.9,2.04-0.88,4.29-0.25,6.34c0.45,1.48,0.4,2.67-0.01,4.13c-0.38,1.38-1.43,2.89-0.5,4.37
			c1.17,1.87,1.27,3.93,1.29,6c0.01,2.29,0.6,4.36,1.6,6.43c0.99,2.06,1.51,4.35,2.33,6.5c0.81,2.12,1.15,4.5,3.59,5.69
			c0.62,0.3,0.87,1.42,1.23,2.19c0.5,1.07,0.77,2.29,1.45,3.22c2.25,3.08,4.62,6.07,7.01,9.05c0.74,0.92,1.93,1.54,2.53,2.52
			c1.55,2.55,4.3,3.75,6.22,5.86c0.25,0.28,0.67,0.42,1.03,0.59c3.7,1.86,6.99,4.38,10.25,6.86c2.09,1.59,4.07,2.92,6.71,3.37
			c2.09,0.36,4.18,0.97,5.25,3.28c0.35,0.76,1.35,1.39,2.19,1.72c1.24,0.5,2.6,0.75,3.93,0.98c1.38,0.25,2.74,0.56,3.49,1.82
			c0.7,1.19,1.7,1.34,2.87,1.2c1.7-0.2,3.14,0.22,4.34,1.51c0.47,0.51,1.12,0.91,1.77,1.19c1.91,0.8,3.86,1.49,5.78,2.26
			c1.39,0.56,2.78,0.88,4.16,0.1c1.37-0.77,2.58-1.19,4.23-0.37c1.51,0.75,2.39-0.01,2.49-1.76c0.09-1.59,0-3.2,0.06-4.8
			c0.05-1.35-0.01-2.77,0.39-4.03c0.43-1.38,0.32-2.49-0.51-3.59c-0.83-1.09-1.58-2.19-1.46-3.69c0.03-0.39-0.28-1-0.62-1.21
			c-2.81-1.79-4.22-4.76-6.21-7.23c-1.51-1.87-2.2-4.04-1.78-6.49c0.09-0.53,0.03-1.12-0.11-1.65c-0.84-3.14-1.69-6.24-2.15-9.5
			c-0.58-4.11-0.64-8.13,0.24-12.14c0.76-3.45,1.37-6.89,1.24-10.44c-0.03-0.77,0.24-1.57,0.45-2.34c0.77-2.76,0.28-4.66-2.07-6.31
			c-1.35-0.95-3-1.46-4.48-2.23c-1.19-0.61-2.44-1.18-3.48-2c-2.13-1.68-4.12-3.53-6.2-5.27c-1.57-1.32-3.02-2.82-3.22-4.88
			c-0.21-2.25-1.41-3.67-3.03-4.91c-2.38-1.83-4.05-4.25-5.66-6.72c-0.34-0.52-0.59-1.15-0.69-1.76c-0.52-3.19,0.14-6.35,0.29-9.53
			c0.02-0.45,0.3-0.9,0.5-1.34c1.25-2.75,3.96-3.24,6.42-4.12c2.74-0.99,5.05-0.23,6.89,1.92c1.19,1.39,2.25,2.88,3.35,4.34
			c0.33,0.44,0.5,1.04,0.9,1.39c1.98,1.74,4.01,3.41,6.02,5.11c0.48,0.41,1.08,0.77,1.38,1.29c1.22,2.18,3.09,3.58,5.18,4.83
			c1.63,0.98,3.03,2.35,5.12,2.37c0.36,0,0.69,0.39,1.07,0.51c2.27,0.73,4.49,1.79,6.98,1.3c1.69-0.33,2.31-1.33,1.9-2.93
			c-0.86-3.38-1.81-6.75-2.49-10.17c-0.25-1.26,0.01-2.69,0.33-3.97c0.7-2.86,1.56-5.68,2.42-8.5c0.22-0.74,0.54-1.53,1.05-2.09
			c0.99-1.09,1.59-2.27,1.99-3.72c0.57-2.03,1.26-4.25,3.8-4.8c2.57-0.55,4.74-1.73,6.57-3.65c1-1.05,2.33-1.35,3.76-0.75
			c2.32,0.97,4.62,0.88,6.98,0.06c0.65-0.23,1.71-0.17,2.21,0.22c1.53,1.19,3.19,2.01,4.96,2.77c4.67,2,6.84,6.55,9.89,10.18
			c0.09,0.11,0.09,0.31,0.15,0.45c0.62,1.37,1.25,2.73,1.87,4.1c0.48,1.08,1.08,2.14,1.39,3.28c1,3.61,1.96,7.24,1.74,11.06
			c-0.06,0.94,0.08,1.94,0.37,2.83c0.36,1.12,0.1,1.96-0.49,2.92c-1.39,2.28-1.19,4.04,0.8,5.74c2.29,1.97,4.55,4,7.43,5.14
			c0.48,0.19,0.96,0.62,1.25,1.06c1.05,1.6,1.98,3.27,3.03,4.87c0.65,0.99,1.3,2.04,2.16,2.83c1.73,1.61,3.03,3.46,3.99,5.62
			c0.71,1.6,1.64,3.1,2.39,4.68c1.19,2.48,1.95,5.11,3.7,7.4c1.35,1.77,1.87,4.18,2.76,6.31c1.03,2.5,1.03,2.5-1.1,4.13
			c-2.89,2.23-3.03,4.3-0.63,7.05c0.88,1,1.62,2.16,2.25,3.34c0.56,1.03,0.78,2.23,1.34,3.25c0.63,1.16,0.77,2.18,0.11,3.38
			c-1.07,1.95-2.05,3.95-3,5.95c-0.9,1.89-2.34,2.74-4.42,2.58c-1.19-0.09-2.4-0.17-3.59-0.13c-2.2,0.07-3.85,0.97-4.47,3.25
			c-0.4,1.47-1.31,2.46-2.68,3.18c-2.07,1.09-4.15,1.99-6.51,2.27c-2,0.24-2.42,1.01-1.52,2.69c0.86,1.6,0.98,3.3,0.4,4.88
			c-1.07,2.93-0.69,5.75,0.57,8.38c0.76,1.6,0.33,2.49-0.77,3.46c-0.24,0-0.48,0-0.72,0c-3.34-0.08-3.92-0.66-3.95-3.92
			c-0.02-2.79-0.04-5.58-0.09-8.37c-0.01-0.71-0.02-1.47-0.25-2.12c-1.37-3.94-0.78-3.92-4.84-2.81c-0.23,0.06-0.47,0.11-0.69,0.19
			c-1.71,0.65-2.86,1.75-2.8,3.72c0.04,1.43-0.17,2.99,0.33,4.26c1.25,3.2,0.36,6.48,0.72,9.7c0.22,1.97-0.4,2.31-2.62,2.23
			c-0.67-0.17-1.36-0.56-1.99-0.47c-1.39,0.19-1.78-0.55-1.72-1.63c0.14-2.49-1.27-4.95-0.1-7.48c0.2-0.43-0.06-1.1-0.19-1.63
			c-0.17-0.69-0.62-1.36-0.63-2.04c-0.08-3.54-0.86-3.6-4.6-4.67c-0.82-0.24-1.74-0.17-2.61-0.19c-1.35-0.03-2.71,0.03-4.06,0
			c-4.07-0.09-6.05,2.16-5.45,6.2c0.12,0.78,0.42,1.62,0.25,2.35c-0.53,2.32-1.17,4.63-1.91,6.89c-0.51,1.55-0.52,1.92,1,2.57
			c0.79,0.34,1.68,0.55,2.53,0.59c1.67,0.09,3.35,0.04,5.02,0c2.32-0.05,4.58,0.06,6.87,0.67c1.38,0.37,2.98,0.09,4.44-0.13
			C133.45,204.05,134.49,203.53,135.54,203.17z M134.26,178.75c4.41,0.22,7.66-0.35,10.82-1.71c1.74-0.75,3.66-1.1,5.51-1.6
			c0.85-0.23,1.74-0.31,2.56-0.6c2.34-0.81,3.43-2.57,3.63-5.05c0.28-3.41-0.76-6.64-1.17-9.95c-0.07-0.56-0.53-1.21-1-1.56
			c-2-1.48-3.2-3.54-4.32-5.67c-0.81-1.54-1.39-3.17-2.86-4.33c-0.55-0.44-0.68-1.57-0.78-2.41c-0.45-3.78-1.05-7.45-4.42-9.94
			c-0.31-0.23-0.58-0.94-0.44-1.23c0.19-0.42,0.73-0.87,1.19-0.95c2.75-0.51,7.11,2.07,7.23,5.2c0.12,3.37,1.8,6.25,3.31,9.15
			c0.65,1.24,1.48,1.49,2.84,1.02c2.11-0.73,4.19-1.54,6.28-2.34c1.72-0.67,4.01-4.03,3.99-5.86c-0.01-0.47-0.06-1.02-0.31-1.38
			c-1.93-2.73-2.96-5.81-3.63-9.04c-0.05-0.23-0.15-0.46-0.27-0.66c-2.09-3.67-3.72-7.65-6.73-10.7c-1.9-1.92-3.89-3.94-6.24-5.16
			c-2.26-1.17-4.2-2.52-5.92-4.32c-0.92-0.96-2.04-1.44-3.41-1.5c-3.05-0.12-5.96-0.01-8.91,1.19c-3.14,1.28-6.53,2.45-9.96,0.7
			c-1.2-0.61-2.4-0.75-3.71-0.61c-4.16,0.46-8.1-0.76-11.97-1.91c-1.96-0.58-3.69-0.91-5.53-0.03c-1.17,0.56-2.28,0.58-3.46,0.06
			c-0.43-0.19-0.92-0.25-1.39-0.34c-3.25-0.58-6.4-1.34-8.96-3.66c-0.74-0.67-1.86-0.91-2.71-1.48c-2.32-1.54-4.69-3.02-6.84-4.77
			c-1.64-1.33-2.57-1.47-3.61,0.32c-0.64,1.09-1.44,1.86-2.52,2.45c-1.45,0.79-2.4,1.87-1.7,3.71c0.13,0.34,0.01,0.78-0.04,1.17
			c-0.21,1.83-0.06,1.88,1.39,2.86c1.58,1.06,3.24,2.14,4.45,3.57c1.91,2.24,4.18,3.89,6.67,5.38c2.39,1.43,4.84,2.81,6.6,5.1
			c0.85,1.1,1.09,2.19,0.82,3.57c-0.36,1.87-0.48,3.78-0.69,5.68c-0.13,1.19-0.21,2.38-0.35,3.57c-0.17,1.42-0.39,2.84-0.55,4.26
			c-0.64,5.55,0.8,11.09,0.15,16.65c-0.06,0.53,0.22,1.09,0.29,1.64c0.37,2.84,2.15,5.13,3.01,7.78c0.48,1.48,1.4,2.61,2.67,3.57
			c0.92,0.7,1.57,1.76,2.26,2.72c0.7,0.97,1.28,2,2.52,2.45c2.33,0.84,4.63,1.75,6.93,2.68c4.59,1.85,9.29,2.8,14.28,2.37
			c1.54-0.13,3.13,0.46,4.71,0.59c1.58,0.13,3.3,0.51,4.73,0.05C130.88,178.69,133.03,178.61,134.26,178.75z M101.7,90.15
			c-0.03,3.25,1.09,5.78,3.47,7.95c1.14,1.04,1.82,2.58,2.79,3.83c0.51,0.66,1.14,1.5,1.86,1.67c3.41,0.85,6.48-0.36,9.25-2.19
			c1.45-0.96,3.15-7.54,2.92-9.33c-0.23-1.8-0.22-3.64-0.35-5.46c-0.07-1.02-0.1-2.06-0.33-3.06c-0.44-1.93-1.17-3.82-1.46-5.77
			c-0.26-1.8-1.05-2.88-2.71-3.55c-0.93-0.37-1.74-1.06-2.56-1.67c-0.64-0.47-1.16-1.1-1.8-1.56c-1.93-1.39-3.39-0.95-4.43,1.15
			c-0.55,1.12-1.23,2.2-1.99,3.19c-1.02,1.34-2.03,2.65-2.35,4.37c-0.33,1.72-0.7,3.42-1.09,5.13
			C102.53,86.63,102.11,88.39,101.7,90.15z M108.74,193.2c-0.01,0-0.03,0-0.04,0c0-1.44,0.02-2.88,0-4.32
			c-0.05-3.97-1.28-5.6-5.06-6.75c-0.46-0.14-0.91-0.3-1.37-0.44c-2.24-0.69-3.04-0.23-3.12,2.08c-0.08,2.39,0.11,4.78,0.13,7.18
			c0.01,0.93-0.06,1.89-0.24,2.8c-0.18,0.85-0.59,1.65-0.85,2.49c-0.61,1.98-0.33,2.64,1.68,3.09c1.85,0.41,3.49,1.07,4.86,2.41
			c1.73,1.7,3.17-0.15,4.56-0.64c1.22-0.43-0.5-1.17-0.42-1.91c0.05-0.46-0.11-0.95-0.11-1.43
			C108.73,196.23,108.74,194.71,108.74,193.2z M167.56,168.64c0.38-0.25,1.49-0.61,1.98-1.37c0.74-1.16,1.02-2.61,1.56-3.91
			c0.45-1.09,0.11-1.93-0.5-2.88c-1.41-2.2-2.65-4.5-4.03-6.72c-0.3-0.49-0.81-1.11-1.3-1.2c-2.02-0.35-4.11,1.97-3.51,3.98
			c0.55,1.86,0.34,3.61-0.09,5.4C160.8,165.55,163.22,168.61,167.56,168.64z M67.6,89.95c-0.58-2.62-1.61-4.67-3.35-6.26
			c-0.96-0.88-3.02-0.64-3.98,0.36c-1.18,1.24-2.11,2.76-1.91,4.49c0.39,3.31,0.93,6.61,3.83,8.92c1.43,1.14,2.58,1.2,3.23-0.45
			C66.36,94.65,66.94,92.16,67.6,89.95z M95.81,196.83c-0.13-0.06-0.35-0.19-0.38-0.15c-0.11,0.12-0.16,0.3-0.23,0.46
			c0.15,0.02,0.31,0.09,0.43,0.04C95.72,197.14,95.75,196.95,95.81,196.83z"/>
		<path class="st0" d="M150.43,200.31c1.1-0.97,1.53-1.86,0.77-3.46c-1.25-2.63-1.64-5.45-0.57-8.38c0.58-1.58,0.46-3.27-0.4-4.88
			c-0.9-1.68-0.49-2.45,1.52-2.69c2.36-0.28,4.44-1.18,6.51-2.27c1.37-0.73,2.28-1.71,2.68-3.18c0.62-2.28,2.27-3.18,4.47-3.25
			c1.2-0.04,2.4,0.04,3.59,0.13c2.08,0.16,3.52-0.69,4.42-2.58c0.95-2.01,1.93-4.01,3-5.95c0.66-1.2,0.52-2.22-0.11-3.38
			c-0.56-1.03-0.78-2.23-1.34-3.25c-0.64-1.18-1.38-2.33-2.25-3.34c-2.41-2.75-2.26-4.83,0.63-7.05c2.12-1.64,2.13-1.64,1.1-4.13
			c-0.88-2.13-1.4-4.54-2.76-6.31c-1.75-2.29-2.51-4.92-3.7-7.4c-0.76-1.58-1.68-3.08-2.39-4.68c-0.96-2.15-2.25-4.01-3.99-5.62
			c-0.86-0.8-1.51-1.84-2.16-2.83c-1.04-1.6-1.98-3.27-3.03-4.87c-0.29-0.44-0.76-0.86-1.25-1.06c-2.88-1.14-5.14-3.18-7.43-5.14
			c-1.99-1.71-2.19-3.47-0.8-5.74c0.58-0.96,0.84-1.8,0.49-2.92c-0.29-0.89-0.42-1.9-0.37-2.83c0.23-3.82-0.74-7.45-1.74-11.06
			c-0.31-1.13-0.91-2.19-1.39-3.28c-0.61-1.37-1.25-2.73-1.87-4.1c-0.07-0.14-0.06-0.34-0.15-0.45c-3.05-3.64-5.22-8.18-9.89-10.18
			c-1.77-0.76-3.43-1.58-4.96-2.77c-0.51-0.39-1.56-0.45-2.21-0.22c-2.36,0.82-4.66,0.91-6.98-0.06c-1.43-0.6-2.76-0.3-3.76,0.75
			c-1.83,1.92-4,3.1-6.57,3.65c-2.54,0.55-3.23,2.76-3.8,4.8c-0.41,1.45-1,2.62-1.99,3.72c-0.51,0.56-0.82,1.35-1.05,2.09
			c-0.86,2.82-1.72,5.64-2.42,8.5c-0.32,1.28-0.57,2.71-0.33,3.97c0.68,3.42,1.63,6.79,2.49,10.17c0.41,1.6-0.2,2.6-1.9,2.93
			c-2.49,0.49-4.71-0.58-6.98-1.3c-0.37-0.12-0.71-0.51-1.07-0.51c-2.09-0.02-3.49-1.39-5.12-2.37c-2.09-1.26-3.96-2.66-5.18-4.83
			c-0.29-0.52-0.9-0.89-1.38-1.29c-2.01-1.7-4.04-3.38-6.02-5.11c-0.4-0.35-0.57-0.95-0.9-1.39c-1.1-1.46-2.16-2.95-3.35-4.34
			c-1.84-2.15-4.15-2.91-6.89-1.92c-2.45,0.88-5.16,1.38-6.42,4.12c-0.2,0.43-0.48,0.88-0.5,1.34c-0.15,3.17-0.81,6.34-0.29,9.53
			c0.1,0.61,0.35,1.25,0.69,1.76c1.61,2.47,3.28,4.89,5.66,6.72c1.62,1.25,2.81,2.66,3.03,4.91c0.2,2.06,1.66,3.56,3.22,4.88
			c2.08,1.75,4.07,3.6,6.2,5.27c1.04,0.82,2.29,1.39,3.48,2c1.48,0.77,3.13,1.28,4.48,2.23c2.35,1.65,2.84,3.54,2.07,6.31
			c-0.21,0.76-0.48,1.56-0.45,2.34c0.13,3.55-0.48,6.99-1.24,10.44c-0.88,4.01-0.82,8.03-0.24,12.14c0.46,3.25,1.31,6.36,2.15,9.5
			c0.14,0.52,0.2,1.12,0.11,1.65c-0.42,2.45,0.28,4.62,1.78,6.49c1.99,2.47,3.4,5.44,6.21,7.23c0.34,0.22,0.66,0.82,0.62,1.21
			c-0.12,1.5,0.63,2.6,1.46,3.69c0.84,1.1,0.95,2.21,0.51,3.59c-0.39,1.26-0.33,2.68-0.39,4.03c-0.06,1.6,0.03,3.2-0.06,4.8
			c-0.1,1.75-0.98,2.52-2.49,1.76c-1.65-0.82-2.86-0.41-4.23,0.37c-1.38,0.78-2.77,0.46-4.16-0.1c-1.92-0.77-3.87-1.46-5.78-2.26
			c-0.65-0.27-1.3-0.68-1.77-1.19c-1.2-1.3-2.64-1.71-4.34-1.51c-1.17,0.14-2.17-0.01-2.87-1.2c-0.75-1.27-2.11-1.58-3.49-1.82
			c-1.33-0.24-2.69-0.49-3.93-0.98c-0.84-0.34-1.83-0.96-2.19-1.72c-1.07-2.31-3.17-2.92-5.25-3.28c-2.64-0.46-4.62-1.78-6.71-3.37
			c-3.26-2.49-6.55-5-10.25-6.86c-0.35-0.18-0.77-0.32-1.03-0.59c-1.92-2.11-4.67-3.31-6.22-5.86c-0.6-0.99-1.79-1.6-2.53-2.52
			c-2.39-2.97-4.75-5.97-7.01-9.05c-0.68-0.93-0.95-2.15-1.45-3.22c-0.36-0.77-0.61-1.89-1.23-2.19c-2.44-1.19-2.79-3.57-3.59-5.69
			c-0.82-2.15-1.33-4.44-2.33-6.5c-1-2.07-1.58-4.14-1.6-6.43c-0.01-2.07-0.11-4.12-1.29-6c-0.93-1.49,0.12-2.99,0.5-4.37
			c0.41-1.46,0.46-2.65,0.01-4.13c-0.62-2.05-0.65-4.3,0.25-6.34c0.54-1.23,0.48-2.17-0.23-3.34c-1.59-2.6-1.4-5.48-0.88-8.36
			c0.11-0.62,0.48-1.34,0.28-1.83c-0.65-1.57,0.17-2.66,0.75-4.01c1.03-2.4,1.72-4.96,2.44-7.48c0.68-2.37,1.32-4.76,1.77-7.18
			c0.25-1.31,0.23-2.72,0.05-4.05c-0.29-2.2-0.19-4.13,1.96-5.44c0.43-0.26,0.76-0.83,0.95-1.33c0.95-2.44,1.85-4.91,2.75-7.38
			c0.24-0.67,0.54-1.37,0.56-2.06c0.05-2.42,1.33-4.19,2.82-5.92c0.88-1.02,1.67-2.13,2.37-3.27c0.71-1.15,1.24-2.41,2.54-3.1
			c0.39-0.21,0.8-0.66,0.9-1.08c0.48-2.02,1.8-3.31,3.45-4.4c0.43-0.29,0.8-0.82,0.98-1.32c1.05-2.94,3.56-4.37,5.97-5.92
			c0.46-0.3,1.09-0.56,1.31-1c0.89-1.84,2.64-2.73,4.1-3.94c3.25-2.71,6.34-5.61,10.05-7.71c1.18-0.67,2.32-1.44,3.57-1.94
			c3.69-1.5,7.06-3.76,11.04-4.59c1.15-0.24,2.26-0.81,3.29-1.41c1.65-0.95,3.36-1.34,5.26-1.36c2.62-0.03,5.29,0.23,7.79-0.91
			c0.41-0.19,0.96-0.17,1.42-0.12c3.04,0.35,5.82-0.68,8.63-1.55c2.14-0.66,4.29-0.35,6.4,0.13c2.3,0.52,4.53,0.76,6.83-0.08
			c0.75-0.27,1.75-0.14,2.55,0.09c1.91,0.56,3.78,1.27,5.65,1.96c1.85,0.69,3.59,0.61,5.25-0.53c0.72-0.5,1.47-0.99,2.27-1.34
			c0.56-0.25,1.27-0.46,1.83-0.33c4.09,0.95,8.4,1.04,12.22,3.07c1.19,0.64,2.42,0.56,3.71,0.08c2.43-0.92,4.83-0.71,7.23,0.3
			c2.05,0.87,4.17,1.59,6.28,2.32c1.67,0.58,3.19,1.3,4.62,2.42c1.67,1.32,3.59,2.42,5.55,3.26c1.96,0.84,3.36,2.17,4.39,3.9
			c0.78,1.31,1.82,2.14,3.12,2.85c1.32,0.72,2.52,1.64,3.77,2.49c0.59,0.4,1.14,0.9,1.77,1.22c2.02,1.02,3.71,2.4,5.23,4.1
			c1.26,1.41,2.95,2.43,4.43,3.64c2.71,2.21,5.19,4.69,8.29,6.47c1.88,1.08,3.32,2.92,4.94,4.45c0.28,0.26,0.57,0.66,0.59,1.01
			c0.11,2.19,1.32,3.9,2.36,5.69c1.86,3.2,2.97,6.67,4.07,10.18c0.69,2.18,1.9,4.19,2.88,6.28c0.84,1.8,1.74,3.58,2.52,5.41
			c0.68,1.57,0.85,3.22,0.54,4.93c-0.14,0.77-0.18,1.64,0.03,2.38c0.57,1.94,0.88,3.86,0.7,5.9c-0.06,0.66,0.34,1.38,0.62,2.04
			c0.67,1.56,0.65,3.09-0.03,4.65c-0.32,0.73-0.55,1.5-0.85,2.24c-0.39,0.97-0.38,1.87,0.39,2.66c1.02,1.05,1,2.17,0.54,3.53
			c-1.16,3.39-2.29,6.8-3.14,10.27c-0.49,1.98-0.42,4.1-0.56,6.16c-0.12,1.74-0.06,3.5-0.3,5.23c-0.17,1.23-0.27,2.38,0.37,3.48
			c0.56,0.96,0.55,1.91,0.3,2.99c-0.5,2.09-0.88,4.21-1.21,6.33c-0.23,1.51-0.87,2.73-2.07,3.65c-1.64,1.25-2.14,2.59-1.43,4.77
			c0.95,2.93-0.02,5.58-2.32,7.78c-0.94,0.9-1.87,2.08-2.19,3.3c-0.99,3.76-2.92,6.87-5.61,9.61c-0.65,0.66-1.02,1.59-1.51,2.39
			c-0.29,0.47-0.48,1.06-0.88,1.4c-1.07,0.9-1.87,1.91-2.32,3.26c-0.18,0.55-0.72,1.14-1.25,1.38c-1.53,0.69-2.4,2.05-3.59,3.08
			c-1.61,1.4-3.62,2.36-5.16,3.83c-1.54,1.47-2.65,3.42-4.59,4.48c-2.29,1.25-4.21,3.17-6.92,3.68c-0.75,0.14-1.51,0.61-2.09,1.13
			c-3.87,3.47-8.65,5.02-13.48,6.48c-1.61,0.49-3.2,1.01-4.92,0.6C150.41,200.29,150.43,200.31,150.43,200.31z"/>
		<path class="st0" d="M134.26,178.75c-1.23-0.14-3.38-0.05-5.6,0.66c-1.43,0.46-3.15,0.08-4.73-0.05
			c-1.58-0.13-3.17-0.73-4.71-0.59c-4.99,0.43-9.69-0.52-14.28-2.37c-2.3-0.93-4.6-1.83-6.93-2.68c-1.24-0.45-1.82-1.47-2.52-2.45
			c-0.69-0.96-1.34-2.03-2.26-2.72c-1.27-0.97-2.19-2.09-2.67-3.57c-0.86-2.65-2.64-4.94-3.01-7.78c-0.07-0.55-0.35-1.11-0.29-1.64
			c0.65-5.56-0.79-11.1-0.15-16.65c0.16-1.42,0.39-2.84,0.55-4.26c0.14-1.19,0.22-2.38,0.35-3.57c0.21-1.9,0.33-3.81,0.69-5.68
			c0.27-1.38,0.03-2.47-0.82-3.57c-1.76-2.29-4.21-3.66-6.6-5.1c-2.48-1.49-4.76-3.14-6.67-5.38c-1.21-1.42-2.87-2.51-4.45-3.57
			c-1.46-0.98-1.6-1.03-1.39-2.86c0.04-0.39,0.17-0.84,0.04-1.17c-0.71-1.84,0.25-2.92,1.7-3.71c1.09-0.59,1.89-1.36,2.52-2.45
			c1.04-1.79,1.97-1.65,3.61-0.32c2.15,1.75,4.53,3.23,6.84,4.77c0.86,0.57,1.97,0.81,2.71,1.48c2.56,2.32,5.72,3.08,8.96,3.66
			c0.47,0.08,0.96,0.15,1.39,0.34c1.18,0.52,2.29,0.5,3.46-0.06c1.83-0.88,3.57-0.55,5.53,0.03c3.88,1.15,7.82,2.37,11.97,1.91
			c1.31-0.15,2.51-0.01,3.71,0.61c3.43,1.76,6.82,0.58,9.96-0.7c2.95-1.2,5.87-1.31,8.91-1.19c1.37,0.05,2.49,0.54,3.41,1.5
			c1.72,1.8,3.66,3.15,5.92,4.32c2.35,1.22,4.34,3.24,6.24,5.16c3.01,3.05,4.64,7.03,6.73,10.7c0.12,0.21,0.22,0.43,0.27,0.66
			c0.67,3.23,1.71,6.31,3.63,9.04c0.25,0.36,0.3,0.91,0.31,1.38c0.03,1.83-2.26,5.19-3.99,5.86c-2.08,0.81-4.17,1.61-6.28,2.34
			c-1.36,0.47-2.19,0.23-2.84-1.02c-1.51-2.89-3.19-5.78-3.31-9.15c-0.11-3.14-4.48-5.71-7.23-5.2c-0.46,0.08-1,0.53-1.19,0.95
			c-0.13,0.3,0.13,1.01,0.44,1.23c3.37,2.49,3.97,6.16,4.42,9.94c0.1,0.84,0.22,1.97,0.78,2.41c1.47,1.17,2.05,2.8,2.86,4.33
			c1.12,2.13,2.32,4.19,4.32,5.67c0.47,0.35,0.93,1,1,1.56c0.42,3.31,1.45,6.54,1.17,9.95c-0.2,2.48-1.3,4.24-3.63,5.05
			c-0.82,0.29-1.72,0.37-2.56,0.6c-1.85,0.5-3.76,0.85-5.51,1.6C141.93,178.4,138.68,178.97,134.26,178.75z"/>
		<path class="st0" d="M101.7,90.15c0.41-1.76,0.83-3.52,1.23-5.29c0.38-1.71,0.76-3.41,1.09-5.13c0.33-1.72,1.33-3.03,2.35-4.37
			c0.76-0.99,1.44-2.07,1.99-3.19c1.04-2.1,2.5-2.54,4.43-1.15c0.64,0.46,1.17,1.09,1.8,1.56c0.82,0.61,1.63,1.3,2.56,1.67
			c1.67,0.67,2.45,1.74,2.71,3.55c0.28,1.95,1.02,3.83,1.46,5.77c0.22,0.99,0.26,2.03,0.33,3.06c0.13,1.82,0.12,3.65,0.35,5.46
			c0.23,1.79-1.48,8.37-2.92,9.33c-2.77,1.83-5.84,3.04-9.25,2.19c-0.72-0.18-1.34-1.02-1.86-1.67c-0.98-1.25-1.65-2.79-2.79-3.83
			C102.78,95.94,101.67,93.41,101.7,90.15z"/>
		<path class="st0" d="M135.54,203.17c-1.06,0.36-2.09,0.88-3.18,1.04c-1.47,0.21-3.07,0.5-4.44,0.13
			c-2.29-0.62-4.55-0.72-6.87-0.67c-1.67,0.04-3.35,0.08-5.02,0c-0.86-0.04-1.75-0.26-2.53-0.59c-1.52-0.65-1.51-1.02-1-2.57
			c0.75-2.26,1.38-4.57,1.91-6.89c0.17-0.72-0.14-1.56-0.25-2.35c-0.6-4.04,1.38-6.29,5.45-6.2c1.35,0.03,2.71-0.02,4.06,0
			c0.87,0.02,1.79-0.05,2.61,0.19c3.74,1.08,4.53,1.13,4.6,4.67c0.01,0.68,0.46,1.35,0.63,2.04c0.13,0.53,0.39,1.2,0.19,1.63
			c-1.17,2.53,0.23,4.99,0.1,7.48c-0.06,1.09,0.33,1.82,1.72,1.63c0.63-0.09,1.33,0.3,1.99,0.47L135.54,203.17z"/>
		<path class="st0" d="M108.74,193.2c0,1.52-0.01,3.04,0.01,4.56c0.01,0.48,0.17,0.96,0.11,1.43c-0.09,0.74,1.63,1.48,0.42,1.91
			c-1.39,0.49-2.83,2.34-4.56,0.64c-1.36-1.34-3.01-2-4.86-2.41c-2.01-0.45-2.29-1.1-1.68-3.09c0.26-0.84,0.67-1.64,0.85-2.49
			c0.19-0.91,0.25-1.86,0.24-2.8c-0.02-2.39-0.21-4.79-0.13-7.18c0.08-2.31,0.88-2.76,3.12-2.08c0.46,0.14,0.91,0.3,1.37,0.44
			c3.79,1.16,5.01,2.78,5.06,6.75c0.02,1.44,0,2.88,0,4.32C108.71,193.2,108.72,193.2,108.74,193.2z"/>
		<path class="st0" d="M135.52,203.19c2.22,0.08,2.85-0.26,2.62-2.23c-0.36-3.22,0.53-6.5-0.72-9.7c-0.5-1.27-0.29-2.83-0.33-4.26
			c-0.06-1.96,1.09-3.07,2.8-3.72c0.22-0.08,0.46-0.13,0.69-0.19c4.07-1.11,3.48-1.13,4.84,2.81c0.23,0.66,0.23,1.41,0.25,2.12
			c0.05,2.79,0.06,5.58,0.09,8.37c0.03,3.26,0.61,3.84,3.95,3.92c0.24,0.01,0.48,0,0.72,0c0,0-0.02-0.03-0.02-0.03
			c-0.24,0.2-0.47,0.57-0.72,0.59c-3.27,0.21-5.72,2.6-8.82,3.3c-1.98,0.44-3.74,0.35-5.32-1
			C135.54,203.17,135.52,203.19,135.52,203.19z"/>
		<path class="st0" d="M167.56,168.64c-4.34-0.03-6.76-3.09-5.89-6.69c0.43-1.8,0.65-3.55,0.09-5.4c-0.6-2.01,1.49-4.33,3.51-3.98
			c0.49,0.09,1,0.7,1.3,1.2c1.37,2.22,2.62,4.53,4.03,6.72c0.61,0.95,0.95,1.79,0.5,2.88c-0.54,1.3-0.82,2.75-1.56,3.91
			C169.05,168.03,167.94,168.39,167.56,168.64z"/>
		<path class="st0" d="M67.6,89.95c-0.66,2.21-1.24,4.71-2.17,7.06c-0.65,1.65-1.8,1.58-3.23,0.45c-2.91-2.31-3.45-5.6-3.83-8.92
			c-0.2-1.73,0.73-3.25,1.91-4.49c0.96-1,3.01-1.24,3.98-0.36C65.99,85.28,67.02,87.33,67.6,89.95z"/>
		<path class="st0" d="M95.81,196.83c-0.06,0.12-0.09,0.31-0.18,0.34c-0.12,0.05-0.28-0.02-0.43-0.04c0.07-0.16,0.12-0.34,0.23-0.46
			C95.46,196.65,95.68,196.78,95.81,196.83z"/>
	</g>
</g>
</svg>
