<?xml version="1.0" encoding="utf-8"?>
<!-- Generator: Adobe Illustrator 23.1.0, SVG Export Plug-In . SVG Version: 6.00 Build 0)  -->
<svg version="1.1" id="Calque_1" xmlns="http://www.w3.org/2000/svg" xmlns:xlink="http://www.w3.org/1999/xlink" x="0px" y="0px"
	 viewBox="0 0 595.28 598.37" style="enable-background:new 0 0 595.28 598.37;" xml:space="preserve">
<style type="text/css">
	.st0{fill:#FFFFFF;}
</style>
<g>
	<g>
		<path class="st0" d="M305.39,597.77c46.36-3.74,79.63-4.85,110.12-19.96c13.32-6.6,26.8-13,39.47-20.7
			c10.7-6.5,19.76-14.79,27.77-25.17c15.46-20.02,34.02-37.61,50.11-57.18c16.32-19.85,30.57-41.11,39.26-65.84
			c10.18-28.96,17.22-58.63,20.15-89c1.62-16.81,0.11-34.14-1.79-51.03c-2.17-19.24-4.74-38.71-9.98-57.27
			c-12.28-43.46-32.01-83.16-65.5-114.7c-14.02-13.2-27.12-27.78-42.7-38.82c-21.39-15.16-44.12-28.71-70.14-35.3
			c-23.55-5.96-47.1-11.95-70.42-18.74c-23.17-6.75-46.66-3.2-69.9-2.58c-14.26,0.38-28.51,4.93-42.56,8.43
			c-11.56,2.88-23.09,6.32-34.14,10.75c-10.22,4.1-19.74,9.92-29.65,14.81c-5.55,2.74-11.44,4.83-16.89,7.75
			c-3.57,1.91-6.85,4.52-9.88,7.24c-9.31,8.3-21.41,12.45-29.73,22.71c-9.15,11.29-21.56,19.88-31.2,30.84
			c-13.99,15.91-27.45,32.41-36.5,51.89c-1.98,4.25-4.16,8.44-5.76,12.83c-2.16,5.93-3.54,12.16-5.82,18.04
			c-3.46,8.97-8.78,17.45-10.9,26.69C-1,256.21-2.55,299.59,3.84,342.87c3.34,22.63,9.21,44.99,15.34,67.08
			c4.79,17.29,10.79,34.39,18,50.81c7.07,16.11,16.34,31.26,24.67,46.81c0.49,0.92,1.36,2.49,1.88,2.42
			c8.05-1.05,10.62,6.14,15.72,9.72c16.22,11.4,32.95,22.12,49.96,32.31c12.25,7.34,24.79,14.65,38.06,19.73
			c18.34,7.02,37.19,13.33,56.36,17.43C255.02,595.84,286.69,599.97,305.39,597.77z"/>
		<path d="M305.39,597.77c-18.7,2.2-50.37-1.93-81.57-8.59c-19.17-4.09-38.02-10.4-56.36-17.43c-13.27-5.08-25.8-12.4-38.06-19.73
			c-17.01-10.19-33.74-20.91-49.96-32.31c-5.1-3.58-9.21-6.59-16.88-14.71c-1.48-1.57-8.31-11.17-8.8-12.09
			c-8.33-15.55-9.52-16.04-16.59-32.15c-7.21-16.42-13.2-33.53-18-50.81c-6.13-22.09-11.99-44.45-15.34-67.08
			C-2.55,299.59-1,256.21,8.81,213.46c2.12-9.24,7.44-17.71,10.9-26.69c2.27-5.89,3.65-12.11,5.82-18.04
			c1.6-4.39,3.79-8.58,5.76-12.83c9.05-19.48,22.51-35.98,36.5-51.89c9.64-10.96,22.05-19.55,31.2-30.84
			c8.32-10.26,20.42-14.41,29.73-22.71c3.04-2.71,6.32-5.33,9.88-7.24c5.45-2.91,11.33-5.01,16.89-7.75
			c9.91-4.89,19.43-10.71,29.65-14.81c11.05-4.43,22.58-7.87,34.14-10.75c14.05-3.5,28.3-8.05,42.56-8.43
			c23.24-0.62,46.73-4.17,69.9,2.58c23.32,6.79,46.87,12.78,70.42,18.74c26.02,6.59,48.75,20.14,70.14,35.3
			c15.58,11.04,28.68,25.62,42.7,38.82c33.49,31.54,53.22,71.24,65.5,114.7c5.25,18.56,7.81,38.03,9.98,57.27
			c1.9,16.89,3.41,34.22,1.79,51.03c-2.93,30.37-9.97,60.04-20.15,89c-8.69,24.74-22.94,45.99-39.26,65.84
			c-16.09,19.57-34.66,37.16-50.11,57.18c-8.01,10.38-17.07,18.67-27.77,25.17c-12.68,7.7-26.16,14.1-39.47,20.7
			C385.02,592.92,351.76,594.04,305.39,597.77z M457,517.72c1.02,0.26,2.04,0.53,3.06,0.79c3.6-4.66,6.34-10.75,11.04-13.58
			c5.2-3.14,5.97-6.43,5.59-11.48c-1.75-23.76-3.93-47.51-4.8-71.3c-0.41-11.18-3.22-21.12-8.45-30.67
			c-3.16-5.77-6.26-11.59-9.77-17.14c-9.11-14.41-16.79-30.17-28.06-42.65c-14.68-16.26-35.7-22.16-56.98-25.63
			c-1.54-0.25-3.86,0.73-4.96,1.92c-5.34,5.85-10.3,12.05-15.56,17.98c-20.9,23.57-41.43,19.91-63.1,6.75
			c-18.31-11.12-29.6-29.22-40.55-46.16c-2.81,0.87-5.18,2.1-7.64,2.3c-15.33,1.27-30.68,3.03-46.03,3.22
			c-14.84,0.18-29.13,1.69-42.2,9.05c-9.11,5.13-18.2,10.42-26.65,16.53c-4.43,3.21-8.88,7.81-10.8,12.76
			c-2.9,7.47-3.57,15.81-5.23,23.76c-4.21,20.11-8.48,40.2-12.66,60.32c-5.01,24.08-10.04,48.15-14.74,72.29
			c-0.36,1.83,1.28,4.92,2.94,6.14c14.63,10.7,29.47,21.1,45.64,32.58c0.43-8.01,0.12-14.06,1.2-19.86
			c2.79-14.96,7.92-29.68,9.01-44.72c2.19-30.45,9.51-59.55,18.78-88.35c2.65-8.23,7.06-11.3,13.43-9.4
			c5.58,1.66,7.93,8.5,5.4,15.94c-3.29,9.67-7.65,19.11-9.74,29.04c-4.75,22.53-8.52,45.27-12.42,67.97
			c-1.44,8.4-1.83,16.98-3.23,25.39c-1.67,10.02-4.21,19.9-5.71,29.94c-0.33,2.22,1.46,6.13,3.38,7.11
			c25.24,12.93,51.41,23.65,79.05,30.26c23.21,5.55,46.64,10.15,70.7,8.63c22.33-1.4,44.67-2.85,66.92-5.09
			c8.41-0.85,17.13-2.78,24.75-6.3c14.3-6.62,27.97-14.62,41.7-22.41c2.04-1.16,4.09-4.28,4.15-6.55
			c0.15-5.57-1.07-11.16-1.35-16.77c-0.68-13.71-0.81-27.46-1.83-41.15c-0.58-7.66-3.11-15.17-3.69-22.83
			c-0.83-11.1-1.04-22.28-0.79-33.42c0.1-4.48,1.45-9.25,3.49-13.25c1.58-3.08,4.98-4.35,7.09,0.51
			c5.31,12.25,12.37,24.04,15.6,36.81c3.56,14.08,4.1,29.01,5.03,43.63C458.59,499.61,457.4,508.69,457,517.72z M356.08,234.05
			c-2.36-15.3-3.42-30.94-7.39-45.8c-5.3-19.82-12.94-39.04-32.99-49.34c-4.84-2.49-9.89-5.74-15.06-6.19
			c-14-1.21-36.6,15.08-42.88,29.43c-7.85,17.94-9.36,36.49-5.43,55.48c4.43,21.37,12.13,41.57,24.94,59.35
			c9.12,12.66,16.24,27.36,32.45,33.47c10.55,3.98,28.43-1.79,31.9-12.31C348.48,277.41,356.44,256.77,356.08,234.05z"/>
		<path class="st0" d="M457,517.72c0.4-9.03,1.59-18.11,1.02-27.08c-0.92-14.62-1.47-29.55-5.03-43.63
			c-3.23-12.77-10.29-24.56-15.6-36.81c-2.11-4.86-5.52-3.6-7.09-0.51c-2.04,3.99-3.39,8.77-3.49,13.25
			c-0.25,11.13-0.05,22.32,0.79,33.42c0.57,7.66,3.11,15.17,3.69,22.83c1.03,13.68,1.15,27.43,1.83,41.15
			c0.28,5.6,1.5,11.2,1.35,16.77c-0.06,2.27-2.11,5.39-4.15,6.55c-13.72,7.79-27.4,15.79-41.7,22.41
			c-7.61,3.52-16.34,5.46-24.75,6.3c-22.25,2.24-44.59,3.68-66.92,5.09c-24.07,1.51-47.5-3.08-70.7-8.63
			c-27.64-6.61-53.81-17.33-79.05-30.26c-1.92-0.98-3.71-4.89-3.38-7.11c1.5-10.04,4.03-19.92,5.71-29.94
			c1.41-8.41,1.79-16.99,3.23-25.39c3.9-22.7,7.67-45.44,12.42-67.97c2.09-9.92,6.45-19.36,9.74-29.04
			c2.53-7.44,0.18-14.28-5.4-15.94c-6.37-1.9-10.79,1.17-13.43,9.4c-9.27,28.81-16.59,57.91-18.78,88.35
			c-1.08,15.04-6.21,29.76-9.01,44.72c-1.08,5.8-0.77,11.85-1.2,19.86c-16.17-11.48-31.01-21.88-45.64-32.58
			c-1.66-1.21-3.3-4.31-2.94-6.14c4.7-24.14,9.73-48.21,14.74-72.29c4.18-20.11,8.45-40.21,12.66-60.32
			c1.67-7.96,2.33-16.29,5.23-23.76c1.92-4.95,6.36-9.55,10.8-12.76c8.45-6.12,17.54-11.41,26.65-16.53
			c13.07-7.35,27.36-8.87,42.2-9.05c15.36-0.19,30.7-1.95,46.03-3.22c2.46-0.2,4.83-1.43,7.64-2.3
			c10.95,16.94,22.24,35.03,40.55,46.16c21.68,13.16,42.2,16.82,63.1-6.75c5.26-5.93,10.22-12.13,15.56-17.98
			c1.09-1.2,3.42-2.17,4.96-1.92c21.28,3.47,42.3,9.38,56.98,25.63c11.27,12.49,18.96,28.24,28.06,42.65
			c3.51,5.55,6.61,11.37,9.77,17.14c5.23,9.54,8.04,19.49,8.45,30.67c0.87,23.79,3.05,47.54,4.8,71.3
			c0.37,5.05-0.39,8.34-5.59,11.48c-4.7,2.84-7.44,8.93-11.04,13.58C459.04,518.25,458.02,517.98,457,517.72z"/>
		<path class="st0" d="M356.08,234.05c0.36,22.71-7.6,43.36-14.46,64.09c-3.48,10.52-21.36,16.29-31.9,12.31
			c-16.21-6.12-23.33-20.81-32.45-33.47c-12.81-17.78-20.51-37.98-24.94-59.35c-3.94-18.98-2.43-37.54,5.43-55.48
			c6.28-14.35,28.88-30.64,42.88-29.43c5.17,0.45,10.22,3.71,15.06,6.19c20.06,10.3,27.69,29.52,32.99,49.34
			C352.66,203.11,353.72,218.76,356.08,234.05z"/>
	</g>
</g>
</svg>
