<?xml version="1.0" encoding="utf-8"?>
<!-- Generator: Adobe Illustrator 23.1.0, SVG Export Plug-In . SVG Version: 6.00 Build 0)  -->
<svg version="1.1" id="Calque_1" xmlns="http://www.w3.org/2000/svg" xmlns:xlink="http://www.w3.org/1999/xlink" x="0px" y="0px"
	 viewBox="0 0 595.28 715.72" style="enable-background:new 0 0 595.28 715.72;" xml:space="preserve">
<style type="text/css">
	.st0{fill:#FFFFFF;}
</style>
<g>
	<g>
		<path d="M159.45,566.46c-40.2-33.65-69.32-85.79-90.9-135.1c-27.7-63.3-50.27-130.91-61.08-198.89
			C-1.8,174.18-1.68,108.6,44.52,61.08c24.97-25.68,57.96-48.42,91.6-59.38c30.08-9.8,38.65,25.04,47.55,48.31
			c16.47,43.08,32.16,86.47,47.99,129.8c1.58,4.32,1.91,9.1,2.8,13.56c-3.83,30.53-25.1,45.44-50.86,48.01
			c-44.2,4.41-52.92,14.73-39.01,61.54c22.56,75.92,58.02,144.17,125.11,190.23c24.8,17.03,53.53,28.43,81.08,41.07
			c1.19,0.54,8.71-12.28,12.99-19.06c5.16-8.18,8.28-18.57,15.25-24.51c39.22-33.41,42.07-32.34,91.98,22.12
			c38.37,41.87,77.48,83.07,115.26,125.47c17.54,19.68,8.06,41.8-14.53,54.48c-61.61,34.58-124.3,23.56-187.71,9.64
			c-2.08-0.46-8.19-3.71-10.29-4.05 M16.89,193.87c6.98,31.2,15.01,62.21,20.75,93.63c17.68,96.81,53.69,186.95,125.13,254.38
			c50.85,48,114.25,83.09,173.71,121.36c16.05,10.33,38.15,11.25,57.46,16.55c2.26,0.62,4.74,1.24,6.55,2.61
			c4.33,3.3,7.88,9.4,12.51,10.26c51.96,9.7,100.2,2.89,144.29-29.56c13.94-10.26,15.58-15,4.02-27.54
			c-36.04-39.09-70.54-79.6-106.79-118.49c-11.41-12.24-26.47-21.08-39.85-31.47c-12.92,18.59-26.06,37.03-38.62,55.86
			c-3.09,4.63-3.01,13.5-6.68,15.07c-4.83,2.07-12.57,0.22-17.92-2.34c-17.87-8.57-36.46-16.46-52.54-27.79
			c-33.35-23.51-73.2-43.4-95.8-75.16c-30.43-42.77-50.73-94.07-68.22-144.21c-9.3-26.67-3.5-58.61-4.51-88.17
			c17.68,0.44,36.29,4.53,52.8,0.35c18.96-4.8,44.29-9.74,30.55-42.49c-16.3-38.86-30.86-78.52-44.53-118.4
			c-14.49-42.3-37.15-49.85-74.95-25.41C35.38,70.97,19.98,128.28,16.89,193.87z"/>
		<path class="st0" d="M16.89,193.87c3.1-65.59,18.49-122.9,77.35-160.95c37.8-24.44,60.45-16.89,74.95,25.41
			c13.66,39.88,28.23,79.54,44.53,118.4c13.74,32.75-11.59,37.68-30.55,42.49c-16.51,4.18-35.12,0.09-52.8-0.35
			c1.02,29.56-4.79,61.5,4.51,88.17c17.48,50.14,37.79,101.44,68.22,144.21c22.6,31.76,62.45,51.65,95.8,75.16
			c16.07,11.33,34.66,19.22,52.54,27.79c5.34,2.56,13.09,4.41,17.92,2.34c3.67-1.57,3.59-10.45,6.68-15.07
			c12.56-18.83,25.69-37.27,38.62-55.86c13.39,10.4,28.44,19.24,39.85,31.47c36.25,38.88,70.75,79.4,106.79,118.49
			c11.56,12.54,9.92,17.28-4.02,27.54c-44.09,32.45-92.33,39.26-144.29,29.56c-4.63-0.86-8.18-6.96-12.51-10.26
			c-1.8-1.37-4.28-1.99-6.55-2.61c-19.3-5.31-41.4-6.22-57.46-16.55c-59.46-38.27-122.85-73.36-173.71-121.36
			C91.32,474.45,55.32,384.31,37.64,287.5C31.9,256.08,23.87,225.07,16.89,193.87z"/>
	</g>
</g>
</svg>
